<?xml version="1.0" encoding="UTF-8" standalone="no"?>
<!DOCTYPE svg PUBLIC "-//W3C//DTD SVG 1.1//EN"
 "http://www.w3.org/Graphics/SVG/1.1/DTD/svg11.dtd">
<!-- Generated by graphviz version 2.40.1 (20161225.0304)
 -->
<!-- Pages: 1 -->
<svg width="998pt" height="276pt"
 viewBox="0.00 0.00 998.00 276.00" xmlns="http://www.w3.org/2000/svg" xmlns:xlink="http://www.w3.org/1999/xlink">
<g id="graph0" class="graph" transform="scale(1 1) rotate(0) translate(4 272)">
<polygon fill="transparent" stroke="transparent" points="-4,4 -4,-272 994,-272 994,4 -4,4"/>
<g id="clust1" class="cluster">
<title>cluster_bpdn.GenericBPDN</title>
<polygon fill="transparent" stroke="#d88c8c" stroke-width="2" stroke-dasharray="1,5" points="350,-120 350,-190 682,-190 682,-120 350,-120"/>
<text text-anchor="middle" x="516" y="-178.8" font-family="Vera Sans, DejaVu Sans, Liberation Sans, Arial, Helvetica, sans" font-size="9.00" fill="#000000">bpdn.GenericBPDN</text>
</g>
<g id="clust2" class="cluster">
<title>cluster_admm.ADMMEqual</title>
<polygon fill="transparent" stroke="#8cc8d8" stroke-width="2" stroke-dasharray="1,5" points="527.5,-42 527.5,-112 680.5,-112 680.5,-42 527.5,-42"/>
<text text-anchor="middle" x="604" y="-100.8" font-family="Vera Sans, DejaVu Sans, Liberation Sans, Arial, Helvetica, sans" font-size="9.00" fill="#000000">admm.ADMMEqual</text>
</g>
<g id="clust3" class="cluster">
<title>cluster_admm.ADMM</title>
<polygon fill="transparent" stroke="#8ed88c" stroke-width="2" stroke-dasharray="1,5" points="702,0 702,-178 990,-178 990,0 702,0"/>
<text text-anchor="middle" x="846" y="-166.8" font-family="Vera Sans, DejaVu Sans, Liberation Sans, Arial, Helvetica, sans" font-size="9.00" fill="#000000">admm.ADMM</text>
</g>
<g id="clust4" class="cluster">
<title>cluster_bpdn.BPDNProjL1</title>
<polygon fill="transparent" stroke="#d88ca4" stroke-width="2" stroke-dasharray="1,5" points="181,-198 181,-268 988,-268 988,-198 181,-198"/>
<text text-anchor="middle" x="584.5" y="-256.8" font-family="Vera Sans, DejaVu Sans, Liberation Sans, Arial, Helvetica, sans" font-size="9.00" fill="#000000">bpdn.BPDNProjL1</text>
</g>
<g id="clust5" class="cluster">
<title>cluster_admm._ADMM_Meta</title>
<polygon fill="transparent" stroke="#af8cd8" stroke-width="2" stroke-dasharray="1,5" points="0,-198 0,-268 161,-268 161,-198 0,-198"/>
<text text-anchor="middle" x="80.5" y="-256.8" font-family="Vera Sans, DejaVu Sans, Liberation Sans, Arial, Helvetica, sans" font-size="9.00" fill="#000000">admm._ADMM_Meta</text>
</g>
<!-- bpdn.GenericBPDN.setdict -->
<g id="node1" class="node">
<title>bpdn.GenericBPDN.setdict</title>
<g id="a_node1"><a xlink:href="../../sporco.admm.bpdn.html#sporco.admm.bpdn.GenericBPDN.setdict" xlink:title="bpdn.GenericBPDN.setdict" target="_top">
<path fill="#d88c8c" stroke="#000000" stroke-width=".25" d="M662,-164C662,-164 546,-164 546,-164 540,-164 534,-158 534,-152 534,-152 534,-140 534,-140 534,-134 540,-128 546,-128 546,-128 662,-128 662,-128 668,-128 674,-134 674,-140 674,-140 674,-152 674,-152 674,-158 668,-164 662,-164"/>
<text text-anchor="middle" x="604" y="-143.8" font-family="Vera Sans, DejaVu Sans, Liberation Sans, Arial, Helvetica, sans" font-size="9.00" fill="#000000">bpdn.GenericBPDN.setdict</text>
</a>
</g>
</g>
<!-- bpdn.GenericBPDN.__init__ -->
<g id="node2" class="node">
<title>bpdn.GenericBPDN.__init__</title>
<g id="a_node2"><a xlink:href="../../sporco.admm.bpdn.html#sporco.admm.bpdn.GenericBPDN.__init__" xlink:title="bpdn.GenericBPDN.__init__" target="_top">
<path fill="#d88c8c" stroke="#000000" stroke-width=".25" d="M486,-164C486,-164 370,-164 370,-164 364,-164 358,-158 358,-152 358,-152 358,-140 358,-140 358,-134 364,-128 370,-128 370,-128 486,-128 486,-128 492,-128 498,-134 498,-140 498,-140 498,-152 498,-152 498,-158 492,-164 486,-164"/>
<text text-anchor="middle" x="428" y="-143.8" font-family="Vera Sans, DejaVu Sans, Liberation Sans, Arial, Helvetica, sans" font-size="9.00" fill="#000000">bpdn.GenericBPDN.__init__</text>
</a>
</g>
</g>
<!-- bpdn.GenericBPDN.__init__&#45;&gt;bpdn.GenericBPDN.setdict -->
<g id="edge1" class="edge">
<title>bpdn.GenericBPDN.__init__&#45;&gt;bpdn.GenericBPDN.setdict</title>
<path fill="none" stroke="#d88c8c" stroke-width="2" d="M498.07,-146C506.54,-146 515.25,-146 523.85,-146"/>
<polygon fill="#d88c8c" stroke="#d88c8c" stroke-width="2" points="523.89,-149.5001 533.89,-146 523.89,-142.5001 523.89,-149.5001"/>
</g>
<!-- admm.ADMMEqual.__init__ -->
<g id="node3" class="node">
<title>admm.ADMMEqual.__init__</title>
<g id="a_node3"><a xlink:href="../../sporco.admm.admm.html#sporco.admm.admm.ADMMEqual.__init__" xlink:title="admm.ADMMEqual.__init__" target="_top">
<path fill="#8cc8d8" stroke="#000000" stroke-width=".25" d="M660.5,-86C660.5,-86 547.5,-86 547.5,-86 541.5,-86 535.5,-80 535.5,-74 535.5,-74 535.5,-62 535.5,-62 535.5,-56 541.5,-50 547.5,-50 547.5,-50 660.5,-50 660.5,-50 666.5,-50 672.5,-56 672.5,-62 672.5,-62 672.5,-74 672.5,-74 672.5,-80 666.5,-86 660.5,-86"/>
<text text-anchor="middle" x="604" y="-65.8" font-family="Vera Sans, DejaVu Sans, Liberation Sans, Arial, Helvetica, sans" font-size="9.00" fill="#000000">admm.ADMMEqual.__init__</text>
</a>
</g>
</g>
<!-- bpdn.GenericBPDN.__init__&#45;&gt;admm.ADMMEqual.__init__ -->
<g id="edge9" class="edge">
<title>bpdn.GenericBPDN.__init__&#45;&gt;admm.ADMMEqual.__init__</title>
<path fill="none" stroke="#d88c8c" stroke-width="2" d="M468.82,-127.91C494.16,-116.68 526.92,-102.16 553.84,-90.23"/>
<polygon fill="#d88c8c" stroke="#d88c8c" stroke-width="2" points="555.3745,-93.3783 563.1,-86.128 552.5393,-86.9782 555.3745,-93.3783"/>
</g>
<!-- admm.ADMM.__init__ -->
<g id="node4" class="node">
<title>admm.ADMM.__init__</title>
<g id="a_node4"><a xlink:href="../../sporco.admm.admm.html#sporco.admm.admm.ADMM.__init__" xlink:title="admm.ADMM.__init__" target="_top">
<path fill="#8ed88c" stroke="#000000" stroke-width=".25" d="M809,-98C809,-98 722,-98 722,-98 716,-98 710,-92 710,-86 710,-86 710,-74 710,-74 710,-68 716,-62 722,-62 722,-62 809,-62 809,-62 815,-62 821,-68 821,-74 821,-74 821,-86 821,-86 821,-92 815,-98 809,-98"/>
<text text-anchor="middle" x="765.5" y="-77.8" font-family="Vera Sans, DejaVu Sans, Liberation Sans, Arial, Helvetica, sans" font-size="9.00" fill="#000000">admm.ADMM.__init__</text>
</a>
</g>
</g>
<!-- admm.ADMMEqual.__init__&#45;&gt;admm.ADMM.__init__ -->
<g id="edge8" class="edge">
<title>admm.ADMMEqual.__init__&#45;&gt;admm.ADMM.__init__</title>
<path fill="none" stroke="#8cc8d8" stroke-width="2" d="M672.96,-73.124C681.83,-73.783 690.9,-74.457 699.72,-75.112"/>
<polygon fill="#8cc8d8" stroke="#8cc8d8" stroke-width="2" points="699.698,-78.6199 709.93,-75.871 700.217,-71.6392 699.698,-78.6199"/>
</g>
<!-- admm.ADMM.yinit -->
<g id="node5" class="node">
<title>admm.ADMM.yinit</title>
<g id="a_node5"><a xlink:href="../../sporco.admm.admm.html#sporco.admm.admm.ADMM.yinit" xlink:title="admm.ADMM.yinit" target="_top">
<path fill="#8ed88c" stroke="#000000" stroke-width=".25" d="M956.5,-44C956.5,-44 882.5,-44 882.5,-44 876.5,-44 870.5,-38 870.5,-32 870.5,-32 870.5,-20 870.5,-20 870.5,-14 876.5,-8 882.5,-8 882.5,-8 956.5,-8 956.5,-8 962.5,-8 968.5,-14 968.5,-20 968.5,-20 968.5,-32 968.5,-32 968.5,-38 962.5,-44 956.5,-44"/>
<text text-anchor="middle" x="919.5" y="-23.8" font-family="Vera Sans, DejaVu Sans, Liberation Sans, Arial, Helvetica, sans" font-size="9.00" fill="#000000">admm.ADMM.yinit</text>
</a>
</g>
</g>
<!-- admm.ADMM.__init__&#45;&gt;admm.ADMM.yinit -->
<g id="edge2" class="edge">
<title>admm.ADMM.__init__&#45;&gt;admm.ADMM.yinit</title>
<path fill="none" stroke="#8ed88c" stroke-width="2" d="M817.21,-61.869C831.12,-56.989 846.28,-51.675 860.56,-46.669"/>
<polygon fill="#8ed88c" stroke="#8ed88c" stroke-width="2" points="861.9934,-49.8753 870.27,-43.261 859.6752,-43.2703 861.9934,-49.8753"/>
</g>
<!-- admm.ADMM.set_dtype -->
<g id="node6" class="node">
<title>admm.ADMM.set_dtype</title>
<g id="a_node6"><a xlink:href="../../sporco.admm.admm.html#sporco.admm.admm.ADMM.set_dtype" xlink:title="admm.ADMM.set_dtype" target="_top">
<path fill="#8ed88c" stroke="#000000" stroke-width=".25" d="M970,-98C970,-98 869,-98 869,-98 863,-98 857,-92 857,-86 857,-86 857,-74 857,-74 857,-68 863,-62 869,-62 869,-62 970,-62 970,-62 976,-62 982,-68 982,-74 982,-74 982,-86 982,-86 982,-92 976,-98 970,-98"/>
<text text-anchor="middle" x="919.5" y="-77.8" font-family="Vera Sans, DejaVu Sans, Liberation Sans, Arial, Helvetica, sans" font-size="9.00" fill="#000000">admm.ADMM.set_dtype</text>
</a>
</g>
</g>
<!-- admm.ADMM.__init__&#45;&gt;admm.ADMM.set_dtype -->
<g id="edge3" class="edge">
<title>admm.ADMM.__init__&#45;&gt;admm.ADMM.set_dtype</title>
<path fill="none" stroke="#8ed88c" stroke-width="2" d="M821.1,-80C829.46,-80 838.18,-80 846.83,-80"/>
<polygon fill="#8ed88c" stroke="#8ed88c" stroke-width="2" points="846.93,-83.5001 856.93,-80 846.93,-76.5001 846.93,-83.5001"/>
</g>
<!-- admm.ADMM.set_attr -->
<g id="node7" class="node">
<title>admm.ADMM.set_attr</title>
<g id="a_node7"><a xlink:href="../../sporco.admm.admm.html#sporco.admm.admm.ADMM.set_attr" xlink:title="admm.ADMM.set_attr" target="_top">
<path fill="#8ed88c" stroke="#000000" stroke-width=".25" d="M965.5,-152C965.5,-152 873.5,-152 873.5,-152 867.5,-152 861.5,-146 861.5,-140 861.5,-140 861.5,-128 861.5,-128 861.5,-122 867.5,-116 873.5,-116 873.5,-116 965.5,-116 965.5,-116 971.5,-116 977.5,-122 977.5,-128 977.5,-128 977.5,-140 977.5,-140 977.5,-146 971.5,-152 965.5,-152"/>
<text text-anchor="middle" x="919.5" y="-131.8" font-family="Vera Sans, DejaVu Sans, Liberation Sans, Arial, Helvetica, sans" font-size="9.00" fill="#000000">admm.ADMM.set_attr</text>
</a>
</g>
</g>
<!-- admm.ADMM.__init__&#45;&gt;admm.ADMM.set_attr -->
<g id="edge4" class="edge">
<title>admm.ADMM.__init__&#45;&gt;admm.ADMM.set_attr</title>
<path fill="none" stroke="#8ed88c" stroke-width="2" d="M817.21,-98.13C830.36,-102.74 844.61,-107.74 858.19,-112.5"/>
<polygon fill="#8ed88c" stroke="#8ed88c" stroke-width="2" points="857.3352,-115.9093 867.93,-115.92 859.6543,-109.3046 857.3352,-115.9093"/>
</g>
<!-- bpdn.BPDNProjL1.uinit -->
<g id="node9" class="node">
<title>bpdn.BPDNProjL1.uinit</title>
<g id="a_node9"><a xlink:href="../../sporco.admm.bpdn.html#sporco.admm.bpdn.BPDNProjL1.uinit" xlink:title="bpdn.BPDNProjL1.uinit" target="_top">
<path fill="#d88ca4" stroke="#000000" stroke-width=".25" d="M968,-242C968,-242 871,-242 871,-242 865,-242 859,-236 859,-230 859,-230 859,-218 859,-218 859,-212 865,-206 871,-206 871,-206 968,-206 968,-206 974,-206 980,-212 980,-218 980,-218 980,-230 980,-230 980,-236 974,-242 968,-242"/>
<text text-anchor="middle" x="919.5" y="-221.8" font-family="Vera Sans, DejaVu Sans, Liberation Sans, Arial, Helvetica, sans" font-size="9.00" fill="#000000">bpdn.BPDNProjL1.uinit</text>
</a>
</g>
</g>
<!-- admm.ADMM.__init__&#45;&gt;bpdn.BPDNProjL1.uinit -->
<g id="edge6" class="edge">
<title>admm.ADMM.__init__&#45;&gt;bpdn.BPDNProjL1.uinit</title>
<path fill="none" stroke="#8ed88c" stroke-width="2" d="M779.51,-98.19C796.5,-119.62 826.66,-155.62 857,-182 864.4,-188.43 872.82,-194.7 881.03,-200.34"/>
<polygon fill="#8ed88c" stroke="#8ed88c" stroke-width="2" points="879.2109,-203.3339 889.47,-205.98 883.1002,-197.5138 879.2109,-203.3339"/>
</g>
<!-- bpdn.BPDNProjL1.__init__ -->
<g id="node8" class="node">
<title>bpdn.BPDNProjL1.__init__</title>
<g id="a_node8"><a xlink:href="../../sporco.admm.bpdn.html#sporco.admm.bpdn.BPDNProjL1.__init__" xlink:title="bpdn.BPDNProjL1.__init__" target="_top">
<path fill="#d88ca4" stroke="#000000" stroke-width=".25" d="M310,-242C310,-242 201,-242 201,-242 195,-242 189,-236 189,-230 189,-230 189,-218 189,-218 189,-212 195,-206 201,-206 201,-206 310,-206 310,-206 316,-206 322,-212 322,-218 322,-218 322,-230 322,-230 322,-236 316,-242 310,-242"/>
<text text-anchor="middle" x="255.5" y="-221.8" font-family="Vera Sans, DejaVu Sans, Liberation Sans, Arial, Helvetica, sans" font-size="9.00" fill="#000000">bpdn.BPDNProjL1.__init__</text>
</a>
</g>
</g>
<!-- bpdn.BPDNProjL1.__init__&#45;&gt;bpdn.GenericBPDN.__init__ -->
<g id="edge5" class="edge">
<title>bpdn.BPDNProjL1.__init__&#45;&gt;bpdn.GenericBPDN.__init__</title>
<path fill="none" stroke="#d88ca4" stroke-width="2" d="M295.51,-205.91C320.24,-194.73 352.17,-180.29 378.49,-168.39"/>
<polygon fill="#d88ca4" stroke="#d88ca4" stroke-width="2" points="380.2406,-171.4397 387.91,-164.13 377.3562,-165.0615 380.2406,-171.4397"/>
</g>
<!-- admm._ADMM_Meta.__call__ -->
<g id="node10" class="node">
<title>admm._ADMM_Meta.__call__</title>
<g id="a_node10"><a xlink:href="../../sporco.admm.admm.html#sporco.admm.admm._ADMM_Meta.__call__" xlink:title="admm._ADMM_Meta.__call__" target="_top">
<path fill="#af8cd8" stroke="#000000" stroke-width=".25" d="M141,-242C141,-242 20,-242 20,-242 14,-242 8,-236 8,-230 8,-230 8,-218 8,-218 8,-212 14,-206 20,-206 20,-206 141,-206 141,-206 147,-206 153,-212 153,-218 153,-218 153,-230 153,-230 153,-236 147,-242 141,-242"/>
<text text-anchor="middle" x="80.5" y="-221.8" font-family="Vera Sans, DejaVu Sans, Liberation Sans, Arial, Helvetica, sans" font-size="9.00" fill="#000000">admm._ADMM_Meta.__call__</text>
</a>
</g>
</g>
<!-- admm._ADMM_Meta.__call__&#45;&gt;bpdn.BPDNProjL1.__init__ -->
<g id="edge7" class="edge">
<title>admm._ADMM_Meta.__call__&#45;&gt;bpdn.BPDNProjL1.__init__</title>
<path fill="none" stroke="#af8cd8" stroke-width="2" d="M153.2,-224C161.61,-224 170.21,-224 178.67,-224"/>
<polygon fill="#af8cd8" stroke="#af8cd8" stroke-width="2" points="178.91,-227.5001 188.91,-224 178.91,-220.5001 178.91,-227.5001"/>
</g>
</g>
</svg>
