<?xml version="1.0" encoding="UTF-8" standalone="no"?>
<!DOCTYPE svg PUBLIC "-//W3C//DTD SVG 1.1//EN"
 "http://www.w3.org/Graphics/SVG/1.1/DTD/svg11.dtd">
<!-- Generated by graphviz version 2.40.1 (20161225.0304)
 -->
<!-- Pages: 1 -->
<svg
 viewBox="0.00 0.00 969.00 376.15" xmlns="http://www.w3.org/2000/svg" xmlns:xlink="http://www.w3.org/1999/xlink">
<g id="graph0" class="graph" transform="scale(1 1) rotate(0) translate(4 372.146)">
<polygon fill="transparent" stroke="transparent" points="-4,4 -4,-372.146 965,-372.146 965,4 -4,4"/>
<g id="clust1" class="cluster">
<title>cluster_admm.ADMM</title>
<polygon fill="transparent" stroke="#8ed88c" stroke-width="2" stroke-dasharray="1,5" points="673,-85.148 673,-263.146 961,-263.146 961,-85.148 673,-85.148"/>
<text text-anchor="middle" x="817" y="-251.946" font-family="Vera Sans, DejaVu Sans, Liberation Sans, Arial, Helvetica, sans" font-size="9.00" fill="#000000">admm.ADMM</text>
</g>
<g id="clust2" class="cluster">
<title>cluster_admm.ADMMEqual</title>
<polygon fill="transparent" stroke="#8cc8d8" stroke-width="2" stroke-dasharray="1,5" points="498.5,-220.146 498.5,-290.146 651.5,-290.146 651.5,-220.146 498.5,-220.146"/>
<text text-anchor="middle" x="575" y="-278.946" font-family="Vera Sans, DejaVu Sans, Liberation Sans, Arial, Helvetica, sans" font-size="9.00" fill="#000000">admm.ADMMEqual</text>
</g>
<g id="clust3" class="cluster">
<title>cluster_bpdn.GenericBPDN</title>
<polygon fill="transparent" stroke="#d88c8c" stroke-width="2" stroke-dasharray="1,5" points="321,-142.148 321,-212.146 653,-212.146 653,-142.148 321,-142.148"/>
<text text-anchor="middle" x="487" y="-200.946" font-family="Vera Sans, DejaVu Sans, Liberation Sans, Arial, Helvetica, sans" font-size="9.00" fill="#000000">bpdn.GenericBPDN</text>
</g>
<g id="clust4" class="cluster">
<title>cluster_bpdn.BPDN</title>
<polygon fill="transparent" stroke="#d88ca4" stroke-width="2" stroke-dasharray="1,5" points="181,-298.146 181,-368.146 944.5,-368.146 944.5,-298.146 181,-298.146"/>
<text text-anchor="middle" x="562.75" y="-356.946" font-family="Vera Sans, DejaVu Sans, Liberation Sans, Arial, Helvetica, sans" font-size="9.00" fill="#000000">bpdn.BPDN</text>
</g>
<g id="clust5" class="cluster">
<title>cluster_admm._ADMM_Meta</title>
<polygon fill="transparent" stroke="#af8cd8" stroke-width="2" stroke-dasharray="1,5" points="0,-298.146 0,-368.146 161,-368.146 161,-298.146 0,-298.146"/>
<text text-anchor="middle" x="80.5" y="-356.946" font-family="Vera Sans, DejaVu Sans, Liberation Sans, Arial, Helvetica, sans" font-size="9.00" fill="#000000">admm._ADMM_Meta</text>
</g>
<!-- admm.ADMM.__init__ -->
<g id="node1" class="node">
<title>admm.ADMM.__init__</title>
<g id="a_node1"><a xlink:href="../../sporco.admm.admm.html#sporco.admm.admm.ADMM.__init__" xlink:title="admm.ADMM.__init__" target="_top">
<path fill="#8ed88c" stroke="#000000" stroke-width=".25" d="M780,-237.146C780,-237.146 693,-237.146 693,-237.146 687,-237.146 681,-231.146 681,-225.146 681,-225.146 681,-213.146 681,-213.146 681,-207.146 687,-201.146 693,-201.146 693,-201.146 780,-201.146 780,-201.146 786,-201.146 792,-207.146 792,-213.146 792,-213.146 792,-225.146 792,-225.146 792,-231.146 786,-237.146 780,-237.146"/>
<text text-anchor="middle" x="736.5" y="-216.946" font-family="Vera Sans, DejaVu Sans, Liberation Sans, Arial, Helvetica, sans" font-size="9.00" fill="#000000">admm.ADMM.__init__</text>
</a>
</g>
</g>
<!-- admm.ADMM.set_attr -->
<g id="node2" class="node">
<title>admm.ADMM.set_attr</title>
<g id="a_node2"><a xlink:href="../../sporco.admm.admm.html#sporco.admm.admm.ADMM.set_attr" xlink:title="admm.ADMM.set_attr" target="_top">
<path fill="#8ed88c" stroke="#000000" stroke-width=".25" d="M936.5,-183.146C936.5,-183.146 844.5,-183.146 844.5,-183.146 838.5,-183.146 832.5,-177.146 832.5,-171.146 832.5,-171.146 832.5,-159.146 832.5,-159.146 832.5,-153.146 838.5,-147.146 844.5,-147.146 844.5,-147.146 936.5,-147.146 936.5,-147.146 942.5,-147.146 948.5,-153.146 948.5,-159.146 948.5,-159.146 948.5,-171.146 948.5,-171.146 948.5,-177.146 942.5,-183.146 936.5,-183.146"/>
<text text-anchor="middle" x="890.5" y="-162.946" font-family="Vera Sans, DejaVu Sans, Liberation Sans, Arial, Helvetica, sans" font-size="9.00" fill="#000000">admm.ADMM.set_attr</text>
</a>
</g>
</g>
<!-- admm.ADMM.__init__&#45;&gt;admm.ADMM.set_attr -->
<g id="edge1" class="edge">
<title>admm.ADMM.__init__&#45;&gt;admm.ADMM.set_attr</title>
<path fill="none" stroke="#8ed88c" stroke-width="2" d="M788.21,-201.016C801.36,-196.406 815.61,-191.406 829.19,-186.646"/>
<polygon fill="#8ed88c" stroke="#8ed88c" stroke-width="2" points="830.6483,-189.8438 838.93,-183.236 828.3352,-183.237 830.6483,-189.8438"/>
</g>
<!-- admm.ADMM.set_dtype -->
<g id="node3" class="node">
<title>admm.ADMM.set_dtype</title>
<g id="a_node3"><a xlink:href="../../sporco.admm.admm.html#sporco.admm.admm.ADMM.set_dtype" xlink:title="admm.ADMM.set_dtype" target="_top">
<path fill="#8ed88c" stroke="#000000" stroke-width=".25" d="M941,-129.148C941,-129.148 840,-129.148 840,-129.148 834,-129.148 828,-123.148 828,-117.148 828,-117.148 828,-105.148 828,-105.148 828,-99.148 834,-93.148 840,-93.148 840,-93.148 941,-93.148 941,-93.148 947,-93.148 953,-99.148 953,-105.148 953,-105.148 953,-117.148 953,-117.148 953,-123.148 947,-129.148 941,-129.148"/>
<text text-anchor="middle" x="890.5" y="-108.948" font-family="Vera Sans, DejaVu Sans, Liberation Sans, Arial, Helvetica, sans" font-size="9.00" fill="#000000">admm.ADMM.set_dtype</text>
</a>
</g>
</g>
<!-- admm.ADMM.__init__&#45;&gt;admm.ADMM.set_dtype -->
<g id="edge2" class="edge">
<title>admm.ADMM.__init__&#45;&gt;admm.ADMM.set_dtype</title>
<path fill="none" stroke="#8ed88c" stroke-width="2" d="M753.69,-200.866C771.13,-183.106 799.53,-156.246 828,-138.148 830.18,-136.761 832.45,-135.414 834.77,-134.11"/>
<polygon fill="#8ed88c" stroke="#8ed88c" stroke-width="2" points="836.6893,-137.0552 843.91,-129.302 833.4303,-130.86 836.6893,-137.0552"/>
</g>
<!-- admm.ADMM.yinit -->
<g id="node4" class="node">
<title>admm.ADMM.yinit</title>
<g id="a_node4"><a xlink:href="../../sporco.admm.admm.html#sporco.admm.admm.ADMM.yinit" xlink:title="admm.ADMM.yinit" target="_top">
<path fill="#8ed88c" stroke="#000000" stroke-width=".25" d="M927.5,-237.146C927.5,-237.146 853.5,-237.146 853.5,-237.146 847.5,-237.146 841.5,-231.146 841.5,-225.146 841.5,-225.146 841.5,-213.146 841.5,-213.146 841.5,-207.146 847.5,-201.146 853.5,-201.146 853.5,-201.146 927.5,-201.146 927.5,-201.146 933.5,-201.146 939.5,-207.146 939.5,-213.146 939.5,-213.146 939.5,-225.146 939.5,-225.146 939.5,-231.146 933.5,-237.146 927.5,-237.146"/>
<text text-anchor="middle" x="890.5" y="-216.946" font-family="Vera Sans, DejaVu Sans, Liberation Sans, Arial, Helvetica, sans" font-size="9.00" fill="#000000">admm.ADMM.yinit</text>
</a>
</g>
</g>
<!-- admm.ADMM.__init__&#45;&gt;admm.ADMM.yinit -->
<g id="edge3" class="edge">
<title>admm.ADMM.__init__&#45;&gt;admm.ADMM.yinit</title>
<path fill="none" stroke="#8ed88c" stroke-width="2" d="M792.1,-219.146C804.81,-219.146 818.37,-219.146 831.23,-219.146"/>
<polygon fill="#8ed88c" stroke="#8ed88c" stroke-width="2" points="831.36,-222.6461 841.36,-219.146 831.36,-215.6461 831.36,-222.6461"/>
</g>
<!-- bpdn.BPDN.uinit -->
<g id="node9" class="node">
<title>bpdn.BPDN.uinit</title>
<g id="a_node9"><a xlink:href="../../sporco.admm.bpdn.html#sporco.admm.bpdn.BPDN.uinit" xlink:title="bpdn.BPDN.uinit" target="_top">
<path fill="#d88ca4" stroke="#000000" stroke-width=".25" d="M924.5,-342.146C924.5,-342.146 856.5,-342.146 856.5,-342.146 850.5,-342.146 844.5,-336.146 844.5,-330.146 844.5,-330.146 844.5,-318.146 844.5,-318.146 844.5,-312.146 850.5,-306.146 856.5,-306.146 856.5,-306.146 924.5,-306.146 924.5,-306.146 930.5,-306.146 936.5,-312.146 936.5,-318.146 936.5,-318.146 936.5,-330.146 936.5,-330.146 936.5,-336.146 930.5,-342.146 924.5,-342.146"/>
<text text-anchor="middle" x="890.5" y="-321.946" font-family="Vera Sans, DejaVu Sans, Liberation Sans, Arial, Helvetica, sans" font-size="9.00" fill="#000000">bpdn.BPDN.uinit</text>
</a>
</g>
</g>
<!-- admm.ADMM.__init__&#45;&gt;bpdn.BPDN.uinit -->
<g id="edge6" class="edge">
<title>admm.ADMM.__init__&#45;&gt;bpdn.BPDN.uinit</title>
<path fill="none" stroke="#8ed88c" stroke-width="2" d="M762.97,-237.196C788.54,-254.626 827.4,-281.126 855.51,-300.286"/>
<polygon fill="#8ed88c" stroke="#8ed88c" stroke-width="2" points="853.6275,-303.2387 863.86,-305.986 857.5742,-297.4573 853.6275,-303.2387"/>
</g>
<!-- admm.ADMMEqual.__init__ -->
<g id="node5" class="node">
<title>admm.ADMMEqual.__init__</title>
<g id="a_node5"><a xlink:href="../../sporco.admm.admm.html#sporco.admm.admm.ADMMEqual.__init__" xlink:title="admm.ADMMEqual.__init__" target="_top">
<path fill="#8cc8d8" stroke="#000000" stroke-width=".25" d="M631.5,-264.146C631.5,-264.146 518.5,-264.146 518.5,-264.146 512.5,-264.146 506.5,-258.146 506.5,-252.146 506.5,-252.146 506.5,-240.146 506.5,-240.146 506.5,-234.146 512.5,-228.146 518.5,-228.146 518.5,-228.146 631.5,-228.146 631.5,-228.146 637.5,-228.146 643.5,-234.146 643.5,-240.146 643.5,-240.146 643.5,-252.146 643.5,-252.146 643.5,-258.146 637.5,-264.146 631.5,-264.146"/>
<text text-anchor="middle" x="575" y="-243.946" font-family="Vera Sans, DejaVu Sans, Liberation Sans, Arial, Helvetica, sans" font-size="9.00" fill="#000000">admm.ADMMEqual.__init__</text>
</a>
</g>
</g>
<!-- admm.ADMMEqual.__init__&#45;&gt;admm.ADMM.__init__ -->
<g id="edge11" class="edge">
<title>admm.ADMMEqual.__init__&#45;&gt;admm.ADMM.__init__</title>
<path fill="none" stroke="#8cc8d8" stroke-width="2" d="M643.96,-234.616C652.93,-233.116 662.1,-231.586 671.01,-230.096"/>
<polygon fill="#8cc8d8" stroke="#8cc8d8" stroke-width="2" points="671.6448,-233.5385 680.93,-228.436 670.4895,-226.6345 671.6448,-233.5385"/>
</g>
<!-- bpdn.GenericBPDN.__init__ -->
<g id="node6" class="node">
<title>bpdn.GenericBPDN.__init__</title>
<g id="a_node6"><a xlink:href="../../sporco.admm.bpdn.html#sporco.admm.bpdn.GenericBPDN.__init__" xlink:title="bpdn.GenericBPDN.__init__" target="_top">
<path fill="#d88c8c" stroke="#000000" stroke-width=".25" d="M457,-186.146C457,-186.146 341,-186.146 341,-186.146 335,-186.146 329,-180.146 329,-174.146 329,-174.146 329,-162.146 329,-162.146 329,-156.146 335,-150.146 341,-150.146 341,-150.146 457,-150.146 457,-150.146 463,-150.146 469,-156.146 469,-162.146 469,-162.146 469,-174.146 469,-174.146 469,-180.146 463,-186.146 457,-186.146"/>
<text text-anchor="middle" x="399" y="-165.946" font-family="Vera Sans, DejaVu Sans, Liberation Sans, Arial, Helvetica, sans" font-size="9.00" fill="#000000">bpdn.GenericBPDN.__init__</text>
</a>
</g>
</g>
<!-- bpdn.GenericBPDN.__init__&#45;&gt;admm.ADMMEqual.__init__ -->
<g id="edge10" class="edge">
<title>bpdn.GenericBPDN.__init__&#45;&gt;admm.ADMMEqual.__init__</title>
<path fill="none" stroke="#d88c8c" stroke-width="2" d="M435.08,-186.366C453.84,-195.636 477.23,-206.866 498.5,-216.146 504.74,-218.866 511.31,-221.616 517.87,-224.296"/>
<polygon fill="#d88c8c" stroke="#d88c8c" stroke-width="2" points="516.846,-227.6564 527.43,-228.136 519.4552,-221.1609 516.846,-227.6564"/>
</g>
<!-- bpdn.GenericBPDN.setdict -->
<g id="node7" class="node">
<title>bpdn.GenericBPDN.setdict</title>
<g id="a_node7"><a xlink:href="../../sporco.admm.bpdn.html#sporco.admm.bpdn.GenericBPDN.setdict" xlink:title="bpdn.GenericBPDN.setdict" target="_top">
<path fill="#d88c8c" stroke="#000000" stroke-width=".25" d="M633,-186.146C633,-186.146 517,-186.146 517,-186.146 511,-186.146 505,-180.146 505,-174.146 505,-174.146 505,-162.146 505,-162.146 505,-156.146 511,-150.146 517,-150.146 517,-150.146 633,-150.146 633,-150.146 639,-150.146 645,-156.146 645,-162.146 645,-162.146 645,-174.146 645,-174.146 645,-180.146 639,-186.146 633,-186.146"/>
<text text-anchor="middle" x="575" y="-165.946" font-family="Vera Sans, DejaVu Sans, Liberation Sans, Arial, Helvetica, sans" font-size="9.00" fill="#000000">bpdn.GenericBPDN.setdict</text>
</a>
</g>
</g>
<!-- bpdn.GenericBPDN.__init__&#45;&gt;bpdn.GenericBPDN.setdict -->
<g id="edge4" class="edge">
<title>bpdn.GenericBPDN.__init__&#45;&gt;bpdn.GenericBPDN.setdict</title>
<path fill="none" stroke="#d88c8c" stroke-width="2" d="M469.07,-168.146C477.54,-168.146 486.25,-168.146 494.85,-168.146"/>
<polygon fill="#d88c8c" stroke="#d88c8c" stroke-width="2" points="494.89,-171.6461 504.89,-168.146 494.89,-164.6461 494.89,-171.6461"/>
</g>
<!-- bpdn.BPDN.__init__ -->
<g id="node8" class="node">
<title>bpdn.BPDN.__init__</title>
<g id="a_node8"><a xlink:href="../../sporco.admm.bpdn.html#sporco.admm.bpdn.BPDN.__init__" xlink:title="bpdn.BPDN.__init__" target="_top">
<path fill="#d88ca4" stroke="#000000" stroke-width=".25" d="M281,-342.146C281,-342.146 201,-342.146 201,-342.146 195,-342.146 189,-336.146 189,-330.146 189,-330.146 189,-318.146 189,-318.146 189,-312.146 195,-306.146 201,-306.146 201,-306.146 281,-306.146 281,-306.146 287,-306.146 293,-312.146 293,-318.146 293,-318.146 293,-330.146 293,-330.146 293,-336.146 287,-342.146 281,-342.146"/>
<text text-anchor="middle" x="241" y="-321.946" font-family="Vera Sans, DejaVu Sans, Liberation Sans, Arial, Helvetica, sans" font-size="9.00" fill="#000000">bpdn.BPDN.__init__</text>
</a>
</g>
</g>
<!-- bpdn.BPDN.__init__&#45;&gt;admm.ADMM.set_attr -->
<g id="edge7" class="edge">
<title>bpdn.BPDN.__init__&#45;&gt;admm.ADMM.set_attr</title>
<path fill="none" stroke="#d88ca4" stroke-width="2" d="M242.47,-306.016C246.72,-267.216 262.72,-176.526 321,-138.148 401.47,-85.161 688.89,-128.378 821.98,-152.126"/>
<polygon fill="#d88ca4" stroke="#d88ca4" stroke-width="2" points="821.5988,-155.6135 832.06,-153.936 822.836,-148.7236 821.5988,-155.6135"/>
</g>
<!-- bpdn.BPDN.__init__&#45;&gt;admm.ADMM.set_dtype -->
<g id="edge8" class="edge">
<title>bpdn.BPDN.__init__&#45;&gt;admm.ADMM.set_dtype</title>
<path fill="none" stroke="#d88ca4" stroke-width="2" d="M244.94,-306.036C255.69,-258.426 287.03,-131.792 321,-108.148 476.38,0 717.91,-55.306 829.81,-90.058"/>
<polygon fill="#d88ca4" stroke="#d88ca4" stroke-width="2" points="828.9902,-93.4694 839.58,-93.144 831.0986,-86.7945 828.9902,-93.4694"/>
</g>
<!-- bpdn.BPDN.__init__&#45;&gt;bpdn.GenericBPDN.__init__ -->
<g id="edge9" class="edge">
<title>bpdn.BPDN.__init__&#45;&gt;bpdn.GenericBPDN.__init__</title>
<path fill="none" stroke="#d88ca4" stroke-width="2" d="M259.43,-305.946C287.62,-278.116 341.51,-224.906 373.45,-193.376"/>
<polygon fill="#d88ca4" stroke="#d88ca4" stroke-width="2" points="376.0241,-195.753 380.68,-186.236 371.1054,-190.7723 376.0241,-195.753"/>
</g>
<!-- admm._ADMM_Meta.__call__ -->
<g id="node10" class="node">
<title>admm._ADMM_Meta.__call__</title>
<g id="a_node10"><a xlink:href="../../sporco.admm.admm.html#sporco.admm.admm._ADMM_Meta.__call__" xlink:title="admm._ADMM_Meta.__call__" target="_top">
<path fill="#af8cd8" stroke="#000000" stroke-width=".25" d="M141,-342.146C141,-342.146 20,-342.146 20,-342.146 14,-342.146 8,-336.146 8,-330.146 8,-330.146 8,-318.146 8,-318.146 8,-312.146 14,-306.146 20,-306.146 20,-306.146 141,-306.146 141,-306.146 147,-306.146 153,-312.146 153,-318.146 153,-318.146 153,-330.146 153,-330.146 153,-336.146 147,-342.146 141,-342.146"/>
<text text-anchor="middle" x="80.5" y="-321.946" font-family="Vera Sans, DejaVu Sans, Liberation Sans, Arial, Helvetica, sans" font-size="9.00" fill="#000000">admm._ADMM_Meta.__call__</text>
</a>
</g>
</g>
<!-- admm._ADMM_Meta.__call__&#45;&gt;bpdn.BPDN.__init__ -->
<g id="edge5" class="edge">
<title>admm._ADMM_Meta.__call__&#45;&gt;bpdn.BPDN.__init__</title>
<path fill="none" stroke="#af8cd8" stroke-width="2" d="M153.24,-324.146C161.73,-324.146 170.33,-324.146 178.66,-324.146"/>
<polygon fill="#af8cd8" stroke="#af8cd8" stroke-width="2" points="178.67,-327.6461 188.67,-324.146 178.67,-320.6461 178.67,-327.6461"/>
</g>
</g>
</svg>
