<?xml version="1.0" encoding="UTF-8" standalone="no"?>
<!DOCTYPE svg PUBLIC "-//W3C//DTD SVG 1.1//EN"
 "http://www.w3.org/Graphics/SVG/1.1/DTD/svg11.dtd">
<!-- Generated by graphviz version 2.40.1 (20161225.0304)
 -->
<!-- Pages: 1 -->
<svg
 viewBox="0.00 0.00 893.00 852.00" xmlns="http://www.w3.org/2000/svg" xmlns:xlink="http://www.w3.org/1999/xlink">
<g id="graph0" class="graph" transform="scale(1 1) rotate(0) translate(4 848)">
<polygon fill="transparent" stroke="transparent" points="-4,4 -4,-848 889,-848 889,4 -4,4"/>
<g id="clust1" class="cluster">
<title>cluster_bpdn.GenericBPDN</title>
<polygon fill="transparent" stroke="#d88c8c" stroke-width="2" stroke-dasharray="1,5" points="155.5,0 155.5,-124 698,-124 698,0 155.5,0"/>
<text text-anchor="middle" x="426.75" y="-112.8" font-family="Vera Sans, DejaVu Sans, Liberation Sans, Arial, Helvetica, sans" font-size="9.00" fill="#000000">bpdn.GenericBPDN</text>
</g>
<g id="clust2" class="cluster">
<title>cluster_bpdn.BPDNJoint</title>
<polygon fill="transparent" stroke="#d88cc3" stroke-width="2" stroke-dasharray="1,5" points="163.5,-132 163.5,-202 690.5,-202 690.5,-132 163.5,-132"/>
<text text-anchor="middle" x="427" y="-190.8" font-family="Vera Sans, DejaVu Sans, Liberation Sans, Arial, Helvetica, sans" font-size="9.00" fill="#000000">bpdn.BPDNJoint</text>
</g>
<g id="clust3" class="cluster">
<title>cluster_admm.ADMMEqual</title>
<polygon fill="transparent" stroke="#8ca8d8" stroke-width="2" stroke-dasharray="1,5" points="151,-210 151,-442 885,-442 885,-210 151,-210"/>
<text text-anchor="middle" x="518" y="-430.8" font-family="Vera Sans, DejaVu Sans, Liberation Sans, Arial, Helvetica, sans" font-size="9.00" fill="#000000">admm.ADMMEqual</text>
</g>
<g id="clust4" class="cluster">
<title>cluster_admm.ADMM</title>
<polygon fill="transparent" stroke="#8ed88c" stroke-width="2" stroke-dasharray="1,5" points="0,-450 0,-844 501.5,-844 501.5,-450 0,-450"/>
<text text-anchor="middle" x="250.75" y="-832.8" font-family="Vera Sans, DejaVu Sans, Liberation Sans, Arial, Helvetica, sans" font-size="9.00" fill="#000000">admm.ADMM</text>
</g>
<!-- bpdn.GenericBPDN.xstep -->
<g id="node1" class="node">
<title>bpdn.GenericBPDN.xstep</title>
<g id="a_node1"><a xlink:href="../../sporco.admm.bpdn.html#sporco.admm.bpdn.GenericBPDN.xstep" xlink:title="bpdn.GenericBPDN.xstep" target="_top">
<path fill="#d88c8c" stroke="#000000" stroke-width=".25" d="M285.5,-98C285.5,-98 175.5,-98 175.5,-98 169.5,-98 163.5,-92 163.5,-86 163.5,-86 163.5,-74 163.5,-74 163.5,-68 169.5,-62 175.5,-62 175.5,-62 285.5,-62 285.5,-62 291.5,-62 297.5,-68 297.5,-74 297.5,-74 297.5,-86 297.5,-86 297.5,-92 291.5,-98 285.5,-98"/>
<text text-anchor="middle" x="230.5" y="-77.8" font-family="Vera Sans, DejaVu Sans, Liberation Sans, Arial, Helvetica, sans" font-size="9.00" fill="#000000">bpdn.GenericBPDN.xstep</text>
</a>
</g>
</g>
<!-- bpdn.GenericBPDN.ystep -->
<g id="node2" class="node">
<title>bpdn.GenericBPDN.ystep</title>
<g id="a_node2"><a xlink:href="../../sporco.admm.bpdn.html#sporco.admm.bpdn.GenericBPDN.ystep" xlink:title="bpdn.GenericBPDN.ystep" target="_top">
<path fill="#d88c8c" stroke="#000000" stroke-width=".25" d="M482.5,-44C482.5,-44 372.5,-44 372.5,-44 366.5,-44 360.5,-38 360.5,-32 360.5,-32 360.5,-20 360.5,-20 360.5,-14 366.5,-8 372.5,-8 372.5,-8 482.5,-8 482.5,-8 488.5,-8 494.5,-14 494.5,-20 494.5,-20 494.5,-32 494.5,-32 494.5,-38 488.5,-44 482.5,-44"/>
<text text-anchor="middle" x="427.5" y="-23.8" font-family="Vera Sans, DejaVu Sans, Liberation Sans, Arial, Helvetica, sans" font-size="9.00" fill="#000000">bpdn.GenericBPDN.ystep</text>
</a>
</g>
</g>
<!-- bpdn.GenericBPDN.obfn_dfd -->
<g id="node3" class="node">
<title>bpdn.GenericBPDN.obfn_dfd</title>
<g id="a_node3"><a xlink:href="../../sporco.admm.bpdn.html#sporco.admm.bpdn.GenericBPDN.obfn_dfd" xlink:title="bpdn.GenericBPDN.obfn_dfd" target="_top">
<path fill="#d88c8c" stroke="#000000" stroke-width=".25" d="M678,-98C678,-98 553,-98 553,-98 547,-98 541,-92 541,-86 541,-86 541,-74 541,-74 541,-68 547,-62 553,-62 553,-62 678,-62 678,-62 684,-62 690,-68 690,-74 690,-74 690,-86 690,-86 690,-92 684,-98 678,-98"/>
<text text-anchor="middle" x="615.5" y="-77.8" font-family="Vera Sans, DejaVu Sans, Liberation Sans, Arial, Helvetica, sans" font-size="9.00" fill="#000000">bpdn.GenericBPDN.obfn_dfd</text>
</a>
</g>
</g>
<!-- admm.ADMMEqual.obfn_fvar -->
<g id="node7" class="node">
<title>admm.ADMMEqual.obfn_fvar</title>
<g id="a_node7"><a xlink:href="../../sporco.admm.admm.html#sporco.admm.admm.ADMMEqual.obfn_fvar" xlink:title="admm.ADMMEqual.obfn_fvar" target="_top">
<path fill="#8ca8d8" stroke="#000000" stroke-width=".25" d="M863.5,-254C863.5,-254 739.5,-254 739.5,-254 733.5,-254 727.5,-248 727.5,-242 727.5,-242 727.5,-230 727.5,-230 727.5,-224 733.5,-218 739.5,-218 739.5,-218 863.5,-218 863.5,-218 869.5,-218 875.5,-224 875.5,-230 875.5,-230 875.5,-242 875.5,-242 875.5,-248 869.5,-254 863.5,-254"/>
<text text-anchor="middle" x="801.5" y="-233.8" font-family="Vera Sans, DejaVu Sans, Liberation Sans, Arial, Helvetica, sans" font-size="9.00" fill="#000000">admm.ADMMEqual.obfn_fvar</text>
</a>
</g>
</g>
<!-- bpdn.GenericBPDN.obfn_dfd&#45;&gt;admm.ADMMEqual.obfn_fvar -->
<g id="edge22" class="edge">
<title>bpdn.GenericBPDN.obfn_dfd&#45;&gt;admm.ADMMEqual.obfn_fvar</title>
<path fill="none" stroke="#d88c8c" stroke-width="2" d="M651.42,-98.03C666.43,-106.28 683.68,-116.73 698,-128 729.4,-152.71 760.44,-186.73 780.21,-209.94"/>
<polygon fill="#d88c8c" stroke="#d88c8c" stroke-width="2" points="777.6012,-212.2757 786.72,-217.67 782.9554,-207.7665 777.6012,-212.2757"/>
</g>
<!-- bpdn.GenericBPDN.eval_objfn -->
<g id="node4" class="node">
<title>bpdn.GenericBPDN.eval_objfn</title>
<g id="a_node4"><a xlink:href="../../sporco.admm.bpdn.html#sporco.admm.bpdn.GenericBPDN.eval_objfn" xlink:title="bpdn.GenericBPDN.eval_objfn" target="_top">
<path fill="#d88c8c" stroke="#000000" stroke-width=".25" d="M493,-98C493,-98 362,-98 362,-98 356,-98 350,-92 350,-86 350,-86 350,-74 350,-74 350,-68 356,-62 362,-62 362,-62 493,-62 493,-62 499,-62 505,-68 505,-74 505,-74 505,-86 505,-86 505,-92 499,-98 493,-98"/>
<text text-anchor="middle" x="427.5" y="-77.8" font-family="Vera Sans, DejaVu Sans, Liberation Sans, Arial, Helvetica, sans" font-size="9.00" fill="#000000">bpdn.GenericBPDN.eval_objfn</text>
</a>
</g>
</g>
<!-- bpdn.GenericBPDN.eval_objfn&#45;&gt;bpdn.GenericBPDN.obfn_dfd -->
<g id="edge1" class="edge">
<title>bpdn.GenericBPDN.eval_objfn&#45;&gt;bpdn.GenericBPDN.obfn_dfd</title>
<path fill="none" stroke="#d88c8c" stroke-width="2" d="M505.05,-80C513.56,-80 522.25,-80 530.84,-80"/>
<polygon fill="#d88c8c" stroke="#d88c8c" stroke-width="2" points="530.85,-83.5001 540.85,-80 530.85,-76.5001 530.85,-83.5001"/>
</g>
<!-- bpdn.BPDNJoint.obfn_reg -->
<g id="node6" class="node">
<title>bpdn.BPDNJoint.obfn_reg</title>
<g id="a_node6"><a xlink:href="../../sporco.admm.bpdn.html#sporco.admm.bpdn.BPDNJoint.obfn_reg" xlink:title="bpdn.BPDNJoint.obfn_reg" target="_top">
<path fill="#d88cc3" stroke="#000000" stroke-width=".25" d="M670.5,-176C670.5,-176 560.5,-176 560.5,-176 554.5,-176 548.5,-170 548.5,-164 548.5,-164 548.5,-152 548.5,-152 548.5,-146 554.5,-140 560.5,-140 560.5,-140 670.5,-140 670.5,-140 676.5,-140 682.5,-146 682.5,-152 682.5,-152 682.5,-164 682.5,-164 682.5,-170 676.5,-176 670.5,-176"/>
<text text-anchor="middle" x="615.5" y="-155.8" font-family="Vera Sans, DejaVu Sans, Liberation Sans, Arial, Helvetica, sans" font-size="9.00" fill="#000000">bpdn.BPDNJoint.obfn_reg</text>
</a>
</g>
</g>
<!-- bpdn.GenericBPDN.eval_objfn&#45;&gt;bpdn.BPDNJoint.obfn_reg -->
<g id="edge23" class="edge">
<title>bpdn.GenericBPDN.eval_objfn&#45;&gt;bpdn.BPDNJoint.obfn_reg</title>
<path fill="none" stroke="#d88c8c" stroke-width="2" d="M469.74,-98.07C491.07,-107.14 517.37,-118.25 541,-128 547.32,-130.61 553.96,-133.32 560.55,-136"/>
<polygon fill="#d88c8c" stroke="#d88c8c" stroke-width="2" points="559.5573,-139.3739 570.14,-139.88 562.1827,-132.8849 559.5573,-139.3739"/>
</g>
<!-- bpdn.BPDNJoint.ystep -->
<g id="node5" class="node">
<title>bpdn.BPDNJoint.ystep</title>
<g id="a_node5"><a xlink:href="../../sporco.admm.bpdn.html#sporco.admm.bpdn.BPDNJoint.ystep" xlink:title="bpdn.BPDNJoint.ystep" target="_top">
<path fill="#d88cc3" stroke="#000000" stroke-width=".25" d="M277.5,-176C277.5,-176 183.5,-176 183.5,-176 177.5,-176 171.5,-170 171.5,-164 171.5,-164 171.5,-152 171.5,-152 171.5,-146 177.5,-140 183.5,-140 183.5,-140 277.5,-140 277.5,-140 283.5,-140 289.5,-146 289.5,-152 289.5,-152 289.5,-164 289.5,-164 289.5,-170 283.5,-176 277.5,-176"/>
<text text-anchor="middle" x="230.5" y="-155.8" font-family="Vera Sans, DejaVu Sans, Liberation Sans, Arial, Helvetica, sans" font-size="9.00" fill="#000000">bpdn.BPDNJoint.ystep</text>
</a>
</g>
</g>
<!-- bpdn.BPDNJoint.ystep&#45;&gt;bpdn.GenericBPDN.ystep -->
<g id="edge20" class="edge">
<title>bpdn.BPDNJoint.ystep&#45;&gt;bpdn.GenericBPDN.ystep</title>
<path fill="none" stroke="#d88cc3" stroke-width="2" d="M289.89,-143.26C298.63,-139.29 307.02,-134.29 314,-128 341.45,-103.23 322.43,-77.637 350,-53 351.16,-51.962 352.37,-50.963 353.61,-50.002"/>
<polygon fill="#d88cc3" stroke="#d88cc3" stroke-width="2" points="355.9082,-52.6747 362.26,-44.195 352.0066,-46.8629 355.9082,-52.6747"/>
</g>
<!-- admm.ADMMEqual.obfn_gvar -->
<g id="node11" class="node">
<title>admm.ADMMEqual.obfn_gvar</title>
<g id="a_node11"><a xlink:href="../../sporco.admm.admm.html#sporco.admm.admm.ADMMEqual.obfn_gvar" xlink:title="admm.ADMMEqual.obfn_gvar" target="_top">
<path fill="#8ca8d8" stroke="#000000" stroke-width=".25" d="M865,-308C865,-308 738,-308 738,-308 732,-308 726,-302 726,-296 726,-296 726,-284 726,-284 726,-278 732,-272 738,-272 738,-272 865,-272 865,-272 871,-272 877,-278 877,-284 877,-284 877,-296 877,-296 877,-302 871,-308 865,-308"/>
<text text-anchor="middle" x="801.5" y="-287.8" font-family="Vera Sans, DejaVu Sans, Liberation Sans, Arial, Helvetica, sans" font-size="9.00" fill="#000000">admm.ADMMEqual.obfn_gvar</text>
</a>
</g>
</g>
<!-- bpdn.BPDNJoint.obfn_reg&#45;&gt;admm.ADMMEqual.obfn_gvar -->
<g id="edge21" class="edge">
<title>bpdn.BPDNJoint.obfn_reg&#45;&gt;admm.ADMMEqual.obfn_gvar</title>
<path fill="none" stroke="#d88cc3" stroke-width="2" d="M630.52,-176.39C650.25,-199.49 687.01,-239.01 726,-263 728.58,-264.59 731.28,-266.11 734.04,-267.55"/>
<polygon fill="#d88cc3" stroke="#d88cc3" stroke-width="2" points="732.5229,-270.7041 743.05,-271.9 735.5663,-264.4003 732.5229,-270.7041"/>
</g>
<!-- admm.ADMMEqual.rsdl_s -->
<g id="node8" class="node">
<title>admm.ADMMEqual.rsdl_s</title>
<g id="a_node8"><a xlink:href="../../sporco.admm.admm.html#sporco.admm.admm.ADMMEqual.rsdl_s" xlink:title="admm.ADMMEqual.rsdl_s" target="_top">
<path fill="#8ca8d8" stroke="#000000" stroke-width=".25" d="M481.5,-416C481.5,-416 373.5,-416 373.5,-416 367.5,-416 361.5,-410 361.5,-404 361.5,-404 361.5,-392 361.5,-392 361.5,-386 367.5,-380 373.5,-380 373.5,-380 481.5,-380 481.5,-380 487.5,-380 493.5,-386 493.5,-392 493.5,-392 493.5,-404 493.5,-404 493.5,-410 487.5,-416 481.5,-416"/>
<text text-anchor="middle" x="427.5" y="-395.8" font-family="Vera Sans, DejaVu Sans, Liberation Sans, Arial, Helvetica, sans" font-size="9.00" fill="#000000">admm.ADMMEqual.rsdl_s</text>
</a>
</g>
</g>
<!-- admm.ADMMEqual.rsdl_r -->
<g id="node9" class="node">
<title>admm.ADMMEqual.rsdl_r</title>
<g id="a_node9"><a xlink:href="../../sporco.admm.admm.html#sporco.admm.admm.ADMMEqual.rsdl_r" xlink:title="admm.ADMMEqual.rsdl_r" target="_top">
<path fill="#8ca8d8" stroke="#000000" stroke-width=".25" d="M481,-254C481,-254 374,-254 374,-254 368,-254 362,-248 362,-242 362,-242 362,-230 362,-230 362,-224 368,-218 374,-218 374,-218 481,-218 481,-218 487,-218 493,-224 493,-230 493,-230 493,-242 493,-242 493,-248 487,-254 481,-254"/>
<text text-anchor="middle" x="427.5" y="-233.8" font-family="Vera Sans, DejaVu Sans, Liberation Sans, Arial, Helvetica, sans" font-size="9.00" fill="#000000">admm.ADMMEqual.rsdl_r</text>
</a>
</g>
</g>
<!-- admm.ADMMEqual.getmin -->
<g id="node10" class="node">
<title>admm.ADMMEqual.getmin</title>
<g id="a_node10"><a xlink:href="../../sporco.admm.admm.html#sporco.admm.admm.ADMMEqual.getmin" xlink:title="admm.ADMMEqual.getmin" target="_top">
<path fill="#8ca8d8" stroke="#000000" stroke-width=".25" d="M287,-416C287,-416 174,-416 174,-416 168,-416 162,-410 162,-404 162,-404 162,-392 162,-392 162,-386 168,-380 174,-380 174,-380 287,-380 287,-380 293,-380 299,-386 299,-392 299,-392 299,-404 299,-404 299,-410 293,-416 287,-416"/>
<text text-anchor="middle" x="230.5" y="-395.8" font-family="Vera Sans, DejaVu Sans, Liberation Sans, Arial, Helvetica, sans" font-size="9.00" fill="#000000">admm.ADMMEqual.getmin</text>
</a>
</g>
</g>
<!-- admm.ADMMEqual.rsdl_rn -->
<g id="node12" class="node">
<title>admm.ADMMEqual.rsdl_rn</title>
<g id="a_node12"><a xlink:href="../../sporco.admm.admm.html#sporco.admm.admm.ADMMEqual.rsdl_rn" xlink:title="admm.ADMMEqual.rsdl_rn" target="_top">
<path fill="#8ca8d8" stroke="#000000" stroke-width=".25" d="M484,-362C484,-362 371,-362 371,-362 365,-362 359,-356 359,-350 359,-350 359,-338 359,-338 359,-332 365,-326 371,-326 371,-326 484,-326 484,-326 490,-326 496,-332 496,-338 496,-338 496,-350 496,-350 496,-356 490,-362 484,-362"/>
<text text-anchor="middle" x="427.5" y="-341.8" font-family="Vera Sans, DejaVu Sans, Liberation Sans, Arial, Helvetica, sans" font-size="9.00" fill="#000000">admm.ADMMEqual.rsdl_rn</text>
</a>
</g>
</g>
<!-- admm.ADMMEqual.rsdl_sn -->
<g id="node13" class="node">
<title>admm.ADMMEqual.rsdl_sn</title>
<g id="a_node13"><a xlink:href="../../sporco.admm.admm.html#sporco.admm.admm.ADMMEqual.rsdl_sn" xlink:title="admm.ADMMEqual.rsdl_sn" target="_top">
<path fill="#8ca8d8" stroke="#000000" stroke-width=".25" d="M484.5,-308C484.5,-308 370.5,-308 370.5,-308 364.5,-308 358.5,-302 358.5,-296 358.5,-296 358.5,-284 358.5,-284 358.5,-278 364.5,-272 370.5,-272 370.5,-272 484.5,-272 484.5,-272 490.5,-272 496.5,-278 496.5,-284 496.5,-284 496.5,-296 496.5,-296 496.5,-302 490.5,-308 484.5,-308"/>
<text text-anchor="middle" x="427.5" y="-287.8" font-family="Vera Sans, DejaVu Sans, Liberation Sans, Arial, Helvetica, sans" font-size="9.00" fill="#000000">admm.ADMMEqual.rsdl_sn</text>
</a>
</g>
</g>
<!-- admm.ADMMEqual.relax_AX -->
<g id="node14" class="node">
<title>admm.ADMMEqual.relax_AX</title>
<g id="a_node14"><a xlink:href="../../sporco.admm.admm.html#sporco.admm.admm.ADMMEqual.relax_AX" xlink:title="admm.ADMMEqual.relax_AX" target="_top">
<path fill="#8ca8d8" stroke="#000000" stroke-width=".25" d="M290,-362C290,-362 171,-362 171,-362 165,-362 159,-356 159,-350 159,-350 159,-338 159,-338 159,-332 165,-326 171,-326 171,-326 290,-326 290,-326 296,-326 302,-332 302,-338 302,-338 302,-350 302,-350 302,-356 296,-362 290,-362"/>
<text text-anchor="middle" x="230.5" y="-341.8" font-family="Vera Sans, DejaVu Sans, Liberation Sans, Arial, Helvetica, sans" font-size="9.00" fill="#000000">admm.ADMMEqual.relax_AX</text>
</a>
</g>
</g>
<!-- admm.ADMM.iteration_stats -->
<g id="node15" class="node">
<title>admm.ADMM.iteration_stats</title>
<g id="a_node15"><a xlink:href="../../sporco.admm.admm.html#sporco.admm.admm.ADMM.iteration_stats" xlink:title="admm.ADMM.iteration_stats" target="_top">
<path fill="#8ed88c" stroke="#000000" stroke-width=".25" d="M292,-818C292,-818 169,-818 169,-818 163,-818 157,-812 157,-806 157,-806 157,-794 157,-794 157,-788 163,-782 169,-782 169,-782 292,-782 292,-782 298,-782 304,-788 304,-794 304,-794 304,-806 304,-806 304,-812 298,-818 292,-818"/>
<text text-anchor="middle" x="230.5" y="-797.8" font-family="Vera Sans, DejaVu Sans, Liberation Sans, Arial, Helvetica, sans" font-size="9.00" fill="#000000">admm.ADMM.iteration_stats</text>
</a>
</g>
</g>
<!-- admm.ADMM.iteration_stats&#45;&gt;bpdn.GenericBPDN.eval_objfn -->
<g id="edge10" class="edge">
<title>admm.ADMM.iteration_stats&#45;&gt;bpdn.GenericBPDN.eval_objfn</title>
<path fill="none" stroke="#8ed88c" stroke-width="2" d="M304.27,-782.46C307.9,-779.74 311.2,-776.61 314,-773 391.48,-673.32 311.8,-326.33 350,-206 361.96,-168.34 387.54,-130.43 406.04,-106.18"/>
<polygon fill="#8ed88c" stroke="#8ed88c" stroke-width="2" points="408.8729,-108.2388 412.26,-98.2 403.3518,-103.9355 408.8729,-108.2388"/>
</g>
<!-- admm.ADMM.itstat_extra -->
<g id="node16" class="node">
<title>admm.ADMM.itstat_extra</title>
<g id="a_node16"><a xlink:href="../../sporco.admm.admm.html#sporco.admm.admm.ADMM.itstat_extra" xlink:title="admm.ADMM.itstat_extra" target="_top">
<path fill="#8ed88c" stroke="#000000" stroke-width=".25" d="M481.5,-818C481.5,-818 373.5,-818 373.5,-818 367.5,-818 361.5,-812 361.5,-806 361.5,-806 361.5,-794 361.5,-794 361.5,-788 367.5,-782 373.5,-782 373.5,-782 481.5,-782 481.5,-782 487.5,-782 493.5,-788 493.5,-794 493.5,-794 493.5,-806 493.5,-806 493.5,-812 487.5,-818 481.5,-818"/>
<text text-anchor="middle" x="427.5" y="-797.8" font-family="Vera Sans, DejaVu Sans, Liberation Sans, Arial, Helvetica, sans" font-size="9.00" fill="#000000">admm.ADMM.itstat_extra</text>
</a>
</g>
</g>
<!-- admm.ADMM.iteration_stats&#45;&gt;admm.ADMM.itstat_extra -->
<g id="edge2" class="edge">
<title>admm.ADMM.iteration_stats&#45;&gt;admm.ADMM.itstat_extra</title>
<path fill="none" stroke="#8ed88c" stroke-width="2" d="M304.14,-800C319.56,-800 335.84,-800 351.35,-800"/>
<polygon fill="#8ed88c" stroke="#8ed88c" stroke-width="2" points="351.42,-803.5001 361.42,-800 351.42,-796.5001 351.42,-803.5001"/>
</g>
<!-- admm.ADMM.ustep -->
<g id="node17" class="node">
<title>admm.ADMM.ustep</title>
<g id="a_node17"><a xlink:href="../../sporco.admm.admm.html#sporco.admm.admm.ADMM.ustep" xlink:title="admm.ADMM.ustep" target="_top">
<path fill="#8ed88c" stroke="#000000" stroke-width=".25" d="M271.5,-494C271.5,-494 189.5,-494 189.5,-494 183.5,-494 177.5,-488 177.5,-482 177.5,-482 177.5,-470 177.5,-470 177.5,-464 183.5,-458 189.5,-458 189.5,-458 271.5,-458 271.5,-458 277.5,-458 283.5,-464 283.5,-470 283.5,-470 283.5,-482 283.5,-482 283.5,-488 277.5,-494 271.5,-494"/>
<text text-anchor="middle" x="230.5" y="-473.8" font-family="Vera Sans, DejaVu Sans, Liberation Sans, Arial, Helvetica, sans" font-size="9.00" fill="#000000">admm.ADMM.ustep</text>
</a>
</g>
</g>
<!-- admm.ADMM.ustep&#45;&gt;admm.ADMMEqual.rsdl_r -->
<g id="edge11" class="edge">
<title>admm.ADMM.ustep&#45;&gt;admm.ADMMEqual.rsdl_r</title>
<path fill="none" stroke="#8ed88c" stroke-width="2" d="M283.6,-465.42C294.87,-461.02 305.82,-454.8 314,-446 354.53,-402.41 320.54,-368.72 350,-317 362.17,-295.64 381.2,-275.63 397.36,-260.85"/>
<polygon fill="#8ed88c" stroke="#8ed88c" stroke-width="2" points="399.8787,-263.2938 405.02,-254.03 395.2239,-258.0657 399.8787,-263.2938"/>
</g>
<!-- admm.ADMM.compute_residuals -->
<g id="node18" class="node">
<title>admm.ADMM.compute_residuals</title>
<g id="a_node18"><a xlink:href="../../sporco.admm.admm.html#sporco.admm.admm.ADMM.compute_residuals" xlink:title="admm.ADMM.compute_residuals" target="_top">
<path fill="#8ed88c" stroke="#000000" stroke-width=".25" d="M302,-548C302,-548 159,-548 159,-548 153,-548 147,-542 147,-536 147,-536 147,-524 147,-524 147,-518 153,-512 159,-512 159,-512 302,-512 302,-512 308,-512 314,-518 314,-524 314,-524 314,-536 314,-536 314,-542 308,-548 302,-548"/>
<text text-anchor="middle" x="230.5" y="-527.8" font-family="Vera Sans, DejaVu Sans, Liberation Sans, Arial, Helvetica, sans" font-size="9.00" fill="#000000">admm.ADMM.compute_residuals</text>
</a>
</g>
</g>
<!-- admm.ADMM.compute_residuals&#45;&gt;admm.ADMMEqual.rsdl_s -->
<g id="edge12" class="edge">
<title>admm.ADMM.compute_residuals&#45;&gt;admm.ADMMEqual.rsdl_s</title>
<path fill="none" stroke="#8ed88c" stroke-width="2" d="M295.98,-511.9C302.24,-509.27 308.35,-506.31 314,-503 350.21,-481.8 384.52,-447.34 405.75,-423.71"/>
<polygon fill="#8ed88c" stroke="#8ed88c" stroke-width="2" points="408.4313,-425.9613 412.43,-416.15 403.1857,-421.3263 408.4313,-425.9613"/>
</g>
<!-- admm.ADMM.compute_residuals&#45;&gt;admm.ADMMEqual.rsdl_r -->
<g id="edge13" class="edge">
<title>admm.ADMM.compute_residuals&#45;&gt;admm.ADMMEqual.rsdl_r</title>
<path fill="none" stroke="#8ed88c" stroke-width="2" d="M304.12,-511.76C307.73,-509.21 311.07,-506.31 314,-503 369.81,-439.95 311.32,-391.79 350,-317 361.22,-295.31 380.05,-275.42 396.35,-260.78"/>
<polygon fill="#8ed88c" stroke="#8ed88c" stroke-width="2" points="398.8579,-263.2371 404.1,-254.03 394.2604,-257.9585 398.8579,-263.2371"/>
</g>
<!-- admm.ADMM.compute_residuals&#45;&gt;admm.ADMMEqual.rsdl_rn -->
<g id="edge14" class="edge">
<title>admm.ADMM.compute_residuals&#45;&gt;admm.ADMMEqual.rsdl_rn</title>
<path fill="none" stroke="#8ed88c" stroke-width="2" d="M299.91,-511.9C304.9,-509.31 309.67,-506.36 314,-503 337.67,-484.63 332.92,-470.62 350,-446 368.38,-419.5 390.81,-390.29 406.8,-369.95"/>
<polygon fill="#8ed88c" stroke="#8ed88c" stroke-width="2" points="409.5693,-372.0906 413.01,-362.07 404.0713,-367.7578 409.5693,-372.0906"/>
</g>
<!-- admm.ADMM.compute_residuals&#45;&gt;admm.ADMMEqual.rsdl_sn -->
<g id="edge15" class="edge">
<title>admm.ADMM.compute_residuals&#45;&gt;admm.ADMMEqual.rsdl_sn</title>
<path fill="none" stroke="#8ed88c" stroke-width="2" d="M303.45,-511.76C307.28,-509.21 310.84,-506.31 314,-503 355.99,-459.01 320.06,-423.93 350,-371 362.11,-349.6 381.14,-329.6 397.31,-314.82"/>
<polygon fill="#8ed88c" stroke="#8ed88c" stroke-width="2" points="399.8259,-317.2667 404.98,-308.01 395.1783,-312.0322 399.8259,-317.2667"/>
</g>
<!-- admm.ADMM.display_status -->
<g id="node19" class="node">
<title>admm.ADMM.display_status</title>
<g id="a_node19"><a xlink:href="../../sporco.admm.admm.html#sporco.admm.admm.ADMM.display_status" xlink:title="admm.ADMM.display_status" target="_top">
<path fill="#8ed88c" stroke="#000000" stroke-width=".25" d="M291.5,-602C291.5,-602 169.5,-602 169.5,-602 163.5,-602 157.5,-596 157.5,-590 157.5,-590 157.5,-578 157.5,-578 157.5,-572 163.5,-566 169.5,-566 169.5,-566 291.5,-566 291.5,-566 297.5,-566 303.5,-572 303.5,-578 303.5,-578 303.5,-590 303.5,-590 303.5,-596 297.5,-602 291.5,-602"/>
<text text-anchor="middle" x="230.5" y="-581.8" font-family="Vera Sans, DejaVu Sans, Liberation Sans, Arial, Helvetica, sans" font-size="9.00" fill="#000000">admm.ADMM.display_status</text>
</a>
</g>
</g>
<!-- admm.ADMM.display_start -->
<g id="node20" class="node">
<title>admm.ADMM.display_start</title>
<g id="a_node20"><a xlink:href="../../sporco.admm.admm.html#sporco.admm.admm.ADMM.display_start" xlink:title="admm.ADMM.display_start" target="_top">
<path fill="#8ed88c" stroke="#000000" stroke-width=".25" d="M287.5,-656C287.5,-656 173.5,-656 173.5,-656 167.5,-656 161.5,-650 161.5,-644 161.5,-644 161.5,-632 161.5,-632 161.5,-626 167.5,-620 173.5,-620 173.5,-620 287.5,-620 287.5,-620 293.5,-620 299.5,-626 299.5,-632 299.5,-632 299.5,-644 299.5,-644 299.5,-650 293.5,-656 287.5,-656"/>
<text text-anchor="middle" x="230.5" y="-635.8" font-family="Vera Sans, DejaVu Sans, Liberation Sans, Arial, Helvetica, sans" font-size="9.00" fill="#000000">admm.ADMM.display_start</text>
</a>
</g>
</g>
<!-- admm.ADMM.update_rho -->
<g id="node21" class="node">
<title>admm.ADMM.update_rho</title>
<g id="a_node21"><a xlink:href="../../sporco.admm.admm.html#sporco.admm.admm.ADMM.update_rho" xlink:title="admm.ADMM.update_rho" target="_top">
<path fill="#8ed88c" stroke="#000000" stroke-width=".25" d="M285,-710C285,-710 176,-710 176,-710 170,-710 164,-704 164,-698 164,-698 164,-686 164,-686 164,-680 170,-674 176,-674 176,-674 285,-674 285,-674 291,-674 297,-680 297,-686 297,-686 297,-698 297,-698 297,-704 291,-710 285,-710"/>
<text text-anchor="middle" x="230.5" y="-689.8" font-family="Vera Sans, DejaVu Sans, Liberation Sans, Arial, Helvetica, sans" font-size="9.00" fill="#000000">admm.ADMM.update_rho</text>
</a>
</g>
</g>
<!-- admm.ADMM.display_end -->
<g id="node22" class="node">
<title>admm.ADMM.display_end</title>
<g id="a_node22"><a xlink:href="../../sporco.admm.admm.html#sporco.admm.admm.ADMM.display_end" xlink:title="admm.ADMM.display_end" target="_top">
<path fill="#8ed88c" stroke="#000000" stroke-width=".25" d="M285.5,-764C285.5,-764 175.5,-764 175.5,-764 169.5,-764 163.5,-758 163.5,-752 163.5,-752 163.5,-740 163.5,-740 163.5,-734 169.5,-728 175.5,-728 175.5,-728 285.5,-728 285.5,-728 291.5,-728 297.5,-734 297.5,-740 297.5,-740 297.5,-752 297.5,-752 297.5,-758 291.5,-764 285.5,-764"/>
<text text-anchor="middle" x="230.5" y="-743.8" font-family="Vera Sans, DejaVu Sans, Liberation Sans, Arial, Helvetica, sans" font-size="9.00" fill="#000000">admm.ADMM.display_end</text>
</a>
</g>
</g>
<!-- admm.ADMM.solve -->
<g id="node23" class="node">
<title>admm.ADMM.solve</title>
<g id="a_node23"><a xlink:href="../../sporco.admm.admm.html#sporco.admm.admm.ADMM.solve" xlink:title="admm.ADMM.solve" target="_top">
<path fill="#8ed88c" stroke="#000000" stroke-width=".25" d="M99,-548C99,-548 20,-548 20,-548 14,-548 8,-542 8,-536 8,-536 8,-524 8,-524 8,-518 14,-512 20,-512 20,-512 99,-512 99,-512 105,-512 111,-518 111,-524 111,-524 111,-536 111,-536 111,-542 105,-548 99,-548"/>
<text text-anchor="middle" x="59.5" y="-527.8" font-family="Vera Sans, DejaVu Sans, Liberation Sans, Arial, Helvetica, sans" font-size="9.00" fill="#000000">admm.ADMM.solve</text>
</a>
</g>
</g>
<!-- admm.ADMM.solve&#45;&gt;bpdn.GenericBPDN.xstep -->
<g id="edge19" class="edge">
<title>admm.ADMM.solve&#45;&gt;bpdn.GenericBPDN.xstep</title>
<path fill="none" stroke="#8ed88c" stroke-width="2" d="M61.506,-511.67C69.472,-441.58 100.71,-191.26 147,-128 154.25,-118.09 164.21,-109.92 174.73,-103.3"/>
<polygon fill="#8ed88c" stroke="#8ed88c" stroke-width="2" points="176.7796,-106.1567 183.66,-98.1 173.2571,-100.1076 176.7796,-106.1567"/>
</g>
<!-- admm.ADMM.solve&#45;&gt;bpdn.BPDNJoint.ystep -->
<g id="edge18" class="edge">
<title>admm.ADMM.solve&#45;&gt;bpdn.BPDNJoint.ystep</title>
<path fill="none" stroke="#8ed88c" stroke-width="2" d="M62.5,-511.97C72.873,-451.33 108.69,-255.73 147,-206 154.65,-196.07 164.98,-187.84 175.76,-181.17"/>
<polygon fill="#8ed88c" stroke="#8ed88c" stroke-width="2" points="177.5606,-184.1719 184.47,-176.14 174.0599,-178.1101 177.5606,-184.1719"/>
</g>
<!-- admm.ADMM.solve&#45;&gt;admm.ADMMEqual.getmin -->
<g id="edge16" class="edge">
<title>admm.ADMM.solve&#45;&gt;admm.ADMMEqual.getmin</title>
<path fill="none" stroke="#8ed88c" stroke-width="2" d="M75.813,-511.95C92.6,-493.97 120.04,-466.21 147,-446 159.07,-436.95 172.99,-428.32 185.97,-420.94"/>
<polygon fill="#8ed88c" stroke="#8ed88c" stroke-width="2" points="187.7358,-423.9628 194.77,-416.04 184.3304,-417.847 187.7358,-423.9628"/>
</g>
<!-- admm.ADMM.solve&#45;&gt;admm.ADMMEqual.relax_AX -->
<g id="edge17" class="edge">
<title>admm.ADMM.solve&#45;&gt;admm.ADMMEqual.relax_AX</title>
<path fill="none" stroke="#8ed88c" stroke-width="2" d="M64.583,-511.86C74.727,-478.97 100.59,-409.32 147,-371 148.54,-369.73 150.15,-368.51 151.8,-367.36"/>
<polygon fill="#8ed88c" stroke="#8ed88c" stroke-width="2" points="153.7725,-370.2557 160.45,-362.03 150.1004,-364.2962 153.7725,-370.2557"/>
</g>
<!-- admm.ADMM.solve&#45;&gt;admm.ADMM.iteration_stats -->
<g id="edge3" class="edge">
<title>admm.ADMM.solve&#45;&gt;admm.ADMM.iteration_stats</title>
<path fill="none" stroke="#8ed88c" stroke-width="2" d="M60.727,-548.13C64.732,-592.85 81.265,-709.39 147,-773 148.09,-774.06 149.23,-775.08 150.41,-776.06"/>
<polygon fill="#8ed88c" stroke="#8ed88c" stroke-width="2" points="148.471,-778.9763 158.64,-781.95 152.545,-773.2839 148.471,-778.9763"/>
</g>
<!-- admm.ADMM.solve&#45;&gt;admm.ADMM.ustep -->
<g id="edge4" class="edge">
<title>admm.ADMM.solve&#45;&gt;admm.ADMM.ustep</title>
<path fill="none" stroke="#8ed88c" stroke-width="2" d="M111.27,-513.65C129.1,-508.02 149.26,-501.65 167.86,-495.78"/>
<polygon fill="#8ed88c" stroke="#8ed88c" stroke-width="2" points="168.9469,-499.1072 177.43,-492.76 166.8403,-492.4317 168.9469,-499.1072"/>
</g>
<!-- admm.ADMM.solve&#45;&gt;admm.ADMM.compute_residuals -->
<g id="edge5" class="edge">
<title>admm.ADMM.solve&#45;&gt;admm.ADMM.compute_residuals</title>
<path fill="none" stroke="#8ed88c" stroke-width="2" d="M111.27,-530C119.32,-530 127.85,-530 136.5,-530"/>
<polygon fill="#8ed88c" stroke="#8ed88c" stroke-width="2" points="136.68,-533.5001 146.68,-530 136.68,-526.5001 136.68,-533.5001"/>
</g>
<!-- admm.ADMM.solve&#45;&gt;admm.ADMM.display_status -->
<g id="edge6" class="edge">
<title>admm.ADMM.solve&#45;&gt;admm.ADMM.display_status</title>
<path fill="none" stroke="#8ed88c" stroke-width="2" d="M111.27,-546.35C127.77,-551.56 146.28,-557.4 163.69,-562.9"/>
<polygon fill="#8ed88c" stroke="#8ed88c" stroke-width="2" points="162.6501,-566.2419 173.24,-565.92 164.7607,-559.5677 162.6501,-566.2419"/>
</g>
<!-- admm.ADMM.solve&#45;&gt;admm.ADMM.display_start -->
<g id="edge7" class="edge">
<title>admm.ADMM.solve&#45;&gt;admm.ADMM.display_start</title>
<path fill="none" stroke="#8ed88c" stroke-width="2" d="M74.825,-548.23C91.047,-566.46 118.24,-594.16 147,-611 149.83,-612.66 152.77,-614.22 155.78,-615.71"/>
<polygon fill="#8ed88c" stroke="#8ed88c" stroke-width="2" points="154.468,-618.9582 165.02,-619.91 157.3647,-612.5856 154.468,-618.9582"/>
</g>
<!-- admm.ADMM.solve&#45;&gt;admm.ADMM.update_rho -->
<g id="edge8" class="edge">
<title>admm.ADMM.solve&#45;&gt;admm.ADMM.update_rho</title>
<path fill="none" stroke="#8ed88c" stroke-width="2" d="M66.497,-548.14C78.562,-577.06 106,-633.56 147,-665 149.46,-666.89 152.06,-668.64 154.75,-670.28"/>
<polygon fill="#8ed88c" stroke="#8ed88c" stroke-width="2" points="153.1914,-673.4163 163.65,-675.11 156.5303,-667.2639 153.1914,-673.4163"/>
</g>
<!-- admm.ADMM.solve&#45;&gt;admm.ADMM.display_end -->
<g id="edge9" class="edge">
<title>admm.ADMM.solve&#45;&gt;admm.ADMM.display_end</title>
<path fill="none" stroke="#8ed88c" stroke-width="2" d="M62.864,-548.25C70.725,-585.74 93.82,-671.88 147,-719 149.38,-721.1 151.92,-723.04 154.58,-724.83"/>
<polygon fill="#8ed88c" stroke="#8ed88c" stroke-width="2" points="153.0655,-727.9996 163.46,-730.05 156.6128,-721.965 153.0655,-727.9996"/>
</g>
</g>
</svg>
