<?xml version="1.0" encoding="UTF-8" standalone="no"?>
<!DOCTYPE svg PUBLIC "-//W3C//DTD SVG 1.1//EN"
 "http://www.w3.org/Graphics/SVG/1.1/DTD/svg11.dtd">
<!-- Generated by graphviz version 2.40.1 (20161225.0304)
 -->
<!-- Pages: 1 -->
<svg width="879pt" height="264pt"
 viewBox="0.00 0.00 879.00 264.00" xmlns="http://www.w3.org/2000/svg" xmlns:xlink="http://www.w3.org/1999/xlink">
<g id="graph0" class="graph" transform="scale(1 1) rotate(0) translate(4 260)">
<polygon fill="transparent" stroke="transparent" points="-4,4 -4,-260 875,-260 875,4 -4,4"/>
<g id="clust1" class="cluster">
<title>cluster_admm.ADMMTwoBlockCnstrnt</title>
<polygon fill="transparent" stroke="#8ca8d8" stroke-width="2" stroke-dasharray="1,5" points="357,-108 357,-178 560,-178 560,-108 357,-108"/>
<text text-anchor="middle" x="458.5" y="-166.8" font-family="Vera Sans, DejaVu Sans, Liberation Sans, Arial, Helvetica, sans" font-size="9.00" fill="#000000">admm.ADMMTwoBlockCnstrnt</text>
</g>
<g id="clust2" class="cluster">
<title>cluster_bpdn.MinL1InL2Ball</title>
<polygon fill="transparent" stroke="#d88c8c" stroke-width="2" stroke-dasharray="1,5" points="181,-186 181,-256 871,-256 871,-186 181,-186"/>
<text text-anchor="middle" x="526" y="-244.8" font-family="Vera Sans, DejaVu Sans, Liberation Sans, Arial, Helvetica, sans" font-size="9.00" fill="#000000">bpdn.MinL1InL2Ball</text>
</g>
<g id="clust3" class="cluster">
<title>cluster_admm.ADMM</title>
<polygon fill="transparent" stroke="#8ed88c" stroke-width="2" stroke-dasharray="1,5" points="580,0 580,-178 869.5,-178 869.5,0 580,0"/>
<text text-anchor="middle" x="724.75" y="-166.8" font-family="Vera Sans, DejaVu Sans, Liberation Sans, Arial, Helvetica, sans" font-size="9.00" fill="#000000">admm.ADMM</text>
</g>
<g id="clust4" class="cluster">
<title>cluster_admm._ADMM_Meta</title>
<polygon fill="transparent" stroke="#d88cc3" stroke-width="2" stroke-dasharray="1,5" points="0,-186 0,-256 161,-256 161,-186 0,-186"/>
<text text-anchor="middle" x="80.5" y="-244.8" font-family="Vera Sans, DejaVu Sans, Liberation Sans, Arial, Helvetica, sans" font-size="9.00" fill="#000000">admm._ADMM_Meta</text>
</g>
<!-- admm.ADMMTwoBlockCnstrnt.__init__ -->
<g id="node1" class="node">
<title>admm.ADMMTwoBlockCnstrnt.__init__</title>
<g id="a_node1"><a xlink:href="../../sporco.admm.admm.html#sporco.admm.admm.ADMMTwoBlockCnstrnt.__init__" xlink:title="admm.ADMMTwoBlockCnstrnt.__init__" target="_top">
<path fill="#8ca8d8" stroke="#000000" stroke-width=".25" d="M540,-152C540,-152 377,-152 377,-152 371,-152 365,-146 365,-140 365,-140 365,-128 365,-128 365,-122 371,-116 377,-116 377,-116 540,-116 540,-116 546,-116 552,-122 552,-128 552,-128 552,-140 552,-140 552,-146 546,-152 540,-152"/>
<text text-anchor="middle" x="458.5" y="-131.8" font-family="Vera Sans, DejaVu Sans, Liberation Sans, Arial, Helvetica, sans" font-size="9.00" fill="#000000">admm.ADMMTwoBlockCnstrnt.__init__</text>
</a>
</g>
</g>
<!-- admm.ADMM.__init__ -->
<g id="node5" class="node">
<title>admm.ADMM.__init__</title>
<g id="a_node5"><a xlink:href="../../sporco.admm.admm.html#sporco.admm.admm.ADMM.__init__" xlink:title="admm.ADMM.__init__" target="_top">
<path fill="#8ed88c" stroke="#000000" stroke-width=".25" d="M687,-152C687,-152 600,-152 600,-152 594,-152 588,-146 588,-140 588,-140 588,-128 588,-128 588,-122 594,-116 600,-116 600,-116 687,-116 687,-116 693,-116 699,-122 699,-128 699,-128 699,-140 699,-140 699,-146 693,-152 687,-152"/>
<text text-anchor="middle" x="643.5" y="-131.8" font-family="Vera Sans, DejaVu Sans, Liberation Sans, Arial, Helvetica, sans" font-size="9.00" fill="#000000">admm.ADMM.__init__</text>
</a>
</g>
</g>
<!-- admm.ADMMTwoBlockCnstrnt.__init__&#45;&gt;admm.ADMM.__init__ -->
<g id="edge7" class="edge">
<title>admm.ADMMTwoBlockCnstrnt.__init__&#45;&gt;admm.ADMM.__init__</title>
<path fill="none" stroke="#8ca8d8" stroke-width="2" d="M552.08,-134C560.65,-134 569.21,-134 577.46,-134"/>
<polygon fill="#8ca8d8" stroke="#8ca8d8" stroke-width="2" points="577.73,-137.5001 587.73,-134 577.73,-130.5001 577.73,-137.5001"/>
</g>
<!-- bpdn.MinL1InL2Ball.setdict -->
<g id="node2" class="node">
<title>bpdn.MinL1InL2Ball.setdict</title>
<g id="a_node2"><a xlink:href="../../sporco.admm.bpdn.html#sporco.admm.bpdn.MinL1InL2Ball.setdict" xlink:title="bpdn.MinL1InL2Ball.setdict" target="_top">
<path fill="#d88c8c" stroke="#000000" stroke-width=".25" d="M516.5,-230C516.5,-230 400.5,-230 400.5,-230 394.5,-230 388.5,-224 388.5,-218 388.5,-218 388.5,-206 388.5,-206 388.5,-200 394.5,-194 400.5,-194 400.5,-194 516.5,-194 516.5,-194 522.5,-194 528.5,-200 528.5,-206 528.5,-206 528.5,-218 528.5,-218 528.5,-224 522.5,-230 516.5,-230"/>
<text text-anchor="middle" x="458.5" y="-209.8" font-family="Vera Sans, DejaVu Sans, Liberation Sans, Arial, Helvetica, sans" font-size="9.00" fill="#000000">bpdn.MinL1InL2Ball.setdict</text>
</a>
</g>
</g>
<!-- bpdn.MinL1InL2Ball.uinit -->
<g id="node3" class="node">
<title>bpdn.MinL1InL2Ball.uinit</title>
<g id="a_node3"><a xlink:href="../../sporco.admm.bpdn.html#sporco.admm.bpdn.MinL1InL2Ball.uinit" xlink:title="bpdn.MinL1InL2Ball.uinit" target="_top">
<path fill="#d88c8c" stroke="#000000" stroke-width=".25" d="M851,-230C851,-230 747,-230 747,-230 741,-230 735,-224 735,-218 735,-218 735,-206 735,-206 735,-200 741,-194 747,-194 747,-194 851,-194 851,-194 857,-194 863,-200 863,-206 863,-206 863,-218 863,-218 863,-224 857,-230 851,-230"/>
<text text-anchor="middle" x="799" y="-209.8" font-family="Vera Sans, DejaVu Sans, Liberation Sans, Arial, Helvetica, sans" font-size="9.00" fill="#000000">bpdn.MinL1InL2Ball.uinit</text>
</a>
</g>
</g>
<!-- bpdn.MinL1InL2Ball.__init__ -->
<g id="node4" class="node">
<title>bpdn.MinL1InL2Ball.__init__</title>
<g id="a_node4"><a xlink:href="../../sporco.admm.bpdn.html#sporco.admm.bpdn.MinL1InL2Ball.__init__" xlink:title="bpdn.MinL1InL2Ball.__init__" target="_top">
<path fill="#d88c8c" stroke="#000000" stroke-width=".25" d="M317,-230C317,-230 201,-230 201,-230 195,-230 189,-224 189,-218 189,-218 189,-206 189,-206 189,-200 195,-194 201,-194 201,-194 317,-194 317,-194 323,-194 329,-200 329,-206 329,-206 329,-218 329,-218 329,-224 323,-230 317,-230"/>
<text text-anchor="middle" x="259" y="-209.8" font-family="Vera Sans, DejaVu Sans, Liberation Sans, Arial, Helvetica, sans" font-size="9.00" fill="#000000">bpdn.MinL1InL2Ball.__init__</text>
</a>
</g>
</g>
<!-- bpdn.MinL1InL2Ball.__init__&#45;&gt;admm.ADMMTwoBlockCnstrnt.__init__ -->
<g id="edge6" class="edge">
<title>bpdn.MinL1InL2Ball.__init__&#45;&gt;admm.ADMMTwoBlockCnstrnt.__init__</title>
<path fill="none" stroke="#d88c8c" stroke-width="2" d="M305.27,-193.91C334.25,-182.58 371.78,-167.91 402.44,-155.92"/>
<polygon fill="#d88c8c" stroke="#d88c8c" stroke-width="2" points="404.0995,-159.0293 412.14,-152.13 401.552,-152.5094 404.0995,-159.0293"/>
</g>
<!-- bpdn.MinL1InL2Ball.__init__&#45;&gt;bpdn.MinL1InL2Ball.setdict -->
<g id="edge1" class="edge">
<title>bpdn.MinL1InL2Ball.__init__&#45;&gt;bpdn.MinL1InL2Ball.setdict</title>
<path fill="none" stroke="#d88c8c" stroke-width="2" d="M329.06,-212C344.95,-212 361.96,-212 378.25,-212"/>
<polygon fill="#d88c8c" stroke="#d88c8c" stroke-width="2" points="378.28,-215.5001 388.28,-212 378.28,-208.5001 378.28,-215.5001"/>
</g>
<!-- admm.ADMM.__init__&#45;&gt;bpdn.MinL1InL2Ball.uinit -->
<g id="edge8" class="edge">
<title>admm.ADMM.__init__&#45;&gt;bpdn.MinL1InL2Ball.uinit</title>
<path fill="none" stroke="#8ed88c" stroke-width="2" d="M677.21,-152.14C694.41,-161.28 715.72,-172.43 735,-182 739.95,-184.46 745.13,-186.97 750.32,-189.46"/>
<polygon fill="#8ed88c" stroke="#8ed88c" stroke-width="2" points="749.0752,-192.7434 759.61,-193.87 752.0771,-186.4197 749.0752,-192.7434"/>
</g>
<!-- admm.ADMM.yinit -->
<g id="node6" class="node">
<title>admm.ADMM.yinit</title>
<g id="a_node6"><a xlink:href="../../sporco.admm.admm.html#sporco.admm.admm.ADMM.yinit" xlink:title="admm.ADMM.yinit" target="_top">
<path fill="#8ed88c" stroke="#000000" stroke-width=".25" d="M836,-44C836,-44 762,-44 762,-44 756,-44 750,-38 750,-32 750,-32 750,-20 750,-20 750,-14 756,-8 762,-8 762,-8 836,-8 836,-8 842,-8 848,-14 848,-20 848,-20 848,-32 848,-32 848,-38 842,-44 836,-44"/>
<text text-anchor="middle" x="799" y="-23.8" font-family="Vera Sans, DejaVu Sans, Liberation Sans, Arial, Helvetica, sans" font-size="9.00" fill="#000000">admm.ADMM.yinit</text>
</a>
</g>
</g>
<!-- admm.ADMM.__init__&#45;&gt;admm.ADMM.yinit -->
<g id="edge2" class="edge">
<title>admm.ADMM.__init__&#45;&gt;admm.ADMM.yinit</title>
<path fill="none" stroke="#8ed88c" stroke-width="2" d="M660.66,-115.67C678.07,-97.87 706.45,-70.973 735,-53 737.31,-51.544 739.72,-50.135 742.18,-48.775"/>
<polygon fill="#8ed88c" stroke="#8ed88c" stroke-width="2" points="744.0032,-51.7726 751.28,-44.072 740.7893,-45.554 744.0032,-51.7726"/>
</g>
<!-- admm.ADMM.set_dtype -->
<g id="node7" class="node">
<title>admm.ADMM.set_dtype</title>
<g id="a_node7"><a xlink:href="../../sporco.admm.admm.html#sporco.admm.admm.ADMM.set_dtype" xlink:title="admm.ADMM.set_dtype" target="_top">
<path fill="#8ed88c" stroke="#000000" stroke-width=".25" d="M849.5,-98C849.5,-98 748.5,-98 748.5,-98 742.5,-98 736.5,-92 736.5,-86 736.5,-86 736.5,-74 736.5,-74 736.5,-68 742.5,-62 748.5,-62 748.5,-62 849.5,-62 849.5,-62 855.5,-62 861.5,-68 861.5,-74 861.5,-74 861.5,-86 861.5,-86 861.5,-92 855.5,-98 849.5,-98"/>
<text text-anchor="middle" x="799" y="-77.8" font-family="Vera Sans, DejaVu Sans, Liberation Sans, Arial, Helvetica, sans" font-size="9.00" fill="#000000">admm.ADMM.set_dtype</text>
</a>
</g>
</g>
<!-- admm.ADMM.__init__&#45;&gt;admm.ADMM.set_dtype -->
<g id="edge3" class="edge">
<title>admm.ADMM.__init__&#45;&gt;admm.ADMM.set_dtype</title>
<path fill="none" stroke="#8ed88c" stroke-width="2" d="M695.71,-115.87C708.99,-111.26 723.38,-106.26 737.09,-101.5"/>
<polygon fill="#8ed88c" stroke="#8ed88c" stroke-width="2" points="738.6333,-104.669 746.93,-98.08 736.3352,-98.057 738.6333,-104.669"/>
</g>
<!-- admm.ADMM.set_attr -->
<g id="node8" class="node">
<title>admm.ADMM.set_attr</title>
<g id="a_node8"><a xlink:href="../../sporco.admm.admm.html#sporco.admm.admm.ADMM.set_attr" xlink:title="admm.ADMM.set_attr" target="_top">
<path fill="#8ed88c" stroke="#000000" stroke-width=".25" d="M845,-152C845,-152 753,-152 753,-152 747,-152 741,-146 741,-140 741,-140 741,-128 741,-128 741,-122 747,-116 753,-116 753,-116 845,-116 845,-116 851,-116 857,-122 857,-128 857,-128 857,-140 857,-140 857,-146 851,-152 845,-152"/>
<text text-anchor="middle" x="799" y="-131.8" font-family="Vera Sans, DejaVu Sans, Liberation Sans, Arial, Helvetica, sans" font-size="9.00" fill="#000000">admm.ADMM.set_attr</text>
</a>
</g>
</g>
<!-- admm.ADMM.__init__&#45;&gt;admm.ADMM.set_attr -->
<g id="edge4" class="edge">
<title>admm.ADMM.__init__&#45;&gt;admm.ADMM.set_attr</title>
<path fill="none" stroke="#8ed88c" stroke-width="2" d="M699.2,-134C709.44,-134 720.23,-134 730.78,-134"/>
<polygon fill="#8ed88c" stroke="#8ed88c" stroke-width="2" points="730.8,-137.5001 740.8,-134 730.8,-130.5001 730.8,-137.5001"/>
</g>
<!-- admm._ADMM_Meta.__call__ -->
<g id="node9" class="node">
<title>admm._ADMM_Meta.__call__</title>
<g id="a_node9"><a xlink:href="../../sporco.admm.admm.html#sporco.admm.admm._ADMM_Meta.__call__" xlink:title="admm._ADMM_Meta.__call__" target="_top">
<path fill="#d88cc3" stroke="#000000" stroke-width=".25" d="M141,-230C141,-230 20,-230 20,-230 14,-230 8,-224 8,-218 8,-218 8,-206 8,-206 8,-200 14,-194 20,-194 20,-194 141,-194 141,-194 147,-194 153,-200 153,-206 153,-206 153,-218 153,-218 153,-224 147,-230 141,-230"/>
<text text-anchor="middle" x="80.5" y="-209.8" font-family="Vera Sans, DejaVu Sans, Liberation Sans, Arial, Helvetica, sans" font-size="9.00" fill="#000000">admm._ADMM_Meta.__call__</text>
</a>
</g>
</g>
<!-- admm._ADMM_Meta.__call__&#45;&gt;bpdn.MinL1InL2Ball.__init__ -->
<g id="edge5" class="edge">
<title>admm._ADMM_Meta.__call__&#45;&gt;bpdn.MinL1InL2Ball.__init__</title>
<path fill="none" stroke="#d88cc3" stroke-width="2" d="M153.1,-212C161.47,-212 170.05,-212 178.52,-212"/>
<polygon fill="#d88cc3" stroke="#d88cc3" stroke-width="2" points="178.77,-215.5001 188.77,-212 178.77,-208.5001 178.77,-215.5001"/>
</g>
</g>
</svg>
