<?xml version="1.0" encoding="UTF-8" standalone="no"?>
<!DOCTYPE svg PUBLIC "-//W3C//DTD SVG 1.1//EN"
 "http://www.w3.org/Graphics/SVG/1.1/DTD/svg11.dtd">
<!-- Generated by graphviz version 2.40.1 (20161225.0304)
 -->
<!-- Pages: 1 -->
<svg
 viewBox="0.00 0.00 1130.00 376.15" xmlns="http://www.w3.org/2000/svg" xmlns:xlink="http://www.w3.org/1999/xlink">
<g id="graph0" class="graph" transform="scale(1 1) rotate(0) translate(4 372.146)">
<polygon fill="transparent" stroke="transparent" points="-4,4 -4,-372.146 1126,-372.146 1126,4 -4,4"/>
<g id="clust1" class="cluster">
<title>cluster_admm.ADMM</title>
<polygon fill="transparent" stroke="#8ed88c" stroke-width="2" stroke-dasharray="1,5" points="834,-85.148 834,-263.146 1122,-263.146 1122,-85.148 834,-85.148"/>
<text text-anchor="middle" x="978" y="-251.946" font-family="Vera Sans, DejaVu Sans, Liberation Sans, Arial, Helvetica, sans" font-size="9.00" fill="#000000">admm.ADMM</text>
</g>
<g id="clust2" class="cluster">
<title>cluster_admm._ADMM_Meta</title>
<polygon fill="transparent" stroke="#8c8fd8" stroke-width="2" stroke-dasharray="1,5" points="0,-298.146 0,-368.146 161,-368.146 161,-298.146 0,-298.146"/>
<text text-anchor="middle" x="80.5" y="-356.946" font-family="Vera Sans, DejaVu Sans, Liberation Sans, Arial, Helvetica, sans" font-size="9.00" fill="#000000">admm._ADMM_Meta</text>
</g>
<g id="clust3" class="cluster">
<title>cluster_admm.ADMMEqual</title>
<polygon fill="transparent" stroke="#8cd8d6" stroke-width="2" stroke-dasharray="1,5" points="659.5,-220.146 659.5,-290.146 812.5,-290.146 812.5,-220.146 659.5,-220.146"/>
<text text-anchor="middle" x="736" y="-278.946" font-family="Vera Sans, DejaVu Sans, Liberation Sans, Arial, Helvetica, sans" font-size="9.00" fill="#000000">admm.ADMMEqual</text>
</g>
<g id="clust4" class="cluster">
<title>cluster_bpdn.GenericBPDN</title>
<polygon fill="transparent" stroke="#d88c8c" stroke-width="2" stroke-dasharray="1,5" points="482,-142.148 482,-212.146 814,-212.146 814,-142.148 482,-142.148"/>
<text text-anchor="middle" x="648" y="-200.946" font-family="Vera Sans, DejaVu Sans, Liberation Sans, Arial, Helvetica, sans" font-size="9.00" fill="#000000">bpdn.GenericBPDN</text>
</g>
<g id="clust5" class="cluster">
<title>cluster_bpdn.BPDNJoint</title>
<polygon fill="transparent" stroke="#d88c91" stroke-width="2" stroke-dasharray="1,5" points="181,-298.146 181,-368.146 322,-368.146 322,-298.146 181,-298.146"/>
<text text-anchor="middle" x="251.5" y="-356.946" font-family="Vera Sans, DejaVu Sans, Liberation Sans, Arial, Helvetica, sans" font-size="9.00" fill="#000000">bpdn.BPDNJoint</text>
</g>
<g id="clust6" class="cluster">
<title>cluster_bpdn.BPDN</title>
<polygon fill="transparent" stroke="#d48cd8" stroke-width="2" stroke-dasharray="1,5" points="342,-298.146 342,-368.146 1105.5,-368.146 1105.5,-298.146 342,-298.146"/>
<text text-anchor="middle" x="723.75" y="-356.946" font-family="Vera Sans, DejaVu Sans, Liberation Sans, Arial, Helvetica, sans" font-size="9.00" fill="#000000">bpdn.BPDN</text>
</g>
<!-- admm.ADMM.__init__ -->
<g id="node1" class="node">
<title>admm.ADMM.__init__</title>
<g id="a_node1"><a xlink:href="../../sporco.admm.admm.html#sporco.admm.admm.ADMM.__init__" xlink:title="admm.ADMM.__init__" target="_top">
<path fill="#8ed88c" stroke="#000000" stroke-width=".25" d="M941,-237.146C941,-237.146 854,-237.146 854,-237.146 848,-237.146 842,-231.146 842,-225.146 842,-225.146 842,-213.146 842,-213.146 842,-207.146 848,-201.146 854,-201.146 854,-201.146 941,-201.146 941,-201.146 947,-201.146 953,-207.146 953,-213.146 953,-213.146 953,-225.146 953,-225.146 953,-231.146 947,-237.146 941,-237.146"/>
<text text-anchor="middle" x="897.5" y="-216.946" font-family="Vera Sans, DejaVu Sans, Liberation Sans, Arial, Helvetica, sans" font-size="9.00" fill="#000000">admm.ADMM.__init__</text>
</a>
</g>
</g>
<!-- admm.ADMM.set_attr -->
<g id="node2" class="node">
<title>admm.ADMM.set_attr</title>
<g id="a_node2"><a xlink:href="../../sporco.admm.admm.html#sporco.admm.admm.ADMM.set_attr" xlink:title="admm.ADMM.set_attr" target="_top">
<path fill="#8ed88c" stroke="#000000" stroke-width=".25" d="M1097.5,-183.146C1097.5,-183.146 1005.5,-183.146 1005.5,-183.146 999.5,-183.146 993.5,-177.146 993.5,-171.146 993.5,-171.146 993.5,-159.146 993.5,-159.146 993.5,-153.146 999.5,-147.146 1005.5,-147.146 1005.5,-147.146 1097.5,-147.146 1097.5,-147.146 1103.5,-147.146 1109.5,-153.146 1109.5,-159.146 1109.5,-159.146 1109.5,-171.146 1109.5,-171.146 1109.5,-177.146 1103.5,-183.146 1097.5,-183.146"/>
<text text-anchor="middle" x="1051.5" y="-162.946" font-family="Vera Sans, DejaVu Sans, Liberation Sans, Arial, Helvetica, sans" font-size="9.00" fill="#000000">admm.ADMM.set_attr</text>
</a>
</g>
</g>
<!-- admm.ADMM.__init__&#45;&gt;admm.ADMM.set_attr -->
<g id="edge1" class="edge">
<title>admm.ADMM.__init__&#45;&gt;admm.ADMM.set_attr</title>
<path fill="none" stroke="#8ed88c" stroke-width="2" d="M949.21,-201.016C962.36,-196.406 976.61,-191.406 990.19,-186.646"/>
<polygon fill="#8ed88c" stroke="#8ed88c" stroke-width="2" points="991.6246,-189.8518 999.9,-183.236 989.3052,-183.2472 991.6246,-189.8518"/>
</g>
<!-- admm.ADMM.set_dtype -->
<g id="node3" class="node">
<title>admm.ADMM.set_dtype</title>
<g id="a_node3"><a xlink:href="../../sporco.admm.admm.html#sporco.admm.admm.ADMM.set_dtype" xlink:title="admm.ADMM.set_dtype" target="_top">
<path fill="#8ed88c" stroke="#000000" stroke-width=".25" d="M1102,-129.148C1102,-129.148 1001,-129.148 1001,-129.148 995,-129.148 989,-123.148 989,-117.148 989,-117.148 989,-105.148 989,-105.148 989,-99.148 995,-93.148 1001,-93.148 1001,-93.148 1102,-93.148 1102,-93.148 1108,-93.148 1114,-99.148 1114,-105.148 1114,-105.148 1114,-117.148 1114,-117.148 1114,-123.148 1108,-129.148 1102,-129.148"/>
<text text-anchor="middle" x="1051.5" y="-108.948" font-family="Vera Sans, DejaVu Sans, Liberation Sans, Arial, Helvetica, sans" font-size="9.00" fill="#000000">admm.ADMM.set_dtype</text>
</a>
</g>
</g>
<!-- admm.ADMM.__init__&#45;&gt;admm.ADMM.set_dtype -->
<g id="edge2" class="edge">
<title>admm.ADMM.__init__&#45;&gt;admm.ADMM.set_dtype</title>
<path fill="none" stroke="#8ed88c" stroke-width="2" d="M914.69,-200.866C932.13,-183.106 960.53,-156.246 989,-138.148 991.18,-136.761 993.4,-135.414 995.8,-134.11"/>
<polygon fill="#8ed88c" stroke="#8ed88c" stroke-width="2" points="997.6933,-137.0682 1004.9,-129.302 994.4232,-130.879 997.6933,-137.0682"/>
</g>
<!-- admm.ADMM.yinit -->
<g id="node4" class="node">
<title>admm.ADMM.yinit</title>
<g id="a_node4"><a xlink:href="../../sporco.admm.admm.html#sporco.admm.admm.ADMM.yinit" xlink:title="admm.ADMM.yinit" target="_top">
<path fill="#8ed88c" stroke="#000000" stroke-width=".25" d="M1088.5,-237.146C1088.5,-237.146 1014.5,-237.146 1014.5,-237.146 1008.5,-237.146 1002.5,-231.146 1002.5,-225.146 1002.5,-225.146 1002.5,-213.146 1002.5,-213.146 1002.5,-207.146 1008.5,-201.146 1014.5,-201.146 1014.5,-201.146 1088.5,-201.146 1088.5,-201.146 1094.5,-201.146 1100.5,-207.146 1100.5,-213.146 1100.5,-213.146 1100.5,-225.146 1100.5,-225.146 1100.5,-231.146 1094.5,-237.146 1088.5,-237.146"/>
<text text-anchor="middle" x="1051.5" y="-216.946" font-family="Vera Sans, DejaVu Sans, Liberation Sans, Arial, Helvetica, sans" font-size="9.00" fill="#000000">admm.ADMM.yinit</text>
</a>
</g>
</g>
<!-- admm.ADMM.__init__&#45;&gt;admm.ADMM.yinit -->
<g id="edge3" class="edge">
<title>admm.ADMM.__init__&#45;&gt;admm.ADMM.yinit</title>
<path fill="none" stroke="#8ed88c" stroke-width="2" d="M953.1,-219.146C965.81,-219.146 979.37,-219.146 992.2,-219.146"/>
<polygon fill="#8ed88c" stroke="#8ed88c" stroke-width="2" points="992.4,-222.6461 1002.4,-219.146 992.4,-215.6461 992.4,-222.6461"/>
</g>
<!-- bpdn.BPDN.uinit -->
<g id="node11" class="node">
<title>bpdn.BPDN.uinit</title>
<g id="a_node11"><a xlink:href="../../sporco.admm.bpdn.html#sporco.admm.bpdn.BPDN.uinit" xlink:title="bpdn.BPDN.uinit" target="_top">
<path fill="#d48cd8" stroke="#000000" stroke-width=".25" d="M1085.5,-342.146C1085.5,-342.146 1017.5,-342.146 1017.5,-342.146 1011.5,-342.146 1005.5,-336.146 1005.5,-330.146 1005.5,-330.146 1005.5,-318.146 1005.5,-318.146 1005.5,-312.146 1011.5,-306.146 1017.5,-306.146 1017.5,-306.146 1085.5,-306.146 1085.5,-306.146 1091.5,-306.146 1097.5,-312.146 1097.5,-318.146 1097.5,-318.146 1097.5,-330.146 1097.5,-330.146 1097.5,-336.146 1091.5,-342.146 1085.5,-342.146"/>
<text text-anchor="middle" x="1051.5" y="-321.946" font-family="Vera Sans, DejaVu Sans, Liberation Sans, Arial, Helvetica, sans" font-size="9.00" fill="#000000">bpdn.BPDN.uinit</text>
</a>
</g>
</g>
<!-- admm.ADMM.__init__&#45;&gt;bpdn.BPDN.uinit -->
<g id="edge5" class="edge">
<title>admm.ADMM.__init__&#45;&gt;bpdn.BPDN.uinit</title>
<path fill="none" stroke="#8ed88c" stroke-width="2" d="M923.97,-237.196C949.54,-254.626 988.4,-281.126 1016.5,-300.286"/>
<polygon fill="#8ed88c" stroke="#8ed88c" stroke-width="2" points="1014.66,-303.2671 1024.9,-305.986 1018.5905,-297.4748 1014.66,-303.2671"/>
</g>
<!-- admm._ADMM_Meta.__call__ -->
<g id="node5" class="node">
<title>admm._ADMM_Meta.__call__</title>
<g id="a_node5"><a xlink:href="../../sporco.admm.admm.html#sporco.admm.admm._ADMM_Meta.__call__" xlink:title="admm._ADMM_Meta.__call__" target="_top">
<path fill="#8c8fd8" stroke="#000000" stroke-width=".25" d="M141,-342.146C141,-342.146 20,-342.146 20,-342.146 14,-342.146 8,-336.146 8,-330.146 8,-330.146 8,-318.146 8,-318.146 8,-312.146 14,-306.146 20,-306.146 20,-306.146 141,-306.146 141,-306.146 147,-306.146 153,-312.146 153,-318.146 153,-318.146 153,-330.146 153,-330.146 153,-336.146 147,-342.146 141,-342.146"/>
<text text-anchor="middle" x="80.5" y="-321.946" font-family="Vera Sans, DejaVu Sans, Liberation Sans, Arial, Helvetica, sans" font-size="9.00" fill="#000000">admm._ADMM_Meta.__call__</text>
</a>
</g>
</g>
<!-- bpdn.BPDNJoint.__init__ -->
<g id="node9" class="node">
<title>bpdn.BPDNJoint.__init__</title>
<g id="a_node9"><a xlink:href="../../sporco.admm.bpdn.html#sporco.admm.bpdn.BPDNJoint.__init__" xlink:title="bpdn.BPDNJoint.__init__" target="_top">
<path fill="#d88c91" stroke="#000000" stroke-width=".25" d="M302,-342.146C302,-342.146 201,-342.146 201,-342.146 195,-342.146 189,-336.146 189,-330.146 189,-330.146 189,-318.146 189,-318.146 189,-312.146 195,-306.146 201,-306.146 201,-306.146 302,-306.146 302,-306.146 308,-306.146 314,-312.146 314,-318.146 314,-318.146 314,-330.146 314,-330.146 314,-336.146 308,-342.146 302,-342.146"/>
<text text-anchor="middle" x="251.5" y="-321.946" font-family="Vera Sans, DejaVu Sans, Liberation Sans, Arial, Helvetica, sans" font-size="9.00" fill="#000000">bpdn.BPDNJoint.__init__</text>
</a>
</g>
</g>
<!-- admm._ADMM_Meta.__call__&#45;&gt;bpdn.BPDNJoint.__init__ -->
<g id="edge7" class="edge">
<title>admm._ADMM_Meta.__call__&#45;&gt;bpdn.BPDNJoint.__init__</title>
<path fill="none" stroke="#8c8fd8" stroke-width="2" d="M153.02,-324.146C161.5,-324.146 170.15,-324.146 178.63,-324.146"/>
<polygon fill="#8c8fd8" stroke="#8c8fd8" stroke-width="2" points="178.87,-327.6461 188.87,-324.146 178.87,-320.6461 178.87,-327.6461"/>
</g>
<!-- admm.ADMMEqual.__init__ -->
<g id="node6" class="node">
<title>admm.ADMMEqual.__init__</title>
<g id="a_node6"><a xlink:href="../../sporco.admm.admm.html#sporco.admm.admm.ADMMEqual.__init__" xlink:title="admm.ADMMEqual.__init__" target="_top">
<path fill="#8cd8d6" stroke="#000000" stroke-width=".25" d="M792.5,-264.146C792.5,-264.146 679.5,-264.146 679.5,-264.146 673.5,-264.146 667.5,-258.146 667.5,-252.146 667.5,-252.146 667.5,-240.146 667.5,-240.146 667.5,-234.146 673.5,-228.146 679.5,-228.146 679.5,-228.146 792.5,-228.146 792.5,-228.146 798.5,-228.146 804.5,-234.146 804.5,-240.146 804.5,-240.146 804.5,-252.146 804.5,-252.146 804.5,-258.146 798.5,-264.146 792.5,-264.146"/>
<text text-anchor="middle" x="736" y="-243.946" font-family="Vera Sans, DejaVu Sans, Liberation Sans, Arial, Helvetica, sans" font-size="9.00" fill="#000000">admm.ADMMEqual.__init__</text>
</a>
</g>
</g>
<!-- admm.ADMMEqual.__init__&#45;&gt;admm.ADMM.__init__ -->
<g id="edge6" class="edge">
<title>admm.ADMMEqual.__init__&#45;&gt;admm.ADMM.__init__</title>
<path fill="none" stroke="#8cd8d6" stroke-width="2" d="M804.96,-234.616C813.93,-233.116 823.1,-231.586 832.01,-230.096"/>
<polygon fill="#8cd8d6" stroke="#8cd8d6" stroke-width="2" points="832.6448,-233.5385 841.93,-228.436 831.4895,-226.6345 832.6448,-233.5385"/>
</g>
<!-- bpdn.GenericBPDN.__init__ -->
<g id="node7" class="node">
<title>bpdn.GenericBPDN.__init__</title>
<g id="a_node7"><a xlink:href="../../sporco.admm.bpdn.html#sporco.admm.bpdn.GenericBPDN.__init__" xlink:title="bpdn.GenericBPDN.__init__" target="_top">
<path fill="#d88c8c" stroke="#000000" stroke-width=".25" d="M618,-186.146C618,-186.146 502,-186.146 502,-186.146 496,-186.146 490,-180.146 490,-174.146 490,-174.146 490,-162.146 490,-162.146 490,-156.146 496,-150.146 502,-150.146 502,-150.146 618,-150.146 618,-150.146 624,-150.146 630,-156.146 630,-162.146 630,-162.146 630,-174.146 630,-174.146 630,-180.146 624,-186.146 618,-186.146"/>
<text text-anchor="middle" x="560" y="-165.946" font-family="Vera Sans, DejaVu Sans, Liberation Sans, Arial, Helvetica, sans" font-size="9.00" fill="#000000">bpdn.GenericBPDN.__init__</text>
</a>
</g>
</g>
<!-- bpdn.GenericBPDN.__init__&#45;&gt;admm.ADMMEqual.__init__ -->
<g id="edge12" class="edge">
<title>bpdn.GenericBPDN.__init__&#45;&gt;admm.ADMMEqual.__init__</title>
<path fill="none" stroke="#d88c8c" stroke-width="2" d="M596.08,-186.366C614.84,-195.636 638.23,-206.866 659.5,-216.146 665.74,-218.866 672.31,-221.616 678.87,-224.296"/>
<polygon fill="#d88c8c" stroke="#d88c8c" stroke-width="2" points="677.846,-227.6564 688.43,-228.136 680.4552,-221.1609 677.846,-227.6564"/>
</g>
<!-- bpdn.GenericBPDN.setdict -->
<g id="node8" class="node">
<title>bpdn.GenericBPDN.setdict</title>
<g id="a_node8"><a xlink:href="../../sporco.admm.bpdn.html#sporco.admm.bpdn.GenericBPDN.setdict" xlink:title="bpdn.GenericBPDN.setdict" target="_top">
<path fill="#d88c8c" stroke="#000000" stroke-width=".25" d="M794,-186.146C794,-186.146 678,-186.146 678,-186.146 672,-186.146 666,-180.146 666,-174.146 666,-174.146 666,-162.146 666,-162.146 666,-156.146 672,-150.146 678,-150.146 678,-150.146 794,-150.146 794,-150.146 800,-150.146 806,-156.146 806,-162.146 806,-162.146 806,-174.146 806,-174.146 806,-180.146 800,-186.146 794,-186.146"/>
<text text-anchor="middle" x="736" y="-165.946" font-family="Vera Sans, DejaVu Sans, Liberation Sans, Arial, Helvetica, sans" font-size="9.00" fill="#000000">bpdn.GenericBPDN.setdict</text>
</a>
</g>
</g>
<!-- bpdn.GenericBPDN.__init__&#45;&gt;bpdn.GenericBPDN.setdict -->
<g id="edge4" class="edge">
<title>bpdn.GenericBPDN.__init__&#45;&gt;bpdn.GenericBPDN.setdict</title>
<path fill="none" stroke="#d88c8c" stroke-width="2" d="M630.07,-168.146C638.54,-168.146 647.25,-168.146 655.85,-168.146"/>
<polygon fill="#d88c8c" stroke="#d88c8c" stroke-width="2" points="655.89,-171.6461 665.89,-168.146 655.89,-164.6461 655.89,-171.6461"/>
</g>
<!-- bpdn.BPDN.__init__ -->
<g id="node10" class="node">
<title>bpdn.BPDN.__init__</title>
<g id="a_node10"><a xlink:href="../../sporco.admm.bpdn.html#sporco.admm.bpdn.BPDN.__init__" xlink:title="bpdn.BPDN.__init__" target="_top">
<path fill="#d48cd8" stroke="#000000" stroke-width=".25" d="M442,-342.146C442,-342.146 362,-342.146 362,-342.146 356,-342.146 350,-336.146 350,-330.146 350,-330.146 350,-318.146 350,-318.146 350,-312.146 356,-306.146 362,-306.146 362,-306.146 442,-306.146 442,-306.146 448,-306.146 454,-312.146 454,-318.146 454,-318.146 454,-330.146 454,-330.146 454,-336.146 448,-342.146 442,-342.146"/>
<text text-anchor="middle" x="402" y="-321.946" font-family="Vera Sans, DejaVu Sans, Liberation Sans, Arial, Helvetica, sans" font-size="9.00" fill="#000000">bpdn.BPDN.__init__</text>
</a>
</g>
</g>
<!-- bpdn.BPDNJoint.__init__&#45;&gt;bpdn.BPDN.__init__ -->
<g id="edge11" class="edge">
<title>bpdn.BPDNJoint.__init__&#45;&gt;bpdn.BPDN.__init__</title>
<path fill="none" stroke="#d88c91" stroke-width="2" d="M314.02,-324.146C322.52,-324.146 331.24,-324.146 339.73,-324.146"/>
<polygon fill="#d88c91" stroke="#d88c91" stroke-width="2" points="339.95,-327.6461 349.95,-324.146 339.95,-320.6461 339.95,-327.6461"/>
</g>
<!-- bpdn.BPDN.__init__&#45;&gt;admm.ADMM.set_attr -->
<g id="edge8" class="edge">
<title>bpdn.BPDN.__init__&#45;&gt;admm.ADMM.set_attr</title>
<path fill="none" stroke="#d48cd8" stroke-width="2" d="M403.47,-306.016C407.72,-267.216 423.72,-176.526 482,-138.148 562.47,-85.161 849.89,-128.378 982.98,-152.126"/>
<polygon fill="#d48cd8" stroke="#d48cd8" stroke-width="2" points="982.64,-155.6206 993.1,-153.936 983.8724,-148.73 982.64,-155.6206"/>
</g>
<!-- bpdn.BPDN.__init__&#45;&gt;admm.ADMM.set_dtype -->
<g id="edge9" class="edge">
<title>bpdn.BPDN.__init__&#45;&gt;admm.ADMM.set_dtype</title>
<path fill="none" stroke="#d48cd8" stroke-width="2" d="M405.94,-306.036C416.69,-258.426 448.03,-131.792 482,-108.148 637.38,0 878.91,-55.306 990.81,-90.058"/>
<polygon fill="#d48cd8" stroke="#d48cd8" stroke-width="2" points="990.0104,-93.4756 1000.6,-93.144 992.1149,-86.7995 990.0104,-93.4756"/>
</g>
<!-- bpdn.BPDN.__init__&#45;&gt;bpdn.GenericBPDN.__init__ -->
<g id="edge10" class="edge">
<title>bpdn.BPDN.__init__&#45;&gt;bpdn.GenericBPDN.__init__</title>
<path fill="none" stroke="#d48cd8" stroke-width="2" d="M420.43,-305.946C448.62,-278.116 502.51,-224.906 534.45,-193.376"/>
<polygon fill="#d48cd8" stroke="#d48cd8" stroke-width="2" points="537.0241,-195.753 541.68,-186.236 532.1054,-190.7723 537.0241,-195.753"/>
</g>
</g>
</svg>
