<?xml version="1.0" encoding="UTF-8" standalone="no"?>
<!DOCTYPE svg PUBLIC "-//W3C//DTD SVG 1.1//EN"
 "http://www.w3.org/Graphics/SVG/1.1/DTD/svg11.dtd">
<!-- Generated by graphviz version 2.40.1 (20161225.0304)
 -->
<!-- Pages: 1 -->
<svg
 viewBox="0.00 0.00 1391.00 477.00" xmlns="http://www.w3.org/2000/svg" xmlns:xlink="http://www.w3.org/1999/xlink">
<g id="graph0" class="graph" transform="scale(1 1) rotate(0) translate(4 473)">
<polygon fill="transparent" stroke="transparent" points="-4,4 -4,-473 1387,-473 1387,4 -4,4"/>
<g id="clust1" class="cluster">
<title>cluster_bpdn.BPDN</title>
<polygon fill="transparent" stroke="#8cbfd8" stroke-width="2" stroke-dasharray="1,5" points="592,0 592,-70 1366.5,-70 1366.5,0 592,0"/>
<text text-anchor="middle" x="979.25" y="-58.8" font-family="Vera Sans, DejaVu Sans, Liberation Sans, Arial, Helvetica, sans" font-size="9.00" fill="#000000">bpdn.BPDN</text>
</g>
<g id="clust2" class="cluster">
<title>cluster_cmod.getPcn</title>
<polygon fill="transparent" stroke="#d88cce" stroke-width="2" stroke-dasharray="1,5" points="774,-399 774,-469 868,-469 868,-399 774,-399"/>
<text text-anchor="middle" x="821" y="-457.8" font-family="Vera Sans, DejaVu Sans, Liberation Sans, Arial, Helvetica, sans" font-size="9.00" fill="#000000">cmod.getPcn</text>
</g>
<g id="clust3" class="cluster">
<title>cluster_admm.ADMMEqual</title>
<polygon fill="transparent" stroke="#8cd8ad" stroke-width="2" stroke-dasharray="1,5" points="920.5,-156 920.5,-226 1073.5,-226 1073.5,-156 920.5,-156"/>
<text text-anchor="middle" x="997" y="-214.8" font-family="Vera Sans, DejaVu Sans, Liberation Sans, Arial, Helvetica, sans" font-size="9.00" fill="#000000">admm.ADMMEqual</text>
</g>
<g id="clust4" class="cluster">
<title>cluster_dictlrn.IterStatsConfig</title>
<polygon fill="transparent" stroke="#d88c8c" stroke-width="2" stroke-dasharray="1,5" points="391,-87 391,-157 561,-157 561,-87 391,-87"/>
<text text-anchor="middle" x="476" y="-145.8" font-family="Vera Sans, DejaVu Sans, Liberation Sans, Arial, Helvetica, sans" font-size="9.00" fill="#000000">dictlrn.IterStatsConfig</text>
</g>
<g id="clust5" class="cluster">
<title>cluster_cmod.normalise</title>
<polygon fill="transparent" stroke="#d88cac" stroke-width="2" stroke-dasharray="1,5" points="422.5,-243 422.5,-313 529.5,-313 529.5,-243 422.5,-243"/>
<text text-anchor="middle" x="476" y="-301.8" font-family="Vera Sans, DejaVu Sans, Liberation Sans, Arial, Helvetica, sans" font-size="9.00" fill="#000000">cmod.normalise</text>
</g>
<g id="clust6" class="cluster">
<title>cluster_cmod.CnstrMOD</title>
<polygon fill="transparent" stroke="#c08cd8" stroke-width="2" stroke-dasharray="1,5" points="581,-321 581,-391 893.5,-391 893.5,-321 581,-321"/>
<text text-anchor="middle" x="737.25" y="-379.8" font-family="Vera Sans, DejaVu Sans, Liberation Sans, Arial, Helvetica, sans" font-size="9.00" fill="#000000">cmod.CnstrMOD</text>
</g>
<g id="clust7" class="cluster">
<title>cluster_bpdndl.BPDNDictLearn</title>
<polygon fill="transparent" stroke="#9e8cd8" stroke-width="2" stroke-dasharray="1,5" points="198,-243 198,-313 371,-313 371,-243 198,-243"/>
<text text-anchor="middle" x="284.5" y="-301.8" font-family="Vera Sans, DejaVu Sans, Liberation Sans, Arial, Helvetica, sans" font-size="9.00" fill="#000000">bpdndl.BPDNDictLearn</text>
</g>
<g id="clust8" class="cluster">
<title>cluster_dictlrn.DictLearn</title>
<polygon fill="transparent" stroke="#d88c8c" stroke-width="2" stroke-dasharray="1,5" points="404,-165 404,-235 548,-235 548,-165 404,-165"/>
<text text-anchor="middle" x="476" y="-223.8" font-family="Vera Sans, DejaVu Sans, Liberation Sans, Arial, Helvetica, sans" font-size="9.00" fill="#000000">dictlrn.DictLearn</text>
</g>
<g id="clust9" class="cluster">
<title>cluster_bpdn.GenericBPDN</title>
<polygon fill="transparent" stroke="#8c9dd8" stroke-width="2" stroke-dasharray="1,5" points="743,-78 743,-148 1075,-148 1075,-78 743,-78"/>
<text text-anchor="middle" x="909" y="-136.8" font-family="Vera Sans, DejaVu Sans, Liberation Sans, Arial, Helvetica, sans" font-size="9.00" fill="#000000">bpdn.GenericBPDN</text>
</g>
<g id="clust10" class="cluster">
<title>cluster_admm.ADMM</title>
<polygon fill="transparent" stroke="#8ed88c" stroke-width="2" stroke-dasharray="1,5" points="1095,-106 1095,-284 1383,-284 1383,-106 1095,-106"/>
<text text-anchor="middle" x="1239" y="-272.8" font-family="Vera Sans, DejaVu Sans, Liberation Sans, Arial, Helvetica, sans" font-size="9.00" fill="#000000">admm.ADMM</text>
</g>
<g id="clust11" class="cluster">
<title>cluster_admm._ADMM_Meta</title>
<polygon fill="transparent" stroke="#8cd8cf" stroke-width="2" stroke-dasharray="1,5" points="395.5,-321 395.5,-391 556.5,-391 556.5,-321 395.5,-321"/>
<text text-anchor="middle" x="476" y="-379.8" font-family="Vera Sans, DejaVu Sans, Liberation Sans, Arial, Helvetica, sans" font-size="9.00" fill="#000000">admm._ADMM_Meta</text>
</g>
<g id="clust12" class="cluster">
<title>cluster_dictlrn._DictLearn_Meta</title>
<polygon fill="transparent" stroke="#d88c8c" stroke-width="2" stroke-dasharray="1,5" points="0,-243 0,-313 178,-313 178,-243 0,-243"/>
<text text-anchor="middle" x="89" y="-301.8" font-family="Vera Sans, DejaVu Sans, Liberation Sans, Arial, Helvetica, sans" font-size="9.00" fill="#000000">dictlrn._DictLearn_Meta</text>
</g>
<!-- bpdn.BPDN.__init__ -->
<g id="node1" class="node">
<title>bpdn.BPDN.__init__</title>
<g id="a_node1"><a xlink:href="../../sporco.admm.bpdn.html#sporco.admm.bpdn.BPDN.__init__" xlink:title="bpdn.BPDN.__init__" target="_top">
<path fill="#8cbfd8" stroke="#000000" stroke-width=".25" d="M692,-44C692,-44 612,-44 612,-44 606,-44 600,-38 600,-32 600,-32 600,-20 600,-20 600,-14 606,-8 612,-8 612,-8 692,-8 692,-8 698,-8 704,-14 704,-20 704,-20 704,-32 704,-32 704,-38 698,-44 692,-44"/>
<text text-anchor="middle" x="652" y="-23.8" font-family="Vera Sans, DejaVu Sans, Liberation Sans, Arial, Helvetica, sans" font-size="9.00" fill="#000000">bpdn.BPDN.__init__</text>
</a>
</g>
</g>
<!-- bpdn.GenericBPDN.__init__ -->
<g id="node11" class="node">
<title>bpdn.GenericBPDN.__init__</title>
<g id="a_node11"><a xlink:href="../../sporco.admm.bpdn.html#sporco.admm.bpdn.GenericBPDN.__init__" xlink:title="bpdn.GenericBPDN.__init__" target="_top">
<path fill="#8c9dd8" stroke="#000000" stroke-width=".25" d="M879,-122C879,-122 763,-122 763,-122 757,-122 751,-116 751,-110 751,-110 751,-98 751,-98 751,-92 757,-86 763,-86 763,-86 879,-86 879,-86 885,-86 891,-92 891,-98 891,-98 891,-110 891,-110 891,-116 885,-122 879,-122"/>
<text text-anchor="middle" x="821" y="-101.8" font-family="Vera Sans, DejaVu Sans, Liberation Sans, Arial, Helvetica, sans" font-size="9.00" fill="#000000">bpdn.GenericBPDN.__init__</text>
</a>
</g>
</g>
<!-- bpdn.BPDN.__init__&#45;&gt;bpdn.GenericBPDN.__init__ -->
<g id="edge12" class="edge">
<title>bpdn.BPDN.__init__&#45;&gt;bpdn.GenericBPDN.__init__</title>
<path fill="none" stroke="#8cbfd8" stroke-width="2" d="M677.24,-44.172C694.94,-56.249 719.56,-71.719 743,-82 743.1,-82.042 743.19,-82.085 743.29,-82.127"/>
<polygon fill="#8cbfd8" stroke="#8cbfd8" stroke-width="2" points="741.9678,-85.3676 752.55,-85.885 744.6002,-78.8814 741.9678,-85.3676"/>
</g>
<!-- admm.ADMM.set_attr -->
<g id="node15" class="node">
<title>admm.ADMM.set_attr</title>
<g id="a_node15"><a xlink:href="../../sporco.admm.admm.html#sporco.admm.admm.ADMM.set_attr" xlink:title="admm.ADMM.set_attr" target="_top">
<path fill="#8ed88c" stroke="#000000" stroke-width=".25" d="M1358.5,-258C1358.5,-258 1266.5,-258 1266.5,-258 1260.5,-258 1254.5,-252 1254.5,-246 1254.5,-246 1254.5,-234 1254.5,-234 1254.5,-228 1260.5,-222 1266.5,-222 1266.5,-222 1358.5,-222 1358.5,-222 1364.5,-222 1370.5,-228 1370.5,-234 1370.5,-234 1370.5,-246 1370.5,-246 1370.5,-252 1364.5,-258 1358.5,-258"/>
<text text-anchor="middle" x="1312.5" y="-237.8" font-family="Vera Sans, DejaVu Sans, Liberation Sans, Arial, Helvetica, sans" font-size="9.00" fill="#000000">admm.ADMM.set_attr</text>
</a>
</g>
</g>
<!-- bpdn.BPDN.__init__&#45;&gt;admm.ADMM.set_attr -->
<g id="edge10" class="edge">
<title>bpdn.BPDN.__init__&#45;&gt;admm.ADMM.set_attr</title>
<path fill="none" stroke="#8cbfd8" stroke-width="2" d="M655.01,-44.221C662.36,-82.378 685.06,-170.49 743,-211 895.01,-317.27 1129.5,-283.53 1244.4,-257.79"/>
<polygon fill="#8cbfd8" stroke="#8cbfd8" stroke-width="2" points="1245.5268,-261.1231 1254.5,-255.49 1243.9725,-254.2978 1245.5268,-261.1231"/>
</g>
<!-- admm.ADMM.set_dtype -->
<g id="node16" class="node">
<title>admm.ADMM.set_dtype</title>
<g id="a_node16"><a xlink:href="../../sporco.admm.admm.html#sporco.admm.admm.ADMM.set_dtype" xlink:title="admm.ADMM.set_dtype" target="_top">
<path fill="#8ed88c" stroke="#000000" stroke-width=".25" d="M1363,-150C1363,-150 1262,-150 1262,-150 1256,-150 1250,-144 1250,-138 1250,-138 1250,-126 1250,-126 1250,-120 1256,-114 1262,-114 1262,-114 1363,-114 1363,-114 1369,-114 1375,-120 1375,-126 1375,-126 1375,-138 1375,-138 1375,-144 1369,-150 1363,-150"/>
<text text-anchor="middle" x="1312.5" y="-129.8" font-family="Vera Sans, DejaVu Sans, Liberation Sans, Arial, Helvetica, sans" font-size="9.00" fill="#000000">admm.ADMM.set_dtype</text>
</a>
</g>
</g>
<!-- bpdn.BPDN.__init__&#45;&gt;admm.ADMM.set_dtype -->
<g id="edge11" class="edge">
<title>bpdn.BPDN.__init__&#45;&gt;admm.ADMM.set_dtype</title>
<path fill="none" stroke="#8cbfd8" stroke-width="2" d="M704.1,-34.362C821.08,-53.134 1104.8,-98.67 1239.4,-120.26"/>
<polygon fill="#8cbfd8" stroke="#8cbfd8" stroke-width="2" points="1239.1712,-123.7681 1249.6,-121.9 1240.2824,-116.8568 1239.1712,-123.7681"/>
</g>
<!-- bpdn.BPDN.uinit -->
<g id="node2" class="node">
<title>bpdn.BPDN.uinit</title>
<g id="a_node2"><a xlink:href="../../sporco.admm.bpdn.html#sporco.admm.bpdn.BPDN.uinit" xlink:title="bpdn.BPDN.uinit" target="_top">
<path fill="#8cbfd8" stroke="#000000" stroke-width=".25" d="M1346.5,-44C1346.5,-44 1278.5,-44 1278.5,-44 1272.5,-44 1266.5,-38 1266.5,-32 1266.5,-32 1266.5,-20 1266.5,-20 1266.5,-14 1272.5,-8 1278.5,-8 1278.5,-8 1346.5,-8 1346.5,-8 1352.5,-8 1358.5,-14 1358.5,-20 1358.5,-20 1358.5,-32 1358.5,-32 1358.5,-38 1352.5,-44 1346.5,-44"/>
<text text-anchor="middle" x="1312.5" y="-23.8" font-family="Vera Sans, DejaVu Sans, Liberation Sans, Arial, Helvetica, sans" font-size="9.00" fill="#000000">bpdn.BPDN.uinit</text>
</a>
</g>
</g>
<!-- cmod.getPcn -->
<g id="node3" class="node">
<title>cmod.getPcn</title>
<g id="a_node3"><a xlink:href="../../sporco.admm.cmod.html#sporco.admm.cmod.getPcn" xlink:title="cmod.getPcn" target="_top">
<path fill="#d88cce" stroke="#000000" stroke-width=".25" d="M848,-443C848,-443 794,-443 794,-443 788,-443 782,-437 782,-431 782,-431 782,-419 782,-419 782,-413 788,-407 794,-407 794,-407 848,-407 848,-407 854,-407 860,-413 860,-419 860,-419 860,-431 860,-431 860,-437 854,-443 848,-443"/>
<text text-anchor="middle" x="821" y="-422.8" font-family="Vera Sans, DejaVu Sans, Liberation Sans, Arial, Helvetica, sans" font-size="9.00" fill="#000000">cmod.getPcn</text>
</a>
</g>
</g>
<!-- admm.ADMMEqual.__init__ -->
<g id="node4" class="node">
<title>admm.ADMMEqual.__init__</title>
<g id="a_node4"><a xlink:href="../../sporco.admm.admm.html#sporco.admm.admm.ADMMEqual.__init__" xlink:title="admm.ADMMEqual.__init__" target="_top">
<path fill="#8cd8ad" stroke="#000000" stroke-width=".25" d="M1053.5,-200C1053.5,-200 940.5,-200 940.5,-200 934.5,-200 928.5,-194 928.5,-188 928.5,-188 928.5,-176 928.5,-176 928.5,-170 934.5,-164 940.5,-164 940.5,-164 1053.5,-164 1053.5,-164 1059.5,-164 1065.5,-170 1065.5,-176 1065.5,-176 1065.5,-188 1065.5,-188 1065.5,-194 1059.5,-200 1053.5,-200"/>
<text text-anchor="middle" x="997" y="-179.8" font-family="Vera Sans, DejaVu Sans, Liberation Sans, Arial, Helvetica, sans" font-size="9.00" fill="#000000">admm.ADMMEqual.__init__</text>
</a>
</g>
</g>
<!-- admm.ADMM.__init__ -->
<g id="node13" class="node">
<title>admm.ADMM.__init__</title>
<g id="a_node13"><a xlink:href="../../sporco.admm.admm.html#sporco.admm.admm.ADMM.__init__" xlink:title="admm.ADMM.__init__" target="_top">
<path fill="#8ed88c" stroke="#000000" stroke-width=".25" d="M1202,-200C1202,-200 1115,-200 1115,-200 1109,-200 1103,-194 1103,-188 1103,-188 1103,-176 1103,-176 1103,-170 1109,-164 1115,-164 1115,-164 1202,-164 1202,-164 1208,-164 1214,-170 1214,-176 1214,-176 1214,-188 1214,-188 1214,-194 1208,-200 1202,-200"/>
<text text-anchor="middle" x="1158.5" y="-179.8" font-family="Vera Sans, DejaVu Sans, Liberation Sans, Arial, Helvetica, sans" font-size="9.00" fill="#000000">admm.ADMM.__init__</text>
</a>
</g>
</g>
<!-- admm.ADMMEqual.__init__&#45;&gt;admm.ADMM.__init__ -->
<g id="edge7" class="edge">
<title>admm.ADMMEqual.__init__&#45;&gt;admm.ADMM.__init__</title>
<path fill="none" stroke="#8cd8ad" stroke-width="2" d="M1066,-182C1074.8,-182 1083.9,-182 1092.7,-182"/>
<polygon fill="#8cd8ad" stroke="#8cd8ad" stroke-width="2" points="1092.9,-185.5001 1102.9,-182 1092.9,-178.5001 1092.9,-185.5001"/>
</g>
<!-- dictlrn.IterStatsConfig.__init__ -->
<g id="node5" class="node">
<title>dictlrn.IterStatsConfig.__init__</title>
<g id="a_node5"><a xlink:href="../../sporco.admm.dictlrn.html#sporco.admm.dictlrn.IterStatsConfig.__init__" xlink:title="dictlrn.IterStatsConfig.__init__" target="_top">
<path fill="#d88c8c" stroke="#000000" stroke-width=".25" d="M541,-131C541,-131 411,-131 411,-131 405,-131 399,-125 399,-119 399,-119 399,-107 399,-107 399,-101 405,-95 411,-95 411,-95 541,-95 541,-95 547,-95 553,-101 553,-107 553,-107 553,-119 553,-119 553,-125 547,-131 541,-131"/>
<text text-anchor="middle" x="476" y="-110.8" font-family="Vera Sans, DejaVu Sans, Liberation Sans, Arial, Helvetica, sans" font-size="9.00" fill="#000000">dictlrn.IterStatsConfig.__init__</text>
</a>
</g>
</g>
<!-- cmod.normalise -->
<g id="node6" class="node">
<title>cmod.normalise</title>
<g id="a_node6"><a xlink:href="../../sporco.admm.cmod.html#sporco.admm.cmod.normalise" xlink:title="cmod.normalise" target="_top">
<path fill="#d88cac" stroke="#000000" stroke-width=".25" d="M509.5,-287C509.5,-287 442.5,-287 442.5,-287 436.5,-287 430.5,-281 430.5,-275 430.5,-275 430.5,-263 430.5,-263 430.5,-257 436.5,-251 442.5,-251 442.5,-251 509.5,-251 509.5,-251 515.5,-251 521.5,-257 521.5,-263 521.5,-263 521.5,-275 521.5,-275 521.5,-281 515.5,-287 509.5,-287"/>
<text text-anchor="middle" x="476" y="-266.8" font-family="Vera Sans, DejaVu Sans, Liberation Sans, Arial, Helvetica, sans" font-size="9.00" fill="#000000">cmod.normalise</text>
</a>
</g>
</g>
<!-- cmod.CnstrMOD.setcoef -->
<g id="node7" class="node">
<title>cmod.CnstrMOD.setcoef</title>
<g id="a_node7"><a xlink:href="../../sporco.admm.cmod.html#sporco.admm.cmod.CnstrMOD.setcoef" xlink:title="cmod.CnstrMOD.setcoef" target="_top">
<path fill="#c08cd8" stroke="#000000" stroke-width=".25" d="M873.5,-365C873.5,-365 768.5,-365 768.5,-365 762.5,-365 756.5,-359 756.5,-353 756.5,-353 756.5,-341 756.5,-341 756.5,-335 762.5,-329 768.5,-329 768.5,-329 873.5,-329 873.5,-329 879.5,-329 885.5,-335 885.5,-341 885.5,-341 885.5,-353 885.5,-353 885.5,-359 879.5,-365 873.5,-365"/>
<text text-anchor="middle" x="821" y="-344.8" font-family="Vera Sans, DejaVu Sans, Liberation Sans, Arial, Helvetica, sans" font-size="9.00" fill="#000000">cmod.CnstrMOD.setcoef</text>
</a>
</g>
</g>
<!-- cmod.CnstrMOD.__init__ -->
<g id="node8" class="node">
<title>cmod.CnstrMOD.__init__</title>
<g id="a_node8"><a xlink:href="../../sporco.admm.cmod.html#sporco.admm.cmod.CnstrMOD.__init__" xlink:title="cmod.CnstrMOD.__init__" target="_top">
<path fill="#c08cd8" stroke="#000000" stroke-width=".25" d="M703,-365C703,-365 601,-365 601,-365 595,-365 589,-359 589,-353 589,-353 589,-341 589,-341 589,-335 595,-329 601,-329 601,-329 703,-329 703,-329 709,-329 715,-335 715,-341 715,-341 715,-353 715,-353 715,-359 709,-365 703,-365"/>
<text text-anchor="middle" x="652" y="-344.8" font-family="Vera Sans, DejaVu Sans, Liberation Sans, Arial, Helvetica, sans" font-size="9.00" fill="#000000">cmod.CnstrMOD.__init__</text>
</a>
</g>
</g>
<!-- cmod.CnstrMOD.__init__&#45;&gt;cmod.getPcn -->
<g id="edge21" class="edge">
<title>cmod.CnstrMOD.__init__&#45;&gt;cmod.getPcn</title>
<path fill="none" stroke="#c08cd8" stroke-width="2" d="M677.24,-365.17C694.94,-377.25 719.56,-392.72 743,-403 752.18,-407.03 762.29,-410.52 772.11,-413.45"/>
<polygon fill="#c08cd8" stroke="#c08cd8" stroke-width="2" points="771.2034,-416.8309 781.78,-416.21 773.1246,-410.0997 771.2034,-416.8309"/>
</g>
<!-- cmod.CnstrMOD.__init__&#45;&gt;admm.ADMMEqual.__init__ -->
<g id="edge20" class="edge">
<title>cmod.CnstrMOD.__init__&#45;&gt;admm.ADMMEqual.__init__</title>
<path fill="none" stroke="#c08cd8" stroke-width="2" d="M704.62,-328.91C754.42,-311.04 830.69,-281.7 893.5,-249 917.81,-236.34 943.7,-219.58 963.5,-205.99"/>
<polygon fill="#c08cd8" stroke="#c08cd8" stroke-width="2" points="965.644,-208.7625 971.87,-200.19 961.657,-203.0089 965.644,-208.7625"/>
</g>
<!-- cmod.CnstrMOD.__init__&#45;&gt;cmod.CnstrMOD.setcoef -->
<g id="edge1" class="edge">
<title>cmod.CnstrMOD.__init__&#45;&gt;cmod.CnstrMOD.setcoef</title>
<path fill="none" stroke="#c08cd8" stroke-width="2" d="M715.41,-347C725.46,-347 735.93,-347 746.2,-347"/>
<polygon fill="#c08cd8" stroke="#c08cd8" stroke-width="2" points="746.39,-350.5001 756.39,-347 746.39,-343.5001 746.39,-350.5001"/>
</g>
<!-- cmod.CnstrMOD.__init__&#45;&gt;admm.ADMM.set_attr -->
<g id="edge19" class="edge">
<title>cmod.CnstrMOD.__init__&#45;&gt;admm.ADMM.set_attr</title>
<path fill="none" stroke="#c08cd8" stroke-width="2" d="M715.26,-347.15C820.7,-345.88 1038.2,-336.76 1214,-287 1234,-281.34 1254.9,-271.9 1272.4,-262.96"/>
<polygon fill="#c08cd8" stroke="#c08cd8" stroke-width="2" points="1274.4125,-265.854 1281.6,-258.07 1271.1271,-259.6729 1274.4125,-265.854"/>
</g>
<!-- bpdndl.BPDNDictLearn.__init__ -->
<g id="node9" class="node">
<title>bpdndl.BPDNDictLearn.__init__</title>
<g id="a_node9"><a xlink:href="../../sporco.admm.bpdndl.html#sporco.admm.bpdndl.BPDNDictLearn.__init__" xlink:title="bpdndl.BPDNDictLearn.__init__" target="_top">
<path fill="#9e8cd8" stroke="#000000" stroke-width=".25" d="M351,-287C351,-287 218,-287 218,-287 212,-287 206,-281 206,-275 206,-275 206,-263 206,-263 206,-257 212,-251 218,-251 218,-251 351,-251 351,-251 357,-251 363,-257 363,-263 363,-263 363,-275 363,-275 363,-281 357,-287 351,-287"/>
<text text-anchor="middle" x="284.5" y="-266.8" font-family="Vera Sans, DejaVu Sans, Liberation Sans, Arial, Helvetica, sans" font-size="9.00" fill="#000000">bpdndl.BPDNDictLearn.__init__</text>
</a>
</g>
</g>
<!-- bpdndl.BPDNDictLearn.__init__&#45;&gt;cmod.getPcn -->
<g id="edge15" class="edge">
<title>bpdndl.BPDNDictLearn.__init__&#45;&gt;cmod.getPcn</title>
<path fill="none" stroke="#9e8cd8" stroke-width="2" d="M293.63,-287.17C309.17,-315.9 343.74,-371.03 391,-395 516.09,-458.44 688.52,-445.07 771.9,-433.35"/>
<polygon fill="#9e8cd8" stroke="#9e8cd8" stroke-width="2" points="772.4686,-436.8042 781.86,-431.9 771.4601,-429.8772 772.4686,-436.8042"/>
</g>
<!-- bpdndl.BPDNDictLearn.__init__&#45;&gt;dictlrn.IterStatsConfig.__init__ -->
<g id="edge18" class="edge">
<title>bpdndl.BPDNDictLearn.__init__&#45;&gt;dictlrn.IterStatsConfig.__init__</title>
<path fill="none" stroke="#9e8cd8" stroke-width="2" d="M299.76,-250.64C319.32,-227.82 355.03,-188.53 391,-161 402.92,-151.88 416.76,-143.32 429.78,-136.03"/>
<polygon fill="#9e8cd8" stroke="#9e8cd8" stroke-width="2" points="431.5226,-139.0663 438.62,-131.2 428.1663,-132.9234 431.5226,-139.0663"/>
</g>
<!-- bpdndl.BPDNDictLearn.__init__&#45;&gt;cmod.normalise -->
<g id="edge16" class="edge">
<title>bpdndl.BPDNDictLearn.__init__&#45;&gt;cmod.normalise</title>
<path fill="none" stroke="#9e8cd8" stroke-width="2" d="M363.22,-269C382.36,-269 402.45,-269 420.27,-269"/>
<polygon fill="#9e8cd8" stroke="#9e8cd8" stroke-width="2" points="420.48,-272.5001 430.48,-269 420.48,-265.5001 420.48,-272.5001"/>
</g>
<!-- dictlrn.DictLearn.__init__ -->
<g id="node10" class="node">
<title>dictlrn.DictLearn.__init__</title>
<g id="a_node10"><a xlink:href="../../sporco.admm.dictlrn.html#sporco.admm.dictlrn.DictLearn.__init__" xlink:title="dictlrn.DictLearn.__init__" target="_top">
<path fill="#d88c8c" stroke="#000000" stroke-width=".25" d="M528,-209C528,-209 424,-209 424,-209 418,-209 412,-203 412,-197 412,-197 412,-185 412,-185 412,-179 418,-173 424,-173 424,-173 528,-173 528,-173 534,-173 540,-179 540,-185 540,-185 540,-197 540,-197 540,-203 534,-209 528,-209"/>
<text text-anchor="middle" x="476" y="-188.8" font-family="Vera Sans, DejaVu Sans, Liberation Sans, Arial, Helvetica, sans" font-size="9.00" fill="#000000">dictlrn.DictLearn.__init__</text>
</a>
</g>
</g>
<!-- bpdndl.BPDNDictLearn.__init__&#45;&gt;dictlrn.DictLearn.__init__ -->
<g id="edge17" class="edge">
<title>bpdndl.BPDNDictLearn.__init__&#45;&gt;dictlrn.DictLearn.__init__</title>
<path fill="none" stroke="#9e8cd8" stroke-width="2" d="M328.92,-250.91C356.73,-239.58 392.75,-224.91 422.19,-212.92"/>
<polygon fill="#9e8cd8" stroke="#9e8cd8" stroke-width="2" points="423.5503,-216.1452 431.49,-209.13 420.9086,-209.6628 423.5503,-216.1452"/>
</g>
<!-- admm._ADMM_Meta.__call__ -->
<g id="node17" class="node">
<title>admm._ADMM_Meta.__call__</title>
<g id="a_node17"><a xlink:href="../../sporco.admm.admm.html#sporco.admm.admm._ADMM_Meta.__call__" xlink:title="admm._ADMM_Meta.__call__" target="_top">
<path fill="#8cd8cf" stroke="#000000" stroke-width=".25" d="M536.5,-365C536.5,-365 415.5,-365 415.5,-365 409.5,-365 403.5,-359 403.5,-353 403.5,-353 403.5,-341 403.5,-341 403.5,-335 409.5,-329 415.5,-329 415.5,-329 536.5,-329 536.5,-329 542.5,-329 548.5,-335 548.5,-341 548.5,-341 548.5,-353 548.5,-353 548.5,-359 542.5,-365 536.5,-365"/>
<text text-anchor="middle" x="476" y="-344.8" font-family="Vera Sans, DejaVu Sans, Liberation Sans, Arial, Helvetica, sans" font-size="9.00" fill="#000000">admm._ADMM_Meta.__call__</text>
</a>
</g>
</g>
<!-- bpdndl.BPDNDictLearn.__init__&#45;&gt;admm._ADMM_Meta.__call__ -->
<g id="edge14" class="edge">
<title>bpdndl.BPDNDictLearn.__init__&#45;&gt;admm._ADMM_Meta.__call__</title>
<path fill="none" stroke="#9e8cd8" stroke-width="2" d="M322.62,-287.12C342.77,-296.46 368.04,-307.79 391,-317 398.15,-319.87 405.69,-322.74 413.21,-325.51"/>
<polygon fill="#9e8cd8" stroke="#9e8cd8" stroke-width="2" points="412.096,-328.8291 422.69,-328.96 414.4899,-322.2511 412.096,-328.8291"/>
</g>
<!-- bpdn.GenericBPDN.__init__&#45;&gt;admm.ADMMEqual.__init__ -->
<g id="edge13" class="edge">
<title>bpdn.GenericBPDN.__init__&#45;&gt;admm.ADMMEqual.__init__</title>
<path fill="none" stroke="#8c9dd8" stroke-width="2" d="M849.27,-122.26C868.71,-134.22 895.45,-149.52 920.5,-160 920.71,-160.09 920.91,-160.17 921.12,-160.26"/>
<polygon fill="#8c9dd8" stroke="#8c9dd8" stroke-width="2" points="920.1411,-163.6344 930.73,-163.99 922.674,-157.1087 920.1411,-163.6344"/>
</g>
<!-- bpdn.GenericBPDN.setdict -->
<g id="node12" class="node">
<title>bpdn.GenericBPDN.setdict</title>
<g id="a_node12"><a xlink:href="../../sporco.admm.bpdn.html#sporco.admm.bpdn.GenericBPDN.setdict" xlink:title="bpdn.GenericBPDN.setdict" target="_top">
<path fill="#8c9dd8" stroke="#000000" stroke-width=".25" d="M1055,-122C1055,-122 939,-122 939,-122 933,-122 927,-116 927,-110 927,-110 927,-98 927,-98 927,-92 933,-86 939,-86 939,-86 1055,-86 1055,-86 1061,-86 1067,-92 1067,-98 1067,-98 1067,-110 1067,-110 1067,-116 1061,-122 1055,-122"/>
<text text-anchor="middle" x="997" y="-101.8" font-family="Vera Sans, DejaVu Sans, Liberation Sans, Arial, Helvetica, sans" font-size="9.00" fill="#000000">bpdn.GenericBPDN.setdict</text>
</a>
</g>
</g>
<!-- bpdn.GenericBPDN.__init__&#45;&gt;bpdn.GenericBPDN.setdict -->
<g id="edge2" class="edge">
<title>bpdn.GenericBPDN.__init__&#45;&gt;bpdn.GenericBPDN.setdict</title>
<path fill="none" stroke="#8c9dd8" stroke-width="2" d="M891.07,-104C899.54,-104 908.25,-104 916.85,-104"/>
<polygon fill="#8c9dd8" stroke="#8c9dd8" stroke-width="2" points="916.89,-107.5001 926.89,-104 916.89,-100.5001 916.89,-107.5001"/>
</g>
<!-- admm.ADMM.__init__&#45;&gt;bpdn.BPDN.uinit -->
<g id="edge6" class="edge">
<title>admm.ADMM.__init__&#45;&gt;bpdn.BPDN.uinit</title>
<path fill="none" stroke="#8ed88c" stroke-width="2" d="M1208.7,-163.95C1210.6,-162.71 1212.3,-161.4 1214,-160 1237.3,-140.54 1232.3,-126.66 1250,-102 1262.3,-84.822 1277.3,-66.497 1289.5,-52.146"/>
<polygon fill="#8ed88c" stroke="#8ed88c" stroke-width="2" points="1292.4897,-54.0409 1296.4,-44.194 1287.2026,-49.4532 1292.4897,-54.0409"/>
</g>
<!-- admm.ADMM.yinit -->
<g id="node14" class="node">
<title>admm.ADMM.yinit</title>
<g id="a_node14"><a xlink:href="../../sporco.admm.admm.html#sporco.admm.admm.ADMM.yinit" xlink:title="admm.ADMM.yinit" target="_top">
<path fill="#8ed88c" stroke="#000000" stroke-width=".25" d="M1349.5,-204C1349.5,-204 1275.5,-204 1275.5,-204 1269.5,-204 1263.5,-198 1263.5,-192 1263.5,-192 1263.5,-180 1263.5,-180 1263.5,-174 1269.5,-168 1275.5,-168 1275.5,-168 1349.5,-168 1349.5,-168 1355.5,-168 1361.5,-174 1361.5,-180 1361.5,-180 1361.5,-192 1361.5,-192 1361.5,-198 1355.5,-204 1349.5,-204"/>
<text text-anchor="middle" x="1312.5" y="-183.8" font-family="Vera Sans, DejaVu Sans, Liberation Sans, Arial, Helvetica, sans" font-size="9.00" fill="#000000">admm.ADMM.yinit</text>
</a>
</g>
</g>
<!-- admm.ADMM.__init__&#45;&gt;admm.ADMM.yinit -->
<g id="edge3" class="edge">
<title>admm.ADMM.__init__&#45;&gt;admm.ADMM.yinit</title>
<path fill="none" stroke="#8ed88c" stroke-width="2" d="M1214.1,-183.44C1226.8,-183.77 1240.4,-184.13 1253.2,-184.46"/>
<polygon fill="#8ed88c" stroke="#8ed88c" stroke-width="2" points="1253.314,-187.9639 1263.4,-184.72 1253.4925,-180.9662 1253.314,-187.9639"/>
</g>
<!-- admm.ADMM.__init__&#45;&gt;admm.ADMM.set_attr -->
<g id="edge4" class="edge">
<title>admm.ADMM.__init__&#45;&gt;admm.ADMM.set_attr</title>
<path fill="none" stroke="#8ed88c" stroke-width="2" d="M1206.4,-200.03C1221.7,-205.82 1238.9,-212.28 1254.9,-218.3"/>
<polygon fill="#8ed88c" stroke="#8ed88c" stroke-width="2" points="1254.0087,-221.7052 1264.6,-221.98 1256.4918,-215.1604 1254.0087,-221.7052"/>
</g>
<!-- admm.ADMM.__init__&#45;&gt;admm.ADMM.set_dtype -->
<g id="edge5" class="edge">
<title>admm.ADMM.__init__&#45;&gt;admm.ADMM.set_dtype</title>
<path fill="none" stroke="#8ed88c" stroke-width="2" d="M1214.1,-163.95C1224.9,-160.44 1236.3,-156.74 1247.4,-153.15"/>
<polygon fill="#8ed88c" stroke="#8ed88c" stroke-width="2" points="1248.5775,-156.4475 1257,-150.02 1246.4076,-149.7923 1248.5775,-156.4475"/>
</g>
<!-- admm._ADMM_Meta.__call__&#45;&gt;bpdn.BPDN.__init__ -->
<g id="edge8" class="edge">
<title>admm._ADMM_Meta.__call__&#45;&gt;bpdn.BPDN.__init__</title>
<path fill="none" stroke="#8cd8cf" stroke-width="2" d="M545.73,-328.83C551.34,-325.53 556.55,-321.62 561,-317 598.16,-278.47 633.4,-119.2 646.56,-54.011"/>
<polygon fill="#8cd8cf" stroke="#8cd8cf" stroke-width="2" points="650.0261,-54.5265 648.55,-44.035 643.1613,-53.1571 650.0261,-54.5265"/>
</g>
<!-- admm._ADMM_Meta.__call__&#45;&gt;cmod.CnstrMOD.__init__ -->
<g id="edge9" class="edge">
<title>admm._ADMM_Meta.__call__&#45;&gt;cmod.CnstrMOD.__init__</title>
<path fill="none" stroke="#8cd8cf" stroke-width="2" d="M548.6,-347C558.51,-347 568.69,-347 578.61,-347"/>
<polygon fill="#8cd8cf" stroke="#8cd8cf" stroke-width="2" points="578.84,-350.5001 588.84,-347 578.84,-343.5001 578.84,-350.5001"/>
</g>
<!-- dictlrn._DictLearn_Meta.__call__ -->
<g id="node18" class="node">
<title>dictlrn._DictLearn_Meta.__call__</title>
<g id="a_node18"><a xlink:href="../../sporco.admm.dictlrn.html#sporco.admm.dictlrn._DictLearn_Meta.__call__" xlink:title="dictlrn._DictLearn_Meta.__call__" target="_top">
<path fill="#d88c8c" stroke="#000000" stroke-width=".25" d="M158,-287C158,-287 20,-287 20,-287 14,-287 8,-281 8,-275 8,-275 8,-263 8,-263 8,-257 14,-251 20,-251 20,-251 158,-251 158,-251 164,-251 170,-257 170,-263 170,-263 170,-275 170,-275 170,-281 164,-287 158,-287"/>
<text text-anchor="middle" x="89" y="-266.8" font-family="Vera Sans, DejaVu Sans, Liberation Sans, Arial, Helvetica, sans" font-size="9.00" fill="#000000">dictlrn._DictLearn_Meta.__call__</text>
</a>
</g>
</g>
<!-- dictlrn._DictLearn_Meta.__call__&#45;&gt;bpdndl.BPDNDictLearn.__init__ -->
<g id="edge22" class="edge">
<title>dictlrn._DictLearn_Meta.__call__&#45;&gt;bpdndl.BPDNDictLearn.__init__</title>
<path fill="none" stroke="#d88c8c" stroke-width="2" d="M170.21,-269C178.56,-269 187.08,-269 195.52,-269"/>
<polygon fill="#d88c8c" stroke="#d88c8c" stroke-width="2" points="195.74,-272.5001 205.74,-269 195.74,-265.5001 195.74,-272.5001"/>
</g>
</g>
</svg>
