<?xml version="1.0" encoding="UTF-8" standalone="no"?>
<!DOCTYPE svg PUBLIC "-//W3C//DTD SVG 1.1//EN"
 "http://www.w3.org/Graphics/SVG/1.1/DTD/svg11.dtd">
<!-- Generated by graphviz version 2.40.1 (20161225.0304)
 -->
<!-- Pages: 1 -->
<svg width="884pt" height="798pt"
 viewBox="0.00 0.00 884.00 798.00" xmlns="http://www.w3.org/2000/svg" xmlns:xlink="http://www.w3.org/1999/xlink">
<g id="graph0" class="graph" transform="scale(1 1) rotate(0) translate(4 794)">
<polygon fill="transparent" stroke="transparent" points="-4,4 -4,-794 880,-794 880,4 -4,4"/>
<g id="clust1" class="cluster">
<title>cluster_admm.ADMM</title>
<polygon fill="transparent" stroke="#8ed88c" stroke-width="2" stroke-dasharray="1,5" points="0,-156 0,-550 497.5,-550 497.5,-156 0,-156"/>
<text text-anchor="middle" x="248.75" y="-538.8" font-family="Vera Sans, DejaVu Sans, Liberation Sans, Arial, Helvetica, sans" font-size="9.00" fill="#000000">admm.ADMM</text>
</g>
<g id="clust2" class="cluster">
<title>cluster_admm.ADMMEqual</title>
<polygon fill="transparent" stroke="#8ca8d8" stroke-width="2" stroke-dasharray="1,5" points="151,-558 151,-790 876,-790 876,-558 151,-558"/>
<text text-anchor="middle" x="513.5" y="-778.8" font-family="Vera Sans, DejaVu Sans, Liberation Sans, Arial, Helvetica, sans" font-size="9.00" fill="#000000">admm.ADMMEqual</text>
</g>
<g id="clust3" class="cluster">
<title>cluster_bpdn.GenericBPDN</title>
<polygon fill="transparent" stroke="#d88c8c" stroke-width="2" stroke-dasharray="1,5" points="155.5,0 155.5,-70 691,-70 691,0 155.5,0"/>
<text text-anchor="middle" x="423.25" y="-58.8" font-family="Vera Sans, DejaVu Sans, Liberation Sans, Arial, Helvetica, sans" font-size="9.00" fill="#000000">bpdn.GenericBPDN</text>
</g>
<g id="clust4" class="cluster">
<title>cluster_bpdn.BPDNProjL1</title>
<polygon fill="transparent" stroke="#d88cc3" stroke-width="2" stroke-dasharray="1,5" points="159.5,-78 159.5,-148 505,-148 505,-78 159.5,-78"/>
<text text-anchor="middle" x="332.25" y="-136.8" font-family="Vera Sans, DejaVu Sans, Liberation Sans, Arial, Helvetica, sans" font-size="9.00" fill="#000000">bpdn.BPDNProjL1</text>
</g>
<!-- admm.ADMM.display_start -->
<g id="node1" class="node">
<title>admm.ADMM.display_start</title>
<g id="a_node1"><a xlink:href="../../sporco.admm.admm.html#sporco.admm.admm.ADMM.display_start" xlink:title="admm.ADMM.display_start" target="_top">
<path fill="#8ed88c" stroke="#000000" stroke-width=".25" d="M287.5,-200C287.5,-200 173.5,-200 173.5,-200 167.5,-200 161.5,-194 161.5,-188 161.5,-188 161.5,-176 161.5,-176 161.5,-170 167.5,-164 173.5,-164 173.5,-164 287.5,-164 287.5,-164 293.5,-164 299.5,-170 299.5,-176 299.5,-176 299.5,-188 299.5,-188 299.5,-194 293.5,-200 287.5,-200"/>
<text text-anchor="middle" x="230.5" y="-179.8" font-family="Vera Sans, DejaVu Sans, Liberation Sans, Arial, Helvetica, sans" font-size="9.00" fill="#000000">admm.ADMM.display_start</text>
</a>
</g>
</g>
<!-- admm.ADMM.update_rho -->
<g id="node2" class="node">
<title>admm.ADMM.update_rho</title>
<g id="a_node2"><a xlink:href="../../sporco.admm.admm.html#sporco.admm.admm.ADMM.update_rho" xlink:title="admm.ADMM.update_rho" target="_top">
<path fill="#8ed88c" stroke="#000000" stroke-width=".25" d="M285,-254C285,-254 176,-254 176,-254 170,-254 164,-248 164,-242 164,-242 164,-230 164,-230 164,-224 170,-218 176,-218 176,-218 285,-218 285,-218 291,-218 297,-224 297,-230 297,-230 297,-242 297,-242 297,-248 291,-254 285,-254"/>
<text text-anchor="middle" x="230.5" y="-233.8" font-family="Vera Sans, DejaVu Sans, Liberation Sans, Arial, Helvetica, sans" font-size="9.00" fill="#000000">admm.ADMM.update_rho</text>
</a>
</g>
</g>
<!-- admm.ADMM.compute_residuals -->
<g id="node3" class="node">
<title>admm.ADMM.compute_residuals</title>
<g id="a_node3"><a xlink:href="../../sporco.admm.admm.html#sporco.admm.admm.ADMM.compute_residuals" xlink:title="admm.ADMM.compute_residuals" target="_top">
<path fill="#8ed88c" stroke="#000000" stroke-width=".25" d="M302,-470C302,-470 159,-470 159,-470 153,-470 147,-464 147,-458 147,-458 147,-446 147,-446 147,-440 153,-434 159,-434 159,-434 302,-434 302,-434 308,-434 314,-440 314,-446 314,-446 314,-458 314,-458 314,-464 308,-470 302,-470"/>
<text text-anchor="middle" x="230.5" y="-449.8" font-family="Vera Sans, DejaVu Sans, Liberation Sans, Arial, Helvetica, sans" font-size="9.00" fill="#000000">admm.ADMM.compute_residuals</text>
</a>
</g>
</g>
<!-- admm.ADMMEqual.rsdl_s -->
<g id="node12" class="node">
<title>admm.ADMMEqual.rsdl_s</title>
<g id="a_node12"><a xlink:href="../../sporco.admm.admm.html#sporco.admm.admm.ADMMEqual.rsdl_s" xlink:title="admm.ADMMEqual.rsdl_s" target="_top">
<path fill="#8ca8d8" stroke="#000000" stroke-width=".25" d="M477.5,-764C477.5,-764 369.5,-764 369.5,-764 363.5,-764 357.5,-758 357.5,-752 357.5,-752 357.5,-740 357.5,-740 357.5,-734 363.5,-728 369.5,-728 369.5,-728 477.5,-728 477.5,-728 483.5,-728 489.5,-734 489.5,-740 489.5,-740 489.5,-752 489.5,-752 489.5,-758 483.5,-764 477.5,-764"/>
<text text-anchor="middle" x="423.5" y="-743.8" font-family="Vera Sans, DejaVu Sans, Liberation Sans, Arial, Helvetica, sans" font-size="9.00" fill="#000000">admm.ADMMEqual.rsdl_s</text>
</a>
</g>
</g>
<!-- admm.ADMM.compute_residuals&#45;&gt;admm.ADMMEqual.rsdl_s -->
<g id="edge12" class="edge">
<title>admm.ADMM.compute_residuals&#45;&gt;admm.ADMMEqual.rsdl_s</title>
<path fill="none" stroke="#8ed88c" stroke-width="2" d="M304.29,-470.09C307.86,-472.68 311.14,-475.63 314,-479 383.77,-561.25 281.86,-635.39 350,-719 350.6,-719.74 351.22,-720.46 351.87,-721.15"/>
<polygon fill="#8ed88c" stroke="#8ed88c" stroke-width="2" points="349.6719,-723.8791 359.47,-727.91 354.3242,-718.6487 349.6719,-723.8791"/>
</g>
<!-- admm.ADMMEqual.rsdl_sn -->
<g id="node14" class="node">
<title>admm.ADMMEqual.rsdl_sn</title>
<g id="a_node14"><a xlink:href="../../sporco.admm.admm.html#sporco.admm.admm.ADMMEqual.rsdl_sn" xlink:title="admm.ADMMEqual.rsdl_sn" target="_top">
<path fill="#8ca8d8" stroke="#000000" stroke-width=".25" d="M480.5,-710C480.5,-710 366.5,-710 366.5,-710 360.5,-710 354.5,-704 354.5,-698 354.5,-698 354.5,-686 354.5,-686 354.5,-680 360.5,-674 366.5,-674 366.5,-674 480.5,-674 480.5,-674 486.5,-674 492.5,-680 492.5,-686 492.5,-686 492.5,-698 492.5,-698 492.5,-704 486.5,-710 480.5,-710"/>
<text text-anchor="middle" x="423.5" y="-689.8" font-family="Vera Sans, DejaVu Sans, Liberation Sans, Arial, Helvetica, sans" font-size="9.00" fill="#000000">admm.ADMMEqual.rsdl_sn</text>
</a>
</g>
</g>
<!-- admm.ADMM.compute_residuals&#45;&gt;admm.ADMMEqual.rsdl_sn -->
<g id="edge13" class="edge">
<title>admm.ADMM.compute_residuals&#45;&gt;admm.ADMMEqual.rsdl_sn</title>
<path fill="none" stroke="#8ed88c" stroke-width="2" d="M304.12,-470.24C307.73,-472.79 311.07,-475.69 314,-479 369.81,-542.05 295.44,-600.87 350,-665 350.62,-665.72 351.25,-666.43 351.91,-667.12"/>
<polygon fill="#8ed88c" stroke="#8ed88c" stroke-width="2" points="349.7691,-669.8953 359.63,-673.77 354.3376,-664.5917 349.7691,-669.8953"/>
</g>
<!-- admm.ADMMEqual.rsdl_rn -->
<g id="node15" class="node">
<title>admm.ADMMEqual.rsdl_rn</title>
<g id="a_node15"><a xlink:href="../../sporco.admm.admm.html#sporco.admm.admm.ADMMEqual.rsdl_rn" xlink:title="admm.ADMMEqual.rsdl_rn" target="_top">
<path fill="#8ca8d8" stroke="#000000" stroke-width=".25" d="M480,-656C480,-656 367,-656 367,-656 361,-656 355,-650 355,-644 355,-644 355,-632 355,-632 355,-626 361,-620 367,-620 367,-620 480,-620 480,-620 486,-620 492,-626 492,-632 492,-632 492,-644 492,-644 492,-650 486,-656 480,-656"/>
<text text-anchor="middle" x="423.5" y="-635.8" font-family="Vera Sans, DejaVu Sans, Liberation Sans, Arial, Helvetica, sans" font-size="9.00" fill="#000000">admm.ADMMEqual.rsdl_rn</text>
</a>
</g>
</g>
<!-- admm.ADMM.compute_residuals&#45;&gt;admm.ADMMEqual.rsdl_rn -->
<g id="edge14" class="edge">
<title>admm.ADMM.compute_residuals&#45;&gt;admm.ADMMEqual.rsdl_rn</title>
<path fill="none" stroke="#8ed88c" stroke-width="2" d="M303.45,-470.24C307.28,-472.79 310.84,-475.69 314,-479 355.99,-522.99 308.88,-566.2 350,-611 350.88,-611.96 351.79,-612.88 352.74,-613.77"/>
<polygon fill="#8ed88c" stroke="#8ed88c" stroke-width="2" points="350.5837,-616.5269 360.6,-619.98 354.9232,-611.0343 350.5837,-616.5269"/>
</g>
<!-- admm.ADMMEqual.rsdl_r -->
<g id="node17" class="node">
<title>admm.ADMMEqual.rsdl_r</title>
<g id="a_node17"><a xlink:href="../../sporco.admm.admm.html#sporco.admm.admm.ADMMEqual.rsdl_r" xlink:title="admm.ADMMEqual.rsdl_r" target="_top">
<path fill="#8ca8d8" stroke="#000000" stroke-width=".25" d="M477,-602C477,-602 370,-602 370,-602 364,-602 358,-596 358,-590 358,-590 358,-578 358,-578 358,-572 364,-566 370,-566 370,-566 477,-566 477,-566 483,-566 489,-572 489,-578 489,-578 489,-590 489,-590 489,-596 483,-602 477,-602"/>
<text text-anchor="middle" x="423.5" y="-581.8" font-family="Vera Sans, DejaVu Sans, Liberation Sans, Arial, Helvetica, sans" font-size="9.00" fill="#000000">admm.ADMMEqual.rsdl_r</text>
</a>
</g>
</g>
<!-- admm.ADMM.compute_residuals&#45;&gt;admm.ADMMEqual.rsdl_r -->
<g id="edge15" class="edge">
<title>admm.ADMM.compute_residuals&#45;&gt;admm.ADMMEqual.rsdl_r</title>
<path fill="none" stroke="#8ed88c" stroke-width="2" d="M301.17,-470.01C305.76,-472.61 310.1,-475.59 314,-479 341.85,-503.33 323.08,-528.65 350,-554 352.54,-556.39 355.29,-558.6 358.18,-560.64"/>
<polygon fill="#8ed88c" stroke="#8ed88c" stroke-width="2" points="356.3552,-563.6269 366.69,-565.96 360.0659,-557.6913 356.3552,-563.6269"/>
</g>
<!-- admm.ADMM.display_status -->
<g id="node4" class="node">
<title>admm.ADMM.display_status</title>
<g id="a_node4"><a xlink:href="../../sporco.admm.admm.html#sporco.admm.admm.ADMM.display_status" xlink:title="admm.ADMM.display_status" target="_top">
<path fill="#8ed88c" stroke="#000000" stroke-width=".25" d="M291.5,-362C291.5,-362 169.5,-362 169.5,-362 163.5,-362 157.5,-356 157.5,-350 157.5,-350 157.5,-338 157.5,-338 157.5,-332 163.5,-326 169.5,-326 169.5,-326 291.5,-326 291.5,-326 297.5,-326 303.5,-332 303.5,-338 303.5,-338 303.5,-350 303.5,-350 303.5,-356 297.5,-362 291.5,-362"/>
<text text-anchor="middle" x="230.5" y="-341.8" font-family="Vera Sans, DejaVu Sans, Liberation Sans, Arial, Helvetica, sans" font-size="9.00" fill="#000000">admm.ADMM.display_status</text>
</a>
</g>
</g>
<!-- admm.ADMM.itstat_extra -->
<g id="node5" class="node">
<title>admm.ADMM.itstat_extra</title>
<g id="a_node5"><a xlink:href="../../sporco.admm.admm.html#sporco.admm.admm.ADMM.itstat_extra" xlink:title="admm.ADMM.itstat_extra" target="_top">
<path fill="#8ed88c" stroke="#000000" stroke-width=".25" d="M477.5,-308C477.5,-308 369.5,-308 369.5,-308 363.5,-308 357.5,-302 357.5,-296 357.5,-296 357.5,-284 357.5,-284 357.5,-278 363.5,-272 369.5,-272 369.5,-272 477.5,-272 477.5,-272 483.5,-272 489.5,-278 489.5,-284 489.5,-284 489.5,-296 489.5,-296 489.5,-302 483.5,-308 477.5,-308"/>
<text text-anchor="middle" x="423.5" y="-287.8" font-family="Vera Sans, DejaVu Sans, Liberation Sans, Arial, Helvetica, sans" font-size="9.00" fill="#000000">admm.ADMM.itstat_extra</text>
</a>
</g>
</g>
<!-- admm.ADMM.ustep -->
<g id="node6" class="node">
<title>admm.ADMM.ustep</title>
<g id="a_node6"><a xlink:href="../../sporco.admm.admm.html#sporco.admm.admm.ADMM.ustep" xlink:title="admm.ADMM.ustep" target="_top">
<path fill="#8ed88c" stroke="#000000" stroke-width=".25" d="M271.5,-416C271.5,-416 189.5,-416 189.5,-416 183.5,-416 177.5,-410 177.5,-404 177.5,-404 177.5,-392 177.5,-392 177.5,-386 183.5,-380 189.5,-380 189.5,-380 271.5,-380 271.5,-380 277.5,-380 283.5,-386 283.5,-392 283.5,-392 283.5,-404 283.5,-404 283.5,-410 277.5,-416 271.5,-416"/>
<text text-anchor="middle" x="230.5" y="-395.8" font-family="Vera Sans, DejaVu Sans, Liberation Sans, Arial, Helvetica, sans" font-size="9.00" fill="#000000">admm.ADMM.ustep</text>
</a>
</g>
</g>
<!-- admm.ADMM.ustep&#45;&gt;admm.ADMMEqual.rsdl_r -->
<g id="edge16" class="edge">
<title>admm.ADMM.ustep&#45;&gt;admm.ADMMEqual.rsdl_r</title>
<path fill="none" stroke="#8ed88c" stroke-width="2" d="M283.53,-406.58C294.8,-410.57 305.77,-416.43 314,-425 355.23,-467.94 310.41,-509.55 350,-554 351.8,-556.03 353.77,-557.92 355.85,-559.68"/>
<polygon fill="#8ed88c" stroke="#8ed88c" stroke-width="2" points="354.2687,-562.8565 364.42,-565.89 358.3761,-557.1881 354.2687,-562.8565"/>
</g>
<!-- admm.ADMM.solve -->
<g id="node7" class="node">
<title>admm.ADMM.solve</title>
<g id="a_node7"><a xlink:href="../../sporco.admm.admm.html#sporco.admm.admm.ADMM.solve" xlink:title="admm.ADMM.solve" target="_top">
<path fill="#8ed88c" stroke="#000000" stroke-width=".25" d="M99,-362C99,-362 20,-362 20,-362 14,-362 8,-356 8,-350 8,-350 8,-338 8,-338 8,-332 14,-326 20,-326 20,-326 99,-326 99,-326 105,-326 111,-332 111,-338 111,-338 111,-350 111,-350 111,-356 105,-362 99,-362"/>
<text text-anchor="middle" x="59.5" y="-341.8" font-family="Vera Sans, DejaVu Sans, Liberation Sans, Arial, Helvetica, sans" font-size="9.00" fill="#000000">admm.ADMM.solve</text>
</a>
</g>
</g>
<!-- admm.ADMM.solve&#45;&gt;admm.ADMM.display_start -->
<g id="edge1" class="edge">
<title>admm.ADMM.solve&#45;&gt;admm.ADMM.display_start</title>
<path fill="none" stroke="#8ed88c" stroke-width="2" d="M66.497,-325.86C78.562,-296.94 106,-240.44 147,-209 148.63,-207.75 150.32,-206.55 152.07,-205.41"/>
<polygon fill="#8ed88c" stroke="#8ed88c" stroke-width="2" points="154.2392,-208.1978 161.13,-200.15 150.7245,-202.1441 154.2392,-208.1978"/>
</g>
<!-- admm.ADMM.solve&#45;&gt;admm.ADMM.update_rho -->
<g id="edge2" class="edge">
<title>admm.ADMM.solve&#45;&gt;admm.ADMM.update_rho</title>
<path fill="none" stroke="#8ed88c" stroke-width="2" d="M74.825,-325.77C91.047,-307.54 118.24,-279.84 147,-263 149.83,-261.34 152.77,-259.78 155.78,-258.29"/>
<polygon fill="#8ed88c" stroke="#8ed88c" stroke-width="2" points="157.3647,-261.4144 165.02,-254.09 154.468,-255.0418 157.3647,-261.4144"/>
</g>
<!-- admm.ADMM.solve&#45;&gt;admm.ADMM.compute_residuals -->
<g id="edge3" class="edge">
<title>admm.ADMM.solve&#45;&gt;admm.ADMM.compute_residuals</title>
<path fill="none" stroke="#8ed88c" stroke-width="2" d="M74.825,-362.23C91.047,-380.46 118.24,-408.16 147,-425 149.83,-426.66 152.77,-428.22 155.78,-429.71"/>
<polygon fill="#8ed88c" stroke="#8ed88c" stroke-width="2" points="154.468,-432.9582 165.02,-433.91 157.3647,-426.5856 154.468,-432.9582"/>
</g>
<!-- admm.ADMM.solve&#45;&gt;admm.ADMM.display_status -->
<g id="edge4" class="edge">
<title>admm.ADMM.solve&#45;&gt;admm.ADMM.display_status</title>
<path fill="none" stroke="#8ed88c" stroke-width="2" d="M111.27,-344C122.64,-344 134.95,-344 147.2,-344"/>
<polygon fill="#8ed88c" stroke="#8ed88c" stroke-width="2" points="147.46,-347.5001 157.46,-344 147.46,-340.5001 147.46,-347.5001"/>
</g>
<!-- admm.ADMM.solve&#45;&gt;admm.ADMM.ustep -->
<g id="edge5" class="edge">
<title>admm.ADMM.solve&#45;&gt;admm.ADMM.ustep</title>
<path fill="none" stroke="#8ed88c" stroke-width="2" d="M111.27,-360.35C129.1,-365.98 149.26,-372.35 167.86,-378.22"/>
<polygon fill="#8ed88c" stroke="#8ed88c" stroke-width="2" points="166.8403,-381.5683 177.43,-381.24 168.9469,-374.8928 166.8403,-381.5683"/>
</g>
<!-- admm.ADMM.iteration_stats -->
<g id="node8" class="node">
<title>admm.ADMM.iteration_stats</title>
<g id="a_node8"><a xlink:href="../../sporco.admm.admm.html#sporco.admm.admm.ADMM.iteration_stats" xlink:title="admm.ADMM.iteration_stats" target="_top">
<path fill="#8ed88c" stroke="#000000" stroke-width=".25" d="M292,-308C292,-308 169,-308 169,-308 163,-308 157,-302 157,-296 157,-296 157,-284 157,-284 157,-278 163,-272 169,-272 169,-272 292,-272 292,-272 298,-272 304,-278 304,-284 304,-284 304,-296 304,-296 304,-302 298,-308 292,-308"/>
<text text-anchor="middle" x="230.5" y="-287.8" font-family="Vera Sans, DejaVu Sans, Liberation Sans, Arial, Helvetica, sans" font-size="9.00" fill="#000000">admm.ADMM.iteration_stats</text>
</a>
</g>
</g>
<!-- admm.ADMM.solve&#45;&gt;admm.ADMM.iteration_stats -->
<g id="edge6" class="edge">
<title>admm.ADMM.solve&#45;&gt;admm.ADMM.iteration_stats</title>
<path fill="none" stroke="#8ed88c" stroke-width="2" d="M111.27,-327.65C127.77,-322.44 146.28,-316.6 163.69,-311.1"/>
<polygon fill="#8ed88c" stroke="#8ed88c" stroke-width="2" points="164.7607,-314.4323 173.24,-308.08 162.6501,-307.7581 164.7607,-314.4323"/>
</g>
<!-- admm.ADMM.display_end -->
<g id="node9" class="node">
<title>admm.ADMM.display_end</title>
<g id="a_node9"><a xlink:href="../../sporco.admm.admm.html#sporco.admm.admm.ADMM.display_end" xlink:title="admm.ADMM.display_end" target="_top">
<path fill="#8ed88c" stroke="#000000" stroke-width=".25" d="M285.5,-524C285.5,-524 175.5,-524 175.5,-524 169.5,-524 163.5,-518 163.5,-512 163.5,-512 163.5,-500 163.5,-500 163.5,-494 169.5,-488 175.5,-488 175.5,-488 285.5,-488 285.5,-488 291.5,-488 297.5,-494 297.5,-500 297.5,-500 297.5,-512 297.5,-512 297.5,-518 291.5,-524 285.5,-524"/>
<text text-anchor="middle" x="230.5" y="-503.8" font-family="Vera Sans, DejaVu Sans, Liberation Sans, Arial, Helvetica, sans" font-size="9.00" fill="#000000">admm.ADMM.display_end</text>
</a>
</g>
</g>
<!-- admm.ADMM.solve&#45;&gt;admm.ADMM.display_end -->
<g id="edge7" class="edge">
<title>admm.ADMM.solve&#45;&gt;admm.ADMM.display_end</title>
<path fill="none" stroke="#8ed88c" stroke-width="2" d="M66.497,-362.14C78.562,-391.06 106,-447.56 147,-479 149.32,-480.78 151.77,-482.45 154.3,-484.01"/>
<polygon fill="#8ed88c" stroke="#8ed88c" stroke-width="2" points="152.7779,-487.1669 163.23,-488.9 156.14,-481.0271 152.7779,-487.1669"/>
</g>
<!-- admm.ADMMEqual.relax_AX -->
<g id="node11" class="node">
<title>admm.ADMMEqual.relax_AX</title>
<g id="a_node11"><a xlink:href="../../sporco.admm.admm.html#sporco.admm.admm.ADMMEqual.relax_AX" xlink:title="admm.ADMMEqual.relax_AX" target="_top">
<path fill="#8ca8d8" stroke="#000000" stroke-width=".25" d="M290,-656C290,-656 171,-656 171,-656 165,-656 159,-650 159,-644 159,-644 159,-632 159,-632 159,-626 165,-620 171,-620 171,-620 290,-620 290,-620 296,-620 302,-626 302,-632 302,-632 302,-644 302,-644 302,-650 296,-656 290,-656"/>
<text text-anchor="middle" x="230.5" y="-635.8" font-family="Vera Sans, DejaVu Sans, Liberation Sans, Arial, Helvetica, sans" font-size="9.00" fill="#000000">admm.ADMMEqual.relax_AX</text>
</a>
</g>
</g>
<!-- admm.ADMM.solve&#45;&gt;admm.ADMMEqual.relax_AX -->
<g id="edge19" class="edge">
<title>admm.ADMM.solve&#45;&gt;admm.ADMMEqual.relax_AX</title>
<path fill="none" stroke="#8ed88c" stroke-width="2" d="M63.2,-362.1C74.57,-416.1 110.45,-574.6 147,-611 148.11,-612.11 149.27,-613.17 150.47,-614.19"/>
<polygon fill="#8ed88c" stroke="#8ed88c" stroke-width="2" points="148.7597,-617.2731 158.91,-620.31 152.869,-611.6062 148.7597,-617.2731"/>
</g>
<!-- admm.ADMMEqual.getmin -->
<g id="node13" class="node">
<title>admm.ADMMEqual.getmin</title>
<g id="a_node13"><a xlink:href="../../sporco.admm.admm.html#sporco.admm.admm.ADMMEqual.getmin" xlink:title="admm.ADMMEqual.getmin" target="_top">
<path fill="#8ca8d8" stroke="#000000" stroke-width=".25" d="M287,-602C287,-602 174,-602 174,-602 168,-602 162,-596 162,-590 162,-590 162,-578 162,-578 162,-572 168,-566 174,-566 174,-566 287,-566 287,-566 293,-566 299,-572 299,-578 299,-578 299,-590 299,-590 299,-596 293,-602 287,-602"/>
<text text-anchor="middle" x="230.5" y="-581.8" font-family="Vera Sans, DejaVu Sans, Liberation Sans, Arial, Helvetica, sans" font-size="9.00" fill="#000000">admm.ADMMEqual.getmin</text>
</a>
</g>
</g>
<!-- admm.ADMM.solve&#45;&gt;admm.ADMMEqual.getmin -->
<g id="edge20" class="edge">
<title>admm.ADMM.solve&#45;&gt;admm.ADMMEqual.getmin</title>
<path fill="none" stroke="#8ed88c" stroke-width="2" d="M62.063,-362.24C68.662,-402.49 89.911,-499.69 147,-554 149.53,-556.41 152.27,-558.63 155.16,-560.67"/>
<polygon fill="#8ed88c" stroke="#8ed88c" stroke-width="2" points="153.3138,-563.6434 163.65,-565.97 157.0206,-557.7055 153.3138,-563.6434"/>
</g>
<!-- bpdn.GenericBPDN.xstep -->
<g id="node19" class="node">
<title>bpdn.GenericBPDN.xstep</title>
<g id="a_node19"><a xlink:href="../../sporco.admm.bpdn.html#sporco.admm.bpdn.GenericBPDN.xstep" xlink:title="bpdn.GenericBPDN.xstep" target="_top">
<path fill="#d88c8c" stroke="#000000" stroke-width=".25" d="M285.5,-44C285.5,-44 175.5,-44 175.5,-44 169.5,-44 163.5,-38 163.5,-32 163.5,-32 163.5,-20 163.5,-20 163.5,-14 169.5,-8 175.5,-8 175.5,-8 285.5,-8 285.5,-8 291.5,-8 297.5,-14 297.5,-20 297.5,-20 297.5,-32 297.5,-32 297.5,-38 291.5,-44 285.5,-44"/>
<text text-anchor="middle" x="230.5" y="-23.8" font-family="Vera Sans, DejaVu Sans, Liberation Sans, Arial, Helvetica, sans" font-size="9.00" fill="#000000">bpdn.GenericBPDN.xstep</text>
</a>
</g>
</g>
<!-- admm.ADMM.solve&#45;&gt;bpdn.GenericBPDN.xstep -->
<g id="edge18" class="edge">
<title>admm.ADMM.solve&#45;&gt;bpdn.GenericBPDN.xstep</title>
<path fill="none" stroke="#8ed88c" stroke-width="2" d="M60.927,-325.81C65.458,-279.02 83.231,-152.66 147,-74 154.98,-64.161 165.54,-55.942 176.47,-49.246"/>
<polygon fill="#8ed88c" stroke="#8ed88c" stroke-width="2" points="178.336,-52.2106 185.27,-44.2 174.8539,-46.1381 178.336,-52.2106"/>
</g>
<!-- bpdn.BPDNProjL1.ystep -->
<g id="node22" class="node">
<title>bpdn.BPDNProjL1.ystep</title>
<g id="a_node22"><a xlink:href="../../sporco.admm.bpdn.html#sporco.admm.bpdn.BPDNProjL1.ystep" xlink:title="bpdn.BPDNProjL1.ystep" target="_top">
<path fill="#d88cc3" stroke="#000000" stroke-width=".25" d="M281.5,-122C281.5,-122 179.5,-122 179.5,-122 173.5,-122 167.5,-116 167.5,-110 167.5,-110 167.5,-98 167.5,-98 167.5,-92 173.5,-86 179.5,-86 179.5,-86 281.5,-86 281.5,-86 287.5,-86 293.5,-92 293.5,-98 293.5,-98 293.5,-110 293.5,-110 293.5,-116 287.5,-122 281.5,-122"/>
<text text-anchor="middle" x="230.5" y="-101.8" font-family="Vera Sans, DejaVu Sans, Liberation Sans, Arial, Helvetica, sans" font-size="9.00" fill="#000000">bpdn.BPDNProjL1.ystep</text>
</a>
</g>
</g>
<!-- admm.ADMM.solve&#45;&gt;bpdn.BPDNProjL1.ystep -->
<g id="edge17" class="edge">
<title>admm.ADMM.solve&#45;&gt;bpdn.BPDNProjL1.ystep</title>
<path fill="none" stroke="#8ed88c" stroke-width="2" d="M63.775,-325.77C73.188,-289.01 98.8,-204.97 147,-152 155.88,-142.24 167.21,-133.94 178.65,-127.13"/>
<polygon fill="#8ed88c" stroke="#8ed88c" stroke-width="2" points="180.3936,-130.165 187.38,-122.2 176.9514,-124.0697 180.3936,-130.165"/>
</g>
<!-- admm.ADMM.iteration_stats&#45;&gt;admm.ADMM.itstat_extra -->
<g id="edge8" class="edge">
<title>admm.ADMM.iteration_stats&#45;&gt;admm.ADMM.itstat_extra</title>
<path fill="none" stroke="#8ed88c" stroke-width="2" d="M304.02,-290C318.16,-290 333,-290 347.23,-290"/>
<polygon fill="#8ed88c" stroke="#8ed88c" stroke-width="2" points="347.47,-293.5001 357.47,-290 347.47,-286.5001 347.47,-293.5001"/>
</g>
<!-- bpdn.BPDNProjL1.eval_objfn -->
<g id="node21" class="node">
<title>bpdn.BPDNProjL1.eval_objfn</title>
<g id="a_node21"><a xlink:href="../../sporco.admm.bpdn.html#sporco.admm.bpdn.BPDNProjL1.eval_objfn" xlink:title="bpdn.BPDNProjL1.eval_objfn" target="_top">
<path fill="#d88cc3" stroke="#000000" stroke-width=".25" d="M485,-122C485,-122 362,-122 362,-122 356,-122 350,-116 350,-110 350,-110 350,-98 350,-98 350,-92 356,-86 362,-86 362,-86 485,-86 485,-86 491,-86 497,-92 497,-98 497,-98 497,-110 497,-110 497,-116 491,-122 485,-122"/>
<text text-anchor="middle" x="423.5" y="-101.8" font-family="Vera Sans, DejaVu Sans, Liberation Sans, Arial, Helvetica, sans" font-size="9.00" fill="#000000">bpdn.BPDNProjL1.eval_objfn</text>
</a>
</g>
</g>
<!-- admm.ADMM.iteration_stats&#45;&gt;bpdn.BPDNProjL1.eval_objfn -->
<g id="edge21" class="edge">
<title>admm.ADMM.iteration_stats&#45;&gt;bpdn.BPDNProjL1.eval_objfn</title>
<path fill="none" stroke="#8ed88c" stroke-width="2" d="M302.88,-271.83C306.9,-269.26 310.66,-266.34 314,-263 350.69,-226.34 318.49,-193.19 350,-152 357.31,-142.45 367.09,-134.22 377.13,-127.42"/>
<polygon fill="#8ed88c" stroke="#8ed88c" stroke-width="2" points="379.0314,-130.3586 385.58,-122.03 375.2669,-124.457 379.0314,-130.3586"/>
</g>
<!-- admm.ADMMEqual.obfn_gvar -->
<g id="node10" class="node">
<title>admm.ADMMEqual.obfn_gvar</title>
<g id="a_node10"><a xlink:href="../../sporco.admm.admm.html#sporco.admm.admm.ADMMEqual.obfn_gvar" xlink:title="admm.ADMMEqual.obfn_gvar" target="_top">
<path fill="#8ca8d8" stroke="#000000" stroke-width=".25" d="M672,-602C672,-602 545,-602 545,-602 539,-602 533,-596 533,-590 533,-590 533,-578 533,-578 533,-572 539,-566 545,-566 545,-566 672,-566 672,-566 678,-566 684,-572 684,-578 684,-578 684,-590 684,-590 684,-596 678,-602 672,-602"/>
<text text-anchor="middle" x="608.5" y="-581.8" font-family="Vera Sans, DejaVu Sans, Liberation Sans, Arial, Helvetica, sans" font-size="9.00" fill="#000000">admm.ADMMEqual.obfn_gvar</text>
</a>
</g>
</g>
<!-- admm.ADMMEqual.obfn_fvar -->
<g id="node16" class="node">
<title>admm.ADMMEqual.obfn_fvar</title>
<g id="a_node16"><a xlink:href="../../sporco.admm.admm.html#sporco.admm.admm.ADMMEqual.obfn_fvar" xlink:title="admm.ADMMEqual.obfn_fvar" target="_top">
<path fill="#8ca8d8" stroke="#000000" stroke-width=".25" d="M856,-602C856,-602 732,-602 732,-602 726,-602 720,-596 720,-590 720,-590 720,-578 720,-578 720,-572 726,-566 732,-566 732,-566 856,-566 856,-566 862,-566 868,-572 868,-578 868,-578 868,-590 868,-590 868,-596 862,-602 856,-602"/>
<text text-anchor="middle" x="794" y="-581.8" font-family="Vera Sans, DejaVu Sans, Liberation Sans, Arial, Helvetica, sans" font-size="9.00" fill="#000000">admm.ADMMEqual.obfn_fvar</text>
</a>
</g>
</g>
<!-- bpdn.GenericBPDN.ystep -->
<g id="node18" class="node">
<title>bpdn.GenericBPDN.ystep</title>
<g id="a_node18"><a xlink:href="../../sporco.admm.bpdn.html#sporco.admm.bpdn.GenericBPDN.ystep" xlink:title="bpdn.GenericBPDN.ystep" target="_top">
<path fill="#d88c8c" stroke="#000000" stroke-width=".25" d="M478.5,-44C478.5,-44 368.5,-44 368.5,-44 362.5,-44 356.5,-38 356.5,-32 356.5,-32 356.5,-20 356.5,-20 356.5,-14 362.5,-8 368.5,-8 368.5,-8 478.5,-8 478.5,-8 484.5,-8 490.5,-14 490.5,-20 490.5,-20 490.5,-32 490.5,-32 490.5,-38 484.5,-44 478.5,-44"/>
<text text-anchor="middle" x="423.5" y="-23.8" font-family="Vera Sans, DejaVu Sans, Liberation Sans, Arial, Helvetica, sans" font-size="9.00" fill="#000000">bpdn.GenericBPDN.ystep</text>
</a>
</g>
</g>
<!-- bpdn.GenericBPDN.obfn_dfd -->
<g id="node20" class="node">
<title>bpdn.GenericBPDN.obfn_dfd</title>
<g id="a_node20"><a xlink:href="../../sporco.admm.bpdn.html#sporco.admm.bpdn.GenericBPDN.obfn_dfd" xlink:title="bpdn.GenericBPDN.obfn_dfd" target="_top">
<path fill="#d88c8c" stroke="#000000" stroke-width=".25" d="M671,-44C671,-44 546,-44 546,-44 540,-44 534,-38 534,-32 534,-32 534,-20 534,-20 534,-14 540,-8 546,-8 546,-8 671,-8 671,-8 677,-8 683,-14 683,-20 683,-20 683,-32 683,-32 683,-38 677,-44 671,-44"/>
<text text-anchor="middle" x="608.5" y="-23.8" font-family="Vera Sans, DejaVu Sans, Liberation Sans, Arial, Helvetica, sans" font-size="9.00" fill="#000000">bpdn.GenericBPDN.obfn_dfd</text>
</a>
</g>
</g>
<!-- bpdn.GenericBPDN.obfn_dfd&#45;&gt;admm.ADMMEqual.obfn_fvar -->
<g id="edge22" class="edge">
<title>bpdn.GenericBPDN.obfn_dfd&#45;&gt;admm.ADMMEqual.obfn_fvar</title>
<path fill="none" stroke="#d88c8c" stroke-width="2" d="M614.57,-44.248C641.7,-125.88 752.06,-457.85 784.8,-556.33"/>
<polygon fill="#d88c8c" stroke="#d88c8c" stroke-width="2" points="781.5025,-557.5059 787.98,-565.89 788.1447,-555.2964 781.5025,-557.5059"/>
</g>
<!-- bpdn.BPDNProjL1.eval_objfn&#45;&gt;admm.ADMMEqual.obfn_gvar -->
<g id="edge10" class="edge">
<title>bpdn.BPDNProjL1.eval_objfn&#45;&gt;admm.ADMMEqual.obfn_gvar</title>
<path fill="none" stroke="#d88cc3" stroke-width="2" d="M468.65,-122.19C482.11,-129.61 495.72,-139.46 505,-152 553.6,-217.7 592.67,-470.7 604.68,-555.85"/>
<polygon fill="#d88cc3" stroke="#d88cc3" stroke-width="2" points="601.2239,-556.4084 606.07,-565.83 608.157,-555.4428 601.2239,-556.4084"/>
</g>
<!-- bpdn.BPDNProjL1.eval_objfn&#45;&gt;bpdn.GenericBPDN.obfn_dfd -->
<g id="edge9" class="edge">
<title>bpdn.BPDNProjL1.eval_objfn&#45;&gt;bpdn.GenericBPDN.obfn_dfd</title>
<path fill="none" stroke="#d88cc3" stroke-width="2" d="M474.61,-85.911C484.74,-82.123 495.25,-78.046 505,-74 523.83,-66.183 544.25,-56.891 561.94,-48.575"/>
<polygon fill="#d88cc3" stroke="#d88cc3" stroke-width="2" points="563.9174,-51.5115 571.46,-44.071 560.9238,-45.1839 563.9174,-51.5115"/>
</g>
<!-- bpdn.BPDNProjL1.ystep&#45;&gt;bpdn.GenericBPDN.ystep -->
<g id="edge11" class="edge">
<title>bpdn.BPDNProjL1.ystep&#45;&gt;bpdn.GenericBPDN.ystep</title>
<path fill="none" stroke="#d88cc3" stroke-width="2" d="M282.38,-85.983C292.89,-82.156 303.84,-78.047 314,-74 334.04,-66.017 355.86,-56.604 374.71,-48.238"/>
<polygon fill="#d88cc3" stroke="#d88cc3" stroke-width="2" points="376.2829,-51.3689 383.99,-44.099 373.4315,-44.9759 376.2829,-51.3689"/>
</g>
</g>
</svg>
