<?xml version="1.0" encoding="UTF-8" standalone="no"?>
<!DOCTYPE svg PUBLIC "-//W3C//DTD SVG 1.1//EN"
 "http://www.w3.org/Graphics/SVG/1.1/DTD/svg11.dtd">
<!-- Generated by graphviz version 2.40.1 (20161225.0304)
 -->
<!-- Pages: 1 -->
<svg
 viewBox="0.00 0.00 1806.00 805.00" xmlns="http://www.w3.org/2000/svg" xmlns:xlink="http://www.w3.org/1999/xlink">
<g id="graph0" class="graph" transform="scale(1 1) rotate(0) translate(4 801)">
<polygon fill="transparent" stroke="transparent" points="-4,4 -4,-801 1802,-801 1802,4 -4,4"/>
<g id="clust1" class="cluster">
<title>cluster_cbpdn.ConvBPDN</title>
<polygon fill="transparent" stroke="#8cd8c9" stroke-width="2" stroke-dasharray="1,5" points="818,-211 818,-281 1775.5,-281 1775.5,-211 818,-211"/>
<text text-anchor="middle" x="1296.8" y="-269.8" font-family="Vera Sans, DejaVu Sans, Liberation Sans, Arial, Helvetica, sans" font-size="9.00" fill="#000000">cbpdn.ConvBPDN</text>
</g>
<g id="clust3" class="cluster">
<title>cluster_cbpdndl.ConvBPDNDictLearn</title>
<polygon fill="transparent" stroke="#8ca8d8" stroke-width="2" stroke-dasharray="1,5" points="198,-273 198,-343 399,-343 399,-273 198,-273"/>
<text text-anchor="middle" x="298.5" y="-331.8" font-family="Vera Sans, DejaVu Sans, Liberation Sans, Arial, Helvetica, sans" font-size="9.00" fill="#000000">cbpdndl.ConvBPDNDictLearn</text>
</g>
<g id="clust2" class="cluster">
<title>cluster_ccmod.ConvCnstrMODBase</title>
<polygon fill="transparent" stroke="#9a8cd8" stroke-width="2" stroke-dasharray="1,5" points="1014,-727 1014,-797 1798,-797 1798,-727 1014,-727"/>
<text text-anchor="middle" x="1406" y="-785.8" font-family="Vera Sans, DejaVu Sans, Liberation Sans, Arial, Helvetica, sans" font-size="9.00" fill="#000000">ccmod.ConvCnstrMODBase</text>
</g>
<g id="clust4" class="cluster">
<title>cluster_admm._ADMM_Meta</title>
<polygon fill="transparent" stroke="#8cd8b5" stroke-width="2" stroke-dasharray="1,5" points="609,-420 609,-544 770,-544 770,-420 609,-420"/>
<text text-anchor="middle" x="689.5" y="-532.8" font-family="Vera Sans, DejaVu Sans, Liberation Sans, Arial, Helvetica, sans" font-size="9.00" fill="#000000">admm._ADMM_Meta</text>
</g>
<g id="clust5" class="cluster">
<title>cluster_dictlrn.IterStatsConfig</title>
<polygon fill="transparent" stroke="#d88c8c" stroke-width="2" stroke-dasharray="1,5" points="419,-312 419,-382 589,-382 589,-312 419,-312"/>
<text text-anchor="middle" x="504" y="-370.8" font-family="Vera Sans, DejaVu Sans, Liberation Sans, Arial, Helvetica, sans" font-size="9.00" fill="#000000">dictlrn.IterStatsConfig</text>
</g>
<g id="clust6" class="cluster">
<title>cluster_ccmod.stdformD</title>
<polygon fill="transparent" stroke="#d88c99" stroke-width="2" stroke-dasharray="1,5" points="449.5,-78 449.5,-148 558.5,-148 558.5,-78 449.5,-78"/>
<text text-anchor="middle" x="504" y="-136.8" font-family="Vera Sans, DejaVu Sans, Liberation Sans, Arial, Helvetica, sans" font-size="9.00" fill="#000000">ccmod.stdformD</text>
</g>
<g id="clust7" class="cluster">
<title>cluster_ccmod.getPcn0</title>
<polygon fill="transparent" stroke="#d88cae" stroke-width="2" stroke-dasharray="1,5" points="451.5,-156 451.5,-226 556.5,-226 556.5,-156 451.5,-156"/>
<text text-anchor="middle" x="504" y="-214.8" font-family="Vera Sans, DejaVu Sans, Liberation Sans, Arial, Helvetica, sans" font-size="9.00" fill="#000000">ccmod.getPcn0</text>
</g>
<g id="clust8" class="cluster">
<title>cluster_cbpdn.GenericConvBPDN</title>
<polygon fill="transparent" stroke="#8cbdd8" stroke-width="2" stroke-dasharray="1,5" points="1018.5,-55 1018.5,-125 1411,-125 1411,-55 1018.5,-55"/>
<text text-anchor="middle" x="1214.8" y="-113.8" font-family="Vera Sans, DejaVu Sans, Liberation Sans, Arial, Helvetica, sans" font-size="9.00" fill="#000000">cbpdn.GenericConvBPDN</text>
</g>
<g id="clust9" class="cluster">
<title>cluster_ccmod.ConvCnstrMOD_IterSM</title>
<polygon fill="transparent" stroke="#af8cd8" stroke-width="2" stroke-dasharray="1,5" points="790,-727 790,-797 994,-797 994,-727 790,-727"/>
<text text-anchor="middle" x="892" y="-785.8" font-family="Vera Sans, DejaVu Sans, Liberation Sans, Arial, Helvetica, sans" font-size="9.00" fill="#000000">ccmod.ConvCnstrMOD_IterSM</text>
</g>
<g id="clust10" class="cluster">
<title>cluster_cbpdn.ConvRepIndexing</title>
<polygon fill="transparent" stroke="#8cd2d8" stroke-width="2" stroke-dasharray="1,5" points="1229.5,-133 1229.5,-203 1408.5,-203 1408.5,-133 1229.5,-133"/>
<text text-anchor="middle" x="1319" y="-191.8" font-family="Vera Sans, DejaVu Sans, Liberation Sans, Arial, Helvetica, sans" font-size="9.00" fill="#000000">cbpdn.ConvRepIndexing</text>
</g>
<g id="clust11" class="cluster">
<title>cluster_admm.ADMMEqual</title>
<polygon fill="transparent" stroke="#8cd8a0" stroke-width="2" stroke-dasharray="1,5" points="1242.5,-307 1242.5,-377 1395.5,-377 1395.5,-307 1242.5,-307"/>
<text text-anchor="middle" x="1319" y="-365.8" font-family="Vera Sans, DejaVu Sans, Liberation Sans, Arial, Helvetica, sans" font-size="9.00" fill="#000000">admm.ADMMEqual</text>
</g>
<g id="clust12" class="cluster">
<title>cluster_admm.ADMM</title>
<polygon fill="transparent" stroke="#8ed88c" stroke-width="2" stroke-dasharray="1,5" points="817.5,-463 817.5,-641 1778,-641 1778,-463 817.5,-463"/>
<text text-anchor="middle" x="1297.8" y="-629.8" font-family="Vera Sans, DejaVu Sans, Liberation Sans, Arial, Helvetica, sans" font-size="9.00" fill="#000000">admm.ADMM</text>
</g>
<g id="clust13" class="cluster">
<title>cluster_ccmod.ConvRepIndexing</title>
<polygon fill="transparent" stroke="#c48cd8" stroke-width="2" stroke-dasharray="1,5" points="1229,-385 1229,-455 1409,-455 1409,-385 1229,-385"/>
<text text-anchor="middle" x="1319" y="-443.8" font-family="Vera Sans, DejaVu Sans, Liberation Sans, Arial, Helvetica, sans" font-size="9.00" fill="#000000">ccmod.ConvRepIndexing</text>
</g>
<g id="clust14" class="cluster">
<title>cluster_dictlrn._DictLearn_Meta</title>
<polygon fill="transparent" stroke="#d88c8c" stroke-width="2" stroke-dasharray="1,5" points="0,-273 0,-343 178,-343 178,-273 0,-273"/>
<text text-anchor="middle" x="89" y="-331.8" font-family="Vera Sans, DejaVu Sans, Liberation Sans, Arial, Helvetica, sans" font-size="9.00" fill="#000000">dictlrn._DictLearn_Meta</text>
</g>
<g id="clust15" class="cluster">
<title>cluster_ccmod.DictionarySize</title>
<polygon fill="transparent" stroke="#d88cd8" stroke-width="2" stroke-dasharray="1,5" points="1431,-385 1431,-455 1597,-455 1597,-385 1431,-385"/>
<text text-anchor="middle" x="1514" y="-443.8" font-family="Vera Sans, DejaVu Sans, Liberation Sans, Arial, Helvetica, sans" font-size="9.00" fill="#000000">ccmod.DictionarySize</text>
</g>
<g id="clust16" class="cluster">
<title>cluster_ccmod.ConvCnstrMOD</title>
<polygon fill="transparent" stroke="#8c94d8" stroke-width="2" stroke-dasharray="1,5" points="436.5,-458 436.5,-528 571.5,-528 571.5,-458 436.5,-458"/>
<text text-anchor="middle" x="504" y="-516.8" font-family="Vera Sans, DejaVu Sans, Liberation Sans, Arial, Helvetica, sans" font-size="9.00" fill="#000000">ccmod.ConvCnstrMOD</text>
</g>
<g id="clust17" class="cluster">
<title>cluster_ccmod.zpad</title>
<polygon fill="transparent" stroke="#d88c8c" stroke-width="2" stroke-dasharray="1,5" points="460,-234 460,-304 548,-304 548,-234 460,-234"/>
<text text-anchor="middle" x="504" y="-292.8" font-family="Vera Sans, DejaVu Sans, Liberation Sans, Arial, Helvetica, sans" font-size="9.00" fill="#000000">ccmod.zpad</text>
</g>
<g id="clust18" class="cluster">
<title>cluster_ccmod.getPcn</title>
<polygon fill="transparent" stroke="#d88cc3" stroke-width="2" stroke-dasharray="1,5" points="1269.5,-649 1269.5,-719 1368.5,-719 1368.5,-649 1269.5,-649"/>
<text text-anchor="middle" x="1319" y="-707.8" font-family="Vera Sans, DejaVu Sans, Liberation Sans, Arial, Helvetica, sans" font-size="9.00" fill="#000000">ccmod.getPcn</text>
</g>
<g id="clust19" class="cluster">
<title>cluster_dictlrn.DictLearn</title>
<polygon fill="transparent" stroke="#d88c8c" stroke-width="2" stroke-dasharray="1,5" points="432,0 432,-70 576,-70 576,0 432,0"/>
<text text-anchor="middle" x="504" y="-58.8" font-family="Vera Sans, DejaVu Sans, Liberation Sans, Arial, Helvetica, sans" font-size="9.00" fill="#000000">dictlrn.DictLearn</text>
</g>
<!-- cbpdn.ConvBPDN.__init__ -->
<g id="node1" class="node">
<title>cbpdn.ConvBPDN.__init__</title>
<g id="a_node1"><a xlink:href="../../sporco.admm.cbpdn.html#sporco.admm.cbpdn.ConvBPDN.__init__" xlink:title="cbpdn.ConvBPDN.__init__" target="_top">
<path fill="#8cd8c9" stroke="#000000" stroke-width=".25" d="M946,-255C946,-255 838,-255 838,-255 832,-255 826,-249 826,-243 826,-243 826,-231 826,-231 826,-225 832,-219 838,-219 838,-219 946,-219 946,-219 952,-219 958,-225 958,-231 958,-231 958,-243 958,-243 958,-249 952,-255 946,-255"/>
<text text-anchor="middle" x="892" y="-234.8" font-family="Vera Sans, DejaVu Sans, Liberation Sans, Arial, Helvetica, sans" font-size="9.00" fill="#000000">cbpdn.ConvBPDN.__init__</text>
</a>
</g>
</g>
<!-- cbpdn.GenericConvBPDN.__init__ -->
<g id="node11" class="node">
<title>cbpdn.GenericConvBPDN.__init__</title>
<g id="a_node11"><a xlink:href="../../sporco.admm.cbpdn.html#sporco.admm.cbpdn.GenericConvBPDN.__init__" xlink:title="cbpdn.GenericConvBPDN.__init__" target="_top">
<path fill="#8cbdd8" stroke="#000000" stroke-width=".25" d="M1182.5,-99C1182.5,-99 1038.5,-99 1038.5,-99 1032.5,-99 1026.5,-93 1026.5,-87 1026.5,-87 1026.5,-75 1026.5,-75 1026.5,-69 1032.5,-63 1038.5,-63 1038.5,-63 1182.5,-63 1182.5,-63 1188.5,-63 1194.5,-69 1194.5,-75 1194.5,-75 1194.5,-87 1194.5,-87 1194.5,-93 1188.5,-99 1182.5,-99"/>
<text text-anchor="middle" x="1110.5" y="-78.8" font-family="Vera Sans, DejaVu Sans, Liberation Sans, Arial, Helvetica, sans" font-size="9.00" fill="#000000">cbpdn.GenericConvBPDN.__init__</text>
</a>
</g>
</g>
<!-- cbpdn.ConvBPDN.__init__&#45;&gt;cbpdn.GenericConvBPDN.__init__ -->
<g id="edge9" class="edge">
<title>cbpdn.ConvBPDN.__init__&#45;&gt;cbpdn.GenericConvBPDN.__init__</title>
<path fill="none" stroke="#8cd8c9" stroke-width="2" d="M917.49,-218.8C956.96,-190.62 1032.9,-136.41 1076.8,-105.04"/>
<polygon fill="#8cd8c9" stroke="#8cd8c9" stroke-width="2" points="1079.0697,-107.7212 1085.2,-99.08 1075.019,-102.0122 1079.0697,-107.7212"/>
</g>
<!-- admm.ADMM.set_attr -->
<g id="node17" class="node">
<title>admm.ADMM.set_attr</title>
<g id="a_node17"><a xlink:href="../../sporco.admm.admm.html#sporco.admm.admm.ADMM.set_attr" xlink:title="admm.ADMM.set_attr" target="_top">
<path fill="#8ed88c" stroke="#000000" stroke-width=".25" d="M1753.5,-561C1753.5,-561 1661.5,-561 1661.5,-561 1655.5,-561 1649.5,-555 1649.5,-549 1649.5,-549 1649.5,-537 1649.5,-537 1649.5,-531 1655.5,-525 1661.5,-525 1661.5,-525 1753.5,-525 1753.5,-525 1759.5,-525 1765.5,-531 1765.5,-537 1765.5,-537 1765.5,-549 1765.5,-549 1765.5,-555 1759.5,-561 1753.5,-561"/>
<text text-anchor="middle" x="1707.5" y="-540.8" font-family="Vera Sans, DejaVu Sans, Liberation Sans, Arial, Helvetica, sans" font-size="9.00" fill="#000000">admm.ADMM.set_attr</text>
</a>
</g>
</g>
<!-- cbpdn.ConvBPDN.__init__&#45;&gt;admm.ADMM.set_attr -->
<g id="edge7" class="edge">
<title>cbpdn.ConvBPDN.__init__&#45;&gt;admm.ADMM.set_attr</title>
<path fill="none" stroke="#8cd8c9" stroke-width="2" d="M952.12,-255.02C971.81,-260.84 993.8,-267.28 1014,-273 1276.6,-347.45 1396.3,-281.06 1597,-466 1615.7,-483.26 1605.3,-499.82 1625,-516 1629.5,-519.74 1634.6,-522.97 1640,-525.75"/>
<polygon fill="#8cd8c9" stroke="#8cd8c9" stroke-width="2" points="1638.6568,-528.9853 1649.2,-530.03 1641.6095,-522.6385 1638.6568,-528.9853"/>
</g>
<!-- admm.ADMM.set_dtype -->
<g id="node20" class="node">
<title>admm.ADMM.set_dtype</title>
<g id="a_node20"><a xlink:href="../../sporco.admm.admm.html#sporco.admm.admm.ADMM.set_dtype" xlink:title="admm.ADMM.set_dtype" target="_top">
<path fill="#8ed88c" stroke="#000000" stroke-width=".25" d="M1758,-507C1758,-507 1657,-507 1657,-507 1651,-507 1645,-501 1645,-495 1645,-495 1645,-483 1645,-483 1645,-477 1651,-471 1657,-471 1657,-471 1758,-471 1758,-471 1764,-471 1770,-477 1770,-483 1770,-483 1770,-495 1770,-495 1770,-501 1764,-507 1758,-507"/>
<text text-anchor="middle" x="1707.5" y="-486.8" font-family="Vera Sans, DejaVu Sans, Liberation Sans, Arial, Helvetica, sans" font-size="9.00" fill="#000000">admm.ADMM.set_dtype</text>
</a>
</g>
</g>
<!-- cbpdn.ConvBPDN.__init__&#45;&gt;admm.ADMM.set_dtype -->
<g id="edge8" class="edge">
<title>cbpdn.ConvBPDN.__init__&#45;&gt;admm.ADMM.set_dtype</title>
<path fill="none" stroke="#8cd8c9" stroke-width="2" d="M958.17,-234.7C1090.8,-233.28 1393.8,-246.29 1597,-381 1631.9,-404.17 1665.4,-439.32 1686.2,-463.17"/>
<polygon fill="#8cd8c9" stroke="#8cd8c9" stroke-width="2" points="1683.5508,-465.4574 1692.7,-470.8 1688.8794,-460.918 1683.5508,-465.4574"/>
</g>
<!-- cbpdn.ConvBPDN.uinit -->
<g id="node2" class="node">
<title>cbpdn.ConvBPDN.uinit</title>
<g id="a_node2"><a xlink:href="../../sporco.admm.cbpdn.html#sporco.admm.cbpdn.ConvBPDN.uinit" xlink:title="cbpdn.ConvBPDN.uinit" target="_top">
<path fill="#8cd8c9" stroke="#000000" stroke-width=".25" d="M1755.5,-255C1755.5,-255 1659.5,-255 1659.5,-255 1653.5,-255 1647.5,-249 1647.5,-243 1647.5,-243 1647.5,-231 1647.5,-231 1647.5,-225 1653.5,-219 1659.5,-219 1659.5,-219 1755.5,-219 1755.5,-219 1761.5,-219 1767.5,-225 1767.5,-231 1767.5,-231 1767.5,-243 1767.5,-243 1767.5,-249 1761.5,-255 1755.5,-255"/>
<text text-anchor="middle" x="1707.5" y="-234.8" font-family="Vera Sans, DejaVu Sans, Liberation Sans, Arial, Helvetica, sans" font-size="9.00" fill="#000000">cbpdn.ConvBPDN.uinit</text>
</a>
</g>
</g>
<!-- ccmod.ConvCnstrMODBase.uinit -->
<g id="node3" class="node">
<title>ccmod.ConvCnstrMODBase.uinit</title>
<g id="a_node3"><a xlink:href="../../sporco.admm.ccmod.html#sporco.admm.ccmod.ConvCnstrMODBase.uinit" xlink:title="ccmod.ConvCnstrMODBase.uinit" target="_top">
<path fill="#9a8cd8" stroke="#000000" stroke-width=".25" d="M1778,-771C1778,-771 1637,-771 1637,-771 1631,-771 1625,-765 1625,-759 1625,-759 1625,-747 1625,-747 1625,-741 1631,-735 1637,-735 1637,-735 1778,-735 1778,-735 1784,-735 1790,-741 1790,-747 1790,-747 1790,-759 1790,-759 1790,-765 1784,-771 1778,-771"/>
<text text-anchor="middle" x="1707.5" y="-750.8" font-family="Vera Sans, DejaVu Sans, Liberation Sans, Arial, Helvetica, sans" font-size="9.00" fill="#000000">ccmod.ConvCnstrMODBase.uinit</text>
</a>
</g>
</g>
<!-- ccmod.ConvCnstrMODBase.__init__ -->
<g id="node4" class="node">
<title>ccmod.ConvCnstrMODBase.__init__</title>
<g id="a_node4"><a xlink:href="../../sporco.admm.ccmod.html#sporco.admm.ccmod.ConvCnstrMODBase.__init__" xlink:title="ccmod.ConvCnstrMODBase.__init__" target="_top">
<path fill="#9a8cd8" stroke="#000000" stroke-width=".25" d="M1187,-771C1187,-771 1034,-771 1034,-771 1028,-771 1022,-765 1022,-759 1022,-759 1022,-747 1022,-747 1022,-741 1028,-735 1034,-735 1034,-735 1187,-735 1187,-735 1193,-735 1199,-741 1199,-747 1199,-747 1199,-759 1199,-759 1199,-765 1193,-771 1187,-771"/>
<text text-anchor="middle" x="1110.5" y="-750.8" font-family="Vera Sans, DejaVu Sans, Liberation Sans, Arial, Helvetica, sans" font-size="9.00" fill="#000000">ccmod.ConvCnstrMODBase.__init__</text>
</a>
</g>
</g>
<!-- admm.ADMMEqual.__init__ -->
<g id="node15" class="node">
<title>admm.ADMMEqual.__init__</title>
<g id="a_node15"><a xlink:href="../../sporco.admm.admm.html#sporco.admm.admm.ADMMEqual.__init__" xlink:title="admm.ADMMEqual.__init__" target="_top">
<path fill="#8cd8a0" stroke="#000000" stroke-width=".25" d="M1375.5,-351C1375.5,-351 1262.5,-351 1262.5,-351 1256.5,-351 1250.5,-345 1250.5,-339 1250.5,-339 1250.5,-327 1250.5,-327 1250.5,-321 1256.5,-315 1262.5,-315 1262.5,-315 1375.5,-315 1375.5,-315 1381.5,-315 1387.5,-321 1387.5,-327 1387.5,-327 1387.5,-339 1387.5,-339 1387.5,-345 1381.5,-351 1375.5,-351"/>
<text text-anchor="middle" x="1319" y="-330.8" font-family="Vera Sans, DejaVu Sans, Liberation Sans, Arial, Helvetica, sans" font-size="9.00" fill="#000000">admm.ADMMEqual.__init__</text>
</a>
</g>
</g>
<!-- ccmod.ConvCnstrMODBase.__init__&#45;&gt;admm.ADMMEqual.__init__ -->
<g id="edge24" class="edge">
<title>ccmod.ConvCnstrMODBase.__init__&#45;&gt;admm.ADMMEqual.__init__</title>
<path fill="none" stroke="#9a8cd8" stroke-width="2" d="M1116.2,-734.77C1131.2,-687.57 1174.6,-558.15 1229,-459 1249.1,-422.37 1278,-383.77 1297.5,-359.1"/>
<polygon fill="#9a8cd8" stroke="#9a8cd8" stroke-width="2" points="1300.2456,-361.2709 1303.8,-351.29 1294.7973,-356.8759 1300.2456,-361.2709"/>
</g>
<!-- ccmod.ConvCnstrMODBase.__init__&#45;&gt;admm.ADMM.set_attr -->
<g id="edge22" class="edge">
<title>ccmod.ConvCnstrMODBase.__init__&#45;&gt;admm.ADMM.set_attr</title>
<path fill="none" stroke="#9a8cd8" stroke-width="2" d="M1160,-734.91C1251.6,-701.58 1453.6,-628.51 1625,-570 1630.5,-568.13 1636.2,-566.21 1641.9,-564.3"/>
<polygon fill="#9a8cd8" stroke="#9a8cd8" stroke-width="2" points="1643.1139,-567.5849 1651.5,-561.11 1640.9065,-560.942 1643.1139,-567.5849"/>
</g>
<!-- ccmod.ConvRepIndexing.__init__ -->
<g id="node21" class="node">
<title>ccmod.ConvRepIndexing.__init__</title>
<g id="a_node21"><a xlink:href="../../sporco.admm.ccmod.html#sporco.admm.ccmod.ConvRepIndexing.__init__" xlink:title="ccmod.ConvRepIndexing.__init__" target="_top">
<path fill="#c48cd8" stroke="#000000" stroke-width=".25" d="M1389,-429C1389,-429 1249,-429 1249,-429 1243,-429 1237,-423 1237,-417 1237,-417 1237,-405 1237,-405 1237,-399 1243,-393 1249,-393 1249,-393 1389,-393 1389,-393 1395,-393 1401,-399 1401,-405 1401,-405 1401,-417 1401,-417 1401,-423 1395,-429 1389,-429"/>
<text text-anchor="middle" x="1319" y="-408.8" font-family="Vera Sans, DejaVu Sans, Liberation Sans, Arial, Helvetica, sans" font-size="9.00" fill="#000000">ccmod.ConvRepIndexing.__init__</text>
</a>
</g>
</g>
<!-- ccmod.ConvCnstrMODBase.__init__&#45;&gt;ccmod.ConvRepIndexing.__init__ -->
<g id="edge25" class="edge">
<title>ccmod.ConvCnstrMODBase.__init__&#45;&gt;ccmod.ConvRepIndexing.__init__</title>
<path fill="none" stroke="#9a8cd8" stroke-width="2" d="M1121.7,-734.61C1156.4,-677.77 1261.9,-504.66 1302.7,-437.77"/>
<polygon fill="#9a8cd8" stroke="#9a8cd8" stroke-width="2" points="1305.7917,-439.4222 1308,-429.06 1299.8118,-435.7834 1305.7917,-439.4222"/>
</g>
<!-- ccmod.getPcn -->
<g id="node26" class="node">
<title>ccmod.getPcn</title>
<g id="a_node26"><a xlink:href="../../sporco.admm.ccmod.html#sporco.admm.ccmod.getPcn" xlink:title="ccmod.getPcn" target="_top">
<path fill="#d88cc3" stroke="#000000" stroke-width=".25" d="M1348.5,-693C1348.5,-693 1289.5,-693 1289.5,-693 1283.5,-693 1277.5,-687 1277.5,-681 1277.5,-681 1277.5,-669 1277.5,-669 1277.5,-663 1283.5,-657 1289.5,-657 1289.5,-657 1348.5,-657 1348.5,-657 1354.5,-657 1360.5,-663 1360.5,-669 1360.5,-669 1360.5,-681 1360.5,-681 1360.5,-687 1354.5,-693 1348.5,-693"/>
<text text-anchor="middle" x="1319" y="-672.8" font-family="Vera Sans, DejaVu Sans, Liberation Sans, Arial, Helvetica, sans" font-size="9.00" fill="#000000">ccmod.getPcn</text>
</a>
</g>
</g>
<!-- ccmod.ConvCnstrMODBase.__init__&#45;&gt;ccmod.getPcn -->
<g id="edge23" class="edge">
<title>ccmod.ConvCnstrMODBase.__init__&#45;&gt;ccmod.getPcn</title>
<path fill="none" stroke="#9a8cd8" stroke-width="2" d="M1158.9,-734.91C1191.5,-722.7 1234.5,-706.62 1267.7,-694.19"/>
<polygon fill="#9a8cd8" stroke="#9a8cd8" stroke-width="2" points="1269.0704,-697.4141 1277.2,-690.62 1266.6079,-690.8615 1269.0704,-697.4141"/>
</g>
<!-- cbpdndl.ConvBPDNDictLearn.__init__ -->
<g id="node5" class="node">
<title>cbpdndl.ConvBPDNDictLearn.__init__</title>
<g id="a_node5"><a xlink:href="../../sporco.admm.cbpdndl.html#sporco.admm.cbpdndl.ConvBPDNDictLearn.__init__" xlink:title="cbpdndl.ConvBPDNDictLearn.__init__" target="_top">
<path fill="#8ca8d8" stroke="#000000" stroke-width=".25" d="M379,-317C379,-317 218,-317 218,-317 212,-317 206,-311 206,-305 206,-305 206,-293 206,-293 206,-287 212,-281 218,-281 218,-281 379,-281 379,-281 385,-281 391,-287 391,-293 391,-293 391,-305 391,-305 391,-311 385,-317 379,-317"/>
<text text-anchor="middle" x="298.5" y="-296.8" font-family="Vera Sans, DejaVu Sans, Liberation Sans, Arial, Helvetica, sans" font-size="9.00" fill="#000000">cbpdndl.ConvBPDNDictLearn.__init__</text>
</a>
</g>
</g>
<!-- admm._ADMM_Meta.__call__ -->
<g id="node6" class="node">
<title>admm._ADMM_Meta.__call__</title>
<g id="a_node6"><a xlink:href="../../sporco.admm.admm.html#sporco.admm.admm._ADMM_Meta.__call__" xlink:title="admm._ADMM_Meta.__call__" target="_top">
<path fill="#8cd8b5" stroke="#000000" stroke-width=".25" d="M750,-464C750,-464 629,-464 629,-464 623,-464 617,-458 617,-452 617,-452 617,-440 617,-440 617,-434 623,-428 629,-428 629,-428 750,-428 750,-428 756,-428 762,-434 762,-440 762,-440 762,-452 762,-452 762,-458 756,-464 750,-464"/>
<text text-anchor="middle" x="689.5" y="-443.8" font-family="Vera Sans, DejaVu Sans, Liberation Sans, Arial, Helvetica, sans" font-size="9.00" fill="#000000">admm._ADMM_Meta.__call__</text>
</a>
</g>
</g>
<!-- cbpdndl.ConvBPDNDictLearn.__init__&#45;&gt;admm._ADMM_Meta.__call__ -->
<g id="edge19" class="edge">
<title>cbpdndl.ConvBPDNDictLearn.__init__&#45;&gt;admm._ADMM_Meta.__call__</title>
<path fill="none" stroke="#8ca8d8" stroke-width="2" d="M311.27,-317.09C331.01,-343.45 371.64,-391.71 419,-414 477.71,-441.63 551.19,-448.84 606.74,-449.57"/>
<polygon fill="#8ca8d8" stroke="#8ca8d8" stroke-width="2" points="606.8761,-453.0709 616.9,-449.64 606.9244,-446.0711 606.8761,-453.0709"/>
</g>
<!-- dictlrn.IterStatsConfig.__init__ -->
<g id="node8" class="node">
<title>dictlrn.IterStatsConfig.__init__</title>
<g id="a_node8"><a xlink:href="../../sporco.admm.dictlrn.html#sporco.admm.dictlrn.IterStatsConfig.__init__" xlink:title="dictlrn.IterStatsConfig.__init__" target="_top">
<path fill="#d88c8c" stroke="#000000" stroke-width=".25" d="M569,-356C569,-356 439,-356 439,-356 433,-356 427,-350 427,-344 427,-344 427,-332 427,-332 427,-326 433,-320 439,-320 439,-320 569,-320 569,-320 575,-320 581,-326 581,-332 581,-332 581,-344 581,-344 581,-350 575,-356 569,-356"/>
<text text-anchor="middle" x="504" y="-335.8" font-family="Vera Sans, DejaVu Sans, Liberation Sans, Arial, Helvetica, sans" font-size="9.00" fill="#000000">dictlrn.IterStatsConfig.__init__</text>
</a>
</g>
</g>
<!-- cbpdndl.ConvBPDNDictLearn.__init__&#45;&gt;dictlrn.IterStatsConfig.__init__ -->
<g id="edge14" class="edge">
<title>cbpdndl.ConvBPDNDictLearn.__init__&#45;&gt;dictlrn.IterStatsConfig.__init__</title>
<path fill="none" stroke="#8ca8d8" stroke-width="2" d="M391.03,-316.56C399.61,-318.19 408.28,-319.83 416.8,-321.45"/>
<polygon fill="#8ca8d8" stroke="#8ca8d8" stroke-width="2" points="416.2519,-324.9084 426.73,-323.34 417.5608,-318.0319 416.2519,-324.9084"/>
</g>
<!-- ccmod.stdformD -->
<g id="node9" class="node">
<title>ccmod.stdformD</title>
<g id="a_node9"><a xlink:href="../../sporco.admm.ccmod.html#sporco.admm.ccmod.stdformD" xlink:title="ccmod.stdformD" target="_top">
<path fill="#d88c99" stroke="#000000" stroke-width=".25" d="M538.5,-122C538.5,-122 469.5,-122 469.5,-122 463.5,-122 457.5,-116 457.5,-110 457.5,-110 457.5,-98 457.5,-98 457.5,-92 463.5,-86 469.5,-86 469.5,-86 538.5,-86 538.5,-86 544.5,-86 550.5,-92 550.5,-98 550.5,-98 550.5,-110 550.5,-110 550.5,-116 544.5,-122 538.5,-122"/>
<text text-anchor="middle" x="504" y="-101.8" font-family="Vera Sans, DejaVu Sans, Liberation Sans, Arial, Helvetica, sans" font-size="9.00" fill="#000000">ccmod.stdformD</text>
</a>
</g>
</g>
<!-- cbpdndl.ConvBPDNDictLearn.__init__&#45;&gt;ccmod.stdformD -->
<g id="edge18" class="edge">
<title>cbpdndl.ConvBPDNDictLearn.__init__&#45;&gt;ccmod.stdformD</title>
<path fill="none" stroke="#8ca8d8" stroke-width="2" d="M310.06,-280.9C329.7,-251.2 372.02,-191.5 419,-152 430.06,-142.7 443.19,-134.27 455.78,-127.16"/>
<polygon fill="#8ca8d8" stroke="#8ca8d8" stroke-width="2" points="457.7168,-130.09 464.81,-122.22 454.3572,-123.9489 457.7168,-130.09"/>
</g>
<!-- ccmod.getPcn0 -->
<g id="node10" class="node">
<title>ccmod.getPcn0</title>
<g id="a_node10"><a xlink:href="../../sporco.admm.ccmod.html#sporco.admm.ccmod.getPcn0" xlink:title="ccmod.getPcn0" target="_top">
<path fill="#d88cae" stroke="#000000" stroke-width=".25" d="M536.5,-200C536.5,-200 471.5,-200 471.5,-200 465.5,-200 459.5,-194 459.5,-188 459.5,-188 459.5,-176 459.5,-176 459.5,-170 465.5,-164 471.5,-164 471.5,-164 536.5,-164 536.5,-164 542.5,-164 548.5,-170 548.5,-176 548.5,-176 548.5,-188 548.5,-188 548.5,-194 542.5,-200 536.5,-200"/>
<text text-anchor="middle" x="504" y="-179.8" font-family="Vera Sans, DejaVu Sans, Liberation Sans, Arial, Helvetica, sans" font-size="9.00" fill="#000000">ccmod.getPcn0</text>
</a>
</g>
</g>
<!-- cbpdndl.ConvBPDNDictLearn.__init__&#45;&gt;ccmod.getPcn0 -->
<g id="edge17" class="edge">
<title>cbpdndl.ConvBPDNDictLearn.__init__&#45;&gt;ccmod.getPcn0</title>
<path fill="none" stroke="#8ca8d8" stroke-width="2" d="M329.93,-280.93C354.23,-266.98 388.72,-247.22 419,-230 433.26,-221.89 448.89,-213.05 462.81,-205.19"/>
<polygon fill="#8ca8d8" stroke="#8ca8d8" stroke-width="2" points="464.6874,-208.1495 471.68,-200.19 461.25,-202.0516 464.6874,-208.1495"/>
</g>
<!-- cbpdndl.ConvBPDNDictLearn.__init__&#45;&gt;ccmod.ConvRepIndexing.__init__ -->
<g id="edge20" class="edge">
<title>cbpdndl.ConvBPDNDictLearn.__init__&#45;&gt;ccmod.ConvRepIndexing.__init__</title>
<path fill="none" stroke="#8ca8d8" stroke-width="2" d="M316.54,-317.3C338.53,-338.24 377.87,-371.52 419,-386 532.55,-425.98 569.12,-400 689.5,-400 689.5,-400 689.5,-400 892,-400 1007.4,-400 1140.2,-404.06 1226.7,-407.25"/>
<polygon fill="#8ca8d8" stroke="#8ca8d8" stroke-width="2" points="1226.6785,-410.7515 1236.8,-407.62 1226.9349,-403.7562 1226.6785,-410.7515"/>
</g>
<!-- ccmod.ConvCnstrMOD -->
<g id="node24" class="node">
<title>ccmod.ConvCnstrMOD</title>
<g id="a_node24"><a xlink:href="../../sporco.admm.ccmod.html#sporco.admm.ccmod.ConvCnstrMOD" xlink:title="ccmod.ConvCnstrMOD" target="_top">
<path fill="#8c94d8" stroke="#000000" stroke-width=".25" d="M551.5,-502C551.5,-502 456.5,-502 456.5,-502 450.5,-502 444.5,-496 444.5,-490 444.5,-490 444.5,-478 444.5,-478 444.5,-472 450.5,-466 456.5,-466 456.5,-466 551.5,-466 551.5,-466 557.5,-466 563.5,-472 563.5,-478 563.5,-478 563.5,-490 563.5,-490 563.5,-496 557.5,-502 551.5,-502"/>
<text text-anchor="middle" x="504" y="-481.8" font-family="Vera Sans, DejaVu Sans, Liberation Sans, Arial, Helvetica, sans" font-size="9.00" fill="#000000">ccmod.ConvCnstrMOD</text>
</a>
</g>
</g>
<!-- cbpdndl.ConvBPDNDictLearn.__init__&#45;&gt;ccmod.ConvCnstrMOD -->
<g id="edge16" class="edge">
<title>cbpdndl.ConvBPDNDictLearn.__init__&#45;&gt;ccmod.ConvCnstrMOD</title>
<path fill="none" stroke="#8ca8d8" stroke-width="2" d="M308.34,-317.2C326.33,-348.85 367.43,-414.26 419,-452 424.01,-455.67 429.49,-458.96 435.18,-461.92"/>
<polygon fill="#8ca8d8" stroke="#8ca8d8" stroke-width="2" points="433.7114,-465.0974 444.24,-466.28 436.7469,-458.7898 433.7114,-465.0974"/>
</g>
<!-- ccmod.zpad -->
<g id="node25" class="node">
<title>ccmod.zpad</title>
<g id="a_node25"><a xlink:href="../../sporco.admm.ccmod.html#sporco.admm.ccmod.zpad" xlink:title="ccmod.zpad" target="_top">
<path fill="#d88c8c" stroke="#000000" stroke-width=".25" d="M528,-278C528,-278 480,-278 480,-278 474,-278 468,-272 468,-266 468,-266 468,-254 468,-254 468,-248 474,-242 480,-242 480,-242 528,-242 528,-242 534,-242 540,-248 540,-254 540,-254 540,-266 540,-266 540,-272 534,-278 528,-278"/>
<text text-anchor="middle" x="504" y="-257.8" font-family="Vera Sans, DejaVu Sans, Liberation Sans, Arial, Helvetica, sans" font-size="9.00" fill="#000000">ccmod.zpad</text>
</a>
</g>
</g>
<!-- cbpdndl.ConvBPDNDictLearn.__init__&#45;&gt;ccmod.zpad -->
<g id="edge15" class="edge">
<title>cbpdndl.ConvBPDNDictLearn.__init__&#45;&gt;ccmod.zpad</title>
<path fill="none" stroke="#8ca8d8" stroke-width="2" d="M391.03,-281.44C414.25,-277.03 438.18,-272.49 458,-268.73"/>
<polygon fill="#8ca8d8" stroke="#8ca8d8" stroke-width="2" points="458.7969,-272.1414 467.97,-266.84 457.4931,-265.2638 458.7969,-272.1414"/>
</g>
<!-- dictlrn.DictLearn.__init__ -->
<g id="node27" class="node">
<title>dictlrn.DictLearn.__init__</title>
<g id="a_node27"><a xlink:href="../../sporco.admm.dictlrn.html#sporco.admm.dictlrn.DictLearn.__init__" xlink:title="dictlrn.DictLearn.__init__" target="_top">
<path fill="#d88c8c" stroke="#000000" stroke-width=".25" d="M556,-44C556,-44 452,-44 452,-44 446,-44 440,-38 440,-32 440,-32 440,-20 440,-20 440,-14 446,-8 452,-8 452,-8 556,-8 556,-8 562,-8 568,-14 568,-20 568,-20 568,-32 568,-32 568,-38 562,-44 556,-44"/>
<text text-anchor="middle" x="504" y="-23.8" font-family="Vera Sans, DejaVu Sans, Liberation Sans, Arial, Helvetica, sans" font-size="9.00" fill="#000000">dictlrn.DictLearn.__init__</text>
</a>
</g>
</g>
<!-- cbpdndl.ConvBPDNDictLearn.__init__&#45;&gt;dictlrn.DictLearn.__init__ -->
<g id="edge21" class="edge">
<title>cbpdndl.ConvBPDNDictLearn.__init__&#45;&gt;dictlrn.DictLearn.__init__</title>
<path fill="none" stroke="#8ca8d8" stroke-width="2" d="M304.28,-280.82C318.15,-239.56 356.88,-137.52 419,-74 428.54,-64.248 440.48,-55.883 452.37,-48.998"/>
<polygon fill="#8ca8d8" stroke="#8ca8d8" stroke-width="2" points="454.3372,-51.9104 461.41,-44.022 450.9617,-45.778 454.3372,-51.9104"/>
</g>
<!-- admm._ADMM_Meta.__call__&#45;&gt;cbpdn.ConvBPDN.__init__ -->
<g id="edge26" class="edge">
<title>admm._ADMM_Meta.__call__&#45;&gt;cbpdn.ConvBPDN.__init__</title>
<path fill="none" stroke="#8cd8b5" stroke-width="2" d="M707.12,-427.82C743.24,-390.53 825.81,-305.32 867.27,-262.52"/>
<polygon fill="#8cd8b5" stroke="#8cd8b5" stroke-width="2" points="869.8318,-264.9058 874.28,-255.29 864.8062,-260.0331 869.8318,-264.9058"/>
</g>
<!-- admm._ADMM_Meta.__init__ -->
<g id="node7" class="node">
<title>admm._ADMM_Meta.__init__</title>
<g id="a_node7"><a xlink:href="../../sporco.admm.admm.html#sporco.admm.admm._ADMM_Meta.__init__" xlink:title="admm._ADMM_Meta.__init__" target="_top">
<path fill="#8cd8b5" stroke="#000000" stroke-width=".25" d="M749,-518C749,-518 630,-518 630,-518 624,-518 618,-512 618,-506 618,-506 618,-494 618,-494 618,-488 624,-482 630,-482 630,-482 749,-482 749,-482 755,-482 761,-488 761,-494 761,-494 761,-506 761,-506 761,-512 755,-518 749,-518"/>
<text text-anchor="middle" x="689.5" y="-497.8" font-family="Vera Sans, DejaVu Sans, Liberation Sans, Arial, Helvetica, sans" font-size="9.00" fill="#000000">admm._ADMM_Meta.__init__</text>
</a>
</g>
</g>
<!-- admm.ADMM.itstat_fields -->
<g id="node16" class="node">
<title>admm.ADMM.itstat_fields</title>
<g id="a_node16"><a xlink:href="../../sporco.admm.admm.html#sporco.admm.admm.ADMM.itstat_fields" xlink:title="admm.ADMM.itstat_fields" target="_top">
<path fill="#8ed88c" stroke="#000000" stroke-width=".25" d="M946.5,-518C946.5,-518 837.5,-518 837.5,-518 831.5,-518 825.5,-512 825.5,-506 825.5,-506 825.5,-494 825.5,-494 825.5,-488 831.5,-482 837.5,-482 837.5,-482 946.5,-482 946.5,-482 952.5,-482 958.5,-488 958.5,-494 958.5,-494 958.5,-506 958.5,-506 958.5,-512 952.5,-518 946.5,-518"/>
<text text-anchor="middle" x="892" y="-497.8" font-family="Vera Sans, DejaVu Sans, Liberation Sans, Arial, Helvetica, sans" font-size="9.00" fill="#000000">admm.ADMM.itstat_fields</text>
</a>
</g>
</g>
<!-- admm._ADMM_Meta.__init__&#45;&gt;admm.ADMM.itstat_fields -->
<g id="edge27" class="edge">
<title>admm._ADMM_Meta.__init__&#45;&gt;admm.ADMM.itstat_fields</title>
<path fill="none" stroke="#8cd8b5" stroke-width="2" d="M761.18,-500C778.68,-500 797.47,-500 815.2,-500"/>
<polygon fill="#8cd8b5" stroke="#8cd8b5" stroke-width="2" points="815.5,-503.5001 825.5,-500 815.5,-496.5001 815.5,-503.5001"/>
</g>
<!-- cbpdn.GenericConvBPDN.setdict -->
<g id="node12" class="node">
<title>cbpdn.GenericConvBPDN.setdict</title>
<g id="a_node12"><a xlink:href="../../sporco.admm.cbpdn.html#sporco.admm.cbpdn.GenericConvBPDN.setdict" xlink:title="cbpdn.GenericConvBPDN.setdict" target="_top">
<path fill="#8cbdd8" stroke="#000000" stroke-width=".25" d="M1391,-99C1391,-99 1247,-99 1247,-99 1241,-99 1235,-93 1235,-87 1235,-87 1235,-75 1235,-75 1235,-69 1241,-63 1247,-63 1247,-63 1391,-63 1391,-63 1397,-63 1403,-69 1403,-75 1403,-75 1403,-87 1403,-87 1403,-93 1397,-99 1391,-99"/>
<text text-anchor="middle" x="1319" y="-78.8" font-family="Vera Sans, DejaVu Sans, Liberation Sans, Arial, Helvetica, sans" font-size="9.00" fill="#000000">cbpdn.GenericConvBPDN.setdict</text>
</a>
</g>
</g>
<!-- cbpdn.GenericConvBPDN.__init__&#45;&gt;cbpdn.GenericConvBPDN.setdict -->
<g id="edge1" class="edge">
<title>cbpdn.GenericConvBPDN.__init__&#45;&gt;cbpdn.GenericConvBPDN.setdict</title>
<path fill="none" stroke="#8cbdd8" stroke-width="2" d="M1194.7,-81C1204.5,-81 1214.6,-81 1224.5,-81"/>
<polygon fill="#8cbdd8" stroke="#8cbdd8" stroke-width="2" points="1224.8,-84.5001 1234.8,-81 1224.8,-77.5001 1224.8,-84.5001"/>
</g>
<!-- cbpdn.ConvRepIndexing.__init__ -->
<g id="node14" class="node">
<title>cbpdn.ConvRepIndexing.__init__</title>
<g id="a_node14"><a xlink:href="../../sporco.admm.cbpdn.html#sporco.admm.cbpdn.ConvRepIndexing.__init__" xlink:title="cbpdn.ConvRepIndexing.__init__" target="_top">
<path fill="#8cd2d8" stroke="#000000" stroke-width=".25" d="M1388.5,-177C1388.5,-177 1249.5,-177 1249.5,-177 1243.5,-177 1237.5,-171 1237.5,-165 1237.5,-165 1237.5,-153 1237.5,-153 1237.5,-147 1243.5,-141 1249.5,-141 1249.5,-141 1388.5,-141 1388.5,-141 1394.5,-141 1400.5,-147 1400.5,-153 1400.5,-153 1400.5,-165 1400.5,-165 1400.5,-171 1394.5,-177 1388.5,-177"/>
<text text-anchor="middle" x="1319" y="-156.8" font-family="Vera Sans, DejaVu Sans, Liberation Sans, Arial, Helvetica, sans" font-size="9.00" fill="#000000">cbpdn.ConvRepIndexing.__init__</text>
</a>
</g>
</g>
<!-- cbpdn.GenericConvBPDN.__init__&#45;&gt;cbpdn.ConvRepIndexing.__init__ -->
<g id="edge28" class="edge">
<title>cbpdn.GenericConvBPDN.__init__&#45;&gt;cbpdn.ConvRepIndexing.__init__</title>
<path fill="none" stroke="#8cbdd8" stroke-width="2" d="M1153.3,-99.1C1175.7,-108.38 1203.7,-119.67 1229,-129 1236.9,-131.91 1245.2,-134.85 1253.5,-137.69"/>
<polygon fill="#8cbdd8" stroke="#8cbdd8" stroke-width="2" points="1252.5054,-141.0489 1263.1,-140.98 1254.7748,-134.427 1252.5054,-141.0489"/>
</g>
<!-- cbpdn.GenericConvBPDN.__init__&#45;&gt;admm.ADMMEqual.__init__ -->
<g id="edge29" class="edge">
<title>cbpdn.GenericConvBPDN.__init__&#45;&gt;admm.ADMMEqual.__init__</title>
<path fill="none" stroke="#8cbdd8" stroke-width="2" d="M1114.4,-99.24C1124.8,-143.01 1157.4,-254.56 1229,-311 1232.7,-313.88 1236.6,-316.39 1240.8,-318.57"/>
<polygon fill="#8cbdd8" stroke="#8cbdd8" stroke-width="2" points="1239.6495,-321.8921 1250.2,-322.86 1242.5558,-315.524 1239.6495,-321.8921"/>
</g>
<!-- ccmod.ConvCnstrMOD_IterSM.__init__ -->
<g id="node13" class="node">
<title>ccmod.ConvCnstrMOD_IterSM.__init__</title>
<g id="a_node13"><a xlink:href="../../sporco.admm.ccmod.html#sporco.admm.ccmod.ConvCnstrMOD_IterSM.__init__" xlink:title="ccmod.ConvCnstrMOD_IterSM.__init__" target="_top">
<path fill="#af8cd8" stroke="#000000" stroke-width=".25" d="M974,-771C974,-771 810,-771 810,-771 804,-771 798,-765 798,-759 798,-759 798,-747 798,-747 798,-741 804,-735 810,-735 810,-735 974,-735 974,-735 980,-735 986,-741 986,-747 986,-747 986,-759 986,-759 986,-765 980,-771 974,-771"/>
<text text-anchor="middle" x="892" y="-750.8" font-family="Vera Sans, DejaVu Sans, Liberation Sans, Arial, Helvetica, sans" font-size="9.00" fill="#000000">ccmod.ConvCnstrMOD_IterSM.__init__</text>
</a>
</g>
</g>
<!-- ccmod.ConvCnstrMOD_IterSM.__init__&#45;&gt;ccmod.ConvCnstrMODBase.__init__ -->
<g id="edge10" class="edge">
<title>ccmod.ConvCnstrMOD_IterSM.__init__&#45;&gt;ccmod.ConvCnstrMODBase.__init__</title>
<path fill="none" stroke="#af8cd8" stroke-width="2" d="M986.25,-753C994.6,-753 1003.1,-753 1011.5,-753"/>
<polygon fill="#af8cd8" stroke="#af8cd8" stroke-width="2" points="1011.7,-756.5001 1021.7,-753 1011.7,-749.5001 1011.7,-756.5001"/>
</g>
<!-- admm.ADMM.__init__ -->
<g id="node18" class="node">
<title>admm.ADMM.__init__</title>
<g id="a_node18"><a xlink:href="../../sporco.admm.admm.html#sporco.admm.admm.ADMM.__init__" xlink:title="admm.ADMM.__init__" target="_top">
<path fill="#8ed88c" stroke="#000000" stroke-width=".25" d="M1557.5,-511C1557.5,-511 1470.5,-511 1470.5,-511 1464.5,-511 1458.5,-505 1458.5,-499 1458.5,-499 1458.5,-487 1458.5,-487 1458.5,-481 1464.5,-475 1470.5,-475 1470.5,-475 1557.5,-475 1557.5,-475 1563.5,-475 1569.5,-481 1569.5,-487 1569.5,-487 1569.5,-499 1569.5,-499 1569.5,-505 1563.5,-511 1557.5,-511"/>
<text text-anchor="middle" x="1514" y="-490.8" font-family="Vera Sans, DejaVu Sans, Liberation Sans, Arial, Helvetica, sans" font-size="9.00" fill="#000000">admm.ADMM.__init__</text>
</a>
</g>
</g>
<!-- admm.ADMMEqual.__init__&#45;&gt;admm.ADMM.__init__ -->
<g id="edge30" class="edge">
<title>admm.ADMMEqual.__init__&#45;&gt;admm.ADMM.__init__</title>
<path fill="none" stroke="#8cd8a0" stroke-width="2" d="M1328.7,-351.32C1345.5,-381.11 1382.8,-439.83 1431,-471 1436.4,-474.51 1442.4,-477.46 1448.6,-479.94"/>
<polygon fill="#8cd8a0" stroke="#8cd8a0" stroke-width="2" points="1447.8055,-483.3735 1458.4,-483.46 1450.1718,-476.7856 1447.8055,-483.3735"/>
</g>
<!-- admm.ADMM.__init__&#45;&gt;cbpdn.ConvBPDN.uinit -->
<g id="edge5" class="edge">
<title>admm.ADMM.__init__&#45;&gt;cbpdn.ConvBPDN.uinit</title>
<path fill="none" stroke="#8ed88c" stroke-width="2" d="M1569.5,-485.47C1579.4,-482.21 1589.1,-477.58 1597,-471 1662.5,-416.5 1691.6,-314.38 1702.3,-265.07"/>
<polygon fill="#8ed88c" stroke="#8ed88c" stroke-width="2" points="1705.7627,-265.6034 1704.3,-255.11 1698.8997,-264.2252 1705.7627,-265.6034"/>
</g>
<!-- admm.ADMM.__init__&#45;&gt;ccmod.ConvCnstrMODBase.uinit -->
<g id="edge6" class="edge">
<title>admm.ADMM.__init__&#45;&gt;ccmod.ConvCnstrMODBase.uinit</title>
<path fill="none" stroke="#8ed88c" stroke-width="2" d="M1527.2,-511.34C1547.9,-540.01 1589.2,-597.09 1625,-645 1645.9,-673.04 1670.3,-704.84 1687.1,-726.63"/>
<polygon fill="#8ed88c" stroke="#8ed88c" stroke-width="2" points="1684.5047,-728.9946 1693.4,-734.75 1690.0353,-724.7036 1684.5047,-728.9946"/>
</g>
<!-- admm.ADMM.__init__&#45;&gt;admm.ADMM.set_attr -->
<g id="edge2" class="edge">
<title>admm.ADMM.__init__&#45;&gt;admm.ADMM.set_attr</title>
<path fill="none" stroke="#8ed88c" stroke-width="2" d="M1569.7,-507.39C1591.5,-513.02 1616.7,-519.53 1639.5,-525.44"/>
<polygon fill="#8ed88c" stroke="#8ed88c" stroke-width="2" points="1638.9435,-528.9107 1649.5,-528.01 1640.6859,-522.131 1638.9435,-528.9107"/>
</g>
<!-- admm.ADMM.yinit -->
<g id="node19" class="node">
<title>admm.ADMM.yinit</title>
<g id="a_node19"><a xlink:href="../../sporco.admm.admm.html#sporco.admm.admm.ADMM.yinit" xlink:title="admm.ADMM.yinit" target="_top">
<path fill="#8ed88c" stroke="#000000" stroke-width=".25" d="M1744.5,-615C1744.5,-615 1670.5,-615 1670.5,-615 1664.5,-615 1658.5,-609 1658.5,-603 1658.5,-603 1658.5,-591 1658.5,-591 1658.5,-585 1664.5,-579 1670.5,-579 1670.5,-579 1744.5,-579 1744.5,-579 1750.5,-579 1756.5,-585 1756.5,-591 1756.5,-591 1756.5,-603 1756.5,-603 1756.5,-609 1750.5,-615 1744.5,-615"/>
<text text-anchor="middle" x="1707.5" y="-594.8" font-family="Vera Sans, DejaVu Sans, Liberation Sans, Arial, Helvetica, sans" font-size="9.00" fill="#000000">admm.ADMM.yinit</text>
</a>
</g>
</g>
<!-- admm.ADMM.__init__&#45;&gt;admm.ADMM.yinit -->
<g id="edge3" class="edge">
<title>admm.ADMM.__init__&#45;&gt;admm.ADMM.yinit</title>
<path fill="none" stroke="#8ed88c" stroke-width="2" d="M1536.2,-511.29C1557.7,-528.36 1592,-553.61 1625,-570 1632.5,-573.71 1640.6,-577.08 1648.7,-580.08"/>
<polygon fill="#8ed88c" stroke="#8ed88c" stroke-width="2" points="1647.5054,-583.3698 1658.1,-583.44 1649.8616,-576.7782 1647.5054,-583.3698"/>
</g>
<!-- admm.ADMM.__init__&#45;&gt;admm.ADMM.set_dtype -->
<g id="edge4" class="edge">
<title>admm.ADMM.__init__&#45;&gt;admm.ADMM.set_dtype</title>
<path fill="none" stroke="#8ed88c" stroke-width="2" d="M1569.7,-491.85C1589.9,-491.43 1613.1,-490.95 1634.6,-490.51"/>
<polygon fill="#8ed88c" stroke="#8ed88c" stroke-width="2" points="1634.775,-494.0072 1644.7,-490.3 1634.6294,-487.0087 1634.775,-494.0072"/>
</g>
<!-- ccmod.DictionarySize.__init__ -->
<g id="node23" class="node">
<title>ccmod.DictionarySize.__init__</title>
<g id="a_node23"><a xlink:href="../../sporco.admm.ccmod.html#sporco.admm.ccmod.DictionarySize.__init__" xlink:title="ccmod.DictionarySize.__init__" target="_top">
<path fill="#d88cd8" stroke="#000000" stroke-width=".25" d="M1577,-429C1577,-429 1451,-429 1451,-429 1445,-429 1439,-423 1439,-417 1439,-417 1439,-405 1439,-405 1439,-399 1445,-393 1451,-393 1451,-393 1577,-393 1577,-393 1583,-393 1589,-399 1589,-405 1589,-405 1589,-417 1589,-417 1589,-423 1583,-429 1577,-429"/>
<text text-anchor="middle" x="1514" y="-408.8" font-family="Vera Sans, DejaVu Sans, Liberation Sans, Arial, Helvetica, sans" font-size="9.00" fill="#000000">ccmod.DictionarySize.__init__</text>
</a>
</g>
</g>
<!-- ccmod.ConvRepIndexing.__init__&#45;&gt;ccmod.DictionarySize.__init__ -->
<g id="edge31" class="edge">
<title>ccmod.ConvRepIndexing.__init__&#45;&gt;ccmod.DictionarySize.__init__</title>
<path fill="none" stroke="#c48cd8" stroke-width="2" d="M1401.1,-411C1410.2,-411 1419.5,-411 1428.6,-411"/>
<polygon fill="#c48cd8" stroke="#c48cd8" stroke-width="2" points="1428.8,-414.5001 1438.8,-411 1428.8,-407.5001 1428.8,-414.5001"/>
</g>
<!-- dictlrn._DictLearn_Meta.__call__ -->
<g id="node22" class="node">
<title>dictlrn._DictLearn_Meta.__call__</title>
<g id="a_node22"><a xlink:href="../../sporco.admm.dictlrn.html#sporco.admm.dictlrn._DictLearn_Meta.__call__" xlink:title="dictlrn._DictLearn_Meta.__call__" target="_top">
<path fill="#d88c8c" stroke="#000000" stroke-width=".25" d="M158,-317C158,-317 20,-317 20,-317 14,-317 8,-311 8,-305 8,-305 8,-293 8,-293 8,-287 14,-281 20,-281 20,-281 158,-281 158,-281 164,-281 170,-287 170,-293 170,-293 170,-305 170,-305 170,-311 164,-317 158,-317"/>
<text text-anchor="middle" x="89" y="-296.8" font-family="Vera Sans, DejaVu Sans, Liberation Sans, Arial, Helvetica, sans" font-size="9.00" fill="#000000">dictlrn._DictLearn_Meta.__call__</text>
</a>
</g>
</g>
<!-- dictlrn._DictLearn_Meta.__call__&#45;&gt;cbpdndl.ConvBPDNDictLearn.__init__ -->
<g id="edge11" class="edge">
<title>dictlrn._DictLearn_Meta.__call__&#45;&gt;cbpdndl.ConvBPDNDictLearn.__init__</title>
<path fill="none" stroke="#d88c8c" stroke-width="2" d="M170.3,-299C178.65,-299 187.21,-299 195.75,-299"/>
<polygon fill="#d88c8c" stroke="#d88c8c" stroke-width="2" points="195.75,-302.5001 205.75,-299 195.75,-295.5001 195.75,-302.5001"/>
</g>
<!-- ccmod.ConvCnstrMOD&#45;&gt;admm._ADMM_Meta.__call__ -->
<g id="edge12" class="edge">
<title>ccmod.ConvCnstrMOD&#45;&gt;admm._ADMM_Meta.__call__</title>
<path fill="none" stroke="#8c94d8" stroke-width="2" d="M563.71,-471.77C577.48,-468.95 592.37,-465.9 606.92,-462.92"/>
<polygon fill="#8c94d8" stroke="#8c94d8" stroke-width="2" points="607.8266,-466.307 616.92,-460.87 606.4208,-459.4496 607.8266,-466.307"/>
</g>
<!-- ccmod.ConvCnstrMOD&#45;&gt;admm._ADMM_Meta.__init__ -->
<g id="edge13" class="edge">
<title>ccmod.ConvCnstrMOD&#45;&gt;admm._ADMM_Meta.__init__</title>
<path fill="none" stroke="#8c94d8" stroke-width="2" d="M563.71,-489.15C577.74,-490.36 592.93,-491.67 607.74,-492.95"/>
<polygon fill="#8c94d8" stroke="#8c94d8" stroke-width="2" points="607.648,-496.4548 617.91,-493.82 608.2447,-489.4803 607.648,-496.4548"/>
</g>
</g>
</svg>
