<?xml version="1.0" encoding="UTF-8" standalone="no"?>
<!DOCTYPE svg PUBLIC "-//W3C//DTD SVG 1.1//EN"
 "http://www.w3.org/Graphics/SVG/1.1/DTD/svg11.dtd">
<!-- Generated by graphviz version 2.40.1 (20161225.0304)
 -->
<!-- Pages: 1 -->
<svg
 viewBox="0.00 0.00 1053.00 440.86" xmlns="http://www.w3.org/2000/svg" xmlns:xlink="http://www.w3.org/1999/xlink">
<g id="graph0" class="graph" transform="scale(1 1) rotate(0) translate(4 436.859)">
<polygon fill="transparent" stroke="transparent" points="-4,4 -4,-436.859 1049,-436.859 1049,4 -4,4"/>
<g id="clust1" class="cluster">
<title>cluster_admm.ADMMEqual</title>
<polygon fill="transparent" stroke="#8cd8d6" stroke-width="2" stroke-dasharray="1,5" points="568.5,-128.857 568.5,-198.859 721.5,-198.859 721.5,-128.857 568.5,-128.857"/>
<text text-anchor="middle" x="645" y="-187.659" font-family="Vera Sans, DejaVu Sans, Liberation Sans, Arial, Helvetica, sans" font-size="9.00" fill="#000000">admm.ADMMEqual</text>
</g>
<g id="clust2" class="cluster">
<title>cluster_admm._ADMM_Meta</title>
<polygon fill="transparent" stroke="#8c8fd8" stroke-width="2" stroke-dasharray="1,5" points="0,-362.859 0,-432.859 161,-432.859 161,-362.859 0,-362.859"/>
<text text-anchor="middle" x="80.5" y="-421.659" font-family="Vera Sans, DejaVu Sans, Liberation Sans, Arial, Helvetica, sans" font-size="9.00" fill="#000000">admm._ADMM_Meta</text>
</g>
<g id="clust3" class="cluster">
<title>cluster_cbpdn.ConvRepIndexing</title>
<polygon fill="transparent" stroke="#d88c91" stroke-width="2" stroke-dasharray="1,5" points="555.5,-206.859 555.5,-276.859 734.5,-276.859 734.5,-206.859 555.5,-206.859"/>
<text text-anchor="middle" x="645" y="-265.659" font-family="Vera Sans, DejaVu Sans, Liberation Sans, Arial, Helvetica, sans" font-size="9.00" fill="#000000">cbpdn.ConvRepIndexing</text>
</g>
<g id="clust4" class="cluster">
<title>cluster_cbpdn.GenericConvBPDN</title>
<polygon fill="transparent" stroke="#d88c8c" stroke-width="2" stroke-dasharray="1,5" points="349,-284.859 349,-354.859 737,-354.859 737,-284.859 349,-284.859"/>
<text text-anchor="middle" x="543" y="-343.659" font-family="Vera Sans, DejaVu Sans, Liberation Sans, Arial, Helvetica, sans" font-size="9.00" fill="#000000">cbpdn.GenericConvBPDN</text>
</g>
<g id="clust5" class="cluster">
<title>cluster_cbpdn.ConvBPDN</title>
<polygon fill="transparent" stroke="#d48cd8" stroke-width="2" stroke-dasharray="1,5" points="181,-362.859 181,-432.859 1042.5,-432.859 1042.5,-362.859 181,-362.859"/>
<text text-anchor="middle" x="611.75" y="-421.659" font-family="Vera Sans, DejaVu Sans, Liberation Sans, Arial, Helvetica, sans" font-size="9.00" fill="#000000">cbpdn.ConvBPDN</text>
</g>
<g id="clust6" class="cluster">
<title>cluster_admm.ADMM</title>
<polygon fill="transparent" stroke="#8ed88c" stroke-width="2" stroke-dasharray="1,5" points="757,-44.857 757,-222.859 1045,-222.859 1045,-44.857 757,-44.857"/>
<text text-anchor="middle" x="901" y="-211.659" font-family="Vera Sans, DejaVu Sans, Liberation Sans, Arial, Helvetica, sans" font-size="9.00" fill="#000000">admm.ADMM</text>
</g>
<!-- admm.ADMMEqual.__init__ -->
<g id="node1" class="node">
<title>admm.ADMMEqual.__init__</title>
<g id="a_node1"><a xlink:href="../../sporco.admm.admm.html#sporco.admm.admm.ADMMEqual.__init__" xlink:title="admm.ADMMEqual.__init__" target="_top">
<path fill="#8cd8d6" stroke="#000000" stroke-width=".25" d="M701.5,-172.859C701.5,-172.859 588.5,-172.859 588.5,-172.859 582.5,-172.859 576.5,-166.859 576.5,-160.859 576.5,-160.859 576.5,-148.859 576.5,-148.859 576.5,-142.859 582.5,-136.859 588.5,-136.859 588.5,-136.859 701.5,-136.859 701.5,-136.859 707.5,-136.859 713.5,-142.859 713.5,-148.859 713.5,-148.859 713.5,-160.859 713.5,-160.859 713.5,-166.859 707.5,-172.859 701.5,-172.859"/>
<text text-anchor="middle" x="645" y="-152.659" font-family="Vera Sans, DejaVu Sans, Liberation Sans, Arial, Helvetica, sans" font-size="9.00" fill="#000000">admm.ADMMEqual.__init__</text>
</a>
</g>
</g>
<!-- admm.ADMM.__init__ -->
<g id="node8" class="node">
<title>admm.ADMM.__init__</title>
<g id="a_node8"><a xlink:href="../../sporco.admm.admm.html#sporco.admm.admm.ADMM.__init__" xlink:title="admm.ADMM.__init__" target="_top">
<path fill="#8ed88c" stroke="#000000" stroke-width=".25" d="M864,-172.859C864,-172.859 777,-172.859 777,-172.859 771,-172.859 765,-166.859 765,-160.859 765,-160.859 765,-148.859 765,-148.859 765,-142.859 771,-136.859 777,-136.859 777,-136.859 864,-136.859 864,-136.859 870,-136.859 876,-142.859 876,-148.859 876,-148.859 876,-160.859 876,-160.859 876,-166.859 870,-172.859 864,-172.859"/>
<text text-anchor="middle" x="820.5" y="-152.659" font-family="Vera Sans, DejaVu Sans, Liberation Sans, Arial, Helvetica, sans" font-size="9.00" fill="#000000">admm.ADMM.__init__</text>
</a>
</g>
</g>
<!-- admm.ADMMEqual.__init__&#45;&gt;admm.ADMM.__init__ -->
<g id="edge10" class="edge">
<title>admm.ADMMEqual.__init__&#45;&gt;admm.ADMM.__init__</title>
<path fill="none" stroke="#8cd8d6" stroke-width="2" d="M713.61,-154.859C727.17,-154.859 741.37,-154.859 754.83,-154.859"/>
<polygon fill="#8cd8d6" stroke="#8cd8d6" stroke-width="2" points="754.95,-158.3591 764.95,-154.859 754.95,-151.3591 754.95,-158.3591"/>
</g>
<!-- admm._ADMM_Meta.__call__ -->
<g id="node2" class="node">
<title>admm._ADMM_Meta.__call__</title>
<g id="a_node2"><a xlink:href="../../sporco.admm.admm.html#sporco.admm.admm._ADMM_Meta.__call__" xlink:title="admm._ADMM_Meta.__call__" target="_top">
<path fill="#8c8fd8" stroke="#000000" stroke-width=".25" d="M141,-406.859C141,-406.859 20,-406.859 20,-406.859 14,-406.859 8,-400.859 8,-394.859 8,-394.859 8,-382.859 8,-382.859 8,-376.859 14,-370.859 20,-370.859 20,-370.859 141,-370.859 141,-370.859 147,-370.859 153,-376.859 153,-382.859 153,-382.859 153,-394.859 153,-394.859 153,-400.859 147,-406.859 141,-406.859"/>
<text text-anchor="middle" x="80.5" y="-386.659" font-family="Vera Sans, DejaVu Sans, Liberation Sans, Arial, Helvetica, sans" font-size="9.00" fill="#000000">admm._ADMM_Meta.__call__</text>
</a>
</g>
</g>
<!-- cbpdn.ConvBPDN.__init__ -->
<g id="node6" class="node">
<title>cbpdn.ConvBPDN.__init__</title>
<g id="a_node6"><a xlink:href="../../sporco.admm.cbpdn.html#sporco.admm.cbpdn.ConvBPDN.__init__" xlink:title="cbpdn.ConvBPDN.__init__" target="_top">
<path fill="#d48cd8" stroke="#000000" stroke-width=".25" d="M309,-406.859C309,-406.859 201,-406.859 201,-406.859 195,-406.859 189,-400.859 189,-394.859 189,-394.859 189,-382.859 189,-382.859 189,-376.859 195,-370.859 201,-370.859 201,-370.859 309,-370.859 309,-370.859 315,-370.859 321,-376.859 321,-382.859 321,-382.859 321,-394.859 321,-394.859 321,-400.859 315,-406.859 309,-406.859"/>
<text text-anchor="middle" x="255" y="-386.659" font-family="Vera Sans, DejaVu Sans, Liberation Sans, Arial, Helvetica, sans" font-size="9.00" fill="#000000">cbpdn.ConvBPDN.__init__</text>
</a>
</g>
</g>
<!-- admm._ADMM_Meta.__call__&#45;&gt;cbpdn.ConvBPDN.__init__ -->
<g id="edge5" class="edge">
<title>admm._ADMM_Meta.__call__&#45;&gt;cbpdn.ConvBPDN.__init__</title>
<path fill="none" stroke="#8c8fd8" stroke-width="2" d="M153.24,-388.859C161.62,-388.859 170.18,-388.859 178.6,-388.859"/>
<polygon fill="#8c8fd8" stroke="#8c8fd8" stroke-width="2" points="178.79,-392.3591 188.79,-388.859 178.79,-385.3591 178.79,-392.3591"/>
</g>
<!-- cbpdn.ConvRepIndexing.__init__ -->
<g id="node3" class="node">
<title>cbpdn.ConvRepIndexing.__init__</title>
<g id="a_node3"><a xlink:href="../../sporco.admm.cbpdn.html#sporco.admm.cbpdn.ConvRepIndexing.__init__" xlink:title="cbpdn.ConvRepIndexing.__init__" target="_top">
<path fill="#d88c91" stroke="#000000" stroke-width=".25" d="M714.5,-250.859C714.5,-250.859 575.5,-250.859 575.5,-250.859 569.5,-250.859 563.5,-244.859 563.5,-238.859 563.5,-238.859 563.5,-226.859 563.5,-226.859 563.5,-220.859 569.5,-214.859 575.5,-214.859 575.5,-214.859 714.5,-214.859 714.5,-214.859 720.5,-214.859 726.5,-220.859 726.5,-226.859 726.5,-226.859 726.5,-238.859 726.5,-238.859 726.5,-244.859 720.5,-250.859 714.5,-250.859"/>
<text text-anchor="middle" x="645" y="-230.659" font-family="Vera Sans, DejaVu Sans, Liberation Sans, Arial, Helvetica, sans" font-size="9.00" fill="#000000">cbpdn.ConvRepIndexing.__init__</text>
</a>
</g>
</g>
<!-- cbpdn.GenericConvBPDN.__init__ -->
<g id="node4" class="node">
<title>cbpdn.GenericConvBPDN.__init__</title>
<g id="a_node4"><a xlink:href="../../sporco.admm.cbpdn.html#sporco.admm.cbpdn.GenericConvBPDN.__init__" xlink:title="cbpdn.GenericConvBPDN.__init__" target="_top">
<path fill="#d88c8c" stroke="#000000" stroke-width=".25" d="M513,-328.859C513,-328.859 369,-328.859 369,-328.859 363,-328.859 357,-322.859 357,-316.859 357,-316.859 357,-304.859 357,-304.859 357,-298.859 363,-292.859 369,-292.859 369,-292.859 513,-292.859 513,-292.859 519,-292.859 525,-298.859 525,-304.859 525,-304.859 525,-316.859 525,-316.859 525,-322.859 519,-328.859 513,-328.859"/>
<text text-anchor="middle" x="441" y="-308.659" font-family="Vera Sans, DejaVu Sans, Liberation Sans, Arial, Helvetica, sans" font-size="9.00" fill="#000000">cbpdn.GenericConvBPDN.__init__</text>
</a>
</g>
</g>
<!-- cbpdn.GenericConvBPDN.__init__&#45;&gt;admm.ADMMEqual.__init__ -->
<g id="edge12" class="edge">
<title>cbpdn.GenericConvBPDN.__init__&#45;&gt;admm.ADMMEqual.__init__</title>
<path fill="none" stroke="#d88c8c" stroke-width="2" d="M457.57,-292.479C478.79,-269.639 517.36,-230.329 555.5,-202.859 568.29,-193.639 583.07,-185.009 596.88,-177.679"/>
<polygon fill="#d88c8c" stroke="#d88c8c" stroke-width="2" points="598.5239,-180.7691 605.78,-173.049 595.2933,-174.5592 598.5239,-180.7691"/>
</g>
<!-- cbpdn.GenericConvBPDN.__init__&#45;&gt;cbpdn.ConvRepIndexing.__init__ -->
<g id="edge11" class="edge">
<title>cbpdn.GenericConvBPDN.__init__&#45;&gt;cbpdn.ConvRepIndexing.__init__</title>
<path fill="none" stroke="#d88c8c" stroke-width="2" d="M488.31,-292.769C518.07,-281.389 556.65,-266.639 588.08,-254.619"/>
<polygon fill="#d88c8c" stroke="#d88c8c" stroke-width="2" points="589.4956,-257.825 597.59,-250.989 586.9993,-251.2853 589.4956,-257.825"/>
</g>
<!-- cbpdn.GenericConvBPDN.setdict -->
<g id="node5" class="node">
<title>cbpdn.GenericConvBPDN.setdict</title>
<g id="a_node5"><a xlink:href="../../sporco.admm.cbpdn.html#sporco.admm.cbpdn.GenericConvBPDN.setdict" xlink:title="cbpdn.GenericConvBPDN.setdict" target="_top">
<path fill="#d88c8c" stroke="#000000" stroke-width=".25" d="M717,-328.859C717,-328.859 573,-328.859 573,-328.859 567,-328.859 561,-322.859 561,-316.859 561,-316.859 561,-304.859 561,-304.859 561,-298.859 567,-292.859 573,-292.859 573,-292.859 717,-292.859 717,-292.859 723,-292.859 729,-298.859 729,-304.859 729,-304.859 729,-316.859 729,-316.859 729,-322.859 723,-328.859 717,-328.859"/>
<text text-anchor="middle" x="645" y="-308.659" font-family="Vera Sans, DejaVu Sans, Liberation Sans, Arial, Helvetica, sans" font-size="9.00" fill="#000000">cbpdn.GenericConvBPDN.setdict</text>
</a>
</g>
</g>
<!-- cbpdn.GenericConvBPDN.__init__&#45;&gt;cbpdn.GenericConvBPDN.setdict -->
<g id="edge1" class="edge">
<title>cbpdn.GenericConvBPDN.__init__&#45;&gt;cbpdn.GenericConvBPDN.setdict</title>
<path fill="none" stroke="#d88c8c" stroke-width="2" d="M525.15,-310.859C533.5,-310.859 542.02,-310.859 550.46,-310.859"/>
<polygon fill="#d88c8c" stroke="#d88c8c" stroke-width="2" points="550.71,-314.3591 560.71,-310.859 550.71,-307.3591 550.71,-314.3591"/>
</g>
<!-- cbpdn.ConvBPDN.__init__&#45;&gt;cbpdn.GenericConvBPDN.__init__ -->
<g id="edge8" class="edge">
<title>cbpdn.ConvBPDN.__init__&#45;&gt;cbpdn.GenericConvBPDN.__init__</title>
<path fill="none" stroke="#d48cd8" stroke-width="2" d="M298.14,-370.769C325.04,-359.489 359.84,-344.889 388.36,-332.929"/>
<polygon fill="#d48cd8" stroke="#d48cd8" stroke-width="2" points="389.8977,-336.0796 397.77,-328.989 387.1941,-329.6228 389.8977,-336.0796"/>
</g>
<!-- admm.ADMM.set_attr -->
<g id="node9" class="node">
<title>admm.ADMM.set_attr</title>
<g id="a_node9"><a xlink:href="../../sporco.admm.admm.html#sporco.admm.admm.ADMM.set_attr" xlink:title="admm.ADMM.set_attr" target="_top">
<path fill="#8ed88c" stroke="#000000" stroke-width=".25" d="M1020.5,-142.857C1020.5,-142.857 928.5,-142.857 928.5,-142.857 922.5,-142.857 916.5,-136.857 916.5,-130.857 916.5,-130.857 916.5,-118.857 916.5,-118.857 916.5,-112.857 922.5,-106.857 928.5,-106.857 928.5,-106.857 1020.5,-106.857 1020.5,-106.857 1026.5,-106.857 1032.5,-112.857 1032.5,-118.857 1032.5,-118.857 1032.5,-130.857 1032.5,-130.857 1032.5,-136.857 1026.5,-142.857 1020.5,-142.857"/>
<text text-anchor="middle" x="974.5" y="-122.657" font-family="Vera Sans, DejaVu Sans, Liberation Sans, Arial, Helvetica, sans" font-size="9.00" fill="#000000">admm.ADMM.set_attr</text>
</a>
</g>
</g>
<!-- cbpdn.ConvBPDN.__init__&#45;&gt;admm.ADMM.set_attr -->
<g id="edge6" class="edge">
<title>cbpdn.ConvBPDN.__init__&#45;&gt;admm.ADMM.set_attr</title>
<path fill="none" stroke="#d48cd8" stroke-width="2" d="M267.23,-370.839C303.6,-319.169 417.23,-171.209 555.5,-124.857 673.8,-85.194 821.68,-98.682 906.39,-111.902"/>
<polygon fill="#d48cd8" stroke="#d48cd8" stroke-width="2" points="905.9716,-115.3796 916.4,-113.509 907.0812,-108.4681 905.9716,-115.3796"/>
</g>
<!-- admm.ADMM.set_dtype -->
<g id="node10" class="node">
<title>admm.ADMM.set_dtype</title>
<g id="a_node10"><a xlink:href="../../sporco.admm.admm.html#sporco.admm.admm.ADMM.set_dtype" xlink:title="admm.ADMM.set_dtype" target="_top">
<path fill="#8ed88c" stroke="#000000" stroke-width=".25" d="M1025,-88.857C1025,-88.857 924,-88.857 924,-88.857 918,-88.857 912,-82.857 912,-76.857 912,-76.857 912,-64.857 912,-64.857 912,-58.857 918,-52.857 924,-52.857 924,-52.857 1025,-52.857 1025,-52.857 1031,-52.857 1037,-58.857 1037,-64.857 1037,-64.857 1037,-76.857 1037,-76.857 1037,-82.857 1031,-88.857 1025,-88.857"/>
<text text-anchor="middle" x="974.5" y="-68.657" font-family="Vera Sans, DejaVu Sans, Liberation Sans, Arial, Helvetica, sans" font-size="9.00" fill="#000000">admm.ADMM.set_dtype</text>
</a>
</g>
</g>
<!-- cbpdn.ConvBPDN.__init__&#45;&gt;admm.ADMM.set_dtype -->
<g id="edge7" class="edge">
<title>cbpdn.ConvBPDN.__init__&#45;&gt;admm.ADMM.set_dtype</title>
<path fill="none" stroke="#d48cd8" stroke-width="2" d="M255.88,-370.679C259.2,-323.569 274.94,-196.809 349,-133.859 506.48,0 773.25,-29.7059 901.45,-54.236"/>
<polygon fill="#d48cd8" stroke="#d48cd8" stroke-width="2" points="901.0636,-57.7268 911.55,-56.215 902.4096,-50.8574 901.0636,-57.7268"/>
</g>
<!-- cbpdn.ConvBPDN.uinit -->
<g id="node7" class="node">
<title>cbpdn.ConvBPDN.uinit</title>
<g id="a_node7"><a xlink:href="../../sporco.admm.cbpdn.html#sporco.admm.cbpdn.ConvBPDN.uinit" xlink:title="cbpdn.ConvBPDN.uinit" target="_top">
<path fill="#d48cd8" stroke="#000000" stroke-width=".25" d="M1022.5,-406.859C1022.5,-406.859 926.5,-406.859 926.5,-406.859 920.5,-406.859 914.5,-400.859 914.5,-394.859 914.5,-394.859 914.5,-382.859 914.5,-382.859 914.5,-376.859 920.5,-370.859 926.5,-370.859 926.5,-370.859 1022.5,-370.859 1022.5,-370.859 1028.5,-370.859 1034.5,-376.859 1034.5,-382.859 1034.5,-382.859 1034.5,-394.859 1034.5,-394.859 1034.5,-400.859 1028.5,-406.859 1022.5,-406.859"/>
<text text-anchor="middle" x="974.5" y="-386.659" font-family="Vera Sans, DejaVu Sans, Liberation Sans, Arial, Helvetica, sans" font-size="9.00" fill="#000000">cbpdn.ConvBPDN.uinit</text>
</a>
</g>
</g>
<!-- admm.ADMM.__init__&#45;&gt;cbpdn.ConvBPDN.uinit -->
<g id="edge9" class="edge">
<title>admm.ADMM.__init__&#45;&gt;cbpdn.ConvBPDN.uinit</title>
<path fill="none" stroke="#8ed88c" stroke-width="2" d="M832.58,-173.219C859.63,-214.309 925.14,-313.849 956.79,-361.949"/>
<polygon fill="#8ed88c" stroke="#8ed88c" stroke-width="2" points="954.0486,-364.1501 962.47,-370.579 959.8958,-360.3016 954.0486,-364.1501"/>
</g>
<!-- admm.ADMM.__init__&#45;&gt;admm.ADMM.set_attr -->
<g id="edge2" class="edge">
<title>admm.ADMM.__init__&#45;&gt;admm.ADMM.set_attr</title>
<path fill="none" stroke="#8ed88c" stroke-width="2" d="M876.1,-144.029C885.92,-142.109 896.25,-140.099 906.36,-138.129"/>
<polygon fill="#8ed88c" stroke="#8ed88c" stroke-width="2" points="907.2418,-141.5232 916.39,-136.179 905.9058,-134.6518 907.2418,-141.5232"/>
</g>
<!-- admm.ADMM.__init__&#45;&gt;admm.ADMM.set_dtype -->
<g id="edge3" class="edge">
<title>admm.ADMM.__init__&#45;&gt;admm.ADMM.set_dtype</title>
<path fill="none" stroke="#8ed88c" stroke-width="2" d="M847.1,-136.809C865.04,-125.015 889.45,-109.666 912,-97.857 914.93,-96.322 917.97,-94.799 921.06,-93.305"/>
<polygon fill="#8ed88c" stroke="#8ed88c" stroke-width="2" points="922.8335,-96.3391 930.4,-88.923 919.8602,-90.0019 922.8335,-96.3391"/>
</g>
<!-- admm.ADMM.yinit -->
<g id="node11" class="node">
<title>admm.ADMM.yinit</title>
<g id="a_node11"><a xlink:href="../../sporco.admm.admm.html#sporco.admm.admm.ADMM.yinit" xlink:title="admm.ADMM.yinit" target="_top">
<path fill="#8ed88c" stroke="#000000" stroke-width=".25" d="M1011.5,-196.859C1011.5,-196.859 937.5,-196.859 937.5,-196.859 931.5,-196.859 925.5,-190.859 925.5,-184.859 925.5,-184.859 925.5,-172.859 925.5,-172.859 925.5,-166.859 931.5,-160.859 937.5,-160.859 937.5,-160.859 1011.5,-160.859 1011.5,-160.859 1017.5,-160.859 1023.5,-166.859 1023.5,-172.859 1023.5,-172.859 1023.5,-184.859 1023.5,-184.859 1023.5,-190.859 1017.5,-196.859 1011.5,-196.859"/>
<text text-anchor="middle" x="974.5" y="-176.659" font-family="Vera Sans, DejaVu Sans, Liberation Sans, Arial, Helvetica, sans" font-size="9.00" fill="#000000">admm.ADMM.yinit</text>
</a>
</g>
</g>
<!-- admm.ADMM.__init__&#45;&gt;admm.ADMM.yinit -->
<g id="edge4" class="edge">
<title>admm.ADMM.__init__&#45;&gt;admm.ADMM.yinit</title>
<path fill="none" stroke="#8ed88c" stroke-width="2" d="M876.1,-163.519C888.81,-165.499 902.37,-167.619 915.23,-169.619"/>
<polygon fill="#8ed88c" stroke="#8ed88c" stroke-width="2" points="914.94,-173.116 925.36,-171.199 916.0189,-166.1996 914.94,-173.116"/>
</g>
</g>
</svg>
