<?xml version="1.0" encoding="UTF-8" standalone="no"?>
<!DOCTYPE svg PUBLIC "-//W3C//DTD SVG 1.1//EN"
 "http://www.w3.org/Graphics/SVG/1.1/DTD/svg11.dtd">
<!-- Generated by graphviz version 2.40.1 (20161225.0304)
 -->
<!-- Pages: 1 -->
<svg
 viewBox="0.00 0.00 734.00 396.00" xmlns="http://www.w3.org/2000/svg" xmlns:xlink="http://www.w3.org/1999/xlink">
<g id="graph0" class="graph" transform="scale(1 1) rotate(0) translate(4 392)">
<polygon fill="transparent" stroke="transparent" points="-4,4 -4,-392 730,-392 730,4 -4,4"/>
<g id="clust1" class="cluster">
<title>cluster_admm._ADMM_Meta</title>
<polygon fill="transparent" stroke="#8ca8d8" stroke-width="2" stroke-dasharray="1,5" points="0,-318 0,-388 161,-388 161,-318 0,-318"/>
<text text-anchor="middle" x="80.5" y="-376.8" font-family="Vera Sans, DejaVu Sans, Liberation Sans, Arial, Helvetica, sans" font-size="9.00" fill="#000000">admm._ADMM_Meta</text>
</g>
<g id="clust2" class="cluster">
<title>cluster_cbpdntv.ConvBPDNRecTV</title>
<polygon fill="transparent" stroke="#d88c8c" stroke-width="2" stroke-dasharray="1,5" points="181,-318 181,-388 565,-388 565,-318 181,-318"/>
<text text-anchor="middle" x="373" y="-376.8" font-family="Vera Sans, DejaVu Sans, Liberation Sans, Arial, Helvetica, sans" font-size="9.00" fill="#000000">cbpdntv.ConvBPDNRecTV</text>
</g>
<g id="clust3" class="cluster">
<title>cluster_cbpdn.ConvRepIndexing</title>
<polygon fill="transparent" stroke="#d88cc3" stroke-width="2" stroke-dasharray="1,5" points="384.5,0 384.5,-70 563.5,-70 563.5,0 384.5,0"/>
<text text-anchor="middle" x="474" y="-58.8" font-family="Vera Sans, DejaVu Sans, Liberation Sans, Arial, Helvetica, sans" font-size="9.00" fill="#000000">cbpdn.ConvRepIndexing</text>
</g>
<g id="clust4" class="cluster">
<title>cluster_admm.ADMM</title>
<polygon fill="transparent" stroke="#8ed88c" stroke-width="2" stroke-dasharray="1,5" points="410.5,-78 410.5,-310 726,-310 726,-78 410.5,-78"/>
<text text-anchor="middle" x="568.25" y="-298.8" font-family="Vera Sans, DejaVu Sans, Liberation Sans, Arial, Helvetica, sans" font-size="9.00" fill="#000000">admm.ADMM</text>
</g>
<!-- admm._ADMM_Meta.__call__ -->
<g id="node1" class="node">
<title>admm._ADMM_Meta.__call__</title>
<g id="a_node1"><a xlink:href="../../sporco.admm.admm.html#sporco.admm.admm._ADMM_Meta.__call__" xlink:title="admm._ADMM_Meta.__call__" target="_top">
<path fill="#8ca8d8" stroke="#000000" stroke-width=".25" d="M141,-362C141,-362 20,-362 20,-362 14,-362 8,-356 8,-350 8,-350 8,-338 8,-338 8,-332 14,-326 20,-326 20,-326 141,-326 141,-326 147,-326 153,-332 153,-338 153,-338 153,-350 153,-350 153,-356 147,-362 141,-362"/>
<text text-anchor="middle" x="80.5" y="-341.8" font-family="Vera Sans, DejaVu Sans, Liberation Sans, Arial, Helvetica, sans" font-size="9.00" fill="#000000">admm._ADMM_Meta.__call__</text>
</a>
</g>
</g>
<!-- cbpdntv.ConvBPDNRecTV.__init__ -->
<g id="node2" class="node">
<title>cbpdntv.ConvBPDNRecTV.__init__</title>
<g id="a_node2"><a xlink:href="../../sporco.admm.cbpdntv.html#sporco.admm.cbpdntv.ConvBPDNRecTV.__init__" xlink:title="cbpdntv.ConvBPDNRecTV.__init__" target="_top">
<path fill="#d88c8c" stroke="#000000" stroke-width=".25" d="M343,-362C343,-362 201,-362 201,-362 195,-362 189,-356 189,-350 189,-350 189,-338 189,-338 189,-332 195,-326 201,-326 201,-326 343,-326 343,-326 349,-326 355,-332 355,-338 355,-338 355,-350 355,-350 355,-356 349,-362 343,-362"/>
<text text-anchor="middle" x="272" y="-341.8" font-family="Vera Sans, DejaVu Sans, Liberation Sans, Arial, Helvetica, sans" font-size="9.00" fill="#000000">cbpdntv.ConvBPDNRecTV.__init__</text>
</a>
</g>
</g>
<!-- admm._ADMM_Meta.__call__&#45;&gt;cbpdntv.ConvBPDNRecTV.__init__ -->
<g id="edge6" class="edge">
<title>admm._ADMM_Meta.__call__&#45;&gt;cbpdntv.ConvBPDNRecTV.__init__</title>
<path fill="none" stroke="#8ca8d8" stroke-width="2" d="M153.17,-344C161.54,-344 170.15,-344 178.74,-344"/>
<polygon fill="#8ca8d8" stroke="#8ca8d8" stroke-width="2" points="178.79,-347.5001 188.79,-344 178.79,-340.5001 178.79,-347.5001"/>
</g>
<!-- cbpdntv.ConvBPDNRecTV.setdict -->
<g id="node3" class="node">
<title>cbpdntv.ConvBPDNRecTV.setdict</title>
<g id="a_node3"><a xlink:href="../../sporco.admm.cbpdntv.html#sporco.admm.cbpdntv.ConvBPDNRecTV.setdict" xlink:title="cbpdntv.ConvBPDNRecTV.setdict" target="_top">
<path fill="#d88c8c" stroke="#000000" stroke-width=".25" d="M545,-362C545,-362 403,-362 403,-362 397,-362 391,-356 391,-350 391,-350 391,-338 391,-338 391,-332 397,-326 403,-326 403,-326 545,-326 545,-326 551,-326 557,-332 557,-338 557,-338 557,-350 557,-350 557,-356 551,-362 545,-362"/>
<text text-anchor="middle" x="474" y="-341.8" font-family="Vera Sans, DejaVu Sans, Liberation Sans, Arial, Helvetica, sans" font-size="9.00" fill="#000000">cbpdntv.ConvBPDNRecTV.setdict</text>
</a>
</g>
</g>
<!-- cbpdntv.ConvBPDNRecTV.__init__&#45;&gt;cbpdntv.ConvBPDNRecTV.setdict -->
<g id="edge1" class="edge">
<title>cbpdntv.ConvBPDNRecTV.__init__&#45;&gt;cbpdntv.ConvBPDNRecTV.setdict</title>
<path fill="none" stroke="#d88c8c" stroke-width="2" d="M355.04,-344C363.56,-344 372.26,-344 380.89,-344"/>
<polygon fill="#d88c8c" stroke="#d88c8c" stroke-width="2" points="380.96,-347.5001 390.96,-344 380.96,-340.5001 380.96,-347.5001"/>
</g>
<!-- cbpdn.ConvRepIndexing.__init__ -->
<g id="node4" class="node">
<title>cbpdn.ConvRepIndexing.__init__</title>
<g id="a_node4"><a xlink:href="../../sporco.admm.cbpdn.html#sporco.admm.cbpdn.ConvRepIndexing.__init__" xlink:title="cbpdn.ConvRepIndexing.__init__" target="_top">
<path fill="#d88cc3" stroke="#000000" stroke-width=".25" d="M543.5,-44C543.5,-44 404.5,-44 404.5,-44 398.5,-44 392.5,-38 392.5,-32 392.5,-32 392.5,-20 392.5,-20 392.5,-14 398.5,-8 404.5,-8 404.5,-8 543.5,-8 543.5,-8 549.5,-8 555.5,-14 555.5,-20 555.5,-20 555.5,-32 555.5,-32 555.5,-38 549.5,-44 543.5,-44"/>
<text text-anchor="middle" x="474" y="-23.8" font-family="Vera Sans, DejaVu Sans, Liberation Sans, Arial, Helvetica, sans" font-size="9.00" fill="#000000">cbpdn.ConvRepIndexing.__init__</text>
</a>
</g>
</g>
<!-- cbpdntv.ConvBPDNRecTV.__init__&#45;&gt;cbpdn.ConvRepIndexing.__init__ -->
<g id="edge9" class="edge">
<title>cbpdntv.ConvBPDNRecTV.__init__&#45;&gt;cbpdn.ConvRepIndexing.__init__</title>
<path fill="none" stroke="#d88c8c" stroke-width="2" d="M275.16,-325.99C284.2,-279.1 314.22,-151.49 384.5,-74 393.56,-64.009 405.2,-55.703 417.07,-48.967"/>
<polygon fill="#d88c8c" stroke="#d88c8c" stroke-width="2" points="418.97,-51.9201 426.14,-44.12 415.6707,-45.7464 418.97,-51.9201"/>
</g>
<!-- admm.ADMM.__init__ -->
<g id="node5" class="node">
<title>admm.ADMM.__init__</title>
<g id="a_node5"><a xlink:href="../../sporco.admm.admm.html#sporco.admm.admm.ADMM.__init__" xlink:title="admm.ADMM.__init__" target="_top">
<path fill="#8ed88c" stroke="#000000" stroke-width=".25" d="M517.5,-230C517.5,-230 430.5,-230 430.5,-230 424.5,-230 418.5,-224 418.5,-218 418.5,-218 418.5,-206 418.5,-206 418.5,-200 424.5,-194 430.5,-194 430.5,-194 517.5,-194 517.5,-194 523.5,-194 529.5,-200 529.5,-206 529.5,-206 529.5,-218 529.5,-218 529.5,-224 523.5,-230 517.5,-230"/>
<text text-anchor="middle" x="474" y="-209.8" font-family="Vera Sans, DejaVu Sans, Liberation Sans, Arial, Helvetica, sans" font-size="9.00" fill="#000000">admm.ADMM.__init__</text>
</a>
</g>
</g>
<!-- cbpdntv.ConvBPDNRecTV.__init__&#45;&gt;admm.ADMM.__init__ -->
<g id="edge7" class="edge">
<title>cbpdntv.ConvBPDNRecTV.__init__&#45;&gt;admm.ADMM.__init__</title>
<path fill="none" stroke="#d88c8c" stroke-width="2" d="M299.66,-325.92C335.53,-302.49 398.15,-261.56 437.77,-235.67"/>
<polygon fill="#d88c8c" stroke="#d88c8c" stroke-width="2" points="439.8888,-238.4667 446.35,-230.07 436.0628,-232.6047 439.8888,-238.4667"/>
</g>
<!-- admm.ADMM.set_attr -->
<g id="node7" class="node">
<title>admm.ADMM.set_attr</title>
<g id="a_node7"><a xlink:href="../../sporco.admm.admm.html#sporco.admm.admm.ADMM.set_attr" xlink:title="admm.ADMM.set_attr" target="_top">
<path fill="#8ed88c" stroke="#000000" stroke-width=".25" d="M701.5,-122C701.5,-122 609.5,-122 609.5,-122 603.5,-122 597.5,-116 597.5,-110 597.5,-110 597.5,-98 597.5,-98 597.5,-92 603.5,-86 609.5,-86 609.5,-86 701.5,-86 701.5,-86 707.5,-86 713.5,-92 713.5,-98 713.5,-98 713.5,-110 713.5,-110 713.5,-116 707.5,-122 701.5,-122"/>
<text text-anchor="middle" x="655.5" y="-101.8" font-family="Vera Sans, DejaVu Sans, Liberation Sans, Arial, Helvetica, sans" font-size="9.00" fill="#000000">admm.ADMM.set_attr</text>
</a>
</g>
</g>
<!-- cbpdntv.ConvBPDNRecTV.__init__&#45;&gt;admm.ADMM.set_attr -->
<g id="edge8" class="edge">
<title>cbpdntv.ConvBPDNRecTV.__init__&#45;&gt;admm.ADMM.set_attr</title>
<path fill="none" stroke="#d88c8c" stroke-width="2" d="M279.81,-326C295.04,-293 331.9,-222.77 384.5,-185 444.99,-141.57 528.91,-121.17 587.27,-111.75"/>
<polygon fill="#d88c8c" stroke="#d88c8c" stroke-width="2" points="588.1514,-115.1554 597.5,-110.17 587.0829,-108.2375 588.1514,-115.1554"/>
</g>
<!-- admm.ADMM.uinit -->
<g id="node6" class="node">
<title>admm.ADMM.uinit</title>
<g id="a_node6"><a xlink:href="../../sporco.admm.admm.html#sporco.admm.admm.ADMM.uinit" xlink:title="admm.ADMM.uinit" target="_top">
<path fill="#8ed88c" stroke="#000000" stroke-width=".25" d="M693,-284C693,-284 618,-284 618,-284 612,-284 606,-278 606,-272 606,-272 606,-260 606,-260 606,-254 612,-248 618,-248 618,-248 693,-248 693,-248 699,-248 705,-254 705,-260 705,-260 705,-272 705,-272 705,-278 699,-284 693,-284"/>
<text text-anchor="middle" x="655.5" y="-263.8" font-family="Vera Sans, DejaVu Sans, Liberation Sans, Arial, Helvetica, sans" font-size="9.00" fill="#000000">admm.ADMM.uinit</text>
</a>
</g>
</g>
<!-- admm.ADMM.__init__&#45;&gt;admm.ADMM.uinit -->
<g id="edge2" class="edge">
<title>admm.ADMM.__init__&#45;&gt;admm.ADMM.uinit</title>
<path fill="none" stroke="#8ed88c" stroke-width="2" d="M529.94,-228.64C550.98,-234.9 574.97,-242.04 596.31,-248.39"/>
<polygon fill="#8ed88c" stroke="#8ed88c" stroke-width="2" points="595.3173,-251.7462 605.9,-251.24 597.3114,-245.0362 595.3173,-251.7462"/>
</g>
<!-- admm.ADMM.__init__&#45;&gt;admm.ADMM.set_attr -->
<g id="edge3" class="edge">
<title>admm.ADMM.__init__&#45;&gt;admm.ADMM.set_attr</title>
<path fill="none" stroke="#8ed88c" stroke-width="2" d="M500.15,-193.81C532.22,-171.57 583.5,-136.22 593,-131 595.85,-129.43 598.81,-127.89 601.82,-126.39"/>
<polygon fill="#8ed88c" stroke="#8ed88c" stroke-width="2" points="603.4544,-129.4878 610.95,-122 600.421,-123.1792 603.4544,-129.4878"/>
</g>
<!-- admm.ADMM.set_dtype -->
<g id="node8" class="node">
<title>admm.ADMM.set_dtype</title>
<g id="a_node8"><a xlink:href="../../sporco.admm.admm.html#sporco.admm.admm.ADMM.set_dtype" xlink:title="admm.ADMM.set_dtype" target="_top">
<path fill="#8ed88c" stroke="#000000" stroke-width=".25" d="M706,-176C706,-176 605,-176 605,-176 599,-176 593,-170 593,-164 593,-164 593,-152 593,-152 593,-146 599,-140 605,-140 605,-140 706,-140 706,-140 712,-140 718,-146 718,-152 718,-152 718,-164 718,-164 718,-170 712,-176 706,-176"/>
<text text-anchor="middle" x="655.5" y="-155.8" font-family="Vera Sans, DejaVu Sans, Liberation Sans, Arial, Helvetica, sans" font-size="9.00" fill="#000000">admm.ADMM.set_dtype</text>
</a>
</g>
</g>
<!-- admm.ADMM.__init__&#45;&gt;admm.ADMM.set_dtype -->
<g id="edge4" class="edge">
<title>admm.ADMM.__init__&#45;&gt;admm.ADMM.set_dtype</title>
<path fill="none" stroke="#8ed88c" stroke-width="2" d="M529.94,-195.36C547.33,-190.18 566.73,-184.41 584.99,-178.98"/>
<polygon fill="#8ed88c" stroke="#8ed88c" stroke-width="2" points="586.114,-182.2973 594.7,-176.09 584.1171,-175.5881 586.114,-182.2973"/>
</g>
<!-- admm.ADMM.yinit -->
<g id="node9" class="node">
<title>admm.ADMM.yinit</title>
<g id="a_node9"><a xlink:href="../../sporco.admm.admm.html#sporco.admm.admm.ADMM.yinit" xlink:title="admm.ADMM.yinit" target="_top">
<path fill="#8ed88c" stroke="#000000" stroke-width=".25" d="M692.5,-230C692.5,-230 618.5,-230 618.5,-230 612.5,-230 606.5,-224 606.5,-218 606.5,-218 606.5,-206 606.5,-206 606.5,-200 612.5,-194 618.5,-194 618.5,-194 692.5,-194 692.5,-194 698.5,-194 704.5,-200 704.5,-206 704.5,-206 704.5,-218 704.5,-218 704.5,-224 698.5,-230 692.5,-230"/>
<text text-anchor="middle" x="655.5" y="-209.8" font-family="Vera Sans, DejaVu Sans, Liberation Sans, Arial, Helvetica, sans" font-size="9.00" fill="#000000">admm.ADMM.yinit</text>
</a>
</g>
</g>
<!-- admm.ADMM.__init__&#45;&gt;admm.ADMM.yinit -->
<g id="edge5" class="edge">
<title>admm.ADMM.__init__&#45;&gt;admm.ADMM.yinit</title>
<path fill="none" stroke="#8ed88c" stroke-width="2" d="M529.94,-212C550.88,-212 574.74,-212 596,-212"/>
<polygon fill="#8ed88c" stroke="#8ed88c" stroke-width="2" points="596.2,-215.5001 606.2,-212 596.2,-208.5001 596.2,-215.5001"/>
</g>
</g>
</svg>
