<?xml version="1.0" encoding="UTF-8" standalone="no"?>
<!DOCTYPE svg PUBLIC "-//W3C//DTD SVG 1.1//EN"
 "http://www.w3.org/Graphics/SVG/1.1/DTD/svg11.dtd">
<!-- Generated by graphviz version 2.40.1 (20161225.0304)
 -->
<!-- Pages: 1 -->
<svg
 viewBox="0.00 0.00 1169.00 312.00" xmlns="http://www.w3.org/2000/svg" xmlns:xlink="http://www.w3.org/1999/xlink">
<g id="graph0" class="graph" transform="scale(1 1) rotate(0) translate(4 308)">
<polygon fill="transparent" stroke="transparent" points="-4,4 -4,-308 1165,-308 1165,4 -4,4"/>
<g id="clust1" class="cluster">
<title>cluster_admm.ADMMTwoBlockCnstrnt</title>
<polygon fill="transparent" stroke="#8cd8d6" stroke-width="2" stroke-dasharray="1,5" points="611,-78 611,-148 814,-148 814,-78 611,-78"/>
<text text-anchor="middle" x="712.5" y="-136.8" font-family="Vera Sans, DejaVu Sans, Liberation Sans, Arial, Helvetica, sans" font-size="9.00" fill="#000000">admm.ADMMTwoBlockCnstrnt</text>
</g>
<g id="clust3" class="cluster">
<title>cluster_cbpdn.ConvTwoBlockCnstrnt</title>
<polygon fill="transparent" stroke="#d88c8c" stroke-width="2" stroke-dasharray="1,5" points="393,-156 393,-226 811.5,-226 811.5,-156 393,-156"/>
<text text-anchor="middle" x="602.25" y="-214.8" font-family="Vera Sans, DejaVu Sans, Liberation Sans, Arial, Helvetica, sans" font-size="9.00" fill="#000000">cbpdn.ConvTwoBlockCnstrnt</text>
</g>
<g id="clust2" class="cluster">
<title>cluster_admm._ADMM_Meta</title>
<polygon fill="transparent" stroke="#8c8fd8" stroke-width="2" stroke-dasharray="1,5" points="0,-234 0,-304 161,-304 161,-234 0,-234"/>
<text text-anchor="middle" x="80.5" y="-292.8" font-family="Vera Sans, DejaVu Sans, Liberation Sans, Arial, Helvetica, sans" font-size="9.00" fill="#000000">admm._ADMM_Meta</text>
</g>
<g id="clust4" class="cluster">
<title>cluster_cbpdn.ConvRepIndexing</title>
<polygon fill="transparent" stroke="#d88c91" stroke-width="2" stroke-dasharray="1,5" points="623,0 623,-70 802,-70 802,0 623,0"/>
<text text-anchor="middle" x="712.5" y="-58.8" font-family="Vera Sans, DejaVu Sans, Liberation Sans, Arial, Helvetica, sans" font-size="9.00" fill="#000000">cbpdn.ConvRepIndexing</text>
</g>
<g id="clust5" class="cluster">
<title>cluster_admm.ADMM</title>
<polygon fill="transparent" stroke="#8ed88c" stroke-width="2" stroke-dasharray="1,5" points="834,-36 834,-214 1141.5,-214 1141.5,-36 834,-36"/>
<text text-anchor="middle" x="987.75" y="-202.8" font-family="Vera Sans, DejaVu Sans, Liberation Sans, Arial, Helvetica, sans" font-size="9.00" fill="#000000">admm.ADMM</text>
</g>
<g id="clust6" class="cluster">
<title>cluster_cbpdn.ConvBPDNMaskDcpl</title>
<polygon fill="transparent" stroke="#d48cd8" stroke-width="2" stroke-dasharray="1,5" points="181,-234 181,-304 1161,-304 1161,-234 181,-234"/>
<text text-anchor="middle" x="671" y="-292.8" font-family="Vera Sans, DejaVu Sans, Liberation Sans, Arial, Helvetica, sans" font-size="9.00" fill="#000000">cbpdn.ConvBPDNMaskDcpl</text>
</g>
<!-- admm.ADMMTwoBlockCnstrnt.__init__ -->
<g id="node1" class="node">
<title>admm.ADMMTwoBlockCnstrnt.__init__</title>
<g id="a_node1"><a xlink:href="../../sporco.admm.admm.html#sporco.admm.admm.ADMMTwoBlockCnstrnt.__init__" xlink:title="admm.ADMMTwoBlockCnstrnt.__init__" target="_top">
<path fill="#8cd8d6" stroke="#000000" stroke-width=".25" d="M794,-122C794,-122 631,-122 631,-122 625,-122 619,-116 619,-110 619,-110 619,-98 619,-98 619,-92 625,-86 631,-86 631,-86 794,-86 794,-86 800,-86 806,-92 806,-98 806,-98 806,-110 806,-110 806,-116 800,-122 794,-122"/>
<text text-anchor="middle" x="712.5" y="-101.8" font-family="Vera Sans, DejaVu Sans, Liberation Sans, Arial, Helvetica, sans" font-size="9.00" fill="#000000">admm.ADMMTwoBlockCnstrnt.__init__</text>
</a>
</g>
</g>
<!-- admm.ADMM.__init__ -->
<g id="node6" class="node">
<title>admm.ADMM.__init__</title>
<g id="a_node6"><a xlink:href="../../sporco.admm.admm.html#sporco.admm.admm.ADMM.__init__" xlink:title="admm.ADMM.__init__" target="_top">
<path fill="#8ed88c" stroke="#000000" stroke-width=".25" d="M941,-134C941,-134 854,-134 854,-134 848,-134 842,-128 842,-122 842,-122 842,-110 842,-110 842,-104 848,-98 854,-98 854,-98 941,-98 941,-98 947,-98 953,-104 953,-110 953,-110 953,-122 953,-122 953,-128 947,-134 941,-134"/>
<text text-anchor="middle" x="897.5" y="-113.8" font-family="Vera Sans, DejaVu Sans, Liberation Sans, Arial, Helvetica, sans" font-size="9.00" fill="#000000">admm.ADMM.__init__</text>
</a>
</g>
</g>
<!-- admm.ADMMTwoBlockCnstrnt.__init__&#45;&gt;admm.ADMM.__init__ -->
<g id="edge5" class="edge">
<title>admm.ADMMTwoBlockCnstrnt.__init__&#45;&gt;admm.ADMM.__init__</title>
<path fill="none" stroke="#8cd8d6" stroke-width="2" d="M806.08,-110.07C814.75,-110.63 823.4,-111.19 831.74,-111.73"/>
<polygon fill="#8cd8d6" stroke="#8cd8d6" stroke-width="2" points="831.5238,-115.2232 841.73,-112.38 831.9784,-108.238 831.5238,-115.2232"/>
</g>
<!-- admm._ADMM_Meta.__call__ -->
<g id="node2" class="node">
<title>admm._ADMM_Meta.__call__</title>
<g id="a_node2"><a xlink:href="../../sporco.admm.admm.html#sporco.admm.admm._ADMM_Meta.__call__" xlink:title="admm._ADMM_Meta.__call__" target="_top">
<path fill="#8c8fd8" stroke="#000000" stroke-width=".25" d="M141,-278C141,-278 20,-278 20,-278 14,-278 8,-272 8,-266 8,-266 8,-254 8,-254 8,-248 14,-242 20,-242 20,-242 141,-242 141,-242 147,-242 153,-248 153,-254 153,-254 153,-266 153,-266 153,-272 147,-278 141,-278"/>
<text text-anchor="middle" x="80.5" y="-257.8" font-family="Vera Sans, DejaVu Sans, Liberation Sans, Arial, Helvetica, sans" font-size="9.00" fill="#000000">admm._ADMM_Meta.__call__</text>
</a>
</g>
</g>
<!-- cbpdn.ConvBPDNMaskDcpl.__init__ -->
<g id="node11" class="node">
<title>cbpdn.ConvBPDNMaskDcpl.__init__</title>
<g id="a_node11"><a xlink:href="../../sporco.admm.cbpdn.html#sporco.admm.cbpdn.ConvBPDNMaskDcpl.__init__" xlink:title="cbpdn.ConvBPDNMaskDcpl.__init__" target="_top">
<path fill="#d48cd8" stroke="#000000" stroke-width=".25" d="M353,-278C353,-278 201,-278 201,-278 195,-278 189,-272 189,-266 189,-266 189,-254 189,-254 189,-248 195,-242 201,-242 201,-242 353,-242 353,-242 359,-242 365,-248 365,-254 365,-254 365,-266 365,-266 365,-272 359,-278 353,-278"/>
<text text-anchor="middle" x="277" y="-257.8" font-family="Vera Sans, DejaVu Sans, Liberation Sans, Arial, Helvetica, sans" font-size="9.00" fill="#000000">cbpdn.ConvBPDNMaskDcpl.__init__</text>
</a>
</g>
</g>
<!-- admm._ADMM_Meta.__call__&#45;&gt;cbpdn.ConvBPDNMaskDcpl.__init__ -->
<g id="edge6" class="edge">
<title>admm._ADMM_Meta.__call__&#45;&gt;cbpdn.ConvBPDNMaskDcpl.__init__</title>
<path fill="none" stroke="#8c8fd8" stroke-width="2" d="M153.11,-260C161.44,-260 170.03,-260 178.63,-260"/>
<polygon fill="#8c8fd8" stroke="#8c8fd8" stroke-width="2" points="178.7,-263.5001 188.7,-260 178.7,-256.5001 178.7,-263.5001"/>
</g>
<!-- cbpdn.ConvTwoBlockCnstrnt.__init__ -->
<g id="node3" class="node">
<title>cbpdn.ConvTwoBlockCnstrnt.__init__</title>
<g id="a_node3"><a xlink:href="../../sporco.admm.cbpdn.html#sporco.admm.cbpdn.ConvTwoBlockCnstrnt.__init__" xlink:title="cbpdn.ConvTwoBlockCnstrnt.__init__" target="_top">
<path fill="#d88c8c" stroke="#000000" stroke-width=".25" d="M571,-200C571,-200 413,-200 413,-200 407,-200 401,-194 401,-188 401,-188 401,-176 401,-176 401,-170 407,-164 413,-164 413,-164 571,-164 571,-164 577,-164 583,-170 583,-176 583,-176 583,-188 583,-188 583,-194 577,-200 571,-200"/>
<text text-anchor="middle" x="492" y="-179.8" font-family="Vera Sans, DejaVu Sans, Liberation Sans, Arial, Helvetica, sans" font-size="9.00" fill="#000000">cbpdn.ConvTwoBlockCnstrnt.__init__</text>
</a>
</g>
</g>
<!-- cbpdn.ConvTwoBlockCnstrnt.__init__&#45;&gt;admm.ADMMTwoBlockCnstrnt.__init__ -->
<g id="edge8" class="edge">
<title>cbpdn.ConvTwoBlockCnstrnt.__init__&#45;&gt;admm.ADMMTwoBlockCnstrnt.__init__</title>
<path fill="none" stroke="#d88c8c" stroke-width="2" d="M543.14,-163.91C575.45,-152.48 617.37,-137.65 651.42,-125.61"/>
<polygon fill="#d88c8c" stroke="#d88c8c" stroke-width="2" points="652.9913,-128.7666 661.25,-122.13 650.6552,-122.1679 652.9913,-128.7666"/>
</g>
<!-- cbpdn.ConvTwoBlockCnstrnt.setdict -->
<g id="node4" class="node">
<title>cbpdn.ConvTwoBlockCnstrnt.setdict</title>
<g id="a_node4"><a xlink:href="../../sporco.admm.cbpdn.html#sporco.admm.cbpdn.ConvTwoBlockCnstrnt.setdict" xlink:title="cbpdn.ConvTwoBlockCnstrnt.setdict" target="_top">
<path fill="#d88c8c" stroke="#000000" stroke-width=".25" d="M791.5,-200C791.5,-200 633.5,-200 633.5,-200 627.5,-200 621.5,-194 621.5,-188 621.5,-188 621.5,-176 621.5,-176 621.5,-170 627.5,-164 633.5,-164 633.5,-164 791.5,-164 791.5,-164 797.5,-164 803.5,-170 803.5,-176 803.5,-176 803.5,-188 803.5,-188 803.5,-194 797.5,-200 791.5,-200"/>
<text text-anchor="middle" x="712.5" y="-179.8" font-family="Vera Sans, DejaVu Sans, Liberation Sans, Arial, Helvetica, sans" font-size="9.00" fill="#000000">cbpdn.ConvTwoBlockCnstrnt.setdict</text>
</a>
</g>
</g>
<!-- cbpdn.ConvTwoBlockCnstrnt.__init__&#45;&gt;cbpdn.ConvTwoBlockCnstrnt.setdict -->
<g id="edge1" class="edge">
<title>cbpdn.ConvTwoBlockCnstrnt.__init__&#45;&gt;cbpdn.ConvTwoBlockCnstrnt.setdict</title>
<path fill="none" stroke="#d88c8c" stroke-width="2" d="M583.28,-182C592.5,-182 601.91,-182 611.23,-182"/>
<polygon fill="#d88c8c" stroke="#d88c8c" stroke-width="2" points="611.29,-185.5001 621.29,-182 611.29,-178.5001 611.29,-185.5001"/>
</g>
<!-- cbpdn.ConvRepIndexing.__init__ -->
<g id="node5" class="node">
<title>cbpdn.ConvRepIndexing.__init__</title>
<g id="a_node5"><a xlink:href="../../sporco.admm.cbpdn.html#sporco.admm.cbpdn.ConvRepIndexing.__init__" xlink:title="cbpdn.ConvRepIndexing.__init__" target="_top">
<path fill="#d88c91" stroke="#000000" stroke-width=".25" d="M782,-44C782,-44 643,-44 643,-44 637,-44 631,-38 631,-32 631,-32 631,-20 631,-20 631,-14 637,-8 643,-8 643,-8 782,-8 782,-8 788,-8 794,-14 794,-20 794,-20 794,-32 794,-32 794,-38 788,-44 782,-44"/>
<text text-anchor="middle" x="712.5" y="-23.8" font-family="Vera Sans, DejaVu Sans, Liberation Sans, Arial, Helvetica, sans" font-size="9.00" fill="#000000">cbpdn.ConvRepIndexing.__init__</text>
</a>
</g>
</g>
<!-- cbpdn.ConvTwoBlockCnstrnt.__init__&#45;&gt;cbpdn.ConvRepIndexing.__init__ -->
<g id="edge9" class="edge">
<title>cbpdn.ConvTwoBlockCnstrnt.__init__&#45;&gt;cbpdn.ConvRepIndexing.__init__</title>
<path fill="none" stroke="#d88c8c" stroke-width="2" d="M508.76,-163.76C530.64,-140.72 570.88,-100.83 611,-74 625.36,-64.4 641.94,-55.694 657.48,-48.415"/>
<polygon fill="#d88c8c" stroke="#d88c8c" stroke-width="2" points="659.3476,-51.4099 666.99,-44.072 656.4397,-45.0424 659.3476,-51.4099"/>
</g>
<!-- admm.ADMM.set_attr -->
<g id="node7" class="node">
<title>admm.ADMM.set_attr</title>
<g id="a_node7"><a xlink:href="../../sporco.admm.admm.html#sporco.admm.admm.ADMM.set_attr" xlink:title="admm.ADMM.set_attr" target="_top">
<path fill="#8ed88c" stroke="#000000" stroke-width=".25" d="M1117,-80C1117,-80 1025,-80 1025,-80 1019,-80 1013,-74 1013,-68 1013,-68 1013,-56 1013,-56 1013,-50 1019,-44 1025,-44 1025,-44 1117,-44 1117,-44 1123,-44 1129,-50 1129,-56 1129,-56 1129,-68 1129,-68 1129,-74 1123,-80 1117,-80"/>
<text text-anchor="middle" x="1071" y="-59.8" font-family="Vera Sans, DejaVu Sans, Liberation Sans, Arial, Helvetica, sans" font-size="9.00" fill="#000000">admm.ADMM.set_attr</text>
</a>
</g>
</g>
<!-- admm.ADMM.__init__&#45;&gt;admm.ADMM.set_attr -->
<g id="edge2" class="edge">
<title>admm.ADMM.__init__&#45;&gt;admm.ADMM.set_attr</title>
<path fill="none" stroke="#8ed88c" stroke-width="2" d="M953.35,-98.62C969.33,-93.64 986.93,-88.167 1003.5,-83.001"/>
<polygon fill="#8ed88c" stroke="#8ed88c" stroke-width="2" points="1004.6806,-86.2995 1013.2,-80.001 1002.6123,-79.612 1004.6806,-86.2995"/>
</g>
<!-- admm.ADMM.set_dtype -->
<g id="node8" class="node">
<title>admm.ADMM.set_dtype</title>
<g id="a_node8"><a xlink:href="../../sporco.admm.admm.html#sporco.admm.admm.ADMM.set_dtype" xlink:title="admm.ADMM.set_dtype" target="_top">
<path fill="#8ed88c" stroke="#000000" stroke-width=".25" d="M1121.5,-134C1121.5,-134 1020.5,-134 1020.5,-134 1014.5,-134 1008.5,-128 1008.5,-122 1008.5,-122 1008.5,-110 1008.5,-110 1008.5,-104 1014.5,-98 1020.5,-98 1020.5,-98 1121.5,-98 1121.5,-98 1127.5,-98 1133.5,-104 1133.5,-110 1133.5,-110 1133.5,-122 1133.5,-122 1133.5,-128 1127.5,-134 1121.5,-134"/>
<text text-anchor="middle" x="1071" y="-113.8" font-family="Vera Sans, DejaVu Sans, Liberation Sans, Arial, Helvetica, sans" font-size="9.00" fill="#000000">admm.ADMM.set_dtype</text>
</a>
</g>
</g>
<!-- admm.ADMM.__init__&#45;&gt;admm.ADMM.set_dtype -->
<g id="edge3" class="edge">
<title>admm.ADMM.__init__&#45;&gt;admm.ADMM.set_dtype</title>
<path fill="none" stroke="#8ed88c" stroke-width="2" d="M953.35,-116C967.6,-116 983.12,-116 998.1,-116"/>
<polygon fill="#8ed88c" stroke="#8ed88c" stroke-width="2" points="998.3,-119.5001 1008.3,-116 998.3,-112.5001 998.3,-119.5001"/>
</g>
<!-- admm.ADMM.yinit -->
<g id="node9" class="node">
<title>admm.ADMM.yinit</title>
<g id="a_node9"><a xlink:href="../../sporco.admm.admm.html#sporco.admm.admm.ADMM.yinit" xlink:title="admm.ADMM.yinit" target="_top">
<path fill="#8ed88c" stroke="#000000" stroke-width=".25" d="M1108,-188C1108,-188 1034,-188 1034,-188 1028,-188 1022,-182 1022,-176 1022,-176 1022,-164 1022,-164 1022,-158 1028,-152 1034,-152 1034,-152 1108,-152 1108,-152 1114,-152 1120,-158 1120,-164 1120,-164 1120,-176 1120,-176 1120,-182 1114,-188 1108,-188"/>
<text text-anchor="middle" x="1071" y="-167.8" font-family="Vera Sans, DejaVu Sans, Liberation Sans, Arial, Helvetica, sans" font-size="9.00" fill="#000000">admm.ADMM.yinit</text>
</a>
</g>
</g>
<!-- admm.ADMM.__init__&#45;&gt;admm.ADMM.yinit -->
<g id="edge4" class="edge">
<title>admm.ADMM.__init__&#45;&gt;admm.ADMM.yinit</title>
<path fill="none" stroke="#8ed88c" stroke-width="2" d="M953.35,-133.38C972.16,-139.24 993.2,-145.79 1012.2,-151.71"/>
<polygon fill="#8ed88c" stroke="#8ed88c" stroke-width="2" points="1011.4123,-155.1299 1022,-154.74 1013.4801,-148.4422 1011.4123,-155.1299"/>
</g>
<!-- cbpdn.ConvBPDNMaskDcpl.uinit -->
<g id="node10" class="node">
<title>cbpdn.ConvBPDNMaskDcpl.uinit</title>
<g id="a_node10"><a xlink:href="../../sporco.admm.cbpdn.html#sporco.admm.cbpdn.ConvBPDNMaskDcpl.uinit" xlink:title="cbpdn.ConvBPDNMaskDcpl.uinit" target="_top">
<path fill="#d48cd8" stroke="#000000" stroke-width=".25" d="M1141,-278C1141,-278 1001,-278 1001,-278 995,-278 989,-272 989,-266 989,-266 989,-254 989,-254 989,-248 995,-242 1001,-242 1001,-242 1141,-242 1141,-242 1147,-242 1153,-248 1153,-254 1153,-254 1153,-266 1153,-266 1153,-272 1147,-278 1141,-278"/>
<text text-anchor="middle" x="1071" y="-257.8" font-family="Vera Sans, DejaVu Sans, Liberation Sans, Arial, Helvetica, sans" font-size="9.00" fill="#000000">cbpdn.ConvBPDNMaskDcpl.uinit</text>
</a>
</g>
</g>
<!-- admm.ADMM.__init__&#45;&gt;cbpdn.ConvBPDNMaskDcpl.uinit -->
<g id="edge10" class="edge">
<title>admm.ADMM.__init__&#45;&gt;cbpdn.ConvBPDNMaskDcpl.uinit</title>
<path fill="none" stroke="#8ed88c" stroke-width="2" d="M910.41,-134.06C926.78,-156 956.78,-193.17 989,-218 998.2,-225.1 1008.8,-231.55 1019.3,-237.15"/>
<polygon fill="#8ed88c" stroke="#8ed88c" stroke-width="2" points="1017.9089,-240.3708 1028.4,-241.85 1021.1212,-234.1513 1017.9089,-240.3708"/>
</g>
<!-- cbpdn.ConvBPDNMaskDcpl.__init__&#45;&gt;cbpdn.ConvTwoBlockCnstrnt.__init__ -->
<g id="edge7" class="edge">
<title>cbpdn.ConvBPDNMaskDcpl.__init__&#45;&gt;cbpdn.ConvTwoBlockCnstrnt.__init__</title>
<path fill="none" stroke="#d48cd8" stroke-width="2" d="M326.87,-241.91C358.37,-230.48 399.24,-215.65 432.44,-203.61"/>
<polygon fill="#d48cd8" stroke="#d48cd8" stroke-width="2" points="433.8237,-206.8313 442.03,-200.13 431.4359,-200.2511 433.8237,-206.8313"/>
</g>
</g>
</svg>
