<?xml version="1.0" encoding="UTF-8" standalone="no"?>
<!DOCTYPE svg PUBLIC "-//W3C//DTD SVG 1.1//EN"
 "http://www.w3.org/Graphics/SVG/1.1/DTD/svg11.dtd">
<!-- Generated by graphviz version 2.40.1 (20161225.0304)
 -->
<!-- Pages: 1 -->
<svg
 viewBox="0.00 0.00 985.00 906.00" xmlns="http://www.w3.org/2000/svg" xmlns:xlink="http://www.w3.org/1999/xlink">
<g id="graph0" class="graph" transform="scale(1 1) rotate(0) translate(4 902)">
<polygon fill="transparent" stroke="transparent" points="-4,4 -4,-902 981,-902 981,4 -4,4"/>
<g id="clust1" class="cluster">
<title>cluster_admm.ADMMEqual</title>
<polygon fill="transparent" stroke="#8ca8d8" stroke-width="2" stroke-dasharray="1,5" points="151,0 151,-232 961.5,-232 961.5,0 151,0"/>
<text text-anchor="middle" x="556.25" y="-220.8" font-family="Vera Sans, DejaVu Sans, Liberation Sans, Arial, Helvetica, sans" font-size="9.00" fill="#000000">admm.ADMMEqual</text>
</g>
<g id="clust2" class="cluster">
<title>cluster_admm.ADMM</title>
<polygon fill="transparent" stroke="#8ed88c" stroke-width="2" stroke-dasharray="1,5" points="0,-240 0,-634 322,-634 322,-240 0,-240"/>
<text text-anchor="middle" x="161" y="-622.8" font-family="Vera Sans, DejaVu Sans, Liberation Sans, Arial, Helvetica, sans" font-size="9.00" fill="#000000">admm.ADMM</text>
</g>
<g id="clust3" class="cluster">
<title>cluster_cbpdn.GenericConvBPDN</title>
<polygon fill="transparent" stroke="#d88c8c" stroke-width="2" stroke-dasharray="1,5" points="142,-642 142,-820 977,-820 977,-642 142,-642"/>
<text text-anchor="middle" x="559.5" y="-808.8" font-family="Vera Sans, DejaVu Sans, Liberation Sans, Arial, Helvetica, sans" font-size="9.00" fill="#000000">cbpdn.GenericConvBPDN</text>
</g>
<g id="clust4" class="cluster">
<title>cluster_cbpdn.ConvBPDN</title>
<polygon fill="transparent" stroke="#d88cc3" stroke-width="2" stroke-dasharray="1,5" points="160,-828 160,-898 741.5,-898 741.5,-828 160,-828"/>
<text text-anchor="middle" x="450.75" y="-886.8" font-family="Vera Sans, DejaVu Sans, Liberation Sans, Arial, Helvetica, sans" font-size="9.00" fill="#000000">cbpdn.ConvBPDN</text>
</g>
<!-- admm.ADMMEqual.rsdl_s -->
<g id="node1" class="node">
<title>admm.ADMMEqual.rsdl_s</title>
<g id="a_node1"><a xlink:href="../../sporco.admm.admm.html#sporco.admm.admm.ADMMEqual.rsdl_s" xlink:title="admm.ADMMEqual.rsdl_s" target="_top">
<path fill="#8ca8d8" stroke="#000000" stroke-width=".25" d="M498.5,-98C498.5,-98 390.5,-98 390.5,-98 384.5,-98 378.5,-92 378.5,-86 378.5,-86 378.5,-74 378.5,-74 378.5,-68 384.5,-62 390.5,-62 390.5,-62 498.5,-62 498.5,-62 504.5,-62 510.5,-68 510.5,-74 510.5,-74 510.5,-86 510.5,-86 510.5,-92 504.5,-98 498.5,-98"/>
<text text-anchor="middle" x="444.5" y="-77.8" font-family="Vera Sans, DejaVu Sans, Liberation Sans, Arial, Helvetica, sans" font-size="9.00" fill="#000000">admm.ADMMEqual.rsdl_s</text>
</a>
</g>
</g>
<!-- admm.ADMMEqual.rsdl_r -->
<g id="node2" class="node">
<title>admm.ADMMEqual.rsdl_r</title>
<g id="a_node2"><a xlink:href="../../sporco.admm.admm.html#sporco.admm.admm.ADMMEqual.rsdl_r" xlink:title="admm.ADMMEqual.rsdl_r" target="_top">
<path fill="#8ca8d8" stroke="#000000" stroke-width=".25" d="M498,-206C498,-206 391,-206 391,-206 385,-206 379,-200 379,-194 379,-194 379,-182 379,-182 379,-176 385,-170 391,-170 391,-170 498,-170 498,-170 504,-170 510,-176 510,-182 510,-182 510,-194 510,-194 510,-200 504,-206 498,-206"/>
<text text-anchor="middle" x="444.5" y="-185.8" font-family="Vera Sans, DejaVu Sans, Liberation Sans, Arial, Helvetica, sans" font-size="9.00" fill="#000000">admm.ADMMEqual.rsdl_r</text>
</a>
</g>
</g>
<!-- admm.ADMMEqual.getmin -->
<g id="node3" class="node">
<title>admm.ADMMEqual.getmin</title>
<g id="a_node3"><a xlink:href="../../sporco.admm.admm.html#sporco.admm.admm.ADMMEqual.getmin" xlink:title="admm.ADMMEqual.getmin" target="_top">
<path fill="#8ca8d8" stroke="#000000" stroke-width=".25" d="M287,-152C287,-152 174,-152 174,-152 168,-152 162,-146 162,-140 162,-140 162,-128 162,-128 162,-122 168,-116 174,-116 174,-116 287,-116 287,-116 293,-116 299,-122 299,-128 299,-128 299,-140 299,-140 299,-146 293,-152 287,-152"/>
<text text-anchor="middle" x="230.5" y="-131.8" font-family="Vera Sans, DejaVu Sans, Liberation Sans, Arial, Helvetica, sans" font-size="9.00" fill="#000000">admm.ADMMEqual.getmin</text>
</a>
</g>
</g>
<!-- admm.ADMMEqual.relax_AX -->
<g id="node4" class="node">
<title>admm.ADMMEqual.relax_AX</title>
<g id="a_node4"><a xlink:href="../../sporco.admm.admm.html#sporco.admm.admm.ADMMEqual.relax_AX" xlink:title="admm.ADMMEqual.relax_AX" target="_top">
<path fill="#8ca8d8" stroke="#000000" stroke-width=".25" d="M290,-206C290,-206 171,-206 171,-206 165,-206 159,-200 159,-194 159,-194 159,-182 159,-182 159,-176 165,-170 171,-170 171,-170 290,-170 290,-170 296,-170 302,-176 302,-182 302,-182 302,-194 302,-194 302,-200 296,-206 290,-206"/>
<text text-anchor="middle" x="230.5" y="-185.8" font-family="Vera Sans, DejaVu Sans, Liberation Sans, Arial, Helvetica, sans" font-size="9.00" fill="#000000">admm.ADMMEqual.relax_AX</text>
</a>
</g>
</g>
<!-- admm.ADMMEqual.obfn_gvar -->
<g id="node5" class="node">
<title>admm.ADMMEqual.obfn_gvar</title>
<g id="a_node5"><a xlink:href="../../sporco.admm.admm.html#sporco.admm.admm.ADMMEqual.obfn_gvar" xlink:title="admm.ADMMEqual.obfn_gvar" target="_top">
<path fill="#8ca8d8" stroke="#000000" stroke-width=".25" d="M941.5,-206C941.5,-206 814.5,-206 814.5,-206 808.5,-206 802.5,-200 802.5,-194 802.5,-194 802.5,-182 802.5,-182 802.5,-176 808.5,-170 814.5,-170 814.5,-170 941.5,-170 941.5,-170 947.5,-170 953.5,-176 953.5,-182 953.5,-182 953.5,-194 953.5,-194 953.5,-200 947.5,-206 941.5,-206"/>
<text text-anchor="middle" x="878" y="-185.8" font-family="Vera Sans, DejaVu Sans, Liberation Sans, Arial, Helvetica, sans" font-size="9.00" fill="#000000">admm.ADMMEqual.obfn_gvar</text>
</a>
</g>
</g>
<!-- admm.ADMMEqual.rsdl_rn -->
<g id="node6" class="node">
<title>admm.ADMMEqual.rsdl_rn</title>
<g id="a_node6"><a xlink:href="../../sporco.admm.admm.html#sporco.admm.admm.ADMMEqual.rsdl_rn" xlink:title="admm.ADMMEqual.rsdl_rn" target="_top">
<path fill="#8ca8d8" stroke="#000000" stroke-width=".25" d="M501,-152C501,-152 388,-152 388,-152 382,-152 376,-146 376,-140 376,-140 376,-128 376,-128 376,-122 382,-116 388,-116 388,-116 501,-116 501,-116 507,-116 513,-122 513,-128 513,-128 513,-140 513,-140 513,-146 507,-152 501,-152"/>
<text text-anchor="middle" x="444.5" y="-131.8" font-family="Vera Sans, DejaVu Sans, Liberation Sans, Arial, Helvetica, sans" font-size="9.00" fill="#000000">admm.ADMMEqual.rsdl_rn</text>
</a>
</g>
</g>
<!-- admm.ADMMEqual.rsdl_sn -->
<g id="node7" class="node">
<title>admm.ADMMEqual.rsdl_sn</title>
<g id="a_node7"><a xlink:href="../../sporco.admm.admm.html#sporco.admm.admm.ADMMEqual.rsdl_sn" xlink:title="admm.ADMMEqual.rsdl_sn" target="_top">
<path fill="#8ca8d8" stroke="#000000" stroke-width=".25" d="M501.5,-44C501.5,-44 387.5,-44 387.5,-44 381.5,-44 375.5,-38 375.5,-32 375.5,-32 375.5,-20 375.5,-20 375.5,-14 381.5,-8 387.5,-8 387.5,-8 501.5,-8 501.5,-8 507.5,-8 513.5,-14 513.5,-20 513.5,-20 513.5,-32 513.5,-32 513.5,-38 507.5,-44 501.5,-44"/>
<text text-anchor="middle" x="444.5" y="-23.8" font-family="Vera Sans, DejaVu Sans, Liberation Sans, Arial, Helvetica, sans" font-size="9.00" fill="#000000">admm.ADMMEqual.rsdl_sn</text>
</a>
</g>
</g>
<!-- admm.ADMM.solve -->
<g id="node8" class="node">
<title>admm.ADMM.solve</title>
<g id="a_node8"><a xlink:href="../../sporco.admm.admm.html#sporco.admm.admm.ADMM.solve" xlink:title="admm.ADMM.solve" target="_top">
<path fill="#8ed88c" stroke="#000000" stroke-width=".25" d="M99,-446C99,-446 20,-446 20,-446 14,-446 8,-440 8,-434 8,-434 8,-422 8,-422 8,-416 14,-410 20,-410 20,-410 99,-410 99,-410 105,-410 111,-416 111,-422 111,-422 111,-434 111,-434 111,-440 105,-446 99,-446"/>
<text text-anchor="middle" x="59.5" y="-425.8" font-family="Vera Sans, DejaVu Sans, Liberation Sans, Arial, Helvetica, sans" font-size="9.00" fill="#000000">admm.ADMM.solve</text>
</a>
</g>
</g>
<!-- admm.ADMM.solve&#45;&gt;admm.ADMMEqual.getmin -->
<g id="edge15" class="edge">
<title>admm.ADMM.solve&#45;&gt;admm.ADMMEqual.getmin</title>
<path fill="none" stroke="#8ed88c" stroke-width="2" d="M62.817,-409.88C73.054,-355.83 105.66,-197.21 142,-161 145.29,-157.72 148.96,-154.84 152.9,-152.31"/>
<polygon fill="#8ed88c" stroke="#8ed88c" stroke-width="2" points="154.8399,-155.2353 161.86,-147.3 151.4236,-149.1256 154.8399,-155.2353"/>
</g>
<!-- admm.ADMM.solve&#45;&gt;admm.ADMMEqual.relax_AX -->
<g id="edge16" class="edge">
<title>admm.ADMM.solve&#45;&gt;admm.ADMMEqual.relax_AX</title>
<path fill="none" stroke="#8ed88c" stroke-width="2" d="M63.071,-409.96C71.168,-373.17 94.06,-288.52 142,-236 151.11,-226.02 162.78,-217.69 174.65,-210.93"/>
<polygon fill="#8ed88c" stroke="#8ed88c" stroke-width="2" points="176.5654,-213.8742 183.72,-206.06 173.254,-207.707 176.5654,-213.8742"/>
</g>
<!-- admm.ADMM.iteration_stats -->
<g id="node9" class="node">
<title>admm.ADMM.iteration_stats</title>
<g id="a_node9"><a xlink:href="../../sporco.admm.admm.html#sporco.admm.admm.ADMM.iteration_stats" xlink:title="admm.ADMM.iteration_stats" target="_top">
<path fill="#8ed88c" stroke="#000000" stroke-width=".25" d="M292,-500C292,-500 169,-500 169,-500 163,-500 157,-494 157,-488 157,-488 157,-476 157,-476 157,-470 163,-464 169,-464 169,-464 292,-464 292,-464 298,-464 304,-470 304,-476 304,-476 304,-488 304,-488 304,-494 298,-500 292,-500"/>
<text text-anchor="middle" x="230.5" y="-479.8" font-family="Vera Sans, DejaVu Sans, Liberation Sans, Arial, Helvetica, sans" font-size="9.00" fill="#000000">admm.ADMM.iteration_stats</text>
</a>
</g>
</g>
<!-- admm.ADMM.solve&#45;&gt;admm.ADMM.iteration_stats -->
<g id="edge1" class="edge">
<title>admm.ADMM.solve&#45;&gt;admm.ADMM.iteration_stats</title>
<path fill="none" stroke="#8ed88c" stroke-width="2" d="M111.38,-445.16C121.52,-448.46 132.09,-451.87 142,-455 148.03,-456.91 154.3,-458.87 160.59,-460.82"/>
<polygon fill="#8ed88c" stroke="#8ed88c" stroke-width="2" points="159.8829,-464.2643 170.47,-463.86 161.9415,-457.5738 159.8829,-464.2643"/>
</g>
<!-- admm.ADMM.ustep -->
<g id="node10" class="node">
<title>admm.ADMM.ustep</title>
<g id="a_node10"><a xlink:href="../../sporco.admm.admm.html#sporco.admm.admm.ADMM.ustep" xlink:title="admm.ADMM.ustep" target="_top">
<path fill="#8ed88c" stroke="#000000" stroke-width=".25" d="M271.5,-446C271.5,-446 189.5,-446 189.5,-446 183.5,-446 177.5,-440 177.5,-434 177.5,-434 177.5,-422 177.5,-422 177.5,-416 183.5,-410 189.5,-410 189.5,-410 271.5,-410 271.5,-410 277.5,-410 283.5,-416 283.5,-422 283.5,-422 283.5,-434 283.5,-434 283.5,-440 277.5,-446 271.5,-446"/>
<text text-anchor="middle" x="230.5" y="-425.8" font-family="Vera Sans, DejaVu Sans, Liberation Sans, Arial, Helvetica, sans" font-size="9.00" fill="#000000">admm.ADMM.ustep</text>
</a>
</g>
</g>
<!-- admm.ADMM.solve&#45;&gt;admm.ADMM.ustep -->
<g id="edge2" class="edge">
<title>admm.ADMM.solve&#45;&gt;admm.ADMM.ustep</title>
<path fill="none" stroke="#8ed88c" stroke-width="2" d="M111.27,-428C128.94,-428 148.89,-428 167.35,-428"/>
<polygon fill="#8ed88c" stroke="#8ed88c" stroke-width="2" points="167.43,-431.5001 177.43,-428 167.43,-424.5001 167.43,-431.5001"/>
</g>
<!-- admm.ADMM.compute_residuals -->
<g id="node11" class="node">
<title>admm.ADMM.compute_residuals</title>
<g id="a_node11"><a xlink:href="../../sporco.admm.admm.html#sporco.admm.admm.ADMM.compute_residuals" xlink:title="admm.ADMM.compute_residuals" target="_top">
<path fill="#8ed88c" stroke="#000000" stroke-width=".25" d="M302,-392C302,-392 159,-392 159,-392 153,-392 147,-386 147,-380 147,-380 147,-368 147,-368 147,-362 153,-356 159,-356 159,-356 302,-356 302,-356 308,-356 314,-362 314,-368 314,-368 314,-380 314,-380 314,-386 308,-392 302,-392"/>
<text text-anchor="middle" x="230.5" y="-371.8" font-family="Vera Sans, DejaVu Sans, Liberation Sans, Arial, Helvetica, sans" font-size="9.00" fill="#000000">admm.ADMM.compute_residuals</text>
</a>
</g>
</g>
<!-- admm.ADMM.solve&#45;&gt;admm.ADMM.compute_residuals -->
<g id="edge3" class="edge">
<title>admm.ADMM.solve&#45;&gt;admm.ADMM.compute_residuals</title>
<path fill="none" stroke="#8ed88c" stroke-width="2" d="M111.38,-410.84C121.52,-407.54 132.09,-404.13 142,-401 148.03,-399.09 154.3,-397.13 160.59,-395.18"/>
<polygon fill="#8ed88c" stroke="#8ed88c" stroke-width="2" points="161.9415,-398.4262 170.47,-392.14 159.8829,-391.7357 161.9415,-398.4262"/>
</g>
<!-- admm.ADMM.display_status -->
<g id="node12" class="node">
<title>admm.ADMM.display_status</title>
<g id="a_node12"><a xlink:href="../../sporco.admm.admm.html#sporco.admm.admm.ADMM.display_status" xlink:title="admm.ADMM.display_status" target="_top">
<path fill="#8ed88c" stroke="#000000" stroke-width=".25" d="M291.5,-554C291.5,-554 169.5,-554 169.5,-554 163.5,-554 157.5,-548 157.5,-542 157.5,-542 157.5,-530 157.5,-530 157.5,-524 163.5,-518 169.5,-518 169.5,-518 291.5,-518 291.5,-518 297.5,-518 303.5,-524 303.5,-530 303.5,-530 303.5,-542 303.5,-542 303.5,-548 297.5,-554 291.5,-554"/>
<text text-anchor="middle" x="230.5" y="-533.8" font-family="Vera Sans, DejaVu Sans, Liberation Sans, Arial, Helvetica, sans" font-size="9.00" fill="#000000">admm.ADMM.display_status</text>
</a>
</g>
</g>
<!-- admm.ADMM.solve&#45;&gt;admm.ADMM.display_status -->
<g id="edge4" class="edge">
<title>admm.ADMM.solve&#45;&gt;admm.ADMM.display_status</title>
<path fill="none" stroke="#8ed88c" stroke-width="2" d="M73.394,-446.02C88.434,-464.36 114.05,-492.39 142,-509 144.83,-510.68 147.78,-512.27 150.8,-513.76"/>
<polygon fill="#8ed88c" stroke="#8ed88c" stroke-width="2" points="149.5089,-517.0179 160.06,-517.98 152.4118,-510.6482 149.5089,-517.0179"/>
</g>
<!-- admm.ADMM.display_start -->
<g id="node13" class="node">
<title>admm.ADMM.display_start</title>
<g id="a_node13"><a xlink:href="../../sporco.admm.admm.html#sporco.admm.admm.ADMM.display_start" xlink:title="admm.ADMM.display_start" target="_top">
<path fill="#8ed88c" stroke="#000000" stroke-width=".25" d="M287.5,-608C287.5,-608 173.5,-608 173.5,-608 167.5,-608 161.5,-602 161.5,-596 161.5,-596 161.5,-584 161.5,-584 161.5,-578 167.5,-572 173.5,-572 173.5,-572 287.5,-572 287.5,-572 293.5,-572 299.5,-578 299.5,-584 299.5,-584 299.5,-596 299.5,-596 299.5,-602 293.5,-608 287.5,-608"/>
<text text-anchor="middle" x="230.5" y="-587.8" font-family="Vera Sans, DejaVu Sans, Liberation Sans, Arial, Helvetica, sans" font-size="9.00" fill="#000000">admm.ADMM.display_start</text>
</a>
</g>
</g>
<!-- admm.ADMM.solve&#45;&gt;admm.ADMM.display_start -->
<g id="edge5" class="edge">
<title>admm.ADMM.solve&#45;&gt;admm.ADMM.display_start</title>
<path fill="none" stroke="#8ed88c" stroke-width="2" d="M65.748,-446.21C76.635,-475.24 101.83,-531.88 142,-563 145.19,-565.48 148.62,-567.72 152.19,-569.77"/>
<polygon fill="#8ed88c" stroke="#8ed88c" stroke-width="2" points="150.8419,-573.0114 161.34,-574.44 154.0241,-566.7765 150.8419,-573.0114"/>
</g>
<!-- admm.ADMM.update_rho -->
<g id="node14" class="node">
<title>admm.ADMM.update_rho</title>
<g id="a_node14"><a xlink:href="../../sporco.admm.admm.html#sporco.admm.admm.ADMM.update_rho" xlink:title="admm.ADMM.update_rho" target="_top">
<path fill="#8ed88c" stroke="#000000" stroke-width=".25" d="M285,-284C285,-284 176,-284 176,-284 170,-284 164,-278 164,-272 164,-272 164,-260 164,-260 164,-254 170,-248 176,-248 176,-248 285,-248 285,-248 291,-248 297,-254 297,-260 297,-260 297,-272 297,-272 297,-278 291,-284 285,-284"/>
<text text-anchor="middle" x="230.5" y="-263.8" font-family="Vera Sans, DejaVu Sans, Liberation Sans, Arial, Helvetica, sans" font-size="9.00" fill="#000000">admm.ADMM.update_rho</text>
</a>
</g>
</g>
<!-- admm.ADMM.solve&#45;&gt;admm.ADMM.update_rho -->
<g id="edge6" class="edge">
<title>admm.ADMM.solve&#45;&gt;admm.ADMM.update_rho</title>
<path fill="none" stroke="#8ed88c" stroke-width="2" d="M65.748,-409.79C76.635,-380.76 101.83,-324.12 142,-293 145.85,-290.02 150.02,-287.37 154.39,-285.01"/>
<polygon fill="#8ed88c" stroke="#8ed88c" stroke-width="2" points="156.1186,-288.062 163.6,-280.56 153.0732,-281.7591 156.1186,-288.062"/>
</g>
<!-- admm.ADMM.display_end -->
<g id="node15" class="node">
<title>admm.ADMM.display_end</title>
<g id="a_node15"><a xlink:href="../../sporco.admm.admm.html#sporco.admm.admm.ADMM.display_end" xlink:title="admm.ADMM.display_end" target="_top">
<path fill="#8ed88c" stroke="#000000" stroke-width=".25" d="M285.5,-338C285.5,-338 175.5,-338 175.5,-338 169.5,-338 163.5,-332 163.5,-326 163.5,-326 163.5,-314 163.5,-314 163.5,-308 169.5,-302 175.5,-302 175.5,-302 285.5,-302 285.5,-302 291.5,-302 297.5,-308 297.5,-314 297.5,-314 297.5,-326 297.5,-326 297.5,-332 291.5,-338 285.5,-338"/>
<text text-anchor="middle" x="230.5" y="-317.8" font-family="Vera Sans, DejaVu Sans, Liberation Sans, Arial, Helvetica, sans" font-size="9.00" fill="#000000">admm.ADMM.display_end</text>
</a>
</g>
</g>
<!-- admm.ADMM.solve&#45;&gt;admm.ADMM.display_end -->
<g id="edge7" class="edge">
<title>admm.ADMM.solve&#45;&gt;admm.ADMM.display_end</title>
<path fill="none" stroke="#8ed88c" stroke-width="2" d="M73.394,-409.98C88.434,-391.64 114.05,-363.61 142,-347 145.83,-344.72 149.87,-342.62 154.03,-340.69"/>
<polygon fill="#8ed88c" stroke="#8ed88c" stroke-width="2" points="155.4847,-343.8744 163.29,-336.71 152.7206,-337.4433 155.4847,-343.8744"/>
</g>
<!-- cbpdn.GenericConvBPDN.xstep -->
<g id="node21" class="node">
<title>cbpdn.GenericConvBPDN.xstep</title>
<g id="a_node21"><a xlink:href="../../sporco.admm.cbpdn.html#sporco.admm.cbpdn.GenericConvBPDN.xstep" xlink:title="cbpdn.GenericConvBPDN.xstep" target="_top">
<path fill="#d88c8c" stroke="#000000" stroke-width=".25" d="M299,-686C299,-686 162,-686 162,-686 156,-686 150,-680 150,-674 150,-674 150,-662 150,-662 150,-656 156,-650 162,-650 162,-650 299,-650 299,-650 305,-650 311,-656 311,-662 311,-662 311,-674 311,-674 311,-680 305,-686 299,-686"/>
<text text-anchor="middle" x="230.5" y="-665.8" font-family="Vera Sans, DejaVu Sans, Liberation Sans, Arial, Helvetica, sans" font-size="9.00" fill="#000000">cbpdn.GenericConvBPDN.xstep</text>
</a>
</g>
</g>
<!-- admm.ADMM.solve&#45;&gt;cbpdn.GenericConvBPDN.xstep -->
<g id="edge13" class="edge">
<title>admm.ADMM.solve&#45;&gt;cbpdn.GenericConvBPDN.xstep</title>
<path fill="none" stroke="#8ed88c" stroke-width="2" d="M61.518,-446.29C66.934,-486.66 85.446,-584.07 142,-638 144.41,-640.3 147,-642.42 149.72,-644.37"/>
<polygon fill="#8ed88c" stroke="#8ed88c" stroke-width="2" points="147.9481,-647.3906 158.27,-649.78 151.691,-641.4753 147.9481,-647.3906"/>
</g>
<!-- cbpdn.ConvBPDN.ystep -->
<g id="node22" class="node">
<title>cbpdn.ConvBPDN.ystep</title>
<g id="a_node22"><a xlink:href="../../sporco.admm.cbpdn.html#sporco.admm.cbpdn.ConvBPDN.ystep" xlink:title="cbpdn.ConvBPDN.ystep" target="_top">
<path fill="#d88cc3" stroke="#000000" stroke-width=".25" d="M281,-872C281,-872 180,-872 180,-872 174,-872 168,-866 168,-860 168,-860 168,-848 168,-848 168,-842 174,-836 180,-836 180,-836 281,-836 281,-836 287,-836 293,-842 293,-848 293,-848 293,-860 293,-860 293,-866 287,-872 281,-872"/>
<text text-anchor="middle" x="230.5" y="-851.8" font-family="Vera Sans, DejaVu Sans, Liberation Sans, Arial, Helvetica, sans" font-size="9.00" fill="#000000">cbpdn.ConvBPDN.ystep</text>
</a>
</g>
</g>
<!-- admm.ADMM.solve&#45;&gt;cbpdn.ConvBPDN.ystep -->
<g id="edge14" class="edge">
<title>admm.ADMM.solve&#45;&gt;cbpdn.ConvBPDN.ystep</title>
<path fill="none" stroke="#8ed88c" stroke-width="2" d="M60.937,-446.34C66.779,-516.42 90.908,-766.29 142,-824 146.7,-829.3 152.37,-833.67 158.54,-837.27"/>
<polygon fill="#8ed88c" stroke="#8ed88c" stroke-width="2" points="157.3869,-840.609 167.89,-842 160.5468,-834.3628 157.3869,-840.609"/>
</g>
<!-- cbpdn.GenericConvBPDN.eval_objfn -->
<g id="node16" class="node">
<title>cbpdn.GenericConvBPDN.eval_objfn</title>
<g id="a_node16"><a xlink:href="../../sporco.admm.cbpdn.html#sporco.admm.cbpdn.GenericConvBPDN.eval_objfn" xlink:title="cbpdn.GenericConvBPDN.eval_objfn" target="_top">
<path fill="#d88c8c" stroke="#000000" stroke-width=".25" d="M523.5,-740C523.5,-740 365.5,-740 365.5,-740 359.5,-740 353.5,-734 353.5,-728 353.5,-728 353.5,-716 353.5,-716 353.5,-710 359.5,-704 365.5,-704 365.5,-704 523.5,-704 523.5,-704 529.5,-704 535.5,-710 535.5,-716 535.5,-716 535.5,-728 535.5,-728 535.5,-734 529.5,-740 523.5,-740"/>
<text text-anchor="middle" x="444.5" y="-719.8" font-family="Vera Sans, DejaVu Sans, Liberation Sans, Arial, Helvetica, sans" font-size="9.00" fill="#000000">cbpdn.GenericConvBPDN.eval_objfn</text>
</a>
</g>
</g>
<!-- admm.ADMM.iteration_stats&#45;&gt;cbpdn.GenericConvBPDN.eval_objfn -->
<g id="edge17" class="edge">
<title>admm.ADMM.iteration_stats&#45;&gt;cbpdn.GenericConvBPDN.eval_objfn</title>
<path fill="none" stroke="#8ed88c" stroke-width="2" d="M304.1,-495.1C310.84,-498.7 317,-503.26 322,-509 376.91,-572.03 294.82,-632.2 350,-695 350.64,-695.73 351.3,-696.44 351.98,-697.13"/>
<polygon fill="#8ed88c" stroke="#8ed88c" stroke-width="2" points="349.9496,-699.9995 359.82,-703.85 354.5052,-694.6846 349.9496,-699.9995"/>
</g>
<!-- cbpdn.GenericConvBPDN.itstat_extra -->
<g id="node20" class="node">
<title>cbpdn.GenericConvBPDN.itstat_extra</title>
<g id="a_node20"><a xlink:href="../../sporco.admm.cbpdn.html#sporco.admm.cbpdn.GenericConvBPDN.itstat_extra" xlink:title="cbpdn.GenericConvBPDN.itstat_extra" target="_top">
<path fill="#d88c8c" stroke="#000000" stroke-width=".25" d="M527,-686C527,-686 362,-686 362,-686 356,-686 350,-680 350,-674 350,-674 350,-662 350,-662 350,-656 356,-650 362,-650 362,-650 527,-650 527,-650 533,-650 539,-656 539,-662 539,-662 539,-674 539,-674 539,-680 533,-686 527,-686"/>
<text text-anchor="middle" x="444.5" y="-665.8" font-family="Vera Sans, DejaVu Sans, Liberation Sans, Arial, Helvetica, sans" font-size="9.00" fill="#000000">cbpdn.GenericConvBPDN.itstat_extra</text>
</a>
</g>
</g>
<!-- admm.ADMM.iteration_stats&#45;&gt;cbpdn.GenericConvBPDN.itstat_extra -->
<g id="edge18" class="edge">
<title>admm.ADMM.iteration_stats&#45;&gt;cbpdn.GenericConvBPDN.itstat_extra</title>
<path fill="none" stroke="#8ed88c" stroke-width="2" d="M304.32,-499.23C310.54,-502.02 316.53,-505.26 322,-509 372.54,-543.62 411.43,-605.67 430.84,-641.15"/>
<polygon fill="#8ed88c" stroke="#8ed88c" stroke-width="2" points="427.7661,-642.8241 435.57,-649.99 433.9382,-639.5216 427.7661,-642.8241"/>
</g>
<!-- admm.ADMM.ustep&#45;&gt;admm.ADMMEqual.rsdl_r -->
<g id="edge19" class="edge">
<title>admm.ADMM.ustep&#45;&gt;admm.ADMMEqual.rsdl_r</title>
<path fill="none" stroke="#8ed88c" stroke-width="2" d="M283.64,-419.62C297.15,-415.62 310.95,-409.72 322,-401 384.43,-351.75 420.89,-261.29 436.1,-215.75"/>
<polygon fill="#8ed88c" stroke="#8ed88c" stroke-width="2" points="439.435,-216.812 439.19,-206.22 432.7763,-214.6529 439.435,-216.812"/>
</g>
<!-- admm.ADMM.compute_residuals&#45;&gt;admm.ADMMEqual.rsdl_s -->
<g id="edge20" class="edge">
<title>admm.ADMM.compute_residuals&#45;&gt;admm.ADMMEqual.rsdl_s</title>
<path fill="none" stroke="#8ed88c" stroke-width="2" d="M312.64,-355.75C316.07,-353.2 319.23,-350.29 322,-347 391.18,-264.86 280.46,-188.84 350,-107 355.2,-100.87 361.69,-96.09 368.82,-92.36"/>
<polygon fill="#8ed88c" stroke="#8ed88c" stroke-width="2" points="370.4448,-95.467 378.13,-88.174 367.5742,-89.0827 370.4448,-95.467"/>
</g>
<!-- admm.ADMM.compute_residuals&#45;&gt;admm.ADMMEqual.rsdl_r -->
<g id="edge21" class="edge">
<title>admm.ADMM.compute_residuals&#45;&gt;admm.ADMMEqual.rsdl_r</title>
<path fill="none" stroke="#8ed88c" stroke-width="2" d="M306.18,-355.92C311.74,-353.33 317.08,-350.37 322,-347 372.54,-312.38 411.43,-250.33 430.84,-214.85"/>
<polygon fill="#8ed88c" stroke="#8ed88c" stroke-width="2" points="433.9382,-216.4784 435.57,-206.01 427.7661,-213.1759 433.9382,-216.4784"/>
</g>
<!-- admm.ADMM.compute_residuals&#45;&gt;admm.ADMMEqual.rsdl_rn -->
<g id="edge22" class="edge">
<title>admm.ADMM.compute_residuals&#45;&gt;admm.ADMMEqual.rsdl_rn</title>
<path fill="none" stroke="#8ed88c" stroke-width="2" d="M312.11,-355.93C315.73,-353.33 319.06,-350.37 322,-347 376.91,-283.97 294.82,-223.8 350,-161 354.69,-155.66 360.36,-151.34 366.56,-147.86"/>
<polygon fill="#8ed88c" stroke="#8ed88c" stroke-width="2" points="368.4779,-150.8212 375.97,-143.33 365.4415,-144.514 368.4779,-150.8212"/>
</g>
<!-- admm.ADMM.compute_residuals&#45;&gt;admm.ADMMEqual.rsdl_sn -->
<g id="edge23" class="edge">
<title>admm.ADMM.compute_residuals&#45;&gt;admm.ADMMEqual.rsdl_sn</title>
<path fill="none" stroke="#8ed88c" stroke-width="2" d="M312.73,-355.83C316.13,-353.25 319.26,-350.32 322,-347 363.75,-296.36 308.04,-103.46 350,-53 354.47,-47.623 359.93,-43.276 365.95,-39.767"/>
<polygon fill="#8ed88c" stroke="#8ed88c" stroke-width="2" points="367.7277,-42.7918 375.12,-35.202 364.6081,-36.5253 367.7277,-42.7918"/>
</g>
<!-- cbpdn.GenericConvBPDN.obfn_dfd -->
<g id="node17" class="node">
<title>cbpdn.GenericConvBPDN.obfn_dfd</title>
<g id="a_node17"><a xlink:href="../../sporco.admm.cbpdn.html#sporco.admm.cbpdn.GenericConvBPDN.obfn_dfd" xlink:title="cbpdn.GenericConvBPDN.obfn_dfd" target="_top">
<path fill="#d88c8c" stroke="#000000" stroke-width=".25" d="M739,-740C739,-740 587,-740 587,-740 581,-740 575,-734 575,-728 575,-728 575,-716 575,-716 575,-710 581,-704 587,-704 587,-704 739,-704 739,-704 745,-704 751,-710 751,-716 751,-716 751,-728 751,-728 751,-734 745,-740 739,-740"/>
<text text-anchor="middle" x="663" y="-719.8" font-family="Vera Sans, DejaVu Sans, Liberation Sans, Arial, Helvetica, sans" font-size="9.00" fill="#000000">cbpdn.GenericConvBPDN.obfn_dfd</text>
</a>
</g>
</g>
<!-- cbpdn.GenericConvBPDN.eval_objfn&#45;&gt;cbpdn.GenericConvBPDN.obfn_dfd -->
<g id="edge8" class="edge">
<title>cbpdn.GenericConvBPDN.eval_objfn&#45;&gt;cbpdn.GenericConvBPDN.obfn_dfd</title>
<path fill="none" stroke="#d88c8c" stroke-width="2" d="M535.58,-722C545.23,-722 555.07,-722 564.79,-722"/>
<polygon fill="#d88c8c" stroke="#d88c8c" stroke-width="2" points="564.87,-725.5001 574.87,-722 564.87,-718.5001 564.87,-725.5001"/>
</g>
<!-- cbpdn.ConvBPDN.obfn_reg -->
<g id="node23" class="node">
<title>cbpdn.ConvBPDN.obfn_reg</title>
<g id="a_node23"><a xlink:href="../../sporco.admm.cbpdn.html#sporco.admm.cbpdn.ConvBPDN.obfn_reg" xlink:title="cbpdn.ConvBPDN.obfn_reg" target="_top">
<path fill="#d88cc3" stroke="#000000" stroke-width=".25" d="M721.5,-872C721.5,-872 604.5,-872 604.5,-872 598.5,-872 592.5,-866 592.5,-860 592.5,-860 592.5,-848 592.5,-848 592.5,-842 598.5,-836 604.5,-836 604.5,-836 721.5,-836 721.5,-836 727.5,-836 733.5,-842 733.5,-848 733.5,-848 733.5,-860 733.5,-860 733.5,-866 727.5,-872 721.5,-872"/>
<text text-anchor="middle" x="663" y="-851.8" font-family="Vera Sans, DejaVu Sans, Liberation Sans, Arial, Helvetica, sans" font-size="9.00" fill="#000000">cbpdn.ConvBPDN.obfn_reg</text>
</a>
</g>
</g>
<!-- cbpdn.GenericConvBPDN.eval_objfn&#45;&gt;cbpdn.ConvBPDN.obfn_reg -->
<g id="edge10" class="edge">
<title>cbpdn.GenericConvBPDN.eval_objfn&#45;&gt;cbpdn.ConvBPDN.obfn_reg</title>
<path fill="none" stroke="#d88c8c" stroke-width="2" d="M526.41,-740.08C530.91,-742.67 535.15,-745.63 539,-749 569.23,-775.51 544.33,-806 575,-832 577.58,-834.19 580.35,-836.17 583.26,-837.95"/>
<polygon fill="#d88c8c" stroke="#d88c8c" stroke-width="2" points="581.8635,-841.1707 592.34,-842.75 585.135,-834.9822 581.8635,-841.1707"/>
</g>
<!-- cbpdn.GenericConvBPDN.obfn_fvarf -->
<g id="node18" class="node">
<title>cbpdn.GenericConvBPDN.obfn_fvarf</title>
<g id="a_node18"><a xlink:href="../../sporco.admm.cbpdn.html#sporco.admm.cbpdn.GenericConvBPDN.obfn_fvarf" xlink:title="cbpdn.GenericConvBPDN.obfn_fvarf" target="_top">
<path fill="#d88c8c" stroke="#000000" stroke-width=".25" d="M957,-740C957,-740 799,-740 799,-740 793,-740 787,-734 787,-728 787,-728 787,-716 787,-716 787,-710 793,-704 799,-704 799,-704 957,-704 957,-704 963,-704 969,-710 969,-716 969,-716 969,-728 969,-728 969,-734 963,-740 957,-740"/>
<text text-anchor="middle" x="878" y="-719.8" font-family="Vera Sans, DejaVu Sans, Liberation Sans, Arial, Helvetica, sans" font-size="9.00" fill="#000000">cbpdn.GenericConvBPDN.obfn_fvarf</text>
</a>
</g>
</g>
<!-- cbpdn.GenericConvBPDN.obfn_dfd&#45;&gt;cbpdn.GenericConvBPDN.obfn_fvarf -->
<g id="edge9" class="edge">
<title>cbpdn.GenericConvBPDN.obfn_dfd&#45;&gt;cbpdn.GenericConvBPDN.obfn_fvarf</title>
<path fill="none" stroke="#d88c8c" stroke-width="2" d="M751.07,-722C759.57,-722 768.24,-722 776.86,-722"/>
<polygon fill="#d88c8c" stroke="#d88c8c" stroke-width="2" points="776.93,-725.5001 786.93,-722 776.93,-718.5001 776.93,-725.5001"/>
</g>
<!-- cbpdn.GenericConvBPDN.ystep -->
<g id="node19" class="node">
<title>cbpdn.GenericConvBPDN.ystep</title>
<g id="a_node19"><a xlink:href="../../sporco.admm.cbpdn.html#sporco.admm.cbpdn.GenericConvBPDN.ystep" xlink:title="cbpdn.GenericConvBPDN.ystep" target="_top">
<path fill="#d88c8c" stroke="#000000" stroke-width=".25" d="M513,-794C513,-794 376,-794 376,-794 370,-794 364,-788 364,-782 364,-782 364,-770 364,-770 364,-764 370,-758 376,-758 376,-758 513,-758 513,-758 519,-758 525,-764 525,-770 525,-770 525,-782 525,-782 525,-788 519,-794 513,-794"/>
<text text-anchor="middle" x="444.5" y="-773.8" font-family="Vera Sans, DejaVu Sans, Liberation Sans, Arial, Helvetica, sans" font-size="9.00" fill="#000000">cbpdn.GenericConvBPDN.ystep</text>
</a>
</g>
</g>
<!-- cbpdn.ConvBPDN.ystep&#45;&gt;cbpdn.GenericConvBPDN.ystep -->
<g id="edge11" class="edge">
<title>cbpdn.ConvBPDN.ystep&#45;&gt;cbpdn.GenericConvBPDN.ystep</title>
<path fill="none" stroke="#d88cc3" stroke-width="2" d="M287.29,-835.93C298.82,-832.11 310.83,-828.02 322,-824 344.65,-815.86 369.4,-806.29 390.7,-797.84"/>
<polygon fill="#d88cc3" stroke="#d88cc3" stroke-width="2" points="392.2238,-801.0006 400.22,-794.05 389.6346,-794.497 392.2238,-801.0006"/>
</g>
<!-- cbpdn.ConvBPDN.obfn_reg&#45;&gt;admm.ADMMEqual.obfn_gvar -->
<g id="edge12" class="edge">
<title>cbpdn.ConvBPDN.obfn_reg&#45;&gt;admm.ADMMEqual.obfn_gvar</title>
<path fill="none" stroke="#d88cc3" stroke-width="2" d="M733.9,-844.32C740.28,-841.19 746.15,-837.16 751,-832 811.07,-768.11 770.31,-724.09 787,-638 817.95,-478.35 857.37,-287.35 872.1,-216.37"/>
<polygon fill="#d88cc3" stroke="#d88cc3" stroke-width="2" points="875.5619,-216.913 874.17,-206.41 868.7083,-215.4886 875.5619,-216.913"/>
</g>
</g>
</svg>
