<?xml version="1.0" encoding="UTF-8" standalone="no"?>
<!DOCTYPE svg PUBLIC "-//W3C//DTD SVG 1.1//EN"
 "http://www.w3.org/Graphics/SVG/1.1/DTD/svg11.dtd">
<!-- Generated by graphviz version 2.40.1 (20161225.0304)
 -->
<!-- Pages: 1 -->
<svg
 viewBox="0.00 0.00 1153.00 312.00" xmlns="http://www.w3.org/2000/svg" xmlns:xlink="http://www.w3.org/1999/xlink">
<g id="graph0" class="graph" transform="scale(1 1) rotate(0) translate(4 308)">
<polygon fill="transparent" stroke="transparent" points="-4,4 -4,-308 1149,-308 1149,4 -4,4"/>
<g id="clust1" class="cluster">
<title>cluster_cbpdn.ConvTwoBlockCnstrnt</title>
<polygon fill="transparent" stroke="#d88c8c" stroke-width="2" stroke-dasharray="1,5" points="385,-156 385,-226 803.5,-226 803.5,-156 385,-156"/>
<text text-anchor="middle" x="594.25" y="-214.8" font-family="Vera Sans, DejaVu Sans, Liberation Sans, Arial, Helvetica, sans" font-size="9.00" fill="#000000">cbpdn.ConvTwoBlockCnstrnt</text>
</g>
<g id="clust2" class="cluster">
<title>cluster_cbpdn.ConvMinL1InL2Ball</title>
<polygon fill="transparent" stroke="#d48cd8" stroke-width="2" stroke-dasharray="1,5" points="181,-234 181,-304 1145,-304 1145,-234 181,-234"/>
<text text-anchor="middle" x="663" y="-292.8" font-family="Vera Sans, DejaVu Sans, Liberation Sans, Arial, Helvetica, sans" font-size="9.00" fill="#000000">cbpdn.ConvMinL1InL2Ball</text>
</g>
<g id="clust3" class="cluster">
<title>cluster_admm.ADMMTwoBlockCnstrnt</title>
<polygon fill="transparent" stroke="#8cd8d6" stroke-width="2" stroke-dasharray="1,5" points="603,0 603,-70 806,-70 806,0 603,0"/>
<text text-anchor="middle" x="704.5" y="-58.8" font-family="Vera Sans, DejaVu Sans, Liberation Sans, Arial, Helvetica, sans" font-size="9.00" fill="#000000">admm.ADMMTwoBlockCnstrnt</text>
</g>
<g id="clust4" class="cluster">
<title>cluster_admm.ADMM</title>
<polygon fill="transparent" stroke="#8ed88c" stroke-width="2" stroke-dasharray="1,5" points="826,-10 826,-188 1129.5,-188 1129.5,-10 826,-10"/>
<text text-anchor="middle" x="977.75" y="-176.8" font-family="Vera Sans, DejaVu Sans, Liberation Sans, Arial, Helvetica, sans" font-size="9.00" fill="#000000">admm.ADMM</text>
</g>
<g id="clust5" class="cluster">
<title>cluster_cbpdn.ConvRepIndexing</title>
<polygon fill="transparent" stroke="#d88c91" stroke-width="2" stroke-dasharray="1,5" points="615,-78 615,-148 794,-148 794,-78 615,-78"/>
<text text-anchor="middle" x="704.5" y="-136.8" font-family="Vera Sans, DejaVu Sans, Liberation Sans, Arial, Helvetica, sans" font-size="9.00" fill="#000000">cbpdn.ConvRepIndexing</text>
</g>
<g id="clust6" class="cluster">
<title>cluster_admm._ADMM_Meta</title>
<polygon fill="transparent" stroke="#8c8fd8" stroke-width="2" stroke-dasharray="1,5" points="0,-234 0,-304 161,-304 161,-234 0,-234"/>
<text text-anchor="middle" x="80.5" y="-292.8" font-family="Vera Sans, DejaVu Sans, Liberation Sans, Arial, Helvetica, sans" font-size="9.00" fill="#000000">admm._ADMM_Meta</text>
</g>
<!-- cbpdn.ConvTwoBlockCnstrnt.__init__ -->
<g id="node1" class="node">
<title>cbpdn.ConvTwoBlockCnstrnt.__init__</title>
<g id="a_node1"><a xlink:href="../../sporco.admm.cbpdn.html#sporco.admm.cbpdn.ConvTwoBlockCnstrnt.__init__" xlink:title="cbpdn.ConvTwoBlockCnstrnt.__init__" target="_top">
<path fill="#d88c8c" stroke="#000000" stroke-width=".25" d="M563,-200C563,-200 405,-200 405,-200 399,-200 393,-194 393,-188 393,-188 393,-176 393,-176 393,-170 399,-164 405,-164 405,-164 563,-164 563,-164 569,-164 575,-170 575,-176 575,-176 575,-188 575,-188 575,-194 569,-200 563,-200"/>
<text text-anchor="middle" x="484" y="-179.8" font-family="Vera Sans, DejaVu Sans, Liberation Sans, Arial, Helvetica, sans" font-size="9.00" fill="#000000">cbpdn.ConvTwoBlockCnstrnt.__init__</text>
</a>
</g>
</g>
<!-- cbpdn.ConvTwoBlockCnstrnt.setdict -->
<g id="node2" class="node">
<title>cbpdn.ConvTwoBlockCnstrnt.setdict</title>
<g id="a_node2"><a xlink:href="../../sporco.admm.cbpdn.html#sporco.admm.cbpdn.ConvTwoBlockCnstrnt.setdict" xlink:title="cbpdn.ConvTwoBlockCnstrnt.setdict" target="_top">
<path fill="#d88c8c" stroke="#000000" stroke-width=".25" d="M783.5,-200C783.5,-200 625.5,-200 625.5,-200 619.5,-200 613.5,-194 613.5,-188 613.5,-188 613.5,-176 613.5,-176 613.5,-170 619.5,-164 625.5,-164 625.5,-164 783.5,-164 783.5,-164 789.5,-164 795.5,-170 795.5,-176 795.5,-176 795.5,-188 795.5,-188 795.5,-194 789.5,-200 783.5,-200"/>
<text text-anchor="middle" x="704.5" y="-179.8" font-family="Vera Sans, DejaVu Sans, Liberation Sans, Arial, Helvetica, sans" font-size="9.00" fill="#000000">cbpdn.ConvTwoBlockCnstrnt.setdict</text>
</a>
</g>
</g>
<!-- cbpdn.ConvTwoBlockCnstrnt.__init__&#45;&gt;cbpdn.ConvTwoBlockCnstrnt.setdict -->
<g id="edge1" class="edge">
<title>cbpdn.ConvTwoBlockCnstrnt.__init__&#45;&gt;cbpdn.ConvTwoBlockCnstrnt.setdict</title>
<path fill="none" stroke="#d88c8c" stroke-width="2" d="M575.28,-182C584.5,-182 593.91,-182 603.23,-182"/>
<polygon fill="#d88c8c" stroke="#d88c8c" stroke-width="2" points="603.29,-185.5001 613.29,-182 603.29,-178.5001 603.29,-185.5001"/>
</g>
<!-- admm.ADMMTwoBlockCnstrnt.__init__ -->
<g id="node5" class="node">
<title>admm.ADMMTwoBlockCnstrnt.__init__</title>
<g id="a_node5"><a xlink:href="../../sporco.admm.admm.html#sporco.admm.admm.ADMMTwoBlockCnstrnt.__init__" xlink:title="admm.ADMMTwoBlockCnstrnt.__init__" target="_top">
<path fill="#8cd8d6" stroke="#000000" stroke-width=".25" d="M786,-44C786,-44 623,-44 623,-44 617,-44 611,-38 611,-32 611,-32 611,-20 611,-20 611,-14 617,-8 623,-8 623,-8 786,-8 786,-8 792,-8 798,-14 798,-20 798,-20 798,-32 798,-32 798,-38 792,-44 786,-44"/>
<text text-anchor="middle" x="704.5" y="-23.8" font-family="Vera Sans, DejaVu Sans, Liberation Sans, Arial, Helvetica, sans" font-size="9.00" fill="#000000">admm.ADMMTwoBlockCnstrnt.__init__</text>
</a>
</g>
</g>
<!-- cbpdn.ConvTwoBlockCnstrnt.__init__&#45;&gt;admm.ADMMTwoBlockCnstrnt.__init__ -->
<g id="edge9" class="edge">
<title>cbpdn.ConvTwoBlockCnstrnt.__init__&#45;&gt;admm.ADMMTwoBlockCnstrnt.__init__</title>
<path fill="none" stroke="#d88c8c" stroke-width="2" d="M500.76,-163.76C522.64,-140.72 562.88,-100.83 603,-74 617.36,-64.4 633.94,-55.694 649.48,-48.415"/>
<polygon fill="#d88c8c" stroke="#d88c8c" stroke-width="2" points="651.3476,-51.4099 658.99,-44.072 648.4397,-45.0424 651.3476,-51.4099"/>
</g>
<!-- cbpdn.ConvRepIndexing.__init__ -->
<g id="node10" class="node">
<title>cbpdn.ConvRepIndexing.__init__</title>
<g id="a_node10"><a xlink:href="../../sporco.admm.cbpdn.html#sporco.admm.cbpdn.ConvRepIndexing.__init__" xlink:title="cbpdn.ConvRepIndexing.__init__" target="_top">
<path fill="#d88c91" stroke="#000000" stroke-width=".25" d="M774,-122C774,-122 635,-122 635,-122 629,-122 623,-116 623,-110 623,-110 623,-98 623,-98 623,-92 629,-86 635,-86 635,-86 774,-86 774,-86 780,-86 786,-92 786,-98 786,-98 786,-110 786,-110 786,-116 780,-122 774,-122"/>
<text text-anchor="middle" x="704.5" y="-101.8" font-family="Vera Sans, DejaVu Sans, Liberation Sans, Arial, Helvetica, sans" font-size="9.00" fill="#000000">cbpdn.ConvRepIndexing.__init__</text>
</a>
</g>
</g>
<!-- cbpdn.ConvTwoBlockCnstrnt.__init__&#45;&gt;cbpdn.ConvRepIndexing.__init__ -->
<g id="edge8" class="edge">
<title>cbpdn.ConvTwoBlockCnstrnt.__init__&#45;&gt;cbpdn.ConvRepIndexing.__init__</title>
<path fill="none" stroke="#d88c8c" stroke-width="2" d="M535.14,-163.91C567.45,-152.48 609.37,-137.65 643.42,-125.61"/>
<polygon fill="#d88c8c" stroke="#d88c8c" stroke-width="2" points="644.9913,-128.7666 653.25,-122.13 642.6552,-122.1679 644.9913,-128.7666"/>
</g>
<!-- cbpdn.ConvMinL1InL2Ball.__init__ -->
<g id="node3" class="node">
<title>cbpdn.ConvMinL1InL2Ball.__init__</title>
<g id="a_node3"><a xlink:href="../../sporco.admm.cbpdn.html#sporco.admm.cbpdn.ConvMinL1InL2Ball.__init__" xlink:title="cbpdn.ConvMinL1InL2Ball.__init__" target="_top">
<path fill="#d48cd8" stroke="#000000" stroke-width=".25" d="M345,-278C345,-278 201,-278 201,-278 195,-278 189,-272 189,-266 189,-266 189,-254 189,-254 189,-248 195,-242 201,-242 201,-242 345,-242 345,-242 351,-242 357,-248 357,-254 357,-254 357,-266 357,-266 357,-272 351,-278 345,-278"/>
<text text-anchor="middle" x="273" y="-257.8" font-family="Vera Sans, DejaVu Sans, Liberation Sans, Arial, Helvetica, sans" font-size="9.00" fill="#000000">cbpdn.ConvMinL1InL2Ball.__init__</text>
</a>
</g>
</g>
<!-- cbpdn.ConvMinL1InL2Ball.__init__&#45;&gt;cbpdn.ConvTwoBlockCnstrnt.__init__ -->
<g id="edge6" class="edge">
<title>cbpdn.ConvMinL1InL2Ball.__init__&#45;&gt;cbpdn.ConvTwoBlockCnstrnt.__init__</title>
<path fill="none" stroke="#d48cd8" stroke-width="2" d="M321.94,-241.91C352.85,-230.48 392.97,-215.65 425.55,-203.61"/>
<polygon fill="#d48cd8" stroke="#d48cd8" stroke-width="2" points="426.7949,-206.8814 434.96,-200.13 424.3668,-200.316 426.7949,-206.8814"/>
</g>
<!-- cbpdn.ConvMinL1InL2Ball.uinit -->
<g id="node4" class="node">
<title>cbpdn.ConvMinL1InL2Ball.uinit</title>
<g id="a_node4"><a xlink:href="../../sporco.admm.cbpdn.html#sporco.admm.cbpdn.ConvMinL1InL2Ball.uinit" xlink:title="cbpdn.ConvMinL1InL2Ball.uinit" target="_top">
<path fill="#d48cd8" stroke="#000000" stroke-width=".25" d="M1125,-278C1125,-278 993,-278 993,-278 987,-278 981,-272 981,-266 981,-266 981,-254 981,-254 981,-248 987,-242 993,-242 993,-242 1125,-242 1125,-242 1131,-242 1137,-248 1137,-254 1137,-254 1137,-266 1137,-266 1137,-272 1131,-278 1125,-278"/>
<text text-anchor="middle" x="1059" y="-257.8" font-family="Vera Sans, DejaVu Sans, Liberation Sans, Arial, Helvetica, sans" font-size="9.00" fill="#000000">cbpdn.ConvMinL1InL2Ball.uinit</text>
</a>
</g>
</g>
<!-- admm.ADMM.__init__ -->
<g id="node6" class="node">
<title>admm.ADMM.__init__</title>
<g id="a_node6"><a xlink:href="../../sporco.admm.admm.html#sporco.admm.admm.ADMM.__init__" xlink:title="admm.ADMM.__init__" target="_top">
<path fill="#8ed88c" stroke="#000000" stroke-width=".25" d="M933,-108C933,-108 846,-108 846,-108 840,-108 834,-102 834,-96 834,-96 834,-84 834,-84 834,-78 840,-72 846,-72 846,-72 933,-72 933,-72 939,-72 945,-78 945,-84 945,-84 945,-96 945,-96 945,-102 939,-108 933,-108"/>
<text text-anchor="middle" x="889.5" y="-87.8" font-family="Vera Sans, DejaVu Sans, Liberation Sans, Arial, Helvetica, sans" font-size="9.00" fill="#000000">admm.ADMM.__init__</text>
</a>
</g>
</g>
<!-- admm.ADMMTwoBlockCnstrnt.__init__&#45;&gt;admm.ADMM.__init__ -->
<g id="edge10" class="edge">
<title>admm.ADMMTwoBlockCnstrnt.__init__&#45;&gt;admm.ADMM.__init__</title>
<path fill="none" stroke="#8cd8d6" stroke-width="2" d="M757.02,-44.169C778.98,-51.768 804.67,-60.655 827.56,-68.571"/>
<polygon fill="#8cd8d6" stroke="#8cd8d6" stroke-width="2" points="826.5752,-71.9338 837.17,-71.897 828.8647,-65.3188 826.5752,-71.9338"/>
</g>
<!-- admm.ADMM.__init__&#45;&gt;cbpdn.ConvMinL1InL2Ball.uinit -->
<g id="edge7" class="edge">
<title>admm.ADMM.__init__&#45;&gt;cbpdn.ConvMinL1InL2Ball.uinit</title>
<path fill="none" stroke="#8ed88c" stroke-width="2" d="M904.73,-108.3C922.39,-129.2 952.71,-164.11 981,-192 996.2,-207.01 1014.1,-222.75 1029,-235.31"/>
<polygon fill="#8ed88c" stroke="#8ed88c" stroke-width="2" points="1026.911,-238.1276 1036.8,-241.93 1031.4406,-232.7907 1026.911,-238.1276"/>
</g>
<!-- admm.ADMM.yinit -->
<g id="node7" class="node">
<title>admm.ADMM.yinit</title>
<g id="a_node7"><a xlink:href="../../sporco.admm.admm.html#sporco.admm.admm.ADMM.yinit" xlink:title="admm.ADMM.yinit" target="_top">
<path fill="#8ed88c" stroke="#000000" stroke-width=".25" d="M1096,-54C1096,-54 1022,-54 1022,-54 1016,-54 1010,-48 1010,-42 1010,-42 1010,-30 1010,-30 1010,-24 1016,-18 1022,-18 1022,-18 1096,-18 1096,-18 1102,-18 1108,-24 1108,-30 1108,-30 1108,-42 1108,-42 1108,-48 1102,-54 1096,-54"/>
<text text-anchor="middle" x="1059" y="-33.8" font-family="Vera Sans, DejaVu Sans, Liberation Sans, Arial, Helvetica, sans" font-size="9.00" fill="#000000">admm.ADMM.yinit</text>
</a>
</g>
</g>
<!-- admm.ADMM.__init__&#45;&gt;admm.ADMM.yinit -->
<g id="edge2" class="edge">
<title>admm.ADMM.__init__&#45;&gt;admm.ADMM.yinit</title>
<path fill="none" stroke="#8ed88c" stroke-width="2" d="M945,-72.318C962.68,-66.687 982.29,-60.438 1000.2,-54.735"/>
<polygon fill="#8ed88c" stroke="#8ed88c" stroke-width="2" points="1001.4437,-58.0119 1009.9,-51.629 999.309,-51.3453 1001.4437,-58.0119"/>
</g>
<!-- admm.ADMM.set_attr -->
<g id="node8" class="node">
<title>admm.ADMM.set_attr</title>
<g id="a_node8"><a xlink:href="../../sporco.admm.admm.html#sporco.admm.admm.ADMM.set_attr" xlink:title="admm.ADMM.set_attr" target="_top">
<path fill="#8ed88c" stroke="#000000" stroke-width=".25" d="M1105,-108C1105,-108 1013,-108 1013,-108 1007,-108 1001,-102 1001,-96 1001,-96 1001,-84 1001,-84 1001,-78 1007,-72 1013,-72 1013,-72 1105,-72 1105,-72 1111,-72 1117,-78 1117,-84 1117,-84 1117,-96 1117,-96 1117,-102 1111,-108 1105,-108"/>
<text text-anchor="middle" x="1059" y="-87.8" font-family="Vera Sans, DejaVu Sans, Liberation Sans, Arial, Helvetica, sans" font-size="9.00" fill="#000000">admm.ADMM.set_attr</text>
</a>
</g>
</g>
<!-- admm.ADMM.__init__&#45;&gt;admm.ADMM.set_attr -->
<g id="edge3" class="edge">
<title>admm.ADMM.__init__&#45;&gt;admm.ADMM.set_attr</title>
<path fill="none" stroke="#8ed88c" stroke-width="2" d="M945,-90C959.51,-90 975.33,-90 990.43,-90"/>
<polygon fill="#8ed88c" stroke="#8ed88c" stroke-width="2" points="990.8,-93.5001 1000.8,-90 990.8,-86.5001 990.8,-93.5001"/>
</g>
<!-- admm.ADMM.set_dtype -->
<g id="node9" class="node">
<title>admm.ADMM.set_dtype</title>
<g id="a_node9"><a xlink:href="../../sporco.admm.admm.html#sporco.admm.admm.ADMM.set_dtype" xlink:title="admm.ADMM.set_dtype" target="_top">
<path fill="#8ed88c" stroke="#000000" stroke-width=".25" d="M1109.5,-162C1109.5,-162 1008.5,-162 1008.5,-162 1002.5,-162 996.5,-156 996.5,-150 996.5,-150 996.5,-138 996.5,-138 996.5,-132 1002.5,-126 1008.5,-126 1008.5,-126 1109.5,-126 1109.5,-126 1115.5,-126 1121.5,-132 1121.5,-138 1121.5,-138 1121.5,-150 1121.5,-150 1121.5,-156 1115.5,-162 1109.5,-162"/>
<text text-anchor="middle" x="1059" y="-141.8" font-family="Vera Sans, DejaVu Sans, Liberation Sans, Arial, Helvetica, sans" font-size="9.00" fill="#000000">admm.ADMM.set_dtype</text>
</a>
</g>
</g>
<!-- admm.ADMM.__init__&#45;&gt;admm.ADMM.set_dtype -->
<g id="edge4" class="edge">
<title>admm.ADMM.__init__&#45;&gt;admm.ADMM.set_dtype</title>
<path fill="none" stroke="#8ed88c" stroke-width="2" d="M945,-107.68C960.19,-112.52 976.81,-117.82 992.5,-122.83"/>
<polygon fill="#8ed88c" stroke="#8ed88c" stroke-width="2" points="991.6097,-126.2194 1002.2,-125.91 993.7282,-119.5477 991.6097,-126.2194"/>
</g>
<!-- admm._ADMM_Meta.__call__ -->
<g id="node11" class="node">
<title>admm._ADMM_Meta.__call__</title>
<g id="a_node11"><a xlink:href="../../sporco.admm.admm.html#sporco.admm.admm._ADMM_Meta.__call__" xlink:title="admm._ADMM_Meta.__call__" target="_top">
<path fill="#8c8fd8" stroke="#000000" stroke-width=".25" d="M141,-278C141,-278 20,-278 20,-278 14,-278 8,-272 8,-266 8,-266 8,-254 8,-254 8,-248 14,-242 20,-242 20,-242 141,-242 141,-242 147,-242 153,-248 153,-254 153,-254 153,-266 153,-266 153,-272 147,-278 141,-278"/>
<text text-anchor="middle" x="80.5" y="-257.8" font-family="Vera Sans, DejaVu Sans, Liberation Sans, Arial, Helvetica, sans" font-size="9.00" fill="#000000">admm._ADMM_Meta.__call__</text>
</a>
</g>
</g>
<!-- admm._ADMM_Meta.__call__&#45;&gt;cbpdn.ConvMinL1InL2Ball.__init__ -->
<g id="edge5" class="edge">
<title>admm._ADMM_Meta.__call__&#45;&gt;cbpdn.ConvMinL1InL2Ball.__init__</title>
<path fill="none" stroke="#8c8fd8" stroke-width="2" d="M153,-260C161.43,-260 170.11,-260 178.78,-260"/>
<polygon fill="#8c8fd8" stroke="#8c8fd8" stroke-width="2" points="178.92,-263.5001 188.92,-260 178.92,-256.5001 178.92,-263.5001"/>
</g>
</g>
</svg>
