<?xml version="1.0" encoding="UTF-8" standalone="no"?>
<!DOCTYPE svg PUBLIC "-//W3C//DTD SVG 1.1//EN"
 "http://www.w3.org/Graphics/SVG/1.1/DTD/svg11.dtd">
<!-- Generated by graphviz version 2.40.1 (20161225.0304)
 -->
<!-- Pages: 1 -->
<svg
 viewBox="0.00 0.00 2293.00 995.00" xmlns="http://www.w3.org/2000/svg" xmlns:xlink="http://www.w3.org/1999/xlink">
<g id="graph0" class="graph" transform="scale(1 1) rotate(0) translate(4 991)">
<polygon fill="transparent" stroke="transparent" points="-4,4 -4,-991 2289,-991 2289,4 -4,4"/>
<g id="clust1" class="cluster">
<title>cluster_dictlrn._DictLearn_Meta</title>
<polygon fill="transparent" stroke="#d88c8c" stroke-width="2" stroke-dasharray="1,5" points="42,-644 42,-714 220,-714 220,-644 42,-644"/>
<text text-anchor="middle" x="131" y="-702.8" font-family="Vera Sans, DejaVu Sans, Liberation Sans, Arial, Helvetica, sans" font-size="9.00" fill="#000000">dictlrn._DictLearn_Meta</text>
</g>
<g id="clust2" class="cluster">
<title>cluster_ccmodmd.ConvCnstrMODMaskDcplBase</title>
<polygon fill="transparent" stroke="#d88c99" stroke-width="2" stroke-dasharray="1,5" points="282,-78 282,-202 2285,-202 2285,-78 282,-78"/>
<text text-anchor="middle" x="1283.5" y="-190.8" font-family="Vera Sans, DejaVu Sans, Liberation Sans, Arial, Helvetica, sans" font-size="9.00" fill="#000000">ccmodmd.ConvCnstrMODMaskDcplBase</text>
</g>
<g id="clust3" class="cluster">
<title>cluster_cbpdndl.ConvBPDNMaskDcplDictLearn</title>
<polygon fill="transparent" stroke="#8ca8d8" stroke-width="2" stroke-dasharray="1,5" points="285.5,-644 285.5,-714 530.5,-714 530.5,-644 285.5,-644"/>
<text text-anchor="middle" x="408" y="-702.8" font-family="Vera Sans, DejaVu Sans, Liberation Sans, Arial, Helvetica, sans" font-size="9.00" fill="#000000">cbpdndl.ConvBPDNMaskDcplDictLearn</text>
</g>
<g id="clust4" class="cluster">
<title>cluster_cbpdn.ConvTwoBlockCnstrnt</title>
<polygon fill="transparent" stroke="#8cbdd8" stroke-width="2" stroke-dasharray="1,5" points="1165,-552 1165,-622 1583.5,-622 1583.5,-552 1165,-552"/>
<text text-anchor="middle" x="1374.2" y="-610.8" font-family="Vera Sans, DejaVu Sans, Liberation Sans, Arial, Helvetica, sans" font-size="9.00" fill="#000000">cbpdn.ConvTwoBlockCnstrnt</text>
</g>
<g id="clust5" class="cluster">
<title>cluster_cbpdn.ConvBPDNMaskDcpl</title>
<polygon fill="transparent" stroke="#8cd8c9" stroke-width="2" stroke-dasharray="1,5" points="953,-474 953,-544 1963,-544 1963,-474 953,-474"/>
<text text-anchor="middle" x="1458" y="-532.8" font-family="Vera Sans, DejaVu Sans, Liberation Sans, Arial, Helvetica, sans" font-size="9.00" fill="#000000">cbpdn.ConvBPDNMaskDcpl</text>
</g>
<g id="clust6" class="cluster">
<title>cluster_ccmod.ConvRepIndexing</title>
<polygon fill="transparent" stroke="#8c94d8" stroke-width="2" stroke-dasharray="1,5" points="560.5,-411 560.5,-481 740.5,-481 740.5,-411 560.5,-411"/>
<text text-anchor="middle" x="650.5" y="-469.8" font-family="Vera Sans, DejaVu Sans, Liberation Sans, Arial, Helvetica, sans" font-size="9.00" fill="#000000">ccmod.ConvRepIndexing</text>
</g>
<g id="clust7" class="cluster">
<title>cluster_admm.ADMM</title>
<polygon fill="transparent" stroke="#8ed88c" stroke-width="2" stroke-dasharray="1,5" points="974.5,-210 974.5,-388 1943.5,-388 1943.5,-210 974.5,-210"/>
<text text-anchor="middle" x="1459" y="-376.8" font-family="Vera Sans, DejaVu Sans, Liberation Sans, Arial, Helvetica, sans" font-size="9.00" fill="#000000">admm.ADMM</text>
</g>
<g id="clust8" class="cluster">
<title>cluster_admm._ADMM_Meta</title>
<polygon fill="transparent" stroke="#8cd8b5" stroke-width="2" stroke-dasharray="1,5" points="769.5,-489 769.5,-613 930.5,-613 930.5,-489 769.5,-489"/>
<text text-anchor="middle" x="850" y="-601.8" font-family="Vera Sans, DejaVu Sans, Liberation Sans, Arial, Helvetica, sans" font-size="9.00" fill="#000000">admm._ADMM_Meta</text>
</g>
<g id="clust9" class="cluster">
<title>cluster_ccmod.zpad</title>
<polygon fill="transparent" stroke="#d88cc3" stroke-width="2" stroke-dasharray="1,5" points="606.5,-605 606.5,-675 694.5,-675 694.5,-605 606.5,-605"/>
<text text-anchor="middle" x="650.5" y="-663.8" font-family="Vera Sans, DejaVu Sans, Liberation Sans, Arial, Helvetica, sans" font-size="9.00" fill="#000000">ccmod.zpad</text>
</g>
<g id="clust10" class="cluster">
<title>cluster_ccmod.stdformD</title>
<polygon fill="transparent" stroke="#d88cd8" stroke-width="2" stroke-dasharray="1,5" points="596,-683 596,-753 705,-753 705,-683 596,-683"/>
<text text-anchor="middle" x="650.5" y="-741.8" font-family="Vera Sans, DejaVu Sans, Liberation Sans, Arial, Helvetica, sans" font-size="9.00" fill="#000000">ccmod.stdformD</text>
</g>
<g id="clust11" class="cluster">
<title>cluster_dictlrn.IterStatsConfig</title>
<polygon fill="transparent" stroke="#d88c8c" stroke-width="2" stroke-dasharray="1,5" points="565.5,-839 565.5,-909 735.5,-909 735.5,-839 565.5,-839"/>
<text text-anchor="middle" x="650.5" y="-897.8" font-family="Vera Sans, DejaVu Sans, Liberation Sans, Arial, Helvetica, sans" font-size="9.00" fill="#000000">dictlrn.IterStatsConfig</text>
</g>
<g id="clust12" class="cluster">
<title>cluster_admm.ADMMTwoBlockCnstrnt</title>
<polygon fill="transparent" stroke="#8cd8a0" stroke-width="2" stroke-dasharray="1,5" points="1383,-396 1383,-466 2260.5,-466 2260.5,-396 1383,-396"/>
<text text-anchor="middle" x="1821.8" y="-454.8" font-family="Vera Sans, DejaVu Sans, Liberation Sans, Arial, Helvetica, sans" font-size="9.00" fill="#000000">admm.ADMMTwoBlockCnstrnt</text>
</g>
<g id="clust13" class="cluster">
<title>cluster_cbpdn.ConvRepIndexing</title>
<polygon fill="transparent" stroke="#8cd2d8" stroke-width="2" stroke-dasharray="1,5" points="1395,-630 1395,-700 1574,-700 1574,-630 1395,-630"/>
<text text-anchor="middle" x="1484.5" y="-688.8" font-family="Vera Sans, DejaVu Sans, Liberation Sans, Arial, Helvetica, sans" font-size="9.00" fill="#000000">cbpdn.ConvRepIndexing</text>
</g>
<g id="clust14" class="cluster">
<title>cluster_ccmod.getPcn</title>
<polygon fill="transparent" stroke="#af8cd8" stroke-width="2" stroke-dasharray="1,5" points="601,0 601,-70 700,-70 700,0 601,0"/>
<text text-anchor="middle" x="650.5" y="-58.8" font-family="Vera Sans, DejaVu Sans, Liberation Sans, Arial, Helvetica, sans" font-size="9.00" fill="#000000">ccmod.getPcn</text>
</g>
<g id="clust15" class="cluster">
<title>cluster_ccmod.getPcn0</title>
<polygon fill="transparent" stroke="#c48cd8" stroke-width="2" stroke-dasharray="1,5" points="598,-761 598,-831 703,-831 703,-761 598,-761"/>
<text text-anchor="middle" x="650.5" y="-819.8" font-family="Vera Sans, DejaVu Sans, Liberation Sans, Arial, Helvetica, sans" font-size="9.00" fill="#000000">ccmod.getPcn0</text>
</g>
<g id="clust16" class="cluster">
<title>cluster_ccmod.DictionarySize</title>
<polygon fill="transparent" stroke="#9a8cd8" stroke-width="2" stroke-dasharray="1,5" points="767,-411 767,-481 933,-481 933,-411 767,-411"/>
<text text-anchor="middle" x="850" y="-469.8" font-family="Vera Sans, DejaVu Sans, Liberation Sans, Arial, Helvetica, sans" font-size="9.00" fill="#000000">ccmod.DictionarySize</text>
</g>
<g id="clust17" class="cluster">
<title>cluster_ccmodmd.ConvCnstrMODMaskDcpl</title>
<polygon fill="transparent" stroke="#d88cae" stroke-width="2" stroke-dasharray="1,5" points="554,-527 554,-597 747,-597 747,-527 554,-527"/>
<text text-anchor="middle" x="650.5" y="-585.8" font-family="Vera Sans, DejaVu Sans, Liberation Sans, Arial, Helvetica, sans" font-size="9.00" fill="#000000">ccmodmd.ConvCnstrMODMaskDcpl</text>
</g>
<g id="clust18" class="cluster">
<title>cluster_dictlrn.DictLearn</title>
<polygon fill="transparent" stroke="#d88c8c" stroke-width="2" stroke-dasharray="1,5" points="578.5,-917 578.5,-987 722.5,-987 722.5,-917 578.5,-917"/>
<text text-anchor="middle" x="650.5" y="-975.8" font-family="Vera Sans, DejaVu Sans, Liberation Sans, Arial, Helvetica, sans" font-size="9.00" fill="#000000">dictlrn.DictLearn</text>
</g>
<g id="clust19" class="cluster">
<title>cluster_ccmodmd.ConvCnstrMODMaskDcpl_IterSM</title>
<polygon fill="transparent" stroke="#d88c8c" stroke-width="2" stroke-dasharray="1,5" points="0,-132 0,-202 262,-202 262,-132 0,-132"/>
<text text-anchor="middle" x="131" y="-190.8" font-family="Vera Sans, DejaVu Sans, Liberation Sans, Arial, Helvetica, sans" font-size="9.00" fill="#000000">ccmodmd.ConvCnstrMODMaskDcpl_IterSM</text>
</g>
<!-- dictlrn._DictLearn_Meta.__call__ -->
<g id="node1" class="node">
<title>dictlrn._DictLearn_Meta.__call__</title>
<g id="a_node1"><a xlink:href="../../sporco.admm.dictlrn.html#sporco.admm.dictlrn._DictLearn_Meta.__call__" xlink:title="dictlrn._DictLearn_Meta.__call__" target="_top">
<path fill="#d88c8c" stroke="#000000" stroke-width=".25" d="M200,-688C200,-688 62,-688 62,-688 56,-688 50,-682 50,-676 50,-676 50,-664 50,-664 50,-658 56,-652 62,-652 62,-652 200,-652 200,-652 206,-652 212,-658 212,-664 212,-664 212,-676 212,-676 212,-682 206,-688 200,-688"/>
<text text-anchor="middle" x="131" y="-667.8" font-family="Vera Sans, DejaVu Sans, Liberation Sans, Arial, Helvetica, sans" font-size="9.00" fill="#000000">dictlrn._DictLearn_Meta.__call__</text>
</a>
</g>
</g>
<!-- cbpdndl.ConvBPDNMaskDcplDictLearn.__init__ -->
<g id="node6" class="node">
<title>cbpdndl.ConvBPDNMaskDcplDictLearn.__init__</title>
<g id="a_node6"><a xlink:href="../../sporco.admm.cbpdndl.html#sporco.admm.cbpdndl.ConvBPDNMaskDcplDictLearn.__init__" xlink:title="cbpdndl.ConvBPDNMaskDcplDictLearn.__init__" target="_top">
<path fill="#8ca8d8" stroke="#000000" stroke-width=".25" d="M510.5,-688C510.5,-688 305.5,-688 305.5,-688 299.5,-688 293.5,-682 293.5,-676 293.5,-676 293.5,-664 293.5,-664 293.5,-658 299.5,-652 305.5,-652 305.5,-652 510.5,-652 510.5,-652 516.5,-652 522.5,-658 522.5,-664 522.5,-664 522.5,-676 522.5,-676 522.5,-682 516.5,-688 510.5,-688"/>
<text text-anchor="middle" x="408" y="-667.8" font-family="Vera Sans, DejaVu Sans, Liberation Sans, Arial, Helvetica, sans" font-size="9.00" fill="#000000">cbpdndl.ConvBPDNMaskDcplDictLearn.__init__</text>
</a>
</g>
</g>
<!-- dictlrn._DictLearn_Meta.__call__&#45;&gt;cbpdndl.ConvBPDNMaskDcplDictLearn.__init__ -->
<g id="edge24" class="edge">
<title>dictlrn._DictLearn_Meta.__call__&#45;&gt;cbpdndl.ConvBPDNMaskDcplDictLearn.__init__</title>
<path fill="none" stroke="#d88c8c" stroke-width="2" d="M212.24,-670C234.45,-670 259.04,-670 283.08,-670"/>
<polygon fill="#d88c8c" stroke="#d88c8c" stroke-width="2" points="283.35,-673.5001 293.35,-670 283.35,-666.5001 283.35,-673.5001"/>
</g>
<!-- ccmodmd.ConvCnstrMODMaskDcplBase.block_cat -->
<g id="node2" class="node">
<title>ccmodmd.ConvCnstrMODMaskDcplBase.block_cat</title>
<g id="a_node2"><a xlink:href="../../sporco.admm.ccmodmd.html#sporco.admm.ccmodmd.ConvCnstrMODMaskDcplBase.block_cat" xlink:title="ccmodmd.ConvCnstrMODMaskDcplBase.block_cat" target="_top">
<path fill="#d88c99" stroke="#000000" stroke-width=".25" d="M2261,-122C2261,-122 2037,-122 2037,-122 2031,-122 2025,-116 2025,-110 2025,-110 2025,-98 2025,-98 2025,-92 2031,-86 2037,-86 2037,-86 2261,-86 2261,-86 2267,-86 2273,-92 2273,-98 2273,-98 2273,-110 2273,-110 2273,-116 2267,-122 2261,-122"/>
<text text-anchor="middle" x="2149" y="-101.8" font-family="Vera Sans, DejaVu Sans, Liberation Sans, Arial, Helvetica, sans" font-size="9.00" fill="#000000">ccmodmd.ConvCnstrMODMaskDcplBase.block_cat</text>
</a>
</g>
</g>
<!-- ccmodmd.ConvCnstrMODMaskDcplBase.block_sep0 -->
<g id="node3" class="node">
<title>ccmodmd.ConvCnstrMODMaskDcplBase.block_sep0</title>
<g id="a_node3"><a xlink:href="../../sporco.admm.ccmodmd.html#sporco.admm.ccmodmd.ConvCnstrMODMaskDcplBase.block_sep0" xlink:title="ccmodmd.ConvCnstrMODMaskDcplBase.block_sep0" target="_top">
<path fill="#d88c99" stroke="#000000" stroke-width=".25" d="M2265,-176C2265,-176 2033,-176 2033,-176 2027,-176 2021,-170 2021,-164 2021,-164 2021,-152 2021,-152 2021,-146 2027,-140 2033,-140 2033,-140 2265,-140 2265,-140 2271,-140 2277,-146 2277,-152 2277,-152 2277,-164 2277,-164 2277,-170 2271,-176 2265,-176"/>
<text text-anchor="middle" x="2149" y="-155.8" font-family="Vera Sans, DejaVu Sans, Liberation Sans, Arial, Helvetica, sans" font-size="9.00" fill="#000000">ccmodmd.ConvCnstrMODMaskDcplBase.block_sep0</text>
</a>
</g>
</g>
<!-- ccmodmd.ConvCnstrMODMaskDcplBase.uinit -->
<g id="node4" class="node">
<title>ccmodmd.ConvCnstrMODMaskDcplBase.uinit</title>
<g id="a_node4"><a xlink:href="../../sporco.admm.ccmodmd.html#sporco.admm.ccmodmd.ConvCnstrMODMaskDcplBase.uinit" xlink:title="ccmodmd.ConvCnstrMODMaskDcplBase.uinit" target="_top">
<path fill="#d88c99" stroke="#000000" stroke-width=".25" d="M1973,-176C1973,-176 1773,-176 1773,-176 1767,-176 1761,-170 1761,-164 1761,-164 1761,-152 1761,-152 1761,-146 1767,-140 1773,-140 1773,-140 1973,-140 1973,-140 1979,-140 1985,-146 1985,-152 1985,-152 1985,-164 1985,-164 1985,-170 1979,-176 1973,-176"/>
<text text-anchor="middle" x="1873" y="-155.8" font-family="Vera Sans, DejaVu Sans, Liberation Sans, Arial, Helvetica, sans" font-size="9.00" fill="#000000">ccmodmd.ConvCnstrMODMaskDcplBase.uinit</text>
</a>
</g>
</g>
<!-- ccmodmd.ConvCnstrMODMaskDcplBase.uinit&#45;&gt;ccmodmd.ConvCnstrMODMaskDcplBase.block_cat -->
<g id="edge1" class="edge">
<title>ccmodmd.ConvCnstrMODMaskDcplBase.uinit&#45;&gt;ccmodmd.ConvCnstrMODMaskDcplBase.block_cat</title>
<path fill="none" stroke="#d88c99" stroke-width="2" d="M1965.3,-139.94C1991.4,-134.83 2020,-129.24 2046.7,-124.02"/>
<polygon fill="#d88c99" stroke="#d88c99" stroke-width="2" points="2047.6601,-127.3985 2056.8,-122.04 2046.3134,-120.5292 2047.6601,-127.3985"/>
</g>
<!-- ccmodmd.ConvCnstrMODMaskDcplBase.uinit&#45;&gt;ccmodmd.ConvCnstrMODMaskDcplBase.block_sep0 -->
<g id="edge2" class="edge">
<title>ccmodmd.ConvCnstrMODMaskDcplBase.uinit&#45;&gt;ccmodmd.ConvCnstrMODMaskDcplBase.block_sep0</title>
<path fill="none" stroke="#d88c99" stroke-width="2" d="M1985.3,-158C1993.5,-158 2001.9,-158 2010.3,-158"/>
<polygon fill="#d88c99" stroke="#d88c99" stroke-width="2" points="2010.6,-161.5001 2020.6,-158 2010.6,-154.5001 2010.6,-161.5001"/>
</g>
<!-- admm.ADMMTwoBlockCnstrnt.block_sep1 -->
<g id="node23" class="node">
<title>admm.ADMMTwoBlockCnstrnt.block_sep1</title>
<g id="a_node23"><a xlink:href="../../sporco.admm.admm.html#sporco.admm.admm.ADMMTwoBlockCnstrnt.block_sep1" xlink:title="admm.ADMMTwoBlockCnstrnt.block_sep1" target="_top">
<path fill="#8cd8a0" stroke="#000000" stroke-width=".25" d="M2240.5,-440C2240.5,-440 2057.5,-440 2057.5,-440 2051.5,-440 2045.5,-434 2045.5,-428 2045.5,-428 2045.5,-416 2045.5,-416 2045.5,-410 2051.5,-404 2057.5,-404 2057.5,-404 2240.5,-404 2240.5,-404 2246.5,-404 2252.5,-410 2252.5,-416 2252.5,-416 2252.5,-428 2252.5,-428 2252.5,-434 2246.5,-440 2240.5,-440"/>
<text text-anchor="middle" x="2149" y="-419.8" font-family="Vera Sans, DejaVu Sans, Liberation Sans, Arial, Helvetica, sans" font-size="9.00" fill="#000000">admm.ADMMTwoBlockCnstrnt.block_sep1</text>
</a>
</g>
</g>
<!-- ccmodmd.ConvCnstrMODMaskDcplBase.uinit&#45;&gt;admm.ADMMTwoBlockCnstrnt.block_sep1 -->
<g id="edge27" class="edge">
<title>ccmodmd.ConvCnstrMODMaskDcplBase.uinit&#45;&gt;admm.ADMMTwoBlockCnstrnt.block_sep1</title>
<path fill="none" stroke="#d88c99" stroke-width="2" d="M1930.5,-176.05C1949,-183.52 1968.9,-193.43 1985,-206 2054.3,-260.12 2109.7,-350.2 2134.7,-394.99"/>
<polygon fill="#d88c99" stroke="#d88c99" stroke-width="2" points="2131.6557,-396.7184 2139.5,-403.84 2137.8089,-393.381 2131.6557,-396.7184"/>
</g>
<!-- ccmodmd.ConvCnstrMODMaskDcplBase.__init__ -->
<g id="node5" class="node">
<title>ccmodmd.ConvCnstrMODMaskDcplBase.__init__</title>
<g id="a_node5"><a xlink:href="../../sporco.admm.ccmodmd.html#sporco.admm.ccmodmd.ConvCnstrMODMaskDcplBase.__init__" xlink:title="ccmodmd.ConvCnstrMODMaskDcplBase.__init__" target="_top">
<path fill="#d88c99" stroke="#000000" stroke-width=".25" d="M514,-176C514,-176 302,-176 302,-176 296,-176 290,-170 290,-164 290,-164 290,-152 290,-152 290,-146 296,-140 302,-140 302,-140 514,-140 514,-140 520,-140 526,-146 526,-152 526,-152 526,-164 526,-164 526,-170 520,-176 514,-176"/>
<text text-anchor="middle" x="408" y="-155.8" font-family="Vera Sans, DejaVu Sans, Liberation Sans, Arial, Helvetica, sans" font-size="9.00" fill="#000000">ccmodmd.ConvCnstrMODMaskDcplBase.__init__</text>
</a>
</g>
</g>
<!-- ccmod.ConvRepIndexing.__init__ -->
<g id="node11" class="node">
<title>ccmod.ConvRepIndexing.__init__</title>
<g id="a_node11"><a xlink:href="../../sporco.admm.ccmod.html#sporco.admm.ccmod.ConvRepIndexing.__init__" xlink:title="ccmod.ConvRepIndexing.__init__" target="_top">
<path fill="#8c94d8" stroke="#000000" stroke-width=".25" d="M720.5,-455C720.5,-455 580.5,-455 580.5,-455 574.5,-455 568.5,-449 568.5,-443 568.5,-443 568.5,-431 568.5,-431 568.5,-425 574.5,-419 580.5,-419 580.5,-419 720.5,-419 720.5,-419 726.5,-419 732.5,-425 732.5,-431 732.5,-431 732.5,-443 732.5,-443 732.5,-449 726.5,-455 720.5,-455"/>
<text text-anchor="middle" x="650.5" y="-434.8" font-family="Vera Sans, DejaVu Sans, Liberation Sans, Arial, Helvetica, sans" font-size="9.00" fill="#000000">ccmod.ConvRepIndexing.__init__</text>
</a>
</g>
</g>
<!-- ccmodmd.ConvCnstrMODMaskDcplBase.__init__&#45;&gt;ccmod.ConvRepIndexing.__init__ -->
<g id="edge29" class="edge">
<title>ccmodmd.ConvCnstrMODMaskDcplBase.__init__&#45;&gt;ccmod.ConvRepIndexing.__init__</title>
<path fill="none" stroke="#d88c99" stroke-width="2" d="M412.73,-176.02C426.11,-223.33 468.95,-351.79 554,-415 555.65,-416.23 557.37,-417.39 559.13,-418.49"/>
<polygon fill="#d88c99" stroke="#d88c99" stroke-width="2" points="557.8249,-421.7649 568.28,-423.48 561.1764,-415.6193 557.8249,-421.7649"/>
</g>
<!-- admm.ADMMTwoBlockCnstrnt.__init__ -->
<g id="node22" class="node">
<title>admm.ADMMTwoBlockCnstrnt.__init__</title>
<g id="a_node22"><a xlink:href="../../sporco.admm.admm.html#sporco.admm.admm.ADMMTwoBlockCnstrnt.__init__" xlink:title="admm.ADMMTwoBlockCnstrnt.__init__" target="_top">
<path fill="#8cd8a0" stroke="#000000" stroke-width=".25" d="M1566,-440C1566,-440 1403,-440 1403,-440 1397,-440 1391,-434 1391,-428 1391,-428 1391,-416 1391,-416 1391,-410 1397,-404 1403,-404 1403,-404 1566,-404 1566,-404 1572,-404 1578,-410 1578,-416 1578,-416 1578,-428 1578,-428 1578,-434 1572,-440 1566,-440"/>
<text text-anchor="middle" x="1484.5" y="-419.8" font-family="Vera Sans, DejaVu Sans, Liberation Sans, Arial, Helvetica, sans" font-size="9.00" fill="#000000">admm.ADMMTwoBlockCnstrnt.__init__</text>
</a>
</g>
</g>
<!-- ccmodmd.ConvCnstrMODMaskDcplBase.__init__&#45;&gt;admm.ADMMTwoBlockCnstrnt.__init__ -->
<g id="edge28" class="edge">
<title>ccmodmd.ConvCnstrMODMaskDcplBase.__init__&#45;&gt;admm.ADMMTwoBlockCnstrnt.__init__</title>
<path fill="none" stroke="#d88c99" stroke-width="2" d="M413.69,-176.07C428.56,-219.81 473.1,-331.15 554,-377 828.34,-532.46 1224.5,-477.23 1397.8,-442.06"/>
<polygon fill="#d88c99" stroke="#d88c99" stroke-width="2" points="1398.6069,-445.4675 1407.7,-440.03 1397.2007,-438.6101 1398.6069,-445.4675"/>
</g>
<!-- ccmod.getPcn -->
<g id="node25" class="node">
<title>ccmod.getPcn</title>
<g id="a_node25"><a xlink:href="../../sporco.admm.ccmod.html#sporco.admm.ccmod.getPcn" xlink:title="ccmod.getPcn" target="_top">
<path fill="#af8cd8" stroke="#000000" stroke-width=".25" d="M680,-44C680,-44 621,-44 621,-44 615,-44 609,-38 609,-32 609,-32 609,-20 609,-20 609,-14 615,-8 621,-8 621,-8 680,-8 680,-8 686,-8 692,-14 692,-20 692,-20 692,-32 692,-32 692,-38 686,-44 680,-44"/>
<text text-anchor="middle" x="650.5" y="-23.8" font-family="Vera Sans, DejaVu Sans, Liberation Sans, Arial, Helvetica, sans" font-size="9.00" fill="#000000">ccmod.getPcn</text>
</a>
</g>
</g>
<!-- ccmodmd.ConvCnstrMODMaskDcplBase.__init__&#45;&gt;ccmod.getPcn -->
<g id="edge30" class="edge">
<title>ccmodmd.ConvCnstrMODMaskDcplBase.__init__&#45;&gt;ccmod.getPcn</title>
<path fill="none" stroke="#d88c99" stroke-width="2" d="M441.21,-139.92C484.71,-116.24 561.03,-74.702 608.5,-48.862"/>
<polygon fill="#d88c99" stroke="#d88c99" stroke-width="2" points="610.1915,-51.9262 617.3,-44.07 606.8438,-45.7786 610.1915,-51.9262"/>
</g>
<!-- cbpdndl.ConvBPDNMaskDcplDictLearn.__init__&#45;&gt;ccmod.ConvRepIndexing.__init__ -->
<g id="edge16" class="edge">
<title>cbpdndl.ConvBPDNMaskDcplDictLearn.__init__&#45;&gt;ccmod.ConvRepIndexing.__init__</title>
<path fill="none" stroke="#8ca8d8" stroke-width="2" d="M425.63,-651.54C452.73,-623.33 506.48,-568.02 554,-523 576.34,-501.84 602.43,-478.68 621.85,-461.73"/>
<polygon fill="#8ca8d8" stroke="#8ca8d8" stroke-width="2" points="624.2261,-464.3018 629.46,-455.09 619.6239,-459.0273 624.2261,-464.3018"/>
</g>
<!-- admm._ADMM_Meta.__call__ -->
<g id="node17" class="node">
<title>admm._ADMM_Meta.__call__</title>
<g id="a_node17"><a xlink:href="../../sporco.admm.admm.html#sporco.admm.admm._ADMM_Meta.__call__" xlink:title="admm._ADMM_Meta.__call__" target="_top">
<path fill="#8cd8b5" stroke="#000000" stroke-width=".25" d="M910.5,-533C910.5,-533 789.5,-533 789.5,-533 783.5,-533 777.5,-527 777.5,-521 777.5,-521 777.5,-509 777.5,-509 777.5,-503 783.5,-497 789.5,-497 789.5,-497 910.5,-497 910.5,-497 916.5,-497 922.5,-503 922.5,-509 922.5,-509 922.5,-521 922.5,-521 922.5,-527 916.5,-533 910.5,-533"/>
<text text-anchor="middle" x="850" y="-512.8" font-family="Vera Sans, DejaVu Sans, Liberation Sans, Arial, Helvetica, sans" font-size="9.00" fill="#000000">admm._ADMM_Meta.__call__</text>
</a>
</g>
</g>
<!-- cbpdndl.ConvBPDNMaskDcplDictLearn.__init__&#45;&gt;admm._ADMM_Meta.__call__ -->
<g id="edge15" class="edge">
<title>cbpdndl.ConvBPDNMaskDcplDictLearn.__init__&#45;&gt;admm._ADMM_Meta.__call__</title>
<path fill="none" stroke="#8ca8d8" stroke-width="2" d="M442.14,-651.97C471.31,-637.03 514.67,-615.9 554,-601 624.75,-574.2 707.63,-550.77 767.67,-535.16"/>
<polygon fill="#8ca8d8" stroke="#8ca8d8" stroke-width="2" points="768.6709,-538.5165 777.48,-532.63 766.9228,-531.7383 768.6709,-538.5165"/>
</g>
<!-- ccmod.zpad -->
<g id="node19" class="node">
<title>ccmod.zpad</title>
<g id="a_node19"><a xlink:href="../../sporco.admm.ccmod.html#sporco.admm.ccmod.zpad" xlink:title="ccmod.zpad" target="_top">
<path fill="#d88cc3" stroke="#000000" stroke-width=".25" d="M674.5,-649C674.5,-649 626.5,-649 626.5,-649 620.5,-649 614.5,-643 614.5,-637 614.5,-637 614.5,-625 614.5,-625 614.5,-619 620.5,-613 626.5,-613 626.5,-613 674.5,-613 674.5,-613 680.5,-613 686.5,-619 686.5,-625 686.5,-625 686.5,-637 686.5,-637 686.5,-643 680.5,-649 674.5,-649"/>
<text text-anchor="middle" x="650.5" y="-628.8" font-family="Vera Sans, DejaVu Sans, Liberation Sans, Arial, Helvetica, sans" font-size="9.00" fill="#000000">ccmod.zpad</text>
</a>
</g>
</g>
<!-- cbpdndl.ConvBPDNMaskDcplDictLearn.__init__&#45;&gt;ccmod.zpad -->
<g id="edge22" class="edge">
<title>cbpdndl.ConvBPDNMaskDcplDictLearn.__init__&#45;&gt;ccmod.zpad</title>
<path fill="none" stroke="#8ca8d8" stroke-width="2" d="M520.02,-651.98C549.88,-647.18 580.5,-642.26 604.56,-638.39"/>
<polygon fill="#8ca8d8" stroke="#8ca8d8" stroke-width="2" points="605.1324,-641.843 614.45,-636.8 604.0212,-634.9318 605.1324,-641.843"/>
</g>
<!-- ccmod.stdformD -->
<g id="node20" class="node">
<title>ccmod.stdformD</title>
<g id="a_node20"><a xlink:href="../../sporco.admm.ccmod.html#sporco.admm.ccmod.stdformD" xlink:title="ccmod.stdformD" target="_top">
<path fill="#d88cd8" stroke="#000000" stroke-width=".25" d="M685,-727C685,-727 616,-727 616,-727 610,-727 604,-721 604,-715 604,-715 604,-703 604,-703 604,-697 610,-691 616,-691 616,-691 685,-691 685,-691 691,-691 697,-697 697,-703 697,-703 697,-715 697,-715 697,-721 691,-727 685,-727"/>
<text text-anchor="middle" x="650.5" y="-706.8" font-family="Vera Sans, DejaVu Sans, Liberation Sans, Arial, Helvetica, sans" font-size="9.00" fill="#000000">ccmod.stdformD</text>
</a>
</g>
</g>
<!-- cbpdndl.ConvBPDNMaskDcplDictLearn.__init__&#45;&gt;ccmod.stdformD -->
<g id="edge21" class="edge">
<title>cbpdndl.ConvBPDNMaskDcplDictLearn.__init__&#45;&gt;ccmod.stdformD</title>
<path fill="none" stroke="#8ca8d8" stroke-width="2" d="M520.02,-688.02C545.52,-692.12 571.57,-696.31 593.61,-699.85"/>
<polygon fill="#8ca8d8" stroke="#8ca8d8" stroke-width="2" points="593.3418,-703.3517 603.77,-701.48 594.4507,-696.44 593.3418,-703.3517"/>
</g>
<!-- dictlrn.IterStatsConfig.__init__ -->
<g id="node21" class="node">
<title>dictlrn.IterStatsConfig.__init__</title>
<g id="a_node21"><a xlink:href="../../sporco.admm.dictlrn.html#sporco.admm.dictlrn.IterStatsConfig.__init__" xlink:title="dictlrn.IterStatsConfig.__init__" target="_top">
<path fill="#d88c8c" stroke="#000000" stroke-width=".25" d="M715.5,-883C715.5,-883 585.5,-883 585.5,-883 579.5,-883 573.5,-877 573.5,-871 573.5,-871 573.5,-859 573.5,-859 573.5,-853 579.5,-847 585.5,-847 585.5,-847 715.5,-847 715.5,-847 721.5,-847 727.5,-853 727.5,-859 727.5,-859 727.5,-871 727.5,-871 727.5,-877 721.5,-883 715.5,-883"/>
<text text-anchor="middle" x="650.5" y="-862.8" font-family="Vera Sans, DejaVu Sans, Liberation Sans, Arial, Helvetica, sans" font-size="9.00" fill="#000000">dictlrn.IterStatsConfig.__init__</text>
</a>
</g>
</g>
<!-- cbpdndl.ConvBPDNMaskDcplDictLearn.__init__&#45;&gt;dictlrn.IterStatsConfig.__init__ -->
<g id="edge19" class="edge">
<title>cbpdndl.ConvBPDNMaskDcplDictLearn.__init__&#45;&gt;dictlrn.IterStatsConfig.__init__</title>
<path fill="none" stroke="#8ca8d8" stroke-width="2" d="M417.93,-688.27C438.35,-724.03 488.71,-803.24 554,-843 557.2,-844.95 560.55,-846.72 564,-848.34"/>
<polygon fill="#8ca8d8" stroke="#8ca8d8" stroke-width="2" points="562.7945,-851.6297 573.37,-852.27 565.502,-845.1745 562.7945,-851.6297"/>
</g>
<!-- ccmod.getPcn0 -->
<g id="node26" class="node">
<title>ccmod.getPcn0</title>
<g id="a_node26"><a xlink:href="../../sporco.admm.ccmod.html#sporco.admm.ccmod.getPcn0" xlink:title="ccmod.getPcn0" target="_top">
<path fill="#c48cd8" stroke="#000000" stroke-width=".25" d="M683,-805C683,-805 618,-805 618,-805 612,-805 606,-799 606,-793 606,-793 606,-781 606,-781 606,-775 612,-769 618,-769 618,-769 683,-769 683,-769 689,-769 695,-775 695,-781 695,-781 695,-793 695,-793 695,-799 689,-805 683,-805"/>
<text text-anchor="middle" x="650.5" y="-784.8" font-family="Vera Sans, DejaVu Sans, Liberation Sans, Arial, Helvetica, sans" font-size="9.00" fill="#000000">ccmod.getPcn0</text>
</a>
</g>
</g>
<!-- cbpdndl.ConvBPDNMaskDcplDictLearn.__init__&#45;&gt;ccmod.getPcn0 -->
<g id="edge20" class="edge">
<title>cbpdndl.ConvBPDNMaskDcplDictLearn.__init__&#45;&gt;ccmod.getPcn0</title>
<path fill="none" stroke="#8ca8d8" stroke-width="2" d="M430.33,-688.17C457.81,-709.64 506.66,-744.96 554,-765 567.11,-770.55 581.85,-774.82 595.79,-778.04"/>
<polygon fill="#8ca8d8" stroke="#8ca8d8" stroke-width="2" points="595.2444,-781.5031 605.76,-780.21 596.7332,-774.6633 595.2444,-781.5031"/>
</g>
<!-- ccmodmd.ConvCnstrMODMaskDcpl -->
<g id="node28" class="node">
<title>ccmodmd.ConvCnstrMODMaskDcpl</title>
<g id="a_node28"><a xlink:href="../../sporco.admm.ccmodmd.html#sporco.admm.ccmodmd.ConvCnstrMODMaskDcpl" xlink:title="ccmodmd.ConvCnstrMODMaskDcpl" target="_top">
<path fill="#d88cae" stroke="#000000" stroke-width=".25" d="M727,-571C727,-571 574,-571 574,-571 568,-571 562,-565 562,-559 562,-559 562,-547 562,-547 562,-541 568,-535 574,-535 574,-535 727,-535 727,-535 733,-535 739,-541 739,-547 739,-547 739,-559 739,-559 739,-565 733,-571 727,-571"/>
<text text-anchor="middle" x="650.5" y="-550.8" font-family="Vera Sans, DejaVu Sans, Liberation Sans, Arial, Helvetica, sans" font-size="9.00" fill="#000000">ccmodmd.ConvCnstrMODMaskDcpl</text>
</a>
</g>
</g>
<!-- cbpdndl.ConvBPDNMaskDcplDictLearn.__init__&#45;&gt;ccmodmd.ConvCnstrMODMaskDcpl -->
<g id="edge17" class="edge">
<title>cbpdndl.ConvBPDNMaskDcplDictLearn.__init__&#45;&gt;ccmodmd.ConvCnstrMODMaskDcpl</title>
<path fill="none" stroke="#8ca8d8" stroke-width="2" d="M445.36,-651.98C487.99,-631.41 557.77,-597.74 603.91,-575.48"/>
<polygon fill="#8ca8d8" stroke="#8ca8d8" stroke-width="2" points="605.6118,-578.5452 613.1,-571.05 602.5721,-572.2395 605.6118,-578.5452"/>
</g>
<!-- dictlrn.DictLearn.__init__ -->
<g id="node29" class="node">
<title>dictlrn.DictLearn.__init__</title>
<g id="a_node29"><a xlink:href="../../sporco.admm.dictlrn.html#sporco.admm.dictlrn.DictLearn.__init__" xlink:title="dictlrn.DictLearn.__init__" target="_top">
<path fill="#d88c8c" stroke="#000000" stroke-width=".25" d="M702.5,-961C702.5,-961 598.5,-961 598.5,-961 592.5,-961 586.5,-955 586.5,-949 586.5,-949 586.5,-937 586.5,-937 586.5,-931 592.5,-925 598.5,-925 598.5,-925 702.5,-925 702.5,-925 708.5,-925 714.5,-931 714.5,-937 714.5,-937 714.5,-949 714.5,-949 714.5,-955 708.5,-961 702.5,-961"/>
<text text-anchor="middle" x="650.5" y="-940.8" font-family="Vera Sans, DejaVu Sans, Liberation Sans, Arial, Helvetica, sans" font-size="9.00" fill="#000000">dictlrn.DictLearn.__init__</text>
</a>
</g>
</g>
<!-- cbpdndl.ConvBPDNMaskDcplDictLearn.__init__&#45;&gt;dictlrn.DictLearn.__init__ -->
<g id="edge18" class="edge">
<title>cbpdndl.ConvBPDNMaskDcplDictLearn.__init__&#45;&gt;dictlrn.DictLearn.__init__</title>
<path fill="none" stroke="#8ca8d8" stroke-width="2" d="M413.06,-688.28C426.99,-735.05 470.54,-859.63 554,-921 560.82,-926.01 568.58,-929.91 576.67,-932.94"/>
<polygon fill="#8ca8d8" stroke="#8ca8d8" stroke-width="2" points="575.6971,-936.3044 586.29,-936.1 577.8817,-929.654 575.6971,-936.3044"/>
</g>
<!-- cbpdn.ConvTwoBlockCnstrnt.setdict -->
<g id="node7" class="node">
<title>cbpdn.ConvTwoBlockCnstrnt.setdict</title>
<g id="a_node7"><a xlink:href="../../sporco.admm.cbpdn.html#sporco.admm.cbpdn.ConvTwoBlockCnstrnt.setdict" xlink:title="cbpdn.ConvTwoBlockCnstrnt.setdict" target="_top">
<path fill="#8cbdd8" stroke="#000000" stroke-width=".25" d="M1563.5,-596C1563.5,-596 1405.5,-596 1405.5,-596 1399.5,-596 1393.5,-590 1393.5,-584 1393.5,-584 1393.5,-572 1393.5,-572 1393.5,-566 1399.5,-560 1405.5,-560 1405.5,-560 1563.5,-560 1563.5,-560 1569.5,-560 1575.5,-566 1575.5,-572 1575.5,-572 1575.5,-584 1575.5,-584 1575.5,-590 1569.5,-596 1563.5,-596"/>
<text text-anchor="middle" x="1484.5" y="-575.8" font-family="Vera Sans, DejaVu Sans, Liberation Sans, Arial, Helvetica, sans" font-size="9.00" fill="#000000">cbpdn.ConvTwoBlockCnstrnt.setdict</text>
</a>
</g>
</g>
<!-- cbpdn.ConvTwoBlockCnstrnt.__init__ -->
<g id="node8" class="node">
<title>cbpdn.ConvTwoBlockCnstrnt.__init__</title>
<g id="a_node8"><a xlink:href="../../sporco.admm.cbpdn.html#sporco.admm.cbpdn.ConvTwoBlockCnstrnt.__init__" xlink:title="cbpdn.ConvTwoBlockCnstrnt.__init__" target="_top">
<path fill="#8cbdd8" stroke="#000000" stroke-width=".25" d="M1343,-596C1343,-596 1185,-596 1185,-596 1179,-596 1173,-590 1173,-584 1173,-584 1173,-572 1173,-572 1173,-566 1179,-560 1185,-560 1185,-560 1343,-560 1343,-560 1349,-560 1355,-566 1355,-572 1355,-572 1355,-584 1355,-584 1355,-590 1349,-596 1343,-596"/>
<text text-anchor="middle" x="1264" y="-575.8" font-family="Vera Sans, DejaVu Sans, Liberation Sans, Arial, Helvetica, sans" font-size="9.00" fill="#000000">cbpdn.ConvTwoBlockCnstrnt.__init__</text>
</a>
</g>
</g>
<!-- cbpdn.ConvTwoBlockCnstrnt.__init__&#45;&gt;cbpdn.ConvTwoBlockCnstrnt.setdict -->
<g id="edge3" class="edge">
<title>cbpdn.ConvTwoBlockCnstrnt.__init__&#45;&gt;cbpdn.ConvTwoBlockCnstrnt.setdict</title>
<path fill="none" stroke="#8cbdd8" stroke-width="2" d="M1355.3,-578C1364.5,-578 1373.9,-578 1383.2,-578"/>
<polygon fill="#8cbdd8" stroke="#8cbdd8" stroke-width="2" points="1383.3,-581.5001 1393.3,-578 1383.3,-574.5001 1383.3,-581.5001"/>
</g>
<!-- cbpdn.ConvTwoBlockCnstrnt.__init__&#45;&gt;admm.ADMMTwoBlockCnstrnt.__init__ -->
<g id="edge8" class="edge">
<title>cbpdn.ConvTwoBlockCnstrnt.__init__&#45;&gt;admm.ADMMTwoBlockCnstrnt.__init__</title>
<path fill="none" stroke="#8cbdd8" stroke-width="2" d="M1289.7,-559.8C1329.6,-531.62 1406.2,-477.41 1450.5,-446.04"/>
<polygon fill="#8cbdd8" stroke="#8cbdd8" stroke-width="2" points="1452.7697,-448.7212 1458.9,-440.08 1448.719,-443.0122 1452.7697,-448.7212"/>
</g>
<!-- cbpdn.ConvRepIndexing.__init__ -->
<g id="node24" class="node">
<title>cbpdn.ConvRepIndexing.__init__</title>
<g id="a_node24"><a xlink:href="../../sporco.admm.cbpdn.html#sporco.admm.cbpdn.ConvRepIndexing.__init__" xlink:title="cbpdn.ConvRepIndexing.__init__" target="_top">
<path fill="#8cd2d8" stroke="#000000" stroke-width=".25" d="M1554,-674C1554,-674 1415,-674 1415,-674 1409,-674 1403,-668 1403,-662 1403,-662 1403,-650 1403,-650 1403,-644 1409,-638 1415,-638 1415,-638 1554,-638 1554,-638 1560,-638 1566,-644 1566,-650 1566,-650 1566,-662 1566,-662 1566,-668 1560,-674 1554,-674"/>
<text text-anchor="middle" x="1484.5" y="-653.8" font-family="Vera Sans, DejaVu Sans, Liberation Sans, Arial, Helvetica, sans" font-size="9.00" fill="#000000">cbpdn.ConvRepIndexing.__init__</text>
</a>
</g>
</g>
<!-- cbpdn.ConvTwoBlockCnstrnt.__init__&#45;&gt;cbpdn.ConvRepIndexing.__init__ -->
<g id="edge7" class="edge">
<title>cbpdn.ConvTwoBlockCnstrnt.__init__&#45;&gt;cbpdn.ConvRepIndexing.__init__</title>
<path fill="none" stroke="#8cbdd8" stroke-width="2" d="M1315.1,-596.09C1347.4,-607.52 1389.4,-622.35 1423.4,-634.39"/>
<polygon fill="#8cbdd8" stroke="#8cbdd8" stroke-width="2" points="1422.7052,-637.8556 1433.3,-637.87 1425.0266,-631.2518 1422.7052,-637.8556"/>
</g>
<!-- cbpdn.ConvBPDNMaskDcpl.uinit -->
<g id="node9" class="node">
<title>cbpdn.ConvBPDNMaskDcpl.uinit</title>
<g id="a_node9"><a xlink:href="../../sporco.admm.cbpdn.html#sporco.admm.cbpdn.ConvBPDNMaskDcpl.uinit" xlink:title="cbpdn.ConvBPDNMaskDcpl.uinit" target="_top">
<path fill="#8cd8c9" stroke="#000000" stroke-width=".25" d="M1943,-518C1943,-518 1803,-518 1803,-518 1797,-518 1791,-512 1791,-506 1791,-506 1791,-494 1791,-494 1791,-488 1797,-482 1803,-482 1803,-482 1943,-482 1943,-482 1949,-482 1955,-488 1955,-494 1955,-494 1955,-506 1955,-506 1955,-512 1949,-518 1943,-518"/>
<text text-anchor="middle" x="1873" y="-497.8" font-family="Vera Sans, DejaVu Sans, Liberation Sans, Arial, Helvetica, sans" font-size="9.00" fill="#000000">cbpdn.ConvBPDNMaskDcpl.uinit</text>
</a>
</g>
</g>
<!-- cbpdn.ConvBPDNMaskDcpl.__init__ -->
<g id="node10" class="node">
<title>cbpdn.ConvBPDNMaskDcpl.__init__</title>
<g id="a_node10"><a xlink:href="../../sporco.admm.cbpdn.html#sporco.admm.cbpdn.ConvBPDNMaskDcpl.__init__" xlink:title="cbpdn.ConvBPDNMaskDcpl.__init__" target="_top">
<path fill="#8cd8c9" stroke="#000000" stroke-width=".25" d="M1125,-518C1125,-518 973,-518 973,-518 967,-518 961,-512 961,-506 961,-506 961,-494 961,-494 961,-488 967,-482 973,-482 973,-482 1125,-482 1125,-482 1131,-482 1137,-488 1137,-494 1137,-494 1137,-506 1137,-506 1137,-512 1131,-518 1125,-518"/>
<text text-anchor="middle" x="1049" y="-497.8" font-family="Vera Sans, DejaVu Sans, Liberation Sans, Arial, Helvetica, sans" font-size="9.00" fill="#000000">cbpdn.ConvBPDNMaskDcpl.__init__</text>
</a>
</g>
</g>
<!-- cbpdn.ConvBPDNMaskDcpl.__init__&#45;&gt;cbpdn.ConvTwoBlockCnstrnt.__init__ -->
<g id="edge9" class="edge">
<title>cbpdn.ConvBPDNMaskDcpl.__init__&#45;&gt;cbpdn.ConvTwoBlockCnstrnt.__init__</title>
<path fill="none" stroke="#8cd8c9" stroke-width="2" d="M1098.9,-518.09C1130.4,-529.52 1171.2,-544.35 1204.4,-556.39"/>
<polygon fill="#8cd8c9" stroke="#8cd8c9" stroke-width="2" points="1203.4058,-559.7524 1214,-559.87 1205.7915,-553.1715 1203.4058,-559.7524"/>
</g>
<!-- ccmod.DictionarySize.__init__ -->
<g id="node27" class="node">
<title>ccmod.DictionarySize.__init__</title>
<g id="a_node27"><a xlink:href="../../sporco.admm.ccmod.html#sporco.admm.ccmod.DictionarySize.__init__" xlink:title="ccmod.DictionarySize.__init__" target="_top">
<path fill="#9a8cd8" stroke="#000000" stroke-width=".25" d="M913,-455C913,-455 787,-455 787,-455 781,-455 775,-449 775,-443 775,-443 775,-431 775,-431 775,-425 781,-419 787,-419 787,-419 913,-419 913,-419 919,-419 925,-425 925,-431 925,-431 925,-443 925,-443 925,-449 919,-455 913,-455"/>
<text text-anchor="middle" x="850" y="-434.8" font-family="Vera Sans, DejaVu Sans, Liberation Sans, Arial, Helvetica, sans" font-size="9.00" fill="#000000">ccmod.DictionarySize.__init__</text>
</a>
</g>
</g>
<!-- ccmod.ConvRepIndexing.__init__&#45;&gt;ccmod.DictionarySize.__init__ -->
<g id="edge23" class="edge">
<title>ccmod.ConvRepIndexing.__init__&#45;&gt;ccmod.DictionarySize.__init__</title>
<path fill="none" stroke="#8c94d8" stroke-width="2" d="M732.51,-437C743.1,-437 753.96,-437 764.6,-437"/>
<polygon fill="#8c94d8" stroke="#8c94d8" stroke-width="2" points="764.72,-440.5001 774.72,-437 764.72,-433.5001 764.72,-440.5001"/>
</g>
<!-- admm.ADMM.itstat_fields -->
<g id="node12" class="node">
<title>admm.ADMM.itstat_fields</title>
<g id="a_node12"><a xlink:href="../../sporco.admm.admm.html#sporco.admm.admm.ADMM.itstat_fields" xlink:title="admm.ADMM.itstat_fields" target="_top">
<path fill="#8ed88c" stroke="#000000" stroke-width=".25" d="M1103.5,-362C1103.5,-362 994.5,-362 994.5,-362 988.5,-362 982.5,-356 982.5,-350 982.5,-350 982.5,-338 982.5,-338 982.5,-332 988.5,-326 994.5,-326 994.5,-326 1103.5,-326 1103.5,-326 1109.5,-326 1115.5,-332 1115.5,-338 1115.5,-338 1115.5,-350 1115.5,-350 1115.5,-356 1109.5,-362 1103.5,-362"/>
<text text-anchor="middle" x="1049" y="-341.8" font-family="Vera Sans, DejaVu Sans, Liberation Sans, Arial, Helvetica, sans" font-size="9.00" fill="#000000">admm.ADMM.itstat_fields</text>
</a>
</g>
</g>
<!-- admm.ADMM.set_attr -->
<g id="node13" class="node">
<title>admm.ADMM.set_attr</title>
<g id="a_node13"><a xlink:href="../../sporco.admm.admm.html#sporco.admm.admm.ADMM.set_attr" xlink:title="admm.ADMM.set_attr" target="_top">
<path fill="#8ed88c" stroke="#000000" stroke-width=".25" d="M1919,-254C1919,-254 1827,-254 1827,-254 1821,-254 1815,-248 1815,-242 1815,-242 1815,-230 1815,-230 1815,-224 1821,-218 1827,-218 1827,-218 1919,-218 1919,-218 1925,-218 1931,-224 1931,-230 1931,-230 1931,-242 1931,-242 1931,-248 1925,-254 1919,-254"/>
<text text-anchor="middle" x="1873" y="-233.8" font-family="Vera Sans, DejaVu Sans, Liberation Sans, Arial, Helvetica, sans" font-size="9.00" fill="#000000">admm.ADMM.set_attr</text>
</a>
</g>
</g>
<!-- admm.ADMM.__init__ -->
<g id="node14" class="node">
<title>admm.ADMM.__init__</title>
<g id="a_node14"><a xlink:href="../../sporco.admm.admm.html#sporco.admm.admm.ADMM.__init__" xlink:title="admm.ADMM.__init__" target="_top">
<path fill="#8ed88c" stroke="#000000" stroke-width=".25" d="M1713,-335C1713,-335 1626,-335 1626,-335 1620,-335 1614,-329 1614,-323 1614,-323 1614,-311 1614,-311 1614,-305 1620,-299 1626,-299 1626,-299 1713,-299 1713,-299 1719,-299 1725,-305 1725,-311 1725,-311 1725,-323 1725,-323 1725,-329 1719,-335 1713,-335"/>
<text text-anchor="middle" x="1669.5" y="-314.8" font-family="Vera Sans, DejaVu Sans, Liberation Sans, Arial, Helvetica, sans" font-size="9.00" fill="#000000">admm.ADMM.__init__</text>
</a>
</g>
</g>
<!-- admm.ADMM.__init__&#45;&gt;ccmodmd.ConvCnstrMODMaskDcplBase.uinit -->
<g id="edge14" class="edge">
<title>admm.ADMM.__init__&#45;&gt;ccmodmd.ConvCnstrMODMaskDcplBase.uinit</title>
<path fill="none" stroke="#8ed88c" stroke-width="2" d="M1720.8,-298.72C1722.3,-297.55 1723.7,-296.31 1725,-295 1755.3,-264.93 1731.1,-236.48 1761,-206 1771.4,-195.38 1784.5,-186.97 1798.1,-180.36"/>
<polygon fill="#8ed88c" stroke="#8ed88c" stroke-width="2" points="1799.9267,-183.3755 1807.6,-176.07 1797.0457,-176.9958 1799.9267,-183.3755"/>
</g>
<!-- admm.ADMM.__init__&#45;&gt;cbpdn.ConvBPDNMaskDcpl.uinit -->
<g id="edge13" class="edge">
<title>admm.ADMM.__init__&#45;&gt;cbpdn.ConvBPDNMaskDcpl.uinit</title>
<path fill="none" stroke="#8ed88c" stroke-width="2" d="M1674.3,-335.13C1684.3,-369.03 1710.8,-441.84 1761,-478 1767.1,-482.42 1773.9,-486.01 1781.1,-488.92"/>
<polygon fill="#8ed88c" stroke="#8ed88c" stroke-width="2" points="1780.3059,-492.3553 1790.9,-492.48 1782.696,-485.7759 1780.3059,-492.3553"/>
</g>
<!-- admm.ADMM.__init__&#45;&gt;admm.ADMM.set_attr -->
<g id="edge4" class="edge">
<title>admm.ADMM.__init__&#45;&gt;admm.ADMM.set_attr</title>
<path fill="none" stroke="#8ed88c" stroke-width="2" d="M1718.1,-298.91C1720.5,-297.66 1722.8,-296.36 1725,-295 1743.2,-283.77 1742,-272.92 1761,-263 1774.6,-255.89 1790.1,-250.62 1805.1,-246.72"/>
<polygon fill="#8ed88c" stroke="#8ed88c" stroke-width="2" points="1806.0029,-250.1026 1814.9,-244.35 1804.3575,-243.2987 1806.0029,-250.1026"/>
</g>
<!-- admm.ADMM.yinit -->
<g id="node15" class="node">
<title>admm.ADMM.yinit</title>
<g id="a_node15"><a xlink:href="../../sporco.admm.admm.html#sporco.admm.admm.ADMM.yinit" xlink:title="admm.ADMM.yinit" target="_top">
<path fill="#8ed88c" stroke="#000000" stroke-width=".25" d="M1910,-308C1910,-308 1836,-308 1836,-308 1830,-308 1824,-302 1824,-296 1824,-296 1824,-284 1824,-284 1824,-278 1830,-272 1836,-272 1836,-272 1910,-272 1910,-272 1916,-272 1922,-278 1922,-284 1922,-284 1922,-296 1922,-296 1922,-302 1916,-308 1910,-308"/>
<text text-anchor="middle" x="1873" y="-287.8" font-family="Vera Sans, DejaVu Sans, Liberation Sans, Arial, Helvetica, sans" font-size="9.00" fill="#000000">admm.ADMM.yinit</text>
</a>
</g>
</g>
<!-- admm.ADMM.__init__&#45;&gt;admm.ADMM.yinit -->
<g id="edge5" class="edge">
<title>admm.ADMM.__init__&#45;&gt;admm.ADMM.yinit</title>
<path fill="none" stroke="#8ed88c" stroke-width="2" d="M1725.1,-309.62C1752.6,-305.98 1785.7,-301.58 1813.7,-297.87"/>
<polygon fill="#8ed88c" stroke="#8ed88c" stroke-width="2" points="1814.2488,-301.3279 1823.7,-296.54 1813.3258,-294.389 1814.2488,-301.3279"/>
</g>
<!-- admm.ADMM.set_dtype -->
<g id="node16" class="node">
<title>admm.ADMM.set_dtype</title>
<g id="a_node16"><a xlink:href="../../sporco.admm.admm.html#sporco.admm.admm.ADMM.set_dtype" xlink:title="admm.ADMM.set_dtype" target="_top">
<path fill="#8ed88c" stroke="#000000" stroke-width=".25" d="M1923.5,-362C1923.5,-362 1822.5,-362 1822.5,-362 1816.5,-362 1810.5,-356 1810.5,-350 1810.5,-350 1810.5,-338 1810.5,-338 1810.5,-332 1816.5,-326 1822.5,-326 1822.5,-326 1923.5,-326 1923.5,-326 1929.5,-326 1935.5,-332 1935.5,-338 1935.5,-338 1935.5,-350 1935.5,-350 1935.5,-356 1929.5,-362 1923.5,-362"/>
<text text-anchor="middle" x="1873" y="-341.8" font-family="Vera Sans, DejaVu Sans, Liberation Sans, Arial, Helvetica, sans" font-size="9.00" fill="#000000">admm.ADMM.set_dtype</text>
</a>
</g>
</g>
<!-- admm.ADMM.__init__&#45;&gt;admm.ADMM.set_dtype -->
<g id="edge6" class="edge">
<title>admm.ADMM.__init__&#45;&gt;admm.ADMM.set_dtype</title>
<path fill="none" stroke="#8ed88c" stroke-width="2" d="M1725.1,-324.38C1748.3,-327.45 1775.5,-331.06 1800.2,-334.34"/>
<polygon fill="#8ed88c" stroke="#8ed88c" stroke-width="2" points="1799.9265,-337.8343 1810.3,-335.68 1800.8472,-330.8951 1799.9265,-337.8343"/>
</g>
<!-- admm._ADMM_Meta.__call__&#45;&gt;cbpdn.ConvBPDNMaskDcpl.__init__ -->
<g id="edge10" class="edge">
<title>admm._ADMM_Meta.__call__&#45;&gt;cbpdn.ConvBPDNMaskDcpl.__init__</title>
<path fill="none" stroke="#8cd8b5" stroke-width="2" d="M922.69,-509.52C931.82,-508.83 941.28,-508.12 950.72,-507.41"/>
<polygon fill="#8cd8b5" stroke="#8cd8b5" stroke-width="2" points="951.2409,-510.8808 960.95,-506.64 950.7155,-503.9005 951.2409,-510.8808"/>
</g>
<!-- admm._ADMM_Meta.__init__ -->
<g id="node18" class="node">
<title>admm._ADMM_Meta.__init__</title>
<g id="a_node18"><a xlink:href="../../sporco.admm.admm.html#sporco.admm.admm._ADMM_Meta.__init__" xlink:title="admm._ADMM_Meta.__init__" target="_top">
<path fill="#8cd8b5" stroke="#000000" stroke-width=".25" d="M909.5,-587C909.5,-587 790.5,-587 790.5,-587 784.5,-587 778.5,-581 778.5,-575 778.5,-575 778.5,-563 778.5,-563 778.5,-557 784.5,-551 790.5,-551 790.5,-551 909.5,-551 909.5,-551 915.5,-551 921.5,-557 921.5,-563 921.5,-563 921.5,-575 921.5,-575 921.5,-581 915.5,-587 909.5,-587"/>
<text text-anchor="middle" x="850" y="-566.8" font-family="Vera Sans, DejaVu Sans, Liberation Sans, Arial, Helvetica, sans" font-size="9.00" fill="#000000">admm._ADMM_Meta.__init__</text>
</a>
</g>
</g>
<!-- admm._ADMM_Meta.__init__&#45;&gt;admm.ADMM.itstat_fields -->
<g id="edge11" class="edge">
<title>admm._ADMM_Meta.__init__&#45;&gt;admm.ADMM.itstat_fields</title>
<path fill="none" stroke="#8cd8b5" stroke-width="2" d="M921.71,-555.71C925.81,-553.26 929.64,-550.38 933,-547 957.94,-521.94 937.54,-501.8 953,-470 971.58,-431.78 1002.7,-393.79 1024.5,-369.68"/>
<polygon fill="#8cd8b5" stroke="#8cd8b5" stroke-width="2" points="1027.3124,-371.7921 1031.5,-362.06 1022.1573,-367.0565 1027.3124,-371.7921"/>
</g>
<!-- admm.ADMMTwoBlockCnstrnt.__init__&#45;&gt;admm.ADMM.__init__ -->
<g id="edge12" class="edge">
<title>admm.ADMMTwoBlockCnstrnt.__init__&#45;&gt;admm.ADMM.__init__</title>
<path fill="none" stroke="#8cd8a0" stroke-width="2" d="M1575.4,-403.98C1578.1,-402.74 1580.9,-401.42 1583.5,-400 1609.6,-385.97 1633.4,-361.75 1649.3,-343.08"/>
<polygon fill="#8cd8a0" stroke="#8cd8a0" stroke-width="2" points="1652.1305,-345.1491 1655.8,-335.21 1646.7333,-340.6914 1652.1305,-345.1491"/>
</g>
<!-- ccmodmd.ConvCnstrMODMaskDcpl&#45;&gt;admm._ADMM_Meta.__call__ -->
<g id="edge25" class="edge">
<title>ccmodmd.ConvCnstrMODMaskDcpl&#45;&gt;admm._ADMM_Meta.__call__</title>
<path fill="none" stroke="#d88cae" stroke-width="2" d="M739.17,-536.11C748.57,-534.32 758.1,-532.51 767.42,-530.73"/>
<polygon fill="#d88cae" stroke="#d88cae" stroke-width="2" points="768.2813,-534.129 777.45,-528.82 766.9718,-527.2525 768.2813,-534.129"/>
</g>
<!-- ccmodmd.ConvCnstrMODMaskDcpl&#45;&gt;admm._ADMM_Meta.__init__ -->
<g id="edge26" class="edge">
<title>ccmodmd.ConvCnstrMODMaskDcpl&#45;&gt;admm._ADMM_Meta.__init__</title>
<path fill="none" stroke="#d88cae" stroke-width="2" d="M739.17,-560.11C748.79,-560.88 758.56,-561.67 768.11,-562.43"/>
<polygon fill="#d88cae" stroke="#d88cae" stroke-width="2" points="768.1127,-565.9413 778.36,-563.25 768.671,-558.9636 768.1127,-565.9413"/>
</g>
<!-- ccmodmd.ConvCnstrMODMaskDcpl_IterSM.__init__ -->
<g id="node30" class="node">
<title>ccmodmd.ConvCnstrMODMaskDcpl_IterSM.__init__</title>
<g id="a_node30"><a xlink:href="../../sporco.admm.ccmodmd.html#sporco.admm.ccmodmd.ConvCnstrMODMaskDcpl_IterSM.__init__" xlink:title="ccmodmd.ConvCnstrMODMaskDcpl_IterSM.__init__" target="_top">
<path fill="#d88c8c" stroke="#000000" stroke-width=".25" d="M242,-176C242,-176 20,-176 20,-176 14,-176 8,-170 8,-164 8,-164 8,-152 8,-152 8,-146 14,-140 20,-140 20,-140 242,-140 242,-140 248,-140 254,-146 254,-152 254,-152 254,-164 254,-164 254,-170 248,-176 242,-176"/>
<text text-anchor="middle" x="131" y="-155.8" font-family="Vera Sans, DejaVu Sans, Liberation Sans, Arial, Helvetica, sans" font-size="9.00" fill="#000000">ccmodmd.ConvCnstrMODMaskDcpl_IterSM.__init__</text>
</a>
</g>
</g>
<!-- ccmodmd.ConvCnstrMODMaskDcpl_IterSM.__init__&#45;&gt;ccmodmd.ConvCnstrMODMaskDcplBase.__init__ -->
<g id="edge31" class="edge">
<title>ccmodmd.ConvCnstrMODMaskDcpl_IterSM.__init__&#45;&gt;ccmodmd.ConvCnstrMODMaskDcplBase.__init__</title>
<path fill="none" stroke="#d88c8c" stroke-width="2" d="M254.11,-158C262.53,-158 271.03,-158 279.48,-158"/>
<polygon fill="#d88c8c" stroke="#d88c8c" stroke-width="2" points="279.76,-161.5001 289.76,-158 279.76,-154.5001 279.76,-161.5001"/>
</g>
</g>
</svg>
