<?xml version="1.0" encoding="UTF-8" standalone="no"?>
<!DOCTYPE svg PUBLIC "-//W3C//DTD SVG 1.1//EN"
 "http://www.w3.org/Graphics/SVG/1.1/DTD/svg11.dtd">
<!-- Generated by graphviz version 2.40.1 (20161225.0304)
 -->
<!-- Pages: 1 -->
<svg
 viewBox="0.00 0.00 1241.00 442.58" xmlns="http://www.w3.org/2000/svg" xmlns:xlink="http://www.w3.org/1999/xlink">
<g id="graph0" class="graph" transform="scale(1 1) rotate(0) translate(4 438.58)">
<polygon fill="transparent" stroke="transparent" points="-4,4 -4,-438.58 1237,-438.58 1237,4 -4,4"/>
<g id="clust1" class="cluster">
<title>cluster_cbpdn.ConvBPDN</title>
<polygon fill="transparent" stroke="#af8cd8" stroke-width="2" stroke-dasharray="1,5" points="369,-364.58 369,-434.58 1230.5,-434.58 1230.5,-364.58 369,-364.58"/>
<text text-anchor="middle" x="799.75" y="-423.38" font-family="Vera Sans, DejaVu Sans, Liberation Sans, Arial, Helvetica, sans" font-size="9.00" fill="#000000">cbpdn.ConvBPDN</text>
</g>
<g id="clust2" class="cluster">
<title>cluster_cbpdn.ConvRepIndexing</title>
<polygon fill="transparent" stroke="#d88c8c" stroke-width="2" stroke-dasharray="1,5" points="743.5,-208.58 743.5,-278.58 922.5,-278.58 922.5,-208.58 743.5,-208.58"/>
<text text-anchor="middle" x="833" y="-267.38" font-family="Vera Sans, DejaVu Sans, Liberation Sans, Arial, Helvetica, sans" font-size="9.00" fill="#000000">cbpdn.ConvRepIndexing</text>
</g>
<g id="clust3" class="cluster">
<title>cluster_cbpdn.ConvBPDNJoint</title>
<polygon fill="transparent" stroke="#d88cc3" stroke-width="2" stroke-dasharray="1,5" points="181,-364.58 181,-434.58 349,-434.58 349,-364.58 181,-364.58"/>
<text text-anchor="middle" x="265" y="-423.38" font-family="Vera Sans, DejaVu Sans, Liberation Sans, Arial, Helvetica, sans" font-size="9.00" fill="#000000">cbpdn.ConvBPDNJoint</text>
</g>
<g id="clust4" class="cluster">
<title>cluster_admm.ADMMEqual</title>
<polygon fill="transparent" stroke="#8cd8c9" stroke-width="2" stroke-dasharray="1,5" points="756.5,-130.579 756.5,-200.58 909.5,-200.58 909.5,-130.579 756.5,-130.579"/>
<text text-anchor="middle" x="833" y="-189.38" font-family="Vera Sans, DejaVu Sans, Liberation Sans, Arial, Helvetica, sans" font-size="9.00" fill="#000000">admm.ADMMEqual</text>
</g>
<g id="clust5" class="cluster">
<title>cluster_admm.ADMM</title>
<polygon fill="transparent" stroke="#8ed88c" stroke-width="2" stroke-dasharray="1,5" points="945,-46.579 945,-224.58 1233,-224.58 1233,-46.579 945,-46.579"/>
<text text-anchor="middle" x="1089" y="-213.38" font-family="Vera Sans, DejaVu Sans, Liberation Sans, Arial, Helvetica, sans" font-size="9.00" fill="#000000">admm.ADMM</text>
</g>
<g id="clust6" class="cluster">
<title>cluster_admm._ADMM_Meta</title>
<polygon fill="transparent" stroke="#8ca8d8" stroke-width="2" stroke-dasharray="1,5" points="0,-364.58 0,-434.58 161,-434.58 161,-364.58 0,-364.58"/>
<text text-anchor="middle" x="80.5" y="-423.38" font-family="Vera Sans, DejaVu Sans, Liberation Sans, Arial, Helvetica, sans" font-size="9.00" fill="#000000">admm._ADMM_Meta</text>
</g>
<g id="clust7" class="cluster">
<title>cluster_cbpdn.GenericConvBPDN</title>
<polygon fill="transparent" stroke="#d88c8c" stroke-width="2" stroke-dasharray="1,5" points="537,-286.58 537,-356.58 925,-356.58 925,-286.58 537,-286.58"/>
<text text-anchor="middle" x="731" y="-345.38" font-family="Vera Sans, DejaVu Sans, Liberation Sans, Arial, Helvetica, sans" font-size="9.00" fill="#000000">cbpdn.GenericConvBPDN</text>
</g>
<!-- cbpdn.ConvBPDN.__init__ -->
<g id="node1" class="node">
<title>cbpdn.ConvBPDN.__init__</title>
<g id="a_node1"><a xlink:href="../../sporco.admm.cbpdn.html#sporco.admm.cbpdn.ConvBPDN.__init__" xlink:title="cbpdn.ConvBPDN.__init__" target="_top">
<path fill="#af8cd8" stroke="#000000" stroke-width=".25" d="M497,-408.58C497,-408.58 389,-408.58 389,-408.58 383,-408.58 377,-402.58 377,-396.58 377,-396.58 377,-384.58 377,-384.58 377,-378.58 383,-372.58 389,-372.58 389,-372.58 497,-372.58 497,-372.58 503,-372.58 509,-378.58 509,-384.58 509,-384.58 509,-396.58 509,-396.58 509,-402.58 503,-408.58 497,-408.58"/>
<text text-anchor="middle" x="443" y="-388.38" font-family="Vera Sans, DejaVu Sans, Liberation Sans, Arial, Helvetica, sans" font-size="9.00" fill="#000000">cbpdn.ConvBPDN.__init__</text>
</a>
</g>
</g>
<!-- admm.ADMM.set_dtype -->
<g id="node7" class="node">
<title>admm.ADMM.set_dtype</title>
<g id="a_node7"><a xlink:href="../../sporco.admm.admm.html#sporco.admm.admm.ADMM.set_dtype" xlink:title="admm.ADMM.set_dtype" target="_top">
<path fill="#8ed88c" stroke="#000000" stroke-width=".25" d="M1213,-144.579C1213,-144.579 1112,-144.579 1112,-144.579 1106,-144.579 1100,-138.579 1100,-132.579 1100,-132.579 1100,-120.579 1100,-120.579 1100,-114.579 1106,-108.579 1112,-108.579 1112,-108.579 1213,-108.579 1213,-108.579 1219,-108.579 1225,-114.579 1225,-120.579 1225,-120.579 1225,-132.579 1225,-132.579 1225,-138.579 1219,-144.579 1213,-144.579"/>
<text text-anchor="middle" x="1162.5" y="-124.379" font-family="Vera Sans, DejaVu Sans, Liberation Sans, Arial, Helvetica, sans" font-size="9.00" fill="#000000">admm.ADMM.set_dtype</text>
</a>
</g>
</g>
<!-- cbpdn.ConvBPDN.__init__&#45;&gt;admm.ADMM.set_dtype -->
<g id="edge10" class="edge">
<title>cbpdn.ConvBPDN.__init__&#45;&gt;admm.ADMM.set_dtype</title>
<path fill="none" stroke="#af8cd8" stroke-width="2" d="M455.23,-372.56C491.6,-320.89 605.23,-172.94 743.5,-126.579 859.65,-87.638 1004.3,-99.93 1089.7,-112.901"/>
<polygon fill="#af8cd8" stroke="#af8cd8" stroke-width="2" points="1089.3788,-116.3933 1099.8,-114.483 1090.4621,-109.4776 1089.3788,-116.3933"/>
</g>
<!-- admm.ADMM.set_attr -->
<g id="node9" class="node">
<title>admm.ADMM.set_attr</title>
<g id="a_node9"><a xlink:href="../../sporco.admm.admm.html#sporco.admm.admm.ADMM.set_attr" xlink:title="admm.ADMM.set_attr" target="_top">
<path fill="#8ed88c" stroke="#000000" stroke-width=".25" d="M1208.5,-90.579C1208.5,-90.579 1116.5,-90.579 1116.5,-90.579 1110.5,-90.579 1104.5,-84.579 1104.5,-78.579 1104.5,-78.579 1104.5,-66.579 1104.5,-66.579 1104.5,-60.579 1110.5,-54.579 1116.5,-54.579 1116.5,-54.579 1208.5,-54.579 1208.5,-54.579 1214.5,-54.579 1220.5,-60.579 1220.5,-66.579 1220.5,-66.579 1220.5,-78.579 1220.5,-78.579 1220.5,-84.579 1214.5,-90.579 1208.5,-90.579"/>
<text text-anchor="middle" x="1162.5" y="-70.379" font-family="Vera Sans, DejaVu Sans, Liberation Sans, Arial, Helvetica, sans" font-size="9.00" fill="#000000">admm.ADMM.set_attr</text>
</a>
</g>
</g>
<!-- cbpdn.ConvBPDN.__init__&#45;&gt;admm.ADMM.set_attr -->
<g id="edge11" class="edge">
<title>cbpdn.ConvBPDN.__init__&#45;&gt;admm.ADMM.set_attr</title>
<path fill="none" stroke="#af8cd8" stroke-width="2" d="M443.88,-372.4C447.2,-325.29 462.94,-198.53 537,-135.58 696.51,0 968.13,-32.2178 1094.3,-56.901"/>
<polygon fill="#af8cd8" stroke="#af8cd8" stroke-width="2" points="1093.707,-60.3517 1104.2,-58.886 1095.0832,-53.4883 1093.707,-60.3517"/>
</g>
<!-- cbpdn.GenericConvBPDN.__init__ -->
<g id="node11" class="node">
<title>cbpdn.GenericConvBPDN.__init__</title>
<g id="a_node11"><a xlink:href="../../sporco.admm.cbpdn.html#sporco.admm.cbpdn.GenericConvBPDN.__init__" xlink:title="cbpdn.GenericConvBPDN.__init__" target="_top">
<path fill="#d88c8c" stroke="#000000" stroke-width=".25" d="M701,-330.58C701,-330.58 557,-330.58 557,-330.58 551,-330.58 545,-324.58 545,-318.58 545,-318.58 545,-306.58 545,-306.58 545,-300.58 551,-294.58 557,-294.58 557,-294.58 701,-294.58 701,-294.58 707,-294.58 713,-300.58 713,-306.58 713,-306.58 713,-318.58 713,-318.58 713,-324.58 707,-330.58 701,-330.58"/>
<text text-anchor="middle" x="629" y="-310.38" font-family="Vera Sans, DejaVu Sans, Liberation Sans, Arial, Helvetica, sans" font-size="9.00" fill="#000000">cbpdn.GenericConvBPDN.__init__</text>
</a>
</g>
</g>
<!-- cbpdn.ConvBPDN.__init__&#45;&gt;cbpdn.GenericConvBPDN.__init__ -->
<g id="edge9" class="edge">
<title>cbpdn.ConvBPDN.__init__&#45;&gt;cbpdn.GenericConvBPDN.__init__</title>
<path fill="none" stroke="#af8cd8" stroke-width="2" d="M486.14,-372.49C513.04,-361.21 547.84,-346.61 576.36,-334.65"/>
<polygon fill="#af8cd8" stroke="#af8cd8" stroke-width="2" points="577.8977,-337.8006 585.77,-330.71 575.1941,-331.3438 577.8977,-337.8006"/>
</g>
<!-- cbpdn.ConvBPDN.uinit -->
<g id="node2" class="node">
<title>cbpdn.ConvBPDN.uinit</title>
<g id="a_node2"><a xlink:href="../../sporco.admm.cbpdn.html#sporco.admm.cbpdn.ConvBPDN.uinit" xlink:title="cbpdn.ConvBPDN.uinit" target="_top">
<path fill="#af8cd8" stroke="#000000" stroke-width=".25" d="M1210.5,-408.58C1210.5,-408.58 1114.5,-408.58 1114.5,-408.58 1108.5,-408.58 1102.5,-402.58 1102.5,-396.58 1102.5,-396.58 1102.5,-384.58 1102.5,-384.58 1102.5,-378.58 1108.5,-372.58 1114.5,-372.58 1114.5,-372.58 1210.5,-372.58 1210.5,-372.58 1216.5,-372.58 1222.5,-378.58 1222.5,-384.58 1222.5,-384.58 1222.5,-396.58 1222.5,-396.58 1222.5,-402.58 1216.5,-408.58 1210.5,-408.58"/>
<text text-anchor="middle" x="1162.5" y="-388.38" font-family="Vera Sans, DejaVu Sans, Liberation Sans, Arial, Helvetica, sans" font-size="9.00" fill="#000000">cbpdn.ConvBPDN.uinit</text>
</a>
</g>
</g>
<!-- cbpdn.ConvRepIndexing.__init__ -->
<g id="node3" class="node">
<title>cbpdn.ConvRepIndexing.__init__</title>
<g id="a_node3"><a xlink:href="../../sporco.admm.cbpdn.html#sporco.admm.cbpdn.ConvRepIndexing.__init__" xlink:title="cbpdn.ConvRepIndexing.__init__" target="_top">
<path fill="#d88c8c" stroke="#000000" stroke-width=".25" d="M902.5,-252.58C902.5,-252.58 763.5,-252.58 763.5,-252.58 757.5,-252.58 751.5,-246.58 751.5,-240.58 751.5,-240.58 751.5,-228.58 751.5,-228.58 751.5,-222.58 757.5,-216.58 763.5,-216.58 763.5,-216.58 902.5,-216.58 902.5,-216.58 908.5,-216.58 914.5,-222.58 914.5,-228.58 914.5,-228.58 914.5,-240.58 914.5,-240.58 914.5,-246.58 908.5,-252.58 902.5,-252.58"/>
<text text-anchor="middle" x="833" y="-232.38" font-family="Vera Sans, DejaVu Sans, Liberation Sans, Arial, Helvetica, sans" font-size="9.00" fill="#000000">cbpdn.ConvRepIndexing.__init__</text>
</a>
</g>
</g>
<!-- cbpdn.ConvBPDNJoint.__init__ -->
<g id="node4" class="node">
<title>cbpdn.ConvBPDNJoint.__init__</title>
<g id="a_node4"><a xlink:href="../../sporco.admm.cbpdn.html#sporco.admm.cbpdn.ConvBPDNJoint.__init__" xlink:title="cbpdn.ConvBPDNJoint.__init__" target="_top">
<path fill="#d88cc3" stroke="#000000" stroke-width=".25" d="M329,-408.58C329,-408.58 201,-408.58 201,-408.58 195,-408.58 189,-402.58 189,-396.58 189,-396.58 189,-384.58 189,-384.58 189,-378.58 195,-372.58 201,-372.58 201,-372.58 329,-372.58 329,-372.58 335,-372.58 341,-378.58 341,-384.58 341,-384.58 341,-396.58 341,-396.58 341,-402.58 335,-408.58 329,-408.58"/>
<text text-anchor="middle" x="265" y="-388.38" font-family="Vera Sans, DejaVu Sans, Liberation Sans, Arial, Helvetica, sans" font-size="9.00" fill="#000000">cbpdn.ConvBPDNJoint.__init__</text>
</a>
</g>
</g>
<!-- cbpdn.ConvBPDNJoint.__init__&#45;&gt;cbpdn.ConvBPDN.__init__ -->
<g id="edge8" class="edge">
<title>cbpdn.ConvBPDNJoint.__init__&#45;&gt;cbpdn.ConvBPDN.__init__</title>
<path fill="none" stroke="#d88cc3" stroke-width="2" d="M341,-390.58C349.47,-390.58 358.09,-390.58 366.56,-390.58"/>
<polygon fill="#d88cc3" stroke="#d88cc3" stroke-width="2" points="366.8,-394.0801 376.8,-390.58 366.8,-387.0801 366.8,-394.0801"/>
</g>
<!-- admm.ADMMEqual.__init__ -->
<g id="node5" class="node">
<title>admm.ADMMEqual.__init__</title>
<g id="a_node5"><a xlink:href="../../sporco.admm.admm.html#sporco.admm.admm.ADMMEqual.__init__" xlink:title="admm.ADMMEqual.__init__" target="_top">
<path fill="#8cd8c9" stroke="#000000" stroke-width=".25" d="M889.5,-174.58C889.5,-174.58 776.5,-174.58 776.5,-174.58 770.5,-174.58 764.5,-168.58 764.5,-162.58 764.5,-162.58 764.5,-150.58 764.5,-150.58 764.5,-144.58 770.5,-138.58 776.5,-138.58 776.5,-138.58 889.5,-138.58 889.5,-138.58 895.5,-138.58 901.5,-144.58 901.5,-150.58 901.5,-150.58 901.5,-162.58 901.5,-162.58 901.5,-168.58 895.5,-174.58 889.5,-174.58"/>
<text text-anchor="middle" x="833" y="-154.38" font-family="Vera Sans, DejaVu Sans, Liberation Sans, Arial, Helvetica, sans" font-size="9.00" fill="#000000">admm.ADMMEqual.__init__</text>
</a>
</g>
</g>
<!-- admm.ADMM.__init__ -->
<g id="node6" class="node">
<title>admm.ADMM.__init__</title>
<g id="a_node6"><a xlink:href="../../sporco.admm.admm.html#sporco.admm.admm.ADMM.__init__" xlink:title="admm.ADMM.__init__" target="_top">
<path fill="#8ed88c" stroke="#000000" stroke-width=".25" d="M1052,-174.58C1052,-174.58 965,-174.58 965,-174.58 959,-174.58 953,-168.58 953,-162.58 953,-162.58 953,-150.58 953,-150.58 953,-144.58 959,-138.58 965,-138.58 965,-138.58 1052,-138.58 1052,-138.58 1058,-138.58 1064,-144.58 1064,-150.58 1064,-150.58 1064,-162.58 1064,-162.58 1064,-168.58 1058,-174.58 1052,-174.58"/>
<text text-anchor="middle" x="1008.5" y="-154.38" font-family="Vera Sans, DejaVu Sans, Liberation Sans, Arial, Helvetica, sans" font-size="9.00" fill="#000000">admm.ADMM.__init__</text>
</a>
</g>
</g>
<!-- admm.ADMMEqual.__init__&#45;&gt;admm.ADMM.__init__ -->
<g id="edge12" class="edge">
<title>admm.ADMMEqual.__init__&#45;&gt;admm.ADMM.__init__</title>
<path fill="none" stroke="#8cd8c9" stroke-width="2" d="M901.61,-156.58C915.17,-156.58 929.37,-156.58 942.83,-156.58"/>
<polygon fill="#8cd8c9" stroke="#8cd8c9" stroke-width="2" points="942.95,-160.0801 952.95,-156.58 942.95,-153.0801 942.95,-160.0801"/>
</g>
<!-- admm.ADMM.__init__&#45;&gt;cbpdn.ConvBPDN.uinit -->
<g id="edge7" class="edge">
<title>admm.ADMM.__init__&#45;&gt;cbpdn.ConvBPDN.uinit</title>
<path fill="none" stroke="#8ed88c" stroke-width="2" d="M1020.6,-174.94C1047.6,-216.03 1113.1,-315.57 1144.8,-363.67"/>
<polygon fill="#8ed88c" stroke="#8ed88c" stroke-width="2" points="1142.0682,-365.8847 1150.5,-372.3 1147.9092,-362.0268 1142.0682,-365.8847"/>
</g>
<!-- admm.ADMM.__init__&#45;&gt;admm.ADMM.set_dtype -->
<g id="edge1" class="edge">
<title>admm.ADMM.__init__&#45;&gt;admm.ADMM.set_dtype</title>
<path fill="none" stroke="#8ed88c" stroke-width="2" d="M1064.1,-145.75C1072.5,-144.12 1081.2,-142.42 1089.8,-140.73"/>
<polygon fill="#8ed88c" stroke="#8ed88c" stroke-width="2" points="1090.7499,-144.111 1099.9,-138.77 1089.4163,-137.2392 1090.7499,-144.111"/>
</g>
<!-- admm.ADMM.yinit -->
<g id="node8" class="node">
<title>admm.ADMM.yinit</title>
<g id="a_node8"><a xlink:href="../../sporco.admm.admm.html#sporco.admm.admm.ADMM.yinit" xlink:title="admm.ADMM.yinit" target="_top">
<path fill="#8ed88c" stroke="#000000" stroke-width=".25" d="M1199.5,-198.58C1199.5,-198.58 1125.5,-198.58 1125.5,-198.58 1119.5,-198.58 1113.5,-192.58 1113.5,-186.58 1113.5,-186.58 1113.5,-174.58 1113.5,-174.58 1113.5,-168.58 1119.5,-162.58 1125.5,-162.58 1125.5,-162.58 1199.5,-162.58 1199.5,-162.58 1205.5,-162.58 1211.5,-168.58 1211.5,-174.58 1211.5,-174.58 1211.5,-186.58 1211.5,-186.58 1211.5,-192.58 1205.5,-198.58 1199.5,-198.58"/>
<text text-anchor="middle" x="1162.5" y="-178.38" font-family="Vera Sans, DejaVu Sans, Liberation Sans, Arial, Helvetica, sans" font-size="9.00" fill="#000000">admm.ADMM.yinit</text>
</a>
</g>
</g>
<!-- admm.ADMM.__init__&#45;&gt;admm.ADMM.yinit -->
<g id="edge2" class="edge">
<title>admm.ADMM.__init__&#45;&gt;admm.ADMM.yinit</title>
<path fill="none" stroke="#8ed88c" stroke-width="2" d="M1064.1,-165.24C1076.8,-167.22 1090.4,-169.34 1103.2,-171.34"/>
<polygon fill="#8ed88c" stroke="#8ed88c" stroke-width="2" points="1102.9821,-174.8479 1113.4,-172.92 1104.0537,-167.9304 1102.9821,-174.8479"/>
</g>
<!-- admm.ADMM.__init__&#45;&gt;admm.ADMM.set_attr -->
<g id="edge3" class="edge">
<title>admm.ADMM.__init__&#45;&gt;admm.ADMM.set_attr</title>
<path fill="none" stroke="#8ed88c" stroke-width="2" d="M1035.1,-138.53C1053,-126.737 1077.5,-111.388 1100,-99.579 1102.9,-98.043 1106,-96.52 1109.1,-95.026"/>
<polygon fill="#8ed88c" stroke="#8ed88c" stroke-width="2" points="1110.8451,-98.0729 1118.4,-90.645 1107.8619,-91.7404 1110.8451,-98.0729"/>
</g>
<!-- admm._ADMM_Meta.__call__ -->
<g id="node10" class="node">
<title>admm._ADMM_Meta.__call__</title>
<g id="a_node10"><a xlink:href="../../sporco.admm.admm.html#sporco.admm.admm._ADMM_Meta.__call__" xlink:title="admm._ADMM_Meta.__call__" target="_top">
<path fill="#8ca8d8" stroke="#000000" stroke-width=".25" d="M141,-408.58C141,-408.58 20,-408.58 20,-408.58 14,-408.58 8,-402.58 8,-396.58 8,-396.58 8,-384.58 8,-384.58 8,-378.58 14,-372.58 20,-372.58 20,-372.58 141,-372.58 141,-372.58 147,-372.58 153,-378.58 153,-384.58 153,-384.58 153,-396.58 153,-396.58 153,-402.58 147,-408.58 141,-408.58"/>
<text text-anchor="middle" x="80.5" y="-388.38" font-family="Vera Sans, DejaVu Sans, Liberation Sans, Arial, Helvetica, sans" font-size="9.00" fill="#000000">admm._ADMM_Meta.__call__</text>
</a>
</g>
</g>
<!-- admm._ADMM_Meta.__call__&#45;&gt;cbpdn.ConvBPDNJoint.__init__ -->
<g id="edge13" class="edge">
<title>admm._ADMM_Meta.__call__&#45;&gt;cbpdn.ConvBPDNJoint.__init__</title>
<path fill="none" stroke="#8ca8d8" stroke-width="2" d="M153.15,-390.58C161.56,-390.58 170.2,-390.58 178.76,-390.58"/>
<polygon fill="#8ca8d8" stroke="#8ca8d8" stroke-width="2" points="178.77,-394.0801 188.77,-390.58 178.77,-387.0801 178.77,-394.0801"/>
</g>
<!-- cbpdn.GenericConvBPDN.__init__&#45;&gt;cbpdn.ConvRepIndexing.__init__ -->
<g id="edge5" class="edge">
<title>cbpdn.GenericConvBPDN.__init__&#45;&gt;cbpdn.ConvRepIndexing.__init__</title>
<path fill="none" stroke="#d88c8c" stroke-width="2" d="M676.31,-294.49C706.07,-283.11 744.65,-268.36 776.08,-256.34"/>
<polygon fill="#d88c8c" stroke="#d88c8c" stroke-width="2" points="777.4956,-259.546 785.59,-252.71 774.9993,-253.0063 777.4956,-259.546"/>
</g>
<!-- cbpdn.GenericConvBPDN.__init__&#45;&gt;admm.ADMMEqual.__init__ -->
<g id="edge6" class="edge">
<title>cbpdn.GenericConvBPDN.__init__&#45;&gt;admm.ADMMEqual.__init__</title>
<path fill="none" stroke="#d88c8c" stroke-width="2" d="M645.57,-294.2C666.79,-271.36 705.36,-232.05 743.5,-204.58 756.29,-195.36 771.07,-186.73 784.88,-179.4"/>
<polygon fill="#d88c8c" stroke="#d88c8c" stroke-width="2" points="786.5239,-182.4901 793.78,-174.77 783.2933,-176.2802 786.5239,-182.4901"/>
</g>
<!-- cbpdn.GenericConvBPDN.setdict -->
<g id="node12" class="node">
<title>cbpdn.GenericConvBPDN.setdict</title>
<g id="a_node12"><a xlink:href="../../sporco.admm.cbpdn.html#sporco.admm.cbpdn.GenericConvBPDN.setdict" xlink:title="cbpdn.GenericConvBPDN.setdict" target="_top">
<path fill="#d88c8c" stroke="#000000" stroke-width=".25" d="M905,-330.58C905,-330.58 761,-330.58 761,-330.58 755,-330.58 749,-324.58 749,-318.58 749,-318.58 749,-306.58 749,-306.58 749,-300.58 755,-294.58 761,-294.58 761,-294.58 905,-294.58 905,-294.58 911,-294.58 917,-300.58 917,-306.58 917,-306.58 917,-318.58 917,-318.58 917,-324.58 911,-330.58 905,-330.58"/>
<text text-anchor="middle" x="833" y="-310.38" font-family="Vera Sans, DejaVu Sans, Liberation Sans, Arial, Helvetica, sans" font-size="9.00" fill="#000000">cbpdn.GenericConvBPDN.setdict</text>
</a>
</g>
</g>
<!-- cbpdn.GenericConvBPDN.__init__&#45;&gt;cbpdn.GenericConvBPDN.setdict -->
<g id="edge4" class="edge">
<title>cbpdn.GenericConvBPDN.__init__&#45;&gt;cbpdn.GenericConvBPDN.setdict</title>
<path fill="none" stroke="#d88c8c" stroke-width="2" d="M713.15,-312.58C721.5,-312.58 730.02,-312.58 738.46,-312.58"/>
<polygon fill="#d88c8c" stroke="#d88c8c" stroke-width="2" points="738.71,-316.0801 748.71,-312.58 738.71,-309.0801 738.71,-316.0801"/>
</g>
</g>
</svg>
