<?xml version="1.0" encoding="UTF-8" standalone="no"?>
<!DOCTYPE svg PUBLIC "-//W3C//DTD SVG 1.1//EN"
 "http://www.w3.org/Graphics/SVG/1.1/DTD/svg11.dtd">
<!-- Generated by graphviz version 2.40.1 (20161225.0304)
 -->
<!-- Pages: 1 -->
<svg
 viewBox="0.00 0.00 1248.00 804.00" xmlns="http://www.w3.org/2000/svg" xmlns:xlink="http://www.w3.org/1999/xlink">
<g id="graph0" class="graph" transform="scale(1 1) rotate(0) translate(4 800)">
<polygon fill="transparent" stroke="transparent" points="-4,4 -4,-800 1244,-800 1244,4 -4,4"/>
<g id="clust1" class="cluster">
<title>cluster_admm.ADMM</title>
<polygon fill="transparent" stroke="#8ed88c" stroke-width="2" stroke-dasharray="1,5" points="0,-348 0,-796 519,-796 519,-348 0,-348"/>
<text text-anchor="middle" x="259.5" y="-784.8" font-family="Vera Sans, DejaVu Sans, Liberation Sans, Arial, Helvetica, sans" font-size="9.00" fill="#000000">admm.ADMM</text>
</g>
<g id="clust2" class="cluster">
<title>cluster_cbpdntv.ConvBPDNScalarTV</title>
<polygon fill="transparent" stroke="#d88c8c" stroke-width="2" stroke-dasharray="1,5" points="139,0 139,-340 1240,-340 1240,0 139,0"/>
<text text-anchor="middle" x="689.5" y="-328.8" font-family="Vera Sans, DejaVu Sans, Liberation Sans, Arial, Helvetica, sans" font-size="9.00" fill="#000000">cbpdntv.ConvBPDNScalarTV</text>
</g>
<!-- admm.ADMM.iteration_stats -->
<g id="node1" class="node">
<title>admm.ADMM.iteration_stats</title>
<g id="a_node1"><a xlink:href="../../sporco.admm.admm.html#sporco.admm.admm.ADMM.iteration_stats" xlink:title="admm.ADMM.iteration_stats" target="_top">
<path fill="#8ed88c" stroke="#000000" stroke-width=".25" d="M294.5,-500C294.5,-500 171.5,-500 171.5,-500 165.5,-500 159.5,-494 159.5,-488 159.5,-488 159.5,-476 159.5,-476 159.5,-470 165.5,-464 171.5,-464 171.5,-464 294.5,-464 294.5,-464 300.5,-464 306.5,-470 306.5,-476 306.5,-476 306.5,-488 306.5,-488 306.5,-494 300.5,-500 294.5,-500"/>
<text text-anchor="middle" x="233" y="-479.8" font-family="Vera Sans, DejaVu Sans, Liberation Sans, Arial, Helvetica, sans" font-size="9.00" fill="#000000">admm.ADMM.iteration_stats</text>
</a>
</g>
</g>
<!-- cbpdntv.ConvBPDNScalarTV.itstat_extra -->
<g id="node18" class="node">
<title>cbpdntv.ConvBPDNScalarTV.itstat_extra</title>
<g id="a_node18"><a xlink:href="../../sporco.admm.cbpdntv.html#sporco.admm.cbpdntv.ConvBPDNScalarTV.itstat_extra" xlink:title="cbpdntv.ConvBPDNScalarTV.itstat_extra" target="_top">
<path fill="#d88c8c" stroke="#000000" stroke-width=".25" d="M543,-314C543,-314 367,-314 367,-314 361,-314 355,-308 355,-302 355,-302 355,-290 355,-290 355,-284 361,-278 367,-278 367,-278 543,-278 543,-278 549,-278 555,-284 555,-290 555,-290 555,-302 555,-302 555,-308 549,-314 543,-314"/>
<text text-anchor="middle" x="455" y="-293.8" font-family="Vera Sans, DejaVu Sans, Liberation Sans, Arial, Helvetica, sans" font-size="9.00" fill="#000000">cbpdntv.ConvBPDNScalarTV.itstat_extra</text>
</a>
</g>
</g>
<!-- admm.ADMM.iteration_stats&#45;&gt;cbpdntv.ConvBPDNScalarTV.itstat_extra -->
<g id="edge28" class="edge">
<title>admm.ADMM.iteration_stats&#45;&gt;cbpdntv.ConvBPDNScalarTV.itstat_extra</title>
<path fill="none" stroke="#8ed88c" stroke-width="2" d="M306.73,-464.5C311.18,-461.78 315.33,-458.63 319,-455 355.84,-418.5 320.86,-383.04 355,-344 364.13,-333.56 376.04,-325.19 388.44,-318.56"/>
<polygon fill="#8ed88c" stroke="#8ed88c" stroke-width="2" points="390.1276,-321.6297 397.52,-314.04 387.0081,-315.3632 390.1276,-321.6297"/>
</g>
<!-- cbpdntv.ConvBPDNScalarTV.eval_objfn -->
<g id="node26" class="node">
<title>cbpdntv.ConvBPDNScalarTV.eval_objfn</title>
<g id="a_node26"><a xlink:href="../../sporco.admm.cbpdntv.html#sporco.admm.cbpdntv.ConvBPDNScalarTV.eval_objfn" xlink:title="cbpdntv.ConvBPDNScalarTV.eval_objfn" target="_top">
<path fill="#d88c8c" stroke="#000000" stroke-width=".25" d="M539.5,-132C539.5,-132 370.5,-132 370.5,-132 364.5,-132 358.5,-126 358.5,-120 358.5,-120 358.5,-108 358.5,-108 358.5,-102 364.5,-96 370.5,-96 370.5,-96 539.5,-96 539.5,-96 545.5,-96 551.5,-102 551.5,-108 551.5,-108 551.5,-120 551.5,-120 551.5,-126 545.5,-132 539.5,-132"/>
<text text-anchor="middle" x="455" y="-111.8" font-family="Vera Sans, DejaVu Sans, Liberation Sans, Arial, Helvetica, sans" font-size="9.00" fill="#000000">cbpdntv.ConvBPDNScalarTV.eval_objfn</text>
</a>
</g>
</g>
<!-- admm.ADMM.iteration_stats&#45;&gt;cbpdntv.ConvBPDNScalarTV.eval_objfn -->
<g id="edge29" class="edge">
<title>admm.ADMM.iteration_stats&#45;&gt;cbpdntv.ConvBPDNScalarTV.eval_objfn</title>
<path fill="none" stroke="#8ed88c" stroke-width="2" d="M306.78,-465.78C311.34,-462.77 315.49,-459.21 319,-455 402.7,-354.54 279.14,-269.5 355,-163 362.73,-152.15 373.55,-143.58 385.23,-136.87"/>
<polygon fill="#8ed88c" stroke="#8ed88c" stroke-width="2" points="387.0919,-139.8449 394.3,-132.08 383.8229,-133.655 387.0919,-139.8449"/>
</g>
<!-- admm.ADMM.ustep -->
<g id="node2" class="node">
<title>admm.ADMM.ustep</title>
<g id="a_node2"><a xlink:href="../../sporco.admm.admm.html#sporco.admm.admm.ADMM.ustep" xlink:title="admm.ADMM.ustep" target="_top">
<path fill="#8ed88c" stroke="#000000" stroke-width=".25" d="M274,-554C274,-554 192,-554 192,-554 186,-554 180,-548 180,-542 180,-542 180,-530 180,-530 180,-524 186,-518 192,-518 192,-518 274,-518 274,-518 280,-518 286,-524 286,-530 286,-530 286,-542 286,-542 286,-548 280,-554 274,-554"/>
<text text-anchor="middle" x="233" y="-533.8" font-family="Vera Sans, DejaVu Sans, Liberation Sans, Arial, Helvetica, sans" font-size="9.00" fill="#000000">admm.ADMM.ustep</text>
</a>
</g>
</g>
<!-- admm.ADMM.rsdl_r -->
<g id="node3" class="node">
<title>admm.ADMM.rsdl_r</title>
<g id="a_node3"><a xlink:href="../../sporco.admm.admm.html#sporco.admm.admm.ADMM.rsdl_r" xlink:title="admm.ADMM.rsdl_r" target="_top">
<path fill="#8ed88c" stroke="#000000" stroke-width=".25" d="M495,-392C495,-392 415,-392 415,-392 409,-392 403,-386 403,-380 403,-380 403,-368 403,-368 403,-362 409,-356 415,-356 415,-356 495,-356 495,-356 501,-356 507,-362 507,-368 507,-368 507,-380 507,-380 507,-386 501,-392 495,-392"/>
<text text-anchor="middle" x="455" y="-371.8" font-family="Vera Sans, DejaVu Sans, Liberation Sans, Arial, Helvetica, sans" font-size="9.00" fill="#000000">admm.ADMM.rsdl_r</text>
</a>
</g>
</g>
<!-- admm.ADMM.ustep&#45;&gt;admm.ADMM.rsdl_r -->
<g id="edge1" class="edge">
<title>admm.ADMM.ustep&#45;&gt;admm.ADMM.rsdl_r</title>
<path fill="none" stroke="#8ed88c" stroke-width="2" d="M286.39,-527.7C298.32,-523.7 310.07,-517.77 319,-509 355.09,-473.54 318.2,-435.72 355,-401 365.42,-391.17 379.04,-384.84 392.86,-380.79"/>
<polygon fill="#8ed88c" stroke="#8ed88c" stroke-width="2" points="394.0889,-384.0884 402.91,-378.22 392.3546,-377.3067 394.0889,-384.0884"/>
</g>
<!-- cbpdntv.ConvBPDNScalarTV.cnst_B -->
<g id="node25" class="node">
<title>cbpdntv.ConvBPDNScalarTV.cnst_B</title>
<g id="a_node25"><a xlink:href="../../sporco.admm.cbpdntv.html#sporco.admm.cbpdntv.ConvBPDNScalarTV.cnst_B" xlink:title="cbpdntv.ConvBPDNScalarTV.cnst_B" target="_top">
<path fill="#d88c8c" stroke="#000000" stroke-width=".25" d="M761.5,-260C761.5,-260 608.5,-260 608.5,-260 602.5,-260 596.5,-254 596.5,-248 596.5,-248 596.5,-236 596.5,-236 596.5,-230 602.5,-224 608.5,-224 608.5,-224 761.5,-224 761.5,-224 767.5,-224 773.5,-230 773.5,-236 773.5,-236 773.5,-248 773.5,-248 773.5,-254 767.5,-260 761.5,-260"/>
<text text-anchor="middle" x="685" y="-239.8" font-family="Vera Sans, DejaVu Sans, Liberation Sans, Arial, Helvetica, sans" font-size="9.00" fill="#000000">cbpdntv.ConvBPDNScalarTV.cnst_B</text>
</a>
</g>
</g>
<!-- admm.ADMM.rsdl_r&#45;&gt;cbpdntv.ConvBPDNScalarTV.cnst_B -->
<g id="edge30" class="edge">
<title>admm.ADMM.rsdl_r&#45;&gt;cbpdntv.ConvBPDNScalarTV.cnst_B</title>
<path fill="none" stroke="#8ed88c" stroke-width="2" d="M507.09,-366.95C523.86,-362.57 541.57,-355.48 555,-344 583.1,-319.97 562.76,-292.86 591,-269 592.38,-267.83 593.81,-266.72 595.28,-265.65"/>
<polygon fill="#8ed88c" stroke="#8ed88c" stroke-width="2" points="597.5521,-268.3534 604.12,-260.04 593.8013,-262.4431 597.5521,-268.3534"/>
</g>
<!-- admm.ADMM.compute_residuals -->
<g id="node4" class="node">
<title>admm.ADMM.compute_residuals</title>
<g id="a_node4"><a xlink:href="../../sporco.admm.admm.html#sporco.admm.admm.ADMM.compute_residuals" xlink:title="admm.ADMM.compute_residuals" target="_top">
<path fill="#8ed88c" stroke="#000000" stroke-width=".25" d="M304.5,-608C304.5,-608 161.5,-608 161.5,-608 155.5,-608 149.5,-602 149.5,-596 149.5,-596 149.5,-584 149.5,-584 149.5,-578 155.5,-572 161.5,-572 161.5,-572 304.5,-572 304.5,-572 310.5,-572 316.5,-578 316.5,-584 316.5,-584 316.5,-596 316.5,-596 316.5,-602 310.5,-608 304.5,-608"/>
<text text-anchor="middle" x="233" y="-587.8" font-family="Vera Sans, DejaVu Sans, Liberation Sans, Arial, Helvetica, sans" font-size="9.00" fill="#000000">admm.ADMM.compute_residuals</text>
</a>
</g>
</g>
<!-- admm.ADMM.compute_residuals&#45;&gt;admm.ADMM.rsdl_r -->
<g id="edge2" class="edge">
<title>admm.ADMM.compute_residuals&#45;&gt;admm.ADMM.rsdl_r</title>
<path fill="none" stroke="#8ed88c" stroke-width="2" d="M308.7,-571.85C312.45,-569.28 315.93,-566.34 319,-563 368.88,-508.66 304.03,-454.31 355,-401 365.15,-390.39 378.99,-383.8 393.15,-379.74"/>
<polygon fill="#8ed88c" stroke="#8ed88c" stroke-width="2" points="394.0894,-383.1133 402.96,-377.32 392.4127,-376.317 394.0894,-383.1133"/>
</g>
<!-- admm.ADMM.rsdl_sn -->
<g id="node5" class="node">
<title>admm.ADMM.rsdl_sn</title>
<g id="a_node5"><a xlink:href="../../sporco.admm.admm.html#sporco.admm.admm.ADMM.rsdl_sn" xlink:title="admm.ADMM.rsdl_sn" target="_top">
<path fill="#8ed88c" stroke="#000000" stroke-width=".25" d="M499,-581C499,-581 411,-581 411,-581 405,-581 399,-575 399,-569 399,-569 399,-557 399,-557 399,-551 405,-545 411,-545 411,-545 499,-545 499,-545 505,-545 511,-551 511,-557 511,-557 511,-569 511,-569 511,-575 505,-581 499,-581"/>
<text text-anchor="middle" x="455" y="-560.8" font-family="Vera Sans, DejaVu Sans, Liberation Sans, Arial, Helvetica, sans" font-size="9.00" fill="#000000">admm.ADMM.rsdl_sn</text>
</a>
</g>
</g>
<!-- admm.ADMM.compute_residuals&#45;&gt;admm.ADMM.rsdl_sn -->
<g id="edge3" class="edge">
<title>admm.ADMM.compute_residuals&#45;&gt;admm.ADMM.rsdl_sn</title>
<path fill="none" stroke="#8ed88c" stroke-width="2" d="M316.61,-579.83C340.38,-576.94 365.94,-573.83 388.54,-571.08"/>
<polygon fill="#8ed88c" stroke="#8ed88c" stroke-width="2" points="389.1932,-574.5266 398.7,-569.85 388.3518,-567.5773 389.1932,-574.5266"/>
</g>
<!-- admm.ADMM.rsdl_s -->
<g id="node6" class="node">
<title>admm.ADMM.rsdl_s</title>
<g id="a_node6"><a xlink:href="../../sporco.admm.admm.html#sporco.admm.admm.ADMM.rsdl_s" xlink:title="admm.ADMM.rsdl_s" target="_top">
<path fill="#8ed88c" stroke="#000000" stroke-width=".25" d="M496,-500C496,-500 414,-500 414,-500 408,-500 402,-494 402,-488 402,-488 402,-476 402,-476 402,-470 408,-464 414,-464 414,-464 496,-464 496,-464 502,-464 508,-470 508,-476 508,-476 508,-488 508,-488 508,-494 502,-500 496,-500"/>
<text text-anchor="middle" x="455" y="-479.8" font-family="Vera Sans, DejaVu Sans, Liberation Sans, Arial, Helvetica, sans" font-size="9.00" fill="#000000">admm.ADMM.rsdl_s</text>
</a>
</g>
</g>
<!-- admm.ADMM.compute_residuals&#45;&gt;admm.ADMM.rsdl_s -->
<g id="edge4" class="edge">
<title>admm.ADMM.compute_residuals&#45;&gt;admm.ADMM.rsdl_s</title>
<path fill="none" stroke="#8ed88c" stroke-width="2" d="M298.74,-571.93C305.71,-569.26 312.59,-566.28 319,-563 336.8,-553.87 338.15,-546.78 355,-536 372.11,-525.05 391.62,-514.18 408.85,-505.09"/>
<polygon fill="#8ed88c" stroke="#8ed88c" stroke-width="2" points="410.9083,-507.9636 418.15,-500.23 407.6662,-501.7596 410.9083,-507.9636"/>
</g>
<!-- admm.ADMM.rsdl_rn -->
<g id="node7" class="node">
<title>admm.ADMM.rsdl_rn</title>
<g id="a_node7"><a xlink:href="../../sporco.admm.admm.html#sporco.admm.admm.ADMM.rsdl_rn" xlink:title="admm.ADMM.rsdl_rn" target="_top">
<path fill="#8ed88c" stroke="#000000" stroke-width=".25" d="M498,-446C498,-446 412,-446 412,-446 406,-446 400,-440 400,-434 400,-434 400,-422 400,-422 400,-416 406,-410 412,-410 412,-410 498,-410 498,-410 504,-410 510,-416 510,-422 510,-422 510,-434 510,-434 510,-440 504,-446 498,-446"/>
<text text-anchor="middle" x="455" y="-425.8" font-family="Vera Sans, DejaVu Sans, Liberation Sans, Arial, Helvetica, sans" font-size="9.00" fill="#000000">admm.ADMM.rsdl_rn</text>
</a>
</g>
</g>
<!-- admm.ADMM.compute_residuals&#45;&gt;admm.ADMM.rsdl_rn -->
<g id="edge5" class="edge">
<title>admm.ADMM.compute_residuals&#45;&gt;admm.ADMM.rsdl_rn</title>
<path fill="none" stroke="#8ed88c" stroke-width="2" d="M307.5,-571.97C311.66,-569.37 315.54,-566.4 319,-563 355.09,-527.54 318.2,-489.72 355,-455 364.69,-445.85 377.15,-439.74 389.97,-435.67"/>
<polygon fill="#8ed88c" stroke="#8ed88c" stroke-width="2" points="391.1013,-438.9884 399.8,-432.94 389.2281,-432.2436 391.1013,-438.9884"/>
</g>
<!-- cbpdntv.ConvBPDNScalarTV.cnst_AT -->
<g id="node19" class="node">
<title>cbpdntv.ConvBPDNScalarTV.cnst_AT</title>
<g id="a_node19"><a xlink:href="../../sporco.admm.cbpdntv.html#sporco.admm.cbpdntv.ConvBPDNScalarTV.cnst_AT" xlink:title="cbpdntv.ConvBPDNScalarTV.cnst_AT" target="_top">
<path fill="#d88c8c" stroke="#000000" stroke-width=".25" d="M764,-314C764,-314 606,-314 606,-314 600,-314 594,-308 594,-302 594,-302 594,-290 594,-290 594,-284 600,-278 606,-278 606,-278 764,-278 764,-278 770,-278 776,-284 776,-290 776,-290 776,-302 776,-302 776,-308 770,-314 764,-314"/>
<text text-anchor="middle" x="685" y="-293.8" font-family="Vera Sans, DejaVu Sans, Liberation Sans, Arial, Helvetica, sans" font-size="9.00" fill="#000000">cbpdntv.ConvBPDNScalarTV.cnst_AT</text>
</a>
</g>
</g>
<!-- admm.ADMM.rsdl_sn&#45;&gt;cbpdntv.ConvBPDNScalarTV.cnst_AT -->
<g id="edge31" class="edge">
<title>admm.ADMM.rsdl_sn&#45;&gt;cbpdntv.ConvBPDNScalarTV.cnst_AT</title>
<path fill="none" stroke="#8ed88c" stroke-width="2" d="M500.11,-544.92C518.58,-536.01 539.25,-523.94 555,-509 613.03,-453.96 654.97,-367.53 673.85,-323.61"/>
<polygon fill="#8ed88c" stroke="#8ed88c" stroke-width="2" points="677.1786,-324.7242 677.84,-314.15 670.7288,-322.0038 677.1786,-324.7242"/>
</g>
<!-- admm.ADMM.rsdl_s&#45;&gt;cbpdntv.ConvBPDNScalarTV.cnst_AT -->
<g id="edge32" class="edge">
<title>admm.ADMM.rsdl_s&#45;&gt;cbpdntv.ConvBPDNScalarTV.cnst_AT</title>
<path fill="none" stroke="#8ed88c" stroke-width="2" d="M508.18,-474.09C524.11,-470.07 541.04,-464.04 555,-455 607.62,-420.94 649.27,-358.68 670.21,-323.01"/>
<polygon fill="#8ed88c" stroke="#8ed88c" stroke-width="2" points="673.3659,-324.5431 675.32,-314.13 667.2987,-321.0517 673.3659,-324.5431"/>
</g>
<!-- admm.ADMM.rsdl_s&#45;&gt;cbpdntv.ConvBPDNScalarTV.cnst_B -->
<g id="edge33" class="edge">
<title>admm.ADMM.rsdl_s&#45;&gt;cbpdntv.ConvBPDNScalarTV.cnst_B</title>
<path fill="none" stroke="#8ed88c" stroke-width="2" d="M508.02,-478.7C525.17,-475.03 542.88,-468.04 555,-455 612.34,-393.34 534.15,-331.11 591,-269 591.77,-268.15 592.57,-267.33 593.39,-266.54"/>
<polygon fill="#8ed88c" stroke="#8ed88c" stroke-width="2" points="595.8181,-269.076 601.35,-260.04 591.3906,-263.654 595.8181,-269.076"/>
</g>
<!-- cbpdntv.ConvBPDNScalarTV.cnst_c -->
<g id="node24" class="node">
<title>cbpdntv.ConvBPDNScalarTV.cnst_c</title>
<g id="a_node24"><a xlink:href="../../sporco.admm.cbpdntv.html#sporco.admm.cbpdntv.ConvBPDNScalarTV.cnst_c" xlink:title="cbpdntv.ConvBPDNScalarTV.cnst_c" target="_top">
<path fill="#d88c8c" stroke="#000000" stroke-width=".25" d="M761,-206C761,-206 609,-206 609,-206 603,-206 597,-200 597,-194 597,-194 597,-182 597,-182 597,-176 603,-170 609,-170 609,-170 761,-170 761,-170 767,-170 773,-176 773,-182 773,-182 773,-194 773,-194 773,-200 767,-206 761,-206"/>
<text text-anchor="middle" x="685" y="-185.8" font-family="Vera Sans, DejaVu Sans, Liberation Sans, Arial, Helvetica, sans" font-size="9.00" fill="#000000">cbpdntv.ConvBPDNScalarTV.cnst_c</text>
</a>
</g>
</g>
<!-- admm.ADMM.rsdl_rn&#45;&gt;cbpdntv.ConvBPDNScalarTV.cnst_c -->
<g id="edge34" class="edge">
<title>admm.ADMM.rsdl_rn&#45;&gt;cbpdntv.ConvBPDNScalarTV.cnst_c</title>
<path fill="none" stroke="#8ed88c" stroke-width="2" d="M510.1,-424.24C526.6,-420.45 543.37,-413.51 555,-401 612.34,-339.34 534.15,-277.11 591,-215 591.77,-214.15 592.57,-213.33 593.39,-212.54"/>
<polygon fill="#8ed88c" stroke="#8ed88c" stroke-width="2" points="595.8181,-215.076 601.35,-206.04 591.3906,-209.654 595.8181,-215.076"/>
</g>
<!-- admm.ADMM.rsdl_rn&#45;&gt;cbpdntv.ConvBPDNScalarTV.cnst_B -->
<g id="edge35" class="edge">
<title>admm.ADMM.rsdl_rn&#45;&gt;cbpdntv.ConvBPDNScalarTV.cnst_B</title>
<path fill="none" stroke="#8ed88c" stroke-width="2" d="M510.08,-423.59C526.37,-419.75 543.03,-412.94 555,-401 598.05,-358.06 548.29,-312.29 591,-269 591.94,-268.05 592.91,-267.13 593.91,-266.24"/>
<polygon fill="#8ed88c" stroke="#8ed88c" stroke-width="2" points="596.2182,-268.8822 602.07,-260.05 591.9876,-263.3052 596.2182,-268.8822"/>
</g>
<!-- admm.ADMM.display_status -->
<g id="node8" class="node">
<title>admm.ADMM.display_status</title>
<g id="a_node8"><a xlink:href="../../sporco.admm.admm.html#sporco.admm.admm.ADMM.display_status" xlink:title="admm.ADMM.display_status" target="_top">
<path fill="#8ed88c" stroke="#000000" stroke-width=".25" d="M294,-662C294,-662 172,-662 172,-662 166,-662 160,-656 160,-650 160,-650 160,-638 160,-638 160,-632 166,-626 172,-626 172,-626 294,-626 294,-626 300,-626 306,-632 306,-638 306,-638 306,-650 306,-650 306,-656 300,-662 294,-662"/>
<text text-anchor="middle" x="233" y="-641.8" font-family="Vera Sans, DejaVu Sans, Liberation Sans, Arial, Helvetica, sans" font-size="9.00" fill="#000000">admm.ADMM.display_status</text>
</a>
</g>
</g>
<!-- admm.ADMM.display_start -->
<g id="node9" class="node">
<title>admm.ADMM.display_start</title>
<g id="a_node9"><a xlink:href="../../sporco.admm.admm.html#sporco.admm.admm.ADMM.display_start" xlink:title="admm.ADMM.display_start" target="_top">
<path fill="#8ed88c" stroke="#000000" stroke-width=".25" d="M290,-716C290,-716 176,-716 176,-716 170,-716 164,-710 164,-704 164,-704 164,-692 164,-692 164,-686 170,-680 176,-680 176,-680 290,-680 290,-680 296,-680 302,-686 302,-692 302,-692 302,-704 302,-704 302,-710 296,-716 290,-716"/>
<text text-anchor="middle" x="233" y="-695.8" font-family="Vera Sans, DejaVu Sans, Liberation Sans, Arial, Helvetica, sans" font-size="9.00" fill="#000000">admm.ADMM.display_start</text>
</a>
</g>
</g>
<!-- admm.ADMM.getmin -->
<g id="node10" class="node">
<title>admm.ADMM.getmin</title>
<g id="a_node10"><a xlink:href="../../sporco.admm.admm.html#sporco.admm.admm.ADMM.getmin" xlink:title="admm.ADMM.getmin" target="_top">
<path fill="#8ed88c" stroke="#000000" stroke-width=".25" d="M276.5,-770C276.5,-770 189.5,-770 189.5,-770 183.5,-770 177.5,-764 177.5,-758 177.5,-758 177.5,-746 177.5,-746 177.5,-740 183.5,-734 189.5,-734 189.5,-734 276.5,-734 276.5,-734 282.5,-734 288.5,-740 288.5,-746 288.5,-746 288.5,-758 288.5,-758 288.5,-764 282.5,-770 276.5,-770"/>
<text text-anchor="middle" x="233" y="-749.8" font-family="Vera Sans, DejaVu Sans, Liberation Sans, Arial, Helvetica, sans" font-size="9.00" fill="#000000">admm.ADMM.getmin</text>
</a>
</g>
</g>
<!-- admm.ADMM.display_end -->
<g id="node11" class="node">
<title>admm.ADMM.display_end</title>
<g id="a_node11"><a xlink:href="../../sporco.admm.admm.html#sporco.admm.admm.ADMM.display_end" xlink:title="admm.ADMM.display_end" target="_top">
<path fill="#8ed88c" stroke="#000000" stroke-width=".25" d="M288,-392C288,-392 178,-392 178,-392 172,-392 166,-386 166,-380 166,-380 166,-368 166,-368 166,-362 172,-356 178,-356 178,-356 288,-356 288,-356 294,-356 300,-362 300,-368 300,-368 300,-380 300,-380 300,-386 294,-392 288,-392"/>
<text text-anchor="middle" x="233" y="-371.8" font-family="Vera Sans, DejaVu Sans, Liberation Sans, Arial, Helvetica, sans" font-size="9.00" fill="#000000">admm.ADMM.display_end</text>
</a>
</g>
</g>
<!-- admm.ADMM.solve -->
<g id="node12" class="node">
<title>admm.ADMM.solve</title>
<g id="a_node12"><a xlink:href="../../sporco.admm.admm.html#sporco.admm.admm.ADMM.solve" xlink:title="admm.ADMM.solve" target="_top">
<path fill="#8ed88c" stroke="#000000" stroke-width=".25" d="M99,-500C99,-500 20,-500 20,-500 14,-500 8,-494 8,-488 8,-488 8,-476 8,-476 8,-470 14,-464 20,-464 20,-464 99,-464 99,-464 105,-464 111,-470 111,-476 111,-476 111,-488 111,-488 111,-494 105,-500 99,-500"/>
<text text-anchor="middle" x="59.5" y="-479.8" font-family="Vera Sans, DejaVu Sans, Liberation Sans, Arial, Helvetica, sans" font-size="9.00" fill="#000000">admm.ADMM.solve</text>
</a>
</g>
</g>
<!-- admm.ADMM.solve&#45;&gt;admm.ADMM.iteration_stats -->
<g id="edge6" class="edge">
<title>admm.ADMM.solve&#45;&gt;admm.ADMM.iteration_stats</title>
<path fill="none" stroke="#8ed88c" stroke-width="2" d="M111.09,-482C123.07,-482 136.12,-482 149.1,-482"/>
<polygon fill="#8ed88c" stroke="#8ed88c" stroke-width="2" points="149.46,-485.5001 159.46,-482 149.46,-478.5001 149.46,-485.5001"/>
</g>
<!-- admm.ADMM.solve&#45;&gt;admm.ADMM.ustep -->
<g id="edge7" class="edge">
<title>admm.ADMM.solve&#45;&gt;admm.ADMM.ustep</title>
<path fill="none" stroke="#8ed88c" stroke-width="2" d="M111.13,-499.93C120.38,-503.03 129.96,-506.17 139,-509 148.95,-512.12 159.53,-515.29 169.87,-518.31"/>
<polygon fill="#8ed88c" stroke="#8ed88c" stroke-width="2" points="169.1006,-521.7311 179.68,-521.16 171.0535,-515.009 169.1006,-521.7311"/>
</g>
<!-- admm.ADMM.solve&#45;&gt;admm.ADMM.compute_residuals -->
<g id="edge8" class="edge">
<title>admm.ADMM.solve&#45;&gt;admm.ADMM.compute_residuals</title>
<path fill="none" stroke="#8ed88c" stroke-width="2" d="M72.692,-500.14C87.025,-518.57 111.58,-546.66 139,-563 141.84,-564.69 144.8,-566.29 147.84,-567.78"/>
<polygon fill="#8ed88c" stroke="#8ed88c" stroke-width="2" points="146.5865,-571.0545 157.14,-571.99 149.4734,-564.6774 146.5865,-571.0545"/>
</g>
<!-- admm.ADMM.solve&#45;&gt;admm.ADMM.display_status -->
<g id="edge9" class="edge">
<title>admm.ADMM.solve&#45;&gt;admm.ADMM.display_status</title>
<path fill="none" stroke="#8ed88c" stroke-width="2" d="M65.274,-500.28C75.418,-529.4 99.22,-586.18 139,-617 142.65,-619.83 146.58,-622.36 150.69,-624.62"/>
<polygon fill="#8ed88c" stroke="#8ed88c" stroke-width="2" points="149.4409,-627.9057 159.96,-629.17 152.5252,-621.6218 149.4409,-627.9057"/>
</g>
<!-- admm.ADMM.solve&#45;&gt;admm.ADMM.display_start -->
<g id="edge10" class="edge">
<title>admm.ADMM.solve&#45;&gt;admm.ADMM.display_start</title>
<path fill="none" stroke="#8ed88c" stroke-width="2" d="M61.866,-500.07C67.752,-537.61 86.565,-624.44 139,-671 143.55,-675.04 148.68,-678.49 154.12,-681.41"/>
<polygon fill="#8ed88c" stroke="#8ed88c" stroke-width="2" points="153.0041,-684.7541 163.54,-685.87 155.9996,-678.4274 153.0041,-684.7541"/>
</g>
<!-- admm.ADMM.solve&#45;&gt;admm.ADMM.getmin -->
<g id="edge11" class="edge">
<title>admm.ADMM.solve&#45;&gt;admm.ADMM.getmin</title>
<path fill="none" stroke="#8ed88c" stroke-width="2" d="M63.178,-500.31C73.751,-551.21 105.61,-692.8 139,-725 146.95,-732.67 156.94,-738.18 167.41,-742.14"/>
<polygon fill="#8ed88c" stroke="#8ed88c" stroke-width="2" points="166.5165,-745.5312 177.11,-745.36 168.722,-738.8876 166.5165,-745.5312"/>
</g>
<!-- admm.ADMM.solve&#45;&gt;admm.ADMM.display_end -->
<g id="edge12" class="edge">
<title>admm.ADMM.solve&#45;&gt;admm.ADMM.display_end</title>
<path fill="none" stroke="#8ed88c" stroke-width="2" d="M72.692,-463.86C87.025,-445.43 111.58,-417.34 139,-401 144.46,-397.75 150.33,-394.87 156.37,-392.33"/>
<polygon fill="#8ed88c" stroke="#8ed88c" stroke-width="2" points="157.924,-395.4813 165.98,-388.6 155.3911,-388.9556 157.924,-395.4813"/>
</g>
<!-- admm.ADMM.update_rho -->
<g id="node13" class="node">
<title>admm.ADMM.update_rho</title>
<g id="a_node13"><a xlink:href="../../sporco.admm.admm.html#sporco.admm.admm.ADMM.update_rho" xlink:title="admm.ADMM.update_rho" target="_top">
<path fill="#8ed88c" stroke="#000000" stroke-width=".25" d="M287.5,-446C287.5,-446 178.5,-446 178.5,-446 172.5,-446 166.5,-440 166.5,-434 166.5,-434 166.5,-422 166.5,-422 166.5,-416 172.5,-410 178.5,-410 178.5,-410 287.5,-410 287.5,-410 293.5,-410 299.5,-416 299.5,-422 299.5,-422 299.5,-434 299.5,-434 299.5,-440 293.5,-446 287.5,-446"/>
<text text-anchor="middle" x="233" y="-425.8" font-family="Vera Sans, DejaVu Sans, Liberation Sans, Arial, Helvetica, sans" font-size="9.00" fill="#000000">admm.ADMM.update_rho</text>
</a>
</g>
</g>
<!-- admm.ADMM.solve&#45;&gt;admm.ADMM.update_rho -->
<g id="edge13" class="edge">
<title>admm.ADMM.solve&#45;&gt;admm.ADMM.update_rho</title>
<path fill="none" stroke="#8ed88c" stroke-width="2" d="M111.13,-464.07C120.38,-460.97 129.96,-457.83 139,-455 145.42,-452.99 152.11,-450.95 158.83,-448.95"/>
<polygon fill="#8ed88c" stroke="#8ed88c" stroke-width="2" points="160.0648,-452.2347 168.66,-446.04 158.0778,-445.5226 160.0648,-452.2347"/>
</g>
<!-- cbpdntv.ConvBPDNScalarTV.xstep -->
<g id="node22" class="node">
<title>cbpdntv.ConvBPDNScalarTV.xstep</title>
<g id="a_node22"><a xlink:href="../../sporco.admm.cbpdntv.html#sporco.admm.cbpdntv.ConvBPDNScalarTV.xstep" xlink:title="cbpdntv.ConvBPDNScalarTV.xstep" target="_top">
<path fill="#d88c8c" stroke="#000000" stroke-width=".25" d="M307,-314C307,-314 159,-314 159,-314 153,-314 147,-308 147,-302 147,-302 147,-290 147,-290 147,-284 153,-278 159,-278 159,-278 307,-278 307,-278 313,-278 319,-284 319,-290 319,-290 319,-302 319,-302 319,-308 313,-314 307,-314"/>
<text text-anchor="middle" x="233" y="-293.8" font-family="Vera Sans, DejaVu Sans, Liberation Sans, Arial, Helvetica, sans" font-size="9.00" fill="#000000">cbpdntv.ConvBPDNScalarTV.xstep</text>
</a>
</g>
</g>
<!-- admm.ADMM.solve&#45;&gt;cbpdntv.ConvBPDNScalarTV.xstep -->
<g id="edge36" class="edge">
<title>admm.ADMM.solve&#45;&gt;cbpdntv.ConvBPDNScalarTV.xstep</title>
<path fill="none" stroke="#8ed88c" stroke-width="2" d="M66.079,-463.71C77.19,-435.01 102.13,-379.05 139,-344 149.57,-333.95 162.66,-325.5 175.68,-318.64"/>
<polygon fill="#8ed88c" stroke="#8ed88c" stroke-width="2" points="177.2812,-321.7525 184.65,-314.14 174.1423,-315.4957 177.2812,-321.7525"/>
</g>
<!-- cbpdntv.ConvBPDNScalarTV.relax_AX -->
<g id="node23" class="node">
<title>cbpdntv.ConvBPDNScalarTV.relax_AX</title>
<g id="a_node23"><a xlink:href="../../sporco.admm.cbpdntv.html#sporco.admm.cbpdntv.ConvBPDNScalarTV.relax_AX" xlink:title="cbpdntv.ConvBPDNScalarTV.relax_AX" target="_top">
<path fill="#d88c8c" stroke="#000000" stroke-width=".25" d="M535.5,-208C535.5,-208 374.5,-208 374.5,-208 368.5,-208 362.5,-202 362.5,-196 362.5,-196 362.5,-184 362.5,-184 362.5,-178 368.5,-172 374.5,-172 374.5,-172 535.5,-172 535.5,-172 541.5,-172 547.5,-178 547.5,-184 547.5,-184 547.5,-196 547.5,-196 547.5,-202 541.5,-208 535.5,-208"/>
<text text-anchor="middle" x="455" y="-187.8" font-family="Vera Sans, DejaVu Sans, Liberation Sans, Arial, Helvetica, sans" font-size="9.00" fill="#000000">cbpdntv.ConvBPDNScalarTV.relax_AX</text>
</a>
</g>
</g>
<!-- admm.ADMM.solve&#45;&gt;cbpdntv.ConvBPDNScalarTV.relax_AX -->
<g id="edge37" class="edge">
<title>admm.ADMM.solve&#45;&gt;cbpdntv.ConvBPDNScalarTV.relax_AX</title>
<path fill="none" stroke="#8ed88c" stroke-width="2" d="M62.206,-463.91C70.778,-409.19 99.14,-247.24 139,-215 198.62,-166.77 286.96,-163.64 355.09,-170.8"/>
<polygon fill="#8ed88c" stroke="#8ed88c" stroke-width="2" points="355.0874,-174.3224 365.42,-171.98 355.8819,-167.3676 355.0874,-174.3224"/>
</g>
<!-- cbpdntv.ConvBPDNScalarTV.ystep -->
<g id="node31" class="node">
<title>cbpdntv.ConvBPDNScalarTV.ystep</title>
<g id="a_node31"><a xlink:href="../../sporco.admm.cbpdntv.html#sporco.admm.cbpdntv.ConvBPDNScalarTV.ystep" xlink:title="cbpdntv.ConvBPDNScalarTV.ystep" target="_top">
<path fill="#d88c8c" stroke="#000000" stroke-width=".25" d="M307,-260C307,-260 159,-260 159,-260 153,-260 147,-254 147,-248 147,-248 147,-236 147,-236 147,-230 153,-224 159,-224 159,-224 307,-224 307,-224 313,-224 319,-230 319,-236 319,-236 319,-248 319,-248 319,-254 313,-260 307,-260"/>
<text text-anchor="middle" x="233" y="-239.8" font-family="Vera Sans, DejaVu Sans, Liberation Sans, Arial, Helvetica, sans" font-size="9.00" fill="#000000">cbpdntv.ConvBPDNScalarTV.ystep</text>
</a>
</g>
</g>
<!-- admm.ADMM.solve&#45;&gt;cbpdntv.ConvBPDNScalarTV.ystep -->
<g id="edge38" class="edge">
<title>admm.ADMM.solve&#45;&gt;cbpdntv.ConvBPDNScalarTV.ystep</title>
<path fill="none" stroke="#8ed88c" stroke-width="2" d="M60.899,-463.89C65.048,-422.96 80.914,-322.75 139,-269 140.13,-267.95 141.3,-266.95 142.5,-265.98"/>
<polygon fill="#8ed88c" stroke="#8ed88c" stroke-width="2" points="144.6648,-268.7376 150.87,-260.15 140.6639,-262.9936 144.6648,-268.7376"/>
</g>
<!-- cbpdntv.ConvBPDNScalarTV.cnst_A1 -->
<g id="node14" class="node">
<title>cbpdntv.ConvBPDNScalarTV.cnst_A1</title>
<g id="a_node14"><a xlink:href="../../sporco.admm.cbpdntv.html#sporco.admm.cbpdntv.ConvBPDNScalarTV.cnst_A1" xlink:title="cbpdntv.ConvBPDNScalarTV.cnst_A1" target="_top">
<path fill="#d88c8c" stroke="#000000" stroke-width=".25" d="M1220,-179C1220,-179 1061,-179 1061,-179 1055,-179 1049,-173 1049,-167 1049,-167 1049,-155 1049,-155 1049,-149 1055,-143 1061,-143 1061,-143 1220,-143 1220,-143 1226,-143 1232,-149 1232,-155 1232,-155 1232,-167 1232,-167 1232,-173 1226,-179 1220,-179"/>
<text text-anchor="middle" x="1140.5" y="-158.8" font-family="Vera Sans, DejaVu Sans, Liberation Sans, Arial, Helvetica, sans" font-size="9.00" fill="#000000">cbpdntv.ConvBPDNScalarTV.cnst_A1</text>
</a>
</g>
</g>
<!-- cbpdntv.ConvBPDNScalarTV.obfn_g1var -->
<g id="node15" class="node">
<title>cbpdntv.ConvBPDNScalarTV.obfn_g1var</title>
<g id="a_node15"><a xlink:href="../../sporco.admm.cbpdntv.html#sporco.admm.cbpdntv.ConvBPDNScalarTV.obfn_g1var" xlink:title="cbpdntv.ConvBPDNScalarTV.obfn_g1var" target="_top">
<path fill="#d88c8c" stroke="#000000" stroke-width=".25" d="M1001,-98C1001,-98 827,-98 827,-98 821,-98 815,-92 815,-86 815,-86 815,-74 815,-74 815,-68 821,-62 827,-62 827,-62 1001,-62 1001,-62 1007,-62 1013,-68 1013,-74 1013,-74 1013,-86 1013,-86 1013,-92 1007,-98 1001,-98"/>
<text text-anchor="middle" x="914" y="-77.8" font-family="Vera Sans, DejaVu Sans, Liberation Sans, Arial, Helvetica, sans" font-size="9.00" fill="#000000">cbpdntv.ConvBPDNScalarTV.obfn_g1var</text>
</a>
</g>
</g>
<!-- cbpdntv.ConvBPDNScalarTV.obfn_g1var&#45;&gt;cbpdntv.ConvBPDNScalarTV.cnst_A1 -->
<g id="edge14" class="edge">
<title>cbpdntv.ConvBPDNScalarTV.obfn_g1var&#45;&gt;cbpdntv.ConvBPDNScalarTV.cnst_A1</title>
<path fill="none" stroke="#d88c8c" stroke-width="2" d="M984.66,-98.02C994.2,-100.83 1003.9,-103.85 1013,-107 1039.7,-116.23 1068.7,-128.34 1092.3,-138.76"/>
<polygon fill="#d88c8c" stroke="#d88c8c" stroke-width="2" points="1091.1413,-142.0754 1101.7,-142.95 1093.9913,-135.6818 1091.1413,-142.0754"/>
</g>
<!-- cbpdntv.ConvBPDNScalarTV.cnst_A -->
<g id="node16" class="node">
<title>cbpdntv.ConvBPDNScalarTV.cnst_A</title>
<g id="a_node16"><a xlink:href="../../sporco.admm.cbpdntv.html#sporco.admm.cbpdntv.ConvBPDNScalarTV.cnst_A" xlink:title="cbpdntv.ConvBPDNScalarTV.cnst_A" target="_top">
<path fill="#d88c8c" stroke="#000000" stroke-width=".25" d="M990.5,-206C990.5,-206 837.5,-206 837.5,-206 831.5,-206 825.5,-200 825.5,-194 825.5,-194 825.5,-182 825.5,-182 825.5,-176 831.5,-170 837.5,-170 837.5,-170 990.5,-170 990.5,-170 996.5,-170 1002.5,-176 1002.5,-182 1002.5,-182 1002.5,-194 1002.5,-194 1002.5,-200 996.5,-206 990.5,-206"/>
<text text-anchor="middle" x="914" y="-185.8" font-family="Vera Sans, DejaVu Sans, Liberation Sans, Arial, Helvetica, sans" font-size="9.00" fill="#000000">cbpdntv.ConvBPDNScalarTV.cnst_A</text>
</a>
</g>
</g>
<!-- cbpdntv.ConvBPDNScalarTV.cnst_A&#45;&gt;cbpdntv.ConvBPDNScalarTV.cnst_A1 -->
<g id="edge15" class="edge">
<title>cbpdntv.ConvBPDNScalarTV.cnst_A&#45;&gt;cbpdntv.ConvBPDNScalarTV.cnst_A1</title>
<path fill="none" stroke="#d88c8c" stroke-width="2" d="M1002.5,-177.45C1014.4,-176.04 1026.6,-174.58 1038.6,-173.15"/>
<polygon fill="#d88c8c" stroke="#d88c8c" stroke-width="2" points="1039.1828,-176.6055 1048.7,-171.95 1038.3569,-169.6544 1039.1828,-176.6055"/>
</g>
<!-- cbpdntv.ConvBPDNScalarTV.cnst_A0 -->
<g id="node17" class="node">
<title>cbpdntv.ConvBPDNScalarTV.cnst_A0</title>
<g id="a_node17"><a xlink:href="../../sporco.admm.cbpdntv.html#sporco.admm.cbpdntv.ConvBPDNScalarTV.cnst_A0" xlink:title="cbpdntv.ConvBPDNScalarTV.cnst_A0" target="_top">
<path fill="#d88c8c" stroke="#000000" stroke-width=".25" d="M1220,-98C1220,-98 1061,-98 1061,-98 1055,-98 1049,-92 1049,-86 1049,-86 1049,-74 1049,-74 1049,-68 1055,-62 1061,-62 1061,-62 1220,-62 1220,-62 1226,-62 1232,-68 1232,-74 1232,-74 1232,-86 1232,-86 1232,-92 1226,-98 1220,-98"/>
<text text-anchor="middle" x="1140.5" y="-77.8" font-family="Vera Sans, DejaVu Sans, Liberation Sans, Arial, Helvetica, sans" font-size="9.00" fill="#000000">cbpdntv.ConvBPDNScalarTV.cnst_A0</text>
</a>
</g>
</g>
<!-- cbpdntv.ConvBPDNScalarTV.cnst_A&#45;&gt;cbpdntv.ConvBPDNScalarTV.cnst_A0 -->
<g id="edge16" class="edge">
<title>cbpdntv.ConvBPDNScalarTV.cnst_A&#45;&gt;cbpdntv.ConvBPDNScalarTV.cnst_A0</title>
<path fill="none" stroke="#d88c8c" stroke-width="2" d="M991.53,-169.93C998.9,-167.29 1006.2,-164.33 1013,-161 1031,-152.21 1032.4,-145.1 1049,-134 1064.9,-123.39 1082.9,-112.52 1098.8,-103.34"/>
<polygon fill="#d88c8c" stroke="#d88c8c" stroke-width="2" points="1100.8923,-106.1734 1107.8,-98.14 1097.3903,-100.1123 1100.8923,-106.1734"/>
</g>
<!-- cbpdntv.ConvBPDNScalarTV.cnst_A1T -->
<g id="node20" class="node">
<title>cbpdntv.ConvBPDNScalarTV.cnst_A1T</title>
<g id="a_node20"><a xlink:href="../../sporco.admm.cbpdntv.html#sporco.admm.cbpdntv.ConvBPDNScalarTV.cnst_A1T" xlink:title="cbpdntv.ConvBPDNScalarTV.cnst_A1T" target="_top">
<path fill="#d88c8c" stroke="#000000" stroke-width=".25" d="M996,-260C996,-260 832,-260 832,-260 826,-260 820,-254 820,-248 820,-248 820,-236 820,-236 820,-230 826,-224 832,-224 832,-224 996,-224 996,-224 1002,-224 1008,-230 1008,-236 1008,-236 1008,-248 1008,-248 1008,-254 1002,-260 996,-260"/>
<text text-anchor="middle" x="914" y="-239.8" font-family="Vera Sans, DejaVu Sans, Liberation Sans, Arial, Helvetica, sans" font-size="9.00" fill="#000000">cbpdntv.ConvBPDNScalarTV.cnst_A1T</text>
</a>
</g>
</g>
<!-- cbpdntv.ConvBPDNScalarTV.cnst_AT&#45;&gt;cbpdntv.ConvBPDNScalarTV.cnst_A1T -->
<g id="edge17" class="edge">
<title>cbpdntv.ConvBPDNScalarTV.cnst_AT&#45;&gt;cbpdntv.ConvBPDNScalarTV.cnst_A1T</title>
<path fill="none" stroke="#d88c8c" stroke-width="2" d="M761.57,-277.94C782.77,-272.95 805.92,-267.49 827.64,-262.37"/>
<polygon fill="#d88c8c" stroke="#d88c8c" stroke-width="2" points="828.573,-265.746 837.5,-260.04 826.9631,-258.9336 828.573,-265.746"/>
</g>
<!-- cbpdntv.ConvBPDNScalarTV.cnst_A0T -->
<g id="node21" class="node">
<title>cbpdntv.ConvBPDNScalarTV.cnst_A0T</title>
<g id="a_node21"><a xlink:href="../../sporco.admm.cbpdntv.html#sporco.admm.cbpdntv.ConvBPDNScalarTV.cnst_A0T" xlink:title="cbpdntv.ConvBPDNScalarTV.cnst_A0T" target="_top">
<path fill="#d88c8c" stroke="#000000" stroke-width=".25" d="M996,-314C996,-314 832,-314 832,-314 826,-314 820,-308 820,-302 820,-302 820,-290 820,-290 820,-284 826,-278 832,-278 832,-278 996,-278 996,-278 1002,-278 1008,-284 1008,-290 1008,-290 1008,-302 1008,-302 1008,-308 1002,-314 996,-314"/>
<text text-anchor="middle" x="914" y="-293.8" font-family="Vera Sans, DejaVu Sans, Liberation Sans, Arial, Helvetica, sans" font-size="9.00" fill="#000000">cbpdntv.ConvBPDNScalarTV.cnst_A0T</text>
</a>
</g>
</g>
<!-- cbpdntv.ConvBPDNScalarTV.cnst_AT&#45;&gt;cbpdntv.ConvBPDNScalarTV.cnst_A0T -->
<g id="edge18" class="edge">
<title>cbpdntv.ConvBPDNScalarTV.cnst_AT&#45;&gt;cbpdntv.ConvBPDNScalarTV.cnst_A0T</title>
<path fill="none" stroke="#d88c8c" stroke-width="2" d="M776.16,-296C787.15,-296 798.43,-296 809.58,-296"/>
<polygon fill="#d88c8c" stroke="#d88c8c" stroke-width="2" points="809.77,-299.5001 819.77,-296 809.77,-292.5001 809.77,-299.5001"/>
</g>
<!-- cbpdntv.ConvBPDNScalarTV.relax_AX&#45;&gt;cbpdntv.ConvBPDNScalarTV.cnst_A -->
<g id="edge19" class="edge">
<title>cbpdntv.ConvBPDNScalarTV.relax_AX&#45;&gt;cbpdntv.ConvBPDNScalarTV.cnst_A</title>
<path fill="none" stroke="#d88c8c" stroke-width="2" d="M525.84,-171.95C546.68,-167.44 569.63,-163.25 591,-161 674.09,-152.24 695.85,-152.77 779,-161 794.76,-162.56 811.4,-165.12 827.42,-168.06"/>
<polygon fill="#d88c8c" stroke="#d88c8c" stroke-width="2" points="826.8132,-171.5072 837.29,-169.93 828.1163,-164.6296 826.8132,-171.5072"/>
</g>
<!-- cbpdntv.ConvBPDNScalarTV.relax_AX&#45;&gt;cbpdntv.ConvBPDNScalarTV.cnst_c -->
<g id="edge20" class="edge">
<title>cbpdntv.ConvBPDNScalarTV.relax_AX&#45;&gt;cbpdntv.ConvBPDNScalarTV.cnst_c</title>
<path fill="none" stroke="#d88c8c" stroke-width="2" d="M547.56,-189.2C560.36,-189.08 573.55,-188.97 586.46,-188.86"/>
<polygon fill="#d88c8c" stroke="#d88c8c" stroke-width="2" points="586.7711,-192.3575 596.74,-188.77 586.7097,-185.3578 586.7711,-192.3575"/>
</g>
<!-- cbpdntv.ConvBPDNScalarTV.relax_AX&#45;&gt;cbpdntv.ConvBPDNScalarTV.cnst_B -->
<g id="edge21" class="edge">
<title>cbpdntv.ConvBPDNScalarTV.relax_AX&#45;&gt;cbpdntv.ConvBPDNScalarTV.cnst_B</title>
<path fill="none" stroke="#d88c8c" stroke-width="2" d="M534.8,-208.04C554.33,-212.46 575.37,-217.21 595.33,-221.73"/>
<polygon fill="#d88c8c" stroke="#d88c8c" stroke-width="2" points="594.8147,-225.2017 605.34,-223.99 596.3564,-218.3735 594.8147,-225.2017"/>
</g>
<!-- cbpdntv.ConvBPDNScalarTV.obfn_dfd -->
<g id="node27" class="node">
<title>cbpdntv.ConvBPDNScalarTV.obfn_dfd</title>
<g id="a_node27"><a xlink:href="../../sporco.admm.cbpdntv.html#sporco.admm.cbpdntv.ConvBPDNScalarTV.obfn_dfd" xlink:title="cbpdntv.ConvBPDNScalarTV.obfn_dfd" target="_top">
<path fill="#d88c8c" stroke="#000000" stroke-width=".25" d="M766.5,-132C766.5,-132 603.5,-132 603.5,-132 597.5,-132 591.5,-126 591.5,-120 591.5,-120 591.5,-108 591.5,-108 591.5,-102 597.5,-96 603.5,-96 603.5,-96 766.5,-96 766.5,-96 772.5,-96 778.5,-102 778.5,-108 778.5,-108 778.5,-120 778.5,-120 778.5,-126 772.5,-132 766.5,-132"/>
<text text-anchor="middle" x="685" y="-111.8" font-family="Vera Sans, DejaVu Sans, Liberation Sans, Arial, Helvetica, sans" font-size="9.00" fill="#000000">cbpdntv.ConvBPDNScalarTV.obfn_dfd</text>
</a>
</g>
</g>
<!-- cbpdntv.ConvBPDNScalarTV.eval_objfn&#45;&gt;cbpdntv.ConvBPDNScalarTV.obfn_dfd -->
<g id="edge22" class="edge">
<title>cbpdntv.ConvBPDNScalarTV.eval_objfn&#45;&gt;cbpdntv.ConvBPDNScalarTV.obfn_dfd</title>
<path fill="none" stroke="#d88c8c" stroke-width="2" d="M551.54,-114C561.3,-114 571.25,-114 581.08,-114"/>
<polygon fill="#d88c8c" stroke="#d88c8c" stroke-width="2" points="581.28,-117.5001 591.28,-114 581.28,-110.5001 581.28,-117.5001"/>
</g>
<!-- cbpdntv.ConvBPDNScalarTV.obfn_reg -->
<g id="node28" class="node">
<title>cbpdntv.ConvBPDNScalarTV.obfn_reg</title>
<g id="a_node28"><a xlink:href="../../sporco.admm.cbpdntv.html#sporco.admm.cbpdntv.ConvBPDNScalarTV.obfn_reg" xlink:title="cbpdntv.ConvBPDNScalarTV.obfn_reg" target="_top">
<path fill="#d88c8c" stroke="#000000" stroke-width=".25" d="M767,-78C767,-78 603,-78 603,-78 597,-78 591,-72 591,-66 591,-66 591,-54 591,-54 591,-48 597,-42 603,-42 603,-42 767,-42 767,-42 773,-42 779,-48 779,-54 779,-54 779,-66 779,-66 779,-72 773,-78 767,-78"/>
<text text-anchor="middle" x="685" y="-57.8" font-family="Vera Sans, DejaVu Sans, Liberation Sans, Arial, Helvetica, sans" font-size="9.00" fill="#000000">cbpdntv.ConvBPDNScalarTV.obfn_reg</text>
</a>
</g>
</g>
<!-- cbpdntv.ConvBPDNScalarTV.eval_objfn&#45;&gt;cbpdntv.ConvBPDNScalarTV.obfn_reg -->
<g id="edge23" class="edge">
<title>cbpdntv.ConvBPDNScalarTV.eval_objfn&#45;&gt;cbpdntv.ConvBPDNScalarTV.obfn_reg</title>
<path fill="none" stroke="#d88c8c" stroke-width="2" d="M531.91,-95.94C553.2,-90.945 576.45,-85.485 598.26,-80.365"/>
<polygon fill="#d88c8c" stroke="#d88c8c" stroke-width="2" points="599.2344,-83.7315 608.17,-78.039 597.6348,-76.9167 599.2344,-83.7315"/>
</g>
<!-- cbpdntv.ConvBPDNScalarTV.obfn_fvarf -->
<g id="node29" class="node">
<title>cbpdntv.ConvBPDNScalarTV.obfn_fvarf</title>
<g id="a_node29"><a xlink:href="../../sporco.admm.cbpdntv.html#sporco.admm.cbpdntv.ConvBPDNScalarTV.obfn_fvarf" xlink:title="cbpdntv.ConvBPDNScalarTV.obfn_fvarf" target="_top">
<path fill="#d88c8c" stroke="#000000" stroke-width=".25" d="M998,-152C998,-152 830,-152 830,-152 824,-152 818,-146 818,-140 818,-140 818,-128 818,-128 818,-122 824,-116 830,-116 830,-116 998,-116 998,-116 1004,-116 1010,-122 1010,-128 1010,-128 1010,-140 1010,-140 1010,-146 1004,-152 998,-152"/>
<text text-anchor="middle" x="914" y="-131.8" font-family="Vera Sans, DejaVu Sans, Liberation Sans, Arial, Helvetica, sans" font-size="9.00" fill="#000000">cbpdntv.ConvBPDNScalarTV.obfn_fvarf</text>
</a>
</g>
</g>
<!-- cbpdntv.ConvBPDNScalarTV.obfn_dfd&#45;&gt;cbpdntv.ConvBPDNScalarTV.obfn_fvarf -->
<g id="edge24" class="edge">
<title>cbpdntv.ConvBPDNScalarTV.obfn_dfd&#45;&gt;cbpdntv.ConvBPDNScalarTV.obfn_fvarf</title>
<path fill="none" stroke="#d88c8c" stroke-width="2" d="M778.8,-122.19C788.34,-123.03 798.07,-123.88 807.72,-124.72"/>
<polygon fill="#d88c8c" stroke="#d88c8c" stroke-width="2" points="807.4747,-128.2118 817.74,-125.59 808.0803,-121.238 807.4747,-128.2118"/>
</g>
<!-- cbpdntv.ConvBPDNScalarTV.obfn_reg&#45;&gt;cbpdntv.ConvBPDNScalarTV.obfn_g1var -->
<g id="edge25" class="edge">
<title>cbpdntv.ConvBPDNScalarTV.obfn_reg&#45;&gt;cbpdntv.ConvBPDNScalarTV.obfn_g1var</title>
<path fill="none" stroke="#d88c8c" stroke-width="2" d="M779.13,-68.221C787.56,-68.957 796.13,-69.706 804.67,-70.452"/>
<polygon fill="#d88c8c" stroke="#d88c8c" stroke-width="2" points="804.3935,-73.9411 814.66,-71.324 805.0023,-66.9676 804.3935,-73.9411"/>
</g>
<!-- cbpdntv.ConvBPDNScalarTV.obfn_g0var -->
<g id="node30" class="node">
<title>cbpdntv.ConvBPDNScalarTV.obfn_g0var</title>
<g id="a_node30"><a xlink:href="../../sporco.admm.cbpdntv.html#sporco.admm.cbpdntv.ConvBPDNScalarTV.obfn_g0var" xlink:title="cbpdntv.ConvBPDNScalarTV.obfn_g0var" target="_top">
<path fill="#d88c8c" stroke="#000000" stroke-width=".25" d="M1001,-44C1001,-44 827,-44 827,-44 821,-44 815,-38 815,-32 815,-32 815,-20 815,-20 815,-14 821,-8 827,-8 827,-8 1001,-8 1001,-8 1007,-8 1013,-14 1013,-20 1013,-20 1013,-32 1013,-32 1013,-38 1007,-44 1001,-44"/>
<text text-anchor="middle" x="914" y="-23.8" font-family="Vera Sans, DejaVu Sans, Liberation Sans, Arial, Helvetica, sans" font-size="9.00" fill="#000000">cbpdntv.ConvBPDNScalarTV.obfn_g0var</text>
</a>
</g>
</g>
<!-- cbpdntv.ConvBPDNScalarTV.obfn_reg&#45;&gt;cbpdntv.ConvBPDNScalarTV.obfn_g0var -->
<g id="edge26" class="edge">
<title>cbpdntv.ConvBPDNScalarTV.obfn_reg&#45;&gt;cbpdntv.ConvBPDNScalarTV.obfn_g0var</title>
<path fill="none" stroke="#d88c8c" stroke-width="2" d="M779.13,-46.024C787.56,-44.773 796.13,-43.5 804.67,-42.232"/>
<polygon fill="#d88c8c" stroke="#d88c8c" stroke-width="2" points="805.2824,-45.6795 814.66,-40.749 804.2544,-38.7554 805.2824,-45.6795"/>
</g>
<!-- cbpdntv.ConvBPDNScalarTV.obfn_g0var&#45;&gt;cbpdntv.ConvBPDNScalarTV.cnst_A0 -->
<g id="edge27" class="edge">
<title>cbpdntv.ConvBPDNScalarTV.obfn_g0var&#45;&gt;cbpdntv.ConvBPDNScalarTV.cnst_A0</title>
<path fill="none" stroke="#d88c8c" stroke-width="2" d="M989.74,-44.056C1010.7,-49.055 1033.6,-54.515 1055.1,-59.635"/>
<polygon fill="#d88c8c" stroke="#d88c8c" stroke-width="2" points="1054.2595,-63.0326 1064.8,-61.961 1055.8918,-56.2256 1054.2595,-63.0326"/>
</g>
</g>
</svg>
