<?xml version="1.0" encoding="UTF-8" standalone="no"?>
<!DOCTYPE svg PUBLIC "-//W3C//DTD SVG 1.1//EN"
 "http://www.w3.org/Graphics/SVG/1.1/DTD/svg11.dtd">
<!-- Generated by graphviz version 2.40.1 (20161225.0304)
 -->
<!-- Pages: 1 -->
<svg
 viewBox="0.00 0.00 985.00 906.00" xmlns="http://www.w3.org/2000/svg" xmlns:xlink="http://www.w3.org/1999/xlink">
<g id="graph0" class="graph" transform="scale(1 1) rotate(0) translate(4 902)">
<polygon fill="transparent" stroke="transparent" points="-4,4 -4,-902 981,-902 981,4 -4,4"/>
<g id="clust1" class="cluster">
<title>cluster_admm.ADMMEqual</title>
<polygon fill="transparent" stroke="#8ca8d8" stroke-width="2" stroke-dasharray="1,5" points="151,0 151,-232 961.5,-232 961.5,0 151,0"/>
<text text-anchor="middle" x="556.25" y="-220.8" font-family="Vera Sans, DejaVu Sans, Liberation Sans, Arial, Helvetica, sans" font-size="9.00" fill="#000000">admm.ADMMEqual</text>
</g>
<g id="clust2" class="cluster">
<title>cluster_cbpdn.GenericConvBPDN</title>
<polygon fill="transparent" stroke="#d88c8c" stroke-width="2" stroke-dasharray="1,5" points="142,-642 142,-820 977,-820 977,-642 142,-642"/>
<text text-anchor="middle" x="559.5" y="-808.8" font-family="Vera Sans, DejaVu Sans, Liberation Sans, Arial, Helvetica, sans" font-size="9.00" fill="#000000">cbpdn.GenericConvBPDN</text>
</g>
<g id="clust3" class="cluster">
<title>cluster_admm.ADMM</title>
<polygon fill="transparent" stroke="#8ed88c" stroke-width="2" stroke-dasharray="1,5" points="0,-240 0,-634 322,-634 322,-240 0,-240"/>
<text text-anchor="middle" x="161" y="-622.8" font-family="Vera Sans, DejaVu Sans, Liberation Sans, Arial, Helvetica, sans" font-size="9.00" fill="#000000">admm.ADMM</text>
</g>
<g id="clust4" class="cluster">
<title>cluster_cbpdn.ConvBPDNJoint</title>
<polygon fill="transparent" stroke="#d88cc3" stroke-width="2" stroke-dasharray="1,5" points="149.5,-828 149.5,-898 751.5,-898 751.5,-828 149.5,-828"/>
<text text-anchor="middle" x="450.5" y="-886.8" font-family="Vera Sans, DejaVu Sans, Liberation Sans, Arial, Helvetica, sans" font-size="9.00" fill="#000000">cbpdn.ConvBPDNJoint</text>
</g>
<!-- admm.ADMMEqual.rsdl_s -->
<g id="node1" class="node">
<title>admm.ADMMEqual.rsdl_s</title>
<g id="a_node1"><a xlink:href="../../sporco.admm.admm.html#sporco.admm.admm.ADMMEqual.rsdl_s" xlink:title="admm.ADMMEqual.rsdl_s" target="_top">
<path fill="#8ca8d8" stroke="#000000" stroke-width=".25" d="M498.5,-98C498.5,-98 390.5,-98 390.5,-98 384.5,-98 378.5,-92 378.5,-86 378.5,-86 378.5,-74 378.5,-74 378.5,-68 384.5,-62 390.5,-62 390.5,-62 498.5,-62 498.5,-62 504.5,-62 510.5,-68 510.5,-74 510.5,-74 510.5,-86 510.5,-86 510.5,-92 504.5,-98 498.5,-98"/>
<text text-anchor="middle" x="444.5" y="-77.8" font-family="Vera Sans, DejaVu Sans, Liberation Sans, Arial, Helvetica, sans" font-size="9.00" fill="#000000">admm.ADMMEqual.rsdl_s</text>
</a>
</g>
</g>
<!-- admm.ADMMEqual.rsdl_r -->
<g id="node2" class="node">
<title>admm.ADMMEqual.rsdl_r</title>
<g id="a_node2"><a xlink:href="../../sporco.admm.admm.html#sporco.admm.admm.ADMMEqual.rsdl_r" xlink:title="admm.ADMMEqual.rsdl_r" target="_top">
<path fill="#8ca8d8" stroke="#000000" stroke-width=".25" d="M498,-206C498,-206 391,-206 391,-206 385,-206 379,-200 379,-194 379,-194 379,-182 379,-182 379,-176 385,-170 391,-170 391,-170 498,-170 498,-170 504,-170 510,-176 510,-182 510,-182 510,-194 510,-194 510,-200 504,-206 498,-206"/>
<text text-anchor="middle" x="444.5" y="-185.8" font-family="Vera Sans, DejaVu Sans, Liberation Sans, Arial, Helvetica, sans" font-size="9.00" fill="#000000">admm.ADMMEqual.rsdl_r</text>
</a>
</g>
</g>
<!-- admm.ADMMEqual.getmin -->
<g id="node3" class="node">
<title>admm.ADMMEqual.getmin</title>
<g id="a_node3"><a xlink:href="../../sporco.admm.admm.html#sporco.admm.admm.ADMMEqual.getmin" xlink:title="admm.ADMMEqual.getmin" target="_top">
<path fill="#8ca8d8" stroke="#000000" stroke-width=".25" d="M287,-152C287,-152 174,-152 174,-152 168,-152 162,-146 162,-140 162,-140 162,-128 162,-128 162,-122 168,-116 174,-116 174,-116 287,-116 287,-116 293,-116 299,-122 299,-128 299,-128 299,-140 299,-140 299,-146 293,-152 287,-152"/>
<text text-anchor="middle" x="230.5" y="-131.8" font-family="Vera Sans, DejaVu Sans, Liberation Sans, Arial, Helvetica, sans" font-size="9.00" fill="#000000">admm.ADMMEqual.getmin</text>
</a>
</g>
</g>
<!-- admm.ADMMEqual.relax_AX -->
<g id="node4" class="node">
<title>admm.ADMMEqual.relax_AX</title>
<g id="a_node4"><a xlink:href="../../sporco.admm.admm.html#sporco.admm.admm.ADMMEqual.relax_AX" xlink:title="admm.ADMMEqual.relax_AX" target="_top">
<path fill="#8ca8d8" stroke="#000000" stroke-width=".25" d="M290,-206C290,-206 171,-206 171,-206 165,-206 159,-200 159,-194 159,-194 159,-182 159,-182 159,-176 165,-170 171,-170 171,-170 290,-170 290,-170 296,-170 302,-176 302,-182 302,-182 302,-194 302,-194 302,-200 296,-206 290,-206"/>
<text text-anchor="middle" x="230.5" y="-185.8" font-family="Vera Sans, DejaVu Sans, Liberation Sans, Arial, Helvetica, sans" font-size="9.00" fill="#000000">admm.ADMMEqual.relax_AX</text>
</a>
</g>
</g>
<!-- admm.ADMMEqual.obfn_gvar -->
<g id="node5" class="node">
<title>admm.ADMMEqual.obfn_gvar</title>
<g id="a_node5"><a xlink:href="../../sporco.admm.admm.html#sporco.admm.admm.ADMMEqual.obfn_gvar" xlink:title="admm.ADMMEqual.obfn_gvar" target="_top">
<path fill="#8ca8d8" stroke="#000000" stroke-width=".25" d="M941.5,-206C941.5,-206 814.5,-206 814.5,-206 808.5,-206 802.5,-200 802.5,-194 802.5,-194 802.5,-182 802.5,-182 802.5,-176 808.5,-170 814.5,-170 814.5,-170 941.5,-170 941.5,-170 947.5,-170 953.5,-176 953.5,-182 953.5,-182 953.5,-194 953.5,-194 953.5,-200 947.5,-206 941.5,-206"/>
<text text-anchor="middle" x="878" y="-185.8" font-family="Vera Sans, DejaVu Sans, Liberation Sans, Arial, Helvetica, sans" font-size="9.00" fill="#000000">admm.ADMMEqual.obfn_gvar</text>
</a>
</g>
</g>
<!-- admm.ADMMEqual.rsdl_rn -->
<g id="node6" class="node">
<title>admm.ADMMEqual.rsdl_rn</title>
<g id="a_node6"><a xlink:href="../../sporco.admm.admm.html#sporco.admm.admm.ADMMEqual.rsdl_rn" xlink:title="admm.ADMMEqual.rsdl_rn" target="_top">
<path fill="#8ca8d8" stroke="#000000" stroke-width=".25" d="M501,-152C501,-152 388,-152 388,-152 382,-152 376,-146 376,-140 376,-140 376,-128 376,-128 376,-122 382,-116 388,-116 388,-116 501,-116 501,-116 507,-116 513,-122 513,-128 513,-128 513,-140 513,-140 513,-146 507,-152 501,-152"/>
<text text-anchor="middle" x="444.5" y="-131.8" font-family="Vera Sans, DejaVu Sans, Liberation Sans, Arial, Helvetica, sans" font-size="9.00" fill="#000000">admm.ADMMEqual.rsdl_rn</text>
</a>
</g>
</g>
<!-- admm.ADMMEqual.rsdl_sn -->
<g id="node7" class="node">
<title>admm.ADMMEqual.rsdl_sn</title>
<g id="a_node7"><a xlink:href="../../sporco.admm.admm.html#sporco.admm.admm.ADMMEqual.rsdl_sn" xlink:title="admm.ADMMEqual.rsdl_sn" target="_top">
<path fill="#8ca8d8" stroke="#000000" stroke-width=".25" d="M501.5,-44C501.5,-44 387.5,-44 387.5,-44 381.5,-44 375.5,-38 375.5,-32 375.5,-32 375.5,-20 375.5,-20 375.5,-14 381.5,-8 387.5,-8 387.5,-8 501.5,-8 501.5,-8 507.5,-8 513.5,-14 513.5,-20 513.5,-20 513.5,-32 513.5,-32 513.5,-38 507.5,-44 501.5,-44"/>
<text text-anchor="middle" x="444.5" y="-23.8" font-family="Vera Sans, DejaVu Sans, Liberation Sans, Arial, Helvetica, sans" font-size="9.00" fill="#000000">admm.ADMMEqual.rsdl_sn</text>
</a>
</g>
</g>
<!-- cbpdn.GenericConvBPDN.eval_objfn -->
<g id="node8" class="node">
<title>cbpdn.GenericConvBPDN.eval_objfn</title>
<g id="a_node8"><a xlink:href="../../sporco.admm.cbpdn.html#sporco.admm.cbpdn.GenericConvBPDN.eval_objfn" xlink:title="cbpdn.GenericConvBPDN.eval_objfn" target="_top">
<path fill="#d88c8c" stroke="#000000" stroke-width=".25" d="M523.5,-740C523.5,-740 365.5,-740 365.5,-740 359.5,-740 353.5,-734 353.5,-728 353.5,-728 353.5,-716 353.5,-716 353.5,-710 359.5,-704 365.5,-704 365.5,-704 523.5,-704 523.5,-704 529.5,-704 535.5,-710 535.5,-716 535.5,-716 535.5,-728 535.5,-728 535.5,-734 529.5,-740 523.5,-740"/>
<text text-anchor="middle" x="444.5" y="-719.8" font-family="Vera Sans, DejaVu Sans, Liberation Sans, Arial, Helvetica, sans" font-size="9.00" fill="#000000">cbpdn.GenericConvBPDN.eval_objfn</text>
</a>
</g>
</g>
<!-- cbpdn.GenericConvBPDN.obfn_dfd -->
<g id="node9" class="node">
<title>cbpdn.GenericConvBPDN.obfn_dfd</title>
<g id="a_node9"><a xlink:href="../../sporco.admm.cbpdn.html#sporco.admm.cbpdn.GenericConvBPDN.obfn_dfd" xlink:title="cbpdn.GenericConvBPDN.obfn_dfd" target="_top">
<path fill="#d88c8c" stroke="#000000" stroke-width=".25" d="M739,-740C739,-740 587,-740 587,-740 581,-740 575,-734 575,-728 575,-728 575,-716 575,-716 575,-710 581,-704 587,-704 587,-704 739,-704 739,-704 745,-704 751,-710 751,-716 751,-716 751,-728 751,-728 751,-734 745,-740 739,-740"/>
<text text-anchor="middle" x="663" y="-719.8" font-family="Vera Sans, DejaVu Sans, Liberation Sans, Arial, Helvetica, sans" font-size="9.00" fill="#000000">cbpdn.GenericConvBPDN.obfn_dfd</text>
</a>
</g>
</g>
<!-- cbpdn.GenericConvBPDN.eval_objfn&#45;&gt;cbpdn.GenericConvBPDN.obfn_dfd -->
<g id="edge1" class="edge">
<title>cbpdn.GenericConvBPDN.eval_objfn&#45;&gt;cbpdn.GenericConvBPDN.obfn_dfd</title>
<path fill="none" stroke="#d88c8c" stroke-width="2" d="M535.58,-722C545.23,-722 555.07,-722 564.79,-722"/>
<polygon fill="#d88c8c" stroke="#d88c8c" stroke-width="2" points="564.87,-725.5001 574.87,-722 564.87,-718.5001 564.87,-725.5001"/>
</g>
<!-- cbpdn.ConvBPDNJoint.obfn_reg -->
<g id="node23" class="node">
<title>cbpdn.ConvBPDNJoint.obfn_reg</title>
<g id="a_node23"><a xlink:href="../../sporco.admm.cbpdn.html#sporco.admm.cbpdn.ConvBPDNJoint.obfn_reg" xlink:title="cbpdn.ConvBPDNJoint.obfn_reg" target="_top">
<path fill="#d88cc3" stroke="#000000" stroke-width=".25" d="M731.5,-872C731.5,-872 594.5,-872 594.5,-872 588.5,-872 582.5,-866 582.5,-860 582.5,-860 582.5,-848 582.5,-848 582.5,-842 588.5,-836 594.5,-836 594.5,-836 731.5,-836 731.5,-836 737.5,-836 743.5,-842 743.5,-848 743.5,-848 743.5,-860 743.5,-860 743.5,-866 737.5,-872 731.5,-872"/>
<text text-anchor="middle" x="663" y="-851.8" font-family="Vera Sans, DejaVu Sans, Liberation Sans, Arial, Helvetica, sans" font-size="9.00" fill="#000000">cbpdn.ConvBPDNJoint.obfn_reg</text>
</a>
</g>
</g>
<!-- cbpdn.GenericConvBPDN.eval_objfn&#45;&gt;cbpdn.ConvBPDNJoint.obfn_reg -->
<g id="edge21" class="edge">
<title>cbpdn.GenericConvBPDN.eval_objfn&#45;&gt;cbpdn.ConvBPDNJoint.obfn_reg</title>
<path fill="none" stroke="#d88c8c" stroke-width="2" d="M526.41,-740.08C530.91,-742.67 535.15,-745.63 539,-749 566.99,-773.54 547.72,-801.49 574.8,-830.36"/>
<polygon fill="#d88c8c" stroke="#d88c8c" stroke-width="2" points="572.5533,-833.0509 582.25,-837.32 577.332,-827.9357 572.5533,-833.0509"/>
</g>
<!-- cbpdn.GenericConvBPDN.obfn_fvarf -->
<g id="node10" class="node">
<title>cbpdn.GenericConvBPDN.obfn_fvarf</title>
<g id="a_node10"><a xlink:href="../../sporco.admm.cbpdn.html#sporco.admm.cbpdn.GenericConvBPDN.obfn_fvarf" xlink:title="cbpdn.GenericConvBPDN.obfn_fvarf" target="_top">
<path fill="#d88c8c" stroke="#000000" stroke-width=".25" d="M957,-740C957,-740 799,-740 799,-740 793,-740 787,-734 787,-728 787,-728 787,-716 787,-716 787,-710 793,-704 799,-704 799,-704 957,-704 957,-704 963,-704 969,-710 969,-716 969,-716 969,-728 969,-728 969,-734 963,-740 957,-740"/>
<text text-anchor="middle" x="878" y="-719.8" font-family="Vera Sans, DejaVu Sans, Liberation Sans, Arial, Helvetica, sans" font-size="9.00" fill="#000000">cbpdn.GenericConvBPDN.obfn_fvarf</text>
</a>
</g>
</g>
<!-- cbpdn.GenericConvBPDN.obfn_dfd&#45;&gt;cbpdn.GenericConvBPDN.obfn_fvarf -->
<g id="edge2" class="edge">
<title>cbpdn.GenericConvBPDN.obfn_dfd&#45;&gt;cbpdn.GenericConvBPDN.obfn_fvarf</title>
<path fill="none" stroke="#d88c8c" stroke-width="2" d="M751.07,-722C759.57,-722 768.24,-722 776.86,-722"/>
<polygon fill="#d88c8c" stroke="#d88c8c" stroke-width="2" points="776.93,-725.5001 786.93,-722 776.93,-718.5001 776.93,-725.5001"/>
</g>
<!-- cbpdn.GenericConvBPDN.ystep -->
<g id="node11" class="node">
<title>cbpdn.GenericConvBPDN.ystep</title>
<g id="a_node11"><a xlink:href="../../sporco.admm.cbpdn.html#sporco.admm.cbpdn.GenericConvBPDN.ystep" xlink:title="cbpdn.GenericConvBPDN.ystep" target="_top">
<path fill="#d88c8c" stroke="#000000" stroke-width=".25" d="M513,-794C513,-794 376,-794 376,-794 370,-794 364,-788 364,-782 364,-782 364,-770 364,-770 364,-764 370,-758 376,-758 376,-758 513,-758 513,-758 519,-758 525,-764 525,-770 525,-770 525,-782 525,-782 525,-788 519,-794 513,-794"/>
<text text-anchor="middle" x="444.5" y="-773.8" font-family="Vera Sans, DejaVu Sans, Liberation Sans, Arial, Helvetica, sans" font-size="9.00" fill="#000000">cbpdn.GenericConvBPDN.ystep</text>
</a>
</g>
</g>
<!-- cbpdn.GenericConvBPDN.itstat_extra -->
<g id="node12" class="node">
<title>cbpdn.GenericConvBPDN.itstat_extra</title>
<g id="a_node12"><a xlink:href="../../sporco.admm.cbpdn.html#sporco.admm.cbpdn.GenericConvBPDN.itstat_extra" xlink:title="cbpdn.GenericConvBPDN.itstat_extra" target="_top">
<path fill="#d88c8c" stroke="#000000" stroke-width=".25" d="M527,-686C527,-686 362,-686 362,-686 356,-686 350,-680 350,-674 350,-674 350,-662 350,-662 350,-656 356,-650 362,-650 362,-650 527,-650 527,-650 533,-650 539,-656 539,-662 539,-662 539,-674 539,-674 539,-680 533,-686 527,-686"/>
<text text-anchor="middle" x="444.5" y="-665.8" font-family="Vera Sans, DejaVu Sans, Liberation Sans, Arial, Helvetica, sans" font-size="9.00" fill="#000000">cbpdn.GenericConvBPDN.itstat_extra</text>
</a>
</g>
</g>
<!-- cbpdn.GenericConvBPDN.xstep -->
<g id="node13" class="node">
<title>cbpdn.GenericConvBPDN.xstep</title>
<g id="a_node13"><a xlink:href="../../sporco.admm.cbpdn.html#sporco.admm.cbpdn.GenericConvBPDN.xstep" xlink:title="cbpdn.GenericConvBPDN.xstep" target="_top">
<path fill="#d88c8c" stroke="#000000" stroke-width=".25" d="M299,-686C299,-686 162,-686 162,-686 156,-686 150,-680 150,-674 150,-674 150,-662 150,-662 150,-656 156,-650 162,-650 162,-650 299,-650 299,-650 305,-650 311,-656 311,-662 311,-662 311,-674 311,-674 311,-680 305,-686 299,-686"/>
<text text-anchor="middle" x="230.5" y="-665.8" font-family="Vera Sans, DejaVu Sans, Liberation Sans, Arial, Helvetica, sans" font-size="9.00" fill="#000000">cbpdn.GenericConvBPDN.xstep</text>
</a>
</g>
</g>
<!-- admm.ADMM.solve -->
<g id="node14" class="node">
<title>admm.ADMM.solve</title>
<g id="a_node14"><a xlink:href="../../sporco.admm.admm.html#sporco.admm.admm.ADMM.solve" xlink:title="admm.ADMM.solve" target="_top">
<path fill="#8ed88c" stroke="#000000" stroke-width=".25" d="M99,-446C99,-446 20,-446 20,-446 14,-446 8,-440 8,-434 8,-434 8,-422 8,-422 8,-416 14,-410 20,-410 20,-410 99,-410 99,-410 105,-410 111,-416 111,-422 111,-422 111,-434 111,-434 111,-440 105,-446 99,-446"/>
<text text-anchor="middle" x="59.5" y="-425.8" font-family="Vera Sans, DejaVu Sans, Liberation Sans, Arial, Helvetica, sans" font-size="9.00" fill="#000000">admm.ADMM.solve</text>
</a>
</g>
</g>
<!-- admm.ADMM.solve&#45;&gt;admm.ADMMEqual.getmin -->
<g id="edge11" class="edge">
<title>admm.ADMM.solve&#45;&gt;admm.ADMMEqual.getmin</title>
<path fill="none" stroke="#8ed88c" stroke-width="2" d="M62.817,-409.88C73.054,-355.83 105.66,-197.21 142,-161 145.29,-157.72 148.96,-154.84 152.9,-152.31"/>
<polygon fill="#8ed88c" stroke="#8ed88c" stroke-width="2" points="154.8399,-155.2353 161.86,-147.3 151.4236,-149.1256 154.8399,-155.2353"/>
</g>
<!-- admm.ADMM.solve&#45;&gt;admm.ADMMEqual.relax_AX -->
<g id="edge12" class="edge">
<title>admm.ADMM.solve&#45;&gt;admm.ADMMEqual.relax_AX</title>
<path fill="none" stroke="#8ed88c" stroke-width="2" d="M63.071,-409.96C71.168,-373.17 94.06,-288.52 142,-236 151.11,-226.02 162.78,-217.69 174.65,-210.93"/>
<polygon fill="#8ed88c" stroke="#8ed88c" stroke-width="2" points="176.5654,-213.8742 183.72,-206.06 173.254,-207.707 176.5654,-213.8742"/>
</g>
<!-- admm.ADMM.solve&#45;&gt;cbpdn.GenericConvBPDN.xstep -->
<g id="edge10" class="edge">
<title>admm.ADMM.solve&#45;&gt;cbpdn.GenericConvBPDN.xstep</title>
<path fill="none" stroke="#8ed88c" stroke-width="2" d="M61.518,-446.29C66.934,-486.66 85.446,-584.07 142,-638 144.41,-640.3 147,-642.42 149.72,-644.37"/>
<polygon fill="#8ed88c" stroke="#8ed88c" stroke-width="2" points="147.9481,-647.3906 158.27,-649.78 151.691,-641.4753 147.9481,-647.3906"/>
</g>
<!-- admm.ADMM.iteration_stats -->
<g id="node15" class="node">
<title>admm.ADMM.iteration_stats</title>
<g id="a_node15"><a xlink:href="../../sporco.admm.admm.html#sporco.admm.admm.ADMM.iteration_stats" xlink:title="admm.ADMM.iteration_stats" target="_top">
<path fill="#8ed88c" stroke="#000000" stroke-width=".25" d="M292,-554C292,-554 169,-554 169,-554 163,-554 157,-548 157,-542 157,-542 157,-530 157,-530 157,-524 163,-518 169,-518 169,-518 292,-518 292,-518 298,-518 304,-524 304,-530 304,-530 304,-542 304,-542 304,-548 298,-554 292,-554"/>
<text text-anchor="middle" x="230.5" y="-533.8" font-family="Vera Sans, DejaVu Sans, Liberation Sans, Arial, Helvetica, sans" font-size="9.00" fill="#000000">admm.ADMM.iteration_stats</text>
</a>
</g>
</g>
<!-- admm.ADMM.solve&#45;&gt;admm.ADMM.iteration_stats -->
<g id="edge3" class="edge">
<title>admm.ADMM.solve&#45;&gt;admm.ADMM.iteration_stats</title>
<path fill="none" stroke="#8ed88c" stroke-width="2" d="M73.394,-446.02C88.434,-464.36 114.05,-492.39 142,-509 144.83,-510.68 147.78,-512.27 150.8,-513.76"/>
<polygon fill="#8ed88c" stroke="#8ed88c" stroke-width="2" points="149.5089,-517.0179 160.06,-517.98 152.4118,-510.6482 149.5089,-517.0179"/>
</g>
<!-- admm.ADMM.ustep -->
<g id="node16" class="node">
<title>admm.ADMM.ustep</title>
<g id="a_node16"><a xlink:href="../../sporco.admm.admm.html#sporco.admm.admm.ADMM.ustep" xlink:title="admm.ADMM.ustep" target="_top">
<path fill="#8ed88c" stroke="#000000" stroke-width=".25" d="M271.5,-500C271.5,-500 189.5,-500 189.5,-500 183.5,-500 177.5,-494 177.5,-488 177.5,-488 177.5,-476 177.5,-476 177.5,-470 183.5,-464 189.5,-464 189.5,-464 271.5,-464 271.5,-464 277.5,-464 283.5,-470 283.5,-476 283.5,-476 283.5,-488 283.5,-488 283.5,-494 277.5,-500 271.5,-500"/>
<text text-anchor="middle" x="230.5" y="-479.8" font-family="Vera Sans, DejaVu Sans, Liberation Sans, Arial, Helvetica, sans" font-size="9.00" fill="#000000">admm.ADMM.ustep</text>
</a>
</g>
</g>
<!-- admm.ADMM.solve&#45;&gt;admm.ADMM.ustep -->
<g id="edge4" class="edge">
<title>admm.ADMM.solve&#45;&gt;admm.ADMM.ustep</title>
<path fill="none" stroke="#8ed88c" stroke-width="2" d="M111.38,-445.16C121.52,-448.46 132.09,-451.87 142,-455 150.24,-457.6 158.91,-460.3 167.49,-462.95"/>
<polygon fill="#8ed88c" stroke="#8ed88c" stroke-width="2" points="166.5131,-466.3113 177.1,-465.9 168.5674,-459.6195 166.5131,-466.3113"/>
</g>
<!-- admm.ADMM.compute_residuals -->
<g id="node17" class="node">
<title>admm.ADMM.compute_residuals</title>
<g id="a_node17"><a xlink:href="../../sporco.admm.admm.html#sporco.admm.admm.ADMM.compute_residuals" xlink:title="admm.ADMM.compute_residuals" target="_top">
<path fill="#8ed88c" stroke="#000000" stroke-width=".25" d="M302,-446C302,-446 159,-446 159,-446 153,-446 147,-440 147,-434 147,-434 147,-422 147,-422 147,-416 153,-410 159,-410 159,-410 302,-410 302,-410 308,-410 314,-416 314,-422 314,-422 314,-434 314,-434 314,-440 308,-446 302,-446"/>
<text text-anchor="middle" x="230.5" y="-425.8" font-family="Vera Sans, DejaVu Sans, Liberation Sans, Arial, Helvetica, sans" font-size="9.00" fill="#000000">admm.ADMM.compute_residuals</text>
</a>
</g>
</g>
<!-- admm.ADMM.solve&#45;&gt;admm.ADMM.compute_residuals -->
<g id="edge5" class="edge">
<title>admm.ADMM.solve&#45;&gt;admm.ADMM.compute_residuals</title>
<path fill="none" stroke="#8ed88c" stroke-width="2" d="M111.27,-428C119.32,-428 127.85,-428 136.5,-428"/>
<polygon fill="#8ed88c" stroke="#8ed88c" stroke-width="2" points="136.68,-431.5001 146.68,-428 136.68,-424.5001 136.68,-431.5001"/>
</g>
<!-- admm.ADMM.display_status -->
<g id="node18" class="node">
<title>admm.ADMM.display_status</title>
<g id="a_node18"><a xlink:href="../../sporco.admm.admm.html#sporco.admm.admm.ADMM.display_status" xlink:title="admm.ADMM.display_status" target="_top">
<path fill="#8ed88c" stroke="#000000" stroke-width=".25" d="M291.5,-608C291.5,-608 169.5,-608 169.5,-608 163.5,-608 157.5,-602 157.5,-596 157.5,-596 157.5,-584 157.5,-584 157.5,-578 163.5,-572 169.5,-572 169.5,-572 291.5,-572 291.5,-572 297.5,-572 303.5,-578 303.5,-584 303.5,-584 303.5,-596 303.5,-596 303.5,-602 297.5,-608 291.5,-608"/>
<text text-anchor="middle" x="230.5" y="-587.8" font-family="Vera Sans, DejaVu Sans, Liberation Sans, Arial, Helvetica, sans" font-size="9.00" fill="#000000">admm.ADMM.display_status</text>
</a>
</g>
</g>
<!-- admm.ADMM.solve&#45;&gt;admm.ADMM.display_status -->
<g id="edge6" class="edge">
<title>admm.ADMM.solve&#45;&gt;admm.ADMM.display_status</title>
<path fill="none" stroke="#8ed88c" stroke-width="2" d="M65.748,-446.21C76.635,-475.24 101.83,-531.88 142,-563 144.06,-564.59 146.2,-566.09 148.43,-567.5"/>
<polygon fill="#8ed88c" stroke="#8ed88c" stroke-width="2" points="146.9005,-570.6556 157.33,-572.52 150.3395,-564.5586 146.9005,-570.6556"/>
</g>
<!-- admm.ADMM.display_start -->
<g id="node19" class="node">
<title>admm.ADMM.display_start</title>
<g id="a_node19"><a xlink:href="../../sporco.admm.admm.html#sporco.admm.admm.ADMM.display_start" xlink:title="admm.ADMM.display_start" target="_top">
<path fill="#8ed88c" stroke="#000000" stroke-width=".25" d="M287.5,-284C287.5,-284 173.5,-284 173.5,-284 167.5,-284 161.5,-278 161.5,-272 161.5,-272 161.5,-260 161.5,-260 161.5,-254 167.5,-248 173.5,-248 173.5,-248 287.5,-248 287.5,-248 293.5,-248 299.5,-254 299.5,-260 299.5,-260 299.5,-272 299.5,-272 299.5,-278 293.5,-284 287.5,-284"/>
<text text-anchor="middle" x="230.5" y="-263.8" font-family="Vera Sans, DejaVu Sans, Liberation Sans, Arial, Helvetica, sans" font-size="9.00" fill="#000000">admm.ADMM.display_start</text>
</a>
</g>
</g>
<!-- admm.ADMM.solve&#45;&gt;admm.ADMM.display_start -->
<g id="edge7" class="edge">
<title>admm.ADMM.solve&#45;&gt;admm.ADMM.display_start</title>
<path fill="none" stroke="#8ed88c" stroke-width="2" d="M65.748,-409.79C76.635,-380.76 101.83,-324.12 142,-293 145.19,-290.52 148.62,-288.28 152.19,-286.23"/>
<polygon fill="#8ed88c" stroke="#8ed88c" stroke-width="2" points="154.0241,-289.2235 161.34,-281.56 150.8419,-282.9886 154.0241,-289.2235"/>
</g>
<!-- admm.ADMM.update_rho -->
<g id="node20" class="node">
<title>admm.ADMM.update_rho</title>
<g id="a_node20"><a xlink:href="../../sporco.admm.admm.html#sporco.admm.admm.ADMM.update_rho" xlink:title="admm.ADMM.update_rho" target="_top">
<path fill="#8ed88c" stroke="#000000" stroke-width=".25" d="M285,-338C285,-338 176,-338 176,-338 170,-338 164,-332 164,-326 164,-326 164,-314 164,-314 164,-308 170,-302 176,-302 176,-302 285,-302 285,-302 291,-302 297,-308 297,-314 297,-314 297,-326 297,-326 297,-332 291,-338 285,-338"/>
<text text-anchor="middle" x="230.5" y="-317.8" font-family="Vera Sans, DejaVu Sans, Liberation Sans, Arial, Helvetica, sans" font-size="9.00" fill="#000000">admm.ADMM.update_rho</text>
</a>
</g>
</g>
<!-- admm.ADMM.solve&#45;&gt;admm.ADMM.update_rho -->
<g id="edge8" class="edge">
<title>admm.ADMM.solve&#45;&gt;admm.ADMM.update_rho</title>
<path fill="none" stroke="#8ed88c" stroke-width="2" d="M73.394,-409.98C88.434,-391.64 114.05,-363.61 142,-347 145.91,-344.68 150.04,-342.53 154.29,-340.57"/>
<polygon fill="#8ed88c" stroke="#8ed88c" stroke-width="2" points="155.9418,-343.6703 163.76,-336.52 153.1893,-337.2342 155.9418,-343.6703"/>
</g>
<!-- admm.ADMM.display_end -->
<g id="node21" class="node">
<title>admm.ADMM.display_end</title>
<g id="a_node21"><a xlink:href="../../sporco.admm.admm.html#sporco.admm.admm.ADMM.display_end" xlink:title="admm.ADMM.display_end" target="_top">
<path fill="#8ed88c" stroke="#000000" stroke-width=".25" d="M285.5,-392C285.5,-392 175.5,-392 175.5,-392 169.5,-392 163.5,-386 163.5,-380 163.5,-380 163.5,-368 163.5,-368 163.5,-362 169.5,-356 175.5,-356 175.5,-356 285.5,-356 285.5,-356 291.5,-356 297.5,-362 297.5,-368 297.5,-368 297.5,-380 297.5,-380 297.5,-386 291.5,-392 285.5,-392"/>
<text text-anchor="middle" x="230.5" y="-371.8" font-family="Vera Sans, DejaVu Sans, Liberation Sans, Arial, Helvetica, sans" font-size="9.00" fill="#000000">admm.ADMM.display_end</text>
</a>
</g>
</g>
<!-- admm.ADMM.solve&#45;&gt;admm.ADMM.display_end -->
<g id="edge9" class="edge">
<title>admm.ADMM.solve&#45;&gt;admm.ADMM.display_end</title>
<path fill="none" stroke="#8ed88c" stroke-width="2" d="M111.38,-410.84C121.52,-407.54 132.09,-404.13 142,-401 148.03,-399.09 154.3,-397.13 160.59,-395.18"/>
<polygon fill="#8ed88c" stroke="#8ed88c" stroke-width="2" points="161.9415,-398.4262 170.47,-392.14 159.8829,-391.7357 161.9415,-398.4262"/>
</g>
<!-- cbpdn.ConvBPDNJoint.ystep -->
<g id="node22" class="node">
<title>cbpdn.ConvBPDNJoint.ystep</title>
<g id="a_node22"><a xlink:href="../../sporco.admm.cbpdn.html#sporco.admm.cbpdn.ConvBPDNJoint.ystep" xlink:title="cbpdn.ConvBPDNJoint.ystep" target="_top">
<path fill="#d88cc3" stroke="#000000" stroke-width=".25" d="M291.5,-872C291.5,-872 169.5,-872 169.5,-872 163.5,-872 157.5,-866 157.5,-860 157.5,-860 157.5,-848 157.5,-848 157.5,-842 163.5,-836 169.5,-836 169.5,-836 291.5,-836 291.5,-836 297.5,-836 303.5,-842 303.5,-848 303.5,-848 303.5,-860 303.5,-860 303.5,-866 297.5,-872 291.5,-872"/>
<text text-anchor="middle" x="230.5" y="-851.8" font-family="Vera Sans, DejaVu Sans, Liberation Sans, Arial, Helvetica, sans" font-size="9.00" fill="#000000">cbpdn.ConvBPDNJoint.ystep</text>
</a>
</g>
</g>
<!-- admm.ADMM.solve&#45;&gt;cbpdn.ConvBPDNJoint.ystep -->
<g id="edge13" class="edge">
<title>admm.ADMM.solve&#45;&gt;cbpdn.ConvBPDNJoint.ystep</title>
<path fill="none" stroke="#8ed88c" stroke-width="2" d="M60.937,-446.34C66.779,-516.42 90.908,-766.29 142,-824 144.2,-826.49 146.62,-828.77 149.21,-830.87"/>
<polygon fill="#8ed88c" stroke="#8ed88c" stroke-width="2" points="147.2082,-833.741 157.41,-836.6 151.2178,-828.0031 147.2082,-833.741"/>
</g>
<!-- admm.ADMM.iteration_stats&#45;&gt;cbpdn.GenericConvBPDN.eval_objfn -->
<g id="edge14" class="edge">
<title>admm.ADMM.iteration_stats&#45;&gt;cbpdn.GenericConvBPDN.eval_objfn</title>
<path fill="none" stroke="#8ed88c" stroke-width="2" d="M304.2,-549.64C310.83,-553.15 316.94,-557.53 322,-563 362.72,-607.03 309.09,-651.15 350,-695 350.79,-695.84 351.6,-696.66 352.43,-697.45"/>
<polygon fill="#8ed88c" stroke="#8ed88c" stroke-width="2" points="350.4928,-700.3834 360.48,-703.92 354.8781,-694.9272 350.4928,-700.3834"/>
</g>
<!-- admm.ADMM.iteration_stats&#45;&gt;cbpdn.GenericConvBPDN.itstat_extra -->
<g id="edge15" class="edge">
<title>admm.ADMM.iteration_stats&#45;&gt;cbpdn.GenericConvBPDN.itstat_extra</title>
<path fill="none" stroke="#8ed88c" stroke-width="2" d="M302.61,-554.1C309.32,-556.72 315.89,-559.68 322,-563 360.64,-584 397.96,-618.74 421.05,-642.46"/>
<polygon fill="#8ed88c" stroke="#8ed88c" stroke-width="2" points="418.5861,-644.9475 428.03,-649.75 423.6422,-640.1064 418.5861,-644.9475"/>
</g>
<!-- admm.ADMM.ustep&#45;&gt;admm.ADMMEqual.rsdl_r -->
<g id="edge16" class="edge">
<title>admm.ADMM.ustep&#45;&gt;admm.ADMMEqual.rsdl_r</title>
<path fill="none" stroke="#8ed88c" stroke-width="2" d="M283.72,-474.43C297.37,-470.43 311.23,-464.33 322,-455 396.81,-390.2 428.59,-270.21 439.6,-215.95"/>
<polygon fill="#8ed88c" stroke="#8ed88c" stroke-width="2" points="443.0618,-216.482 441.52,-206 436.1886,-215.1557 443.0618,-216.482"/>
</g>
<!-- admm.ADMM.compute_residuals&#45;&gt;admm.ADMMEqual.rsdl_s -->
<g id="edge17" class="edge">
<title>admm.ADMM.compute_residuals&#45;&gt;admm.ADMMEqual.rsdl_s</title>
<path fill="none" stroke="#8ed88c" stroke-width="2" d="M312.73,-409.83C316.13,-407.25 319.26,-404.32 322,-401 363.75,-350.36 308.04,-157.46 350,-107 355.22,-100.73 361.78,-95.86 369.01,-92.08"/>
<polygon fill="#8ed88c" stroke="#8ed88c" stroke-width="2" points="370.7536,-95.1347 378.46,-87.864 367.9016,-88.742 370.7536,-95.1347"/>
</g>
<!-- admm.ADMM.compute_residuals&#45;&gt;admm.ADMMEqual.rsdl_r -->
<g id="edge18" class="edge">
<title>admm.ADMM.compute_residuals&#45;&gt;admm.ADMMEqual.rsdl_r</title>
<path fill="none" stroke="#8ed88c" stroke-width="2" d="M308.06,-409.94C313,-407.35 317.71,-404.39 322,-401 384.43,-351.75 420.89,-261.29 436.1,-215.75"/>
<polygon fill="#8ed88c" stroke="#8ed88c" stroke-width="2" points="439.435,-216.812 439.19,-206.22 432.7763,-214.6529 439.435,-216.812"/>
</g>
<!-- admm.ADMM.compute_residuals&#45;&gt;admm.ADMMEqual.rsdl_rn -->
<g id="edge19" class="edge">
<title>admm.ADMM.compute_residuals&#45;&gt;admm.ADMMEqual.rsdl_rn</title>
<path fill="none" stroke="#8ed88c" stroke-width="2" d="M312.64,-409.75C316.07,-407.2 319.23,-404.29 322,-401 391.18,-318.86 280.46,-242.84 350,-161 354.6,-155.58 360.21,-151.21 366.37,-147.7"/>
<polygon fill="#8ed88c" stroke="#8ed88c" stroke-width="2" points="368.2932,-150.6564 375.75,-143.13 365.2272,-144.3635 368.2932,-150.6564"/>
</g>
<!-- admm.ADMM.compute_residuals&#45;&gt;admm.ADMMEqual.rsdl_sn -->
<g id="edge20" class="edge">
<title>admm.ADMM.compute_residuals&#45;&gt;admm.ADMMEqual.rsdl_sn</title>
<path fill="none" stroke="#8ed88c" stroke-width="2" d="M312.79,-409.87C316.18,-407.29 319.29,-404.34 322,-401 370.91,-340.77 300.83,-113.01 350,-53 354.5,-47.502 360.05,-43.078 366.17,-39.525"/>
<polygon fill="#8ed88c" stroke="#8ed88c" stroke-width="2" points="368.0764,-42.487 375.49,-34.918 364.9744,-36.2118 368.0764,-42.487"/>
</g>
<!-- cbpdn.ConvBPDNJoint.ystep&#45;&gt;cbpdn.GenericConvBPDN.ystep -->
<g id="edge22" class="edge">
<title>cbpdn.ConvBPDNJoint.ystep&#45;&gt;cbpdn.GenericConvBPDN.ystep</title>
<path fill="none" stroke="#d88cc3" stroke-width="2" d="M287.29,-835.93C298.82,-832.11 310.83,-828.02 322,-824 344.65,-815.86 369.4,-806.29 390.7,-797.84"/>
<polygon fill="#d88cc3" stroke="#d88cc3" stroke-width="2" points="392.2238,-801.0006 400.22,-794.05 389.6346,-794.497 392.2238,-801.0006"/>
</g>
<!-- cbpdn.ConvBPDNJoint.obfn_reg&#45;&gt;admm.ADMMEqual.obfn_gvar -->
<g id="edge23" class="edge">
<title>cbpdn.ConvBPDNJoint.obfn_reg&#45;&gt;admm.ADMMEqual.obfn_gvar</title>
<path fill="none" stroke="#d88cc3" stroke-width="2" d="M743.67,-838.82C746.49,-836.8 749.12,-834.54 751.5,-832 811.51,-768.11 770.42,-724.07 787,-638 817.75,-478.31 857.29,-287.33 872.07,-216.37"/>
<polygon fill="#d88cc3" stroke="#d88cc3" stroke-width="2" points="875.5318,-216.9143 874.15,-206.41 868.6796,-215.4833 875.5318,-216.9143"/>
</g>
</g>
</svg>
