<?xml version="1.0" encoding="UTF-8" standalone="no"?>
<!DOCTYPE svg PUBLIC "-//W3C//DTD SVG 1.1//EN"
 "http://www.w3.org/Graphics/SVG/1.1/DTD/svg11.dtd">
<!-- Generated by graphviz version 2.40.1 (20161225.0304)
 -->
<!-- Pages: 1 -->
<svg
 viewBox="0.00 0.00 975.00 396.00" xmlns="http://www.w3.org/2000/svg" xmlns:xlink="http://www.w3.org/1999/xlink">
<g id="graph0" class="graph" transform="scale(1 1) rotate(0) translate(4 392)">
<polygon fill="transparent" stroke="transparent" points="-4,4 -4,-392 971,-392 971,4 -4,4"/>
<g id="clust1" class="cluster">
<title>cluster_admm.ADMM</title>
<polygon fill="transparent" stroke="#8ed88c" stroke-width="2" stroke-dasharray="1,5" points="645,0 645,-232 967,-232 967,0 645,0"/>
<text text-anchor="middle" x="806" y="-220.8" font-family="Vera Sans, DejaVu Sans, Liberation Sans, Arial, Helvetica, sans" font-size="9.00" fill="#000000">admm.ADMM</text>
</g>
<g id="clust2" class="cluster">
<title>cluster_admm._ADMM_Meta</title>
<polygon fill="transparent" stroke="#8cc8d8" stroke-width="2" stroke-dasharray="1,5" points="0,-318 0,-388 161,-388 161,-318 0,-318"/>
<text text-anchor="middle" x="80.5" y="-376.8" font-family="Vera Sans, DejaVu Sans, Liberation Sans, Arial, Helvetica, sans" font-size="9.00" fill="#000000">admm._ADMM_Meta</text>
</g>
<g id="clust3" class="cluster">
<title>cluster_cbpdntv.ConvBPDNVectorTV</title>
<polygon fill="transparent" stroke="#d88c8c" stroke-width="2" stroke-dasharray="1,5" points="181,-318 181,-388 376,-388 376,-318 181,-318"/>
<text text-anchor="middle" x="278.5" y="-376.8" font-family="Vera Sans, DejaVu Sans, Liberation Sans, Arial, Helvetica, sans" font-size="9.00" fill="#000000">cbpdntv.ConvBPDNVectorTV</text>
</g>
<g id="clust4" class="cluster">
<title>cluster_cbpdntv.ConvBPDNScalarTV</title>
<polygon fill="transparent" stroke="#d88ca4" stroke-width="2" stroke-dasharray="1,5" points="396,-318 396,-388 806,-388 806,-318 396,-318"/>
<text text-anchor="middle" x="601" y="-376.8" font-family="Vera Sans, DejaVu Sans, Liberation Sans, Arial, Helvetica, sans" font-size="9.00" fill="#000000">cbpdntv.ConvBPDNScalarTV</text>
</g>
<g id="clust5" class="cluster">
<title>cluster_cbpdn.ConvRepIndexing</title>
<polygon fill="transparent" stroke="#af8cd8" stroke-width="2" stroke-dasharray="1,5" points="619,-240 619,-310 798,-310 798,-240 619,-240"/>
<text text-anchor="middle" x="708.5" y="-298.8" font-family="Vera Sans, DejaVu Sans, Liberation Sans, Arial, Helvetica, sans" font-size="9.00" fill="#000000">cbpdn.ConvRepIndexing</text>
</g>
<!-- admm.ADMM.__init__ -->
<g id="node1" class="node">
<title>admm.ADMM.__init__</title>
<g id="a_node1"><a xlink:href="../../sporco.admm.admm.html#sporco.admm.admm.ADMM.__init__" xlink:title="admm.ADMM.__init__" target="_top">
<path fill="#8ed88c" stroke="#000000" stroke-width=".25" d="M752,-152C752,-152 665,-152 665,-152 659,-152 653,-146 653,-140 653,-140 653,-128 653,-128 653,-122 659,-116 665,-116 665,-116 752,-116 752,-116 758,-116 764,-122 764,-128 764,-128 764,-140 764,-140 764,-146 758,-152 752,-152"/>
<text text-anchor="middle" x="708.5" y="-131.8" font-family="Vera Sans, DejaVu Sans, Liberation Sans, Arial, Helvetica, sans" font-size="9.00" fill="#000000">admm.ADMM.__init__</text>
</a>
</g>
</g>
<!-- admm.ADMM.uinit -->
<g id="node2" class="node">
<title>admm.ADMM.uinit</title>
<g id="a_node2"><a xlink:href="../../sporco.admm.admm.html#sporco.admm.admm.ADMM.uinit" xlink:title="admm.ADMM.uinit" target="_top">
<path fill="#8ed88c" stroke="#000000" stroke-width=".25" d="M934,-206C934,-206 859,-206 859,-206 853,-206 847,-200 847,-194 847,-194 847,-182 847,-182 847,-176 853,-170 859,-170 859,-170 934,-170 934,-170 940,-170 946,-176 946,-182 946,-182 946,-194 946,-194 946,-200 940,-206 934,-206"/>
<text text-anchor="middle" x="896.5" y="-185.8" font-family="Vera Sans, DejaVu Sans, Liberation Sans, Arial, Helvetica, sans" font-size="9.00" fill="#000000">admm.ADMM.uinit</text>
</a>
</g>
</g>
<!-- admm.ADMM.__init__&#45;&gt;admm.ADMM.uinit -->
<g id="edge1" class="edge">
<title>admm.ADMM.__init__&#45;&gt;admm.ADMM.uinit</title>
<path fill="none" stroke="#8ed88c" stroke-width="2" d="M764.14,-149.98C787.07,-156.57 813.67,-164.21 836.99,-170.91"/>
<polygon fill="#8ed88c" stroke="#8ed88c" stroke-width="2" points="836.1827,-174.3195 846.76,-173.71 838.1113,-167.5904 836.1827,-174.3195"/>
</g>
<!-- admm.ADMM.set_attr -->
<g id="node3" class="node">
<title>admm.ADMM.set_attr</title>
<g id="a_node3"><a xlink:href="../../sporco.admm.admm.html#sporco.admm.admm.ADMM.set_attr" xlink:title="admm.ADMM.set_attr" target="_top">
<path fill="#8ed88c" stroke="#000000" stroke-width=".25" d="M942.5,-44C942.5,-44 850.5,-44 850.5,-44 844.5,-44 838.5,-38 838.5,-32 838.5,-32 838.5,-20 838.5,-20 838.5,-14 844.5,-8 850.5,-8 850.5,-8 942.5,-8 942.5,-8 948.5,-8 954.5,-14 954.5,-20 954.5,-20 954.5,-32 954.5,-32 954.5,-38 948.5,-44 942.5,-44"/>
<text text-anchor="middle" x="896.5" y="-23.8" font-family="Vera Sans, DejaVu Sans, Liberation Sans, Arial, Helvetica, sans" font-size="9.00" fill="#000000">admm.ADMM.set_attr</text>
</a>
</g>
</g>
<!-- admm.ADMM.__init__&#45;&gt;admm.ADMM.set_attr -->
<g id="edge2" class="edge">
<title>admm.ADMM.__init__&#45;&gt;admm.ADMM.set_attr</title>
<path fill="none" stroke="#8ed88c" stroke-width="2" d="M736.62,-115.81C773.22,-92.14 832.73,-53.676 834,-53 836.87,-51.469 839.84,-49.955 842.86,-48.473"/>
<polygon fill="#8ed88c" stroke="#8ed88c" stroke-width="2" points="844.4816,-51.5777 852.02,-44.133 841.4844,-45.2518 844.4816,-51.5777"/>
</g>
<!-- admm.ADMM.yinit -->
<g id="node4" class="node">
<title>admm.ADMM.yinit</title>
<g id="a_node4"><a xlink:href="../../sporco.admm.admm.html#sporco.admm.admm.ADMM.yinit" xlink:title="admm.ADMM.yinit" target="_top">
<path fill="#8ed88c" stroke="#000000" stroke-width=".25" d="M933.5,-98C933.5,-98 859.5,-98 859.5,-98 853.5,-98 847.5,-92 847.5,-86 847.5,-86 847.5,-74 847.5,-74 847.5,-68 853.5,-62 859.5,-62 859.5,-62 933.5,-62 933.5,-62 939.5,-62 945.5,-68 945.5,-74 945.5,-74 945.5,-86 945.5,-86 945.5,-92 939.5,-98 933.5,-98"/>
<text text-anchor="middle" x="896.5" y="-77.8" font-family="Vera Sans, DejaVu Sans, Liberation Sans, Arial, Helvetica, sans" font-size="9.00" fill="#000000">admm.ADMM.yinit</text>
</a>
</g>
</g>
<!-- admm.ADMM.__init__&#45;&gt;admm.ADMM.yinit -->
<g id="edge3" class="edge">
<title>admm.ADMM.__init__&#45;&gt;admm.ADMM.yinit</title>
<path fill="none" stroke="#8ed88c" stroke-width="2" d="M764.14,-118.02C787.26,-111.38 814.11,-103.66 837.56,-96.93"/>
<polygon fill="#8ed88c" stroke="#8ed88c" stroke-width="2" points="838.7429,-100.2319 847.39,-94.11 836.8125,-93.5033 838.7429,-100.2319"/>
</g>
<!-- admm.ADMM.set_dtype -->
<g id="node5" class="node">
<title>admm.ADMM.set_dtype</title>
<g id="a_node5"><a xlink:href="../../sporco.admm.admm.html#sporco.admm.admm.ADMM.set_dtype" xlink:title="admm.ADMM.set_dtype" target="_top">
<path fill="#8ed88c" stroke="#000000" stroke-width=".25" d="M947,-152C947,-152 846,-152 846,-152 840,-152 834,-146 834,-140 834,-140 834,-128 834,-128 834,-122 840,-116 846,-116 846,-116 947,-116 947,-116 953,-116 959,-122 959,-128 959,-128 959,-140 959,-140 959,-146 953,-152 947,-152"/>
<text text-anchor="middle" x="896.5" y="-131.8" font-family="Vera Sans, DejaVu Sans, Liberation Sans, Arial, Helvetica, sans" font-size="9.00" fill="#000000">admm.ADMM.set_dtype</text>
</a>
</g>
</g>
<!-- admm.ADMM.__init__&#45;&gt;admm.ADMM.set_dtype -->
<g id="edge4" class="edge">
<title>admm.ADMM.__init__&#45;&gt;admm.ADMM.set_dtype</title>
<path fill="none" stroke="#8ed88c" stroke-width="2" d="M764.14,-134C782.77,-134 803.82,-134 823.56,-134"/>
<polygon fill="#8ed88c" stroke="#8ed88c" stroke-width="2" points="823.75,-137.5001 833.75,-134 823.75,-130.5001 823.75,-137.5001"/>
</g>
<!-- admm._ADMM_Meta.__call__ -->
<g id="node6" class="node">
<title>admm._ADMM_Meta.__call__</title>
<g id="a_node6"><a xlink:href="../../sporco.admm.admm.html#sporco.admm.admm._ADMM_Meta.__call__" xlink:title="admm._ADMM_Meta.__call__" target="_top">
<path fill="#8cc8d8" stroke="#000000" stroke-width=".25" d="M141,-362C141,-362 20,-362 20,-362 14,-362 8,-356 8,-350 8,-350 8,-338 8,-338 8,-332 14,-326 20,-326 20,-326 141,-326 141,-326 147,-326 153,-332 153,-338 153,-338 153,-350 153,-350 153,-356 147,-362 141,-362"/>
<text text-anchor="middle" x="80.5" y="-341.8" font-family="Vera Sans, DejaVu Sans, Liberation Sans, Arial, Helvetica, sans" font-size="9.00" fill="#000000">admm._ADMM_Meta.__call__</text>
</a>
</g>
</g>
<!-- cbpdntv.ConvBPDNVectorTV.__init__ -->
<g id="node7" class="node">
<title>cbpdntv.ConvBPDNVectorTV.__init__</title>
<g id="a_node7"><a xlink:href="../../sporco.admm.cbpdntv.html#sporco.admm.cbpdntv.ConvBPDNVectorTV.__init__" xlink:title="cbpdntv.ConvBPDNVectorTV.__init__" target="_top">
<path fill="#d88c8c" stroke="#000000" stroke-width=".25" d="M356,-362C356,-362 201,-362 201,-362 195,-362 189,-356 189,-350 189,-350 189,-338 189,-338 189,-332 195,-326 201,-326 201,-326 356,-326 356,-326 362,-326 368,-332 368,-338 368,-338 368,-350 368,-350 368,-356 362,-362 356,-362"/>
<text text-anchor="middle" x="278.5" y="-341.8" font-family="Vera Sans, DejaVu Sans, Liberation Sans, Arial, Helvetica, sans" font-size="9.00" fill="#000000">cbpdntv.ConvBPDNVectorTV.__init__</text>
</a>
</g>
</g>
<!-- admm._ADMM_Meta.__call__&#45;&gt;cbpdntv.ConvBPDNVectorTV.__init__ -->
<g id="edge10" class="edge">
<title>admm._ADMM_Meta.__call__&#45;&gt;cbpdntv.ConvBPDNVectorTV.__init__</title>
<path fill="none" stroke="#8cc8d8" stroke-width="2" d="M153.1,-344C161.43,-344 170.03,-344 178.64,-344"/>
<polygon fill="#8cc8d8" stroke="#8cc8d8" stroke-width="2" points="178.73,-347.5001 188.73,-344 178.73,-340.5001 178.73,-347.5001"/>
</g>
<!-- cbpdntv.ConvBPDNScalarTV.__init__ -->
<g id="node9" class="node">
<title>cbpdntv.ConvBPDNScalarTV.__init__</title>
<g id="a_node9"><a xlink:href="../../sporco.admm.cbpdntv.html#sporco.admm.cbpdntv.ConvBPDNScalarTV.__init__" xlink:title="cbpdntv.ConvBPDNScalarTV.__init__" target="_top">
<path fill="#d88ca4" stroke="#000000" stroke-width=".25" d="M571,-362C571,-362 416,-362 416,-362 410,-362 404,-356 404,-350 404,-350 404,-338 404,-338 404,-332 410,-326 416,-326 416,-326 571,-326 571,-326 577,-326 583,-332 583,-338 583,-338 583,-350 583,-350 583,-356 577,-362 571,-362"/>
<text text-anchor="middle" x="493.5" y="-341.8" font-family="Vera Sans, DejaVu Sans, Liberation Sans, Arial, Helvetica, sans" font-size="9.00" fill="#000000">cbpdntv.ConvBPDNScalarTV.__init__</text>
</a>
</g>
</g>
<!-- cbpdntv.ConvBPDNVectorTV.__init__&#45;&gt;cbpdntv.ConvBPDNScalarTV.__init__ -->
<g id="edge9" class="edge">
<title>cbpdntv.ConvBPDNVectorTV.__init__&#45;&gt;cbpdntv.ConvBPDNScalarTV.__init__</title>
<path fill="none" stroke="#d88c8c" stroke-width="2" d="M368.12,-344C376.48,-344 384.98,-344 393.42,-344"/>
<polygon fill="#d88c8c" stroke="#d88c8c" stroke-width="2" points="393.68,-347.5001 403.68,-344 393.68,-340.5001 393.68,-347.5001"/>
</g>
<!-- cbpdntv.ConvBPDNScalarTV.setdict -->
<g id="node8" class="node">
<title>cbpdntv.ConvBPDNScalarTV.setdict</title>
<g id="a_node8"><a xlink:href="../../sporco.admm.cbpdntv.html#sporco.admm.cbpdntv.ConvBPDNScalarTV.setdict" xlink:title="cbpdntv.ConvBPDNScalarTV.setdict" target="_top">
<path fill="#d88ca4" stroke="#000000" stroke-width=".25" d="M786,-362C786,-362 631,-362 631,-362 625,-362 619,-356 619,-350 619,-350 619,-338 619,-338 619,-332 625,-326 631,-326 631,-326 786,-326 786,-326 792,-326 798,-332 798,-338 798,-338 798,-350 798,-350 798,-356 792,-362 786,-362"/>
<text text-anchor="middle" x="708.5" y="-341.8" font-family="Vera Sans, DejaVu Sans, Liberation Sans, Arial, Helvetica, sans" font-size="9.00" fill="#000000">cbpdntv.ConvBPDNScalarTV.setdict</text>
</a>
</g>
</g>
<!-- cbpdntv.ConvBPDNScalarTV.__init__&#45;&gt;admm.ADMM.__init__ -->
<g id="edge7" class="edge">
<title>cbpdntv.ConvBPDNScalarTV.__init__&#45;&gt;admm.ADMM.__init__</title>
<path fill="none" stroke="#d88ca4" stroke-width="2" d="M512.2,-325.73C550.66,-288.17 638.66,-202.21 682.58,-159.32"/>
<polygon fill="#d88ca4" stroke="#d88ca4" stroke-width="2" points="685.2833,-161.572 689.99,-152.08 680.3913,-156.5651 685.2833,-161.572"/>
</g>
<!-- cbpdntv.ConvBPDNScalarTV.__init__&#45;&gt;admm.ADMM.set_attr -->
<g id="edge8" class="edge">
<title>cbpdntv.ConvBPDNScalarTV.__init__&#45;&gt;admm.ADMM.set_attr</title>
<path fill="none" stroke="#d88ca4" stroke-width="2" d="M497.9,-325.74C509.57,-281.31 545.56,-166.86 619,-107 678.94,-58.14 767.26,-38.753 828.08,-31.06"/>
<polygon fill="#d88ca4" stroke="#d88ca4" stroke-width="2" points="828.8332,-34.4952 838.35,-29.839 828.0067,-27.5441 828.8332,-34.4952"/>
</g>
<!-- cbpdntv.ConvBPDNScalarTV.__init__&#45;&gt;cbpdntv.ConvBPDNScalarTV.setdict -->
<g id="edge5" class="edge">
<title>cbpdntv.ConvBPDNScalarTV.__init__&#45;&gt;cbpdntv.ConvBPDNScalarTV.setdict</title>
<path fill="none" stroke="#d88ca4" stroke-width="2" d="M583.12,-344C591.48,-344 599.98,-344 608.42,-344"/>
<polygon fill="#d88ca4" stroke="#d88ca4" stroke-width="2" points="608.68,-347.5001 618.68,-344 608.68,-340.5001 608.68,-347.5001"/>
</g>
<!-- cbpdn.ConvRepIndexing.__init__ -->
<g id="node10" class="node">
<title>cbpdn.ConvRepIndexing.__init__</title>
<g id="a_node10"><a xlink:href="../../sporco.admm.cbpdn.html#sporco.admm.cbpdn.ConvRepIndexing.__init__" xlink:title="cbpdn.ConvRepIndexing.__init__" target="_top">
<path fill="#af8cd8" stroke="#000000" stroke-width=".25" d="M778,-284C778,-284 639,-284 639,-284 633,-284 627,-278 627,-272 627,-272 627,-260 627,-260 627,-254 633,-248 639,-248 639,-248 778,-248 778,-248 784,-248 790,-254 790,-260 790,-260 790,-272 790,-272 790,-278 784,-284 778,-284"/>
<text text-anchor="middle" x="708.5" y="-263.8" font-family="Vera Sans, DejaVu Sans, Liberation Sans, Arial, Helvetica, sans" font-size="9.00" fill="#000000">cbpdn.ConvRepIndexing.__init__</text>
</a>
</g>
</g>
<!-- cbpdntv.ConvBPDNScalarTV.__init__&#45;&gt;cbpdn.ConvRepIndexing.__init__ -->
<g id="edge6" class="edge">
<title>cbpdntv.ConvBPDNScalarTV.__init__&#45;&gt;cbpdn.ConvRepIndexing.__init__</title>
<path fill="none" stroke="#d88ca4" stroke-width="2" d="M543.37,-325.91C574.87,-314.48 615.74,-299.65 648.94,-287.61"/>
<polygon fill="#d88ca4" stroke="#d88ca4" stroke-width="2" points="650.3237,-290.8313 658.53,-284.13 647.9359,-284.2511 650.3237,-290.8313"/>
</g>
</g>
</svg>
