<?xml version="1.0" encoding="UTF-8" standalone="no"?>
<!DOCTYPE svg PUBLIC "-//W3C//DTD SVG 1.1//EN"
 "http://www.w3.org/Graphics/SVG/1.1/DTD/svg11.dtd">
<!-- Generated by graphviz version 2.40.1 (20161225.0304)
 -->
<!-- Pages: 1 -->
<svg
 viewBox="0.00 0.00 1249.00 882.00" xmlns="http://www.w3.org/2000/svg" xmlns:xlink="http://www.w3.org/1999/xlink">
<g id="graph0" class="graph" transform="scale(1 1) rotate(0) translate(4 878)">
<polygon fill="transparent" stroke="transparent" points="-4,4 -4,-878 1245,-878 1245,4 -4,4"/>
<g id="clust1" class="cluster">
<title>cluster_cbpdntv.ConvBPDNScalarTV</title>
<polygon fill="transparent" stroke="#af8cd8" stroke-width="2" stroke-dasharray="1,5" points="139.5,-78 139.5,-418 1241,-418 1241,-78 139.5,-78"/>
<text text-anchor="middle" x="690.25" y="-406.8" font-family="Vera Sans, DejaVu Sans, Liberation Sans, Arial, Helvetica, sans" font-size="9.00" fill="#000000">cbpdntv.ConvBPDNScalarTV</text>
</g>
<g id="clust2" class="cluster">
<title>cluster_cbpdntv.ConvBPDNVectorTV</title>
<polygon fill="transparent" stroke="#d88c8c" stroke-width="2" stroke-dasharray="1,5" points="139,0 139,-70 788,-70 788,0 139,0"/>
<text text-anchor="middle" x="463.5" y="-58.8" font-family="Vera Sans, DejaVu Sans, Liberation Sans, Arial, Helvetica, sans" font-size="9.00" fill="#000000">cbpdntv.ConvBPDNVectorTV</text>
</g>
<g id="clust3" class="cluster">
<title>cluster_admm.ADMM</title>
<polygon fill="transparent" stroke="#8ed88c" stroke-width="2" stroke-dasharray="1,5" points="0,-426 0,-874 520,-874 520,-426 0,-426"/>
<text text-anchor="middle" x="260" y="-862.8" font-family="Vera Sans, DejaVu Sans, Liberation Sans, Arial, Helvetica, sans" font-size="9.00" fill="#000000">admm.ADMM</text>
</g>
<!-- cbpdntv.ConvBPDNScalarTV.cnst_A1 -->
<g id="node1" class="node">
<title>cbpdntv.ConvBPDNScalarTV.cnst_A1</title>
<g id="a_node1"><a xlink:href="../../sporco.admm.cbpdntv.html#sporco.admm.cbpdntv.ConvBPDNScalarTV.cnst_A1" xlink:title="cbpdntv.ConvBPDNScalarTV.cnst_A1" target="_top">
<path fill="#af8cd8" stroke="#000000" stroke-width=".25" d="M1221,-257C1221,-257 1062,-257 1062,-257 1056,-257 1050,-251 1050,-245 1050,-245 1050,-233 1050,-233 1050,-227 1056,-221 1062,-221 1062,-221 1221,-221 1221,-221 1227,-221 1233,-227 1233,-233 1233,-233 1233,-245 1233,-245 1233,-251 1227,-257 1221,-257"/>
<text text-anchor="middle" x="1141.5" y="-236.8" font-family="Vera Sans, DejaVu Sans, Liberation Sans, Arial, Helvetica, sans" font-size="9.00" fill="#000000">cbpdntv.ConvBPDNScalarTV.cnst_A1</text>
</a>
</g>
</g>
<!-- cbpdntv.ConvBPDNScalarTV.obfn_g1var -->
<g id="node2" class="node">
<title>cbpdntv.ConvBPDNScalarTV.obfn_g1var</title>
<g id="a_node2"><a xlink:href="../../sporco.admm.cbpdntv.html#sporco.admm.cbpdntv.ConvBPDNScalarTV.obfn_g1var" xlink:title="cbpdntv.ConvBPDNScalarTV.obfn_g1var" target="_top">
<path fill="#af8cd8" stroke="#000000" stroke-width=".25" d="M1002,-176C1002,-176 828,-176 828,-176 822,-176 816,-170 816,-164 816,-164 816,-152 816,-152 816,-146 822,-140 828,-140 828,-140 1002,-140 1002,-140 1008,-140 1014,-146 1014,-152 1014,-152 1014,-164 1014,-164 1014,-170 1008,-176 1002,-176"/>
<text text-anchor="middle" x="915" y="-155.8" font-family="Vera Sans, DejaVu Sans, Liberation Sans, Arial, Helvetica, sans" font-size="9.00" fill="#000000">cbpdntv.ConvBPDNScalarTV.obfn_g1var</text>
</a>
</g>
</g>
<!-- cbpdntv.ConvBPDNScalarTV.obfn_g1var&#45;&gt;cbpdntv.ConvBPDNScalarTV.cnst_A1 -->
<g id="edge1" class="edge">
<title>cbpdntv.ConvBPDNScalarTV.obfn_g1var&#45;&gt;cbpdntv.ConvBPDNScalarTV.cnst_A1</title>
<path fill="none" stroke="#af8cd8" stroke-width="2" d="M985.66,-176.02C995.2,-178.83 1004.9,-181.85 1014,-185 1040.7,-194.23 1069.7,-206.34 1093.3,-216.76"/>
<polygon fill="#af8cd8" stroke="#af8cd8" stroke-width="2" points="1092.1413,-220.0754 1102.7,-220.95 1094.9913,-213.6818 1092.1413,-220.0754"/>
</g>
<!-- cbpdntv.ConvBPDNScalarTV.cnst_A -->
<g id="node3" class="node">
<title>cbpdntv.ConvBPDNScalarTV.cnst_A</title>
<g id="a_node3"><a xlink:href="../../sporco.admm.cbpdntv.html#sporco.admm.cbpdntv.ConvBPDNScalarTV.cnst_A" xlink:title="cbpdntv.ConvBPDNScalarTV.cnst_A" target="_top">
<path fill="#af8cd8" stroke="#000000" stroke-width=".25" d="M991.5,-284C991.5,-284 838.5,-284 838.5,-284 832.5,-284 826.5,-278 826.5,-272 826.5,-272 826.5,-260 826.5,-260 826.5,-254 832.5,-248 838.5,-248 838.5,-248 991.5,-248 991.5,-248 997.5,-248 1003.5,-254 1003.5,-260 1003.5,-260 1003.5,-272 1003.5,-272 1003.5,-278 997.5,-284 991.5,-284"/>
<text text-anchor="middle" x="915" y="-263.8" font-family="Vera Sans, DejaVu Sans, Liberation Sans, Arial, Helvetica, sans" font-size="9.00" fill="#000000">cbpdntv.ConvBPDNScalarTV.cnst_A</text>
</a>
</g>
</g>
<!-- cbpdntv.ConvBPDNScalarTV.cnst_A&#45;&gt;cbpdntv.ConvBPDNScalarTV.cnst_A1 -->
<g id="edge2" class="edge">
<title>cbpdntv.ConvBPDNScalarTV.cnst_A&#45;&gt;cbpdntv.ConvBPDNScalarTV.cnst_A1</title>
<path fill="none" stroke="#af8cd8" stroke-width="2" d="M1003.5,-255.45C1015.4,-254.04 1027.6,-252.58 1039.6,-251.15"/>
<polygon fill="#af8cd8" stroke="#af8cd8" stroke-width="2" points="1040.1828,-254.6055 1049.7,-249.95 1039.3569,-247.6544 1040.1828,-254.6055"/>
</g>
<!-- cbpdntv.ConvBPDNScalarTV.cnst_A0 -->
<g id="node4" class="node">
<title>cbpdntv.ConvBPDNScalarTV.cnst_A0</title>
<g id="a_node4"><a xlink:href="../../sporco.admm.cbpdntv.html#sporco.admm.cbpdntv.ConvBPDNScalarTV.cnst_A0" xlink:title="cbpdntv.ConvBPDNScalarTV.cnst_A0" target="_top">
<path fill="#af8cd8" stroke="#000000" stroke-width=".25" d="M1221,-176C1221,-176 1062,-176 1062,-176 1056,-176 1050,-170 1050,-164 1050,-164 1050,-152 1050,-152 1050,-146 1056,-140 1062,-140 1062,-140 1221,-140 1221,-140 1227,-140 1233,-146 1233,-152 1233,-152 1233,-164 1233,-164 1233,-170 1227,-176 1221,-176"/>
<text text-anchor="middle" x="1141.5" y="-155.8" font-family="Vera Sans, DejaVu Sans, Liberation Sans, Arial, Helvetica, sans" font-size="9.00" fill="#000000">cbpdntv.ConvBPDNScalarTV.cnst_A0</text>
</a>
</g>
</g>
<!-- cbpdntv.ConvBPDNScalarTV.cnst_A&#45;&gt;cbpdntv.ConvBPDNScalarTV.cnst_A0 -->
<g id="edge3" class="edge">
<title>cbpdntv.ConvBPDNScalarTV.cnst_A&#45;&gt;cbpdntv.ConvBPDNScalarTV.cnst_A0</title>
<path fill="none" stroke="#af8cd8" stroke-width="2" d="M992.5,-247.93C999.9,-245.29 1007.2,-242.33 1014,-239 1032,-230.21 1033.4,-223.1 1050,-212 1065.9,-201.39 1083.9,-190.52 1099.8,-181.34"/>
<polygon fill="#af8cd8" stroke="#af8cd8" stroke-width="2" points="1101.8923,-184.1734 1108.8,-176.14 1098.3903,-178.1123 1101.8923,-184.1734"/>
</g>
<!-- cbpdntv.ConvBPDNScalarTV.cnst_AT -->
<g id="node5" class="node">
<title>cbpdntv.ConvBPDNScalarTV.cnst_AT</title>
<g id="a_node5"><a xlink:href="../../sporco.admm.cbpdntv.html#sporco.admm.cbpdntv.ConvBPDNScalarTV.cnst_AT" xlink:title="cbpdntv.ConvBPDNScalarTV.cnst_AT" target="_top">
<path fill="#af8cd8" stroke="#000000" stroke-width=".25" d="M765,-392C765,-392 607,-392 607,-392 601,-392 595,-386 595,-380 595,-380 595,-368 595,-368 595,-362 601,-356 607,-356 607,-356 765,-356 765,-356 771,-356 777,-362 777,-368 777,-368 777,-380 777,-380 777,-386 771,-392 765,-392"/>
<text text-anchor="middle" x="686" y="-371.8" font-family="Vera Sans, DejaVu Sans, Liberation Sans, Arial, Helvetica, sans" font-size="9.00" fill="#000000">cbpdntv.ConvBPDNScalarTV.cnst_AT</text>
</a>
</g>
</g>
<!-- cbpdntv.ConvBPDNScalarTV.cnst_A1T -->
<g id="node6" class="node">
<title>cbpdntv.ConvBPDNScalarTV.cnst_A1T</title>
<g id="a_node6"><a xlink:href="../../sporco.admm.cbpdntv.html#sporco.admm.cbpdntv.ConvBPDNScalarTV.cnst_A1T" xlink:title="cbpdntv.ConvBPDNScalarTV.cnst_A1T" target="_top">
<path fill="#af8cd8" stroke="#000000" stroke-width=".25" d="M997,-338C997,-338 833,-338 833,-338 827,-338 821,-332 821,-326 821,-326 821,-314 821,-314 821,-308 827,-302 833,-302 833,-302 997,-302 997,-302 1003,-302 1009,-308 1009,-314 1009,-314 1009,-326 1009,-326 1009,-332 1003,-338 997,-338"/>
<text text-anchor="middle" x="915" y="-317.8" font-family="Vera Sans, DejaVu Sans, Liberation Sans, Arial, Helvetica, sans" font-size="9.00" fill="#000000">cbpdntv.ConvBPDNScalarTV.cnst_A1T</text>
</a>
</g>
</g>
<!-- cbpdntv.ConvBPDNScalarTV.cnst_AT&#45;&gt;cbpdntv.ConvBPDNScalarTV.cnst_A1T -->
<g id="edge4" class="edge">
<title>cbpdntv.ConvBPDNScalarTV.cnst_AT&#45;&gt;cbpdntv.ConvBPDNScalarTV.cnst_A1T</title>
<path fill="none" stroke="#af8cd8" stroke-width="2" d="M762.57,-355.94C783.77,-350.95 806.92,-345.49 828.64,-340.37"/>
<polygon fill="#af8cd8" stroke="#af8cd8" stroke-width="2" points="829.573,-343.746 838.5,-338.04 827.9631,-336.9336 829.573,-343.746"/>
</g>
<!-- cbpdntv.ConvBPDNScalarTV.cnst_A0T -->
<g id="node7" class="node">
<title>cbpdntv.ConvBPDNScalarTV.cnst_A0T</title>
<g id="a_node7"><a xlink:href="../../sporco.admm.cbpdntv.html#sporco.admm.cbpdntv.ConvBPDNScalarTV.cnst_A0T" xlink:title="cbpdntv.ConvBPDNScalarTV.cnst_A0T" target="_top">
<path fill="#af8cd8" stroke="#000000" stroke-width=".25" d="M997,-392C997,-392 833,-392 833,-392 827,-392 821,-386 821,-380 821,-380 821,-368 821,-368 821,-362 827,-356 833,-356 833,-356 997,-356 997,-356 1003,-356 1009,-362 1009,-368 1009,-368 1009,-380 1009,-380 1009,-386 1003,-392 997,-392"/>
<text text-anchor="middle" x="915" y="-371.8" font-family="Vera Sans, DejaVu Sans, Liberation Sans, Arial, Helvetica, sans" font-size="9.00" fill="#000000">cbpdntv.ConvBPDNScalarTV.cnst_A0T</text>
</a>
</g>
</g>
<!-- cbpdntv.ConvBPDNScalarTV.cnst_AT&#45;&gt;cbpdntv.ConvBPDNScalarTV.cnst_A0T -->
<g id="edge5" class="edge">
<title>cbpdntv.ConvBPDNScalarTV.cnst_AT&#45;&gt;cbpdntv.ConvBPDNScalarTV.cnst_A0T</title>
<path fill="none" stroke="#af8cd8" stroke-width="2" d="M777.16,-374C788.15,-374 799.43,-374 810.58,-374"/>
<polygon fill="#af8cd8" stroke="#af8cd8" stroke-width="2" points="810.77,-377.5001 820.77,-374 810.77,-370.5001 810.77,-377.5001"/>
</g>
<!-- cbpdntv.ConvBPDNScalarTV.xstep -->
<g id="node8" class="node">
<title>cbpdntv.ConvBPDNScalarTV.xstep</title>
<g id="a_node8"><a xlink:href="../../sporco.admm.cbpdntv.html#sporco.admm.cbpdntv.ConvBPDNScalarTV.xstep" xlink:title="cbpdntv.ConvBPDNScalarTV.xstep" target="_top">
<path fill="#af8cd8" stroke="#000000" stroke-width=".25" d="M307.5,-392C307.5,-392 159.5,-392 159.5,-392 153.5,-392 147.5,-386 147.5,-380 147.5,-380 147.5,-368 147.5,-368 147.5,-362 153.5,-356 159.5,-356 159.5,-356 307.5,-356 307.5,-356 313.5,-356 319.5,-362 319.5,-368 319.5,-368 319.5,-380 319.5,-380 319.5,-386 313.5,-392 307.5,-392"/>
<text text-anchor="middle" x="233.5" y="-371.8" font-family="Vera Sans, DejaVu Sans, Liberation Sans, Arial, Helvetica, sans" font-size="9.00" fill="#000000">cbpdntv.ConvBPDNScalarTV.xstep</text>
</a>
</g>
</g>
<!-- cbpdntv.ConvBPDNScalarTV.relax_AX -->
<g id="node9" class="node">
<title>cbpdntv.ConvBPDNScalarTV.relax_AX</title>
<g id="a_node9"><a xlink:href="../../sporco.admm.cbpdntv.html#sporco.admm.cbpdntv.ConvBPDNScalarTV.relax_AX" xlink:title="cbpdntv.ConvBPDNScalarTV.relax_AX" target="_top">
<path fill="#af8cd8" stroke="#000000" stroke-width=".25" d="M536.5,-311C536.5,-311 375.5,-311 375.5,-311 369.5,-311 363.5,-305 363.5,-299 363.5,-299 363.5,-287 363.5,-287 363.5,-281 369.5,-275 375.5,-275 375.5,-275 536.5,-275 536.5,-275 542.5,-275 548.5,-281 548.5,-287 548.5,-287 548.5,-299 548.5,-299 548.5,-305 542.5,-311 536.5,-311"/>
<text text-anchor="middle" x="456" y="-290.8" font-family="Vera Sans, DejaVu Sans, Liberation Sans, Arial, Helvetica, sans" font-size="9.00" fill="#000000">cbpdntv.ConvBPDNScalarTV.relax_AX</text>
</a>
</g>
</g>
<!-- cbpdntv.ConvBPDNScalarTV.relax_AX&#45;&gt;cbpdntv.ConvBPDNScalarTV.cnst_A -->
<g id="edge6" class="edge">
<title>cbpdntv.ConvBPDNScalarTV.relax_AX&#45;&gt;cbpdntv.ConvBPDNScalarTV.cnst_A</title>
<path fill="none" stroke="#af8cd8" stroke-width="2" d="M547.45,-274.97C550.37,-273.74 553.23,-272.41 556,-271 575.07,-261.27 571.99,-246.61 592,-239 673.42,-208.04 701.37,-229.89 788,-239 802.57,-240.53 817.93,-243.03 832.74,-245.9"/>
<polygon fill="#af8cd8" stroke="#af8cd8" stroke-width="2" points="832.3964,-249.4009 842.89,-247.94 833.7757,-242.5381 832.3964,-249.4009"/>
</g>
<!-- cbpdntv.ConvBPDNScalarTV.cnst_c -->
<g id="node10" class="node">
<title>cbpdntv.ConvBPDNScalarTV.cnst_c</title>
<g id="a_node10"><a xlink:href="../../sporco.admm.cbpdntv.html#sporco.admm.cbpdntv.ConvBPDNScalarTV.cnst_c" xlink:title="cbpdntv.ConvBPDNScalarTV.cnst_c" target="_top">
<path fill="#af8cd8" stroke="#000000" stroke-width=".25" d="M762,-284C762,-284 610,-284 610,-284 604,-284 598,-278 598,-272 598,-272 598,-260 598,-260 598,-254 604,-248 610,-248 610,-248 762,-248 762,-248 768,-248 774,-254 774,-260 774,-260 774,-272 774,-272 774,-278 768,-284 762,-284"/>
<text text-anchor="middle" x="686" y="-263.8" font-family="Vera Sans, DejaVu Sans, Liberation Sans, Arial, Helvetica, sans" font-size="9.00" fill="#000000">cbpdntv.ConvBPDNScalarTV.cnst_c</text>
</a>
</g>
</g>
<!-- cbpdntv.ConvBPDNScalarTV.relax_AX&#45;&gt;cbpdntv.ConvBPDNScalarTV.cnst_c -->
<g id="edge7" class="edge">
<title>cbpdntv.ConvBPDNScalarTV.relax_AX&#45;&gt;cbpdntv.ConvBPDNScalarTV.cnst_c</title>
<path fill="none" stroke="#af8cd8" stroke-width="2" d="M548.56,-282.13C561.36,-280.63 574.55,-279.08 587.46,-277.57"/>
<polygon fill="#af8cd8" stroke="#af8cd8" stroke-width="2" points="588.2177,-281.0051 597.74,-276.36 587.3994,-274.0531 588.2177,-281.0051"/>
</g>
<!-- cbpdntv.ConvBPDNScalarTV.cnst_B -->
<g id="node11" class="node">
<title>cbpdntv.ConvBPDNScalarTV.cnst_B</title>
<g id="a_node11"><a xlink:href="../../sporco.admm.cbpdntv.html#sporco.admm.cbpdntv.ConvBPDNScalarTV.cnst_B" xlink:title="cbpdntv.ConvBPDNScalarTV.cnst_B" target="_top">
<path fill="#af8cd8" stroke="#000000" stroke-width=".25" d="M762.5,-338C762.5,-338 609.5,-338 609.5,-338 603.5,-338 597.5,-332 597.5,-326 597.5,-326 597.5,-314 597.5,-314 597.5,-308 603.5,-302 609.5,-302 609.5,-302 762.5,-302 762.5,-302 768.5,-302 774.5,-308 774.5,-314 774.5,-314 774.5,-326 774.5,-326 774.5,-332 768.5,-338 762.5,-338"/>
<text text-anchor="middle" x="686" y="-317.8" font-family="Vera Sans, DejaVu Sans, Liberation Sans, Arial, Helvetica, sans" font-size="9.00" fill="#000000">cbpdntv.ConvBPDNScalarTV.cnst_B</text>
</a>
</g>
</g>
<!-- cbpdntv.ConvBPDNScalarTV.relax_AX&#45;&gt;cbpdntv.ConvBPDNScalarTV.cnst_B -->
<g id="edge8" class="edge">
<title>cbpdntv.ConvBPDNScalarTV.relax_AX&#45;&gt;cbpdntv.ConvBPDNScalarTV.cnst_B</title>
<path fill="none" stroke="#af8cd8" stroke-width="2" d="M548.56,-303.87C561.26,-305.36 574.35,-306.89 587.16,-308.4"/>
<polygon fill="#af8cd8" stroke="#af8cd8" stroke-width="2" points="587.0298,-311.9087 597.37,-309.6 587.8469,-304.9566 587.0298,-311.9087"/>
</g>
<!-- cbpdntv.ConvBPDNScalarTV.eval_objfn -->
<g id="node12" class="node">
<title>cbpdntv.ConvBPDNScalarTV.eval_objfn</title>
<g id="a_node12"><a xlink:href="../../sporco.admm.cbpdntv.html#sporco.admm.cbpdntv.ConvBPDNScalarTV.eval_objfn" xlink:title="cbpdntv.ConvBPDNScalarTV.eval_objfn" target="_top">
<path fill="#af8cd8" stroke="#000000" stroke-width=".25" d="M540.5,-210C540.5,-210 371.5,-210 371.5,-210 365.5,-210 359.5,-204 359.5,-198 359.5,-198 359.5,-186 359.5,-186 359.5,-180 365.5,-174 371.5,-174 371.5,-174 540.5,-174 540.5,-174 546.5,-174 552.5,-180 552.5,-186 552.5,-186 552.5,-198 552.5,-198 552.5,-204 546.5,-210 540.5,-210"/>
<text text-anchor="middle" x="456" y="-189.8" font-family="Vera Sans, DejaVu Sans, Liberation Sans, Arial, Helvetica, sans" font-size="9.00" fill="#000000">cbpdntv.ConvBPDNScalarTV.eval_objfn</text>
</a>
</g>
</g>
<!-- cbpdntv.ConvBPDNScalarTV.obfn_dfd -->
<g id="node13" class="node">
<title>cbpdntv.ConvBPDNScalarTV.obfn_dfd</title>
<g id="a_node13"><a xlink:href="../../sporco.admm.cbpdntv.html#sporco.admm.cbpdntv.ConvBPDNScalarTV.obfn_dfd" xlink:title="cbpdntv.ConvBPDNScalarTV.obfn_dfd" target="_top">
<path fill="#af8cd8" stroke="#000000" stroke-width=".25" d="M767.5,-210C767.5,-210 604.5,-210 604.5,-210 598.5,-210 592.5,-204 592.5,-198 592.5,-198 592.5,-186 592.5,-186 592.5,-180 598.5,-174 604.5,-174 604.5,-174 767.5,-174 767.5,-174 773.5,-174 779.5,-180 779.5,-186 779.5,-186 779.5,-198 779.5,-198 779.5,-204 773.5,-210 767.5,-210"/>
<text text-anchor="middle" x="686" y="-189.8" font-family="Vera Sans, DejaVu Sans, Liberation Sans, Arial, Helvetica, sans" font-size="9.00" fill="#000000">cbpdntv.ConvBPDNScalarTV.obfn_dfd</text>
</a>
</g>
</g>
<!-- cbpdntv.ConvBPDNScalarTV.eval_objfn&#45;&gt;cbpdntv.ConvBPDNScalarTV.obfn_dfd -->
<g id="edge9" class="edge">
<title>cbpdntv.ConvBPDNScalarTV.eval_objfn&#45;&gt;cbpdntv.ConvBPDNScalarTV.obfn_dfd</title>
<path fill="none" stroke="#af8cd8" stroke-width="2" d="M552.54,-192C562.3,-192 572.25,-192 582.08,-192"/>
<polygon fill="#af8cd8" stroke="#af8cd8" stroke-width="2" points="582.28,-195.5001 592.28,-192 582.28,-188.5001 582.28,-195.5001"/>
</g>
<!-- cbpdntv.ConvBPDNVectorTV.obfn_reg -->
<g id="node17" class="node">
<title>cbpdntv.ConvBPDNVectorTV.obfn_reg</title>
<g id="a_node17"><a xlink:href="../../sporco.admm.cbpdntv.html#sporco.admm.cbpdntv.ConvBPDNVectorTV.obfn_reg" xlink:title="cbpdntv.ConvBPDNVectorTV.obfn_reg" target="_top">
<path fill="#d88c8c" stroke="#000000" stroke-width=".25" d="M768,-44C768,-44 604,-44 604,-44 598,-44 592,-38 592,-32 592,-32 592,-20 592,-20 592,-14 598,-8 604,-8 604,-8 768,-8 768,-8 774,-8 780,-14 780,-20 780,-20 780,-32 780,-32 780,-38 774,-44 768,-44"/>
<text text-anchor="middle" x="686" y="-23.8" font-family="Vera Sans, DejaVu Sans, Liberation Sans, Arial, Helvetica, sans" font-size="9.00" fill="#000000">cbpdntv.ConvBPDNVectorTV.obfn_reg</text>
</a>
</g>
</g>
<!-- cbpdntv.ConvBPDNScalarTV.eval_objfn&#45;&gt;cbpdntv.ConvBPDNVectorTV.obfn_reg -->
<g id="edge38" class="edge">
<title>cbpdntv.ConvBPDNScalarTV.eval_objfn&#45;&gt;cbpdntv.ConvBPDNVectorTV.obfn_reg</title>
<path fill="none" stroke="#af8cd8" stroke-width="2" d="M550.97,-173.95C552.71,-172.71 554.39,-171.4 556,-170 590.43,-140.15 561.66,-107.99 592,-74 601.04,-63.869 612.73,-55.581 624.77,-48.918"/>
<polygon fill="#af8cd8" stroke="#af8cd8" stroke-width="2" points="626.7376,-51.8407 634.01,-44.136 623.5202,-45.6239 626.7376,-51.8407"/>
</g>
<!-- cbpdntv.ConvBPDNScalarTV.obfn_fvarf -->
<g id="node14" class="node">
<title>cbpdntv.ConvBPDNScalarTV.obfn_fvarf</title>
<g id="a_node14"><a xlink:href="../../sporco.admm.cbpdntv.html#sporco.admm.cbpdntv.ConvBPDNScalarTV.obfn_fvarf" xlink:title="cbpdntv.ConvBPDNScalarTV.obfn_fvarf" target="_top">
<path fill="#af8cd8" stroke="#000000" stroke-width=".25" d="M999,-230C999,-230 831,-230 831,-230 825,-230 819,-224 819,-218 819,-218 819,-206 819,-206 819,-200 825,-194 831,-194 831,-194 999,-194 999,-194 1005,-194 1011,-200 1011,-206 1011,-206 1011,-218 1011,-218 1011,-224 1005,-230 999,-230"/>
<text text-anchor="middle" x="915" y="-209.8" font-family="Vera Sans, DejaVu Sans, Liberation Sans, Arial, Helvetica, sans" font-size="9.00" fill="#000000">cbpdntv.ConvBPDNScalarTV.obfn_fvarf</text>
</a>
</g>
</g>
<!-- cbpdntv.ConvBPDNScalarTV.obfn_dfd&#45;&gt;cbpdntv.ConvBPDNScalarTV.obfn_fvarf -->
<g id="edge10" class="edge">
<title>cbpdntv.ConvBPDNScalarTV.obfn_dfd&#45;&gt;cbpdntv.ConvBPDNScalarTV.obfn_fvarf</title>
<path fill="none" stroke="#af8cd8" stroke-width="2" d="M779.8,-200.19C789.34,-201.03 799.07,-201.88 808.72,-202.72"/>
<polygon fill="#af8cd8" stroke="#af8cd8" stroke-width="2" points="808.4747,-206.2118 818.74,-203.59 809.0803,-199.238 808.4747,-206.2118"/>
</g>
<!-- cbpdntv.ConvBPDNScalarTV.itstat_extra -->
<g id="node15" class="node">
<title>cbpdntv.ConvBPDNScalarTV.itstat_extra</title>
<g id="a_node15"><a xlink:href="../../sporco.admm.cbpdntv.html#sporco.admm.cbpdntv.ConvBPDNScalarTV.itstat_extra" xlink:title="cbpdntv.ConvBPDNScalarTV.itstat_extra" target="_top">
<path fill="#af8cd8" stroke="#000000" stroke-width=".25" d="M544,-392C544,-392 368,-392 368,-392 362,-392 356,-386 356,-380 356,-380 356,-368 356,-368 356,-362 362,-356 368,-356 368,-356 544,-356 544,-356 550,-356 556,-362 556,-368 556,-368 556,-380 556,-380 556,-386 550,-392 544,-392"/>
<text text-anchor="middle" x="456" y="-371.8" font-family="Vera Sans, DejaVu Sans, Liberation Sans, Arial, Helvetica, sans" font-size="9.00" fill="#000000">cbpdntv.ConvBPDNScalarTV.itstat_extra</text>
</a>
</g>
</g>
<!-- cbpdntv.ConvBPDNScalarTV.obfn_g0var -->
<g id="node16" class="node">
<title>cbpdntv.ConvBPDNScalarTV.obfn_g0var</title>
<g id="a_node16"><a xlink:href="../../sporco.admm.cbpdntv.html#sporco.admm.cbpdntv.ConvBPDNScalarTV.obfn_g0var" xlink:title="cbpdntv.ConvBPDNScalarTV.obfn_g0var" target="_top">
<path fill="#af8cd8" stroke="#000000" stroke-width=".25" d="M1002,-122C1002,-122 828,-122 828,-122 822,-122 816,-116 816,-110 816,-110 816,-98 816,-98 816,-92 822,-86 828,-86 828,-86 1002,-86 1002,-86 1008,-86 1014,-92 1014,-98 1014,-98 1014,-110 1014,-110 1014,-116 1008,-122 1002,-122"/>
<text text-anchor="middle" x="915" y="-101.8" font-family="Vera Sans, DejaVu Sans, Liberation Sans, Arial, Helvetica, sans" font-size="9.00" fill="#000000">cbpdntv.ConvBPDNScalarTV.obfn_g0var</text>
</a>
</g>
</g>
<!-- cbpdntv.ConvBPDNScalarTV.obfn_g0var&#45;&gt;cbpdntv.ConvBPDNScalarTV.cnst_A0 -->
<g id="edge11" class="edge">
<title>cbpdntv.ConvBPDNScalarTV.obfn_g0var&#45;&gt;cbpdntv.ConvBPDNScalarTV.cnst_A0</title>
<path fill="none" stroke="#af8cd8" stroke-width="2" d="M990.74,-122.06C1011.7,-127.05 1034.6,-132.51 1056.1,-137.63"/>
<polygon fill="#af8cd8" stroke="#af8cd8" stroke-width="2" points="1055.2591,-141.0275 1065.8,-139.96 1056.8941,-134.2211 1055.2591,-141.0275"/>
</g>
<!-- cbpdntv.ConvBPDNVectorTV.obfn_reg&#45;&gt;cbpdntv.ConvBPDNScalarTV.obfn_g1var -->
<g id="edge25" class="edge">
<title>cbpdntv.ConvBPDNVectorTV.obfn_reg&#45;&gt;cbpdntv.ConvBPDNScalarTV.obfn_g1var</title>
<path fill="none" stroke="#d88c8c" stroke-width="2" d="M741.61,-44.077C758.01,-51.414 775.02,-61.238 788,-74 808.12,-93.79 794.24,-113.03 816,-131 817.55,-132.28 819.15,-133.49 820.79,-134.65"/>
<polygon fill="#d88c8c" stroke="#d88c8c" stroke-width="2" points="819.0551,-137.6923 829.4,-139.98 822.7396,-131.7405 819.0551,-137.6923"/>
</g>
<!-- cbpdntv.ConvBPDNVectorTV.obfn_reg&#45;&gt;cbpdntv.ConvBPDNScalarTV.obfn_g0var -->
<g id="edge26" class="edge">
<title>cbpdntv.ConvBPDNVectorTV.obfn_reg&#45;&gt;cbpdntv.ConvBPDNScalarTV.obfn_g0var</title>
<path fill="none" stroke="#d88c8c" stroke-width="2" d="M739.11,-44.091C772.81,-55.568 816.57,-70.475 852.02,-82.548"/>
<polygon fill="#d88c8c" stroke="#d88c8c" stroke-width="2" points="851.1855,-85.9612 861.78,-85.872 853.4423,-79.3349 851.1855,-85.9612"/>
</g>
<!-- cbpdntv.ConvBPDNVectorTV.ystep -->
<g id="node18" class="node">
<title>cbpdntv.ConvBPDNVectorTV.ystep</title>
<g id="a_node18"><a xlink:href="../../sporco.admm.cbpdntv.html#sporco.admm.cbpdntv.ConvBPDNVectorTV.ystep" xlink:title="cbpdntv.ConvBPDNVectorTV.ystep" target="_top">
<path fill="#d88c8c" stroke="#000000" stroke-width=".25" d="M308,-44C308,-44 159,-44 159,-44 153,-44 147,-38 147,-32 147,-32 147,-20 147,-20 147,-14 153,-8 159,-8 159,-8 308,-8 308,-8 314,-8 320,-14 320,-20 320,-20 320,-32 320,-32 320,-38 314,-44 308,-44"/>
<text text-anchor="middle" x="233.5" y="-23.8" font-family="Vera Sans, DejaVu Sans, Liberation Sans, Arial, Helvetica, sans" font-size="9.00" fill="#000000">cbpdntv.ConvBPDNVectorTV.ystep</text>
</a>
</g>
</g>
<!-- admm.ADMM.iteration_stats -->
<g id="node19" class="node">
<title>admm.ADMM.iteration_stats</title>
<g id="a_node19"><a xlink:href="../../sporco.admm.admm.html#sporco.admm.admm.ADMM.iteration_stats" xlink:title="admm.ADMM.iteration_stats" target="_top">
<path fill="#8ed88c" stroke="#000000" stroke-width=".25" d="M295,-578C295,-578 172,-578 172,-578 166,-578 160,-572 160,-566 160,-566 160,-554 160,-554 160,-548 166,-542 172,-542 172,-542 295,-542 295,-542 301,-542 307,-548 307,-554 307,-554 307,-566 307,-566 307,-572 301,-578 295,-578"/>
<text text-anchor="middle" x="233.5" y="-557.8" font-family="Vera Sans, DejaVu Sans, Liberation Sans, Arial, Helvetica, sans" font-size="9.00" fill="#000000">admm.ADMM.iteration_stats</text>
</a>
</g>
</g>
<!-- admm.ADMM.iteration_stats&#45;&gt;cbpdntv.ConvBPDNScalarTV.eval_objfn -->
<g id="edge27" class="edge">
<title>admm.ADMM.iteration_stats&#45;&gt;cbpdntv.ConvBPDNScalarTV.eval_objfn</title>
<path fill="none" stroke="#8ed88c" stroke-width="2" d="M307.38,-543.55C312.05,-540.59 316.33,-537.1 320,-533 376.13,-470.24 324.61,-425.13 356,-347 375.67,-298.05 411.43,-247.91 434.43,-218.39"/>
<polygon fill="#8ed88c" stroke="#8ed88c" stroke-width="2" points="437.391,-220.2878 440.84,-210.27 431.8967,-215.9504 437.391,-220.2878"/>
</g>
<!-- admm.ADMM.iteration_stats&#45;&gt;cbpdntv.ConvBPDNScalarTV.itstat_extra -->
<g id="edge28" class="edge">
<title>admm.ADMM.iteration_stats&#45;&gt;cbpdntv.ConvBPDNScalarTV.itstat_extra</title>
<path fill="none" stroke="#8ed88c" stroke-width="2" d="M307.25,-542.79C311.88,-540 316.2,-536.76 320,-533 356.88,-496.53 321.86,-461.04 356,-422 365.13,-411.56 377.04,-403.19 389.44,-396.56"/>
<polygon fill="#8ed88c" stroke="#8ed88c" stroke-width="2" points="391.1276,-399.6297 398.52,-392.04 388.0081,-393.3632 391.1276,-399.6297"/>
</g>
<!-- admm.ADMM.ustep -->
<g id="node20" class="node">
<title>admm.ADMM.ustep</title>
<g id="a_node20"><a xlink:href="../../sporco.admm.admm.html#sporco.admm.admm.ADMM.ustep" xlink:title="admm.ADMM.ustep" target="_top">
<path fill="#8ed88c" stroke="#000000" stroke-width=".25" d="M274.5,-632C274.5,-632 192.5,-632 192.5,-632 186.5,-632 180.5,-626 180.5,-620 180.5,-620 180.5,-608 180.5,-608 180.5,-602 186.5,-596 192.5,-596 192.5,-596 274.5,-596 274.5,-596 280.5,-596 286.5,-602 286.5,-608 286.5,-608 286.5,-620 286.5,-620 286.5,-626 280.5,-632 274.5,-632"/>
<text text-anchor="middle" x="233.5" y="-611.8" font-family="Vera Sans, DejaVu Sans, Liberation Sans, Arial, Helvetica, sans" font-size="9.00" fill="#000000">admm.ADMM.ustep</text>
</a>
</g>
</g>
<!-- admm.ADMM.rsdl_r -->
<g id="node21" class="node">
<title>admm.ADMM.rsdl_r</title>
<g id="a_node21"><a xlink:href="../../sporco.admm.admm.html#sporco.admm.admm.ADMM.rsdl_r" xlink:title="admm.ADMM.rsdl_r" target="_top">
<path fill="#8ed88c" stroke="#000000" stroke-width=".25" d="M496,-470C496,-470 416,-470 416,-470 410,-470 404,-464 404,-458 404,-458 404,-446 404,-446 404,-440 410,-434 416,-434 416,-434 496,-434 496,-434 502,-434 508,-440 508,-446 508,-446 508,-458 508,-458 508,-464 502,-470 496,-470"/>
<text text-anchor="middle" x="456" y="-449.8" font-family="Vera Sans, DejaVu Sans, Liberation Sans, Arial, Helvetica, sans" font-size="9.00" fill="#000000">admm.ADMM.rsdl_r</text>
</a>
</g>
</g>
<!-- admm.ADMM.ustep&#45;&gt;admm.ADMM.rsdl_r -->
<g id="edge12" class="edge">
<title>admm.ADMM.ustep&#45;&gt;admm.ADMM.rsdl_r</title>
<path fill="none" stroke="#8ed88c" stroke-width="2" d="M286.56,-603.66C298.31,-599.73 310.18,-594.35 320,-587 343.09,-569.71 336.57,-554.32 356,-533 375.57,-511.52 401.08,-490.95 421.43,-475.92"/>
<polygon fill="#8ed88c" stroke="#8ed88c" stroke-width="2" points="423.4838,-478.7541 429.51,-470.04 419.3649,-473.0942 423.4838,-478.7541"/>
</g>
<!-- admm.ADMM.rsdl_r&#45;&gt;cbpdntv.ConvBPDNScalarTV.cnst_B -->
<g id="edge29" class="edge">
<title>admm.ADMM.rsdl_r&#45;&gt;cbpdntv.ConvBPDNScalarTV.cnst_B</title>
<path fill="none" stroke="#8ed88c" stroke-width="2" d="M508.15,-449.82C524.93,-446.84 542.62,-441.02 556,-430 587.04,-404.43 561.79,-373.53 592,-347 593.32,-345.84 594.68,-344.74 596.08,-343.68"/>
<polygon fill="#8ed88c" stroke="#8ed88c" stroke-width="2" points="598.0946,-346.5441 604.52,-338.12 594.2437,-340.6985 598.0946,-346.5441"/>
</g>
<!-- admm.ADMM.compute_residuals -->
<g id="node22" class="node">
<title>admm.ADMM.compute_residuals</title>
<g id="a_node22"><a xlink:href="../../sporco.admm.admm.html#sporco.admm.admm.ADMM.compute_residuals" xlink:title="admm.ADMM.compute_residuals" target="_top">
<path fill="#8ed88c" stroke="#000000" stroke-width=".25" d="M305,-686C305,-686 162,-686 162,-686 156,-686 150,-680 150,-674 150,-674 150,-662 150,-662 150,-656 156,-650 162,-650 162,-650 305,-650 305,-650 311,-650 317,-656 317,-662 317,-662 317,-674 317,-674 317,-680 311,-686 305,-686"/>
<text text-anchor="middle" x="233.5" y="-665.8" font-family="Vera Sans, DejaVu Sans, Liberation Sans, Arial, Helvetica, sans" font-size="9.00" fill="#000000">admm.ADMM.compute_residuals</text>
</a>
</g>
</g>
<!-- admm.ADMM.compute_residuals&#45;&gt;admm.ADMM.rsdl_r -->
<g id="edge13" class="edge">
<title>admm.ADMM.compute_residuals&#45;&gt;admm.ADMM.rsdl_r</title>
<path fill="none" stroke="#8ed88c" stroke-width="2" d="M308.84,-649.75C312.86,-647.21 316.63,-644.31 320,-641 356.12,-605.57 327.19,-574.59 356,-533 371.99,-509.92 396.38,-489.98 417.07,-475.66"/>
<polygon fill="#8ed88c" stroke="#8ed88c" stroke-width="2" points="419.0432,-478.5509 425.38,-470.06 415.1313,-472.746 419.0432,-478.5509"/>
</g>
<!-- admm.ADMM.rsdl_sn -->
<g id="node23" class="node">
<title>admm.ADMM.rsdl_sn</title>
<g id="a_node23"><a xlink:href="../../sporco.admm.admm.html#sporco.admm.admm.ADMM.rsdl_sn" xlink:title="admm.ADMM.rsdl_sn" target="_top">
<path fill="#8ed88c" stroke="#000000" stroke-width=".25" d="M500,-659C500,-659 412,-659 412,-659 406,-659 400,-653 400,-647 400,-647 400,-635 400,-635 400,-629 406,-623 412,-623 412,-623 500,-623 500,-623 506,-623 512,-629 512,-635 512,-635 512,-647 512,-647 512,-653 506,-659 500,-659"/>
<text text-anchor="middle" x="456" y="-638.8" font-family="Vera Sans, DejaVu Sans, Liberation Sans, Arial, Helvetica, sans" font-size="9.00" fill="#000000">admm.ADMM.rsdl_sn</text>
</a>
</g>
</g>
<!-- admm.ADMM.compute_residuals&#45;&gt;admm.ADMM.rsdl_sn -->
<g id="edge14" class="edge">
<title>admm.ADMM.compute_residuals&#45;&gt;admm.ADMM.rsdl_sn</title>
<path fill="none" stroke="#8ed88c" stroke-width="2" d="M317.3,-657.83C341.23,-654.93 366.97,-651.8 389.69,-649.05"/>
<polygon fill="#8ed88c" stroke="#8ed88c" stroke-width="2" points="390.4044,-652.4891 399.91,-647.81 389.5612,-645.54 390.4044,-652.4891"/>
</g>
<!-- admm.ADMM.rsdl_s -->
<g id="node24" class="node">
<title>admm.ADMM.rsdl_s</title>
<g id="a_node24"><a xlink:href="../../sporco.admm.admm.html#sporco.admm.admm.ADMM.rsdl_s" xlink:title="admm.ADMM.rsdl_s" target="_top">
<path fill="#8ed88c" stroke="#000000" stroke-width=".25" d="M497,-578C497,-578 415,-578 415,-578 409,-578 403,-572 403,-566 403,-566 403,-554 403,-554 403,-548 409,-542 415,-542 415,-542 497,-542 497,-542 503,-542 509,-548 509,-554 509,-554 509,-566 509,-566 509,-572 503,-578 497,-578"/>
<text text-anchor="middle" x="456" y="-557.8" font-family="Vera Sans, DejaVu Sans, Liberation Sans, Arial, Helvetica, sans" font-size="9.00" fill="#000000">admm.ADMM.rsdl_s</text>
</a>
</g>
</g>
<!-- admm.ADMM.compute_residuals&#45;&gt;admm.ADMM.rsdl_s -->
<g id="edge15" class="edge">
<title>admm.ADMM.compute_residuals&#45;&gt;admm.ADMM.rsdl_s</title>
<path fill="none" stroke="#8ed88c" stroke-width="2" d="M297.44,-649.92C305.14,-647.19 312.82,-644.21 320,-641 356.07,-624.9 394.52,-601.34 421.29,-583.77"/>
<polygon fill="#8ed88c" stroke="#8ed88c" stroke-width="2" points="423.4992,-586.5052 429.91,-578.07 419.6382,-580.6663 423.4992,-586.5052"/>
</g>
<!-- admm.ADMM.rsdl_rn -->
<g id="node25" class="node">
<title>admm.ADMM.rsdl_rn</title>
<g id="a_node25"><a xlink:href="../../sporco.admm.admm.html#sporco.admm.admm.ADMM.rsdl_rn" xlink:title="admm.ADMM.rsdl_rn" target="_top">
<path fill="#8ed88c" stroke="#000000" stroke-width=".25" d="M499,-524C499,-524 413,-524 413,-524 407,-524 401,-518 401,-512 401,-512 401,-500 401,-500 401,-494 407,-488 413,-488 413,-488 499,-488 499,-488 505,-488 511,-494 511,-500 511,-500 511,-512 511,-512 511,-518 505,-524 499,-524"/>
<text text-anchor="middle" x="456" y="-503.8" font-family="Vera Sans, DejaVu Sans, Liberation Sans, Arial, Helvetica, sans" font-size="9.00" fill="#000000">admm.ADMM.rsdl_rn</text>
</a>
</g>
</g>
<!-- admm.ADMM.compute_residuals&#45;&gt;admm.ADMM.rsdl_rn -->
<g id="edge16" class="edge">
<title>admm.ADMM.compute_residuals&#45;&gt;admm.ADMM.rsdl_rn</title>
<path fill="none" stroke="#8ed88c" stroke-width="2" d="M302.36,-649.9C308.5,-647.28 314.47,-644.33 320,-641 345.43,-625.68 401.52,-566.09 433.15,-531.41"/>
<polygon fill="#8ed88c" stroke="#8ed88c" stroke-width="2" points="435.7476,-533.7557 439.88,-524 430.5658,-529.0494 435.7476,-533.7557"/>
</g>
<!-- admm.ADMM.rsdl_sn&#45;&gt;cbpdntv.ConvBPDNScalarTV.cnst_AT -->
<g id="edge30" class="edge">
<title>admm.ADMM.rsdl_sn&#45;&gt;cbpdntv.ConvBPDNScalarTV.cnst_AT</title>
<path fill="none" stroke="#8ed88c" stroke-width="2" d="M512.06,-637.35C527.48,-634.15 543.4,-628.57 556,-619 629.53,-563.13 665.85,-453.46 679.44,-401.97"/>
<polygon fill="#8ed88c" stroke="#8ed88c" stroke-width="2" points="682.8543,-402.7453 681.94,-392.19 676.0724,-401.0116 682.8543,-402.7453"/>
</g>
<!-- admm.ADMM.rsdl_s&#45;&gt;cbpdntv.ConvBPDNScalarTV.cnst_AT -->
<g id="edge31" class="edge">
<title>admm.ADMM.rsdl_s&#45;&gt;cbpdntv.ConvBPDNScalarTV.cnst_AT</title>
<path fill="none" stroke="#8ed88c" stroke-width="2" d="M509.2,-555.2C525.13,-552 542.06,-546.71 556,-538 610.59,-503.89 651.88,-438.44 672.14,-401.37"/>
<polygon fill="#8ed88c" stroke="#8ed88c" stroke-width="2" points="675.4352,-402.6295 677.06,-392.16 669.261,-399.3312 675.4352,-402.6295"/>
</g>
<!-- admm.ADMM.rsdl_s&#45;&gt;cbpdntv.ConvBPDNScalarTV.cnst_B -->
<g id="edge32" class="edge">
<title>admm.ADMM.rsdl_s&#45;&gt;cbpdntv.ConvBPDNScalarTV.cnst_B</title>
<path fill="none" stroke="#8ed88c" stroke-width="2" d="M509.13,-559.53C526.19,-556.72 543.81,-550.57 556,-538 616.15,-476 533.84,-410.87 592,-347 592.77,-346.15 593.57,-345.33 594.39,-344.53"/>
<polygon fill="#8ed88c" stroke="#8ed88c" stroke-width="2" points="596.8092,-347.0728 602.33,-338.03 592.3751,-341.6563 596.8092,-347.0728"/>
</g>
<!-- admm.ADMM.rsdl_rn&#45;&gt;cbpdntv.ConvBPDNScalarTV.cnst_c -->
<g id="edge33" class="edge">
<title>admm.ADMM.rsdl_rn&#45;&gt;cbpdntv.ConvBPDNScalarTV.cnst_c</title>
<path fill="none" stroke="#8ed88c" stroke-width="2" d="M511.21,-505.18C527.61,-502.21 544.3,-496.06 556,-484 616.15,-422 533.84,-356.87 592,-293 592.77,-292.15 593.57,-291.33 594.39,-290.53"/>
<polygon fill="#8ed88c" stroke="#8ed88c" stroke-width="2" points="596.8092,-293.0728 602.33,-284.03 592.3751,-287.6563 596.8092,-293.0728"/>
</g>
<!-- admm.ADMM.rsdl_rn&#45;&gt;cbpdntv.ConvBPDNScalarTV.cnst_B -->
<g id="edge34" class="edge">
<title>admm.ADMM.rsdl_rn&#45;&gt;cbpdntv.ConvBPDNScalarTV.cnst_B</title>
<path fill="none" stroke="#8ed88c" stroke-width="2" d="M511.23,-504.58C527.44,-501.55 544.01,-495.51 556,-484 601.41,-440.39 547.99,-392.02 592,-347 592.93,-346.04 593.9,-345.12 594.9,-344.23"/>
<polygon fill="#8ed88c" stroke="#8ed88c" stroke-width="2" points="597.2193,-346.8627 603.04,-338.01 592.9691,-341.3006 597.2193,-346.8627"/>
</g>
<!-- admm.ADMM.display_status -->
<g id="node26" class="node">
<title>admm.ADMM.display_status</title>
<g id="a_node26"><a xlink:href="../../sporco.admm.admm.html#sporco.admm.admm.ADMM.display_status" xlink:title="admm.ADMM.display_status" target="_top">
<path fill="#8ed88c" stroke="#000000" stroke-width=".25" d="M294.5,-740C294.5,-740 172.5,-740 172.5,-740 166.5,-740 160.5,-734 160.5,-728 160.5,-728 160.5,-716 160.5,-716 160.5,-710 166.5,-704 172.5,-704 172.5,-704 294.5,-704 294.5,-704 300.5,-704 306.5,-710 306.5,-716 306.5,-716 306.5,-728 306.5,-728 306.5,-734 300.5,-740 294.5,-740"/>
<text text-anchor="middle" x="233.5" y="-719.8" font-family="Vera Sans, DejaVu Sans, Liberation Sans, Arial, Helvetica, sans" font-size="9.00" fill="#000000">admm.ADMM.display_status</text>
</a>
</g>
</g>
<!-- admm.ADMM.display_start -->
<g id="node27" class="node">
<title>admm.ADMM.display_start</title>
<g id="a_node27"><a xlink:href="../../sporco.admm.admm.html#sporco.admm.admm.ADMM.display_start" xlink:title="admm.ADMM.display_start" target="_top">
<path fill="#8ed88c" stroke="#000000" stroke-width=".25" d="M290.5,-794C290.5,-794 176.5,-794 176.5,-794 170.5,-794 164.5,-788 164.5,-782 164.5,-782 164.5,-770 164.5,-770 164.5,-764 170.5,-758 176.5,-758 176.5,-758 290.5,-758 290.5,-758 296.5,-758 302.5,-764 302.5,-770 302.5,-770 302.5,-782 302.5,-782 302.5,-788 296.5,-794 290.5,-794"/>
<text text-anchor="middle" x="233.5" y="-773.8" font-family="Vera Sans, DejaVu Sans, Liberation Sans, Arial, Helvetica, sans" font-size="9.00" fill="#000000">admm.ADMM.display_start</text>
</a>
</g>
</g>
<!-- admm.ADMM.getmin -->
<g id="node28" class="node">
<title>admm.ADMM.getmin</title>
<g id="a_node28"><a xlink:href="../../sporco.admm.admm.html#sporco.admm.admm.ADMM.getmin" xlink:title="admm.ADMM.getmin" target="_top">
<path fill="#8ed88c" stroke="#000000" stroke-width=".25" d="M277,-848C277,-848 190,-848 190,-848 184,-848 178,-842 178,-836 178,-836 178,-824 178,-824 178,-818 184,-812 190,-812 190,-812 277,-812 277,-812 283,-812 289,-818 289,-824 289,-824 289,-836 289,-836 289,-842 283,-848 277,-848"/>
<text text-anchor="middle" x="233.5" y="-827.8" font-family="Vera Sans, DejaVu Sans, Liberation Sans, Arial, Helvetica, sans" font-size="9.00" fill="#000000">admm.ADMM.getmin</text>
</a>
</g>
</g>
<!-- admm.ADMM.display_end -->
<g id="node29" class="node">
<title>admm.ADMM.display_end</title>
<g id="a_node29"><a xlink:href="../../sporco.admm.admm.html#sporco.admm.admm.ADMM.display_end" xlink:title="admm.ADMM.display_end" target="_top">
<path fill="#8ed88c" stroke="#000000" stroke-width=".25" d="M288.5,-470C288.5,-470 178.5,-470 178.5,-470 172.5,-470 166.5,-464 166.5,-458 166.5,-458 166.5,-446 166.5,-446 166.5,-440 172.5,-434 178.5,-434 178.5,-434 288.5,-434 288.5,-434 294.5,-434 300.5,-440 300.5,-446 300.5,-446 300.5,-458 300.5,-458 300.5,-464 294.5,-470 288.5,-470"/>
<text text-anchor="middle" x="233.5" y="-449.8" font-family="Vera Sans, DejaVu Sans, Liberation Sans, Arial, Helvetica, sans" font-size="9.00" fill="#000000">admm.ADMM.display_end</text>
</a>
</g>
</g>
<!-- admm.ADMM.solve -->
<g id="node30" class="node">
<title>admm.ADMM.solve</title>
<g id="a_node30"><a xlink:href="../../sporco.admm.admm.html#sporco.admm.admm.ADMM.solve" xlink:title="admm.ADMM.solve" target="_top">
<path fill="#8ed88c" stroke="#000000" stroke-width=".25" d="M99,-578C99,-578 20,-578 20,-578 14,-578 8,-572 8,-566 8,-566 8,-554 8,-554 8,-548 14,-542 20,-542 20,-542 99,-542 99,-542 105,-542 111,-548 111,-554 111,-554 111,-566 111,-566 111,-572 105,-578 99,-578"/>
<text text-anchor="middle" x="59.5" y="-557.8" font-family="Vera Sans, DejaVu Sans, Liberation Sans, Arial, Helvetica, sans" font-size="9.00" fill="#000000">admm.ADMM.solve</text>
</a>
</g>
</g>
<!-- admm.ADMM.solve&#45;&gt;cbpdntv.ConvBPDNScalarTV.xstep -->
<g id="edge36" class="edge">
<title>admm.ADMM.solve&#45;&gt;cbpdntv.ConvBPDNScalarTV.xstep</title>
<path fill="none" stroke="#8ed88c" stroke-width="2" d="M66.07,-541.7C77.169,-512.99 102.09,-457.01 139,-422 149.63,-411.92 162.79,-403.46 175.88,-396.6"/>
<polygon fill="#8ed88c" stroke="#8ed88c" stroke-width="2" points="177.5076,-399.6994 184.89,-392.1 174.3799,-393.437 177.5076,-399.6994"/>
</g>
<!-- admm.ADMM.solve&#45;&gt;cbpdntv.ConvBPDNScalarTV.relax_AX -->
<g id="edge37" class="edge">
<title>admm.ADMM.solve&#45;&gt;cbpdntv.ConvBPDNScalarTV.relax_AX</title>
<path fill="none" stroke="#8ed88c" stroke-width="2" d="M60.467,-541.73C63.724,-500.04 77.87,-397.57 139,-347 198.12,-298.09 285.14,-286.13 353.05,-285.55"/>
<polygon fill="#8ed88c" stroke="#8ed88c" stroke-width="2" points="353.3534,-289.0498 363.35,-285.54 353.3466,-282.0498 353.3534,-289.0498"/>
</g>
<!-- admm.ADMM.solve&#45;&gt;cbpdntv.ConvBPDNVectorTV.ystep -->
<g id="edge35" class="edge">
<title>admm.ADMM.solve&#45;&gt;cbpdntv.ConvBPDNVectorTV.ystep</title>
<path fill="none" stroke="#8ed88c" stroke-width="2" d="M60.304,-541.96C64.125,-463.32 82.661,-151.03 139,-74 146.46,-63.804 156.71,-55.624 167.72,-49.113"/>
<polygon fill="#8ed88c" stroke="#8ed88c" stroke-width="2" points="169.5654,-52.0936 176.68,-44.243 166.2225,-45.9434 169.5654,-52.0936"/>
</g>
<!-- admm.ADMM.solve&#45;&gt;admm.ADMM.iteration_stats -->
<g id="edge17" class="edge">
<title>admm.ADMM.solve&#45;&gt;admm.ADMM.iteration_stats</title>
<path fill="none" stroke="#8ed88c" stroke-width="2" d="M111.23,-560C123.37,-560 136.6,-560 149.74,-560"/>
<polygon fill="#8ed88c" stroke="#8ed88c" stroke-width="2" points="149.75,-563.5001 159.75,-560 149.75,-556.5001 149.75,-563.5001"/>
</g>
<!-- admm.ADMM.solve&#45;&gt;admm.ADMM.ustep -->
<g id="edge18" class="edge">
<title>admm.ADMM.solve&#45;&gt;admm.ADMM.ustep</title>
<path fill="none" stroke="#8ed88c" stroke-width="2" d="M111.12,-577.94C120.38,-581.04 129.96,-584.17 139,-587 149.22,-590.19 160.12,-593.45 170.74,-596.53"/>
<polygon fill="#8ed88c" stroke="#8ed88c" stroke-width="2" points="169.8012,-599.9019 180.38,-599.32 171.7473,-593.1778 169.8012,-599.9019"/>
</g>
<!-- admm.ADMM.solve&#45;&gt;admm.ADMM.compute_residuals -->
<g id="edge19" class="edge">
<title>admm.ADMM.solve&#45;&gt;admm.ADMM.compute_residuals</title>
<path fill="none" stroke="#8ed88c" stroke-width="2" d="M72.687,-578.14C87.016,-596.58 111.56,-624.68 139,-641 141.7,-642.61 144.5,-644.12 147.37,-645.55"/>
<polygon fill="#8ed88c" stroke="#8ed88c" stroke-width="2" points="146.1985,-648.8623 156.75,-649.82 149.0988,-642.4913 146.1985,-648.8623"/>
</g>
<!-- admm.ADMM.solve&#45;&gt;admm.ADMM.display_status -->
<g id="edge20" class="edge">
<title>admm.ADMM.solve&#45;&gt;admm.ADMM.display_status</title>
<path fill="none" stroke="#8ed88c" stroke-width="2" d="M65.269,-578.29C75.406,-607.42 99.2,-664.21 139,-695 142.67,-697.84 146.62,-700.38 150.76,-702.65"/>
<polygon fill="#8ed88c" stroke="#8ed88c" stroke-width="2" points="149.5498,-705.9545 160.07,-707.21 152.6289,-699.668 149.5498,-705.9545"/>
</g>
<!-- admm.ADMM.solve&#45;&gt;admm.ADMM.display_start -->
<g id="edge21" class="edge">
<title>admm.ADMM.solve&#45;&gt;admm.ADMM.display_start</title>
<path fill="none" stroke="#8ed88c" stroke-width="2" d="M61.861,-578.08C67.737,-615.63 86.532,-702.47 139,-749 143.78,-753.23 149.17,-756.81 154.91,-759.82"/>
<polygon fill="#8ed88c" stroke="#8ed88c" stroke-width="2" points="153.6165,-763.0783 164.16,-764.12 156.5673,-756.7307 153.6165,-763.0783"/>
</g>
<!-- admm.ADMM.solve&#45;&gt;admm.ADMM.getmin -->
<g id="edge22" class="edge">
<title>admm.ADMM.solve&#45;&gt;admm.ADMM.getmin</title>
<path fill="none" stroke="#8ed88c" stroke-width="2" d="M63.176,-578.31C73.742,-629.22 105.59,-770.83 139,-803 147.18,-810.87 157.48,-816.48 168.26,-820.46"/>
<polygon fill="#8ed88c" stroke="#8ed88c" stroke-width="2" points="167.2179,-823.8015 177.81,-823.56 169.3792,-817.1434 167.2179,-823.8015"/>
</g>
<!-- admm.ADMM.solve&#45;&gt;admm.ADMM.display_end -->
<g id="edge23" class="edge">
<title>admm.ADMM.solve&#45;&gt;admm.ADMM.display_end</title>
<path fill="none" stroke="#8ed88c" stroke-width="2" d="M72.687,-541.86C87.016,-523.42 111.56,-495.32 139,-479 144.49,-475.74 150.39,-472.85 156.46,-470.3"/>
<polygon fill="#8ed88c" stroke="#8ed88c" stroke-width="2" points="158.052,-473.4372 166.12,-466.57 155.5305,-466.9071 158.052,-473.4372"/>
</g>
<!-- admm.ADMM.update_rho -->
<g id="node31" class="node">
<title>admm.ADMM.update_rho</title>
<g id="a_node31"><a xlink:href="../../sporco.admm.admm.html#sporco.admm.admm.ADMM.update_rho" xlink:title="admm.ADMM.update_rho" target="_top">
<path fill="#8ed88c" stroke="#000000" stroke-width=".25" d="M288,-524C288,-524 179,-524 179,-524 173,-524 167,-518 167,-512 167,-512 167,-500 167,-500 167,-494 173,-488 179,-488 179,-488 288,-488 288,-488 294,-488 300,-494 300,-500 300,-500 300,-512 300,-512 300,-518 294,-524 288,-524"/>
<text text-anchor="middle" x="233.5" y="-503.8" font-family="Vera Sans, DejaVu Sans, Liberation Sans, Arial, Helvetica, sans" font-size="9.00" fill="#000000">admm.ADMM.update_rho</text>
</a>
</g>
</g>
<!-- admm.ADMM.solve&#45;&gt;admm.ADMM.update_rho -->
<g id="edge24" class="edge">
<title>admm.ADMM.solve&#45;&gt;admm.ADMM.update_rho</title>
<path fill="none" stroke="#8ed88c" stroke-width="2" d="M111.12,-542.06C120.38,-538.96 129.96,-535.83 139,-533 145.46,-530.98 152.18,-528.94 158.93,-526.94"/>
<polygon fill="#8ed88c" stroke="#8ed88c" stroke-width="2" points="160.2204,-530.2085 168.82,-524.02 158.2382,-523.495 160.2204,-530.2085"/>
</g>
</g>
</svg>
