<?xml version="1.0" encoding="UTF-8" standalone="no"?>
<!DOCTYPE svg PUBLIC "-//W3C//DTD SVG 1.1//EN"
 "http://www.w3.org/Graphics/SVG/1.1/DTD/svg11.dtd">
<!-- Generated by graphviz version 2.40.1 (20161225.0304)
 -->
<!-- Pages: 1 -->
<svg
 viewBox="0.00 0.00 1200.00 912.00" xmlns="http://www.w3.org/2000/svg" xmlns:xlink="http://www.w3.org/1999/xlink">
<g id="graph0" class="graph" transform="scale(1 1) rotate(0) translate(4 908)">
<polygon fill="transparent" stroke="transparent" points="-4,4 -4,-908 1196,-908 1196,4 -4,4"/>
<g id="clust1" class="cluster">
<title>cluster_cbpdntv.ConvBPDNRecTV</title>
<polygon fill="transparent" stroke="#d88c8c" stroke-width="2" stroke-dasharray="1,5" points="342,0 342,-448 1192,-448 1192,0 342,0"/>
<text text-anchor="middle" x="767" y="-436.8" font-family="Vera Sans, DejaVu Sans, Liberation Sans, Arial, Helvetica, sans" font-size="9.00" fill="#000000">cbpdntv.ConvBPDNRecTV</text>
</g>
<g id="clust2" class="cluster">
<title>cluster_admm.ADMM</title>
<polygon fill="transparent" stroke="#8ed88c" stroke-width="2" stroke-dasharray="1,5" points="0,-456 0,-904 507.5,-904 507.5,-456 0,-456"/>
<text text-anchor="middle" x="253.75" y="-892.8" font-family="Vera Sans, DejaVu Sans, Liberation Sans, Arial, Helvetica, sans" font-size="9.00" fill="#000000">admm.ADMM</text>
</g>
<!-- cbpdntv.ConvBPDNRecTV.obfn_g0var -->
<g id="node1" class="node">
<title>cbpdntv.ConvBPDNRecTV.obfn_g0var</title>
<g id="a_node1"><a xlink:href="../../sporco.admm.cbpdntv.html#sporco.admm.cbpdntv.ConvBPDNRecTV.obfn_g0var" xlink:title="cbpdntv.ConvBPDNRecTV.obfn_g0var" target="_top">
<path fill="#d88c8c" stroke="#000000" stroke-width=".25" d="M957.5,-260C957.5,-260 796.5,-260 796.5,-260 790.5,-260 784.5,-254 784.5,-248 784.5,-248 784.5,-236 784.5,-236 784.5,-230 790.5,-224 796.5,-224 796.5,-224 957.5,-224 957.5,-224 963.5,-224 969.5,-230 969.5,-236 969.5,-236 969.5,-248 969.5,-248 969.5,-254 963.5,-260 957.5,-260"/>
<text text-anchor="middle" x="877" y="-239.8" font-family="Vera Sans, DejaVu Sans, Liberation Sans, Arial, Helvetica, sans" font-size="9.00" fill="#000000">cbpdntv.ConvBPDNRecTV.obfn_g0var</text>
</a>
</g>
</g>
<!-- cbpdntv.ConvBPDNRecTV.cnst_A0 -->
<g id="node2" class="node">
<title>cbpdntv.ConvBPDNRecTV.cnst_A0</title>
<g id="a_node2"><a xlink:href="../../sporco.admm.cbpdntv.html#sporco.admm.cbpdntv.ConvBPDNRecTV.cnst_A0" xlink:title="cbpdntv.ConvBPDNRecTV.cnst_A0" target="_top">
<path fill="#d88c8c" stroke="#000000" stroke-width=".25" d="M1168,-260C1168,-260 1022,-260 1022,-260 1016,-260 1010,-254 1010,-248 1010,-248 1010,-236 1010,-236 1010,-230 1016,-224 1022,-224 1022,-224 1168,-224 1168,-224 1174,-224 1180,-230 1180,-236 1180,-236 1180,-248 1180,-248 1180,-254 1174,-260 1168,-260"/>
<text text-anchor="middle" x="1095" y="-239.8" font-family="Vera Sans, DejaVu Sans, Liberation Sans, Arial, Helvetica, sans" font-size="9.00" fill="#000000">cbpdntv.ConvBPDNRecTV.cnst_A0</text>
</a>
</g>
</g>
<!-- cbpdntv.ConvBPDNRecTV.obfn_g0var&#45;&gt;cbpdntv.ConvBPDNRecTV.cnst_A0 -->
<g id="edge1" class="edge">
<title>cbpdntv.ConvBPDNRecTV.obfn_g0var&#45;&gt;cbpdntv.ConvBPDNRecTV.cnst_A0</title>
<path fill="none" stroke="#d88c8c" stroke-width="2" d="M969.77,-242C979.66,-242 989.73,-242 999.7,-242"/>
<polygon fill="#d88c8c" stroke="#d88c8c" stroke-width="2" points="999.9,-245.5001 1009.9,-242 999.9,-238.5001 999.9,-245.5001"/>
</g>
<!-- cbpdntv.ConvBPDNRecTV.relax_AX -->
<g id="node3" class="node">
<title>cbpdntv.ConvBPDNRecTV.relax_AX</title>
<g id="a_node3"><a xlink:href="../../sporco.admm.cbpdntv.html#sporco.admm.cbpdntv.ConvBPDNRecTV.relax_AX" xlink:title="cbpdntv.ConvBPDNRecTV.relax_AX" target="_top">
<path fill="#d88c8c" stroke="#000000" stroke-width=".25" d="M517.5,-341C517.5,-341 369.5,-341 369.5,-341 363.5,-341 357.5,-335 357.5,-329 357.5,-329 357.5,-317 357.5,-317 357.5,-311 363.5,-305 369.5,-305 369.5,-305 517.5,-305 517.5,-305 523.5,-305 529.5,-311 529.5,-317 529.5,-317 529.5,-329 529.5,-329 529.5,-335 523.5,-341 517.5,-341"/>
<text text-anchor="middle" x="443.5" y="-320.8" font-family="Vera Sans, DejaVu Sans, Liberation Sans, Arial, Helvetica, sans" font-size="9.00" fill="#000000">cbpdntv.ConvBPDNRecTV.relax_AX</text>
</a>
</g>
</g>
<!-- cbpdntv.ConvBPDNRecTV.cnst_A -->
<g id="node4" class="node">
<title>cbpdntv.ConvBPDNRecTV.cnst_A</title>
<g id="a_node4"><a xlink:href="../../sporco.admm.cbpdntv.html#sporco.admm.cbpdntv.ConvBPDNRecTV.cnst_A" xlink:title="cbpdntv.ConvBPDNRecTV.cnst_A" target="_top">
<path fill="#d88c8c" stroke="#000000" stroke-width=".25" d="M947,-206C947,-206 807,-206 807,-206 801,-206 795,-200 795,-194 795,-194 795,-182 795,-182 795,-176 801,-170 807,-170 807,-170 947,-170 947,-170 953,-170 959,-176 959,-182 959,-182 959,-194 959,-194 959,-200 953,-206 947,-206"/>
<text text-anchor="middle" x="877" y="-185.8" font-family="Vera Sans, DejaVu Sans, Liberation Sans, Arial, Helvetica, sans" font-size="9.00" fill="#000000">cbpdntv.ConvBPDNRecTV.cnst_A</text>
</a>
</g>
</g>
<!-- cbpdntv.ConvBPDNRecTV.relax_AX&#45;&gt;cbpdntv.ConvBPDNRecTV.cnst_A -->
<g id="edge2" class="edge">
<title>cbpdntv.ConvBPDNRecTV.relax_AX&#45;&gt;cbpdntv.ConvBPDNRecTV.cnst_A</title>
<path fill="none" stroke="#d88c8c" stroke-width="2" d="M483.97,-304.84C501.52,-295.71 521.55,-283.49 537,-269 558.04,-249.27 548.2,-229.72 573,-215 607.67,-194.42 708.53,-188.77 784.65,-187.57"/>
<polygon fill="#d88c8c" stroke="#d88c8c" stroke-width="2" points="784.7896,-191.0685 794.74,-187.43 784.6924,-184.0692 784.7896,-191.0685"/>
</g>
<!-- cbpdntv.ConvBPDNRecTV.cnst_B -->
<g id="node5" class="node">
<title>cbpdntv.ConvBPDNRecTV.cnst_B</title>
<g id="a_node5"><a xlink:href="../../sporco.admm.cbpdntv.html#sporco.admm.cbpdntv.ConvBPDNRecTV.cnst_B" xlink:title="cbpdntv.ConvBPDNRecTV.cnst_B" target="_top">
<path fill="#d88c8c" stroke="#000000" stroke-width=".25" d="M730.5,-368C730.5,-368 590.5,-368 590.5,-368 584.5,-368 578.5,-362 578.5,-356 578.5,-356 578.5,-344 578.5,-344 578.5,-338 584.5,-332 590.5,-332 590.5,-332 730.5,-332 730.5,-332 736.5,-332 742.5,-338 742.5,-344 742.5,-344 742.5,-356 742.5,-356 742.5,-362 736.5,-368 730.5,-368"/>
<text text-anchor="middle" x="660.5" y="-347.8" font-family="Vera Sans, DejaVu Sans, Liberation Sans, Arial, Helvetica, sans" font-size="9.00" fill="#000000">cbpdntv.ConvBPDNRecTV.cnst_B</text>
</a>
</g>
</g>
<!-- cbpdntv.ConvBPDNRecTV.relax_AX&#45;&gt;cbpdntv.ConvBPDNRecTV.cnst_B -->
<g id="edge3" class="edge">
<title>cbpdntv.ConvBPDNRecTV.relax_AX&#45;&gt;cbpdntv.ConvBPDNRecTV.cnst_B</title>
<path fill="none" stroke="#d88c8c" stroke-width="2" d="M529.58,-333.71C542.27,-335.29 555.4,-336.92 568.22,-338.52"/>
<polygon fill="#d88c8c" stroke="#d88c8c" stroke-width="2" points="568.0641,-342.0275 578.42,-339.79 568.9291,-335.0812 568.0641,-342.0275"/>
</g>
<!-- cbpdntv.ConvBPDNRecTV.cnst_c -->
<g id="node6" class="node">
<title>cbpdntv.ConvBPDNRecTV.cnst_c</title>
<g id="a_node6"><a xlink:href="../../sporco.admm.cbpdntv.html#sporco.admm.cbpdntv.ConvBPDNRecTV.cnst_c" xlink:title="cbpdntv.ConvBPDNRecTV.cnst_c" target="_top">
<path fill="#d88c8c" stroke="#000000" stroke-width=".25" d="M730.5,-314C730.5,-314 590.5,-314 590.5,-314 584.5,-314 578.5,-308 578.5,-302 578.5,-302 578.5,-290 578.5,-290 578.5,-284 584.5,-278 590.5,-278 590.5,-278 730.5,-278 730.5,-278 736.5,-278 742.5,-284 742.5,-290 742.5,-290 742.5,-302 742.5,-302 742.5,-308 736.5,-314 730.5,-314"/>
<text text-anchor="middle" x="660.5" y="-293.8" font-family="Vera Sans, DejaVu Sans, Liberation Sans, Arial, Helvetica, sans" font-size="9.00" fill="#000000">cbpdntv.ConvBPDNRecTV.cnst_c</text>
</a>
</g>
</g>
<!-- cbpdntv.ConvBPDNRecTV.relax_AX&#45;&gt;cbpdntv.ConvBPDNRecTV.cnst_c -->
<g id="edge4" class="edge">
<title>cbpdntv.ConvBPDNRecTV.relax_AX&#45;&gt;cbpdntv.ConvBPDNRecTV.cnst_c</title>
<path fill="none" stroke="#d88c8c" stroke-width="2" d="M529.58,-312.29C542.27,-310.71 555.4,-309.08 568.22,-307.48"/>
<polygon fill="#d88c8c" stroke="#d88c8c" stroke-width="2" points="568.9291,-310.9188 578.42,-306.21 568.0641,-303.9725 568.9291,-310.9188"/>
</g>
<!-- cbpdntv.ConvBPDNRecTV.cnst_A&#45;&gt;cbpdntv.ConvBPDNRecTV.cnst_A0 -->
<g id="edge5" class="edge">
<title>cbpdntv.ConvBPDNRecTV.cnst_A&#45;&gt;cbpdntv.ConvBPDNRecTV.cnst_A0</title>
<path fill="none" stroke="#d88c8c" stroke-width="2" d="M949.89,-206.06C969.89,-211.01 991.72,-216.42 1012.2,-221.5"/>
<polygon fill="#d88c8c" stroke="#d88c8c" stroke-width="2" points="1011.6534,-224.9698 1022.2,-223.96 1013.3256,-218.1725 1011.6534,-224.9698"/>
</g>
<!-- cbpdntv.ConvBPDNRecTV.cnst_A1 -->
<g id="node7" class="node">
<title>cbpdntv.ConvBPDNRecTV.cnst_A1</title>
<g id="a_node7"><a xlink:href="../../sporco.admm.cbpdntv.html#sporco.admm.cbpdntv.ConvBPDNRecTV.cnst_A1" xlink:title="cbpdntv.ConvBPDNRecTV.cnst_A1" target="_top">
<path fill="#d88c8c" stroke="#000000" stroke-width=".25" d="M1168,-314C1168,-314 1022,-314 1022,-314 1016,-314 1010,-308 1010,-302 1010,-302 1010,-290 1010,-290 1010,-284 1016,-278 1022,-278 1022,-278 1168,-278 1168,-278 1174,-278 1180,-284 1180,-290 1180,-290 1180,-302 1180,-302 1180,-308 1174,-314 1168,-314"/>
<text text-anchor="middle" x="1095" y="-293.8" font-family="Vera Sans, DejaVu Sans, Liberation Sans, Arial, Helvetica, sans" font-size="9.00" fill="#000000">cbpdntv.ConvBPDNRecTV.cnst_A1</text>
</a>
</g>
</g>
<!-- cbpdntv.ConvBPDNRecTV.cnst_A&#45;&gt;cbpdntv.ConvBPDNRecTV.cnst_A1 -->
<g id="edge6" class="edge">
<title>cbpdntv.ConvBPDNRecTV.cnst_A&#45;&gt;cbpdntv.ConvBPDNRecTV.cnst_A1</title>
<path fill="none" stroke="#d88c8c" stroke-width="2" d="M955.11,-206.07C960.36,-208.66 965.39,-211.62 970,-215 993.3,-232.06 982.84,-251.81 1006,-269 1007.8,-270.37 1009.8,-271.67 1011.7,-272.9"/>
<polygon fill="#d88c8c" stroke="#d88c8c" stroke-width="2" points="1010.2602,-276.1042 1020.7,-277.91 1013.6649,-269.988 1010.2602,-276.1042"/>
</g>
<!-- cbpdntv.ConvBPDNRecTV.block_cat -->
<g id="node8" class="node">
<title>cbpdntv.ConvBPDNRecTV.block_cat</title>
<g id="a_node8"><a xlink:href="../../sporco.admm.cbpdntv.html#sporco.admm.cbpdntv.ConvBPDNRecTV.block_cat" xlink:title="cbpdntv.ConvBPDNRecTV.block_cat" target="_top">
<path fill="#d88c8c" stroke="#000000" stroke-width=".25" d="M1172,-206C1172,-206 1018,-206 1018,-206 1012,-206 1006,-200 1006,-194 1006,-194 1006,-182 1006,-182 1006,-176 1012,-170 1018,-170 1018,-170 1172,-170 1172,-170 1178,-170 1184,-176 1184,-182 1184,-182 1184,-194 1184,-194 1184,-200 1178,-206 1172,-206"/>
<text text-anchor="middle" x="1095" y="-185.8" font-family="Vera Sans, DejaVu Sans, Liberation Sans, Arial, Helvetica, sans" font-size="9.00" fill="#000000">cbpdntv.ConvBPDNRecTV.block_cat</text>
</a>
</g>
</g>
<!-- cbpdntv.ConvBPDNRecTV.cnst_A&#45;&gt;cbpdntv.ConvBPDNRecTV.block_cat -->
<g id="edge7" class="edge">
<title>cbpdntv.ConvBPDNRecTV.cnst_A&#45;&gt;cbpdntv.ConvBPDNRecTV.block_cat</title>
<path fill="none" stroke="#d88c8c" stroke-width="2" d="M959.11,-188C970.99,-188 983.32,-188 995.5,-188"/>
<polygon fill="#d88c8c" stroke="#d88c8c" stroke-width="2" points="995.7,-191.5001 1005.7,-188 995.7,-184.5001 995.7,-191.5001"/>
</g>
<!-- cbpdntv.ConvBPDNRecTV.obfn_g1var -->
<g id="node9" class="node">
<title>cbpdntv.ConvBPDNRecTV.obfn_g1var</title>
<g id="a_node9"><a xlink:href="../../sporco.admm.cbpdntv.html#sporco.admm.cbpdntv.ConvBPDNRecTV.obfn_g1var" xlink:title="cbpdntv.ConvBPDNRecTV.obfn_g1var" target="_top">
<path fill="#d88c8c" stroke="#000000" stroke-width=".25" d="M957.5,-314C957.5,-314 796.5,-314 796.5,-314 790.5,-314 784.5,-308 784.5,-302 784.5,-302 784.5,-290 784.5,-290 784.5,-284 790.5,-278 796.5,-278 796.5,-278 957.5,-278 957.5,-278 963.5,-278 969.5,-284 969.5,-290 969.5,-290 969.5,-302 969.5,-302 969.5,-308 963.5,-314 957.5,-314"/>
<text text-anchor="middle" x="877" y="-293.8" font-family="Vera Sans, DejaVu Sans, Liberation Sans, Arial, Helvetica, sans" font-size="9.00" fill="#000000">cbpdntv.ConvBPDNRecTV.obfn_g1var</text>
</a>
</g>
</g>
<!-- cbpdntv.ConvBPDNRecTV.obfn_g1var&#45;&gt;cbpdntv.ConvBPDNRecTV.cnst_A1 -->
<g id="edge8" class="edge">
<title>cbpdntv.ConvBPDNRecTV.obfn_g1var&#45;&gt;cbpdntv.ConvBPDNRecTV.cnst_A1</title>
<path fill="none" stroke="#d88c8c" stroke-width="2" d="M969.77,-296C979.66,-296 989.73,-296 999.7,-296"/>
<polygon fill="#d88c8c" stroke="#d88c8c" stroke-width="2" points="999.9,-299.5001 1009.9,-296 999.9,-292.5001 999.9,-299.5001"/>
</g>
<!-- cbpdntv.ConvBPDNRecTV.obfn_fvarf -->
<g id="node10" class="node">
<title>cbpdntv.ConvBPDNRecTV.obfn_fvarf</title>
<g id="a_node10"><a xlink:href="../../sporco.admm.cbpdntv.html#sporco.admm.cbpdntv.ConvBPDNRecTV.obfn_fvarf" xlink:title="cbpdntv.ConvBPDNRecTV.obfn_fvarf" target="_top">
<path fill="#d88c8c" stroke="#000000" stroke-width=".25" d="M954.5,-152C954.5,-152 799.5,-152 799.5,-152 793.5,-152 787.5,-146 787.5,-140 787.5,-140 787.5,-128 787.5,-128 787.5,-122 793.5,-116 799.5,-116 799.5,-116 954.5,-116 954.5,-116 960.5,-116 966.5,-122 966.5,-128 966.5,-128 966.5,-140 966.5,-140 966.5,-146 960.5,-152 954.5,-152"/>
<text text-anchor="middle" x="877" y="-131.8" font-family="Vera Sans, DejaVu Sans, Liberation Sans, Arial, Helvetica, sans" font-size="9.00" fill="#000000">cbpdntv.ConvBPDNRecTV.obfn_fvarf</text>
</a>
</g>
</g>
<!-- cbpdntv.ConvBPDNRecTV.cnst_AT -->
<g id="node11" class="node">
<title>cbpdntv.ConvBPDNRecTV.cnst_AT</title>
<g id="a_node11"><a xlink:href="../../sporco.admm.cbpdntv.html#sporco.admm.cbpdntv.ConvBPDNRecTV.cnst_AT" xlink:title="cbpdntv.ConvBPDNRecTV.cnst_AT" target="_top">
<path fill="#d88c8c" stroke="#000000" stroke-width=".25" d="M733,-422C733,-422 588,-422 588,-422 582,-422 576,-416 576,-410 576,-410 576,-398 576,-398 576,-392 582,-386 588,-386 588,-386 733,-386 733,-386 739,-386 745,-392 745,-398 745,-398 745,-410 745,-410 745,-416 739,-422 733,-422"/>
<text text-anchor="middle" x="660.5" y="-401.8" font-family="Vera Sans, DejaVu Sans, Liberation Sans, Arial, Helvetica, sans" font-size="9.00" fill="#000000">cbpdntv.ConvBPDNRecTV.cnst_AT</text>
</a>
</g>
</g>
<!-- cbpdntv.ConvBPDNRecTV.block_sep1 -->
<g id="node12" class="node">
<title>cbpdntv.ConvBPDNRecTV.block_sep1</title>
<g id="a_node12"><a xlink:href="../../sporco.admm.cbpdntv.html#sporco.admm.cbpdntv.ConvBPDNRecTV.block_sep1" xlink:title="cbpdntv.ConvBPDNRecTV.block_sep1" target="_top">
<path fill="#d88c8c" stroke="#000000" stroke-width=".25" d="M958,-44C958,-44 796,-44 796,-44 790,-44 784,-38 784,-32 784,-32 784,-20 784,-20 784,-14 790,-8 796,-8 796,-8 958,-8 958,-8 964,-8 970,-14 970,-20 970,-20 970,-32 970,-32 970,-38 964,-44 958,-44"/>
<text text-anchor="middle" x="877" y="-23.8" font-family="Vera Sans, DejaVu Sans, Liberation Sans, Arial, Helvetica, sans" font-size="9.00" fill="#000000">cbpdntv.ConvBPDNRecTV.block_sep1</text>
</a>
</g>
</g>
<!-- cbpdntv.ConvBPDNRecTV.cnst_AT&#45;&gt;cbpdntv.ConvBPDNRecTV.block_sep1 -->
<g id="edge9" class="edge">
<title>cbpdntv.ConvBPDNRecTV.cnst_AT&#45;&gt;cbpdntv.ConvBPDNRecTV.block_sep1</title>
<path fill="none" stroke="#d88c8c" stroke-width="2" d="M738.72,-385.78C742.13,-383.22 745.26,-380.31 748,-377 840.35,-265.36 690.72,-163.87 784,-53 784.62,-52.268 785.25,-51.556 785.9,-50.862"/>
<polygon fill="#d88c8c" stroke="#d88c8c" stroke-width="2" points="788.3413,-53.3751 793.5,-44.121 783.6963,-48.1382 788.3413,-53.3751"/>
</g>
<!-- cbpdntv.ConvBPDNRecTV.cnst_A0T -->
<g id="node13" class="node">
<title>cbpdntv.ConvBPDNRecTV.cnst_A0T</title>
<g id="a_node13"><a xlink:href="../../sporco.admm.cbpdntv.html#sporco.admm.cbpdntv.ConvBPDNRecTV.cnst_A0T" xlink:title="cbpdntv.ConvBPDNRecTV.cnst_A0T" target="_top">
<path fill="#d88c8c" stroke="#000000" stroke-width=".25" d="M953,-368C953,-368 801,-368 801,-368 795,-368 789,-362 789,-356 789,-356 789,-344 789,-344 789,-338 795,-332 801,-332 801,-332 953,-332 953,-332 959,-332 965,-338 965,-344 965,-344 965,-356 965,-356 965,-362 959,-368 953,-368"/>
<text text-anchor="middle" x="877" y="-347.8" font-family="Vera Sans, DejaVu Sans, Liberation Sans, Arial, Helvetica, sans" font-size="9.00" fill="#000000">cbpdntv.ConvBPDNRecTV.cnst_A0T</text>
</a>
</g>
</g>
<!-- cbpdntv.ConvBPDNRecTV.cnst_AT&#45;&gt;cbpdntv.ConvBPDNRecTV.cnst_A0T -->
<g id="edge10" class="edge">
<title>cbpdntv.ConvBPDNRecTV.cnst_AT&#45;&gt;cbpdntv.ConvBPDNRecTV.cnst_A0T</title>
<path fill="none" stroke="#d88c8c" stroke-width="2" d="M732.89,-385.94C752.75,-380.99 774.43,-375.58 794.8,-370.5"/>
<polygon fill="#d88c8c" stroke="#d88c8c" stroke-width="2" points="795.8219,-373.8525 804.68,-368.04 794.1306,-367.0599 795.8219,-373.8525"/>
</g>
<!-- cbpdntv.ConvBPDNRecTV.cnst_A1T -->
<g id="node14" class="node">
<title>cbpdntv.ConvBPDNRecTV.cnst_A1T</title>
<g id="a_node14"><a xlink:href="../../sporco.admm.cbpdntv.html#sporco.admm.cbpdntv.ConvBPDNRecTV.cnst_A1T" xlink:title="cbpdntv.ConvBPDNRecTV.cnst_A1T" target="_top">
<path fill="#d88c8c" stroke="#000000" stroke-width=".25" d="M953,-422C953,-422 801,-422 801,-422 795,-422 789,-416 789,-410 789,-410 789,-398 789,-398 789,-392 795,-386 801,-386 801,-386 953,-386 953,-386 959,-386 965,-392 965,-398 965,-398 965,-410 965,-410 965,-416 959,-422 953,-422"/>
<text text-anchor="middle" x="877" y="-401.8" font-family="Vera Sans, DejaVu Sans, Liberation Sans, Arial, Helvetica, sans" font-size="9.00" fill="#000000">cbpdntv.ConvBPDNRecTV.cnst_A1T</text>
</a>
</g>
</g>
<!-- cbpdntv.ConvBPDNRecTV.cnst_AT&#45;&gt;cbpdntv.ConvBPDNRecTV.cnst_A1T -->
<g id="edge11" class="edge">
<title>cbpdntv.ConvBPDNRecTV.cnst_AT&#45;&gt;cbpdntv.ConvBPDNRecTV.cnst_A1T</title>
<path fill="none" stroke="#d88c8c" stroke-width="2" d="M745.13,-404C756.12,-404 767.45,-404 778.64,-404"/>
<polygon fill="#d88c8c" stroke="#d88c8c" stroke-width="2" points="778.86,-407.5001 788.86,-404 778.86,-400.5001 778.86,-407.5001"/>
</g>
<!-- cbpdntv.ConvBPDNRecTV.block_sep0 -->
<g id="node15" class="node">
<title>cbpdntv.ConvBPDNRecTV.block_sep0</title>
<g id="a_node15"><a xlink:href="../../sporco.admm.cbpdntv.html#sporco.admm.cbpdntv.ConvBPDNRecTV.block_sep0" xlink:title="cbpdntv.ConvBPDNRecTV.block_sep0" target="_top">
<path fill="#d88c8c" stroke="#000000" stroke-width=".25" d="M958,-98C958,-98 796,-98 796,-98 790,-98 784,-92 784,-86 784,-86 784,-74 784,-74 784,-68 790,-62 796,-62 796,-62 958,-62 958,-62 964,-62 970,-68 970,-74 970,-74 970,-86 970,-86 970,-92 964,-98 958,-98"/>
<text text-anchor="middle" x="877" y="-77.8" font-family="Vera Sans, DejaVu Sans, Liberation Sans, Arial, Helvetica, sans" font-size="9.00" fill="#000000">cbpdntv.ConvBPDNRecTV.block_sep0</text>
</a>
</g>
</g>
<!-- cbpdntv.ConvBPDNRecTV.cnst_AT&#45;&gt;cbpdntv.ConvBPDNRecTV.block_sep0 -->
<g id="edge12" class="edge">
<title>cbpdntv.ConvBPDNRecTV.cnst_AT&#45;&gt;cbpdntv.ConvBPDNRecTV.block_sep0</title>
<path fill="none" stroke="#d88c8c" stroke-width="2" d="M738.25,-385.99C741.83,-383.38 745.13,-380.4 748,-377 826.18,-284.56 705.05,-198.78 784,-107 784.62,-106.28 785.27,-105.57 785.92,-104.88"/>
<polygon fill="#d88c8c" stroke="#d88c8c" stroke-width="2" points="788.3477,-107.407 793.59,-98.2 783.7503,-102.1283 788.3477,-107.407"/>
</g>
<!-- cbpdntv.ConvBPDNRecTV.obfn_dfd -->
<g id="node16" class="node">
<title>cbpdntv.ConvBPDNRecTV.obfn_dfd</title>
<g id="a_node16"><a xlink:href="../../sporco.admm.cbpdntv.html#sporco.admm.cbpdntv.ConvBPDNRecTV.obfn_dfd" xlink:title="cbpdntv.ConvBPDNRecTV.obfn_dfd" target="_top">
<path fill="#d88c8c" stroke="#000000" stroke-width=".25" d="M735.5,-172C735.5,-172 585.5,-172 585.5,-172 579.5,-172 573.5,-166 573.5,-160 573.5,-160 573.5,-148 573.5,-148 573.5,-142 579.5,-136 585.5,-136 585.5,-136 735.5,-136 735.5,-136 741.5,-136 747.5,-142 747.5,-148 747.5,-148 747.5,-160 747.5,-160 747.5,-166 741.5,-172 735.5,-172"/>
<text text-anchor="middle" x="660.5" y="-151.8" font-family="Vera Sans, DejaVu Sans, Liberation Sans, Arial, Helvetica, sans" font-size="9.00" fill="#000000">cbpdntv.ConvBPDNRecTV.obfn_dfd</text>
</a>
</g>
</g>
<!-- cbpdntv.ConvBPDNRecTV.obfn_dfd&#45;&gt;cbpdntv.ConvBPDNRecTV.obfn_fvarf -->
<g id="edge13" class="edge">
<title>cbpdntv.ConvBPDNRecTV.obfn_dfd&#45;&gt;cbpdntv.ConvBPDNRecTV.obfn_fvarf</title>
<path fill="none" stroke="#d88c8c" stroke-width="2" d="M747.62,-145.95C757.3,-145.06 767.22,-144.14 777.04,-143.23"/>
<polygon fill="#d88c8c" stroke="#d88c8c" stroke-width="2" points="777.5938,-146.6939 787.23,-142.29 776.9507,-139.7235 777.5938,-146.6939"/>
</g>
<!-- cbpdntv.ConvBPDNRecTV.eval_objfn -->
<g id="node17" class="node">
<title>cbpdntv.ConvBPDNRecTV.eval_objfn</title>
<g id="a_node17"><a xlink:href="../../sporco.admm.cbpdntv.html#sporco.admm.cbpdntv.ConvBPDNRecTV.eval_objfn" xlink:title="cbpdntv.ConvBPDNRecTV.eval_objfn" target="_top">
<path fill="#d88c8c" stroke="#000000" stroke-width=".25" d="M521.5,-260C521.5,-260 365.5,-260 365.5,-260 359.5,-260 353.5,-254 353.5,-248 353.5,-248 353.5,-236 353.5,-236 353.5,-230 359.5,-224 365.5,-224 365.5,-224 521.5,-224 521.5,-224 527.5,-224 533.5,-230 533.5,-236 533.5,-236 533.5,-248 533.5,-248 533.5,-254 527.5,-260 521.5,-260"/>
<text text-anchor="middle" x="443.5" y="-239.8" font-family="Vera Sans, DejaVu Sans, Liberation Sans, Arial, Helvetica, sans" font-size="9.00" fill="#000000">cbpdntv.ConvBPDNRecTV.eval_objfn</text>
</a>
</g>
</g>
<!-- cbpdntv.ConvBPDNRecTV.eval_objfn&#45;&gt;cbpdntv.ConvBPDNRecTV.obfn_dfd -->
<g id="edge14" class="edge">
<title>cbpdntv.ConvBPDNRecTV.eval_objfn&#45;&gt;cbpdntv.ConvBPDNRecTV.obfn_dfd</title>
<path fill="none" stroke="#d88c8c" stroke-width="2" d="M487.94,-223.98C522.2,-210.09 569.74,-190.81 606.24,-176"/>
<polygon fill="#d88c8c" stroke="#d88c8c" stroke-width="2" points="607.7942,-179.1468 615.75,-172.15 605.1674,-172.6584 607.7942,-179.1468"/>
</g>
<!-- cbpdntv.ConvBPDNRecTV.obfn_reg -->
<g id="node18" class="node">
<title>cbpdntv.ConvBPDNRecTV.obfn_reg</title>
<g id="a_node18"><a xlink:href="../../sporco.admm.cbpdntv.html#sporco.admm.cbpdntv.ConvBPDNRecTV.obfn_reg" xlink:title="cbpdntv.ConvBPDNRecTV.obfn_reg" target="_top">
<path fill="#d88c8c" stroke="#000000" stroke-width=".25" d="M736,-260C736,-260 585,-260 585,-260 579,-260 573,-254 573,-248 573,-248 573,-236 573,-236 573,-230 579,-224 585,-224 585,-224 736,-224 736,-224 742,-224 748,-230 748,-236 748,-236 748,-248 748,-248 748,-254 742,-260 736,-260"/>
<text text-anchor="middle" x="660.5" y="-239.8" font-family="Vera Sans, DejaVu Sans, Liberation Sans, Arial, Helvetica, sans" font-size="9.00" fill="#000000">cbpdntv.ConvBPDNRecTV.obfn_reg</text>
</a>
</g>
</g>
<!-- cbpdntv.ConvBPDNRecTV.eval_objfn&#45;&gt;cbpdntv.ConvBPDNRecTV.obfn_reg -->
<g id="edge15" class="edge">
<title>cbpdntv.ConvBPDNRecTV.eval_objfn&#45;&gt;cbpdntv.ConvBPDNRecTV.obfn_reg</title>
<path fill="none" stroke="#d88c8c" stroke-width="2" d="M533.64,-242C543.24,-242 553.03,-242 562.7,-242"/>
<polygon fill="#d88c8c" stroke="#d88c8c" stroke-width="2" points="562.73,-245.5001 572.73,-242 562.73,-238.5001 562.73,-245.5001"/>
</g>
<!-- cbpdntv.ConvBPDNRecTV.obfn_reg&#45;&gt;cbpdntv.ConvBPDNRecTV.obfn_g0var -->
<g id="edge16" class="edge">
<title>cbpdntv.ConvBPDNRecTV.obfn_reg&#45;&gt;cbpdntv.ConvBPDNRecTV.obfn_g0var</title>
<path fill="none" stroke="#d88c8c" stroke-width="2" d="M748.25,-242C756.76,-242 765.44,-242 774.08,-242"/>
<polygon fill="#d88c8c" stroke="#d88c8c" stroke-width="2" points="774.19,-245.5001 784.19,-242 774.19,-238.5001 774.19,-245.5001"/>
</g>
<!-- cbpdntv.ConvBPDNRecTV.obfn_reg&#45;&gt;cbpdntv.ConvBPDNRecTV.obfn_g1var -->
<g id="edge17" class="edge">
<title>cbpdntv.ConvBPDNRecTV.obfn_reg&#45;&gt;cbpdntv.ConvBPDNRecTV.obfn_g1var</title>
<path fill="none" stroke="#d88c8c" stroke-width="2" d="M732.89,-260.06C752.75,-265.01 774.43,-270.42 794.8,-275.5"/>
<polygon fill="#d88c8c" stroke="#d88c8c" stroke-width="2" points="794.1306,-278.9401 804.68,-277.96 795.8219,-272.1475 794.1306,-278.9401"/>
</g>
<!-- cbpdntv.ConvBPDNRecTV.ystep -->
<g id="node19" class="node">
<title>cbpdntv.ConvBPDNRecTV.ystep</title>
<g id="a_node19"><a xlink:href="../../sporco.admm.cbpdntv.html#sporco.admm.cbpdntv.ConvBPDNRecTV.ystep" xlink:title="cbpdntv.ConvBPDNRecTV.ystep" target="_top">
<path fill="#d88c8c" stroke="#000000" stroke-width=".25" d="M728,-111C728,-111 593,-111 593,-111 587,-111 581,-105 581,-99 581,-99 581,-87 581,-87 581,-81 587,-75 593,-75 593,-75 728,-75 728,-75 734,-75 740,-81 740,-87 740,-87 740,-99 740,-99 740,-105 734,-111 728,-111"/>
<text text-anchor="middle" x="660.5" y="-90.8" font-family="Vera Sans, DejaVu Sans, Liberation Sans, Arial, Helvetica, sans" font-size="9.00" fill="#000000">cbpdntv.ConvBPDNRecTV.ystep</text>
</a>
</g>
</g>
<!-- cbpdntv.ConvBPDNRecTV.ystep&#45;&gt;cbpdntv.ConvBPDNRecTV.block_sep1 -->
<g id="edge18" class="edge">
<title>cbpdntv.ConvBPDNRecTV.ystep&#45;&gt;cbpdntv.ConvBPDNRecTV.block_sep1</title>
<path fill="none" stroke="#d88c8c" stroke-width="2" d="M720.4,-74.929C729.66,-72.015 739.11,-68.977 748,-66 764.13,-60.602 767.82,-58.263 784,-53 790.09,-51.02 796.42,-49.032 802.79,-47.082"/>
<polygon fill="#d88c8c" stroke="#d88c8c" stroke-width="2" points="804.2406,-50.3 812.8,-44.056 802.215,-43.5995 804.2406,-50.3"/>
</g>
<!-- cbpdntv.ConvBPDNRecTV.ystep&#45;&gt;cbpdntv.ConvBPDNRecTV.block_sep0 -->
<g id="edge19" class="edge">
<title>cbpdntv.ConvBPDNRecTV.ystep&#45;&gt;cbpdntv.ConvBPDNRecTV.block_sep0</title>
<path fill="none" stroke="#d88c8c" stroke-width="2" d="M740.19,-88.215C751.09,-87.561 762.39,-86.882 773.63,-86.207"/>
<polygon fill="#d88c8c" stroke="#d88c8c" stroke-width="2" points="774.1478,-89.6823 783.92,-85.589 773.7281,-82.6949 774.1478,-89.6823"/>
</g>
<!-- cbpdntv.ConvBPDNRecTV.itstat_extra -->
<g id="node20" class="node">
<title>cbpdntv.ConvBPDNRecTV.itstat_extra</title>
<g id="a_node20"><a xlink:href="../../sporco.admm.cbpdntv.html#sporco.admm.cbpdntv.ConvBPDNRecTV.itstat_extra" xlink:title="cbpdntv.ConvBPDNRecTV.itstat_extra" target="_top">
<path fill="#d88c8c" stroke="#000000" stroke-width=".25" d="M525,-422C525,-422 362,-422 362,-422 356,-422 350,-416 350,-410 350,-410 350,-398 350,-398 350,-392 356,-386 362,-386 362,-386 525,-386 525,-386 531,-386 537,-392 537,-398 537,-398 537,-410 537,-410 537,-416 531,-422 525,-422"/>
<text text-anchor="middle" x="443.5" y="-401.8" font-family="Vera Sans, DejaVu Sans, Liberation Sans, Arial, Helvetica, sans" font-size="9.00" fill="#000000">cbpdntv.ConvBPDNRecTV.itstat_extra</text>
</a>
</g>
</g>
<!-- cbpdntv.ConvBPDNRecTV.xstep -->
<g id="node21" class="node">
<title>cbpdntv.ConvBPDNRecTV.xstep</title>
<g id="a_node21"><a xlink:href="../../sporco.admm.cbpdntv.html#sporco.admm.cbpdntv.ConvBPDNRecTV.xstep" xlink:title="cbpdntv.ConvBPDNRecTV.xstep" target="_top">
<path fill="#d88c8c" stroke="#000000" stroke-width=".25" d="M728,-57C728,-57 593,-57 593,-57 587,-57 581,-51 581,-45 581,-45 581,-33 581,-33 581,-27 587,-21 593,-21 593,-21 728,-21 728,-21 734,-21 740,-27 740,-33 740,-33 740,-45 740,-45 740,-51 734,-57 728,-57"/>
<text text-anchor="middle" x="660.5" y="-36.8" font-family="Vera Sans, DejaVu Sans, Liberation Sans, Arial, Helvetica, sans" font-size="9.00" fill="#000000">cbpdntv.ConvBPDNRecTV.xstep</text>
</a>
</g>
</g>
<!-- cbpdntv.ConvBPDNRecTV.xstep&#45;&gt;cbpdntv.ConvBPDNRecTV.block_sep1 -->
<g id="edge20" class="edge">
<title>cbpdntv.ConvBPDNRecTV.xstep&#45;&gt;cbpdntv.ConvBPDNRecTV.block_sep1</title>
<path fill="none" stroke="#d88c8c" stroke-width="2" d="M740.19,-34.215C751.09,-33.561 762.39,-32.882 773.63,-32.207"/>
<polygon fill="#d88c8c" stroke="#d88c8c" stroke-width="2" points="774.1478,-35.6823 783.92,-31.589 773.7281,-28.6949 774.1478,-35.6823"/>
</g>
<!-- cbpdntv.ConvBPDNRecTV.xstep&#45;&gt;cbpdntv.ConvBPDNRecTV.block_sep0 -->
<g id="edge21" class="edge">
<title>cbpdntv.ConvBPDNRecTV.xstep&#45;&gt;cbpdntv.ConvBPDNRecTV.block_sep0</title>
<path fill="none" stroke="#d88c8c" stroke-width="2" d="M740.19,-54.092C751.2,-56.176 762.63,-58.34 773.98,-60.49"/>
<polygon fill="#d88c8c" stroke="#d88c8c" stroke-width="2" points="773.4433,-63.9505 783.92,-62.373 774.7462,-57.0728 773.4433,-63.9505"/>
</g>
<!-- admm.ADMM.getmin -->
<g id="node22" class="node">
<title>admm.ADMM.getmin</title>
<g id="a_node22"><a xlink:href="../../sporco.admm.admm.html#sporco.admm.admm.ADMM.getmin" xlink:title="admm.ADMM.getmin" target="_top">
<path fill="#8ed88c" stroke="#000000" stroke-width=".25" d="M274,-500C274,-500 187,-500 187,-500 181,-500 175,-494 175,-488 175,-488 175,-476 175,-476 175,-470 181,-464 187,-464 187,-464 274,-464 274,-464 280,-464 286,-470 286,-476 286,-476 286,-488 286,-488 286,-494 280,-500 274,-500"/>
<text text-anchor="middle" x="230.5" y="-479.8" font-family="Vera Sans, DejaVu Sans, Liberation Sans, Arial, Helvetica, sans" font-size="9.00" fill="#000000">admm.ADMM.getmin</text>
</a>
</g>
</g>
<!-- admm.ADMM.display_status -->
<g id="node23" class="node">
<title>admm.ADMM.display_status</title>
<g id="a_node23"><a xlink:href="../../sporco.admm.admm.html#sporco.admm.admm.ADMM.display_status" xlink:title="admm.ADMM.display_status" target="_top">
<path fill="#8ed88c" stroke="#000000" stroke-width=".25" d="M291.5,-554C291.5,-554 169.5,-554 169.5,-554 163.5,-554 157.5,-548 157.5,-542 157.5,-542 157.5,-530 157.5,-530 157.5,-524 163.5,-518 169.5,-518 169.5,-518 291.5,-518 291.5,-518 297.5,-518 303.5,-524 303.5,-530 303.5,-530 303.5,-542 303.5,-542 303.5,-548 297.5,-554 291.5,-554"/>
<text text-anchor="middle" x="230.5" y="-533.8" font-family="Vera Sans, DejaVu Sans, Liberation Sans, Arial, Helvetica, sans" font-size="9.00" fill="#000000">admm.ADMM.display_status</text>
</a>
</g>
</g>
<!-- admm.ADMM.iteration_stats -->
<g id="node24" class="node">
<title>admm.ADMM.iteration_stats</title>
<g id="a_node24"><a xlink:href="../../sporco.admm.admm.html#sporco.admm.admm.ADMM.iteration_stats" xlink:title="admm.ADMM.iteration_stats" target="_top">
<path fill="#8ed88c" stroke="#000000" stroke-width=".25" d="M292,-608C292,-608 169,-608 169,-608 163,-608 157,-602 157,-596 157,-596 157,-584 157,-584 157,-578 163,-572 169,-572 169,-572 292,-572 292,-572 298,-572 304,-578 304,-584 304,-584 304,-596 304,-596 304,-602 298,-608 292,-608"/>
<text text-anchor="middle" x="230.5" y="-587.8" font-family="Vera Sans, DejaVu Sans, Liberation Sans, Arial, Helvetica, sans" font-size="9.00" fill="#000000">admm.ADMM.iteration_stats</text>
</a>
</g>
</g>
<!-- admm.ADMM.iteration_stats&#45;&gt;cbpdntv.ConvBPDNRecTV.eval_objfn -->
<g id="edge35" class="edge">
<title>admm.ADMM.iteration_stats&#45;&gt;cbpdntv.ConvBPDNRecTV.eval_objfn</title>
<path fill="none" stroke="#8ed88c" stroke-width="2" d="M304.1,-572.33C307.77,-569.64 311.12,-566.55 314,-563 389.14,-470.32 275.3,-394.93 342,-296 350.88,-282.83 364.04,-272.63 377.97,-264.83"/>
<polygon fill="#8ed88c" stroke="#8ed88c" stroke-width="2" points="379.9363,-267.7529 387.2,-260.04 376.7118,-261.5397 379.9363,-267.7529"/>
</g>
<!-- admm.ADMM.iteration_stats&#45;&gt;cbpdntv.ConvBPDNRecTV.itstat_extra -->
<g id="edge36" class="edge">
<title>admm.ADMM.iteration_stats&#45;&gt;cbpdntv.ConvBPDNRecTV.itstat_extra</title>
<path fill="none" stroke="#8ed88c" stroke-width="2" d="M303.52,-571.83C307.34,-569.26 310.88,-566.34 314,-563 348.78,-525.86 309.69,-491.3 342,-452 350.67,-441.46 362.18,-433.09 374.34,-426.5"/>
<polygon fill="#8ed88c" stroke="#8ed88c" stroke-width="2" points="375.9146,-429.6259 383.28,-422.01 372.7729,-423.3705 375.9146,-429.6259"/>
</g>
<!-- admm.ADMM.ustep -->
<g id="node25" class="node">
<title>admm.ADMM.ustep</title>
<g id="a_node25"><a xlink:href="../../sporco.admm.admm.html#sporco.admm.admm.ADMM.ustep" xlink:title="admm.ADMM.ustep" target="_top">
<path fill="#8ed88c" stroke="#000000" stroke-width=".25" d="M271.5,-662C271.5,-662 189.5,-662 189.5,-662 183.5,-662 177.5,-656 177.5,-650 177.5,-650 177.5,-638 177.5,-638 177.5,-632 183.5,-626 189.5,-626 189.5,-626 271.5,-626 271.5,-626 277.5,-626 283.5,-632 283.5,-638 283.5,-638 283.5,-650 283.5,-650 283.5,-656 277.5,-662 271.5,-662"/>
<text text-anchor="middle" x="230.5" y="-641.8" font-family="Vera Sans, DejaVu Sans, Liberation Sans, Arial, Helvetica, sans" font-size="9.00" fill="#000000">admm.ADMM.ustep</text>
</a>
</g>
</g>
<!-- admm.ADMM.rsdl_r -->
<g id="node26" class="node">
<title>admm.ADMM.rsdl_r</title>
<g id="a_node26"><a xlink:href="../../sporco.admm.admm.html#sporco.admm.admm.ADMM.rsdl_r" xlink:title="admm.ADMM.rsdl_r" target="_top">
<path fill="#8ed88c" stroke="#000000" stroke-width=".25" d="M483.5,-500C483.5,-500 403.5,-500 403.5,-500 397.5,-500 391.5,-494 391.5,-488 391.5,-488 391.5,-476 391.5,-476 391.5,-470 397.5,-464 403.5,-464 403.5,-464 483.5,-464 483.5,-464 489.5,-464 495.5,-470 495.5,-476 495.5,-476 495.5,-488 495.5,-488 495.5,-494 489.5,-500 483.5,-500"/>
<text text-anchor="middle" x="443.5" y="-479.8" font-family="Vera Sans, DejaVu Sans, Liberation Sans, Arial, Helvetica, sans" font-size="9.00" fill="#000000">admm.ADMM.rsdl_r</text>
</a>
</g>
</g>
<!-- admm.ADMM.ustep&#45;&gt;admm.ADMM.rsdl_r -->
<g id="edge22" class="edge">
<title>admm.ADMM.ustep&#45;&gt;admm.ADMM.rsdl_r</title>
<path fill="none" stroke="#8ed88c" stroke-width="2" d="M283.65,-635.53C294.91,-631.53 305.85,-625.65 314,-617 348.01,-580.92 307.05,-544.17 342,-509 352.6,-498.33 366.9,-491.74 381.42,-487.7"/>
<polygon fill="#8ed88c" stroke="#8ed88c" stroke-width="2" points="382.5619,-491.0255 391.47,-485.29 380.9295,-484.2185 382.5619,-491.0255"/>
</g>
<!-- admm.ADMM.rsdl_r&#45;&gt;cbpdntv.ConvBPDNRecTV.cnst_B -->
<g id="edge37" class="edge">
<title>admm.ADMM.rsdl_r&#45;&gt;cbpdntv.ConvBPDNRecTV.cnst_B</title>
<path fill="none" stroke="#8ed88c" stroke-width="2" d="M495.87,-473.23C510.44,-468.78 525.43,-462.08 537,-452 564.87,-427.71 544.99,-401.14 573,-377 574.32,-375.86 575.7,-374.77 577.11,-373.72"/>
<polygon fill="#8ed88c" stroke="#8ed88c" stroke-width="2" points="579.1226,-376.5864 585.61,-368.21 575.315,-370.7126 579.1226,-376.5864"/>
</g>
<!-- admm.ADMM.compute_residuals -->
<g id="node27" class="node">
<title>admm.ADMM.compute_residuals</title>
<g id="a_node27"><a xlink:href="../../sporco.admm.admm.html#sporco.admm.admm.ADMM.compute_residuals" xlink:title="admm.ADMM.compute_residuals" target="_top">
<path fill="#8ed88c" stroke="#000000" stroke-width=".25" d="M302,-716C302,-716 159,-716 159,-716 153,-716 147,-710 147,-704 147,-704 147,-692 147,-692 147,-686 153,-680 159,-680 159,-680 302,-680 302,-680 308,-680 314,-686 314,-692 314,-692 314,-704 314,-704 314,-710 308,-716 302,-716"/>
<text text-anchor="middle" x="230.5" y="-695.8" font-family="Vera Sans, DejaVu Sans, Liberation Sans, Arial, Helvetica, sans" font-size="9.00" fill="#000000">admm.ADMM.compute_residuals</text>
</a>
</g>
</g>
<!-- admm.ADMM.compute_residuals&#45;&gt;admm.ADMM.rsdl_r -->
<g id="edge23" class="edge">
<title>admm.ADMM.compute_residuals&#45;&gt;admm.ADMM.rsdl_r</title>
<path fill="none" stroke="#8ed88c" stroke-width="2" d="M304.2,-679.83C307.79,-677.27 311.1,-674.34 314,-671 361.88,-615.81 292.68,-562.91 342,-509 352.25,-497.8 366.57,-491.02 381.23,-486.99"/>
<polygon fill="#8ed88c" stroke="#8ed88c" stroke-width="2" points="382.4519,-490.2986 391.39,-484.61 380.8553,-483.4831 382.4519,-490.2986"/>
</g>
<!-- admm.ADMM.rsdl_sn -->
<g id="node28" class="node">
<title>admm.ADMM.rsdl_sn</title>
<g id="a_node28"><a xlink:href="../../sporco.admm.admm.html#sporco.admm.admm.ADMM.rsdl_sn" xlink:title="admm.ADMM.rsdl_sn" target="_top">
<path fill="#8ed88c" stroke="#000000" stroke-width=".25" d="M487.5,-689C487.5,-689 399.5,-689 399.5,-689 393.5,-689 387.5,-683 387.5,-677 387.5,-677 387.5,-665 387.5,-665 387.5,-659 393.5,-653 399.5,-653 399.5,-653 487.5,-653 487.5,-653 493.5,-653 499.5,-659 499.5,-665 499.5,-665 499.5,-677 499.5,-677 499.5,-683 493.5,-689 487.5,-689"/>
<text text-anchor="middle" x="443.5" y="-668.8" font-family="Vera Sans, DejaVu Sans, Liberation Sans, Arial, Helvetica, sans" font-size="9.00" fill="#000000">admm.ADMM.rsdl_sn</text>
</a>
</g>
</g>
<!-- admm.ADMM.compute_residuals&#45;&gt;admm.ADMM.rsdl_sn -->
<g id="edge24" class="edge">
<title>admm.ADMM.compute_residuals&#45;&gt;admm.ADMM.rsdl_sn</title>
<path fill="none" stroke="#8ed88c" stroke-width="2" d="M314.07,-687.41C335.11,-684.74 357.4,-681.91 377.45,-679.37"/>
<polygon fill="#8ed88c" stroke="#8ed88c" stroke-width="2" points="377.919,-682.8387 387.4,-678.11 377.0395,-675.8941 377.919,-682.8387"/>
</g>
<!-- admm.ADMM.rsdl_s -->
<g id="node29" class="node">
<title>admm.ADMM.rsdl_s</title>
<g id="a_node29"><a xlink:href="../../sporco.admm.admm.html#sporco.admm.admm.ADMM.rsdl_s" xlink:title="admm.ADMM.rsdl_s" target="_top">
<path fill="#8ed88c" stroke="#000000" stroke-width=".25" d="M484.5,-608C484.5,-608 402.5,-608 402.5,-608 396.5,-608 390.5,-602 390.5,-596 390.5,-596 390.5,-584 390.5,-584 390.5,-578 396.5,-572 402.5,-572 402.5,-572 484.5,-572 484.5,-572 490.5,-572 496.5,-578 496.5,-584 496.5,-584 496.5,-596 496.5,-596 496.5,-602 490.5,-608 484.5,-608"/>
<text text-anchor="middle" x="443.5" y="-587.8" font-family="Vera Sans, DejaVu Sans, Liberation Sans, Arial, Helvetica, sans" font-size="9.00" fill="#000000">admm.ADMM.rsdl_s</text>
</a>
</g>
</g>
<!-- admm.ADMM.compute_residuals&#45;&gt;admm.ADMM.rsdl_s -->
<g id="edge25" class="edge">
<title>admm.ADMM.compute_residuals&#45;&gt;admm.ADMM.rsdl_s</title>
<path fill="none" stroke="#8ed88c" stroke-width="2" d="M296.49,-679.84C302.58,-677.23 308.51,-674.29 314,-671 328.83,-662.11 328.01,-654.16 342,-644 358.08,-632.32 377.01,-621.56 394.13,-612.77"/>
<polygon fill="#8ed88c" stroke="#8ed88c" stroke-width="2" points="396.0706,-615.7117 403.43,-608.09 392.9239,-609.4588 396.0706,-615.7117"/>
</g>
<!-- admm.ADMM.rsdl_rn -->
<g id="node30" class="node">
<title>admm.ADMM.rsdl_rn</title>
<g id="a_node30"><a xlink:href="../../sporco.admm.admm.html#sporco.admm.admm.ADMM.rsdl_rn" xlink:title="admm.ADMM.rsdl_rn" target="_top">
<path fill="#8ed88c" stroke="#000000" stroke-width=".25" d="M486.5,-554C486.5,-554 400.5,-554 400.5,-554 394.5,-554 388.5,-548 388.5,-542 388.5,-542 388.5,-530 388.5,-530 388.5,-524 394.5,-518 400.5,-518 400.5,-518 486.5,-518 486.5,-518 492.5,-518 498.5,-524 498.5,-530 498.5,-530 498.5,-542 498.5,-542 498.5,-548 492.5,-554 486.5,-554"/>
<text text-anchor="middle" x="443.5" y="-533.8" font-family="Vera Sans, DejaVu Sans, Liberation Sans, Arial, Helvetica, sans" font-size="9.00" fill="#000000">admm.ADMM.rsdl_rn</text>
</a>
</g>
</g>
<!-- admm.ADMM.compute_residuals&#45;&gt;admm.ADMM.rsdl_rn -->
<g id="edge26" class="edge">
<title>admm.ADMM.compute_residuals&#45;&gt;admm.ADMM.rsdl_rn</title>
<path fill="none" stroke="#8ed88c" stroke-width="2" d="M303.5,-679.8C307.32,-677.24 310.86,-674.33 314,-671 348.01,-634.92 307.05,-598.17 342,-563 351.88,-553.06 364.97,-546.66 378.46,-542.56"/>
<polygon fill="#8ed88c" stroke="#8ed88c" stroke-width="2" points="379.5288,-545.898 388.31,-539.97 377.7487,-539.1281 379.5288,-545.898"/>
</g>
<!-- admm.ADMM.rsdl_sn&#45;&gt;cbpdntv.ConvBPDNRecTV.cnst_AT -->
<g id="edge38" class="edge">
<title>admm.ADMM.rsdl_sn&#45;&gt;cbpdntv.ConvBPDNRecTV.cnst_AT</title>
<path fill="none" stroke="#8ed88c" stroke-width="2" d="M485.34,-652.8C502.74,-643.81 522.27,-631.7 537,-617 592.85,-561.25 632.38,-475.13 650.08,-431.44"/>
<polygon fill="#8ed88c" stroke="#8ed88c" stroke-width="2" points="653.3749,-432.6259 653.81,-422.04 646.8684,-430.044 653.3749,-432.6259"/>
</g>
<!-- admm.ADMM.rsdl_s&#45;&gt;cbpdntv.ConvBPDNRecTV.cnst_B -->
<g id="edge39" class="edge">
<title>admm.ADMM.rsdl_s&#45;&gt;cbpdntv.ConvBPDNRecTV.cnst_B</title>
<path fill="none" stroke="#8ed88c" stroke-width="2" d="M496.54,-585.08C511.49,-581.19 526.51,-574.47 537,-563 593.8,-500.84 516.77,-439.67 573,-377 573.65,-376.28 574.32,-375.57 575.01,-374.88"/>
<polygon fill="#8ed88c" stroke="#8ed88c" stroke-width="2" points="577.5551,-377.3147 582.99,-368.22 573.0699,-371.9404 577.5551,-377.3147"/>
</g>
<!-- admm.ADMM.rsdl_s&#45;&gt;cbpdntv.ConvBPDNRecTV.cnst_AT -->
<g id="edge40" class="edge">
<title>admm.ADMM.rsdl_s&#45;&gt;cbpdntv.ConvBPDNRecTV.cnst_AT</title>
<path fill="none" stroke="#8ed88c" stroke-width="2" d="M496.52,-580.88C510.47,-576.88 524.97,-571.15 537,-563 587.86,-528.52 627.1,-466.42 646.7,-430.89"/>
<polygon fill="#8ed88c" stroke="#8ed88c" stroke-width="2" points="649.8072,-432.502 651.48,-422.04 643.6482,-429.1753 649.8072,-432.502"/>
</g>
<!-- admm.ADMM.rsdl_rn&#45;&gt;cbpdntv.ConvBPDNRecTV.cnst_B -->
<g id="edge41" class="edge">
<title>admm.ADMM.rsdl_rn&#45;&gt;cbpdntv.ConvBPDNRecTV.cnst_B</title>
<path fill="none" stroke="#8ed88c" stroke-width="2" d="M498.94,-529.79C512.9,-525.79 526.8,-519.35 537,-509 579.68,-465.68 530.72,-420.7 573,-377 573.8,-376.17 574.63,-375.37 575.48,-374.59"/>
<polygon fill="#8ed88c" stroke="#8ed88c" stroke-width="2" points="577.93,-377.1188 583.68,-368.22 573.6357,-371.5908 577.93,-377.1188"/>
</g>
<!-- admm.ADMM.rsdl_rn&#45;&gt;cbpdntv.ConvBPDNRecTV.cnst_c -->
<g id="edge42" class="edge">
<title>admm.ADMM.rsdl_rn&#45;&gt;cbpdntv.ConvBPDNRecTV.cnst_c</title>
<path fill="none" stroke="#8ed88c" stroke-width="2" d="M498.98,-530.42C513.11,-526.44 527.08,-519.85 537,-509 593.8,-446.84 516.77,-385.67 573,-323 573.65,-322.28 574.32,-321.57 575.01,-320.88"/>
<polygon fill="#8ed88c" stroke="#8ed88c" stroke-width="2" points="577.5551,-323.3147 582.99,-314.22 573.0699,-317.9404 577.5551,-323.3147"/>
</g>
<!-- admm.ADMM.display_start -->
<g id="node31" class="node">
<title>admm.ADMM.display_start</title>
<g id="a_node31"><a xlink:href="../../sporco.admm.admm.html#sporco.admm.admm.ADMM.display_start" xlink:title="admm.ADMM.display_start" target="_top">
<path fill="#8ed88c" stroke="#000000" stroke-width=".25" d="M287.5,-770C287.5,-770 173.5,-770 173.5,-770 167.5,-770 161.5,-764 161.5,-758 161.5,-758 161.5,-746 161.5,-746 161.5,-740 167.5,-734 173.5,-734 173.5,-734 287.5,-734 287.5,-734 293.5,-734 299.5,-740 299.5,-746 299.5,-746 299.5,-758 299.5,-758 299.5,-764 293.5,-770 287.5,-770"/>
<text text-anchor="middle" x="230.5" y="-749.8" font-family="Vera Sans, DejaVu Sans, Liberation Sans, Arial, Helvetica, sans" font-size="9.00" fill="#000000">admm.ADMM.display_start</text>
</a>
</g>
</g>
<!-- admm.ADMM.solve -->
<g id="node32" class="node">
<title>admm.ADMM.solve</title>
<g id="a_node32"><a xlink:href="../../sporco.admm.admm.html#sporco.admm.admm.ADMM.solve" xlink:title="admm.ADMM.solve" target="_top">
<path fill="#8ed88c" stroke="#000000" stroke-width=".25" d="M99,-608C99,-608 20,-608 20,-608 14,-608 8,-602 8,-596 8,-596 8,-584 8,-584 8,-578 14,-572 20,-572 20,-572 99,-572 99,-572 105,-572 111,-578 111,-584 111,-584 111,-596 111,-596 111,-602 105,-608 99,-608"/>
<text text-anchor="middle" x="59.5" y="-587.8" font-family="Vera Sans, DejaVu Sans, Liberation Sans, Arial, Helvetica, sans" font-size="9.00" fill="#000000">admm.ADMM.solve</text>
</a>
</g>
</g>
<!-- admm.ADMM.solve&#45;&gt;cbpdntv.ConvBPDNRecTV.relax_AX -->
<g id="edge43" class="edge">
<title>admm.ADMM.solve&#45;&gt;cbpdntv.ConvBPDNRecTV.relax_AX</title>
<path fill="none" stroke="#8ed88c" stroke-width="2" d="M67.101,-571.89C79.824,-543.52 107.94,-488.39 147,-455 211.06,-400.24 301.48,-364.41 365.59,-344.08"/>
<polygon fill="#8ed88c" stroke="#8ed88c" stroke-width="2" points="366.744,-347.3865 375.25,-341.07 364.6615,-340.7034 366.744,-347.3865"/>
</g>
<!-- admm.ADMM.solve&#45;&gt;cbpdntv.ConvBPDNRecTV.ystep -->
<g id="edge44" class="edge">
<title>admm.ADMM.solve&#45;&gt;cbpdntv.ConvBPDNRecTV.ystep</title>
<path fill="none" stroke="#8ed88c" stroke-width="2" d="M62.769,-571.89C70.925,-530.71 95.33,-428.32 147,-360 253.44,-219.24 455.53,-145.95 571.92,-113.8"/>
<polygon fill="#8ed88c" stroke="#8ed88c" stroke-width="2" points="573.1356,-117.0968 581.87,-111.1 571.3024,-110.3411 573.1356,-117.0968"/>
</g>
<!-- admm.ADMM.solve&#45;&gt;cbpdntv.ConvBPDNRecTV.xstep -->
<g id="edge45" class="edge">
<title>admm.ADMM.solve&#45;&gt;cbpdntv.ConvBPDNRecTV.xstep</title>
<path fill="none" stroke="#8ed88c" stroke-width="2" d="M61.743,-571.59C70.215,-504.59 102.09,-274.68 147,-218 249.98,-88.042 453.35,-52.151 570.9,-42.424"/>
<polygon fill="#8ed88c" stroke="#8ed88c" stroke-width="2" points="571.2534,-45.9071 580.95,-41.638 570.7075,-38.9285 571.2534,-45.9071"/>
</g>
<!-- admm.ADMM.solve&#45;&gt;admm.ADMM.getmin -->
<g id="edge27" class="edge">
<title>admm.ADMM.solve&#45;&gt;admm.ADMM.getmin</title>
<path fill="none" stroke="#8ed88c" stroke-width="2" d="M74.825,-571.77C91.047,-553.54 118.24,-525.84 147,-509 152.74,-505.64 158.95,-502.64 165.31,-499.97"/>
<polygon fill="#8ed88c" stroke="#8ed88c" stroke-width="2" points="166.6527,-503.2031 174.69,-496.3 164.1021,-496.6843 166.6527,-503.2031"/>
</g>
<!-- admm.ADMM.solve&#45;&gt;admm.ADMM.display_status -->
<g id="edge28" class="edge">
<title>admm.ADMM.solve&#45;&gt;admm.ADMM.display_status</title>
<path fill="none" stroke="#8ed88c" stroke-width="2" d="M111.27,-573.65C127.77,-568.44 146.28,-562.6 163.69,-557.1"/>
<polygon fill="#8ed88c" stroke="#8ed88c" stroke-width="2" points="164.7607,-560.4323 173.24,-554.08 162.6501,-553.7581 164.7607,-560.4323"/>
</g>
<!-- admm.ADMM.solve&#45;&gt;admm.ADMM.iteration_stats -->
<g id="edge29" class="edge">
<title>admm.ADMM.solve&#45;&gt;admm.ADMM.iteration_stats</title>
<path fill="none" stroke="#8ed88c" stroke-width="2" d="M111.27,-590C122.48,-590 134.62,-590 146.7,-590"/>
<polygon fill="#8ed88c" stroke="#8ed88c" stroke-width="2" points="146.83,-593.5001 156.83,-590 146.83,-586.5001 146.83,-593.5001"/>
</g>
<!-- admm.ADMM.solve&#45;&gt;admm.ADMM.ustep -->
<g id="edge30" class="edge">
<title>admm.ADMM.solve&#45;&gt;admm.ADMM.ustep</title>
<path fill="none" stroke="#8ed88c" stroke-width="2" d="M111.27,-606.35C129.1,-611.98 149.26,-618.35 167.86,-624.22"/>
<polygon fill="#8ed88c" stroke="#8ed88c" stroke-width="2" points="166.8403,-627.5683 177.43,-627.24 168.9469,-620.8928 166.8403,-627.5683"/>
</g>
<!-- admm.ADMM.solve&#45;&gt;admm.ADMM.compute_residuals -->
<g id="edge31" class="edge">
<title>admm.ADMM.solve&#45;&gt;admm.ADMM.compute_residuals</title>
<path fill="none" stroke="#8ed88c" stroke-width="2" d="M74.825,-608.23C91.047,-626.46 118.24,-654.16 147,-671 149.83,-672.66 152.77,-674.22 155.78,-675.71"/>
<polygon fill="#8ed88c" stroke="#8ed88c" stroke-width="2" points="154.468,-678.9582 165.02,-679.91 157.3647,-672.5856 154.468,-678.9582"/>
</g>
<!-- admm.ADMM.solve&#45;&gt;admm.ADMM.display_start -->
<g id="edge32" class="edge">
<title>admm.ADMM.solve&#45;&gt;admm.ADMM.display_start</title>
<path fill="none" stroke="#8ed88c" stroke-width="2" d="M66.497,-608.14C78.562,-637.06 106,-693.56 147,-725 148.63,-726.25 150.32,-727.45 152.07,-728.59"/>
<polygon fill="#8ed88c" stroke="#8ed88c" stroke-width="2" points="150.7245,-731.8559 161.13,-733.85 154.2392,-725.8022 150.7245,-731.8559"/>
</g>
<!-- admm.ADMM.display_end -->
<g id="node33" class="node">
<title>admm.ADMM.display_end</title>
<g id="a_node33"><a xlink:href="../../sporco.admm.admm.html#sporco.admm.admm.ADMM.display_end" xlink:title="admm.ADMM.display_end" target="_top">
<path fill="#8ed88c" stroke="#000000" stroke-width=".25" d="M285.5,-824C285.5,-824 175.5,-824 175.5,-824 169.5,-824 163.5,-818 163.5,-812 163.5,-812 163.5,-800 163.5,-800 163.5,-794 169.5,-788 175.5,-788 175.5,-788 285.5,-788 285.5,-788 291.5,-788 297.5,-794 297.5,-800 297.5,-800 297.5,-812 297.5,-812 297.5,-818 291.5,-824 285.5,-824"/>
<text text-anchor="middle" x="230.5" y="-803.8" font-family="Vera Sans, DejaVu Sans, Liberation Sans, Arial, Helvetica, sans" font-size="9.00" fill="#000000">admm.ADMM.display_end</text>
</a>
</g>
</g>
<!-- admm.ADMM.solve&#45;&gt;admm.ADMM.display_end -->
<g id="edge33" class="edge">
<title>admm.ADMM.solve&#45;&gt;admm.ADMM.display_end</title>
<path fill="none" stroke="#8ed88c" stroke-width="2" d="M62.864,-608.25C70.725,-645.74 93.82,-731.88 147,-779 149.38,-781.1 151.92,-783.04 154.58,-784.83"/>
<polygon fill="#8ed88c" stroke="#8ed88c" stroke-width="2" points="153.0655,-787.9996 163.46,-790.05 156.6128,-781.965 153.0655,-787.9996"/>
</g>
<!-- admm.ADMM.update_rho -->
<g id="node34" class="node">
<title>admm.ADMM.update_rho</title>
<g id="a_node34"><a xlink:href="../../sporco.admm.admm.html#sporco.admm.admm.ADMM.update_rho" xlink:title="admm.ADMM.update_rho" target="_top">
<path fill="#8ed88c" stroke="#000000" stroke-width=".25" d="M285,-878C285,-878 176,-878 176,-878 170,-878 164,-872 164,-866 164,-866 164,-854 164,-854 164,-848 170,-842 176,-842 176,-842 285,-842 285,-842 291,-842 297,-848 297,-854 297,-854 297,-866 297,-866 297,-872 291,-878 285,-878"/>
<text text-anchor="middle" x="230.5" y="-857.8" font-family="Vera Sans, DejaVu Sans, Liberation Sans, Arial, Helvetica, sans" font-size="9.00" fill="#000000">admm.ADMM.update_rho</text>
</a>
</g>
</g>
<!-- admm.ADMM.solve&#45;&gt;admm.ADMM.update_rho -->
<g id="edge34" class="edge">
<title>admm.ADMM.solve&#45;&gt;admm.ADMM.update_rho</title>
<path fill="none" stroke="#8ed88c" stroke-width="2" d="M60.727,-608.13C64.732,-652.85 81.265,-769.39 147,-833 149.54,-835.46 152.31,-837.69 155.24,-839.72"/>
<polygon fill="#8ed88c" stroke="#8ed88c" stroke-width="2" points="153.5002,-842.758 163.87,-844.93 157.118,-836.7654 153.5002,-842.758"/>
</g>
</g>
</svg>
