<?xml version="1.0" encoding="UTF-8" standalone="no"?>
<!DOCTYPE svg PUBLIC "-//W3C//DTD SVG 1.1//EN"
 "http://www.w3.org/Graphics/SVG/1.1/DTD/svg11.dtd">
<!-- Generated by graphviz version 2.40.1 (20161225.0304)
 -->
<!-- Pages: 1 -->
<svg
 viewBox="0.00 0.00 1296.00 478.00" xmlns="http://www.w3.org/2000/svg" xmlns:xlink="http://www.w3.org/1999/xlink">
<g id="graph0" class="graph" transform="scale(1 1) rotate(0) translate(4 474)">
<polygon fill="transparent" stroke="transparent" points="-4,4 -4,-474 1292,-474 1292,4 -4,4"/>
<g id="clust1" class="cluster">
<title>cluster_cbpdn.GenericConvBPDN</title>
<polygon fill="transparent" stroke="#d88c8c" stroke-width="2" stroke-dasharray="1,5" points="588,-98 588,-168 772,-168 772,-98 588,-98"/>
<text text-anchor="middle" x="680" y="-156.8" font-family="Vera Sans, DejaVu Sans, Liberation Sans, Arial, Helvetica, sans" font-size="9.00" fill="#000000">cbpdn.GenericConvBPDN</text>
</g>
<g id="clust2" class="cluster">
<title>cluster_admm._ADMM_Meta</title>
<polygon fill="transparent" stroke="#8ca8d8" stroke-width="2" stroke-dasharray="1,5" points="0,-20 0,-90 161,-90 161,-20 0,-20"/>
<text text-anchor="middle" x="80.5" y="-78.8" font-family="Vera Sans, DejaVu Sans, Liberation Sans, Arial, Helvetica, sans" font-size="9.00" fill="#000000">admm._ADMM_Meta</text>
</g>
<g id="clust3" class="cluster">
<title>cluster_cbpdn.ConvBPDN</title>
<polygon fill="transparent" stroke="#af8cd8" stroke-width="2" stroke-dasharray="1,5" points="404.5,-322 404.5,-392 1285.5,-392 1285.5,-322 404.5,-322"/>
<text text-anchor="middle" x="845" y="-380.8" font-family="Vera Sans, DejaVu Sans, Liberation Sans, Arial, Helvetica, sans" font-size="9.00" fill="#000000">cbpdn.ConvBPDN</text>
</g>
<g id="clust4" class="cluster">
<title>cluster_cbpdn.ConvRepIndexing</title>
<polygon fill="transparent" stroke="#d88c8c" stroke-width="2" stroke-dasharray="1,5" points="389,-400 389,-470 568,-470 568,-400 389,-400"/>
<text text-anchor="middle" x="478.5" y="-458.8" font-family="Vera Sans, DejaVu Sans, Liberation Sans, Arial, Helvetica, sans" font-size="9.00" fill="#000000">cbpdn.ConvRepIndexing</text>
</g>
<g id="clust5" class="cluster">
<title>cluster_cbpdn.ConvBPDNGradReg</title>
<polygon fill="transparent" stroke="#d88cc3" stroke-width="2" stroke-dasharray="1,5" points="181,-20 181,-90 980,-90 980,-20 181,-20"/>
<text text-anchor="middle" x="580.5" y="-78.8" font-family="Vera Sans, DejaVu Sans, Liberation Sans, Arial, Helvetica, sans" font-size="9.00" fill="#000000">cbpdn.ConvBPDNGradReg</text>
</g>
<g id="clust6" class="cluster">
<title>cluster_admm.ADMMEqual</title>
<polygon fill="transparent" stroke="#8cd8c9" stroke-width="2" stroke-dasharray="1,5" points="809.5,-244 809.5,-314 962.5,-314 962.5,-244 809.5,-244"/>
<text text-anchor="middle" x="886" y="-302.8" font-family="Vera Sans, DejaVu Sans, Liberation Sans, Arial, Helvetica, sans" font-size="9.00" fill="#000000">admm.ADMMEqual</text>
</g>
<g id="clust7" class="cluster">
<title>cluster_admm.ADMM</title>
<polygon fill="transparent" stroke="#8ed88c" stroke-width="2" stroke-dasharray="1,5" points="1000,-136 1000,-314 1288,-314 1288,-136 1000,-136"/>
<text text-anchor="middle" x="1144" y="-302.8" font-family="Vera Sans, DejaVu Sans, Liberation Sans, Arial, Helvetica, sans" font-size="9.00" fill="#000000">admm.ADMM</text>
</g>
<!-- cbpdn.GenericConvBPDN.__init__ -->
<g id="node1" class="node">
<title>cbpdn.GenericConvBPDN.__init__</title>
<g id="a_node1"><a xlink:href="../../sporco.admm.cbpdn.html#sporco.admm.cbpdn.GenericConvBPDN.__init__" xlink:title="cbpdn.GenericConvBPDN.__init__" target="_top">
<path fill="#d88c8c" stroke="#000000" stroke-width=".25" d="M752,-142C752,-142 608,-142 608,-142 602,-142 596,-136 596,-130 596,-130 596,-118 596,-118 596,-112 602,-106 608,-106 608,-106 752,-106 752,-106 758,-106 764,-112 764,-118 764,-118 764,-130 764,-130 764,-136 758,-142 752,-142"/>
<text text-anchor="middle" x="680" y="-121.8" font-family="Vera Sans, DejaVu Sans, Liberation Sans, Arial, Helvetica, sans" font-size="9.00" fill="#000000">cbpdn.GenericConvBPDN.__init__</text>
</a>
</g>
</g>
<!-- cbpdn.ConvBPDNGradReg.setdict -->
<g id="node7" class="node">
<title>cbpdn.ConvBPDNGradReg.setdict</title>
<g id="a_node7"><a xlink:href="../../sporco.admm.cbpdn.html#sporco.admm.cbpdn.ConvBPDNGradReg.setdict" xlink:title="cbpdn.ConvBPDNGradReg.setdict" target="_top">
<path fill="#d88cc3" stroke="#000000" stroke-width=".25" d="M960,-64C960,-64 812,-64 812,-64 806,-64 800,-58 800,-52 800,-52 800,-40 800,-40 800,-34 806,-28 812,-28 812,-28 960,-28 960,-28 966,-28 972,-34 972,-40 972,-40 972,-52 972,-52 972,-58 966,-64 960,-64"/>
<text text-anchor="middle" x="886" y="-43.8" font-family="Vera Sans, DejaVu Sans, Liberation Sans, Arial, Helvetica, sans" font-size="9.00" fill="#000000">cbpdn.ConvBPDNGradReg.setdict</text>
</a>
</g>
</g>
<!-- cbpdn.GenericConvBPDN.__init__&#45;&gt;cbpdn.ConvBPDNGradReg.setdict -->
<g id="edge5" class="edge">
<title>cbpdn.GenericConvBPDN.__init__&#45;&gt;cbpdn.ConvBPDNGradReg.setdict</title>
<path fill="none" stroke="#d88c8c" stroke-width="2" d="M760.1,-105.99C764.15,-104.72 768.14,-103.39 772,-102 796.94,-93.019 823.59,-80.124 844.85,-68.972"/>
<polygon fill="#d88c8c" stroke="#d88c8c" stroke-width="2" points="846.7242,-71.9395 853.91,-64.154 843.4374,-65.7591 846.7242,-71.9395"/>
</g>
<!-- admm.ADMMEqual.__init__ -->
<g id="node8" class="node">
<title>admm.ADMMEqual.__init__</title>
<g id="a_node8"><a xlink:href="../../sporco.admm.admm.html#sporco.admm.admm.ADMMEqual.__init__" xlink:title="admm.ADMMEqual.__init__" target="_top">
<path fill="#8cd8c9" stroke="#000000" stroke-width=".25" d="M942.5,-288C942.5,-288 829.5,-288 829.5,-288 823.5,-288 817.5,-282 817.5,-276 817.5,-276 817.5,-264 817.5,-264 817.5,-258 823.5,-252 829.5,-252 829.5,-252 942.5,-252 942.5,-252 948.5,-252 954.5,-258 954.5,-264 954.5,-264 954.5,-276 954.5,-276 954.5,-282 948.5,-288 942.5,-288"/>
<text text-anchor="middle" x="886" y="-267.8" font-family="Vera Sans, DejaVu Sans, Liberation Sans, Arial, Helvetica, sans" font-size="9.00" fill="#000000">admm.ADMMEqual.__init__</text>
</a>
</g>
</g>
<!-- cbpdn.GenericConvBPDN.__init__&#45;&gt;admm.ADMMEqual.__init__ -->
<g id="edge4" class="edge">
<title>cbpdn.GenericConvBPDN.__init__&#45;&gt;admm.ADMMEqual.__init__</title>
<path fill="none" stroke="#d88c8c" stroke-width="2" d="M705.67,-142.2C742.63,-168.39 810.88,-216.76 851.99,-245.89"/>
<polygon fill="#d88c8c" stroke="#d88c8c" stroke-width="2" points="850.1472,-248.8738 860.33,-251.8 854.1945,-243.1625 850.1472,-248.8738"/>
</g>
<!-- admm._ADMM_Meta.__call__ -->
<g id="node2" class="node">
<title>admm._ADMM_Meta.__call__</title>
<g id="a_node2"><a xlink:href="../../sporco.admm.admm.html#sporco.admm.admm._ADMM_Meta.__call__" xlink:title="admm._ADMM_Meta.__call__" target="_top">
<path fill="#8ca8d8" stroke="#000000" stroke-width=".25" d="M141,-64C141,-64 20,-64 20,-64 14,-64 8,-58 8,-52 8,-52 8,-40 8,-40 8,-34 14,-28 20,-28 20,-28 141,-28 141,-28 147,-28 153,-34 153,-40 153,-40 153,-52 153,-52 153,-58 147,-64 141,-64"/>
<text text-anchor="middle" x="80.5" y="-43.8" font-family="Vera Sans, DejaVu Sans, Liberation Sans, Arial, Helvetica, sans" font-size="9.00" fill="#000000">admm._ADMM_Meta.__call__</text>
</a>
</g>
</g>
<!-- cbpdn.ConvBPDNGradReg.__init__ -->
<g id="node6" class="node">
<title>cbpdn.ConvBPDNGradReg.__init__</title>
<g id="a_node6"><a xlink:href="../../sporco.admm.cbpdn.html#sporco.admm.cbpdn.ConvBPDNGradReg.__init__" xlink:title="cbpdn.ConvBPDNGradReg.__init__" target="_top">
<path fill="#d88cc3" stroke="#000000" stroke-width=".25" d="M349,-64C349,-64 201,-64 201,-64 195,-64 189,-58 189,-52 189,-52 189,-40 189,-40 189,-34 195,-28 201,-28 201,-28 349,-28 349,-28 355,-28 361,-34 361,-40 361,-40 361,-52 361,-52 361,-58 355,-64 349,-64"/>
<text text-anchor="middle" x="275" y="-43.8" font-family="Vera Sans, DejaVu Sans, Liberation Sans, Arial, Helvetica, sans" font-size="9.00" fill="#000000">cbpdn.ConvBPDNGradReg.__init__</text>
</a>
</g>
</g>
<!-- admm._ADMM_Meta.__call__&#45;&gt;cbpdn.ConvBPDNGradReg.__init__ -->
<g id="edge7" class="edge">
<title>admm._ADMM_Meta.__call__&#45;&gt;cbpdn.ConvBPDNGradReg.__init__</title>
<path fill="none" stroke="#8ca8d8" stroke-width="2" d="M153.2,-46C161.58,-46 170.21,-46 178.84,-46"/>
<polygon fill="#8ca8d8" stroke="#8ca8d8" stroke-width="2" points="178.94,-49.5001 188.94,-46 178.94,-42.5001 178.94,-49.5001"/>
</g>
<!-- cbpdn.ConvBPDN.__init__ -->
<g id="node3" class="node">
<title>cbpdn.ConvBPDN.__init__</title>
<g id="a_node3"><a xlink:href="../../sporco.admm.cbpdn.html#sporco.admm.cbpdn.ConvBPDN.__init__" xlink:title="cbpdn.ConvBPDN.__init__" target="_top">
<path fill="#af8cd8" stroke="#000000" stroke-width=".25" d="M532.5,-366C532.5,-366 424.5,-366 424.5,-366 418.5,-366 412.5,-360 412.5,-354 412.5,-354 412.5,-342 412.5,-342 412.5,-336 418.5,-330 424.5,-330 424.5,-330 532.5,-330 532.5,-330 538.5,-330 544.5,-336 544.5,-342 544.5,-342 544.5,-354 544.5,-354 544.5,-360 538.5,-366 532.5,-366"/>
<text text-anchor="middle" x="478.5" y="-345.8" font-family="Vera Sans, DejaVu Sans, Liberation Sans, Arial, Helvetica, sans" font-size="9.00" fill="#000000">cbpdn.ConvBPDN.__init__</text>
</a>
</g>
</g>
<!-- cbpdn.ConvBPDN.__init__&#45;&gt;cbpdn.GenericConvBPDN.__init__ -->
<g id="edge11" class="edge">
<title>cbpdn.ConvBPDN.__init__&#45;&gt;cbpdn.GenericConvBPDN.__init__</title>
<path fill="none" stroke="#af8cd8" stroke-width="2" d="M544.94,-341.06C553.62,-337.63 561.67,-332.79 568,-326 603.67,-287.73 563.15,-256.04 588,-210 601.36,-185.25 624.52,-163.66 644.26,-148.3"/>
<polygon fill="#af8cd8" stroke="#af8cd8" stroke-width="2" points="646.5923,-150.9249 652.47,-142.11 642.3781,-145.3356 646.5923,-150.9249"/>
</g>
<!-- admm.ADMM.set_attr -->
<g id="node11" class="node">
<title>admm.ADMM.set_attr</title>
<g id="a_node11"><a xlink:href="../../sporco.admm.admm.html#sporco.admm.admm.ADMM.set_attr" xlink:title="admm.ADMM.set_attr" target="_top">
<path fill="#8ed88c" stroke="#000000" stroke-width=".25" d="M1263.5,-234C1263.5,-234 1171.5,-234 1171.5,-234 1165.5,-234 1159.5,-228 1159.5,-222 1159.5,-222 1159.5,-210 1159.5,-210 1159.5,-204 1165.5,-198 1171.5,-198 1171.5,-198 1263.5,-198 1263.5,-198 1269.5,-198 1275.5,-204 1275.5,-210 1275.5,-210 1275.5,-222 1275.5,-222 1275.5,-228 1269.5,-234 1263.5,-234"/>
<text text-anchor="middle" x="1217.5" y="-213.8" font-family="Vera Sans, DejaVu Sans, Liberation Sans, Arial, Helvetica, sans" font-size="9.00" fill="#000000">admm.ADMM.set_attr</text>
</a>
</g>
</g>
<!-- cbpdn.ConvBPDN.__init__&#45;&gt;admm.ADMM.set_attr -->
<g id="edge12" class="edge">
<title>cbpdn.ConvBPDN.__init__&#45;&gt;admm.ADMM.set_attr</title>
<path fill="none" stroke="#af8cd8" stroke-width="2" d="M544.72,-332.62C552.6,-330.53 560.51,-328.3 568,-326 673.12,-293.71 692.36,-262.52 800,-240 921.09,-214.67 1065.9,-212.43 1149.3,-213.76"/>
<polygon fill="#af8cd8" stroke="#af8cd8" stroke-width="2" points="1149.3392,-217.2612 1159.4,-213.94 1149.464,-210.2623 1149.3392,-217.2612"/>
</g>
<!-- admm.ADMM.set_dtype -->
<g id="node12" class="node">
<title>admm.ADMM.set_dtype</title>
<g id="a_node12"><a xlink:href="../../sporco.admm.admm.html#sporco.admm.admm.ADMM.set_dtype" xlink:title="admm.ADMM.set_dtype" target="_top">
<path fill="#8ed88c" stroke="#000000" stroke-width=".25" d="M1268,-180C1268,-180 1167,-180 1167,-180 1161,-180 1155,-174 1155,-168 1155,-168 1155,-156 1155,-156 1155,-150 1161,-144 1167,-144 1167,-144 1268,-144 1268,-144 1274,-144 1280,-150 1280,-156 1280,-156 1280,-168 1280,-168 1280,-174 1274,-180 1268,-180"/>
<text text-anchor="middle" x="1217.5" y="-159.8" font-family="Vera Sans, DejaVu Sans, Liberation Sans, Arial, Helvetica, sans" font-size="9.00" fill="#000000">admm.ADMM.set_dtype</text>
</a>
</g>
</g>
<!-- cbpdn.ConvBPDN.__init__&#45;&gt;admm.ADMM.set_dtype -->
<g id="edge13" class="edge">
<title>cbpdn.ConvBPDN.__init__&#45;&gt;admm.ADMM.set_dtype</title>
<path fill="none" stroke="#af8cd8" stroke-width="2" d="M544.96,-333.34C552.8,-331.12 560.63,-328.67 568,-326 675.85,-286.98 690.01,-245.51 800,-213 917.42,-178.29 1060.1,-167.17 1144.6,-163.63"/>
<polygon fill="#af8cd8" stroke="#af8cd8" stroke-width="2" points="1144.8464,-167.1231 1154.7,-163.23 1144.5693,-160.1286 1144.8464,-167.1231"/>
</g>
<!-- cbpdn.ConvBPDN.uinit -->
<g id="node4" class="node">
<title>cbpdn.ConvBPDN.uinit</title>
<g id="a_node4"><a xlink:href="../../sporco.admm.cbpdn.html#sporco.admm.cbpdn.ConvBPDN.uinit" xlink:title="cbpdn.ConvBPDN.uinit" target="_top">
<path fill="#af8cd8" stroke="#000000" stroke-width=".25" d="M1265.5,-366C1265.5,-366 1169.5,-366 1169.5,-366 1163.5,-366 1157.5,-360 1157.5,-354 1157.5,-354 1157.5,-342 1157.5,-342 1157.5,-336 1163.5,-330 1169.5,-330 1169.5,-330 1265.5,-330 1265.5,-330 1271.5,-330 1277.5,-336 1277.5,-342 1277.5,-342 1277.5,-354 1277.5,-354 1277.5,-360 1271.5,-366 1265.5,-366"/>
<text text-anchor="middle" x="1217.5" y="-345.8" font-family="Vera Sans, DejaVu Sans, Liberation Sans, Arial, Helvetica, sans" font-size="9.00" fill="#000000">cbpdn.ConvBPDN.uinit</text>
</a>
</g>
</g>
<!-- cbpdn.ConvRepIndexing.__init__ -->
<g id="node5" class="node">
<title>cbpdn.ConvRepIndexing.__init__</title>
<g id="a_node5"><a xlink:href="../../sporco.admm.cbpdn.html#sporco.admm.cbpdn.ConvRepIndexing.__init__" xlink:title="cbpdn.ConvRepIndexing.__init__" target="_top">
<path fill="#d88c8c" stroke="#000000" stroke-width=".25" d="M548,-444C548,-444 409,-444 409,-444 403,-444 397,-438 397,-432 397,-432 397,-420 397,-420 397,-414 403,-408 409,-408 409,-408 548,-408 548,-408 554,-408 560,-414 560,-420 560,-420 560,-432 560,-432 560,-438 554,-444 548,-444"/>
<text text-anchor="middle" x="478.5" y="-423.8" font-family="Vera Sans, DejaVu Sans, Liberation Sans, Arial, Helvetica, sans" font-size="9.00" fill="#000000">cbpdn.ConvRepIndexing.__init__</text>
</a>
</g>
</g>
<!-- cbpdn.ConvBPDNGradReg.__init__&#45;&gt;cbpdn.ConvBPDN.__init__ -->
<g id="edge9" class="edge">
<title>cbpdn.ConvBPDNGradReg.__init__&#45;&gt;cbpdn.ConvBPDN.__init__</title>
<path fill="none" stroke="#d88cc3" stroke-width="2" d="M276.81,-64.312C282.76,-114.39 306.39,-254.62 389,-326 393.24,-329.66 397.99,-332.73 403.04,-335.31"/>
<polygon fill="#d88cc3" stroke="#d88cc3" stroke-width="2" points="401.8269,-338.5999 412.39,-339.42 404.6439,-332.1917 401.8269,-338.5999"/>
</g>
<!-- cbpdn.ConvBPDNGradReg.__init__&#45;&gt;cbpdn.ConvRepIndexing.__init__ -->
<g id="edge8" class="edge">
<title>cbpdn.ConvBPDNGradReg.__init__&#45;&gt;cbpdn.ConvRepIndexing.__init__</title>
<path fill="none" stroke="#d88cc3" stroke-width="2" d="M278.36,-64.113C290.91,-129.98 337.06,-355.44 389,-404 389.15,-404.14 389.31,-404.29 389.46,-404.43"/>
<polygon fill="#d88cc3" stroke="#d88cc3" stroke-width="2" points="386.8664,-406.847 396.91,-410.22 391.162,-401.3199 386.8664,-406.847"/>
</g>
<!-- cbpdn.ConvBPDNGradReg.__init__&#45;&gt;admm.ADMM.set_dtype -->
<g id="edge10" class="edge">
<title>cbpdn.ConvBPDNGradReg.__init__&#45;&gt;admm.ADMM.set_dtype</title>
<path fill="none" stroke="#d88cc3" stroke-width="2" d="M361.19,-30.491C442.96,-17.136 569.43,0 680,0 680,0 680,0 886,0 1009.4,0 1134.8,-91.707 1189.3,-137.12"/>
<polygon fill="#d88cc3" stroke="#d88cc3" stroke-width="2" points="1187.2081,-139.935 1197.1,-143.73 1191.7337,-134.5947 1187.2081,-139.935"/>
</g>
<!-- admm.ADMM.__init__ -->
<g id="node9" class="node">
<title>admm.ADMM.__init__</title>
<g id="a_node9"><a xlink:href="../../sporco.admm.admm.html#sporco.admm.admm.ADMM.__init__" xlink:title="admm.ADMM.__init__" target="_top">
<path fill="#8ed88c" stroke="#000000" stroke-width=".25" d="M1107,-288C1107,-288 1020,-288 1020,-288 1014,-288 1008,-282 1008,-276 1008,-276 1008,-264 1008,-264 1008,-258 1014,-252 1020,-252 1020,-252 1107,-252 1107,-252 1113,-252 1119,-258 1119,-264 1119,-264 1119,-276 1119,-276 1119,-282 1113,-288 1107,-288"/>
<text text-anchor="middle" x="1063.5" y="-267.8" font-family="Vera Sans, DejaVu Sans, Liberation Sans, Arial, Helvetica, sans" font-size="9.00" fill="#000000">admm.ADMM.__init__</text>
</a>
</g>
</g>
<!-- admm.ADMMEqual.__init__&#45;&gt;admm.ADMM.__init__ -->
<g id="edge6" class="edge">
<title>admm.ADMMEqual.__init__&#45;&gt;admm.ADMM.__init__</title>
<path fill="none" stroke="#8cd8c9" stroke-width="2" d="M954.63,-270C968.83,-270 983.77,-270 997.9,-270"/>
<polygon fill="#8cd8c9" stroke="#8cd8c9" stroke-width="2" points="998,-273.5001 1008,-270 998,-266.5001 998,-273.5001"/>
</g>
<!-- admm.ADMM.__init__&#45;&gt;cbpdn.ConvBPDN.uinit -->
<g id="edge14" class="edge">
<title>admm.ADMM.__init__&#45;&gt;cbpdn.ConvBPDN.uinit</title>
<path fill="none" stroke="#8ed88c" stroke-width="2" d="M1097.2,-288.07C1114.5,-297.19 1135.8,-308.34 1155,-318 1159.9,-320.46 1165.1,-323 1170.2,-325.51"/>
<polygon fill="#8ed88c" stroke="#8ed88c" stroke-width="2" points="1168.8748,-328.7571 1179.4,-329.97 1171.9284,-322.4583 1168.8748,-328.7571"/>
</g>
<!-- admm.ADMM.yinit -->
<g id="node10" class="node">
<title>admm.ADMM.yinit</title>
<g id="a_node10"><a xlink:href="../../sporco.admm.admm.html#sporco.admm.admm.ADMM.yinit" xlink:title="admm.ADMM.yinit" target="_top">
<path fill="#8ed88c" stroke="#000000" stroke-width=".25" d="M1254.5,-288C1254.5,-288 1180.5,-288 1180.5,-288 1174.5,-288 1168.5,-282 1168.5,-276 1168.5,-276 1168.5,-264 1168.5,-264 1168.5,-258 1174.5,-252 1180.5,-252 1180.5,-252 1254.5,-252 1254.5,-252 1260.5,-252 1266.5,-258 1266.5,-264 1266.5,-264 1266.5,-276 1266.5,-276 1266.5,-282 1260.5,-288 1254.5,-288"/>
<text text-anchor="middle" x="1217.5" y="-267.8" font-family="Vera Sans, DejaVu Sans, Liberation Sans, Arial, Helvetica, sans" font-size="9.00" fill="#000000">admm.ADMM.yinit</text>
</a>
</g>
</g>
<!-- admm.ADMM.__init__&#45;&gt;admm.ADMM.yinit -->
<g id="edge1" class="edge">
<title>admm.ADMM.__init__&#45;&gt;admm.ADMM.yinit</title>
<path fill="none" stroke="#8ed88c" stroke-width="2" d="M1119.1,-270C1131.8,-270 1145.4,-270 1158.2,-270"/>
<polygon fill="#8ed88c" stroke="#8ed88c" stroke-width="2" points="1158.4,-273.5001 1168.4,-270 1158.4,-266.5001 1158.4,-273.5001"/>
</g>
<!-- admm.ADMM.__init__&#45;&gt;admm.ADMM.set_attr -->
<g id="edge2" class="edge">
<title>admm.ADMM.__init__&#45;&gt;admm.ADMM.set_attr</title>
<path fill="none" stroke="#8ed88c" stroke-width="2" d="M1115.2,-251.87C1128.4,-247.26 1142.6,-242.26 1156.2,-237.5"/>
<polygon fill="#8ed88c" stroke="#8ed88c" stroke-width="2" points="1157.6328,-240.7061 1165.9,-234.08 1155.3052,-234.1044 1157.6328,-240.7061"/>
</g>
<!-- admm.ADMM.__init__&#45;&gt;admm.ADMM.set_dtype -->
<g id="edge3" class="edge">
<title>admm.ADMM.__init__&#45;&gt;admm.ADMM.set_dtype</title>
<path fill="none" stroke="#8ed88c" stroke-width="2" d="M1080.7,-251.72C1098.1,-233.96 1126.5,-207.1 1155,-189 1157.2,-187.61 1159.4,-186.27 1161.8,-184.96"/>
<polygon fill="#8ed88c" stroke="#8ed88c" stroke-width="2" points="1163.6946,-187.9175 1170.9,-180.15 1160.4234,-181.7288 1163.6946,-187.9175"/>
</g>
</g>
</svg>
