<?xml version="1.0" encoding="UTF-8" standalone="no"?>
<!DOCTYPE svg PUBLIC "-//W3C//DTD SVG 1.1//EN"
 "http://www.w3.org/Graphics/SVG/1.1/DTD/svg11.dtd">
<!-- Generated by graphviz version 2.40.1 (20161225.0304)
 -->
<!-- Pages: 1 -->
<svg
 viewBox="0.00 0.00 990.00 798.00" xmlns="http://www.w3.org/2000/svg" xmlns:xlink="http://www.w3.org/1999/xlink">
<g id="graph0" class="graph" transform="scale(1 1) rotate(0) translate(4 794)">
<polygon fill="transparent" stroke="transparent" points="-4,4 -4,-794 986,-794 986,4 -4,4"/>
<g id="clust1" class="cluster">
<title>cluster_cbpdn.ConvBPDNGradReg</title>
<polygon fill="transparent" stroke="#d88ca4" stroke-width="2" stroke-dasharray="1,5" points="140,-720 140,-790 764,-790 764,-720 140,-720"/>
<text text-anchor="middle" x="452" y="-778.8" font-family="Vera Sans, DejaVu Sans, Liberation Sans, Arial, Helvetica, sans" font-size="9.00" fill="#000000">cbpdn.ConvBPDNGradReg</text>
</g>
<g id="clust2" class="cluster">
<title>cluster_cbpdn.GenericConvBPDN</title>
<polygon fill="transparent" stroke="#d88c8c" stroke-width="2" stroke-dasharray="1,5" points="342,-534 342,-712 982,-712 982,-534 342,-534"/>
<text text-anchor="middle" x="662" y="-700.8" font-family="Vera Sans, DejaVu Sans, Liberation Sans, Arial, Helvetica, sans" font-size="9.00" fill="#000000">cbpdn.GenericConvBPDN</text>
</g>
<g id="clust3" class="cluster">
<title>cluster_admm.ADMM</title>
<polygon fill="transparent" stroke="#8ed88c" stroke-width="2" stroke-dasharray="1,5" points="0,-240 0,-634 322,-634 322,-240 0,-240"/>
<text text-anchor="middle" x="161" y="-622.8" font-family="Vera Sans, DejaVu Sans, Liberation Sans, Arial, Helvetica, sans" font-size="9.00" fill="#000000">admm.ADMM</text>
</g>
<g id="clust4" class="cluster">
<title>cluster_cbpdn.ConvBPDN</title>
<polygon fill="transparent" stroke="#af8cd8" stroke-width="2" stroke-dasharray="1,5" points="160,-642 160,-712 301,-712 301,-642 160,-642"/>
<text text-anchor="middle" x="230.5" y="-700.8" font-family="Vera Sans, DejaVu Sans, Liberation Sans, Arial, Helvetica, sans" font-size="9.00" fill="#000000">cbpdn.ConvBPDN</text>
</g>
<g id="clust5" class="cluster">
<title>cluster_admm.ADMMEqual</title>
<polygon fill="transparent" stroke="#8cc8d8" stroke-width="2" stroke-dasharray="1,5" points="151,0 151,-232 966.5,-232 966.5,0 151,0"/>
<text text-anchor="middle" x="558.75" y="-220.8" font-family="Vera Sans, DejaVu Sans, Liberation Sans, Arial, Helvetica, sans" font-size="9.00" fill="#000000">admm.ADMMEqual</text>
</g>
<!-- cbpdn.ConvBPDNGradReg.obfn_reg -->
<g id="node1" class="node">
<title>cbpdn.ConvBPDNGradReg.obfn_reg</title>
<g id="a_node1"><a xlink:href="../../sporco.admm.cbpdn.html#sporco.admm.cbpdn.ConvBPDNGradReg.obfn_reg" xlink:title="cbpdn.ConvBPDNGradReg.obfn_reg" target="_top">
<path fill="#d88ca4" stroke="#000000" stroke-width=".25" d="M744,-764C744,-764 587,-764 587,-764 581,-764 575,-758 575,-752 575,-752 575,-740 575,-740 575,-734 581,-728 587,-728 587,-728 744,-728 744,-728 750,-728 756,-734 756,-740 756,-740 756,-752 756,-752 756,-758 750,-764 744,-764"/>
<text text-anchor="middle" x="665.5" y="-743.8" font-family="Vera Sans, DejaVu Sans, Liberation Sans, Arial, Helvetica, sans" font-size="9.00" fill="#000000">cbpdn.ConvBPDNGradReg.obfn_reg</text>
</a>
</g>
</g>
<!-- cbpdn.GenericConvBPDN.obfn_fvarf -->
<g id="node5" class="node">
<title>cbpdn.GenericConvBPDN.obfn_fvarf</title>
<g id="a_node5"><a xlink:href="../../sporco.admm.cbpdn.html#sporco.admm.cbpdn.GenericConvBPDN.obfn_fvarf" xlink:title="cbpdn.GenericConvBPDN.obfn_fvarf" target="_top">
<path fill="#d88c8c" stroke="#000000" stroke-width=".25" d="M962,-672C962,-672 804,-672 804,-672 798,-672 792,-666 792,-660 792,-660 792,-648 792,-648 792,-642 798,-636 804,-636 804,-636 962,-636 962,-636 968,-636 974,-642 974,-648 974,-648 974,-660 974,-660 974,-666 968,-672 962,-672"/>
<text text-anchor="middle" x="883" y="-651.8" font-family="Vera Sans, DejaVu Sans, Liberation Sans, Arial, Helvetica, sans" font-size="9.00" fill="#000000">cbpdn.GenericConvBPDN.obfn_fvarf</text>
</a>
</g>
</g>
<!-- cbpdn.ConvBPDNGradReg.obfn_reg&#45;&gt;cbpdn.GenericConvBPDN.obfn_fvarf -->
<g id="edge23" class="edge">
<title>cbpdn.ConvBPDNGradReg.obfn_reg&#45;&gt;cbpdn.GenericConvBPDN.obfn_fvarf</title>
<path fill="none" stroke="#d88ca4" stroke-width="2" d="M753.21,-727.92C756.89,-726.69 760.5,-725.38 764,-724 794.45,-711.99 826.27,-692.87 849.34,-677.65"/>
<polygon fill="#d88ca4" stroke="#d88ca4" stroke-width="2" points="851.3695,-680.5032 857.73,-672.03 847.4738,-674.6874 851.3695,-680.5032"/>
</g>
<!-- admm.ADMMEqual.obfn_gvar -->
<g id="node21" class="node">
<title>admm.ADMMEqual.obfn_gvar</title>
<g id="a_node21"><a xlink:href="../../sporco.admm.admm.html#sporco.admm.admm.ADMMEqual.obfn_gvar" xlink:title="admm.ADMMEqual.obfn_gvar" target="_top">
<path fill="#8cc8d8" stroke="#000000" stroke-width=".25" d="M946.5,-206C946.5,-206 819.5,-206 819.5,-206 813.5,-206 807.5,-200 807.5,-194 807.5,-194 807.5,-182 807.5,-182 807.5,-176 813.5,-170 819.5,-170 819.5,-170 946.5,-170 946.5,-170 952.5,-170 958.5,-176 958.5,-182 958.5,-182 958.5,-194 958.5,-194 958.5,-200 952.5,-206 946.5,-206"/>
<text text-anchor="middle" x="883" y="-185.8" font-family="Vera Sans, DejaVu Sans, Liberation Sans, Arial, Helvetica, sans" font-size="9.00" fill="#000000">admm.ADMMEqual.obfn_gvar</text>
</a>
</g>
</g>
<!-- cbpdn.ConvBPDNGradReg.obfn_reg&#45;&gt;admm.ADMMEqual.obfn_gvar -->
<g id="edge22" class="edge">
<title>cbpdn.ConvBPDNGradReg.obfn_reg&#45;&gt;admm.ADMMEqual.obfn_gvar</title>
<path fill="none" stroke="#d88ca4" stroke-width="2" d="M756.22,-730.94C759.01,-728.87 761.62,-726.57 764,-724 793.6,-692.05 783.27,-572.67 792,-530 816.1,-412.13 856.57,-274.48 874.27,-216.28"/>
<polygon fill="#d88ca4" stroke="#d88ca4" stroke-width="2" points="877.7261,-216.9463 877.3,-206.36 871.0314,-214.9014 877.7261,-216.9463"/>
</g>
<!-- cbpdn.ConvBPDNGradReg.xstep -->
<g id="node2" class="node">
<title>cbpdn.ConvBPDNGradReg.xstep</title>
<g id="a_node2"><a xlink:href="../../sporco.admm.cbpdn.html#sporco.admm.cbpdn.ConvBPDNGradReg.xstep" xlink:title="cbpdn.ConvBPDNGradReg.xstep" target="_top">
<path fill="#d88ca4" stroke="#000000" stroke-width=".25" d="M301,-764C301,-764 160,-764 160,-764 154,-764 148,-758 148,-752 148,-752 148,-740 148,-740 148,-734 154,-728 160,-728 160,-728 301,-728 301,-728 307,-728 313,-734 313,-740 313,-740 313,-752 313,-752 313,-758 307,-764 301,-764"/>
<text text-anchor="middle" x="230.5" y="-743.8" font-family="Vera Sans, DejaVu Sans, Liberation Sans, Arial, Helvetica, sans" font-size="9.00" fill="#000000">cbpdn.ConvBPDNGradReg.xstep</text>
</a>
</g>
</g>
<!-- cbpdn.GenericConvBPDN.eval_objfn -->
<g id="node3" class="node">
<title>cbpdn.GenericConvBPDN.eval_objfn</title>
<g id="a_node3"><a xlink:href="../../sporco.admm.cbpdn.html#sporco.admm.cbpdn.GenericConvBPDN.eval_objfn" xlink:title="cbpdn.GenericConvBPDN.eval_objfn" target="_top">
<path fill="#d88c8c" stroke="#000000" stroke-width=".25" d="M523.5,-632C523.5,-632 365.5,-632 365.5,-632 359.5,-632 353.5,-626 353.5,-620 353.5,-620 353.5,-608 353.5,-608 353.5,-602 359.5,-596 365.5,-596 365.5,-596 523.5,-596 523.5,-596 529.5,-596 535.5,-602 535.5,-608 535.5,-608 535.5,-620 535.5,-620 535.5,-626 529.5,-632 523.5,-632"/>
<text text-anchor="middle" x="444.5" y="-611.8" font-family="Vera Sans, DejaVu Sans, Liberation Sans, Arial, Helvetica, sans" font-size="9.00" fill="#000000">cbpdn.GenericConvBPDN.eval_objfn</text>
</a>
</g>
</g>
<!-- cbpdn.GenericConvBPDN.eval_objfn&#45;&gt;cbpdn.ConvBPDNGradReg.obfn_reg -->
<g id="edge24" class="edge">
<title>cbpdn.GenericConvBPDN.eval_objfn&#45;&gt;cbpdn.ConvBPDNGradReg.obfn_reg</title>
<path fill="none" stroke="#d88c8c" stroke-width="2" d="M526.41,-632.08C530.91,-634.67 535.15,-637.63 539,-641 566.87,-665.44 547.81,-693.34 572.69,-720.84"/>
<polygon fill="#d88c8c" stroke="#d88c8c" stroke-width="2" points="570.3645,-723.4586 580.02,-727.82 575.1918,-718.3893 570.3645,-723.4586"/>
</g>
<!-- cbpdn.GenericConvBPDN.obfn_dfd -->
<g id="node4" class="node">
<title>cbpdn.GenericConvBPDN.obfn_dfd</title>
<g id="a_node4"><a xlink:href="../../sporco.admm.cbpdn.html#sporco.admm.cbpdn.GenericConvBPDN.obfn_dfd" xlink:title="cbpdn.GenericConvBPDN.obfn_dfd" target="_top">
<path fill="#d88c8c" stroke="#000000" stroke-width=".25" d="M741.5,-645C741.5,-645 589.5,-645 589.5,-645 583.5,-645 577.5,-639 577.5,-633 577.5,-633 577.5,-621 577.5,-621 577.5,-615 583.5,-609 589.5,-609 589.5,-609 741.5,-609 741.5,-609 747.5,-609 753.5,-615 753.5,-621 753.5,-621 753.5,-633 753.5,-633 753.5,-639 747.5,-645 741.5,-645"/>
<text text-anchor="middle" x="665.5" y="-624.8" font-family="Vera Sans, DejaVu Sans, Liberation Sans, Arial, Helvetica, sans" font-size="9.00" fill="#000000">cbpdn.GenericConvBPDN.obfn_dfd</text>
</a>
</g>
</g>
<!-- cbpdn.GenericConvBPDN.eval_objfn&#45;&gt;cbpdn.GenericConvBPDN.obfn_dfd -->
<g id="edge1" class="edge">
<title>cbpdn.GenericConvBPDN.eval_objfn&#45;&gt;cbpdn.GenericConvBPDN.obfn_dfd</title>
<path fill="none" stroke="#d88c8c" stroke-width="2" d="M535.67,-619.36C546.12,-619.98 556.81,-620.61 567.35,-621.23"/>
<polygon fill="#d88c8c" stroke="#d88c8c" stroke-width="2" points="567.2019,-624.7272 577.39,-621.82 567.6126,-617.7393 567.2019,-624.7272"/>
</g>
<!-- cbpdn.GenericConvBPDN.obfn_dfd&#45;&gt;cbpdn.GenericConvBPDN.obfn_fvarf -->
<g id="edge2" class="edge">
<title>cbpdn.GenericConvBPDN.obfn_dfd&#45;&gt;cbpdn.GenericConvBPDN.obfn_fvarf</title>
<path fill="none" stroke="#d88c8c" stroke-width="2" d="M753.65,-637.94C762.9,-639.09 772.36,-640.27 781.75,-641.43"/>
<polygon fill="#d88c8c" stroke="#d88c8c" stroke-width="2" points="781.5347,-644.9301 791.89,-642.69 782.3979,-637.9835 781.5347,-644.9301"/>
</g>
<!-- cbpdn.GenericConvBPDN.ystep -->
<g id="node6" class="node">
<title>cbpdn.GenericConvBPDN.ystep</title>
<g id="a_node6"><a xlink:href="../../sporco.admm.cbpdn.html#sporco.admm.cbpdn.GenericConvBPDN.ystep" xlink:title="cbpdn.GenericConvBPDN.ystep" target="_top">
<path fill="#d88c8c" stroke="#000000" stroke-width=".25" d="M513,-686C513,-686 376,-686 376,-686 370,-686 364,-680 364,-674 364,-674 364,-662 364,-662 364,-656 370,-650 376,-650 376,-650 513,-650 513,-650 519,-650 525,-656 525,-662 525,-662 525,-674 525,-674 525,-680 519,-686 513,-686"/>
<text text-anchor="middle" x="444.5" y="-665.8" font-family="Vera Sans, DejaVu Sans, Liberation Sans, Arial, Helvetica, sans" font-size="9.00" fill="#000000">cbpdn.GenericConvBPDN.ystep</text>
</a>
</g>
</g>
<!-- cbpdn.GenericConvBPDN.itstat_extra -->
<g id="node7" class="node">
<title>cbpdn.GenericConvBPDN.itstat_extra</title>
<g id="a_node7"><a xlink:href="../../sporco.admm.cbpdn.html#sporco.admm.cbpdn.GenericConvBPDN.itstat_extra" xlink:title="cbpdn.GenericConvBPDN.itstat_extra" target="_top">
<path fill="#d88c8c" stroke="#000000" stroke-width=".25" d="M527,-578C527,-578 362,-578 362,-578 356,-578 350,-572 350,-566 350,-566 350,-554 350,-554 350,-548 356,-542 362,-542 362,-542 527,-542 527,-542 533,-542 539,-548 539,-554 539,-554 539,-566 539,-566 539,-572 533,-578 527,-578"/>
<text text-anchor="middle" x="444.5" y="-557.8" font-family="Vera Sans, DejaVu Sans, Liberation Sans, Arial, Helvetica, sans" font-size="9.00" fill="#000000">cbpdn.GenericConvBPDN.itstat_extra</text>
</a>
</g>
</g>
<!-- admm.ADMM.solve -->
<g id="node8" class="node">
<title>admm.ADMM.solve</title>
<g id="a_node8"><a xlink:href="../../sporco.admm.admm.html#sporco.admm.admm.ADMM.solve" xlink:title="admm.ADMM.solve" target="_top">
<path fill="#8ed88c" stroke="#000000" stroke-width=".25" d="M99,-446C99,-446 20,-446 20,-446 14,-446 8,-440 8,-434 8,-434 8,-422 8,-422 8,-416 14,-410 20,-410 20,-410 99,-410 99,-410 105,-410 111,-416 111,-422 111,-422 111,-434 111,-434 111,-440 105,-446 99,-446"/>
<text text-anchor="middle" x="59.5" y="-425.8" font-family="Vera Sans, DejaVu Sans, Liberation Sans, Arial, Helvetica, sans" font-size="9.00" fill="#000000">admm.ADMM.solve</text>
</a>
</g>
</g>
<!-- admm.ADMM.solve&#45;&gt;cbpdn.ConvBPDNGradReg.xstep -->
<g id="edge13" class="edge">
<title>admm.ADMM.solve&#45;&gt;cbpdn.ConvBPDNGradReg.xstep</title>
<path fill="none" stroke="#8ed88c" stroke-width="2" d="M62.321,-446.26C71.454,-503.18 101.84,-675.99 140,-716 142.09,-718.19 144.34,-720.22 146.72,-722.1"/>
<polygon fill="#8ed88c" stroke="#8ed88c" stroke-width="2" points="145.032,-725.1861 155.26,-727.95 148.988,-719.4111 145.032,-725.1861"/>
</g>
<!-- admm.ADMM.iteration_stats -->
<g id="node9" class="node">
<title>admm.ADMM.iteration_stats</title>
<g id="a_node9"><a xlink:href="../../sporco.admm.admm.html#sporco.admm.admm.ADMM.iteration_stats" xlink:title="admm.ADMM.iteration_stats" target="_top">
<path fill="#8ed88c" stroke="#000000" stroke-width=".25" d="M292,-554C292,-554 169,-554 169,-554 163,-554 157,-548 157,-542 157,-542 157,-530 157,-530 157,-524 163,-518 169,-518 169,-518 292,-518 292,-518 298,-518 304,-524 304,-530 304,-530 304,-542 304,-542 304,-548 298,-554 292,-554"/>
<text text-anchor="middle" x="230.5" y="-533.8" font-family="Vera Sans, DejaVu Sans, Liberation Sans, Arial, Helvetica, sans" font-size="9.00" fill="#000000">admm.ADMM.iteration_stats</text>
</a>
</g>
</g>
<!-- admm.ADMM.solve&#45;&gt;admm.ADMM.iteration_stats -->
<g id="edge3" class="edge">
<title>admm.ADMM.solve&#45;&gt;admm.ADMM.iteration_stats</title>
<path fill="none" stroke="#8ed88c" stroke-width="2" d="M72.942,-446.07C87.523,-464.45 112.44,-492.51 140,-509 142.81,-510.68 145.74,-512.27 148.75,-513.76"/>
<polygon fill="#8ed88c" stroke="#8ed88c" stroke-width="2" points="147.4092,-516.9953 157.96,-517.96 150.3136,-510.6262 147.4092,-516.9953"/>
</g>
<!-- admm.ADMM.ustep -->
<g id="node10" class="node">
<title>admm.ADMM.ustep</title>
<g id="a_node10"><a xlink:href="../../sporco.admm.admm.html#sporco.admm.admm.ADMM.ustep" xlink:title="admm.ADMM.ustep" target="_top">
<path fill="#8ed88c" stroke="#000000" stroke-width=".25" d="M271.5,-500C271.5,-500 189.5,-500 189.5,-500 183.5,-500 177.5,-494 177.5,-488 177.5,-488 177.5,-476 177.5,-476 177.5,-470 183.5,-464 189.5,-464 189.5,-464 271.5,-464 271.5,-464 277.5,-464 283.5,-470 283.5,-476 283.5,-476 283.5,-488 283.5,-488 283.5,-494 277.5,-500 271.5,-500"/>
<text text-anchor="middle" x="230.5" y="-479.8" font-family="Vera Sans, DejaVu Sans, Liberation Sans, Arial, Helvetica, sans" font-size="9.00" fill="#000000">admm.ADMM.ustep</text>
</a>
</g>
</g>
<!-- admm.ADMM.solve&#45;&gt;admm.ADMM.ustep -->
<g id="edge4" class="edge">
<title>admm.ADMM.solve&#45;&gt;admm.ADMM.ustep</title>
<path fill="none" stroke="#8ed88c" stroke-width="2" d="M111.38,-445.69C120.88,-448.84 130.73,-452.06 140,-455 148.93,-457.83 158.39,-460.74 167.69,-463.56"/>
<polygon fill="#8ed88c" stroke="#8ed88c" stroke-width="2" points="166.7055,-466.9187 177.29,-466.45 168.7234,-460.2159 166.7055,-466.9187"/>
</g>
<!-- admm.ADMM.compute_residuals -->
<g id="node11" class="node">
<title>admm.ADMM.compute_residuals</title>
<g id="a_node11"><a xlink:href="../../sporco.admm.admm.html#sporco.admm.admm.ADMM.compute_residuals" xlink:title="admm.ADMM.compute_residuals" target="_top">
<path fill="#8ed88c" stroke="#000000" stroke-width=".25" d="M302,-446C302,-446 159,-446 159,-446 153,-446 147,-440 147,-434 147,-434 147,-422 147,-422 147,-416 153,-410 159,-410 159,-410 302,-410 302,-410 308,-410 314,-416 314,-422 314,-422 314,-434 314,-434 314,-440 308,-446 302,-446"/>
<text text-anchor="middle" x="230.5" y="-425.8" font-family="Vera Sans, DejaVu Sans, Liberation Sans, Arial, Helvetica, sans" font-size="9.00" fill="#000000">admm.ADMM.compute_residuals</text>
</a>
</g>
</g>
<!-- admm.ADMM.solve&#45;&gt;admm.ADMM.compute_residuals -->
<g id="edge5" class="edge">
<title>admm.ADMM.solve&#45;&gt;admm.ADMM.compute_residuals</title>
<path fill="none" stroke="#8ed88c" stroke-width="2" d="M111.27,-428C119.32,-428 127.85,-428 136.5,-428"/>
<polygon fill="#8ed88c" stroke="#8ed88c" stroke-width="2" points="136.68,-431.5001 146.68,-428 136.68,-424.5001 136.68,-431.5001"/>
</g>
<!-- admm.ADMM.display_status -->
<g id="node12" class="node">
<title>admm.ADMM.display_status</title>
<g id="a_node12"><a xlink:href="../../sporco.admm.admm.html#sporco.admm.admm.ADMM.display_status" xlink:title="admm.ADMM.display_status" target="_top">
<path fill="#8ed88c" stroke="#000000" stroke-width=".25" d="M291.5,-608C291.5,-608 169.5,-608 169.5,-608 163.5,-608 157.5,-602 157.5,-596 157.5,-596 157.5,-584 157.5,-584 157.5,-578 163.5,-572 169.5,-572 169.5,-572 291.5,-572 291.5,-572 297.5,-572 303.5,-578 303.5,-584 303.5,-584 303.5,-596 303.5,-596 303.5,-602 297.5,-608 291.5,-608"/>
<text text-anchor="middle" x="230.5" y="-587.8" font-family="Vera Sans, DejaVu Sans, Liberation Sans, Arial, Helvetica, sans" font-size="9.00" fill="#000000">admm.ADMM.display_status</text>
</a>
</g>
</g>
<!-- admm.ADMM.solve&#45;&gt;admm.ADMM.display_status -->
<g id="edge6" class="edge">
<title>admm.ADMM.solve&#45;&gt;admm.ADMM.display_status</title>
<path fill="none" stroke="#8ed88c" stroke-width="2" d="M65.449,-446.24C75.865,-475.3 100.17,-531.99 140,-563 142.65,-565.06 145.46,-566.97 148.38,-568.73"/>
<polygon fill="#8ed88c" stroke="#8ed88c" stroke-width="2" points="146.9733,-571.9471 157.44,-573.59 150.2823,-565.7786 146.9733,-571.9471"/>
</g>
<!-- admm.ADMM.display_start -->
<g id="node13" class="node">
<title>admm.ADMM.display_start</title>
<g id="a_node13"><a xlink:href="../../sporco.admm.admm.html#sporco.admm.admm.ADMM.display_start" xlink:title="admm.ADMM.display_start" target="_top">
<path fill="#8ed88c" stroke="#000000" stroke-width=".25" d="M287.5,-284C287.5,-284 173.5,-284 173.5,-284 167.5,-284 161.5,-278 161.5,-272 161.5,-272 161.5,-260 161.5,-260 161.5,-254 167.5,-248 173.5,-248 173.5,-248 287.5,-248 287.5,-248 293.5,-248 299.5,-254 299.5,-260 299.5,-260 299.5,-272 299.5,-272 299.5,-278 293.5,-284 287.5,-284"/>
<text text-anchor="middle" x="230.5" y="-263.8" font-family="Vera Sans, DejaVu Sans, Liberation Sans, Arial, Helvetica, sans" font-size="9.00" fill="#000000">admm.ADMM.display_start</text>
</a>
</g>
</g>
<!-- admm.ADMM.solve&#45;&gt;admm.ADMM.display_start -->
<g id="edge7" class="edge">
<title>admm.ADMM.solve&#45;&gt;admm.ADMM.display_start</title>
<path fill="none" stroke="#8ed88c" stroke-width="2" d="M65.449,-409.76C75.865,-380.7 100.17,-324.01 140,-293 143.76,-290.07 147.84,-287.46 152.11,-285.13"/>
<polygon fill="#8ed88c" stroke="#8ed88c" stroke-width="2" points="153.6634,-288.2665 161.11,-280.73 150.5889,-281.9778 153.6634,-288.2665"/>
</g>
<!-- admm.ADMM.update_rho -->
<g id="node14" class="node">
<title>admm.ADMM.update_rho</title>
<g id="a_node14"><a xlink:href="../../sporco.admm.admm.html#sporco.admm.admm.ADMM.update_rho" xlink:title="admm.ADMM.update_rho" target="_top">
<path fill="#8ed88c" stroke="#000000" stroke-width=".25" d="M285,-338C285,-338 176,-338 176,-338 170,-338 164,-332 164,-326 164,-326 164,-314 164,-314 164,-308 170,-302 176,-302 176,-302 285,-302 285,-302 291,-302 297,-308 297,-314 297,-314 297,-326 297,-326 297,-332 291,-338 285,-338"/>
<text text-anchor="middle" x="230.5" y="-317.8" font-family="Vera Sans, DejaVu Sans, Liberation Sans, Arial, Helvetica, sans" font-size="9.00" fill="#000000">admm.ADMM.update_rho</text>
</a>
</g>
</g>
<!-- admm.ADMM.solve&#45;&gt;admm.ADMM.update_rho -->
<g id="edge8" class="edge">
<title>admm.ADMM.solve&#45;&gt;admm.ADMM.update_rho</title>
<path fill="none" stroke="#8ed88c" stroke-width="2" d="M72.942,-409.93C87.523,-391.55 112.44,-363.49 140,-347 144.46,-344.33 149.2,-341.91 154.09,-339.72"/>
<polygon fill="#8ed88c" stroke="#8ed88c" stroke-width="2" points="155.7222,-342.8323 163.62,-335.77 153.0419,-336.3657 155.7222,-342.8323"/>
</g>
<!-- admm.ADMM.display_end -->
<g id="node15" class="node">
<title>admm.ADMM.display_end</title>
<g id="a_node15"><a xlink:href="../../sporco.admm.admm.html#sporco.admm.admm.ADMM.display_end" xlink:title="admm.ADMM.display_end" target="_top">
<path fill="#8ed88c" stroke="#000000" stroke-width=".25" d="M285.5,-392C285.5,-392 175.5,-392 175.5,-392 169.5,-392 163.5,-386 163.5,-380 163.5,-380 163.5,-368 163.5,-368 163.5,-362 169.5,-356 175.5,-356 175.5,-356 285.5,-356 285.5,-356 291.5,-356 297.5,-362 297.5,-368 297.5,-368 297.5,-380 297.5,-380 297.5,-386 291.5,-392 285.5,-392"/>
<text text-anchor="middle" x="230.5" y="-371.8" font-family="Vera Sans, DejaVu Sans, Liberation Sans, Arial, Helvetica, sans" font-size="9.00" fill="#000000">admm.ADMM.display_end</text>
</a>
</g>
</g>
<!-- admm.ADMM.solve&#45;&gt;admm.ADMM.display_end -->
<g id="edge9" class="edge">
<title>admm.ADMM.solve&#45;&gt;admm.ADMM.display_end</title>
<path fill="none" stroke="#8ed88c" stroke-width="2" d="M111.38,-410.31C120.88,-407.16 130.73,-403.94 140,-401 146.3,-399 152.86,-396.97 159.44,-394.95"/>
<polygon fill="#8ed88c" stroke="#8ed88c" stroke-width="2" points="160.53,-398.2769 169.08,-392.02 158.4943,-391.5794 160.53,-398.2769"/>
</g>
<!-- cbpdn.ConvBPDN.ystep -->
<g id="node16" class="node">
<title>cbpdn.ConvBPDN.ystep</title>
<g id="a_node16"><a xlink:href="../../sporco.admm.cbpdn.html#sporco.admm.cbpdn.ConvBPDN.ystep" xlink:title="cbpdn.ConvBPDN.ystep" target="_top">
<path fill="#af8cd8" stroke="#000000" stroke-width=".25" d="M281,-686C281,-686 180,-686 180,-686 174,-686 168,-680 168,-674 168,-674 168,-662 168,-662 168,-656 174,-650 180,-650 180,-650 281,-650 281,-650 287,-650 293,-656 293,-662 293,-662 293,-674 293,-674 293,-680 287,-686 281,-686"/>
<text text-anchor="middle" x="230.5" y="-665.8" font-family="Vera Sans, DejaVu Sans, Liberation Sans, Arial, Helvetica, sans" font-size="9.00" fill="#000000">cbpdn.ConvBPDN.ystep</text>
</a>
</g>
</g>
<!-- admm.ADMM.solve&#45;&gt;cbpdn.ConvBPDN.ystep -->
<g id="edge10" class="edge">
<title>admm.ADMM.solve&#45;&gt;cbpdn.ConvBPDN.ystep</title>
<path fill="none" stroke="#8ed88c" stroke-width="2" d="M61.264,-446.01C66.16,-486.23 83.527,-584.07 140,-638 145.43,-643.19 151.78,-647.48 158.55,-651.03"/>
<polygon fill="#8ed88c" stroke="#8ed88c" stroke-width="2" points="157.4562,-654.3811 168,-655.42 160.4054,-648.0326 157.4562,-654.3811"/>
</g>
<!-- admm.ADMMEqual.getmin -->
<g id="node19" class="node">
<title>admm.ADMMEqual.getmin</title>
<g id="a_node19"><a xlink:href="../../sporco.admm.admm.html#sporco.admm.admm.ADMMEqual.getmin" xlink:title="admm.ADMMEqual.getmin" target="_top">
<path fill="#8cc8d8" stroke="#000000" stroke-width=".25" d="M287,-152C287,-152 174,-152 174,-152 168,-152 162,-146 162,-140 162,-140 162,-128 162,-128 162,-122 168,-116 174,-116 174,-116 287,-116 287,-116 293,-116 299,-122 299,-128 299,-128 299,-140 299,-140 299,-146 293,-152 287,-152"/>
<text text-anchor="middle" x="230.5" y="-131.8" font-family="Vera Sans, DejaVu Sans, Liberation Sans, Arial, Helvetica, sans" font-size="9.00" fill="#000000">admm.ADMMEqual.getmin</text>
</a>
</g>
</g>
<!-- admm.ADMM.solve&#45;&gt;admm.ADMMEqual.getmin -->
<g id="edge11" class="edge">
<title>admm.ADMM.solve&#45;&gt;admm.ADMMEqual.getmin</title>
<path fill="none" stroke="#8ed88c" stroke-width="2" d="M62.665,-409.88C72.449,-355.81 103.74,-197.15 140,-161 143.75,-157.26 147.99,-154.04 152.55,-151.25"/>
<polygon fill="#8ed88c" stroke="#8ed88c" stroke-width="2" points="154.4448,-154.2069 161.64,-146.43 151.1655,-148.0225 154.4448,-154.2069"/>
</g>
<!-- admm.ADMMEqual.relax_AX -->
<g id="node20" class="node">
<title>admm.ADMMEqual.relax_AX</title>
<g id="a_node20"><a xlink:href="../../sporco.admm.admm.html#sporco.admm.admm.ADMMEqual.relax_AX" xlink:title="admm.ADMMEqual.relax_AX" target="_top">
<path fill="#8cc8d8" stroke="#000000" stroke-width=".25" d="M290,-206C290,-206 171,-206 171,-206 165,-206 159,-200 159,-194 159,-194 159,-182 159,-182 159,-176 165,-170 171,-170 171,-170 290,-170 290,-170 296,-170 302,-176 302,-182 302,-182 302,-194 302,-194 302,-200 296,-206 290,-206"/>
<text text-anchor="middle" x="230.5" y="-185.8" font-family="Vera Sans, DejaVu Sans, Liberation Sans, Arial, Helvetica, sans" font-size="9.00" fill="#000000">admm.ADMMEqual.relax_AX</text>
</a>
</g>
</g>
<!-- admm.ADMM.solve&#45;&gt;admm.ADMMEqual.relax_AX -->
<g id="edge12" class="edge">
<title>admm.ADMM.solve&#45;&gt;admm.ADMMEqual.relax_AX</title>
<path fill="none" stroke="#8ed88c" stroke-width="2" d="M62.82,-409.92C70.419,-373.07 92.23,-288.31 140,-236 149.17,-225.95 160.95,-217.62 172.95,-210.88"/>
<polygon fill="#8ed88c" stroke="#8ed88c" stroke-width="2" points="174.9165,-213.7999 182.13,-206.04 171.6518,-207.6078 174.9165,-213.7999"/>
</g>
<!-- admm.ADMM.iteration_stats&#45;&gt;cbpdn.GenericConvBPDN.eval_objfn -->
<g id="edge14" class="edge">
<title>admm.ADMM.iteration_stats&#45;&gt;cbpdn.GenericConvBPDN.eval_objfn</title>
<path fill="none" stroke="#8ed88c" stroke-width="2" d="M304.17,-553.46C310.42,-556.2 316.46,-559.36 322,-563 333.6,-570.63 330.29,-579.54 342,-587 344.59,-588.65 347.29,-590.2 350.05,-591.66"/>
<polygon fill="#8ed88c" stroke="#8ed88c" stroke-width="2" points="348.5793,-594.8363 359.11,-596 351.6034,-588.5232 348.5793,-594.8363"/>
</g>
<!-- admm.ADMM.iteration_stats&#45;&gt;cbpdn.GenericConvBPDN.itstat_extra -->
<g id="edge15" class="edge">
<title>admm.ADMM.iteration_stats&#45;&gt;cbpdn.GenericConvBPDN.itstat_extra</title>
<path fill="none" stroke="#8ed88c" stroke-width="2" d="M304.15,-544.26C315.67,-545.55 327.77,-546.91 339.83,-548.26"/>
<polygon fill="#8ed88c" stroke="#8ed88c" stroke-width="2" points="339.6028,-551.7563 349.93,-549.39 340.3812,-544.7997 339.6028,-551.7563"/>
</g>
<!-- admm.ADMMEqual.rsdl_r -->
<g id="node18" class="node">
<title>admm.ADMMEqual.rsdl_r</title>
<g id="a_node18"><a xlink:href="../../sporco.admm.admm.html#sporco.admm.admm.ADMMEqual.rsdl_r" xlink:title="admm.ADMMEqual.rsdl_r" target="_top">
<path fill="#8cc8d8" stroke="#000000" stroke-width=".25" d="M498,-206C498,-206 391,-206 391,-206 385,-206 379,-200 379,-194 379,-194 379,-182 379,-182 379,-176 385,-170 391,-170 391,-170 498,-170 498,-170 504,-170 510,-176 510,-182 510,-182 510,-194 510,-194 510,-200 504,-206 498,-206"/>
<text text-anchor="middle" x="444.5" y="-185.8" font-family="Vera Sans, DejaVu Sans, Liberation Sans, Arial, Helvetica, sans" font-size="9.00" fill="#000000">admm.ADMMEqual.rsdl_r</text>
</a>
</g>
</g>
<!-- admm.ADMM.ustep&#45;&gt;admm.ADMMEqual.rsdl_r -->
<g id="edge16" class="edge">
<title>admm.ADMM.ustep&#45;&gt;admm.ADMMEqual.rsdl_r</title>
<path fill="none" stroke="#8ed88c" stroke-width="2" d="M283.72,-474.43C297.37,-470.43 311.23,-464.33 322,-455 396.81,-390.2 428.59,-270.21 439.6,-215.95"/>
<polygon fill="#8ed88c" stroke="#8ed88c" stroke-width="2" points="443.0618,-216.482 441.52,-206 436.1886,-215.1557 443.0618,-216.482"/>
</g>
<!-- admm.ADMMEqual.rsdl_s -->
<g id="node17" class="node">
<title>admm.ADMMEqual.rsdl_s</title>
<g id="a_node17"><a xlink:href="../../sporco.admm.admm.html#sporco.admm.admm.ADMMEqual.rsdl_s" xlink:title="admm.ADMMEqual.rsdl_s" target="_top">
<path fill="#8cc8d8" stroke="#000000" stroke-width=".25" d="M498.5,-152C498.5,-152 390.5,-152 390.5,-152 384.5,-152 378.5,-146 378.5,-140 378.5,-140 378.5,-128 378.5,-128 378.5,-122 384.5,-116 390.5,-116 390.5,-116 498.5,-116 498.5,-116 504.5,-116 510.5,-122 510.5,-128 510.5,-128 510.5,-140 510.5,-140 510.5,-146 504.5,-152 498.5,-152"/>
<text text-anchor="middle" x="444.5" y="-131.8" font-family="Vera Sans, DejaVu Sans, Liberation Sans, Arial, Helvetica, sans" font-size="9.00" fill="#000000">admm.ADMMEqual.rsdl_s</text>
</a>
</g>
</g>
<!-- admm.ADMM.compute_residuals&#45;&gt;admm.ADMMEqual.rsdl_s -->
<g id="edge17" class="edge">
<title>admm.ADMM.compute_residuals&#45;&gt;admm.ADMMEqual.rsdl_s</title>
<path fill="none" stroke="#8ed88c" stroke-width="2" d="M312.77,-409.86C316.17,-407.28 319.28,-404.34 322,-401 355.8,-359.5 307.6,-202 342,-161 349.11,-152.53 358.53,-146.55 368.79,-142.35"/>
<polygon fill="#8ed88c" stroke="#8ed88c" stroke-width="2" points="370.1216,-145.5921 378.4,-138.98 367.8052,-138.9864 370.1216,-145.5921"/>
</g>
<!-- admm.ADMM.compute_residuals&#45;&gt;admm.ADMMEqual.rsdl_r -->
<g id="edge18" class="edge">
<title>admm.ADMM.compute_residuals&#45;&gt;admm.ADMMEqual.rsdl_r</title>
<path fill="none" stroke="#8ed88c" stroke-width="2" d="M308.06,-409.94C313,-407.35 317.71,-404.39 322,-401 384.43,-351.75 420.89,-261.29 436.1,-215.75"/>
<polygon fill="#8ed88c" stroke="#8ed88c" stroke-width="2" points="439.435,-216.812 439.19,-206.22 432.7763,-214.6529 439.435,-216.812"/>
</g>
<!-- admm.ADMMEqual.rsdl_rn -->
<g id="node22" class="node">
<title>admm.ADMMEqual.rsdl_rn</title>
<g id="a_node22"><a xlink:href="../../sporco.admm.admm.html#sporco.admm.admm.ADMMEqual.rsdl_rn" xlink:title="admm.ADMMEqual.rsdl_rn" target="_top">
<path fill="#8cc8d8" stroke="#000000" stroke-width=".25" d="M501,-44C501,-44 388,-44 388,-44 382,-44 376,-38 376,-32 376,-32 376,-20 376,-20 376,-14 382,-8 388,-8 388,-8 501,-8 501,-8 507,-8 513,-14 513,-20 513,-20 513,-32 513,-32 513,-38 507,-44 501,-44"/>
<text text-anchor="middle" x="444.5" y="-23.8" font-family="Vera Sans, DejaVu Sans, Liberation Sans, Arial, Helvetica, sans" font-size="9.00" fill="#000000">admm.ADMMEqual.rsdl_rn</text>
</a>
</g>
</g>
<!-- admm.ADMM.compute_residuals&#45;&gt;admm.ADMMEqual.rsdl_rn -->
<g id="edge19" class="edge">
<title>admm.ADMM.compute_residuals&#45;&gt;admm.ADMMEqual.rsdl_rn</title>
<path fill="none" stroke="#8ed88c" stroke-width="2" d="M312.88,-409.95C316.25,-407.34 319.32,-404.37 322,-401 370.14,-340.31 292.97,-112.97 342,-53 348.46,-45.093 356.94,-39.345 366.26,-35.192"/>
<polygon fill="#8ed88c" stroke="#8ed88c" stroke-width="2" points="367.7136,-38.3836 375.81,-31.55 365.2192,-31.8431 367.7136,-38.3836"/>
</g>
<!-- admm.ADMMEqual.rsdl_sn -->
<g id="node23" class="node">
<title>admm.ADMMEqual.rsdl_sn</title>
<g id="a_node23"><a xlink:href="../../sporco.admm.admm.html#sporco.admm.admm.ADMMEqual.rsdl_sn" xlink:title="admm.ADMMEqual.rsdl_sn" target="_top">
<path fill="#8cc8d8" stroke="#000000" stroke-width=".25" d="M501.5,-98C501.5,-98 387.5,-98 387.5,-98 381.5,-98 375.5,-92 375.5,-86 375.5,-86 375.5,-74 375.5,-74 375.5,-68 381.5,-62 387.5,-62 387.5,-62 501.5,-62 501.5,-62 507.5,-62 513.5,-68 513.5,-74 513.5,-74 513.5,-86 513.5,-86 513.5,-92 507.5,-98 501.5,-98"/>
<text text-anchor="middle" x="444.5" y="-77.8" font-family="Vera Sans, DejaVu Sans, Liberation Sans, Arial, Helvetica, sans" font-size="9.00" fill="#000000">admm.ADMMEqual.rsdl_sn</text>
</a>
</g>
</g>
<!-- admm.ADMM.compute_residuals&#45;&gt;admm.ADMMEqual.rsdl_sn -->
<g id="edge20" class="edge">
<title>admm.ADMM.compute_residuals&#45;&gt;admm.ADMMEqual.rsdl_sn</title>
<path fill="none" stroke="#8ed88c" stroke-width="2" d="M312.84,-409.91C316.22,-407.32 319.31,-404.36 322,-401 362.97,-349.91 300.29,-157.48 342,-107 348.42,-99.23 356.78,-93.55 365.96,-89.424"/>
<polygon fill="#8ed88c" stroke="#8ed88c" stroke-width="2" points="367.3024,-92.6576 375.37,-85.79 364.7805,-86.1276 367.3024,-92.6576"/>
</g>
<!-- cbpdn.ConvBPDN.ystep&#45;&gt;cbpdn.GenericConvBPDN.ystep -->
<g id="edge21" class="edge">
<title>cbpdn.ConvBPDN.ystep&#45;&gt;cbpdn.GenericConvBPDN.ystep</title>
<path fill="none" stroke="#af8cd8" stroke-width="2" d="M293.26,-668C312.15,-668 333.26,-668 353.59,-668"/>
<polygon fill="#af8cd8" stroke="#af8cd8" stroke-width="2" points="353.81,-671.5001 363.81,-668 353.81,-664.5001 353.81,-671.5001"/>
</g>
</g>
</svg>
