<?xml version="1.0" encoding="UTF-8" standalone="no"?>
<!DOCTYPE svg PUBLIC "-//W3C//DTD SVG 1.1//EN"
 "http://www.w3.org/Graphics/SVG/1.1/DTD/svg11.dtd">
<!-- Generated by graphviz version 2.40.1 (20161225.0304)
 -->
<!-- Pages: 1 -->
<svg
 viewBox="0.00 0.00 985.00 852.00" xmlns="http://www.w3.org/2000/svg" xmlns:xlink="http://www.w3.org/1999/xlink">
<g id="graph0" class="graph" transform="scale(1 1) rotate(0) translate(4 848)">
<polygon fill="transparent" stroke="transparent" points="-4,4 -4,-848 981,-848 981,4 -4,4"/>
<g id="clust1" class="cluster">
<title>cluster_admm.ADMM</title>
<polygon fill="transparent" stroke="#8ed88c" stroke-width="2" stroke-dasharray="1,5" points="0,-210 0,-604 322,-604 322,-210 0,-210"/>
<text text-anchor="middle" x="161" y="-592.8" font-family="Vera Sans, DejaVu Sans, Liberation Sans, Arial, Helvetica, sans" font-size="9.00" fill="#000000">admm.ADMM</text>
</g>
<g id="clust2" class="cluster">
<title>cluster_admm.ADMMEqual</title>
<polygon fill="transparent" stroke="#8ca8d8" stroke-width="2" stroke-dasharray="1,5" points="151,-612 151,-844 746.5,-844 746.5,-612 151,-612"/>
<text text-anchor="middle" x="448.75" y="-832.8" font-family="Vera Sans, DejaVu Sans, Liberation Sans, Arial, Helvetica, sans" font-size="9.00" fill="#000000">admm.ADMMEqual</text>
</g>
<g id="clust3" class="cluster">
<title>cluster_cbpdn.GenericConvBPDN</title>
<polygon fill="transparent" stroke="#d88c8c" stroke-width="2" stroke-dasharray="1,5" points="142,0 142,-124 977,-124 977,0 142,0"/>
<text text-anchor="middle" x="559.5" y="-112.8" font-family="Vera Sans, DejaVu Sans, Liberation Sans, Arial, Helvetica, sans" font-size="9.00" fill="#000000">cbpdn.GenericConvBPDN</text>
</g>
<g id="clust4" class="cluster">
<title>cluster_cbpdn.ConvBPDNProjL1</title>
<polygon fill="transparent" stroke="#d88cc3" stroke-width="2" stroke-dasharray="1,5" points="145.5,-132 145.5,-202 540,-202 540,-132 145.5,-132"/>
<text text-anchor="middle" x="342.75" y="-190.8" font-family="Vera Sans, DejaVu Sans, Liberation Sans, Arial, Helvetica, sans" font-size="9.00" fill="#000000">cbpdn.ConvBPDNProjL1</text>
</g>
<!-- admm.ADMM.ustep -->
<g id="node1" class="node">
<title>admm.ADMM.ustep</title>
<g id="a_node1"><a xlink:href="../../sporco.admm.admm.html#sporco.admm.admm.ADMM.ustep" xlink:title="admm.ADMM.ustep" target="_top">
<path fill="#8ed88c" stroke="#000000" stroke-width=".25" d="M271.5,-362C271.5,-362 189.5,-362 189.5,-362 183.5,-362 177.5,-356 177.5,-350 177.5,-350 177.5,-338 177.5,-338 177.5,-332 183.5,-326 189.5,-326 189.5,-326 271.5,-326 271.5,-326 277.5,-326 283.5,-332 283.5,-338 283.5,-338 283.5,-350 283.5,-350 283.5,-356 277.5,-362 271.5,-362"/>
<text text-anchor="middle" x="230.5" y="-341.8" font-family="Vera Sans, DejaVu Sans, Liberation Sans, Arial, Helvetica, sans" font-size="9.00" fill="#000000">admm.ADMM.ustep</text>
</a>
</g>
</g>
<!-- admm.ADMMEqual.rsdl_r -->
<g id="node11" class="node">
<title>admm.ADMMEqual.rsdl_r</title>
<g id="a_node11"><a xlink:href="../../sporco.admm.admm.html#sporco.admm.admm.ADMMEqual.rsdl_r" xlink:title="admm.ADMMEqual.rsdl_r" target="_top">
<path fill="#8ca8d8" stroke="#000000" stroke-width=".25" d="M498,-656C498,-656 391,-656 391,-656 385,-656 379,-650 379,-644 379,-644 379,-632 379,-632 379,-626 385,-620 391,-620 391,-620 498,-620 498,-620 504,-620 510,-626 510,-632 510,-632 510,-644 510,-644 510,-650 504,-656 498,-656"/>
<text text-anchor="middle" x="444.5" y="-635.8" font-family="Vera Sans, DejaVu Sans, Liberation Sans, Arial, Helvetica, sans" font-size="9.00" fill="#000000">admm.ADMMEqual.rsdl_r</text>
</a>
</g>
</g>
<!-- admm.ADMM.ustep&#45;&gt;admm.ADMMEqual.rsdl_r -->
<g id="edge9" class="edge">
<title>admm.ADMM.ustep&#45;&gt;admm.ADMMEqual.rsdl_r</title>
<path fill="none" stroke="#8ed88c" stroke-width="2" d="M283.72,-351.57C297.37,-355.57 311.23,-361.67 322,-371 396.81,-435.8 428.59,-555.79 439.6,-610.05"/>
<polygon fill="#8ed88c" stroke="#8ed88c" stroke-width="2" points="436.1886,-610.8443 441.52,-620 443.0618,-609.518 436.1886,-610.8443"/>
</g>
<!-- admm.ADMM.display_status -->
<g id="node2" class="node">
<title>admm.ADMM.display_status</title>
<g id="a_node2"><a xlink:href="../../sporco.admm.admm.html#sporco.admm.admm.ADMM.display_status" xlink:title="admm.ADMM.display_status" target="_top">
<path fill="#8ed88c" stroke="#000000" stroke-width=".25" d="M291.5,-308C291.5,-308 169.5,-308 169.5,-308 163.5,-308 157.5,-302 157.5,-296 157.5,-296 157.5,-284 157.5,-284 157.5,-278 163.5,-272 169.5,-272 169.5,-272 291.5,-272 291.5,-272 297.5,-272 303.5,-278 303.5,-284 303.5,-284 303.5,-296 303.5,-296 303.5,-302 297.5,-308 291.5,-308"/>
<text text-anchor="middle" x="230.5" y="-287.8" font-family="Vera Sans, DejaVu Sans, Liberation Sans, Arial, Helvetica, sans" font-size="9.00" fill="#000000">admm.ADMM.display_status</text>
</a>
</g>
</g>
<!-- admm.ADMM.iteration_stats -->
<g id="node3" class="node">
<title>admm.ADMM.iteration_stats</title>
<g id="a_node3"><a xlink:href="../../sporco.admm.admm.html#sporco.admm.admm.ADMM.iteration_stats" xlink:title="admm.ADMM.iteration_stats" target="_top">
<path fill="#8ed88c" stroke="#000000" stroke-width=".25" d="M292,-254C292,-254 169,-254 169,-254 163,-254 157,-248 157,-242 157,-242 157,-230 157,-230 157,-224 163,-218 169,-218 169,-218 292,-218 292,-218 298,-218 304,-224 304,-230 304,-230 304,-242 304,-242 304,-248 298,-254 292,-254"/>
<text text-anchor="middle" x="230.5" y="-233.8" font-family="Vera Sans, DejaVu Sans, Liberation Sans, Arial, Helvetica, sans" font-size="9.00" fill="#000000">admm.ADMM.iteration_stats</text>
</a>
</g>
</g>
<!-- cbpdn.GenericConvBPDN.itstat_extra -->
<g id="node20" class="node">
<title>cbpdn.GenericConvBPDN.itstat_extra</title>
<g id="a_node20"><a xlink:href="../../sporco.admm.cbpdn.html#sporco.admm.cbpdn.GenericConvBPDN.itstat_extra" xlink:title="cbpdn.GenericConvBPDN.itstat_extra" target="_top">
<path fill="#d88c8c" stroke="#000000" stroke-width=".25" d="M527,-98C527,-98 362,-98 362,-98 356,-98 350,-92 350,-86 350,-86 350,-74 350,-74 350,-68 356,-62 362,-62 362,-62 527,-62 527,-62 533,-62 539,-68 539,-74 539,-74 539,-86 539,-86 539,-92 533,-98 527,-98"/>
<text text-anchor="middle" x="444.5" y="-77.8" font-family="Vera Sans, DejaVu Sans, Liberation Sans, Arial, Helvetica, sans" font-size="9.00" fill="#000000">cbpdn.GenericConvBPDN.itstat_extra</text>
</a>
</g>
</g>
<!-- admm.ADMM.iteration_stats&#45;&gt;cbpdn.GenericConvBPDN.itstat_extra -->
<g id="edge10" class="edge">
<title>admm.ADMM.iteration_stats&#45;&gt;cbpdn.GenericConvBPDN.itstat_extra</title>
<path fill="none" stroke="#8ed88c" stroke-width="2" d="M304.42,-218.66C310.84,-215.19 316.85,-211.01 322,-206 348.4,-180.32 325.64,-155.62 350,-128 358.92,-117.88 370.49,-109.62 382.44,-102.99"/>
<polygon fill="#8ed88c" stroke="#8ed88c" stroke-width="2" points="384.3601,-105.9371 391.63,-98.23 381.1407,-99.7214 384.3601,-105.9371"/>
</g>
<!-- cbpdn.ConvBPDNProjL1.eval_objfn -->
<g id="node21" class="node">
<title>cbpdn.ConvBPDNProjL1.eval_objfn</title>
<g id="a_node21"><a xlink:href="../../sporco.admm.cbpdn.html#sporco.admm.cbpdn.ConvBPDNProjL1.eval_objfn" xlink:title="cbpdn.ConvBPDNProjL1.eval_objfn" target="_top">
<path fill="#d88cc3" stroke="#000000" stroke-width=".25" d="M520,-176C520,-176 369,-176 369,-176 363,-176 357,-170 357,-164 357,-164 357,-152 357,-152 357,-146 363,-140 369,-140 369,-140 520,-140 520,-140 526,-140 532,-146 532,-152 532,-152 532,-164 532,-164 532,-170 526,-176 520,-176"/>
<text text-anchor="middle" x="444.5" y="-155.8" font-family="Vera Sans, DejaVu Sans, Liberation Sans, Arial, Helvetica, sans" font-size="9.00" fill="#000000">cbpdn.ConvBPDNProjL1.eval_objfn</text>
</a>
</g>
</g>
<!-- admm.ADMM.iteration_stats&#45;&gt;cbpdn.ConvBPDNProjL1.eval_objfn -->
<g id="edge11" class="edge">
<title>admm.ADMM.iteration_stats&#45;&gt;cbpdn.ConvBPDNProjL1.eval_objfn</title>
<path fill="none" stroke="#8ed88c" stroke-width="2" d="M287.29,-217.93C298.82,-214.11 310.83,-210.02 322,-206 344.65,-197.86 369.4,-188.29 390.7,-179.84"/>
<polygon fill="#8ed88c" stroke="#8ed88c" stroke-width="2" points="392.2238,-183.0006 400.22,-176.05 389.6346,-176.497 392.2238,-183.0006"/>
</g>
<!-- admm.ADMM.update_rho -->
<g id="node4" class="node">
<title>admm.ADMM.update_rho</title>
<g id="a_node4"><a xlink:href="../../sporco.admm.admm.html#sporco.admm.admm.ADMM.update_rho" xlink:title="admm.ADMM.update_rho" target="_top">
<path fill="#8ed88c" stroke="#000000" stroke-width=".25" d="M285,-416C285,-416 176,-416 176,-416 170,-416 164,-410 164,-404 164,-404 164,-392 164,-392 164,-386 170,-380 176,-380 176,-380 285,-380 285,-380 291,-380 297,-386 297,-392 297,-392 297,-404 297,-404 297,-410 291,-416 285,-416"/>
<text text-anchor="middle" x="230.5" y="-395.8" font-family="Vera Sans, DejaVu Sans, Liberation Sans, Arial, Helvetica, sans" font-size="9.00" fill="#000000">admm.ADMM.update_rho</text>
</a>
</g>
</g>
<!-- admm.ADMM.display_end -->
<g id="node5" class="node">
<title>admm.ADMM.display_end</title>
<g id="a_node5"><a xlink:href="../../sporco.admm.admm.html#sporco.admm.admm.ADMM.display_end" xlink:title="admm.ADMM.display_end" target="_top">
<path fill="#8ed88c" stroke="#000000" stroke-width=".25" d="M285.5,-470C285.5,-470 175.5,-470 175.5,-470 169.5,-470 163.5,-464 163.5,-458 163.5,-458 163.5,-446 163.5,-446 163.5,-440 169.5,-434 175.5,-434 175.5,-434 285.5,-434 285.5,-434 291.5,-434 297.5,-440 297.5,-446 297.5,-446 297.5,-458 297.5,-458 297.5,-464 291.5,-470 285.5,-470"/>
<text text-anchor="middle" x="230.5" y="-449.8" font-family="Vera Sans, DejaVu Sans, Liberation Sans, Arial, Helvetica, sans" font-size="9.00" fill="#000000">admm.ADMM.display_end</text>
</a>
</g>
</g>
<!-- admm.ADMM.compute_residuals -->
<g id="node6" class="node">
<title>admm.ADMM.compute_residuals</title>
<g id="a_node6"><a xlink:href="../../sporco.admm.admm.html#sporco.admm.admm.ADMM.compute_residuals" xlink:title="admm.ADMM.compute_residuals" target="_top">
<path fill="#8ed88c" stroke="#000000" stroke-width=".25" d="M302,-524C302,-524 159,-524 159,-524 153,-524 147,-518 147,-512 147,-512 147,-500 147,-500 147,-494 153,-488 159,-488 159,-488 302,-488 302,-488 308,-488 314,-494 314,-500 314,-500 314,-512 314,-512 314,-518 308,-524 302,-524"/>
<text text-anchor="middle" x="230.5" y="-503.8" font-family="Vera Sans, DejaVu Sans, Liberation Sans, Arial, Helvetica, sans" font-size="9.00" fill="#000000">admm.ADMM.compute_residuals</text>
</a>
</g>
</g>
<!-- admm.ADMMEqual.rsdl_sn -->
<g id="node9" class="node">
<title>admm.ADMMEqual.rsdl_sn</title>
<g id="a_node9"><a xlink:href="../../sporco.admm.admm.html#sporco.admm.admm.ADMMEqual.rsdl_sn" xlink:title="admm.ADMMEqual.rsdl_sn" target="_top">
<path fill="#8ca8d8" stroke="#000000" stroke-width=".25" d="M501.5,-710C501.5,-710 387.5,-710 387.5,-710 381.5,-710 375.5,-704 375.5,-698 375.5,-698 375.5,-686 375.5,-686 375.5,-680 381.5,-674 387.5,-674 387.5,-674 501.5,-674 501.5,-674 507.5,-674 513.5,-680 513.5,-686 513.5,-686 513.5,-698 513.5,-698 513.5,-704 507.5,-710 501.5,-710"/>
<text text-anchor="middle" x="444.5" y="-689.8" font-family="Vera Sans, DejaVu Sans, Liberation Sans, Arial, Helvetica, sans" font-size="9.00" fill="#000000">admm.ADMMEqual.rsdl_sn</text>
</a>
</g>
</g>
<!-- admm.ADMM.compute_residuals&#45;&gt;admm.ADMMEqual.rsdl_sn -->
<g id="edge12" class="edge">
<title>admm.ADMM.compute_residuals&#45;&gt;admm.ADMMEqual.rsdl_sn</title>
<path fill="none" stroke="#8ed88c" stroke-width="2" d="M311.46,-524C315.3,-526.61 318.85,-529.6 322,-533 362.72,-577.03 309.09,-621.15 350,-665 354.69,-670.03 360.25,-674.14 366.28,-677.51"/>
<polygon fill="#8ed88c" stroke="#8ed88c" stroke-width="2" points="364.8926,-680.7266 375.42,-681.92 367.9345,-674.4221 364.8926,-680.7266"/>
</g>
<!-- admm.ADMM.compute_residuals&#45;&gt;admm.ADMMEqual.rsdl_r -->
<g id="edge13" class="edge">
<title>admm.ADMM.compute_residuals&#45;&gt;admm.ADMMEqual.rsdl_r</title>
<path fill="none" stroke="#8ed88c" stroke-width="2" d="M302.61,-524.1C309.32,-526.72 315.89,-529.68 322,-533 360.64,-554 397.96,-588.74 421.05,-612.46"/>
<polygon fill="#8ed88c" stroke="#8ed88c" stroke-width="2" points="418.5861,-614.9475 428.03,-619.75 423.6422,-610.1064 418.5861,-614.9475"/>
</g>
<!-- admm.ADMMEqual.rsdl_s -->
<g id="node12" class="node">
<title>admm.ADMMEqual.rsdl_s</title>
<g id="a_node12"><a xlink:href="../../sporco.admm.admm.html#sporco.admm.admm.ADMMEqual.rsdl_s" xlink:title="admm.ADMMEqual.rsdl_s" target="_top">
<path fill="#8ca8d8" stroke="#000000" stroke-width=".25" d="M498.5,-818C498.5,-818 390.5,-818 390.5,-818 384.5,-818 378.5,-812 378.5,-806 378.5,-806 378.5,-794 378.5,-794 378.5,-788 384.5,-782 390.5,-782 390.5,-782 498.5,-782 498.5,-782 504.5,-782 510.5,-788 510.5,-794 510.5,-794 510.5,-806 510.5,-806 510.5,-812 504.5,-818 498.5,-818"/>
<text text-anchor="middle" x="444.5" y="-797.8" font-family="Vera Sans, DejaVu Sans, Liberation Sans, Arial, Helvetica, sans" font-size="9.00" fill="#000000">admm.ADMMEqual.rsdl_s</text>
</a>
</g>
</g>
<!-- admm.ADMM.compute_residuals&#45;&gt;admm.ADMMEqual.rsdl_s -->
<g id="edge14" class="edge">
<title>admm.ADMM.compute_residuals&#45;&gt;admm.ADMMEqual.rsdl_s</title>
<path fill="none" stroke="#8ed88c" stroke-width="2" d="M312.64,-524.25C316.07,-526.8 319.23,-529.71 322,-533 391.18,-615.14 280.46,-691.16 350,-773 355.2,-779.13 361.69,-783.91 368.82,-787.64"/>
<polygon fill="#8ed88c" stroke="#8ed88c" stroke-width="2" points="367.5745,-790.9176 378.13,-791.83 370.4474,-784.5342 367.5745,-790.9176"/>
</g>
<!-- admm.ADMMEqual.rsdl_rn -->
<g id="node13" class="node">
<title>admm.ADMMEqual.rsdl_rn</title>
<g id="a_node13"><a xlink:href="../../sporco.admm.admm.html#sporco.admm.admm.ADMMEqual.rsdl_rn" xlink:title="admm.ADMMEqual.rsdl_rn" target="_top">
<path fill="#8ca8d8" stroke="#000000" stroke-width=".25" d="M501,-764C501,-764 388,-764 388,-764 382,-764 376,-758 376,-752 376,-752 376,-740 376,-740 376,-734 382,-728 388,-728 388,-728 501,-728 501,-728 507,-728 513,-734 513,-740 513,-740 513,-752 513,-752 513,-758 507,-764 501,-764"/>
<text text-anchor="middle" x="444.5" y="-743.8" font-family="Vera Sans, DejaVu Sans, Liberation Sans, Arial, Helvetica, sans" font-size="9.00" fill="#000000">admm.ADMMEqual.rsdl_rn</text>
</a>
</g>
</g>
<!-- admm.ADMM.compute_residuals&#45;&gt;admm.ADMMEqual.rsdl_rn -->
<g id="edge15" class="edge">
<title>admm.ADMM.compute_residuals&#45;&gt;admm.ADMMEqual.rsdl_rn</title>
<path fill="none" stroke="#8ed88c" stroke-width="2" d="M312.11,-524.07C315.73,-526.67 319.06,-529.63 322,-533 376.91,-596.03 294.82,-656.2 350,-719 354.69,-724.34 360.36,-728.66 366.56,-732.14"/>
<polygon fill="#8ed88c" stroke="#8ed88c" stroke-width="2" points="365.4415,-735.486 375.97,-736.67 368.4779,-729.1788 365.4415,-735.486"/>
</g>
<!-- admm.ADMM.display_start -->
<g id="node7" class="node">
<title>admm.ADMM.display_start</title>
<g id="a_node7"><a xlink:href="../../sporco.admm.admm.html#sporco.admm.admm.ADMM.display_start" xlink:title="admm.ADMM.display_start" target="_top">
<path fill="#8ed88c" stroke="#000000" stroke-width=".25" d="M287.5,-578C287.5,-578 173.5,-578 173.5,-578 167.5,-578 161.5,-572 161.5,-566 161.5,-566 161.5,-554 161.5,-554 161.5,-548 167.5,-542 173.5,-542 173.5,-542 287.5,-542 287.5,-542 293.5,-542 299.5,-548 299.5,-554 299.5,-554 299.5,-566 299.5,-566 299.5,-572 293.5,-578 287.5,-578"/>
<text text-anchor="middle" x="230.5" y="-557.8" font-family="Vera Sans, DejaVu Sans, Liberation Sans, Arial, Helvetica, sans" font-size="9.00" fill="#000000">admm.ADMM.display_start</text>
</a>
</g>
</g>
<!-- admm.ADMM.solve -->
<g id="node8" class="node">
<title>admm.ADMM.solve</title>
<g id="a_node8"><a xlink:href="../../sporco.admm.admm.html#sporco.admm.admm.ADMM.solve" xlink:title="admm.ADMM.solve" target="_top">
<path fill="#8ed88c" stroke="#000000" stroke-width=".25" d="M99,-416C99,-416 20,-416 20,-416 14,-416 8,-410 8,-404 8,-404 8,-392 8,-392 8,-386 14,-380 20,-380 20,-380 99,-380 99,-380 105,-380 111,-386 111,-392 111,-392 111,-404 111,-404 111,-410 105,-416 99,-416"/>
<text text-anchor="middle" x="59.5" y="-395.8" font-family="Vera Sans, DejaVu Sans, Liberation Sans, Arial, Helvetica, sans" font-size="9.00" fill="#000000">admm.ADMM.solve</text>
</a>
</g>
</g>
<!-- admm.ADMM.solve&#45;&gt;admm.ADMM.ustep -->
<g id="edge1" class="edge">
<title>admm.ADMM.solve&#45;&gt;admm.ADMM.ustep</title>
<path fill="none" stroke="#8ed88c" stroke-width="2" d="M111.38,-380.84C121.52,-377.54 132.09,-374.13 142,-371 150.24,-368.4 158.91,-365.7 167.49,-363.05"/>
<polygon fill="#8ed88c" stroke="#8ed88c" stroke-width="2" points="168.5674,-366.3805 177.1,-360.1 166.5131,-359.6887 168.5674,-366.3805"/>
</g>
<!-- admm.ADMM.solve&#45;&gt;admm.ADMM.display_status -->
<g id="edge2" class="edge">
<title>admm.ADMM.solve&#45;&gt;admm.ADMM.display_status</title>
<path fill="none" stroke="#8ed88c" stroke-width="2" d="M73.394,-379.98C88.434,-361.64 114.05,-333.61 142,-317 144.83,-315.32 147.78,-313.73 150.8,-312.24"/>
<polygon fill="#8ed88c" stroke="#8ed88c" stroke-width="2" points="152.4118,-315.3518 160.06,-308.02 149.5089,-308.9821 152.4118,-315.3518"/>
</g>
<!-- admm.ADMM.solve&#45;&gt;admm.ADMM.iteration_stats -->
<g id="edge3" class="edge">
<title>admm.ADMM.solve&#45;&gt;admm.ADMM.iteration_stats</title>
<path fill="none" stroke="#8ed88c" stroke-width="2" d="M65.748,-379.79C76.635,-350.76 101.83,-294.12 142,-263 143.86,-261.56 145.79,-260.2 147.79,-258.91"/>
<polygon fill="#8ed88c" stroke="#8ed88c" stroke-width="2" points="149.9507,-261.706 156.89,-253.7 146.4726,-255.6312 149.9507,-261.706"/>
</g>
<!-- admm.ADMM.solve&#45;&gt;admm.ADMM.update_rho -->
<g id="edge4" class="edge">
<title>admm.ADMM.solve&#45;&gt;admm.ADMM.update_rho</title>
<path fill="none" stroke="#8ed88c" stroke-width="2" d="M111.27,-398C124.56,-398 139.14,-398 153.41,-398"/>
<polygon fill="#8ed88c" stroke="#8ed88c" stroke-width="2" points="153.72,-401.5001 163.72,-398 153.72,-394.5001 153.72,-401.5001"/>
</g>
<!-- admm.ADMM.solve&#45;&gt;admm.ADMM.display_end -->
<g id="edge5" class="edge">
<title>admm.ADMM.solve&#45;&gt;admm.ADMM.display_end</title>
<path fill="none" stroke="#8ed88c" stroke-width="2" d="M111.38,-415.16C121.52,-418.46 132.09,-421.87 142,-425 148.03,-426.91 154.3,-428.87 160.59,-430.82"/>
<polygon fill="#8ed88c" stroke="#8ed88c" stroke-width="2" points="159.8829,-434.2643 170.47,-433.86 161.9415,-427.5738 159.8829,-434.2643"/>
</g>
<!-- admm.ADMM.solve&#45;&gt;admm.ADMM.compute_residuals -->
<g id="edge6" class="edge">
<title>admm.ADMM.solve&#45;&gt;admm.ADMM.compute_residuals</title>
<path fill="none" stroke="#8ed88c" stroke-width="2" d="M73.394,-416.02C88.434,-434.36 114.05,-462.39 142,-479 144.83,-480.68 147.78,-482.27 150.8,-483.76"/>
<polygon fill="#8ed88c" stroke="#8ed88c" stroke-width="2" points="149.5089,-487.0179 160.06,-487.98 152.4118,-480.6482 149.5089,-487.0179"/>
</g>
<!-- admm.ADMM.solve&#45;&gt;admm.ADMM.display_start -->
<g id="edge7" class="edge">
<title>admm.ADMM.solve&#45;&gt;admm.ADMM.display_start</title>
<path fill="none" stroke="#8ed88c" stroke-width="2" d="M65.748,-416.21C76.635,-445.24 101.83,-501.88 142,-533 145.19,-535.48 148.62,-537.72 152.19,-539.77"/>
<polygon fill="#8ed88c" stroke="#8ed88c" stroke-width="2" points="150.8419,-543.0114 161.34,-544.44 154.0241,-536.7765 150.8419,-543.0114"/>
</g>
<!-- admm.ADMMEqual.relax_AX -->
<g id="node10" class="node">
<title>admm.ADMMEqual.relax_AX</title>
<g id="a_node10"><a xlink:href="../../sporco.admm.admm.html#sporco.admm.admm.ADMMEqual.relax_AX" xlink:title="admm.ADMMEqual.relax_AX" target="_top">
<path fill="#8ca8d8" stroke="#000000" stroke-width=".25" d="M290,-710C290,-710 171,-710 171,-710 165,-710 159,-704 159,-698 159,-698 159,-686 159,-686 159,-680 165,-674 171,-674 171,-674 290,-674 290,-674 296,-674 302,-680 302,-686 302,-686 302,-698 302,-698 302,-704 296,-710 290,-710"/>
<text text-anchor="middle" x="230.5" y="-689.8" font-family="Vera Sans, DejaVu Sans, Liberation Sans, Arial, Helvetica, sans" font-size="9.00" fill="#000000">admm.ADMMEqual.relax_AX</text>
</a>
</g>
</g>
<!-- admm.ADMM.solve&#45;&gt;admm.ADMMEqual.relax_AX -->
<g id="edge17" class="edge">
<title>admm.ADMM.solve&#45;&gt;admm.ADMMEqual.relax_AX</title>
<path fill="none" stroke="#8ed88c" stroke-width="2" d="M62.817,-416.12C73.054,-470.17 105.66,-628.79 142,-665 144.52,-667.51 147.27,-669.79 150.19,-671.86"/>
<polygon fill="#8ed88c" stroke="#8ed88c" stroke-width="2" points="148.4582,-674.9038 158.81,-677.16 152.1246,-668.9408 148.4582,-674.9038"/>
</g>
<!-- admm.ADMMEqual.getmin -->
<g id="node15" class="node">
<title>admm.ADMMEqual.getmin</title>
<g id="a_node15"><a xlink:href="../../sporco.admm.admm.html#sporco.admm.admm.ADMMEqual.getmin" xlink:title="admm.ADMMEqual.getmin" target="_top">
<path fill="#8ca8d8" stroke="#000000" stroke-width=".25" d="M287,-656C287,-656 174,-656 174,-656 168,-656 162,-650 162,-644 162,-644 162,-632 162,-632 162,-626 168,-620 174,-620 174,-620 287,-620 287,-620 293,-620 299,-626 299,-632 299,-632 299,-644 299,-644 299,-650 293,-656 287,-656"/>
<text text-anchor="middle" x="230.5" y="-635.8" font-family="Vera Sans, DejaVu Sans, Liberation Sans, Arial, Helvetica, sans" font-size="9.00" fill="#000000">admm.ADMMEqual.getmin</text>
</a>
</g>
</g>
<!-- admm.ADMM.solve&#45;&gt;admm.ADMMEqual.getmin -->
<g id="edge18" class="edge">
<title>admm.ADMM.solve&#45;&gt;admm.ADMMEqual.getmin</title>
<path fill="none" stroke="#8ed88c" stroke-width="2" d="M61.518,-416.29C66.934,-456.66 85.446,-554.07 142,-608 145.33,-611.17 149,-614.01 152.9,-616.55"/>
<polygon fill="#8ed88c" stroke="#8ed88c" stroke-width="2" points="151.3546,-619.6985 161.77,-621.64 154.8386,-613.6271 151.3546,-619.6985"/>
</g>
<!-- cbpdn.GenericConvBPDN.xstep -->
<g id="node16" class="node">
<title>cbpdn.GenericConvBPDN.xstep</title>
<g id="a_node16"><a xlink:href="../../sporco.admm.cbpdn.html#sporco.admm.cbpdn.GenericConvBPDN.xstep" xlink:title="cbpdn.GenericConvBPDN.xstep" target="_top">
<path fill="#d88c8c" stroke="#000000" stroke-width=".25" d="M299,-98C299,-98 162,-98 162,-98 156,-98 150,-92 150,-86 150,-86 150,-74 150,-74 150,-68 156,-62 162,-62 162,-62 299,-62 299,-62 305,-62 311,-68 311,-74 311,-74 311,-86 311,-86 311,-92 305,-98 299,-98"/>
<text text-anchor="middle" x="230.5" y="-77.8" font-family="Vera Sans, DejaVu Sans, Liberation Sans, Arial, Helvetica, sans" font-size="9.00" fill="#000000">cbpdn.GenericConvBPDN.xstep</text>
</a>
</g>
</g>
<!-- admm.ADMM.solve&#45;&gt;cbpdn.GenericConvBPDN.xstep -->
<g id="edge16" class="edge">
<title>admm.ADMM.solve&#45;&gt;cbpdn.GenericConvBPDN.xstep</title>
<path fill="none" stroke="#8ed88c" stroke-width="2" d="M60.423,-379.73C63.691,-332.75 78.26,-205.99 142,-128 150.29,-117.86 161.3,-109.55 172.74,-102.86"/>
<polygon fill="#8ed88c" stroke="#8ed88c" stroke-width="2" points="174.4315,-105.9242 181.52,-98.05 171.0682,-99.7851 174.4315,-105.9242"/>
</g>
<!-- cbpdn.ConvBPDNProjL1.ystep -->
<g id="node22" class="node">
<title>cbpdn.ConvBPDNProjL1.ystep</title>
<g id="a_node22"><a xlink:href="../../sporco.admm.cbpdn.html#sporco.admm.cbpdn.ConvBPDNProjL1.ystep" xlink:title="cbpdn.ConvBPDNProjL1.ystep" target="_top">
<path fill="#d88cc3" stroke="#000000" stroke-width=".25" d="M295.5,-176C295.5,-176 165.5,-176 165.5,-176 159.5,-176 153.5,-170 153.5,-164 153.5,-164 153.5,-152 153.5,-152 153.5,-146 159.5,-140 165.5,-140 165.5,-140 295.5,-140 295.5,-140 301.5,-140 307.5,-146 307.5,-152 307.5,-152 307.5,-164 307.5,-164 307.5,-170 301.5,-176 295.5,-176"/>
<text text-anchor="middle" x="230.5" y="-155.8" font-family="Vera Sans, DejaVu Sans, Liberation Sans, Arial, Helvetica, sans" font-size="9.00" fill="#000000">cbpdn.ConvBPDNProjL1.ystep</text>
</a>
</g>
</g>
<!-- admm.ADMM.solve&#45;&gt;cbpdn.ConvBPDNProjL1.ystep -->
<g id="edge19" class="edge">
<title>admm.ADMM.solve&#45;&gt;cbpdn.ConvBPDNProjL1.ystep</title>
<path fill="none" stroke="#8ed88c" stroke-width="2" d="M63.071,-379.96C71.168,-343.17 94.06,-258.52 142,-206 151.11,-196.02 162.78,-187.69 174.65,-180.93"/>
<polygon fill="#8ed88c" stroke="#8ed88c" stroke-width="2" points="176.5654,-183.8742 183.72,-176.06 173.254,-177.707 176.5654,-183.8742"/>
</g>
<!-- admm.ADMMEqual.obfn_gvar -->
<g id="node14" class="node">
<title>admm.ADMMEqual.obfn_gvar</title>
<g id="a_node14"><a xlink:href="../../sporco.admm.admm.html#sporco.admm.admm.ADMMEqual.obfn_gvar" xlink:title="admm.ADMMEqual.obfn_gvar" target="_top">
<path fill="#8ca8d8" stroke="#000000" stroke-width=".25" d="M726.5,-656C726.5,-656 599.5,-656 599.5,-656 593.5,-656 587.5,-650 587.5,-644 587.5,-644 587.5,-632 587.5,-632 587.5,-626 593.5,-620 599.5,-620 599.5,-620 726.5,-620 726.5,-620 732.5,-620 738.5,-626 738.5,-632 738.5,-632 738.5,-644 738.5,-644 738.5,-650 732.5,-656 726.5,-656"/>
<text text-anchor="middle" x="663" y="-635.8" font-family="Vera Sans, DejaVu Sans, Liberation Sans, Arial, Helvetica, sans" font-size="9.00" fill="#000000">admm.ADMMEqual.obfn_gvar</text>
</a>
</g>
</g>
<!-- cbpdn.GenericConvBPDN.ystep -->
<g id="node17" class="node">
<title>cbpdn.GenericConvBPDN.ystep</title>
<g id="a_node17"><a xlink:href="../../sporco.admm.cbpdn.html#sporco.admm.cbpdn.GenericConvBPDN.ystep" xlink:title="cbpdn.GenericConvBPDN.ystep" target="_top">
<path fill="#d88c8c" stroke="#000000" stroke-width=".25" d="M513,-44C513,-44 376,-44 376,-44 370,-44 364,-38 364,-32 364,-32 364,-20 364,-20 364,-14 370,-8 376,-8 376,-8 513,-8 513,-8 519,-8 525,-14 525,-20 525,-20 525,-32 525,-32 525,-38 519,-44 513,-44"/>
<text text-anchor="middle" x="444.5" y="-23.8" font-family="Vera Sans, DejaVu Sans, Liberation Sans, Arial, Helvetica, sans" font-size="9.00" fill="#000000">cbpdn.GenericConvBPDN.ystep</text>
</a>
</g>
</g>
<!-- cbpdn.GenericConvBPDN.obfn_dfd -->
<g id="node18" class="node">
<title>cbpdn.GenericConvBPDN.obfn_dfd</title>
<g id="a_node18"><a xlink:href="../../sporco.admm.cbpdn.html#sporco.admm.cbpdn.GenericConvBPDN.obfn_dfd" xlink:title="cbpdn.GenericConvBPDN.obfn_dfd" target="_top">
<path fill="#d88c8c" stroke="#000000" stroke-width=".25" d="M739,-98C739,-98 587,-98 587,-98 581,-98 575,-92 575,-86 575,-86 575,-74 575,-74 575,-68 581,-62 587,-62 587,-62 739,-62 739,-62 745,-62 751,-68 751,-74 751,-74 751,-86 751,-86 751,-92 745,-98 739,-98"/>
<text text-anchor="middle" x="663" y="-77.8" font-family="Vera Sans, DejaVu Sans, Liberation Sans, Arial, Helvetica, sans" font-size="9.00" fill="#000000">cbpdn.GenericConvBPDN.obfn_dfd</text>
</a>
</g>
</g>
<!-- cbpdn.GenericConvBPDN.obfn_fvarf -->
<g id="node19" class="node">
<title>cbpdn.GenericConvBPDN.obfn_fvarf</title>
<g id="a_node19"><a xlink:href="../../sporco.admm.cbpdn.html#sporco.admm.cbpdn.GenericConvBPDN.obfn_fvarf" xlink:title="cbpdn.GenericConvBPDN.obfn_fvarf" target="_top">
<path fill="#d88c8c" stroke="#000000" stroke-width=".25" d="M957,-98C957,-98 799,-98 799,-98 793,-98 787,-92 787,-86 787,-86 787,-74 787,-74 787,-68 793,-62 799,-62 799,-62 957,-62 957,-62 963,-62 969,-68 969,-74 969,-74 969,-86 969,-86 969,-92 963,-98 957,-98"/>
<text text-anchor="middle" x="878" y="-77.8" font-family="Vera Sans, DejaVu Sans, Liberation Sans, Arial, Helvetica, sans" font-size="9.00" fill="#000000">cbpdn.GenericConvBPDN.obfn_fvarf</text>
</a>
</g>
</g>
<!-- cbpdn.GenericConvBPDN.obfn_dfd&#45;&gt;cbpdn.GenericConvBPDN.obfn_fvarf -->
<g id="edge8" class="edge">
<title>cbpdn.GenericConvBPDN.obfn_dfd&#45;&gt;cbpdn.GenericConvBPDN.obfn_fvarf</title>
<path fill="none" stroke="#d88c8c" stroke-width="2" d="M751.07,-80C759.57,-80 768.24,-80 776.86,-80"/>
<polygon fill="#d88c8c" stroke="#d88c8c" stroke-width="2" points="776.93,-83.5001 786.93,-80 776.93,-76.5001 776.93,-83.5001"/>
</g>
<!-- cbpdn.ConvBPDNProjL1.eval_objfn&#45;&gt;admm.ADMMEqual.obfn_gvar -->
<g id="edge21" class="edge">
<title>cbpdn.ConvBPDNProjL1.eval_objfn&#45;&gt;admm.ADMMEqual.obfn_gvar</title>
<path fill="none" stroke="#d88cc3" stroke-width="2" d="M452.8,-176.23C486.13,-249.44 610.36,-522.35 650.44,-610.42"/>
<polygon fill="#d88cc3" stroke="#d88cc3" stroke-width="2" points="647.3595,-612.1006 654.69,-619.75 653.7297,-609.1988 647.3595,-612.1006"/>
</g>
<!-- cbpdn.ConvBPDNProjL1.eval_objfn&#45;&gt;cbpdn.GenericConvBPDN.obfn_dfd -->
<g id="edge20" class="edge">
<title>cbpdn.ConvBPDNProjL1.eval_objfn&#45;&gt;cbpdn.GenericConvBPDN.obfn_dfd</title>
<path fill="none" stroke="#d88cc3" stroke-width="2" d="M504.06,-139.98C516.01,-136.17 528.44,-132.07 540,-128 562.88,-119.95 587.85,-110.36 609.29,-101.87"/>
<polygon fill="#d88cc3" stroke="#d88cc3" stroke-width="2" points="610.8638,-105.0107 618.86,-98.06 608.2746,-98.5071 610.8638,-105.0107"/>
</g>
<!-- cbpdn.ConvBPDNProjL1.ystep&#45;&gt;cbpdn.GenericConvBPDN.ystep -->
<g id="edge22" class="edge">
<title>cbpdn.ConvBPDNProjL1.ystep&#45;&gt;cbpdn.GenericConvBPDN.ystep</title>
<path fill="none" stroke="#d88cc3" stroke-width="2" d="M305.7,-139.86C311.63,-136.55 317.18,-132.63 322,-128 347.66,-103.36 323.87,-77.146 350,-53 351.68,-51.448 353.44,-49.984 355.28,-48.604"/>
<polygon fill="#d88cc3" stroke="#d88cc3" stroke-width="2" points="357.2758,-51.4807 363.72,-43.071 353.438,-45.6265 357.2758,-51.4807"/>
</g>
</g>
</svg>
