<?xml version="1.0" encoding="UTF-8" standalone="no"?>
<!DOCTYPE svg PUBLIC "-//W3C//DTD SVG 1.1//EN"
 "http://www.w3.org/Graphics/SVG/1.1/DTD/svg11.dtd">
<!-- Generated by graphviz version 2.40.1 (20161225.0304)
 -->
<!-- Pages: 1 -->
<svg
 viewBox="0.00 0.00 1106.00 312.00" xmlns="http://www.w3.org/2000/svg" xmlns:xlink="http://www.w3.org/1999/xlink">
<g id="graph0" class="graph" transform="scale(1 1) rotate(0) translate(4 308)">
<polygon fill="transparent" stroke="transparent" points="-4,4 -4,-308 1102,-308 1102,4 -4,4"/>
<g id="clust1" class="cluster">
<title>cluster_cbpdn.GenericConvBPDN</title>
<polygon fill="transparent" stroke="#d88c8c" stroke-width="2" stroke-dasharray="1,5" points="378,-156 378,-226 766,-226 766,-156 378,-156"/>
<text text-anchor="middle" x="572" y="-214.8" font-family="Vera Sans, DejaVu Sans, Liberation Sans, Arial, Helvetica, sans" font-size="9.00" fill="#000000">cbpdn.GenericConvBPDN</text>
</g>
<g id="clust2" class="cluster">
<title>cluster_cbpdn.ConvBPDNProjL1</title>
<polygon fill="transparent" stroke="#d48cd8" stroke-width="2" stroke-dasharray="1,5" points="181,-234 181,-304 1098,-304 1098,-234 181,-234"/>
<text text-anchor="middle" x="639.5" y="-292.8" font-family="Vera Sans, DejaVu Sans, Liberation Sans, Arial, Helvetica, sans" font-size="9.00" fill="#000000">cbpdn.ConvBPDNProjL1</text>
</g>
<g id="clust3" class="cluster">
<title>cluster_admm.ADMM</title>
<polygon fill="transparent" stroke="#8ed88c" stroke-width="2" stroke-dasharray="1,5" points="786,-36 786,-214 1086,-214 1086,-36 786,-36"/>
<text text-anchor="middle" x="936" y="-202.8" font-family="Vera Sans, DejaVu Sans, Liberation Sans, Arial, Helvetica, sans" font-size="9.00" fill="#000000">admm.ADMM</text>
</g>
<g id="clust4" class="cluster">
<title>cluster_admm._ADMM_Meta</title>
<polygon fill="transparent" stroke="#8c8fd8" stroke-width="2" stroke-dasharray="1,5" points="0,-234 0,-304 161,-304 161,-234 0,-234"/>
<text text-anchor="middle" x="80.5" y="-292.8" font-family="Vera Sans, DejaVu Sans, Liberation Sans, Arial, Helvetica, sans" font-size="9.00" fill="#000000">admm._ADMM_Meta</text>
</g>
<g id="clust5" class="cluster">
<title>cluster_cbpdn.ConvRepIndexing</title>
<polygon fill="transparent" stroke="#d88c91" stroke-width="2" stroke-dasharray="1,5" points="584.5,0 584.5,-70 763.5,-70 763.5,0 584.5,0"/>
<text text-anchor="middle" x="674" y="-58.8" font-family="Vera Sans, DejaVu Sans, Liberation Sans, Arial, Helvetica, sans" font-size="9.00" fill="#000000">cbpdn.ConvRepIndexing</text>
</g>
<g id="clust6" class="cluster">
<title>cluster_admm.ADMMEqual</title>
<polygon fill="transparent" stroke="#8cd8d6" stroke-width="2" stroke-dasharray="1,5" points="597.5,-78 597.5,-148 750.5,-148 750.5,-78 597.5,-78"/>
<text text-anchor="middle" x="674" y="-136.8" font-family="Vera Sans, DejaVu Sans, Liberation Sans, Arial, Helvetica, sans" font-size="9.00" fill="#000000">admm.ADMMEqual</text>
</g>
<!-- cbpdn.GenericConvBPDN.setdict -->
<g id="node1" class="node">
<title>cbpdn.GenericConvBPDN.setdict</title>
<g id="a_node1"><a xlink:href="../../sporco.admm.cbpdn.html#sporco.admm.cbpdn.GenericConvBPDN.setdict" xlink:title="cbpdn.GenericConvBPDN.setdict" target="_top">
<path fill="#d88c8c" stroke="#000000" stroke-width=".25" d="M746,-200C746,-200 602,-200 602,-200 596,-200 590,-194 590,-188 590,-188 590,-176 590,-176 590,-170 596,-164 602,-164 602,-164 746,-164 746,-164 752,-164 758,-170 758,-176 758,-176 758,-188 758,-188 758,-194 752,-200 746,-200"/>
<text text-anchor="middle" x="674" y="-179.8" font-family="Vera Sans, DejaVu Sans, Liberation Sans, Arial, Helvetica, sans" font-size="9.00" fill="#000000">cbpdn.GenericConvBPDN.setdict</text>
</a>
</g>
</g>
<!-- cbpdn.GenericConvBPDN.__init__ -->
<g id="node2" class="node">
<title>cbpdn.GenericConvBPDN.__init__</title>
<g id="a_node2"><a xlink:href="../../sporco.admm.cbpdn.html#sporco.admm.cbpdn.GenericConvBPDN.__init__" xlink:title="cbpdn.GenericConvBPDN.__init__" target="_top">
<path fill="#d88c8c" stroke="#000000" stroke-width=".25" d="M542,-200C542,-200 398,-200 398,-200 392,-200 386,-194 386,-188 386,-188 386,-176 386,-176 386,-170 392,-164 398,-164 398,-164 542,-164 542,-164 548,-164 554,-170 554,-176 554,-176 554,-188 554,-188 554,-194 548,-200 542,-200"/>
<text text-anchor="middle" x="470" y="-179.8" font-family="Vera Sans, DejaVu Sans, Liberation Sans, Arial, Helvetica, sans" font-size="9.00" fill="#000000">cbpdn.GenericConvBPDN.__init__</text>
</a>
</g>
</g>
<!-- cbpdn.GenericConvBPDN.__init__&#45;&gt;cbpdn.GenericConvBPDN.setdict -->
<g id="edge1" class="edge">
<title>cbpdn.GenericConvBPDN.__init__&#45;&gt;cbpdn.GenericConvBPDN.setdict</title>
<path fill="none" stroke="#d88c8c" stroke-width="2" d="M554.15,-182C562.5,-182 571.02,-182 579.46,-182"/>
<polygon fill="#d88c8c" stroke="#d88c8c" stroke-width="2" points="579.71,-185.5001 589.71,-182 579.71,-178.5001 579.71,-185.5001"/>
</g>
<!-- cbpdn.ConvRepIndexing.__init__ -->
<g id="node10" class="node">
<title>cbpdn.ConvRepIndexing.__init__</title>
<g id="a_node10"><a xlink:href="../../sporco.admm.cbpdn.html#sporco.admm.cbpdn.ConvRepIndexing.__init__" xlink:title="cbpdn.ConvRepIndexing.__init__" target="_top">
<path fill="#d88c91" stroke="#000000" stroke-width=".25" d="M743.5,-44C743.5,-44 604.5,-44 604.5,-44 598.5,-44 592.5,-38 592.5,-32 592.5,-32 592.5,-20 592.5,-20 592.5,-14 598.5,-8 604.5,-8 604.5,-8 743.5,-8 743.5,-8 749.5,-8 755.5,-14 755.5,-20 755.5,-20 755.5,-32 755.5,-32 755.5,-38 749.5,-44 743.5,-44"/>
<text text-anchor="middle" x="674" y="-23.8" font-family="Vera Sans, DejaVu Sans, Liberation Sans, Arial, Helvetica, sans" font-size="9.00" fill="#000000">cbpdn.ConvRepIndexing.__init__</text>
</a>
</g>
</g>
<!-- cbpdn.GenericConvBPDN.__init__&#45;&gt;cbpdn.ConvRepIndexing.__init__ -->
<g id="edge10" class="edge">
<title>cbpdn.GenericConvBPDN.__init__&#45;&gt;cbpdn.ConvRepIndexing.__init__</title>
<path fill="none" stroke="#d88c8c" stroke-width="2" d="M486.57,-163.62C507.79,-140.78 546.36,-101.47 584.5,-74 597.29,-64.786 612.07,-56.152 625.88,-48.818"/>
<polygon fill="#d88c8c" stroke="#d88c8c" stroke-width="2" points="627.5205,-51.9099 634.78,-44.193 624.2927,-45.6985 627.5205,-51.9099"/>
</g>
<!-- admm.ADMMEqual.__init__ -->
<g id="node11" class="node">
<title>admm.ADMMEqual.__init__</title>
<g id="a_node11"><a xlink:href="../../sporco.admm.admm.html#sporco.admm.admm.ADMMEqual.__init__" xlink:title="admm.ADMMEqual.__init__" target="_top">
<path fill="#8cd8d6" stroke="#000000" stroke-width=".25" d="M730.5,-122C730.5,-122 617.5,-122 617.5,-122 611.5,-122 605.5,-116 605.5,-110 605.5,-110 605.5,-98 605.5,-98 605.5,-92 611.5,-86 617.5,-86 617.5,-86 730.5,-86 730.5,-86 736.5,-86 742.5,-92 742.5,-98 742.5,-98 742.5,-110 742.5,-110 742.5,-116 736.5,-122 730.5,-122"/>
<text text-anchor="middle" x="674" y="-101.8" font-family="Vera Sans, DejaVu Sans, Liberation Sans, Arial, Helvetica, sans" font-size="9.00" fill="#000000">admm.ADMMEqual.__init__</text>
</a>
</g>
</g>
<!-- cbpdn.GenericConvBPDN.__init__&#45;&gt;admm.ADMMEqual.__init__ -->
<g id="edge9" class="edge">
<title>cbpdn.GenericConvBPDN.__init__&#45;&gt;admm.ADMMEqual.__init__</title>
<path fill="none" stroke="#d88c8c" stroke-width="2" d="M517.31,-163.91C547.07,-152.53 585.65,-137.78 617.08,-125.76"/>
<polygon fill="#d88c8c" stroke="#d88c8c" stroke-width="2" points="618.4956,-128.966 626.59,-122.13 615.9993,-122.4263 618.4956,-128.966"/>
</g>
<!-- cbpdn.ConvBPDNProjL1.uinit -->
<g id="node3" class="node">
<title>cbpdn.ConvBPDNProjL1.uinit</title>
<g id="a_node3"><a xlink:href="../../sporco.admm.cbpdn.html#sporco.admm.cbpdn.ConvBPDNProjL1.uinit" xlink:title="cbpdn.ConvBPDNProjL1.uinit" target="_top">
<path fill="#d48cd8" stroke="#000000" stroke-width=".25" d="M1078,-278C1078,-278 953,-278 953,-278 947,-278 941,-272 941,-266 941,-266 941,-254 941,-254 941,-248 947,-242 953,-242 953,-242 1078,-242 1078,-242 1084,-242 1090,-248 1090,-254 1090,-254 1090,-266 1090,-266 1090,-272 1084,-278 1078,-278"/>
<text text-anchor="middle" x="1015.5" y="-257.8" font-family="Vera Sans, DejaVu Sans, Liberation Sans, Arial, Helvetica, sans" font-size="9.00" fill="#000000">cbpdn.ConvBPDNProjL1.uinit</text>
</a>
</g>
</g>
<!-- cbpdn.ConvBPDNProjL1.__init__ -->
<g id="node4" class="node">
<title>cbpdn.ConvBPDNProjL1.__init__</title>
<g id="a_node4"><a xlink:href="../../sporco.admm.cbpdn.html#sporco.admm.cbpdn.ConvBPDNProjL1.__init__" xlink:title="cbpdn.ConvBPDNProjL1.__init__" target="_top">
<path fill="#d48cd8" stroke="#000000" stroke-width=".25" d="M338,-278C338,-278 201,-278 201,-278 195,-278 189,-272 189,-266 189,-266 189,-254 189,-254 189,-248 195,-242 201,-242 201,-242 338,-242 338,-242 344,-242 350,-248 350,-254 350,-254 350,-266 350,-266 350,-272 344,-278 338,-278"/>
<text text-anchor="middle" x="269.5" y="-257.8" font-family="Vera Sans, DejaVu Sans, Liberation Sans, Arial, Helvetica, sans" font-size="9.00" fill="#000000">cbpdn.ConvBPDNProjL1.__init__</text>
</a>
</g>
</g>
<!-- cbpdn.ConvBPDNProjL1.__init__&#45;&gt;cbpdn.GenericConvBPDN.__init__ -->
<g id="edge8" class="edge">
<title>cbpdn.ConvBPDNProjL1.__init__&#45;&gt;cbpdn.GenericConvBPDN.__init__</title>
<path fill="none" stroke="#d48cd8" stroke-width="2" d="M316,-241.91C345.25,-230.53 383.17,-215.78 414.06,-203.76"/>
<polygon fill="#d48cd8" stroke="#d48cd8" stroke-width="2" points="415.3471,-207.0149 423.4,-200.13 412.8113,-200.4903 415.3471,-207.0149"/>
</g>
<!-- admm.ADMM.__init__ -->
<g id="node5" class="node">
<title>admm.ADMM.__init__</title>
<g id="a_node5"><a xlink:href="../../sporco.admm.admm.html#sporco.admm.admm.ADMM.__init__" xlink:title="admm.ADMM.__init__" target="_top">
<path fill="#8ed88c" stroke="#000000" stroke-width=".25" d="M893,-134C893,-134 806,-134 806,-134 800,-134 794,-128 794,-122 794,-122 794,-110 794,-110 794,-104 800,-98 806,-98 806,-98 893,-98 893,-98 899,-98 905,-104 905,-110 905,-110 905,-122 905,-122 905,-128 899,-134 893,-134"/>
<text text-anchor="middle" x="849.5" y="-113.8" font-family="Vera Sans, DejaVu Sans, Liberation Sans, Arial, Helvetica, sans" font-size="9.00" fill="#000000">admm.ADMM.__init__</text>
</a>
</g>
</g>
<!-- admm.ADMM.__init__&#45;&gt;cbpdn.ConvBPDNProjL1.uinit -->
<g id="edge5" class="edge">
<title>admm.ADMM.__init__&#45;&gt;cbpdn.ConvBPDNProjL1.uinit</title>
<path fill="none" stroke="#8ed88c" stroke-width="2" d="M862.86,-134.23C879.46,-156.01 909.46,-192.68 941,-218 949.6,-224.9 959.48,-231.34 969.17,-236.99"/>
<polygon fill="#8ed88c" stroke="#8ed88c" stroke-width="2" points="967.549,-240.0939 977.98,-241.95 970.9832,-233.9942 967.549,-240.0939"/>
</g>
<!-- admm.ADMM.set_dtype -->
<g id="node6" class="node">
<title>admm.ADMM.set_dtype</title>
<g id="a_node6"><a xlink:href="../../sporco.admm.admm.html#sporco.admm.admm.ADMM.set_dtype" xlink:title="admm.ADMM.set_dtype" target="_top">
<path fill="#8ed88c" stroke="#000000" stroke-width=".25" d="M1066,-80C1066,-80 965,-80 965,-80 959,-80 953,-74 953,-68 953,-68 953,-56 953,-56 953,-50 959,-44 965,-44 965,-44 1066,-44 1066,-44 1072,-44 1078,-50 1078,-56 1078,-56 1078,-68 1078,-68 1078,-74 1072,-80 1066,-80"/>
<text text-anchor="middle" x="1015.5" y="-59.8" font-family="Vera Sans, DejaVu Sans, Liberation Sans, Arial, Helvetica, sans" font-size="9.00" fill="#000000">admm.ADMM.set_dtype</text>
</a>
</g>
</g>
<!-- admm.ADMM.__init__&#45;&gt;admm.ADMM.set_dtype -->
<g id="edge2" class="edge">
<title>admm.ADMM.__init__&#45;&gt;admm.ADMM.set_dtype</title>
<path fill="none" stroke="#8ed88c" stroke-width="2" d="M905.24,-97.87C919.69,-93.17 935.37,-88.065 950.26,-83.222"/>
<polygon fill="#8ed88c" stroke="#8ed88c" stroke-width="2" points="951.4825,-86.5049 959.91,-80.084 949.3178,-79.848 951.4825,-86.5049"/>
</g>
<!-- admm.ADMM.yinit -->
<g id="node7" class="node">
<title>admm.ADMM.yinit</title>
<g id="a_node7"><a xlink:href="../../sporco.admm.admm.html#sporco.admm.admm.ADMM.yinit" xlink:title="admm.ADMM.yinit" target="_top">
<path fill="#8ed88c" stroke="#000000" stroke-width=".25" d="M1052.5,-134C1052.5,-134 978.5,-134 978.5,-134 972.5,-134 966.5,-128 966.5,-122 966.5,-122 966.5,-110 966.5,-110 966.5,-104 972.5,-98 978.5,-98 978.5,-98 1052.5,-98 1052.5,-98 1058.5,-98 1064.5,-104 1064.5,-110 1064.5,-110 1064.5,-122 1064.5,-122 1064.5,-128 1058.5,-134 1052.5,-134"/>
<text text-anchor="middle" x="1015.5" y="-113.8" font-family="Vera Sans, DejaVu Sans, Liberation Sans, Arial, Helvetica, sans" font-size="9.00" fill="#000000">admm.ADMM.yinit</text>
</a>
</g>
</g>
<!-- admm.ADMM.__init__&#45;&gt;admm.ADMM.yinit -->
<g id="edge3" class="edge">
<title>admm.ADMM.__init__&#45;&gt;admm.ADMM.yinit</title>
<path fill="none" stroke="#8ed88c" stroke-width="2" d="M905.24,-116C921.62,-116 939.59,-116 956.19,-116"/>
<polygon fill="#8ed88c" stroke="#8ed88c" stroke-width="2" points="956.31,-119.5001 966.31,-116 956.31,-112.5001 956.31,-119.5001"/>
</g>
<!-- admm.ADMM.set_attr -->
<g id="node8" class="node">
<title>admm.ADMM.set_attr</title>
<g id="a_node8"><a xlink:href="../../sporco.admm.admm.html#sporco.admm.admm.ADMM.set_attr" xlink:title="admm.ADMM.set_attr" target="_top">
<path fill="#8ed88c" stroke="#000000" stroke-width=".25" d="M1061.5,-188C1061.5,-188 969.5,-188 969.5,-188 963.5,-188 957.5,-182 957.5,-176 957.5,-176 957.5,-164 957.5,-164 957.5,-158 963.5,-152 969.5,-152 969.5,-152 1061.5,-152 1061.5,-152 1067.5,-152 1073.5,-158 1073.5,-164 1073.5,-164 1073.5,-176 1073.5,-176 1073.5,-182 1067.5,-188 1061.5,-188"/>
<text text-anchor="middle" x="1015.5" y="-167.8" font-family="Vera Sans, DejaVu Sans, Liberation Sans, Arial, Helvetica, sans" font-size="9.00" fill="#000000">admm.ADMM.set_attr</text>
</a>
</g>
</g>
<!-- admm.ADMM.__init__&#45;&gt;admm.ADMM.set_attr -->
<g id="edge4" class="edge">
<title>admm.ADMM.__init__&#45;&gt;admm.ADMM.set_attr</title>
<path fill="none" stroke="#8ed88c" stroke-width="2" d="M905.24,-134.13C919.69,-138.83 935.37,-143.93 950.26,-148.78"/>
<polygon fill="#8ed88c" stroke="#8ed88c" stroke-width="2" points="949.3177,-152.154 959.91,-151.92 951.4837,-145.4975 949.3177,-152.154"/>
</g>
<!-- admm._ADMM_Meta.__call__ -->
<g id="node9" class="node">
<title>admm._ADMM_Meta.__call__</title>
<g id="a_node9"><a xlink:href="../../sporco.admm.admm.html#sporco.admm.admm._ADMM_Meta.__call__" xlink:title="admm._ADMM_Meta.__call__" target="_top">
<path fill="#8c8fd8" stroke="#000000" stroke-width=".25" d="M141,-278C141,-278 20,-278 20,-278 14,-278 8,-272 8,-266 8,-266 8,-254 8,-254 8,-248 14,-242 20,-242 20,-242 141,-242 141,-242 147,-242 153,-248 153,-254 153,-254 153,-266 153,-266 153,-272 147,-278 141,-278"/>
<text text-anchor="middle" x="80.5" y="-257.8" font-family="Vera Sans, DejaVu Sans, Liberation Sans, Arial, Helvetica, sans" font-size="9.00" fill="#000000">admm._ADMM_Meta.__call__</text>
</a>
</g>
</g>
<!-- admm._ADMM_Meta.__call__&#45;&gt;cbpdn.ConvBPDNProjL1.__init__ -->
<g id="edge7" class="edge">
<title>admm._ADMM_Meta.__call__&#45;&gt;cbpdn.ConvBPDNProjL1.__init__</title>
<path fill="none" stroke="#8c8fd8" stroke-width="2" d="M153.03,-260C161.49,-260 170.19,-260 178.85,-260"/>
<polygon fill="#8c8fd8" stroke="#8c8fd8" stroke-width="2" points="178.98,-263.5001 188.98,-260 178.98,-256.5001 178.98,-263.5001"/>
</g>
<!-- admm.ADMMEqual.__init__&#45;&gt;admm.ADMM.__init__ -->
<g id="edge6" class="edge">
<title>admm.ADMMEqual.__init__&#45;&gt;admm.ADMM.__init__</title>
<path fill="none" stroke="#8cd8d6" stroke-width="2" d="M742.61,-108.69C756.17,-109.62 770.37,-110.59 783.83,-111.51"/>
<polygon fill="#8cd8d6" stroke="#8cd8d6" stroke-width="2" points="783.735,-115.0116 793.95,-112.2 784.2113,-108.0278 783.735,-115.0116"/>
</g>
</g>
</svg>
