<?xml version="1.0" encoding="UTF-8" standalone="no"?>
<!DOCTYPE svg PUBLIC "-//W3C//DTD SVG 1.1//EN"
 "http://www.w3.org/Graphics/SVG/1.1/DTD/svg11.dtd">
<!-- Generated by graphviz version 2.40.1 (20161225.0304)
 -->
<!-- Pages: 1 -->
<svg
 viewBox="0.00 0.00 760.00 396.00" xmlns="http://www.w3.org/2000/svg" xmlns:xlink="http://www.w3.org/1999/xlink">
<g id="graph0" class="graph" transform="scale(1 1) rotate(0) translate(4 392)">
<polygon fill="transparent" stroke="transparent" points="-4,4 -4,-392 756,-392 756,4 -4,4"/>
<g id="clust1" class="cluster">
<title>cluster_cbpdntv.ConvBPDNScalarTV</title>
<polygon fill="transparent" stroke="#d88c8c" stroke-width="2" stroke-dasharray="1,5" points="181,-318 181,-388 591,-388 591,-318 181,-318"/>
<text text-anchor="middle" x="386" y="-376.8" font-family="Vera Sans, DejaVu Sans, Liberation Sans, Arial, Helvetica, sans" font-size="9.00" fill="#000000">cbpdntv.ConvBPDNScalarTV</text>
</g>
<g id="clust2" class="cluster">
<title>cluster_cbpdn.ConvRepIndexing</title>
<polygon fill="transparent" stroke="#d88cc3" stroke-width="2" stroke-dasharray="1,5" points="404,0 404,-70 583,-70 583,0 404,0"/>
<text text-anchor="middle" x="493.5" y="-58.8" font-family="Vera Sans, DejaVu Sans, Liberation Sans, Arial, Helvetica, sans" font-size="9.00" fill="#000000">cbpdn.ConvRepIndexing</text>
</g>
<g id="clust3" class="cluster">
<title>cluster_admm._ADMM_Meta</title>
<polygon fill="transparent" stroke="#8ca8d8" stroke-width="2" stroke-dasharray="1,5" points="0,-318 0,-388 161,-388 161,-318 0,-318"/>
<text text-anchor="middle" x="80.5" y="-376.8" font-family="Vera Sans, DejaVu Sans, Liberation Sans, Arial, Helvetica, sans" font-size="9.00" fill="#000000">admm._ADMM_Meta</text>
</g>
<g id="clust4" class="cluster">
<title>cluster_admm.ADMM</title>
<polygon fill="transparent" stroke="#8ed88c" stroke-width="2" stroke-dasharray="1,5" points="430,-78 430,-310 752,-310 752,-78 430,-78"/>
<text text-anchor="middle" x="591" y="-298.8" font-family="Vera Sans, DejaVu Sans, Liberation Sans, Arial, Helvetica, sans" font-size="9.00" fill="#000000">admm.ADMM</text>
</g>
<!-- cbpdntv.ConvBPDNScalarTV.__init__ -->
<g id="node1" class="node">
<title>cbpdntv.ConvBPDNScalarTV.__init__</title>
<g id="a_node1"><a xlink:href="../../sporco.admm.cbpdntv.html#sporco.admm.cbpdntv.ConvBPDNScalarTV.__init__" xlink:title="cbpdntv.ConvBPDNScalarTV.__init__" target="_top">
<path fill="#d88c8c" stroke="#000000" stroke-width=".25" d="M356,-362C356,-362 201,-362 201,-362 195,-362 189,-356 189,-350 189,-350 189,-338 189,-338 189,-332 195,-326 201,-326 201,-326 356,-326 356,-326 362,-326 368,-332 368,-338 368,-338 368,-350 368,-350 368,-356 362,-362 356,-362"/>
<text text-anchor="middle" x="278.5" y="-341.8" font-family="Vera Sans, DejaVu Sans, Liberation Sans, Arial, Helvetica, sans" font-size="9.00" fill="#000000">cbpdntv.ConvBPDNScalarTV.__init__</text>
</a>
</g>
</g>
<!-- cbpdntv.ConvBPDNScalarTV.setdict -->
<g id="node2" class="node">
<title>cbpdntv.ConvBPDNScalarTV.setdict</title>
<g id="a_node2"><a xlink:href="../../sporco.admm.cbpdntv.html#sporco.admm.cbpdntv.ConvBPDNScalarTV.setdict" xlink:title="cbpdntv.ConvBPDNScalarTV.setdict" target="_top">
<path fill="#d88c8c" stroke="#000000" stroke-width=".25" d="M571,-362C571,-362 416,-362 416,-362 410,-362 404,-356 404,-350 404,-350 404,-338 404,-338 404,-332 410,-326 416,-326 416,-326 571,-326 571,-326 577,-326 583,-332 583,-338 583,-338 583,-350 583,-350 583,-356 577,-362 571,-362"/>
<text text-anchor="middle" x="493.5" y="-341.8" font-family="Vera Sans, DejaVu Sans, Liberation Sans, Arial, Helvetica, sans" font-size="9.00" fill="#000000">cbpdntv.ConvBPDNScalarTV.setdict</text>
</a>
</g>
</g>
<!-- cbpdntv.ConvBPDNScalarTV.__init__&#45;&gt;cbpdntv.ConvBPDNScalarTV.setdict -->
<g id="edge1" class="edge">
<title>cbpdntv.ConvBPDNScalarTV.__init__&#45;&gt;cbpdntv.ConvBPDNScalarTV.setdict</title>
<path fill="none" stroke="#d88c8c" stroke-width="2" d="M368.12,-344C376.48,-344 384.98,-344 393.42,-344"/>
<polygon fill="#d88c8c" stroke="#d88c8c" stroke-width="2" points="393.68,-347.5001 403.68,-344 393.68,-340.5001 393.68,-347.5001"/>
</g>
<!-- cbpdn.ConvRepIndexing.__init__ -->
<g id="node3" class="node">
<title>cbpdn.ConvRepIndexing.__init__</title>
<g id="a_node3"><a xlink:href="../../sporco.admm.cbpdn.html#sporco.admm.cbpdn.ConvRepIndexing.__init__" xlink:title="cbpdn.ConvRepIndexing.__init__" target="_top">
<path fill="#d88cc3" stroke="#000000" stroke-width=".25" d="M563,-44C563,-44 424,-44 424,-44 418,-44 412,-38 412,-32 412,-32 412,-20 412,-20 412,-14 418,-8 424,-8 424,-8 563,-8 563,-8 569,-8 575,-14 575,-20 575,-20 575,-32 575,-32 575,-38 569,-44 563,-44"/>
<text text-anchor="middle" x="493.5" y="-23.8" font-family="Vera Sans, DejaVu Sans, Liberation Sans, Arial, Helvetica, sans" font-size="9.00" fill="#000000">cbpdn.ConvRepIndexing.__init__</text>
</a>
</g>
</g>
<!-- cbpdntv.ConvBPDNScalarTV.__init__&#45;&gt;cbpdn.ConvRepIndexing.__init__ -->
<g id="edge9" class="edge">
<title>cbpdntv.ConvBPDNScalarTV.__init__&#45;&gt;cbpdn.ConvRepIndexing.__init__</title>
<path fill="none" stroke="#d88c8c" stroke-width="2" d="M282.63,-325.98C294.18,-279.07 330.89,-151.42 404,-74 413.36,-64.091 425.22,-55.79 437.23,-49.03"/>
<polygon fill="#d88c8c" stroke="#d88c8c" stroke-width="2" points="439.2112,-51.9408 446.4,-44.158 435.9268,-45.7591 439.2112,-51.9408"/>
</g>
<!-- admm.ADMM.__init__ -->
<g id="node5" class="node">
<title>admm.ADMM.__init__</title>
<g id="a_node5"><a xlink:href="../../sporco.admm.admm.html#sporco.admm.admm.ADMM.__init__" xlink:title="admm.ADMM.__init__" target="_top">
<path fill="#8ed88c" stroke="#000000" stroke-width=".25" d="M537,-230C537,-230 450,-230 450,-230 444,-230 438,-224 438,-218 438,-218 438,-206 438,-206 438,-200 444,-194 450,-194 450,-194 537,-194 537,-194 543,-194 549,-200 549,-206 549,-206 549,-218 549,-218 549,-224 543,-230 537,-230"/>
<text text-anchor="middle" x="493.5" y="-209.8" font-family="Vera Sans, DejaVu Sans, Liberation Sans, Arial, Helvetica, sans" font-size="9.00" fill="#000000">admm.ADMM.__init__</text>
</a>
</g>
</g>
<!-- cbpdntv.ConvBPDNScalarTV.__init__&#45;&gt;admm.ADMM.__init__ -->
<g id="edge7" class="edge">
<title>cbpdntv.ConvBPDNScalarTV.__init__&#45;&gt;admm.ADMM.__init__</title>
<path fill="none" stroke="#d88c8c" stroke-width="2" d="M307.94,-325.92C346.27,-302.39 413.33,-261.22 455.47,-235.35"/>
<polygon fill="#d88c8c" stroke="#d88c8c" stroke-width="2" points="457.3792,-238.2849 464.07,-230.07 453.7167,-232.3195 457.3792,-238.2849"/>
</g>
<!-- admm.ADMM.set_attr -->
<g id="node7" class="node">
<title>admm.ADMM.set_attr</title>
<g id="a_node7"><a xlink:href="../../sporco.admm.admm.html#sporco.admm.admm.ADMM.set_attr" xlink:title="admm.ADMM.set_attr" target="_top">
<path fill="#8ed88c" stroke="#000000" stroke-width=".25" d="M727.5,-122C727.5,-122 635.5,-122 635.5,-122 629.5,-122 623.5,-116 623.5,-110 623.5,-110 623.5,-98 623.5,-98 623.5,-92 629.5,-86 635.5,-86 635.5,-86 727.5,-86 727.5,-86 733.5,-86 739.5,-92 739.5,-98 739.5,-98 739.5,-110 739.5,-110 739.5,-116 733.5,-122 727.5,-122"/>
<text text-anchor="middle" x="681.5" y="-101.8" font-family="Vera Sans, DejaVu Sans, Liberation Sans, Arial, Helvetica, sans" font-size="9.00" fill="#000000">admm.ADMM.set_attr</text>
</a>
</g>
</g>
<!-- cbpdntv.ConvBPDNScalarTV.__init__&#45;&gt;admm.ADMM.set_attr -->
<g id="edge8" class="edge">
<title>cbpdntv.ConvBPDNScalarTV.__init__&#45;&gt;admm.ADMM.set_attr</title>
<path fill="none" stroke="#d88c8c" stroke-width="2" d="M287.75,-325.98C305.64,-292.95 348.16,-222.65 404,-185 467.53,-142.16 553.97,-121.61 613.41,-112"/>
<polygon fill="#d88c8c" stroke="#d88c8c" stroke-width="2" points="614.106,-115.4339 623.45,-110.44 613.0312,-108.5169 614.106,-115.4339"/>
</g>
<!-- admm._ADMM_Meta.__call__ -->
<g id="node4" class="node">
<title>admm._ADMM_Meta.__call__</title>
<g id="a_node4"><a xlink:href="../../sporco.admm.admm.html#sporco.admm.admm._ADMM_Meta.__call__" xlink:title="admm._ADMM_Meta.__call__" target="_top">
<path fill="#8ca8d8" stroke="#000000" stroke-width=".25" d="M141,-362C141,-362 20,-362 20,-362 14,-362 8,-356 8,-350 8,-350 8,-338 8,-338 8,-332 14,-326 20,-326 20,-326 141,-326 141,-326 147,-326 153,-332 153,-338 153,-338 153,-350 153,-350 153,-356 147,-362 141,-362"/>
<text text-anchor="middle" x="80.5" y="-341.8" font-family="Vera Sans, DejaVu Sans, Liberation Sans, Arial, Helvetica, sans" font-size="9.00" fill="#000000">admm._ADMM_Meta.__call__</text>
</a>
</g>
</g>
<!-- admm._ADMM_Meta.__call__&#45;&gt;cbpdntv.ConvBPDNScalarTV.__init__ -->
<g id="edge6" class="edge">
<title>admm._ADMM_Meta.__call__&#45;&gt;cbpdntv.ConvBPDNScalarTV.__init__</title>
<path fill="none" stroke="#8ca8d8" stroke-width="2" d="M153.1,-344C161.43,-344 170.03,-344 178.64,-344"/>
<polygon fill="#8ca8d8" stroke="#8ca8d8" stroke-width="2" points="178.73,-347.5001 188.73,-344 178.73,-340.5001 178.73,-347.5001"/>
</g>
<!-- admm.ADMM.uinit -->
<g id="node6" class="node">
<title>admm.ADMM.uinit</title>
<g id="a_node6"><a xlink:href="../../sporco.admm.admm.html#sporco.admm.admm.ADMM.uinit" xlink:title="admm.ADMM.uinit" target="_top">
<path fill="#8ed88c" stroke="#000000" stroke-width=".25" d="M719,-284C719,-284 644,-284 644,-284 638,-284 632,-278 632,-272 632,-272 632,-260 632,-260 632,-254 638,-248 644,-248 644,-248 719,-248 719,-248 725,-248 731,-254 731,-260 731,-260 731,-272 731,-272 731,-278 725,-284 719,-284"/>
<text text-anchor="middle" x="681.5" y="-263.8" font-family="Vera Sans, DejaVu Sans, Liberation Sans, Arial, Helvetica, sans" font-size="9.00" fill="#000000">admm.ADMM.uinit</text>
</a>
</g>
</g>
<!-- admm.ADMM.__init__&#45;&gt;admm.ADMM.uinit -->
<g id="edge2" class="edge">
<title>admm.ADMM.__init__&#45;&gt;admm.ADMM.uinit</title>
<path fill="none" stroke="#8ed88c" stroke-width="2" d="M549.14,-227.98C572.07,-234.57 598.67,-242.21 621.99,-248.91"/>
<polygon fill="#8ed88c" stroke="#8ed88c" stroke-width="2" points="621.1827,-252.3195 631.76,-251.71 623.1113,-245.5904 621.1827,-252.3195"/>
</g>
<!-- admm.ADMM.__init__&#45;&gt;admm.ADMM.set_attr -->
<g id="edge3" class="edge">
<title>admm.ADMM.__init__&#45;&gt;admm.ADMM.set_attr</title>
<path fill="none" stroke="#8ed88c" stroke-width="2" d="M521.62,-193.81C558.22,-170.14 617.73,-131.68 619,-131 621.87,-129.47 624.84,-127.96 627.86,-126.47"/>
<polygon fill="#8ed88c" stroke="#8ed88c" stroke-width="2" points="629.4816,-129.5747 637.02,-122.13 626.4844,-123.2488 629.4816,-129.5747"/>
</g>
<!-- admm.ADMM.set_dtype -->
<g id="node8" class="node">
<title>admm.ADMM.set_dtype</title>
<g id="a_node8"><a xlink:href="../../sporco.admm.admm.html#sporco.admm.admm.ADMM.set_dtype" xlink:title="admm.ADMM.set_dtype" target="_top">
<path fill="#8ed88c" stroke="#000000" stroke-width=".25" d="M732,-176C732,-176 631,-176 631,-176 625,-176 619,-170 619,-164 619,-164 619,-152 619,-152 619,-146 625,-140 631,-140 631,-140 732,-140 732,-140 738,-140 744,-146 744,-152 744,-152 744,-164 744,-164 744,-170 738,-176 732,-176"/>
<text text-anchor="middle" x="681.5" y="-155.8" font-family="Vera Sans, DejaVu Sans, Liberation Sans, Arial, Helvetica, sans" font-size="9.00" fill="#000000">admm.ADMM.set_dtype</text>
</a>
</g>
</g>
<!-- admm.ADMM.__init__&#45;&gt;admm.ADMM.set_dtype -->
<g id="edge4" class="edge">
<title>admm.ADMM.__init__&#45;&gt;admm.ADMM.set_dtype</title>
<path fill="none" stroke="#8ed88c" stroke-width="2" d="M549.14,-196.02C567.94,-190.62 589.2,-184.51 609.1,-178.79"/>
<polygon fill="#8ed88c" stroke="#8ed88c" stroke-width="2" points="610.1038,-182.1433 618.75,-176.02 608.1725,-175.415 610.1038,-182.1433"/>
</g>
<!-- admm.ADMM.yinit -->
<g id="node9" class="node">
<title>admm.ADMM.yinit</title>
<g id="a_node9"><a xlink:href="../../sporco.admm.admm.html#sporco.admm.admm.ADMM.yinit" xlink:title="admm.ADMM.yinit" target="_top">
<path fill="#8ed88c" stroke="#000000" stroke-width=".25" d="M718.5,-230C718.5,-230 644.5,-230 644.5,-230 638.5,-230 632.5,-224 632.5,-218 632.5,-218 632.5,-206 632.5,-206 632.5,-200 638.5,-194 644.5,-194 644.5,-194 718.5,-194 718.5,-194 724.5,-194 730.5,-200 730.5,-206 730.5,-206 730.5,-218 730.5,-218 730.5,-224 724.5,-230 718.5,-230"/>
<text text-anchor="middle" x="681.5" y="-209.8" font-family="Vera Sans, DejaVu Sans, Liberation Sans, Arial, Helvetica, sans" font-size="9.00" fill="#000000">admm.ADMM.yinit</text>
</a>
</g>
</g>
<!-- admm.ADMM.__init__&#45;&gt;admm.ADMM.yinit -->
<g id="edge5" class="edge">
<title>admm.ADMM.__init__&#45;&gt;admm.ADMM.yinit</title>
<path fill="none" stroke="#8ed88c" stroke-width="2" d="M549.14,-212C572.16,-212 598.87,-212 622.25,-212"/>
<polygon fill="#8ed88c" stroke="#8ed88c" stroke-width="2" points="622.39,-215.5001 632.39,-212 622.39,-208.5001 622.39,-215.5001"/>
</g>
</g>
</svg>
