<?xml version="1.0" encoding="UTF-8" standalone="no"?>
<!DOCTYPE svg PUBLIC "-//W3C//DTD SVG 1.1//EN"
 "http://www.w3.org/Graphics/SVG/1.1/DTD/svg11.dtd">
<!-- Generated by graphviz version 2.40.1 (20161225.0304)
 -->
<!-- Pages: 1 -->
<svg
 viewBox="0.00 0.00 1192.00 342.00" xmlns="http://www.w3.org/2000/svg" xmlns:xlink="http://www.w3.org/1999/xlink">
<g id="graph0" class="graph" transform="scale(1 1) rotate(0) translate(4 338)">
<polygon fill="transparent" stroke="transparent" points="-4,4 -4,-338 1188,-338 1188,4 -4,4"/>
<g id="clust1" class="cluster">
<title>cluster_admm.ADMMEqual</title>
<polygon fill="transparent" stroke="#8cd8c1" stroke-width="2" stroke-dasharray="1,5" points="622.5,-186 622.5,-256 775.5,-256 775.5,-186 622.5,-186"/>
<text text-anchor="middle" x="699" y="-244.8" font-family="Vera Sans, DejaVu Sans, Liberation Sans, Arial, Helvetica, sans" font-size="9.00" fill="#000000">admm.ADMMEqual</text>
</g>
<g id="clust2" class="cluster">
<title>cluster_admm._ADMM_Meta</title>
<polygon fill="transparent" stroke="#8cbad8" stroke-width="2" stroke-dasharray="1,5" points="0,-264 0,-334 161,-334 161,-264 0,-264"/>
<text text-anchor="middle" x="80.5" y="-322.8" font-family="Vera Sans, DejaVu Sans, Liberation Sans, Arial, Helvetica, sans" font-size="9.00" fill="#000000">admm._ADMM_Meta</text>
</g>
<g id="clust3" class="cluster">
<title>cluster_ccmod.getPcn</title>
<polygon fill="transparent" stroke="#d88c8c" stroke-width="2" stroke-dasharray="1,5" points="649.5,0 649.5,-70 748.5,-70 748.5,0 649.5,0"/>
<text text-anchor="middle" x="699" y="-58.8" font-family="Vera Sans, DejaVu Sans, Liberation Sans, Arial, Helvetica, sans" font-size="9.00" fill="#000000">ccmod.getPcn</text>
</g>
<g id="clust4" class="cluster">
<title>cluster_admm.ADMM</title>
<polygon fill="transparent" stroke="#8ed88c" stroke-width="2" stroke-dasharray="1,5" points="836.5,-78 836.5,-256 1164,-256 1164,-78 836.5,-78"/>
<text text-anchor="middle" x="1000.2" y="-244.8" font-family="Vera Sans, DejaVu Sans, Liberation Sans, Arial, Helvetica, sans" font-size="9.00" fill="#000000">admm.ADMM</text>
</g>
<g id="clust5" class="cluster">
<title>cluster_ccmod.DictionarySize</title>
<polygon fill="transparent" stroke="#d88c8c" stroke-width="2" stroke-dasharray="1,5" points="817,0 817,-70 983,-70 983,0 817,0"/>
<text text-anchor="middle" x="900" y="-58.8" font-family="Vera Sans, DejaVu Sans, Liberation Sans, Arial, Helvetica, sans" font-size="9.00" fill="#000000">ccmod.DictionarySize</text>
</g>
<g id="clust6" class="cluster">
<title>cluster_ccmod.ConvCnstrMODBase</title>
<polygon fill="transparent" stroke="#948cd8" stroke-width="2" stroke-dasharray="1,5" points="388,-264 388,-334 1184,-334 1184,-264 388,-264"/>
<text text-anchor="middle" x="786" y="-322.8" font-family="Vera Sans, DejaVu Sans, Liberation Sans, Arial, Helvetica, sans" font-size="9.00" fill="#000000">ccmod.ConvCnstrMODBase</text>
</g>
<g id="clust7" class="cluster">
<title>cluster_ccmod.ConvRepIndexing</title>
<polygon fill="transparent" stroke="#d88cb1" stroke-width="2" stroke-dasharray="1,5" points="609,-78 609,-148 789,-148 789,-78 609,-78"/>
<text text-anchor="middle" x="699" y="-136.8" font-family="Vera Sans, DejaVu Sans, Liberation Sans, Arial, Helvetica, sans" font-size="9.00" fill="#000000">ccmod.ConvRepIndexing</text>
</g>
<g id="clust8" class="cluster">
<title>cluster_ccmod.ConvCnstrMOD_CG</title>
<polygon fill="transparent" stroke="#ca8cd8" stroke-width="2" stroke-dasharray="1,5" points="181,-264 181,-334 368,-334 368,-264 181,-264"/>
<text text-anchor="middle" x="274.5" y="-322.8" font-family="Vera Sans, DejaVu Sans, Liberation Sans, Arial, Helvetica, sans" font-size="9.00" fill="#000000">ccmod.ConvCnstrMOD_CG</text>
</g>
<!-- admm.ADMMEqual.__init__ -->
<g id="node1" class="node">
<title>admm.ADMMEqual.__init__</title>
<g id="a_node1"><a xlink:href="../../sporco.admm.admm.html#sporco.admm.admm.ADMMEqual.__init__" xlink:title="admm.ADMMEqual.__init__" target="_top">
<path fill="#8cd8c1" stroke="#000000" stroke-width=".25" d="M755.5,-230C755.5,-230 642.5,-230 642.5,-230 636.5,-230 630.5,-224 630.5,-218 630.5,-218 630.5,-206 630.5,-206 630.5,-200 636.5,-194 642.5,-194 642.5,-194 755.5,-194 755.5,-194 761.5,-194 767.5,-200 767.5,-206 767.5,-206 767.5,-218 767.5,-218 767.5,-224 761.5,-230 755.5,-230"/>
<text text-anchor="middle" x="699" y="-209.8" font-family="Vera Sans, DejaVu Sans, Liberation Sans, Arial, Helvetica, sans" font-size="9.00" fill="#000000">admm.ADMMEqual.__init__</text>
</a>
</g>
</g>
<!-- admm.ADMM.__init__ -->
<g id="node4" class="node">
<title>admm.ADMM.__init__</title>
<g id="a_node4"><a xlink:href="../../sporco.admm.admm.html#sporco.admm.admm.ADMM.__init__" xlink:title="admm.ADMM.__init__" target="_top">
<path fill="#8ed88c" stroke="#000000" stroke-width=".25" d="M943.5,-230C943.5,-230 856.5,-230 856.5,-230 850.5,-230 844.5,-224 844.5,-218 844.5,-218 844.5,-206 844.5,-206 844.5,-200 850.5,-194 856.5,-194 856.5,-194 943.5,-194 943.5,-194 949.5,-194 955.5,-200 955.5,-206 955.5,-206 955.5,-218 955.5,-218 955.5,-224 949.5,-230 943.5,-230"/>
<text text-anchor="middle" x="900" y="-209.8" font-family="Vera Sans, DejaVu Sans, Liberation Sans, Arial, Helvetica, sans" font-size="9.00" fill="#000000">admm.ADMM.__init__</text>
</a>
</g>
</g>
<!-- admm.ADMMEqual.__init__&#45;&gt;admm.ADMM.__init__ -->
<g id="edge6" class="edge">
<title>admm.ADMMEqual.__init__&#45;&gt;admm.ADMM.__init__</title>
<path fill="none" stroke="#8cd8c1" stroke-width="2" d="M767.61,-212C789.11,-212 812.79,-212 834.1,-212"/>
<polygon fill="#8cd8c1" stroke="#8cd8c1" stroke-width="2" points="834.35,-215.5001 844.35,-212 834.35,-208.5001 834.35,-215.5001"/>
</g>
<!-- admm._ADMM_Meta.__call__ -->
<g id="node2" class="node">
<title>admm._ADMM_Meta.__call__</title>
<g id="a_node2"><a xlink:href="../../sporco.admm.admm.html#sporco.admm.admm._ADMM_Meta.__call__" xlink:title="admm._ADMM_Meta.__call__" target="_top">
<path fill="#8cbad8" stroke="#000000" stroke-width=".25" d="M141,-308C141,-308 20,-308 20,-308 14,-308 8,-302 8,-296 8,-296 8,-284 8,-284 8,-278 14,-272 20,-272 20,-272 141,-272 141,-272 147,-272 153,-278 153,-284 153,-284 153,-296 153,-296 153,-302 147,-308 141,-308"/>
<text text-anchor="middle" x="80.5" y="-287.8" font-family="Vera Sans, DejaVu Sans, Liberation Sans, Arial, Helvetica, sans" font-size="9.00" fill="#000000">admm._ADMM_Meta.__call__</text>
</a>
</g>
</g>
<!-- ccmod.ConvCnstrMOD_CG.__init__ -->
<g id="node13" class="node">
<title>ccmod.ConvCnstrMOD_CG.__init__</title>
<g id="a_node13"><a xlink:href="../../sporco.admm.ccmod.html#sporco.admm.ccmod.ConvCnstrMOD_CG.__init__" xlink:title="ccmod.ConvCnstrMOD_CG.__init__" target="_top">
<path fill="#ca8cd8" stroke="#000000" stroke-width=".25" d="M348,-308C348,-308 201,-308 201,-308 195,-308 189,-302 189,-296 189,-296 189,-284 189,-284 189,-278 195,-272 201,-272 201,-272 348,-272 348,-272 354,-272 360,-278 360,-284 360,-284 360,-296 360,-296 360,-302 354,-308 348,-308"/>
<text text-anchor="middle" x="274.5" y="-287.8" font-family="Vera Sans, DejaVu Sans, Liberation Sans, Arial, Helvetica, sans" font-size="9.00" fill="#000000">ccmod.ConvCnstrMOD_CG.__init__</text>
</a>
</g>
</g>
<!-- admm._ADMM_Meta.__call__&#45;&gt;ccmod.ConvCnstrMOD_CG.__init__ -->
<g id="edge7" class="edge">
<title>admm._ADMM_Meta.__call__&#45;&gt;ccmod.ConvCnstrMOD_CG.__init__</title>
<path fill="none" stroke="#8cbad8" stroke-width="2" d="M153.01,-290C161.45,-290 170.14,-290 178.82,-290"/>
<polygon fill="#8cbad8" stroke="#8cbad8" stroke-width="2" points="178.99,-293.5001 188.99,-290 178.99,-286.5001 178.99,-293.5001"/>
</g>
<!-- ccmod.getPcn -->
<g id="node3" class="node">
<title>ccmod.getPcn</title>
<g id="a_node3"><a xlink:href="../../sporco.admm.ccmod.html#sporco.admm.ccmod.getPcn" xlink:title="ccmod.getPcn" target="_top">
<path fill="#d88c8c" stroke="#000000" stroke-width=".25" d="M728.5,-44C728.5,-44 669.5,-44 669.5,-44 663.5,-44 657.5,-38 657.5,-32 657.5,-32 657.5,-20 657.5,-20 657.5,-14 663.5,-8 669.5,-8 669.5,-8 728.5,-8 728.5,-8 734.5,-8 740.5,-14 740.5,-20 740.5,-20 740.5,-32 740.5,-32 740.5,-38 734.5,-44 728.5,-44"/>
<text text-anchor="middle" x="699" y="-23.8" font-family="Vera Sans, DejaVu Sans, Liberation Sans, Arial, Helvetica, sans" font-size="9.00" fill="#000000">ccmod.getPcn</text>
</a>
</g>
</g>
<!-- admm.ADMM.yinit -->
<g id="node5" class="node">
<title>admm.ADMM.yinit</title>
<g id="a_node5"><a xlink:href="../../sporco.admm.admm.html#sporco.admm.admm.ADMM.yinit" xlink:title="admm.ADMM.yinit" target="_top">
<path fill="#8ed88c" stroke="#000000" stroke-width=".25" d="M1130.5,-230C1130.5,-230 1056.5,-230 1056.5,-230 1050.5,-230 1044.5,-224 1044.5,-218 1044.5,-218 1044.5,-206 1044.5,-206 1044.5,-200 1050.5,-194 1056.5,-194 1056.5,-194 1130.5,-194 1130.5,-194 1136.5,-194 1142.5,-200 1142.5,-206 1142.5,-206 1142.5,-218 1142.5,-218 1142.5,-224 1136.5,-230 1130.5,-230"/>
<text text-anchor="middle" x="1093.5" y="-209.8" font-family="Vera Sans, DejaVu Sans, Liberation Sans, Arial, Helvetica, sans" font-size="9.00" fill="#000000">admm.ADMM.yinit</text>
</a>
</g>
</g>
<!-- admm.ADMM.__init__&#45;&gt;admm.ADMM.yinit -->
<g id="edge1" class="edge">
<title>admm.ADMM.__init__&#45;&gt;admm.ADMM.yinit</title>
<path fill="none" stroke="#8ed88c" stroke-width="2" d="M955.71,-212C980.34,-212 1009.3,-212 1034.3,-212"/>
<polygon fill="#8ed88c" stroke="#8ed88c" stroke-width="2" points="1034.4,-215.5001 1044.4,-212 1034.4,-208.5001 1034.4,-215.5001"/>
</g>
<!-- admm.ADMM.set_attr -->
<g id="node6" class="node">
<title>admm.ADMM.set_attr</title>
<g id="a_node6"><a xlink:href="../../sporco.admm.admm.html#sporco.admm.admm.ADMM.set_attr" xlink:title="admm.ADMM.set_attr" target="_top">
<path fill="#8ed88c" stroke="#000000" stroke-width=".25" d="M1139.5,-122C1139.5,-122 1047.5,-122 1047.5,-122 1041.5,-122 1035.5,-116 1035.5,-110 1035.5,-110 1035.5,-98 1035.5,-98 1035.5,-92 1041.5,-86 1047.5,-86 1047.5,-86 1139.5,-86 1139.5,-86 1145.5,-86 1151.5,-92 1151.5,-98 1151.5,-98 1151.5,-110 1151.5,-110 1151.5,-116 1145.5,-122 1139.5,-122"/>
<text text-anchor="middle" x="1093.5" y="-101.8" font-family="Vera Sans, DejaVu Sans, Liberation Sans, Arial, Helvetica, sans" font-size="9.00" fill="#000000">admm.ADMM.set_attr</text>
</a>
</g>
</g>
<!-- admm.ADMM.__init__&#45;&gt;admm.ADMM.set_attr -->
<g id="edge2" class="edge">
<title>admm.ADMM.__init__&#45;&gt;admm.ADMM.set_attr</title>
<path fill="none" stroke="#8ed88c" stroke-width="2" d="M955.66,-196.65C965.44,-192.31 975.03,-186.84 983,-180 1002,-163.65 991.56,-146.85 1011,-131 1015.6,-127.28 1020.7,-124.06 1026,-121.29"/>
<polygon fill="#8ed88c" stroke="#8ed88c" stroke-width="2" points="1027.6029,-124.4047 1035.2,-117.02 1024.6559,-118.0553 1027.6029,-124.4047"/>
</g>
<!-- admm.ADMM.set_dtype -->
<g id="node7" class="node">
<title>admm.ADMM.set_dtype</title>
<g id="a_node7"><a xlink:href="../../sporco.admm.admm.html#sporco.admm.admm.ADMM.set_dtype" xlink:title="admm.ADMM.set_dtype" target="_top">
<path fill="#8ed88c" stroke="#000000" stroke-width=".25" d="M1144,-176C1144,-176 1043,-176 1043,-176 1037,-176 1031,-170 1031,-164 1031,-164 1031,-152 1031,-152 1031,-146 1037,-140 1043,-140 1043,-140 1144,-140 1144,-140 1150,-140 1156,-146 1156,-152 1156,-152 1156,-164 1156,-164 1156,-170 1150,-176 1144,-176"/>
<text text-anchor="middle" x="1093.5" y="-155.8" font-family="Vera Sans, DejaVu Sans, Liberation Sans, Arial, Helvetica, sans" font-size="9.00" fill="#000000">admm.ADMM.set_dtype</text>
</a>
</g>
</g>
<!-- admm.ADMM.__init__&#45;&gt;admm.ADMM.set_dtype -->
<g id="edge3" class="edge">
<title>admm.ADMM.__init__&#45;&gt;admm.ADMM.set_dtype</title>
<path fill="none" stroke="#8ed88c" stroke-width="2" d="M955.71,-196.45C976.04,-190.78 999.3,-184.28 1020.9,-178.25"/>
<polygon fill="#8ed88c" stroke="#8ed88c" stroke-width="2" points="1022.0061,-181.5752 1030.7,-175.52 1020.1275,-174.832 1022.0061,-181.5752"/>
</g>
<!-- ccmod.ConvCnstrMODBase.uinit -->
<g id="node9" class="node">
<title>ccmod.ConvCnstrMODBase.uinit</title>
<g id="a_node9"><a xlink:href="../../sporco.admm.ccmod.html#sporco.admm.ccmod.ConvCnstrMODBase.uinit" xlink:title="ccmod.ConvCnstrMODBase.uinit" target="_top">
<path fill="#948cd8" stroke="#000000" stroke-width=".25" d="M1164,-308C1164,-308 1023,-308 1023,-308 1017,-308 1011,-302 1011,-296 1011,-296 1011,-284 1011,-284 1011,-278 1017,-272 1023,-272 1023,-272 1164,-272 1164,-272 1170,-272 1176,-278 1176,-284 1176,-284 1176,-296 1176,-296 1176,-302 1170,-308 1164,-308"/>
<text text-anchor="middle" x="1093.5" y="-287.8" font-family="Vera Sans, DejaVu Sans, Liberation Sans, Arial, Helvetica, sans" font-size="9.00" fill="#000000">ccmod.ConvCnstrMODBase.uinit</text>
</a>
</g>
</g>
<!-- admm.ADMM.__init__&#45;&gt;ccmod.ConvCnstrMODBase.uinit -->
<g id="edge5" class="edge">
<title>admm.ADMM.__init__&#45;&gt;ccmod.ConvCnstrMODBase.uinit</title>
<path fill="none" stroke="#8ed88c" stroke-width="2" d="M940.09,-230.02C961.09,-239.28 987.3,-250.57 1011,-260 1017.9,-262.75 1025.2,-265.54 1032.4,-268.26"/>
<polygon fill="#8ed88c" stroke="#8ed88c" stroke-width="2" points="1031.7066,-271.7346 1042.3,-271.91 1034.1281,-265.1668 1031.7066,-271.7346"/>
</g>
<!-- ccmod.DictionarySize.__init__ -->
<g id="node8" class="node">
<title>ccmod.DictionarySize.__init__</title>
<g id="a_node8"><a xlink:href="../../sporco.admm.ccmod.html#sporco.admm.ccmod.DictionarySize.__init__" xlink:title="ccmod.DictionarySize.__init__" target="_top">
<path fill="#d88c8c" stroke="#000000" stroke-width=".25" d="M963,-44C963,-44 837,-44 837,-44 831,-44 825,-38 825,-32 825,-32 825,-20 825,-20 825,-14 831,-8 837,-8 837,-8 963,-8 963,-8 969,-8 975,-14 975,-20 975,-20 975,-32 975,-32 975,-38 969,-44 963,-44"/>
<text text-anchor="middle" x="900" y="-23.8" font-family="Vera Sans, DejaVu Sans, Liberation Sans, Arial, Helvetica, sans" font-size="9.00" fill="#000000">ccmod.DictionarySize.__init__</text>
</a>
</g>
</g>
<!-- ccmod.ConvCnstrMODBase.__init__ -->
<g id="node10" class="node">
<title>ccmod.ConvCnstrMODBase.__init__</title>
<g id="a_node10"><a xlink:href="../../sporco.admm.ccmod.html#sporco.admm.ccmod.ConvCnstrMODBase.__init__" xlink:title="ccmod.ConvCnstrMODBase.__init__" target="_top">
<path fill="#948cd8" stroke="#000000" stroke-width=".25" d="M561,-308C561,-308 408,-308 408,-308 402,-308 396,-302 396,-296 396,-296 396,-284 396,-284 396,-278 402,-272 408,-272 408,-272 561,-272 561,-272 567,-272 573,-278 573,-284 573,-284 573,-296 573,-296 573,-302 567,-308 561,-308"/>
<text text-anchor="middle" x="484.5" y="-287.8" font-family="Vera Sans, DejaVu Sans, Liberation Sans, Arial, Helvetica, sans" font-size="9.00" fill="#000000">ccmod.ConvCnstrMODBase.__init__</text>
</a>
</g>
</g>
<!-- ccmod.ConvCnstrMODBase.__init__&#45;&gt;admm.ADMMEqual.__init__ -->
<g id="edge9" class="edge">
<title>ccmod.ConvCnstrMODBase.__init__&#45;&gt;admm.ADMMEqual.__init__</title>
<path fill="none" stroke="#948cd8" stroke-width="2" d="M534.25,-271.91C565.68,-260.48 606.46,-245.65 639.58,-233.61"/>
<polygon fill="#948cd8" stroke="#948cd8" stroke-width="2" points="640.9482,-236.8368 649.15,-230.13 638.5559,-230.2582 640.9482,-236.8368"/>
</g>
<!-- ccmod.ConvCnstrMODBase.__init__&#45;&gt;ccmod.getPcn -->
<g id="edge11" class="edge">
<title>ccmod.ConvCnstrMODBase.__init__&#45;&gt;ccmod.getPcn</title>
<path fill="none" stroke="#948cd8" stroke-width="2" d="M490.95,-271.85C506,-231.68 546.94,-134.05 609,-74 620.27,-63.091 634.52,-53.983 648.34,-46.738"/>
<polygon fill="#948cd8" stroke="#948cd8" stroke-width="2" points="649.943,-49.8497 657.32,-42.245 646.8108,-43.5895 649.943,-49.8497"/>
</g>
<!-- ccmod.ConvCnstrMODBase.__init__&#45;&gt;admm.ADMM.set_attr -->
<g id="edge8" class="edge">
<title>ccmod.ConvCnstrMODBase.__init__&#45;&gt;admm.ADMM.set_attr</title>
<path fill="none" stroke="#948cd8" stroke-width="2" d="M499.64,-271.62C521.16,-246.86 563.11,-203.44 609,-182 613.71,-179.8 892.83,-135.62 1025.2,-114.75"/>
<polygon fill="#948cd8" stroke="#948cd8" stroke-width="2" points="1025.9611,-118.1736 1035.3,-113.17 1024.8792,-111.2577 1025.9611,-118.1736"/>
</g>
<!-- ccmod.ConvCnstrMODBase.setcoef -->
<g id="node11" class="node">
<title>ccmod.ConvCnstrMODBase.setcoef</title>
<g id="a_node11"><a xlink:href="../../sporco.admm.ccmod.html#sporco.admm.ccmod.ConvCnstrMODBase.setcoef" xlink:title="ccmod.ConvCnstrMODBase.setcoef" target="_top">
<path fill="#948cd8" stroke="#000000" stroke-width=".25" d="M777,-308C777,-308 621,-308 621,-308 615,-308 609,-302 609,-296 609,-296 609,-284 609,-284 609,-278 615,-272 621,-272 621,-272 777,-272 777,-272 783,-272 789,-278 789,-284 789,-284 789,-296 789,-296 789,-302 783,-308 777,-308"/>
<text text-anchor="middle" x="699" y="-287.8" font-family="Vera Sans, DejaVu Sans, Liberation Sans, Arial, Helvetica, sans" font-size="9.00" fill="#000000">ccmod.ConvCnstrMODBase.setcoef</text>
</a>
</g>
</g>
<!-- ccmod.ConvCnstrMODBase.__init__&#45;&gt;ccmod.ConvCnstrMODBase.setcoef -->
<g id="edge4" class="edge">
<title>ccmod.ConvCnstrMODBase.__init__&#45;&gt;ccmod.ConvCnstrMODBase.setcoef</title>
<path fill="none" stroke="#948cd8" stroke-width="2" d="M573.29,-290C581.65,-290 590.16,-290 598.62,-290"/>
<polygon fill="#948cd8" stroke="#948cd8" stroke-width="2" points="598.89,-293.5001 608.89,-290 598.89,-286.5001 598.89,-293.5001"/>
</g>
<!-- ccmod.ConvRepIndexing.__init__ -->
<g id="node12" class="node">
<title>ccmod.ConvRepIndexing.__init__</title>
<g id="a_node12"><a xlink:href="../../sporco.admm.ccmod.html#sporco.admm.ccmod.ConvRepIndexing.__init__" xlink:title="ccmod.ConvRepIndexing.__init__" target="_top">
<path fill="#d88cb1" stroke="#000000" stroke-width=".25" d="M769,-122C769,-122 629,-122 629,-122 623,-122 617,-116 617,-110 617,-110 617,-98 617,-98 617,-92 623,-86 629,-86 629,-86 769,-86 769,-86 775,-86 781,-92 781,-98 781,-98 781,-110 781,-110 781,-116 775,-122 769,-122"/>
<text text-anchor="middle" x="699" y="-101.8" font-family="Vera Sans, DejaVu Sans, Liberation Sans, Arial, Helvetica, sans" font-size="9.00" fill="#000000">ccmod.ConvRepIndexing.__init__</text>
</a>
</g>
</g>
<!-- ccmod.ConvCnstrMODBase.__init__&#45;&gt;ccmod.ConvRepIndexing.__init__ -->
<g id="edge10" class="edge">
<title>ccmod.ConvCnstrMODBase.__init__&#45;&gt;ccmod.ConvRepIndexing.__init__</title>
<path fill="none" stroke="#948cd8" stroke-width="2" d="M497.75,-271.61C518.85,-243.26 562.47,-188.36 609,-152 621.02,-142.61 635.13,-134.1 648.58,-126.95"/>
<polygon fill="#948cd8" stroke="#948cd8" stroke-width="2" points="650.4671,-129.9148 657.75,-122.22 647.2581,-123.6937 650.4671,-129.9148"/>
</g>
<!-- ccmod.ConvRepIndexing.__init__&#45;&gt;ccmod.DictionarySize.__init__ -->
<g id="edge13" class="edge">
<title>ccmod.ConvRepIndexing.__init__&#45;&gt;ccmod.DictionarySize.__init__</title>
<path fill="none" stroke="#d88cb1" stroke-width="2" d="M755.92,-85.856C766.95,-82.105 778.38,-78.056 789,-74 809.65,-66.112 832.08,-56.594 851.35,-48.121"/>
<polygon fill="#d88cb1" stroke="#d88cb1" stroke-width="2" points="852.8028,-51.3055 860.53,-44.057 849.9691,-44.9047 852.8028,-51.3055"/>
</g>
<!-- ccmod.ConvCnstrMOD_CG.__init__&#45;&gt;ccmod.ConvCnstrMODBase.__init__ -->
<g id="edge12" class="edge">
<title>ccmod.ConvCnstrMOD_CG.__init__&#45;&gt;ccmod.ConvCnstrMODBase.__init__</title>
<path fill="none" stroke="#ca8cd8" stroke-width="2" d="M360.22,-290C368.7,-290 377.35,-290 385.94,-290"/>
<polygon fill="#ca8cd8" stroke="#ca8cd8" stroke-width="2" points="385.99,-293.5001 395.99,-290 385.99,-286.5001 385.99,-293.5001"/>
</g>
</g>
</svg>
