<?xml version="1.0" encoding="UTF-8" standalone="no"?>
<!DOCTYPE svg PUBLIC "-//W3C//DTD SVG 1.1//EN"
 "http://www.w3.org/Graphics/SVG/1.1/DTD/svg11.dtd">
<!-- Generated by graphviz version 2.40.1 (20161225.0304)
 -->
<!-- Pages: 1 -->
<svg
 viewBox="0.00 0.00 1271.00 720.00" xmlns="http://www.w3.org/2000/svg" xmlns:xlink="http://www.w3.org/1999/xlink">
<g id="graph0" class="graph" transform="scale(1 1) rotate(0) translate(4 716)">
<polygon fill="transparent" stroke="transparent" points="-4,4 -4,-716 1267,-716 1267,4 -4,4"/>
<g id="clust1" class="cluster">
<title>cluster_admm.ADMM</title>
<polygon fill="transparent" stroke="#8ed88c" stroke-width="2" stroke-dasharray="1,5" points="0,0 0,-286 684.5,-286 684.5,0 0,0"/>
<text text-anchor="middle" x="342.25" y="-274.8" font-family="Vera Sans, DejaVu Sans, Liberation Sans, Arial, Helvetica, sans" font-size="9.00" fill="#000000">admm.ADMM</text>
</g>
<g id="clust2" class="cluster">
<title>cluster_ccmodmd.ConvCnstrMODMaskDcpl_Consensus</title>
<polygon fill="transparent" stroke="#d88c8c" stroke-width="2" stroke-dasharray="1,5" points="139,-294 139,-580 480,-580 480,-294 139,-294"/>
<text text-anchor="middle" x="309.5" y="-568.8" font-family="Vera Sans, DejaVu Sans, Liberation Sans, Arial, Helvetica, sans" font-size="9.00" fill="#000000">ccmodmd.ConvCnstrMODMaskDcpl_Consensus</text>
</g>
<g id="clust3" class="cluster">
<title>cluster_ccmod.ConvCnstrMOD_Consensus</title>
<polygon fill="transparent" stroke="#d88cc3" stroke-width="2" stroke-dasharray="1,5" points="500,-294 500,-526 1263,-526 1263,-294 500,-294"/>
<text text-anchor="middle" x="881.5" y="-514.8" font-family="Vera Sans, DejaVu Sans, Liberation Sans, Arial, Helvetica, sans" font-size="9.00" fill="#000000">ccmod.ConvCnstrMOD_Consensus</text>
</g>
<g id="clust4" class="cluster">
<title>cluster_admm.ADMMConsensus</title>
<polygon fill="transparent" stroke="#8ca8d8" stroke-width="2" stroke-dasharray="1,5" points="220,-588 220,-712 1239,-712 1239,-588 220,-588"/>
<text text-anchor="middle" x="729.5" y="-700.8" font-family="Vera Sans, DejaVu Sans, Liberation Sans, Arial, Helvetica, sans" font-size="9.00" fill="#000000">admm.ADMMConsensus</text>
</g>
<!-- admm.ADMM.display_status -->
<g id="node1" class="node">
<title>admm.ADMM.display_status</title>
<g id="a_node1"><a xlink:href="../../sporco.admm.admm.html#sporco.admm.admm.ADMM.display_status" xlink:title="admm.ADMM.display_status" target="_top">
<path fill="#8ed88c" stroke="#000000" stroke-width=".25" d="M370.5,-152C370.5,-152 248.5,-152 248.5,-152 242.5,-152 236.5,-146 236.5,-140 236.5,-140 236.5,-128 236.5,-128 236.5,-122 242.5,-116 248.5,-116 248.5,-116 370.5,-116 370.5,-116 376.5,-116 382.5,-122 382.5,-128 382.5,-128 382.5,-140 382.5,-140 382.5,-146 376.5,-152 370.5,-152"/>
<text text-anchor="middle" x="309.5" y="-131.8" font-family="Vera Sans, DejaVu Sans, Liberation Sans, Arial, Helvetica, sans" font-size="9.00" fill="#000000">admm.ADMM.display_status</text>
</a>
</g>
</g>
<!-- admm.ADMM.iteration_stats -->
<g id="node2" class="node">
<title>admm.ADMM.iteration_stats</title>
<g id="a_node2"><a xlink:href="../../sporco.admm.admm.html#sporco.admm.admm.ADMM.iteration_stats" xlink:title="admm.ADMM.iteration_stats" target="_top">
<path fill="#8ed88c" stroke="#000000" stroke-width=".25" d="M371,-206C371,-206 248,-206 248,-206 242,-206 236,-200 236,-194 236,-194 236,-182 236,-182 236,-176 242,-170 248,-170 248,-170 371,-170 371,-170 377,-170 383,-176 383,-182 383,-182 383,-194 383,-194 383,-200 377,-206 371,-206"/>
<text text-anchor="middle" x="309.5" y="-185.8" font-family="Vera Sans, DejaVu Sans, Liberation Sans, Arial, Helvetica, sans" font-size="9.00" fill="#000000">admm.ADMM.iteration_stats</text>
</a>
</g>
</g>
<!-- ccmod.ConvCnstrMOD_Consensus.eval_objfn -->
<g id="node18" class="node">
<title>ccmod.ConvCnstrMOD_Consensus.eval_objfn</title>
<g id="a_node18"><a xlink:href="../../sporco.admm.ccmod.html#sporco.admm.ccmod.ConvCnstrMOD_Consensus.eval_objfn" xlink:title="ccmod.ConvCnstrMOD_Consensus.eval_objfn" target="_top">
<path fill="#d88cc3" stroke="#000000" stroke-width=".25" d="M723.5,-338C723.5,-338 523.5,-338 523.5,-338 517.5,-338 511.5,-332 511.5,-326 511.5,-326 511.5,-314 511.5,-314 511.5,-308 517.5,-302 523.5,-302 523.5,-302 723.5,-302 723.5,-302 729.5,-302 735.5,-308 735.5,-314 735.5,-314 735.5,-326 735.5,-326 735.5,-332 729.5,-338 723.5,-338"/>
<text text-anchor="middle" x="623.5" y="-317.8" font-family="Vera Sans, DejaVu Sans, Liberation Sans, Arial, Helvetica, sans" font-size="9.00" fill="#000000">ccmod.ConvCnstrMOD_Consensus.eval_objfn</text>
</a>
</g>
</g>
<!-- admm.ADMM.iteration_stats&#45;&gt;ccmod.ConvCnstrMOD_Consensus.eval_objfn -->
<g id="edge9" class="edge">
<title>admm.ADMM.iteration_stats&#45;&gt;ccmod.ConvCnstrMOD_Consensus.eval_objfn</title>
<path fill="none" stroke="#8ed88c" stroke-width="2" d="M383.11,-182.49C416.43,-183.93 454.07,-191.62 480,-215 505.62,-238.1 475.34,-265.88 500,-290 502.22,-292.17 504.57,-294.19 507.02,-296.07"/>
<polygon fill="#8ed88c" stroke="#8ed88c" stroke-width="2" points="505.5113,-299.2739 515.76,-301.96 509.4233,-293.469 505.5113,-299.2739"/>
</g>
<!-- ccmod.ConvCnstrMOD_Consensus.itstat_extra -->
<g id="node19" class="node">
<title>ccmod.ConvCnstrMOD_Consensus.itstat_extra</title>
<g id="a_node19"><a xlink:href="../../sporco.admm.ccmod.html#sporco.admm.ccmod.ConvCnstrMOD_Consensus.itstat_extra" xlink:title="ccmod.ConvCnstrMOD_Consensus.itstat_extra" target="_top">
<path fill="#d88cc3" stroke="#000000" stroke-width=".25" d="M727,-392C727,-392 520,-392 520,-392 514,-392 508,-386 508,-380 508,-380 508,-368 508,-368 508,-362 514,-356 520,-356 520,-356 727,-356 727,-356 733,-356 739,-362 739,-368 739,-368 739,-380 739,-380 739,-386 733,-392 727,-392"/>
<text text-anchor="middle" x="623.5" y="-371.8" font-family="Vera Sans, DejaVu Sans, Liberation Sans, Arial, Helvetica, sans" font-size="9.00" fill="#000000">ccmod.ConvCnstrMOD_Consensus.itstat_extra</text>
</a>
</g>
</g>
<!-- admm.ADMM.iteration_stats&#45;&gt;ccmod.ConvCnstrMOD_Consensus.itstat_extra -->
<g id="edge10" class="edge">
<title>admm.ADMM.iteration_stats&#45;&gt;ccmod.ConvCnstrMOD_Consensus.itstat_extra</title>
<path fill="none" stroke="#8ed88c" stroke-width="2" d="M383.42,-181.22C417.23,-182.28 455.18,-190.02 480,-215 521.82,-257.1 459.43,-303.7 500,-347 500.77,-347.82 501.56,-348.62 502.36,-349.4"/>
<polygon fill="#8ed88c" stroke="#8ed88c" stroke-width="2" points="500.1409,-352.1068 510.06,-355.83 504.6277,-346.7338 500.1409,-352.1068"/>
</g>
<!-- admm.ADMM.ustep -->
<g id="node3" class="node">
<title>admm.ADMM.ustep</title>
<g id="a_node3"><a xlink:href="../../sporco.admm.admm.html#sporco.admm.admm.ADMM.ustep" xlink:title="admm.ADMM.ustep" target="_top">
<path fill="#8ed88c" stroke="#000000" stroke-width=".25" d="M664.5,-260C664.5,-260 582.5,-260 582.5,-260 576.5,-260 570.5,-254 570.5,-248 570.5,-248 570.5,-236 570.5,-236 570.5,-230 576.5,-224 582.5,-224 582.5,-224 664.5,-224 664.5,-224 670.5,-224 676.5,-230 676.5,-236 676.5,-236 676.5,-248 676.5,-248 676.5,-254 670.5,-260 664.5,-260"/>
<text text-anchor="middle" x="623.5" y="-239.8" font-family="Vera Sans, DejaVu Sans, Liberation Sans, Arial, Helvetica, sans" font-size="9.00" fill="#000000">admm.ADMM.ustep</text>
</a>
</g>
</g>
<!-- admm.ADMMConsensus.rsdl_r -->
<g id="node23" class="node">
<title>admm.ADMMConsensus.rsdl_r</title>
<g id="a_node23"><a xlink:href="../../sporco.admm.admm.html#sporco.admm.admm.ADMMConsensus.rsdl_r" xlink:title="admm.ADMMConsensus.rsdl_r" target="_top">
<path fill="#8ca8d8" stroke="#000000" stroke-width=".25" d="M951,-632C951,-632 819,-632 819,-632 813,-632 807,-626 807,-620 807,-620 807,-608 807,-608 807,-602 813,-596 819,-596 819,-596 951,-596 951,-596 957,-596 963,-602 963,-608 963,-608 963,-620 963,-620 963,-626 957,-632 951,-632"/>
<text text-anchor="middle" x="885" y="-611.8" font-family="Vera Sans, DejaVu Sans, Liberation Sans, Arial, Helvetica, sans" font-size="9.00" fill="#000000">admm.ADMMConsensus.rsdl_r</text>
</a>
</g>
</g>
<!-- admm.ADMM.ustep&#45;&gt;admm.ADMMConsensus.rsdl_r -->
<g id="edge11" class="edge">
<title>admm.ADMM.ustep&#45;&gt;admm.ADMMConsensus.rsdl_r</title>
<path fill="none" stroke="#8ed88c" stroke-width="2" d="M676.62,-251.91C699.2,-258.84 723.77,-270.49 739,-290 805.38,-375.02 720.12,-437.14 775,-530 790.23,-555.77 816.69,-576.35 839.84,-590.69"/>
<polygon fill="#8ed88c" stroke="#8ed88c" stroke-width="2" points="838.141,-593.7521 848.52,-595.88 841.7334,-587.7441 838.141,-593.7521"/>
</g>
<!-- admm.ADMM.display_start -->
<g id="node4" class="node">
<title>admm.ADMM.display_start</title>
<g id="a_node4"><a xlink:href="../../sporco.admm.admm.html#sporco.admm.admm.ADMM.display_start" xlink:title="admm.ADMM.display_start" target="_top">
<path fill="#8ed88c" stroke="#000000" stroke-width=".25" d="M366.5,-260C366.5,-260 252.5,-260 252.5,-260 246.5,-260 240.5,-254 240.5,-248 240.5,-248 240.5,-236 240.5,-236 240.5,-230 246.5,-224 252.5,-224 252.5,-224 366.5,-224 366.5,-224 372.5,-224 378.5,-230 378.5,-236 378.5,-236 378.5,-248 378.5,-248 378.5,-254 372.5,-260 366.5,-260"/>
<text text-anchor="middle" x="309.5" y="-239.8" font-family="Vera Sans, DejaVu Sans, Liberation Sans, Arial, Helvetica, sans" font-size="9.00" fill="#000000">admm.ADMM.display_start</text>
</a>
</g>
</g>
<!-- admm.ADMM.display_end -->
<g id="node5" class="node">
<title>admm.ADMM.display_end</title>
<g id="a_node5"><a xlink:href="../../sporco.admm.admm.html#sporco.admm.admm.ADMM.display_end" xlink:title="admm.ADMM.display_end" target="_top">
<path fill="#8ed88c" stroke="#000000" stroke-width=".25" d="M364.5,-44C364.5,-44 254.5,-44 254.5,-44 248.5,-44 242.5,-38 242.5,-32 242.5,-32 242.5,-20 242.5,-20 242.5,-14 248.5,-8 254.5,-8 254.5,-8 364.5,-8 364.5,-8 370.5,-8 376.5,-14 376.5,-20 376.5,-20 376.5,-32 376.5,-32 376.5,-38 370.5,-44 364.5,-44"/>
<text text-anchor="middle" x="309.5" y="-23.8" font-family="Vera Sans, DejaVu Sans, Liberation Sans, Arial, Helvetica, sans" font-size="9.00" fill="#000000">admm.ADMM.display_end</text>
</a>
</g>
</g>
<!-- admm.ADMM.solve -->
<g id="node6" class="node">
<title>admm.ADMM.solve</title>
<g id="a_node6"><a xlink:href="../../sporco.admm.admm.html#sporco.admm.admm.ADMM.solve" xlink:title="admm.ADMM.solve" target="_top">
<path fill="#8ed88c" stroke="#000000" stroke-width=".25" d="M99,-260C99,-260 20,-260 20,-260 14,-260 8,-254 8,-248 8,-248 8,-236 8,-236 8,-230 14,-224 20,-224 20,-224 99,-224 99,-224 105,-224 111,-230 111,-236 111,-236 111,-248 111,-248 111,-254 105,-260 99,-260"/>
<text text-anchor="middle" x="59.5" y="-239.8" font-family="Vera Sans, DejaVu Sans, Liberation Sans, Arial, Helvetica, sans" font-size="9.00" fill="#000000">admm.ADMM.solve</text>
</a>
</g>
</g>
<!-- admm.ADMM.solve&#45;&gt;admm.ADMM.display_status -->
<g id="edge1" class="edge">
<title>admm.ADMM.solve&#45;&gt;admm.ADMM.display_status</title>
<path fill="none" stroke="#8ed88c" stroke-width="2" d="M71.794,-223.87C85.728,-204.88 110.28,-175.8 139,-161 165.57,-147.31 197.32,-140.18 226.17,-136.59"/>
<polygon fill="#8ed88c" stroke="#8ed88c" stroke-width="2" points="226.7022,-140.0524 236.25,-135.46 225.9223,-133.0959 226.7022,-140.0524"/>
</g>
<!-- admm.ADMM.solve&#45;&gt;admm.ADMM.iteration_stats -->
<g id="edge2" class="edge">
<title>admm.ADMM.solve&#45;&gt;admm.ADMM.iteration_stats</title>
<path fill="none" stroke="#8ed88c" stroke-width="2" d="M108.31,-223.97C118.36,-220.66 128.95,-217.48 139,-215 166.99,-208.09 198.01,-202.56 225.84,-198.35"/>
<polygon fill="#8ed88c" stroke="#8ed88c" stroke-width="2" points="226.5627,-201.7811 235.94,-196.85 225.5343,-194.8571 226.5627,-201.7811"/>
</g>
<!-- admm.ADMM.solve&#45;&gt;admm.ADMM.display_start -->
<g id="edge3" class="edge">
<title>admm.ADMM.solve&#45;&gt;admm.ADMM.display_start</title>
<path fill="none" stroke="#8ed88c" stroke-width="2" d="M111.3,-242C145.57,-242 191.16,-242 229.98,-242"/>
<polygon fill="#8ed88c" stroke="#8ed88c" stroke-width="2" points="230.22,-245.5001 240.22,-242 230.22,-238.5001 230.22,-245.5001"/>
</g>
<!-- admm.ADMM.solve&#45;&gt;admm.ADMM.display_end -->
<g id="edge4" class="edge">
<title>admm.ADMM.solve&#45;&gt;admm.ADMM.display_end</title>
<path fill="none" stroke="#8ed88c" stroke-width="2" d="M61.351,-223.99C66.308,-185.76 83.529,-96.48 139,-53 165.07,-32.563 200.42,-24.74 232.17,-22.45"/>
<polygon fill="#8ed88c" stroke="#8ed88c" stroke-width="2" points="232.5374,-25.9352 242.33,-21.891 232.1528,-18.9457 232.5374,-25.9352"/>
</g>
<!-- admm.ADMM.update_rho -->
<g id="node7" class="node">
<title>admm.ADMM.update_rho</title>
<g id="a_node7"><a xlink:href="../../sporco.admm.admm.html#sporco.admm.admm.ADMM.update_rho" xlink:title="admm.ADMM.update_rho" target="_top">
<path fill="#8ed88c" stroke="#000000" stroke-width=".25" d="M364,-98C364,-98 255,-98 255,-98 249,-98 243,-92 243,-86 243,-86 243,-74 243,-74 243,-68 249,-62 255,-62 255,-62 364,-62 364,-62 370,-62 376,-68 376,-74 376,-74 376,-86 376,-86 376,-92 370,-98 364,-98"/>
<text text-anchor="middle" x="309.5" y="-77.8" font-family="Vera Sans, DejaVu Sans, Liberation Sans, Arial, Helvetica, sans" font-size="9.00" fill="#000000">admm.ADMM.update_rho</text>
</a>
</g>
</g>
<!-- admm.ADMM.solve&#45;&gt;admm.ADMM.update_rho -->
<g id="edge5" class="edge">
<title>admm.ADMM.solve&#45;&gt;admm.ADMM.update_rho</title>
<path fill="none" stroke="#8ed88c" stroke-width="2" d="M64.702,-223.63C74.164,-193.84 97.18,-135.47 139,-107 166.16,-88.507 201.33,-80.901 232.66,-78.25"/>
<polygon fill="#8ed88c" stroke="#8ed88c" stroke-width="2" points="232.9555,-81.738 242.69,-77.556 232.4722,-74.7547 232.9555,-81.738"/>
</g>
<!-- ccmodmd.ConvCnstrMODMaskDcpl_Consensus.relax_AX -->
<g id="node8" class="node">
<title>ccmodmd.ConvCnstrMODMaskDcpl_Consensus.relax_AX</title>
<g id="a_node8"><a xlink:href="../../sporco.admm.ccmodmd.html#sporco.admm.ccmodmd.ConvCnstrMODMaskDcpl_Consensus.relax_AX" xlink:title="ccmodmd.ConvCnstrMODMaskDcpl_Consensus.relax_AX" target="_top">
<path fill="#d88c8c" stroke="#000000" stroke-width=".25" d="M435,-500C435,-500 184,-500 184,-500 178,-500 172,-494 172,-488 172,-488 172,-476 172,-476 172,-470 178,-464 184,-464 184,-464 435,-464 435,-464 441,-464 447,-470 447,-476 447,-476 447,-488 447,-488 447,-494 441,-500 435,-500"/>
<text text-anchor="middle" x="309.5" y="-479.8" font-family="Vera Sans, DejaVu Sans, Liberation Sans, Arial, Helvetica, sans" font-size="9.00" fill="#000000">ccmodmd.ConvCnstrMODMaskDcpl_Consensus.relax_AX</text>
</a>
</g>
</g>
<!-- admm.ADMM.solve&#45;&gt;ccmodmd.ConvCnstrMODMaskDcpl_Consensus.relax_AX -->
<g id="edge13" class="edge">
<title>admm.ADMM.solve&#45;&gt;ccmodmd.ConvCnstrMODMaskDcpl_Consensus.relax_AX</title>
<path fill="none" stroke="#8ed88c" stroke-width="2" d="M60.403,-260.01C63.528,-301.6 77.423,-404.66 139,-455 146.16,-460.85 154.06,-465.68 162.44,-469.66"/>
<polygon fill="#8ed88c" stroke="#8ed88c" stroke-width="2" points="161.1208,-472.9026 171.69,-473.64 163.8876,-466.4725 161.1208,-472.9026"/>
</g>
<!-- ccmodmd.ConvCnstrMODMaskDcpl_Consensus.xstep -->
<g id="node9" class="node">
<title>ccmodmd.ConvCnstrMODMaskDcpl_Consensus.xstep</title>
<g id="a_node9"><a xlink:href="../../sporco.admm.ccmodmd.html#sporco.admm.ccmodmd.ConvCnstrMODMaskDcpl_Consensus.xstep" xlink:title="ccmodmd.ConvCnstrMODMaskDcpl_Consensus.xstep" target="_top">
<path fill="#d88c8c" stroke="#000000" stroke-width=".25" d="M428.5,-392C428.5,-392 190.5,-392 190.5,-392 184.5,-392 178.5,-386 178.5,-380 178.5,-380 178.5,-368 178.5,-368 178.5,-362 184.5,-356 190.5,-356 190.5,-356 428.5,-356 428.5,-356 434.5,-356 440.5,-362 440.5,-368 440.5,-368 440.5,-380 440.5,-380 440.5,-386 434.5,-392 428.5,-392"/>
<text text-anchor="middle" x="309.5" y="-371.8" font-family="Vera Sans, DejaVu Sans, Liberation Sans, Arial, Helvetica, sans" font-size="9.00" fill="#000000">ccmodmd.ConvCnstrMODMaskDcpl_Consensus.xstep</text>
</a>
</g>
</g>
<!-- admm.ADMM.solve&#45;&gt;ccmodmd.ConvCnstrMODMaskDcpl_Consensus.xstep -->
<g id="edge14" class="edge">
<title>admm.ADMM.solve&#45;&gt;ccmodmd.ConvCnstrMODMaskDcpl_Consensus.xstep</title>
<path fill="none" stroke="#8ed88c" stroke-width="2" d="M67.826,-260.29C79.85,-284.44 104.48,-326.31 139,-347 148.25,-352.54 158.27,-357.06 168.66,-360.73"/>
<polygon fill="#8ed88c" stroke="#8ed88c" stroke-width="2" points="167.6976,-364.0975 178.29,-363.87 169.8677,-357.4423 167.6976,-364.0975"/>
</g>
<!-- ccmodmd.ConvCnstrMODMaskDcpl_Consensus.ystep -->
<g id="node10" class="node">
<title>ccmodmd.ConvCnstrMODMaskDcpl_Consensus.ystep</title>
<g id="a_node10"><a xlink:href="../../sporco.admm.ccmodmd.html#sporco.admm.ccmodmd.ConvCnstrMODMaskDcpl_Consensus.ystep" xlink:title="ccmodmd.ConvCnstrMODMaskDcpl_Consensus.ystep" target="_top">
<path fill="#d88c8c" stroke="#000000" stroke-width=".25" d="M428.5,-554C428.5,-554 190.5,-554 190.5,-554 184.5,-554 178.5,-548 178.5,-542 178.5,-542 178.5,-530 178.5,-530 178.5,-524 184.5,-518 190.5,-518 190.5,-518 428.5,-518 428.5,-518 434.5,-518 440.5,-524 440.5,-530 440.5,-530 440.5,-542 440.5,-542 440.5,-548 434.5,-554 428.5,-554"/>
<text text-anchor="middle" x="309.5" y="-533.8" font-family="Vera Sans, DejaVu Sans, Liberation Sans, Arial, Helvetica, sans" font-size="9.00" fill="#000000">ccmodmd.ConvCnstrMODMaskDcpl_Consensus.ystep</text>
</a>
</g>
</g>
<!-- admm.ADMM.solve&#45;&gt;ccmodmd.ConvCnstrMODMaskDcpl_Consensus.ystep -->
<g id="edge15" class="edge">
<title>admm.ADMM.solve&#45;&gt;ccmodmd.ConvCnstrMODMaskDcpl_Consensus.ystep</title>
<path fill="none" stroke="#8ed88c" stroke-width="2" d="M62.383,-260.34C71.359,-315.04 100.52,-475.3 139,-509 147.81,-516.71 157.89,-522.7 168.67,-527.31"/>
<polygon fill="#8ed88c" stroke="#8ed88c" stroke-width="2" points="167.71,-530.6905 178.3,-531.01 170.2206,-524.1562 167.71,-530.6905"/>
</g>
<!-- ccmodmd.ConvCnstrMODMaskDcpl_Consensus.compute_residuals -->
<g id="node11" class="node">
<title>ccmodmd.ConvCnstrMODMaskDcpl_Consensus.compute_residuals</title>
<g id="a_node11"><a xlink:href="../../sporco.admm.ccmodmd.html#sporco.admm.ccmodmd.ConvCnstrMODMaskDcpl_Consensus.compute_residuals" xlink:title="ccmodmd.ConvCnstrMODMaskDcpl_Consensus.compute_residuals" target="_top">
<path fill="#d88c8c" stroke="#000000" stroke-width=".25" d="M460,-446C460,-446 159,-446 159,-446 153,-446 147,-440 147,-434 147,-434 147,-422 147,-422 147,-416 153,-410 159,-410 159,-410 460,-410 460,-410 466,-410 472,-416 472,-422 472,-422 472,-434 472,-434 472,-440 466,-446 460,-446"/>
<text text-anchor="middle" x="309.5" y="-425.8" font-family="Vera Sans, DejaVu Sans, Liberation Sans, Arial, Helvetica, sans" font-size="9.00" fill="#000000">ccmodmd.ConvCnstrMODMaskDcpl_Consensus.compute_residuals</text>
</a>
</g>
</g>
<!-- admm.ADMM.solve&#45;&gt;ccmodmd.ConvCnstrMODMaskDcpl_Consensus.compute_residuals -->
<g id="edge16" class="edge">
<title>admm.ADMM.solve&#45;&gt;ccmodmd.ConvCnstrMODMaskDcpl_Consensus.compute_residuals</title>
<path fill="none" stroke="#8ed88c" stroke-width="2" d="M62.9,-260.02C70.27,-293.68 91.069,-365.9 139,-401 140.68,-402.23 142.39,-403.41 144.13,-404.55"/>
<polygon fill="#8ed88c" stroke="#8ed88c" stroke-width="2" points="142.7028,-407.7726 153.09,-409.86 146.2716,-401.7507 142.7028,-407.7726"/>
</g>
<!-- ccmodmd.ConvCnstrMODMaskDcpl_Consensus.ustep -->
<g id="node12" class="node">
<title>ccmodmd.ConvCnstrMODMaskDcpl_Consensus.ustep</title>
<g id="a_node12"><a xlink:href="../../sporco.admm.ccmodmd.html#sporco.admm.ccmodmd.ConvCnstrMODMaskDcpl_Consensus.ustep" xlink:title="ccmodmd.ConvCnstrMODMaskDcpl_Consensus.ustep" target="_top">
<path fill="#d88c8c" stroke="#000000" stroke-width=".25" d="M429,-338C429,-338 190,-338 190,-338 184,-338 178,-332 178,-326 178,-326 178,-314 178,-314 178,-308 184,-302 190,-302 190,-302 429,-302 429,-302 435,-302 441,-308 441,-314 441,-314 441,-326 441,-326 441,-332 435,-338 429,-338"/>
<text text-anchor="middle" x="309.5" y="-317.8" font-family="Vera Sans, DejaVu Sans, Liberation Sans, Arial, Helvetica, sans" font-size="9.00" fill="#000000">ccmodmd.ConvCnstrMODMaskDcpl_Consensus.ustep</text>
</a>
</g>
</g>
<!-- admm.ADMM.solve&#45;&gt;ccmodmd.ConvCnstrMODMaskDcpl_Consensus.ustep -->
<g id="edge17" class="edge">
<title>admm.ADMM.solve&#45;&gt;ccmodmd.ConvCnstrMODMaskDcpl_Consensus.ustep</title>
<path fill="none" stroke="#8ed88c" stroke-width="2" d="M84.056,-260.09C99.18,-270.38 119.37,-282.64 139,-290 148.29,-293.48 158.01,-296.56 167.91,-299.29"/>
<polygon fill="#8ed88c" stroke="#8ed88c" stroke-width="2" points="167.289,-302.7455 177.85,-301.9 169.0668,-295.975 167.289,-302.7455"/>
</g>
<!-- admm.ADMMConsensus.getmin -->
<g id="node21" class="node">
<title>admm.ADMMConsensus.getmin</title>
<g id="a_node21"><a xlink:href="../../sporco.admm.admm.html#sporco.admm.admm.ADMMConsensus.getmin" xlink:title="admm.ADMMConsensus.getmin" target="_top">
<path fill="#8ca8d8" stroke="#000000" stroke-width=".25" d="M379,-632C379,-632 240,-632 240,-632 234,-632 228,-626 228,-620 228,-620 228,-608 228,-608 228,-602 234,-596 240,-596 240,-596 379,-596 379,-596 385,-596 391,-602 391,-608 391,-608 391,-620 391,-620 391,-626 385,-632 379,-632"/>
<text text-anchor="middle" x="309.5" y="-611.8" font-family="Vera Sans, DejaVu Sans, Liberation Sans, Arial, Helvetica, sans" font-size="9.00" fill="#000000">admm.ADMMConsensus.getmin</text>
</a>
</g>
</g>
<!-- admm.ADMM.solve&#45;&gt;admm.ADMMConsensus.getmin -->
<g id="edge12" class="edge">
<title>admm.ADMM.solve&#45;&gt;admm.ADMMConsensus.getmin</title>
<path fill="none" stroke="#8ed88c" stroke-width="2" d="M61.13,-260.23C67.247,-324.41 90.982,-538.52 139,-584 159.98,-603.88 189.26,-613.05 217.64,-616.76"/>
<polygon fill="#8ed88c" stroke="#8ed88c" stroke-width="2" points="217.2967,-620.2433 227.62,-617.86 218.0637,-613.2854 217.2967,-620.2433"/>
</g>
<!-- ccmod.ConvCnstrMOD_Consensus.swapaxes -->
<g id="node20" class="node">
<title>ccmod.ConvCnstrMOD_Consensus.swapaxes</title>
<g id="a_node20"><a xlink:href="../../sporco.admm.ccmod.html#sporco.admm.ccmod.ConvCnstrMOD_Consensus.swapaxes" xlink:title="ccmod.ConvCnstrMOD_Consensus.swapaxes" target="_top">
<path fill="#d88cc3" stroke="#000000" stroke-width=".25" d="M723.5,-500C723.5,-500 523.5,-500 523.5,-500 517.5,-500 511.5,-494 511.5,-488 511.5,-488 511.5,-476 511.5,-476 511.5,-470 517.5,-464 523.5,-464 523.5,-464 723.5,-464 723.5,-464 729.5,-464 735.5,-470 735.5,-476 735.5,-476 735.5,-488 735.5,-488 735.5,-494 729.5,-500 723.5,-500"/>
<text text-anchor="middle" x="623.5" y="-479.8" font-family="Vera Sans, DejaVu Sans, Liberation Sans, Arial, Helvetica, sans" font-size="9.00" fill="#000000">ccmod.ConvCnstrMOD_Consensus.swapaxes</text>
</a>
</g>
</g>
<!-- ccmodmd.ConvCnstrMODMaskDcpl_Consensus.relax_AX&#45;&gt;ccmod.ConvCnstrMOD_Consensus.swapaxes -->
<g id="edge21" class="edge">
<title>ccmodmd.ConvCnstrMODMaskDcpl_Consensus.relax_AX&#45;&gt;ccmod.ConvCnstrMOD_Consensus.swapaxes</title>
<path fill="none" stroke="#d88c8c" stroke-width="2" d="M447.22,-482C465.13,-482 483.38,-482 501.01,-482"/>
<polygon fill="#d88c8c" stroke="#d88c8c" stroke-width="2" points="501.32,-485.5001 511.32,-482 501.32,-478.5001 501.32,-485.5001"/>
</g>
<!-- admm.ADMMConsensus.relax_AX -->
<g id="node22" class="node">
<title>admm.ADMMConsensus.relax_AX</title>
<g id="a_node22"><a xlink:href="../../sporco.admm.admm.html#sporco.admm.admm.ADMMConsensus.relax_AX" xlink:title="admm.ADMMConsensus.relax_AX" target="_top">
<path fill="#8ca8d8" stroke="#000000" stroke-width=".25" d="M696,-632C696,-632 551,-632 551,-632 545,-632 539,-626 539,-620 539,-620 539,-608 539,-608 539,-602 545,-596 551,-596 551,-596 696,-596 696,-596 702,-596 708,-602 708,-608 708,-608 708,-620 708,-620 708,-626 702,-632 696,-632"/>
<text text-anchor="middle" x="623.5" y="-611.8" font-family="Vera Sans, DejaVu Sans, Liberation Sans, Arial, Helvetica, sans" font-size="9.00" fill="#000000">admm.ADMMConsensus.relax_AX</text>
</a>
</g>
</g>
<!-- ccmodmd.ConvCnstrMODMaskDcpl_Consensus.relax_AX&#45;&gt;admm.ADMMConsensus.relax_AX -->
<g id="edge20" class="edge">
<title>ccmodmd.ConvCnstrMODMaskDcpl_Consensus.relax_AX&#45;&gt;admm.ADMMConsensus.relax_AX</title>
<path fill="none" stroke="#d88c8c" stroke-width="2" d="M447.23,-489.78C459.13,-494.48 470.3,-500.74 480,-509 501.72,-527.5 480.08,-549.57 500,-570 508.65,-578.87 519.21,-585.96 530.47,-591.63"/>
<polygon fill="#d88c8c" stroke="#d88c8c" stroke-width="2" points="529.0848,-594.8455 539.63,-595.87 532.0253,-588.4931 529.0848,-594.8455"/>
</g>
<!-- ccmod.ConvCnstrMOD_Consensus.xstep -->
<g id="node14" class="node">
<title>ccmod.ConvCnstrMOD_Consensus.xstep</title>
<g id="a_node14"><a xlink:href="../../sporco.admm.ccmod.html#sporco.admm.ccmod.ConvCnstrMOD_Consensus.xstep" xlink:title="ccmod.ConvCnstrMOD_Consensus.xstep" target="_top">
<path fill="#d88cc3" stroke="#000000" stroke-width=".25" d="M713,-446C713,-446 534,-446 534,-446 528,-446 522,-440 522,-434 522,-434 522,-422 522,-422 522,-416 528,-410 534,-410 534,-410 713,-410 713,-410 719,-410 725,-416 725,-422 725,-422 725,-434 725,-434 725,-440 719,-446 713,-446"/>
<text text-anchor="middle" x="623.5" y="-425.8" font-family="Vera Sans, DejaVu Sans, Liberation Sans, Arial, Helvetica, sans" font-size="9.00" fill="#000000">ccmod.ConvCnstrMOD_Consensus.xstep</text>
</a>
</g>
</g>
<!-- ccmodmd.ConvCnstrMODMaskDcpl_Consensus.xstep&#45;&gt;ccmod.ConvCnstrMOD_Consensus.xstep -->
<g id="edge22" class="edge">
<title>ccmodmd.ConvCnstrMODMaskDcpl_Consensus.xstep&#45;&gt;ccmod.ConvCnstrMOD_Consensus.xstep</title>
<path fill="none" stroke="#d88c8c" stroke-width="2" d="M426.51,-392.07C444.44,-394.97 462.73,-398.01 480,-401 492.84,-403.22 506.31,-405.64 519.63,-408.09"/>
<polygon fill="#d88c8c" stroke="#d88c8c" stroke-width="2" points="519.3113,-411.5901 529.78,-409.96 520.5797,-404.706 519.3113,-411.5901"/>
</g>
<!-- admm.ADMMConsensus.ystep -->
<g id="node25" class="node">
<title>admm.ADMMConsensus.ystep</title>
<g id="a_node25"><a xlink:href="../../sporco.admm.admm.html#sporco.admm.admm.ADMMConsensus.ystep" xlink:title="admm.ADMMConsensus.ystep" target="_top">
<path fill="#8ca8d8" stroke="#000000" stroke-width=".25" d="M689.5,-686C689.5,-686 557.5,-686 557.5,-686 551.5,-686 545.5,-680 545.5,-674 545.5,-674 545.5,-662 545.5,-662 545.5,-656 551.5,-650 557.5,-650 557.5,-650 689.5,-650 689.5,-650 695.5,-650 701.5,-656 701.5,-662 701.5,-662 701.5,-674 701.5,-674 701.5,-680 695.5,-686 689.5,-686"/>
<text text-anchor="middle" x="623.5" y="-665.8" font-family="Vera Sans, DejaVu Sans, Liberation Sans, Arial, Helvetica, sans" font-size="9.00" fill="#000000">admm.ADMMConsensus.ystep</text>
</a>
</g>
</g>
<!-- ccmodmd.ConvCnstrMODMaskDcpl_Consensus.ystep&#45;&gt;admm.ADMMConsensus.ystep -->
<g id="edge23" class="edge">
<title>ccmodmd.ConvCnstrMODMaskDcpl_Consensus.ystep&#45;&gt;admm.ADMMConsensus.ystep</title>
<path fill="none" stroke="#d88c8c" stroke-width="2" d="M430.02,-554.1C448.38,-561.1 465.88,-570.74 480,-584 499.57,-602.38 479.89,-623.21 500,-641 510.09,-649.92 522.43,-656.12 535.38,-660.38"/>
<polygon fill="#d88c8c" stroke="#d88c8c" stroke-width="2" points="534.7805,-663.8505 545.36,-663.28 536.7339,-657.1286 534.7805,-663.8505"/>
</g>
<!-- ccmodmd.ConvCnstrMODMaskDcpl_Consensus.compute_residuals&#45;&gt;ccmod.ConvCnstrMOD_Consensus.swapaxes -->
<g id="edge25" class="edge">
<title>ccmodmd.ConvCnstrMODMaskDcpl_Consensus.compute_residuals&#45;&gt;ccmod.ConvCnstrMOD_Consensus.swapaxes</title>
<path fill="none" stroke="#d88c8c" stroke-width="2" d="M426.51,-446.07C444.44,-448.97 462.73,-452.01 480,-455 492.84,-457.22 506.31,-459.64 519.63,-462.09"/>
<polygon fill="#d88c8c" stroke="#d88c8c" stroke-width="2" points="519.3113,-465.5901 529.78,-463.96 520.5797,-458.706 519.3113,-465.5901"/>
</g>
<!-- ccmodmd.ConvCnstrMODMaskDcpl_Consensus.compute_residuals&#45;&gt;admm.ADMMConsensus.rsdl_r -->
<g id="edge24" class="edge">
<title>ccmodmd.ConvCnstrMODMaskDcpl_Consensus.compute_residuals&#45;&gt;admm.ADMMConsensus.rsdl_r</title>
<path fill="none" stroke="#d88c8c" stroke-width="2" d="M468.69,-446.23C472.66,-448.87 476.44,-451.79 480,-455 505.62,-478.1 475.05,-506.17 500,-530 510.81,-540.32 686.34,-575.71 796.62,-597.12"/>
<polygon fill="#d88c8c" stroke="#d88c8c" stroke-width="2" points="796.2657,-600.6166 806.75,-599.09 797.6021,-593.7453 796.2657,-600.6166"/>
</g>
<!-- ccmodmd.ConvCnstrMODMaskDcpl_Consensus.ustep&#45;&gt;admm.ADMM.ustep -->
<g id="edge26" class="edge">
<title>ccmodmd.ConvCnstrMODMaskDcpl_Consensus.ustep&#45;&gt;admm.ADMM.ustep</title>
<path fill="none" stroke="#d88c8c" stroke-width="2" d="M425.55,-301.97C443.87,-298.44 462.52,-294.43 480,-290 508.67,-282.72 539.89,-272.56 565.86,-263.46"/>
<polygon fill="#d88c8c" stroke="#d88c8c" stroke-width="2" points="567.2832,-266.669 575.54,-260.03 564.9452,-260.071 567.2832,-266.669"/>
</g>
<!-- ccmod.ConvCnstrMOD_Consensus.prox_g -->
<g id="node13" class="node">
<title>ccmod.ConvCnstrMOD_Consensus.prox_g</title>
<g id="a_node13"><a xlink:href="../../sporco.admm.ccmod.html#sporco.admm.ccmod.ConvCnstrMOD_Consensus.prox_g" xlink:title="ccmod.ConvCnstrMOD_Consensus.prox_g" target="_top">
<path fill="#d88cc3" stroke="#000000" stroke-width=".25" d="M977.5,-500C977.5,-500 792.5,-500 792.5,-500 786.5,-500 780.5,-494 780.5,-488 780.5,-488 780.5,-476 780.5,-476 780.5,-470 786.5,-464 792.5,-464 792.5,-464 977.5,-464 977.5,-464 983.5,-464 989.5,-470 989.5,-476 989.5,-476 989.5,-488 989.5,-488 989.5,-494 983.5,-500 977.5,-500"/>
<text text-anchor="middle" x="885" y="-479.8" font-family="Vera Sans, DejaVu Sans, Liberation Sans, Arial, Helvetica, sans" font-size="9.00" fill="#000000">ccmod.ConvCnstrMOD_Consensus.prox_g</text>
</a>
</g>
</g>
<!-- ccmod.ConvCnstrMOD_Consensus.obfn_cns -->
<g id="node15" class="node">
<title>ccmod.ConvCnstrMOD_Consensus.obfn_cns</title>
<g id="a_node15"><a xlink:href="../../sporco.admm.ccmod.html#sporco.admm.ccmod.ConvCnstrMOD_Consensus.obfn_cns" xlink:title="ccmod.ConvCnstrMOD_Consensus.obfn_cns" target="_top">
<path fill="#d88cc3" stroke="#000000" stroke-width=".25" d="M983,-419C983,-419 787,-419 787,-419 781,-419 775,-413 775,-407 775,-407 775,-395 775,-395 775,-389 781,-383 787,-383 787,-383 983,-383 983,-383 989,-383 995,-389 995,-395 995,-395 995,-407 995,-407 995,-413 989,-419 983,-419"/>
<text text-anchor="middle" x="885" y="-398.8" font-family="Vera Sans, DejaVu Sans, Liberation Sans, Arial, Helvetica, sans" font-size="9.00" fill="#000000">ccmod.ConvCnstrMOD_Consensus.obfn_cns</text>
</a>
</g>
</g>
<!-- admm.ADMMConsensus.obfn_gvar -->
<g id="node24" class="node">
<title>admm.ADMMConsensus.obfn_gvar</title>
<g id="a_node24"><a xlink:href="../../sporco.admm.admm.html#sporco.admm.admm.ADMMConsensus.obfn_gvar" xlink:title="admm.ADMMConsensus.obfn_gvar" target="_top">
<path fill="#8ca8d8" stroke="#000000" stroke-width=".25" d="M1219,-632C1219,-632 1067,-632 1067,-632 1061,-632 1055,-626 1055,-620 1055,-620 1055,-608 1055,-608 1055,-602 1061,-596 1067,-596 1067,-596 1219,-596 1219,-596 1225,-596 1231,-602 1231,-608 1231,-608 1231,-620 1231,-620 1231,-626 1225,-632 1219,-632"/>
<text text-anchor="middle" x="1143" y="-611.8" font-family="Vera Sans, DejaVu Sans, Liberation Sans, Arial, Helvetica, sans" font-size="9.00" fill="#000000">admm.ADMMConsensus.obfn_gvar</text>
</a>
</g>
</g>
<!-- ccmod.ConvCnstrMOD_Consensus.obfn_cns&#45;&gt;admm.ADMMConsensus.obfn_gvar -->
<g id="edge19" class="edge">
<title>ccmod.ConvCnstrMOD_Consensus.obfn_cns&#45;&gt;admm.ADMMConsensus.obfn_gvar</title>
<path fill="none" stroke="#d88cc3" stroke-width="2" d="M939.1,-419.01C958.55,-427.54 979.5,-439.36 995,-455 1021,-481.26 1007.5,-501.42 1031,-530 1051,-554.32 1079.4,-575.52 1102.6,-590.55"/>
<polygon fill="#d88cc3" stroke="#d88cc3" stroke-width="2" points="1100.8778,-593.602 1111.2,-595.99 1104.6199,-587.6862 1100.8778,-593.602"/>
</g>
<!-- ccmod.ConvCnstrMOD_Consensus.obfn_dfd -->
<g id="node16" class="node">
<title>ccmod.ConvCnstrMOD_Consensus.obfn_dfd</title>
<g id="a_node16"><a xlink:href="../../sporco.admm.ccmod.html#sporco.admm.ccmod.ConvCnstrMOD_Consensus.obfn_dfd" xlink:title="ccmod.ConvCnstrMOD_Consensus.obfn_dfd" target="_top">
<path fill="#d88cc3" stroke="#000000" stroke-width=".25" d="M982,-338C982,-338 788,-338 788,-338 782,-338 776,-332 776,-326 776,-326 776,-314 776,-314 776,-308 782,-302 788,-302 788,-302 982,-302 982,-302 988,-302 994,-308 994,-314 994,-314 994,-326 994,-326 994,-332 988,-338 982,-338"/>
<text text-anchor="middle" x="885" y="-317.8" font-family="Vera Sans, DejaVu Sans, Liberation Sans, Arial, Helvetica, sans" font-size="9.00" fill="#000000">ccmod.ConvCnstrMOD_Consensus.obfn_dfd</text>
</a>
</g>
</g>
<!-- ccmod.ConvCnstrMOD_Consensus.obfn_fvarf -->
<g id="node17" class="node">
<title>ccmod.ConvCnstrMOD_Consensus.obfn_fvarf</title>
<g id="a_node17"><a xlink:href="../../sporco.admm.ccmod.html#sporco.admm.ccmod.ConvCnstrMOD_Consensus.obfn_fvarf" xlink:title="ccmod.ConvCnstrMOD_Consensus.obfn_fvarf" target="_top">
<path fill="#d88cc3" stroke="#000000" stroke-width=".25" d="M1243,-338C1243,-338 1043,-338 1043,-338 1037,-338 1031,-332 1031,-326 1031,-326 1031,-314 1031,-314 1031,-308 1037,-302 1043,-302 1043,-302 1243,-302 1243,-302 1249,-302 1255,-308 1255,-314 1255,-314 1255,-326 1255,-326 1255,-332 1249,-338 1243,-338"/>
<text text-anchor="middle" x="1143" y="-317.8" font-family="Vera Sans, DejaVu Sans, Liberation Sans, Arial, Helvetica, sans" font-size="9.00" fill="#000000">ccmod.ConvCnstrMOD_Consensus.obfn_fvarf</text>
</a>
</g>
</g>
<!-- ccmod.ConvCnstrMOD_Consensus.obfn_dfd&#45;&gt;ccmod.ConvCnstrMOD_Consensus.obfn_fvarf -->
<g id="edge6" class="edge">
<title>ccmod.ConvCnstrMOD_Consensus.obfn_dfd&#45;&gt;ccmod.ConvCnstrMOD_Consensus.obfn_fvarf</title>
<path fill="none" stroke="#d88cc3" stroke-width="2" d="M994,-320C1002.7,-320 1011.6,-320 1020.3,-320"/>
<polygon fill="#d88cc3" stroke="#d88cc3" stroke-width="2" points="1020.6,-323.5001 1030.6,-320 1020.6,-316.5001 1020.6,-323.5001"/>
</g>
<!-- ccmod.ConvCnstrMOD_Consensus.eval_objfn&#45;&gt;ccmod.ConvCnstrMOD_Consensus.obfn_cns -->
<g id="edge7" class="edge">
<title>ccmod.ConvCnstrMOD_Consensus.eval_objfn&#45;&gt;ccmod.ConvCnstrMOD_Consensus.obfn_cns</title>
<path fill="none" stroke="#d88cc3" stroke-width="2" d="M706.17,-338C717.26,-340.8 728.45,-343.83 739,-347 770.02,-356.32 804,-368.76 831.37,-379.34"/>
<polygon fill="#d88cc3" stroke="#d88cc3" stroke-width="2" points="830.1716,-382.6293 840.76,-383 832.7138,-376.1073 830.1716,-382.6293"/>
</g>
<!-- ccmod.ConvCnstrMOD_Consensus.eval_objfn&#45;&gt;ccmod.ConvCnstrMOD_Consensus.obfn_dfd -->
<g id="edge8" class="edge">
<title>ccmod.ConvCnstrMOD_Consensus.eval_objfn&#45;&gt;ccmod.ConvCnstrMOD_Consensus.obfn_dfd</title>
<path fill="none" stroke="#d88cc3" stroke-width="2" d="M735.54,-320C745.41,-320 755.44,-320 765.37,-320"/>
<polygon fill="#d88cc3" stroke="#d88cc3" stroke-width="2" points="765.69,-323.5001 775.69,-320 765.69,-316.5001 765.69,-323.5001"/>
</g>
<!-- admm.ADMMConsensus.ystep&#45;&gt;ccmod.ConvCnstrMOD_Consensus.prox_g -->
<g id="edge18" class="edge">
<title>admm.ADMMConsensus.ystep&#45;&gt;ccmod.ConvCnstrMOD_Consensus.prox_g</title>
<path fill="none" stroke="#8ca8d8" stroke-width="2" d="M701.63,-658.48C714.89,-654.49 727.93,-648.88 739,-641 763.41,-623.63 755.85,-607.05 775,-584 799.12,-554.97 831.18,-526.12 854.46,-506.55"/>
<polygon fill="#8ca8d8" stroke="#8ca8d8" stroke-width="2" points="856.8493,-509.1152 862.3,-500.03 852.3734,-503.7331 856.8493,-509.1152"/>
</g>
</g>
</svg>
