<?xml version="1.0" encoding="UTF-8" standalone="no"?>
<!DOCTYPE svg PUBLIC "-//W3C//DTD SVG 1.1//EN"
 "http://www.w3.org/Graphics/SVG/1.1/DTD/svg11.dtd">
<!-- Generated by graphviz version 2.40.1 (20161225.0304)
 -->
<!-- Pages: 1 -->
<svg
 viewBox="0.00 0.00 1448.00 420.00" xmlns="http://www.w3.org/2000/svg" xmlns:xlink="http://www.w3.org/1999/xlink">
<g id="graph0" class="graph" transform="scale(1 1) rotate(0) translate(4 416)">
<polygon fill="transparent" stroke="transparent" points="-4,4 -4,-416 1444,-416 1444,4 -4,4"/>
<g id="clust1" class="cluster">
<title>cluster_admm.ADMMConsensus</title>
<polygon fill="transparent" stroke="#8cd8c1" stroke-width="2" stroke-dasharray="1,5" points="786.5,-186 786.5,-256 965.5,-256 965.5,-186 786.5,-186"/>
<text text-anchor="middle" x="876" y="-244.8" font-family="Vera Sans, DejaVu Sans, Liberation Sans, Arial, Helvetica, sans" font-size="9.00" fill="#000000">admm.ADMMConsensus</text>
</g>
<g id="clust3" class="cluster">
<title>cluster_ccmodmd.ConvCnstrMODMaskDcpl_Consensus</title>
<polygon fill="transparent" stroke="#d88c8c" stroke-width="2" stroke-dasharray="1,5" points="181,-342 181,-412 1020,-412 1020,-342 181,-342"/>
<text text-anchor="middle" x="600.5" y="-400.8" font-family="Vera Sans, DejaVu Sans, Liberation Sans, Arial, Helvetica, sans" font-size="9.00" fill="#000000">ccmodmd.ConvCnstrMODMaskDcpl_Consensus</text>
</g>
<g id="clust2" class="cluster">
<title>cluster_admm.ADMM</title>
<polygon fill="transparent" stroke="#8ed88c" stroke-width="2" stroke-dasharray="1,5" points="1059.5,-78 1059.5,-256 1403.5,-256 1403.5,-78 1059.5,-78"/>
<text text-anchor="middle" x="1231.5" y="-244.8" font-family="Vera Sans, DejaVu Sans, Liberation Sans, Arial, Helvetica, sans" font-size="9.00" fill="#000000">admm.ADMM</text>
</g>
<g id="clust4" class="cluster">
<title>cluster_admm._ADMM_Meta</title>
<polygon fill="transparent" stroke="#8cbad8" stroke-width="2" stroke-dasharray="1,5" points="0,-342 0,-412 161,-412 161,-342 0,-342"/>
<text text-anchor="middle" x="80.5" y="-400.8" font-family="Vera Sans, DejaVu Sans, Liberation Sans, Arial, Helvetica, sans" font-size="9.00" fill="#000000">admm._ADMM_Meta</text>
</g>
<g id="clust5" class="cluster">
<title>cluster_ccmod.ConvRepIndexing</title>
<polygon fill="transparent" stroke="#ca8cd8" stroke-width="2" stroke-dasharray="1,5" points="786,-78 786,-148 966,-148 966,-78 786,-78"/>
<text text-anchor="middle" x="876" y="-136.8" font-family="Vera Sans, DejaVu Sans, Liberation Sans, Arial, Helvetica, sans" font-size="9.00" fill="#000000">ccmod.ConvRepIndexing</text>
</g>
<g id="clust6" class="cluster">
<title>cluster_ccmod.getPcn</title>
<polygon fill="transparent" stroke="#d88c8c" stroke-width="2" stroke-dasharray="1,5" points="826.5,0 826.5,-70 925.5,-70 925.5,0 826.5,0"/>
<text text-anchor="middle" x="876" y="-58.8" font-family="Vera Sans, DejaVu Sans, Liberation Sans, Arial, Helvetica, sans" font-size="9.00" fill="#000000">ccmod.getPcn</text>
</g>
<g id="clust7" class="cluster">
<title>cluster_ccmod.DictionarySize</title>
<polygon fill="transparent" stroke="#d88cb1" stroke-width="2" stroke-dasharray="1,5" points="1040,0 1040,-70 1206,-70 1206,0 1040,0"/>
<text text-anchor="middle" x="1123" y="-58.8" font-family="Vera Sans, DejaVu Sans, Liberation Sans, Arial, Helvetica, sans" font-size="9.00" fill="#000000">ccmod.DictionarySize</text>
</g>
<g id="clust8" class="cluster">
<title>cluster_ccmod.ConvCnstrMOD_Consensus</title>
<polygon fill="transparent" stroke="#948cd8" stroke-width="2" stroke-dasharray="1,5" points="486,-264 486,-334 1440,-334 1440,-264 486,-264"/>
<text text-anchor="middle" x="963" y="-322.8" font-family="Vera Sans, DejaVu Sans, Liberation Sans, Arial, Helvetica, sans" font-size="9.00" fill="#000000">ccmod.ConvCnstrMOD_Consensus</text>
</g>
<!-- admm.ADMMConsensus.__init__ -->
<g id="node1" class="node">
<title>admm.ADMMConsensus.__init__</title>
<g id="a_node1"><a xlink:href="../../sporco.admm.admm.html#sporco.admm.admm.ADMMConsensus.__init__" xlink:title="admm.ADMMConsensus.__init__" target="_top">
<path fill="#8cd8c1" stroke="#000000" stroke-width=".25" d="M945.5,-230C945.5,-230 806.5,-230 806.5,-230 800.5,-230 794.5,-224 794.5,-218 794.5,-218 794.5,-206 794.5,-206 794.5,-200 800.5,-194 806.5,-194 806.5,-194 945.5,-194 945.5,-194 951.5,-194 957.5,-200 957.5,-206 957.5,-206 957.5,-218 957.5,-218 957.5,-224 951.5,-230 945.5,-230"/>
<text text-anchor="middle" x="876" y="-209.8" font-family="Vera Sans, DejaVu Sans, Liberation Sans, Arial, Helvetica, sans" font-size="9.00" fill="#000000">admm.ADMMConsensus.__init__</text>
</a>
</g>
</g>
<!-- admm.ADMM.__init__ -->
<g id="node2" class="node">
<title>admm.ADMM.__init__</title>
<g id="a_node2"><a xlink:href="../../sporco.admm.admm.html#sporco.admm.admm.ADMM.__init__" xlink:title="admm.ADMM.__init__" target="_top">
<path fill="#8ed88c" stroke="#000000" stroke-width=".25" d="M1166.5,-230C1166.5,-230 1079.5,-230 1079.5,-230 1073.5,-230 1067.5,-224 1067.5,-218 1067.5,-218 1067.5,-206 1067.5,-206 1067.5,-200 1073.5,-194 1079.5,-194 1079.5,-194 1166.5,-194 1166.5,-194 1172.5,-194 1178.5,-200 1178.5,-206 1178.5,-206 1178.5,-218 1178.5,-218 1178.5,-224 1172.5,-230 1166.5,-230"/>
<text text-anchor="middle" x="1123" y="-209.8" font-family="Vera Sans, DejaVu Sans, Liberation Sans, Arial, Helvetica, sans" font-size="9.00" fill="#000000">admm.ADMM.__init__</text>
</a>
</g>
</g>
<!-- admm.ADMMConsensus.__init__&#45;&gt;admm.ADMM.__init__ -->
<g id="edge4" class="edge">
<title>admm.ADMMConsensus.__init__&#45;&gt;admm.ADMM.__init__</title>
<path fill="none" stroke="#8cd8c1" stroke-width="2" d="M957.56,-212C989.88,-212 1026.5,-212 1057.1,-212"/>
<polygon fill="#8cd8c1" stroke="#8cd8c1" stroke-width="2" points="1057.3,-215.5001 1067.3,-212 1057.3,-208.5001 1057.3,-215.5001"/>
</g>
<!-- admm.ADMM.yinit -->
<g id="node3" class="node">
<title>admm.ADMM.yinit</title>
<g id="a_node3"><a xlink:href="../../sporco.admm.admm.html#sporco.admm.admm.ADMM.yinit" xlink:title="admm.ADMM.yinit" target="_top">
<path fill="#8ed88c" stroke="#000000" stroke-width=".25" d="M1370,-230C1370,-230 1296,-230 1296,-230 1290,-230 1284,-224 1284,-218 1284,-218 1284,-206 1284,-206 1284,-200 1290,-194 1296,-194 1296,-194 1370,-194 1370,-194 1376,-194 1382,-200 1382,-206 1382,-206 1382,-218 1382,-218 1382,-224 1376,-230 1370,-230"/>
<text text-anchor="middle" x="1333" y="-209.8" font-family="Vera Sans, DejaVu Sans, Liberation Sans, Arial, Helvetica, sans" font-size="9.00" fill="#000000">admm.ADMM.yinit</text>
</a>
</g>
</g>
<!-- admm.ADMM.__init__&#45;&gt;admm.ADMM.yinit -->
<g id="edge1" class="edge">
<title>admm.ADMM.__init__&#45;&gt;admm.ADMM.yinit</title>
<path fill="none" stroke="#8ed88c" stroke-width="2" d="M1178.7,-212C1208,-212 1243.8,-212 1273.6,-212"/>
<polygon fill="#8ed88c" stroke="#8ed88c" stroke-width="2" points="1273.8,-215.5001 1283.8,-212 1273.8,-208.5001 1273.8,-215.5001"/>
</g>
<!-- admm.ADMM.set_attr -->
<g id="node4" class="node">
<title>admm.ADMM.set_attr</title>
<g id="a_node4"><a xlink:href="../../sporco.admm.admm.html#sporco.admm.admm.ADMM.set_attr" xlink:title="admm.ADMM.set_attr" target="_top">
<path fill="#8ed88c" stroke="#000000" stroke-width=".25" d="M1379,-122C1379,-122 1287,-122 1287,-122 1281,-122 1275,-116 1275,-110 1275,-110 1275,-98 1275,-98 1275,-92 1281,-86 1287,-86 1287,-86 1379,-86 1379,-86 1385,-86 1391,-92 1391,-98 1391,-98 1391,-110 1391,-110 1391,-116 1385,-122 1379,-122"/>
<text text-anchor="middle" x="1333" y="-101.8" font-family="Vera Sans, DejaVu Sans, Liberation Sans, Arial, Helvetica, sans" font-size="9.00" fill="#000000">admm.ADMM.set_attr</text>
</a>
</g>
</g>
<!-- admm.ADMM.__init__&#45;&gt;admm.ADMM.set_attr -->
<g id="edge2" class="edge">
<title>admm.ADMM.__init__&#45;&gt;admm.ADMM.set_attr</title>
<path fill="none" stroke="#8ed88c" stroke-width="2" d="M1178.7,-196.65C1188.4,-192.31 1198,-186.84 1206,-180 1225,-163.65 1214.2,-146.36 1234,-131 1243.1,-123.96 1253.9,-118.75 1265,-114.9"/>
<polygon fill="#8ed88c" stroke="#8ed88c" stroke-width="2" points="1266.2103,-118.1885 1274.7,-111.85 1264.1106,-111.5108 1266.2103,-118.1885"/>
</g>
<!-- admm.ADMM.set_dtype -->
<g id="node5" class="node">
<title>admm.ADMM.set_dtype</title>
<g id="a_node5"><a xlink:href="../../sporco.admm.admm.html#sporco.admm.admm.ADMM.set_dtype" xlink:title="admm.ADMM.set_dtype" target="_top">
<path fill="#8ed88c" stroke="#000000" stroke-width=".25" d="M1383.5,-176C1383.5,-176 1282.5,-176 1282.5,-176 1276.5,-176 1270.5,-170 1270.5,-164 1270.5,-164 1270.5,-152 1270.5,-152 1270.5,-146 1276.5,-140 1282.5,-140 1282.5,-140 1383.5,-140 1383.5,-140 1389.5,-140 1395.5,-146 1395.5,-152 1395.5,-152 1395.5,-164 1395.5,-164 1395.5,-170 1389.5,-176 1383.5,-176"/>
<text text-anchor="middle" x="1333" y="-155.8" font-family="Vera Sans, DejaVu Sans, Liberation Sans, Arial, Helvetica, sans" font-size="9.00" fill="#000000">admm.ADMM.set_dtype</text>
</a>
</g>
</g>
<!-- admm.ADMM.__init__&#45;&gt;admm.ADMM.set_dtype -->
<g id="edge3" class="edge">
<title>admm.ADMM.__init__&#45;&gt;admm.ADMM.set_dtype</title>
<path fill="none" stroke="#8ed88c" stroke-width="2" d="M1178.7,-197.67C1203.8,-191.21 1233.8,-183.51 1260.6,-176.61"/>
<polygon fill="#8ed88c" stroke="#8ed88c" stroke-width="2" points="1261.49,-179.9951 1270.3,-174.11 1259.7429,-173.2166 1261.49,-179.9951"/>
</g>
<!-- ccmod.ConvCnstrMOD_Consensus.uinit -->
<g id="node12" class="node">
<title>ccmod.ConvCnstrMOD_Consensus.uinit</title>
<g id="a_node12"><a xlink:href="../../sporco.admm.ccmod.html#sporco.admm.ccmod.ConvCnstrMOD_Consensus.uinit" xlink:title="ccmod.ConvCnstrMOD_Consensus.uinit" target="_top">
<path fill="#948cd8" stroke="#000000" stroke-width=".25" d="M1420,-308C1420,-308 1246,-308 1246,-308 1240,-308 1234,-302 1234,-296 1234,-296 1234,-284 1234,-284 1234,-278 1240,-272 1246,-272 1246,-272 1420,-272 1420,-272 1426,-272 1432,-278 1432,-284 1432,-284 1432,-296 1432,-296 1432,-302 1426,-308 1420,-308"/>
<text text-anchor="middle" x="1333" y="-287.8" font-family="Vera Sans, DejaVu Sans, Liberation Sans, Arial, Helvetica, sans" font-size="9.00" fill="#000000">ccmod.ConvCnstrMOD_Consensus.uinit</text>
</a>
</g>
</g>
<!-- admm.ADMM.__init__&#45;&gt;ccmod.ConvCnstrMOD_Consensus.uinit -->
<g id="edge6" class="edge">
<title>admm.ADMM.__init__&#45;&gt;ccmod.ConvCnstrMOD_Consensus.uinit</title>
<path fill="none" stroke="#8ed88c" stroke-width="2" d="M1161.9,-230.1C1183,-239.6 1209.7,-251.08 1234,-260 1242.3,-263.03 1251,-266 1259.7,-268.82"/>
<polygon fill="#8ed88c" stroke="#8ed88c" stroke-width="2" points="1258.9095,-272.2414 1269.5,-271.94 1261.033,-265.5712 1258.9095,-272.2414"/>
</g>
<!-- ccmodmd.ConvCnstrMODMaskDcpl_Consensus.__init__ -->
<g id="node6" class="node">
<title>ccmodmd.ConvCnstrMODMaskDcpl_Consensus.__init__</title>
<g id="a_node6"><a xlink:href="../../sporco.admm.ccmodmd.html#sporco.admm.ccmodmd.ConvCnstrMODMaskDcpl_Consensus.__init__" xlink:title="ccmodmd.ConvCnstrMODMaskDcpl_Consensus.__init__" target="_top">
<path fill="#d88c8c" stroke="#000000" stroke-width=".25" d="M446,-386C446,-386 201,-386 201,-386 195,-386 189,-380 189,-374 189,-374 189,-362 189,-362 189,-356 195,-350 201,-350 201,-350 446,-350 446,-350 452,-350 458,-356 458,-362 458,-362 458,-374 458,-374 458,-380 452,-386 446,-386"/>
<text text-anchor="middle" x="323.5" y="-365.8" font-family="Vera Sans, DejaVu Sans, Liberation Sans, Arial, Helvetica, sans" font-size="9.00" fill="#000000">ccmodmd.ConvCnstrMODMaskDcpl_Consensus.__init__</text>
</a>
</g>
</g>
<!-- ccmod.ConvCnstrMOD_Consensus.__init__ -->
<g id="node13" class="node">
<title>ccmod.ConvCnstrMOD_Consensus.__init__</title>
<g id="a_node13"><a xlink:href="../../sporco.admm.ccmod.html#sporco.admm.ccmod.ConvCnstrMOD_Consensus.__init__" xlink:title="ccmod.ConvCnstrMOD_Consensus.__init__" target="_top">
<path fill="#948cd8" stroke="#000000" stroke-width=".25" d="M692,-308C692,-308 506,-308 506,-308 500,-308 494,-302 494,-296 494,-296 494,-284 494,-284 494,-278 500,-272 506,-272 506,-272 692,-272 692,-272 698,-272 704,-278 704,-284 704,-284 704,-296 704,-296 704,-302 698,-308 692,-308"/>
<text text-anchor="middle" x="599" y="-287.8" font-family="Vera Sans, DejaVu Sans, Liberation Sans, Arial, Helvetica, sans" font-size="9.00" fill="#000000">ccmod.ConvCnstrMOD_Consensus.__init__</text>
</a>
</g>
</g>
<!-- ccmodmd.ConvCnstrMODMaskDcpl_Consensus.__init__&#45;&gt;ccmod.ConvCnstrMOD_Consensus.__init__ -->
<g id="edge8" class="edge">
<title>ccmodmd.ConvCnstrMODMaskDcpl_Consensus.__init__&#45;&gt;ccmod.ConvCnstrMOD_Consensus.__init__</title>
<path fill="none" stroke="#d88c8c" stroke-width="2" d="M387.4,-349.91C428.54,-338.26 482.17,-323.08 525.14,-310.91"/>
<polygon fill="#d88c8c" stroke="#d88c8c" stroke-width="2" points="526.2999,-314.2193 534.97,-308.13 524.3949,-307.4835 526.2999,-314.2193"/>
</g>
<!-- ccmodmd.ConvCnstrMODMaskDcpl_Consensus.setcoef -->
<g id="node7" class="node">
<title>ccmodmd.ConvCnstrMODMaskDcpl_Consensus.setcoef</title>
<g id="a_node7"><a xlink:href="../../sporco.admm.ccmodmd.html#sporco.admm.ccmodmd.ConvCnstrMODMaskDcpl_Consensus.setcoef" xlink:title="ccmodmd.ConvCnstrMODMaskDcpl_Consensus.setcoef" target="_top">
<path fill="#d88c8c" stroke="#000000" stroke-width=".25" d="M1000,-386C1000,-386 752,-386 752,-386 746,-386 740,-380 740,-374 740,-374 740,-362 740,-362 740,-356 746,-350 752,-350 752,-350 1000,-350 1000,-350 1006,-350 1012,-356 1012,-362 1012,-362 1012,-374 1012,-374 1012,-380 1006,-386 1000,-386"/>
<text text-anchor="middle" x="876" y="-365.8" font-family="Vera Sans, DejaVu Sans, Liberation Sans, Arial, Helvetica, sans" font-size="9.00" fill="#000000">ccmodmd.ConvCnstrMODMaskDcpl_Consensus.setcoef</text>
</a>
</g>
</g>
<!-- admm._ADMM_Meta.__call__ -->
<g id="node8" class="node">
<title>admm._ADMM_Meta.__call__</title>
<g id="a_node8"><a xlink:href="../../sporco.admm.admm.html#sporco.admm.admm._ADMM_Meta.__call__" xlink:title="admm._ADMM_Meta.__call__" target="_top">
<path fill="#8cbad8" stroke="#000000" stroke-width=".25" d="M141,-386C141,-386 20,-386 20,-386 14,-386 8,-380 8,-374 8,-374 8,-362 8,-362 8,-356 14,-350 20,-350 20,-350 141,-350 141,-350 147,-350 153,-356 153,-362 153,-362 153,-374 153,-374 153,-380 147,-386 141,-386"/>
<text text-anchor="middle" x="80.5" y="-365.8" font-family="Vera Sans, DejaVu Sans, Liberation Sans, Arial, Helvetica, sans" font-size="9.00" fill="#000000">admm._ADMM_Meta.__call__</text>
</a>
</g>
</g>
<!-- admm._ADMM_Meta.__call__&#45;&gt;ccmodmd.ConvCnstrMODMaskDcpl_Consensus.__init__ -->
<g id="edge5" class="edge">
<title>admm._ADMM_Meta.__call__&#45;&gt;ccmodmd.ConvCnstrMODMaskDcpl_Consensus.__init__</title>
<path fill="none" stroke="#8cbad8" stroke-width="2" d="M153.08,-368C161.22,-368 169.71,-368 178.38,-368"/>
<polygon fill="#8cbad8" stroke="#8cbad8" stroke-width="2" points="178.61,-371.5001 188.61,-368 178.61,-364.5001 178.61,-371.5001"/>
</g>
<!-- ccmod.ConvRepIndexing.__init__ -->
<g id="node9" class="node">
<title>ccmod.ConvRepIndexing.__init__</title>
<g id="a_node9"><a xlink:href="../../sporco.admm.ccmod.html#sporco.admm.ccmod.ConvRepIndexing.__init__" xlink:title="ccmod.ConvRepIndexing.__init__" target="_top">
<path fill="#ca8cd8" stroke="#000000" stroke-width=".25" d="M946,-122C946,-122 806,-122 806,-122 800,-122 794,-116 794,-110 794,-110 794,-98 794,-98 794,-92 800,-86 806,-86 806,-86 946,-86 946,-86 952,-86 958,-92 958,-98 958,-98 958,-110 958,-110 958,-116 952,-122 946,-122"/>
<text text-anchor="middle" x="876" y="-101.8" font-family="Vera Sans, DejaVu Sans, Liberation Sans, Arial, Helvetica, sans" font-size="9.00" fill="#000000">ccmod.ConvRepIndexing.__init__</text>
</a>
</g>
</g>
<!-- ccmod.DictionarySize.__init__ -->
<g id="node11" class="node">
<title>ccmod.DictionarySize.__init__</title>
<g id="a_node11"><a xlink:href="../../sporco.admm.ccmod.html#sporco.admm.ccmod.DictionarySize.__init__" xlink:title="ccmod.DictionarySize.__init__" target="_top">
<path fill="#d88cb1" stroke="#000000" stroke-width=".25" d="M1186,-44C1186,-44 1060,-44 1060,-44 1054,-44 1048,-38 1048,-32 1048,-32 1048,-20 1048,-20 1048,-14 1054,-8 1060,-8 1060,-8 1186,-8 1186,-8 1192,-8 1198,-14 1198,-20 1198,-20 1198,-32 1198,-32 1198,-38 1192,-44 1186,-44"/>
<text text-anchor="middle" x="1123" y="-23.8" font-family="Vera Sans, DejaVu Sans, Liberation Sans, Arial, Helvetica, sans" font-size="9.00" fill="#000000">ccmod.DictionarySize.__init__</text>
</a>
</g>
</g>
<!-- ccmod.ConvRepIndexing.__init__&#45;&gt;ccmod.DictionarySize.__init__ -->
<g id="edge7" class="edge">
<title>ccmod.ConvRepIndexing.__init__&#45;&gt;ccmod.DictionarySize.__init__</title>
<path fill="none" stroke="#ca8cd8" stroke-width="2" d="M958.35,-90.252C978.75,-85.919 1000.4,-80.521 1020,-74 1040.4,-67.22 1062.1,-57.512 1080.3,-48.598"/>
<polygon fill="#ca8cd8" stroke="#ca8cd8" stroke-width="2" points="1082.1005,-51.6117 1089.5,-44.029 1078.9869,-45.3423 1082.1005,-51.6117"/>
</g>
<!-- ccmod.getPcn -->
<g id="node10" class="node">
<title>ccmod.getPcn</title>
<g id="a_node10"><a xlink:href="../../sporco.admm.ccmod.html#sporco.admm.ccmod.getPcn" xlink:title="ccmod.getPcn" target="_top">
<path fill="#d88c8c" stroke="#000000" stroke-width=".25" d="M905.5,-44C905.5,-44 846.5,-44 846.5,-44 840.5,-44 834.5,-38 834.5,-32 834.5,-32 834.5,-20 834.5,-20 834.5,-14 840.5,-8 846.5,-8 846.5,-8 905.5,-8 905.5,-8 911.5,-8 917.5,-14 917.5,-20 917.5,-20 917.5,-32 917.5,-32 917.5,-38 911.5,-44 905.5,-44"/>
<text text-anchor="middle" x="876" y="-23.8" font-family="Vera Sans, DejaVu Sans, Liberation Sans, Arial, Helvetica, sans" font-size="9.00" fill="#000000">ccmod.getPcn</text>
</a>
</g>
</g>
<!-- ccmod.ConvCnstrMOD_Consensus.__init__&#45;&gt;admm.ADMMConsensus.__init__ -->
<g id="edge9" class="edge">
<title>ccmod.ConvCnstrMOD_Consensus.__init__&#45;&gt;admm.ADMMConsensus.__init__</title>
<path fill="none" stroke="#948cd8" stroke-width="2" d="M663.25,-271.91C704.61,-260.26 758.53,-245.08 801.73,-232.91"/>
<polygon fill="#948cd8" stroke="#948cd8" stroke-width="2" points="802.9402,-236.2055 811.62,-230.13 801.0459,-229.4667 802.9402,-236.2055"/>
</g>
<!-- ccmod.ConvCnstrMOD_Consensus.__init__&#45;&gt;admm.ADMM.set_attr -->
<g id="edge10" class="edge">
<title>ccmod.ConvCnstrMOD_Consensus.__init__&#45;&gt;admm.ADMM.set_attr</title>
<path fill="none" stroke="#948cd8" stroke-width="2" d="M616.1,-271.7C640.77,-246.63 689.03,-202.37 740,-182 856.22,-135.56 895.89,-168.16 1020,-152 1104.4,-141.01 1201.3,-125.75 1264.6,-115.41"/>
<polygon fill="#948cd8" stroke="#948cd8" stroke-width="2" points="1265.5018,-118.8087 1274.8,-113.73 1264.3641,-111.9018 1265.5018,-118.8087"/>
</g>
<!-- ccmod.ConvCnstrMOD_Consensus.__init__&#45;&gt;ccmodmd.ConvCnstrMODMaskDcpl_Consensus.setcoef -->
<g id="edge13" class="edge">
<title>ccmod.ConvCnstrMOD_Consensus.__init__&#45;&gt;ccmodmd.ConvCnstrMODMaskDcpl_Consensus.setcoef</title>
<path fill="none" stroke="#948cd8" stroke-width="2" d="M637.72,-308.03C665.62,-320.36 704.45,-336.19 740,-346 741.9,-346.52 743.82,-347.04 745.76,-347.54"/>
<polygon fill="#948cd8" stroke="#948cd8" stroke-width="2" points="745.0013,-350.9578 755.55,-349.97 746.6877,-344.164 745.0013,-350.9578"/>
</g>
<!-- ccmod.ConvCnstrMOD_Consensus.__init__&#45;&gt;ccmod.ConvRepIndexing.__init__ -->
<g id="edge11" class="edge">
<title>ccmod.ConvCnstrMOD_Consensus.__init__&#45;&gt;ccmod.ConvRepIndexing.__init__</title>
<path fill="none" stroke="#948cd8" stroke-width="2" d="M613.11,-271.77C636.53,-242.65 686.21,-185.5 740,-152 757.44,-141.14 777.68,-132.31 797.13,-125.32"/>
<polygon fill="#948cd8" stroke="#948cd8" stroke-width="2" points="798.2884,-128.6228 806.59,-122.04 795.9952,-122.0091 798.2884,-128.6228"/>
</g>
<!-- ccmod.ConvCnstrMOD_Consensus.__init__&#45;&gt;ccmod.getPcn -->
<g id="edge12" class="edge">
<title>ccmod.ConvCnstrMOD_Consensus.__init__&#45;&gt;ccmod.getPcn</title>
<path fill="none" stroke="#948cd8" stroke-width="2" d="M606.05,-271.77C622.89,-230.55 669.39,-129.47 740,-74 764.46,-54.783 797.21,-42.913 824.45,-35.785"/>
<polygon fill="#948cd8" stroke="#948cd8" stroke-width="2" points="825.3354,-39.1715 834.2,-33.369 823.6517,-32.377 825.3354,-39.1715"/>
</g>
</g>
</svg>
