<?xml version="1.0" encoding="UTF-8" standalone="no"?>
<!DOCTYPE svg PUBLIC "-//W3C//DTD SVG 1.1//EN"
 "http://www.w3.org/Graphics/SVG/1.1/DTD/svg11.dtd">
<!-- Generated by graphviz version 2.40.1 (20161225.0304)
 -->
<!-- Pages: 1 -->
<svg
 viewBox="0.00 0.00 1022.00 852.00" xmlns="http://www.w3.org/2000/svg" xmlns:xlink="http://www.w3.org/1999/xlink">
<g id="graph0" class="graph" transform="scale(1 1) rotate(0) translate(4 848)">
<polygon fill="transparent" stroke="transparent" points="-4,4 -4,-848 1018,-848 1018,4 -4,4"/>
<g id="clust1" class="cluster">
<title>cluster_ccmod.ConvCnstrMODBase</title>
<polygon fill="transparent" stroke="#d88cc3" stroke-width="2" stroke-dasharray="1,5" points="139,-720 139,-844 1014,-844 1014,-720 139,-720"/>
<text text-anchor="middle" x="576.5" y="-832.8" font-family="Vera Sans, DejaVu Sans, Liberation Sans, Arial, Helvetica, sans" font-size="9.00" fill="#000000">ccmod.ConvCnstrMODBase</text>
</g>
<g id="clust2" class="cluster">
<title>cluster_ccmod.ConvCnstrMOD_CG</title>
<polygon fill="transparent" stroke="#d88c8c" stroke-width="2" stroke-dasharray="1,5" points="142,-642 142,-712 558.5,-712 558.5,-642 142,-642"/>
<text text-anchor="middle" x="350.25" y="-700.8" font-family="Vera Sans, DejaVu Sans, Liberation Sans, Arial, Helvetica, sans" font-size="9.00" fill="#000000">ccmod.ConvCnstrMOD_CG</text>
</g>
<g id="clust3" class="cluster">
<title>cluster_admm.ADMM</title>
<polygon fill="transparent" stroke="#8ed88c" stroke-width="2" stroke-dasharray="1,5" points="0,-240 0,-634 323.5,-634 323.5,-240 0,-240"/>
<text text-anchor="middle" x="161.75" y="-622.8" font-family="Vera Sans, DejaVu Sans, Liberation Sans, Arial, Helvetica, sans" font-size="9.00" fill="#000000">admm.ADMM</text>
</g>
<g id="clust4" class="cluster">
<title>cluster_admm.ADMMEqual</title>
<polygon fill="transparent" stroke="#8ca8d8" stroke-width="2" stroke-dasharray="1,5" points="152.5,0 152.5,-232 994,-232 994,0 152.5,0"/>
<text text-anchor="middle" x="573.25" y="-220.8" font-family="Vera Sans, DejaVu Sans, Liberation Sans, Arial, Helvetica, sans" font-size="9.00" fill="#000000">admm.ADMMEqual</text>
</g>
<!-- ccmod.ConvCnstrMODBase.xstep_check -->
<g id="node1" class="node">
<title>ccmod.ConvCnstrMODBase.xstep_check</title>
<g id="a_node1"><a xlink:href="../../sporco.admm.ccmod.html#sporco.admm.ccmod.ConvCnstrMODBase.xstep_check" xlink:title="ccmod.ConvCnstrMODBase.xstep_check" target="_top">
<path fill="#d88cc3" stroke="#000000" stroke-width=".25" d="M544,-818C544,-818 365,-818 365,-818 359,-818 353,-812 353,-806 353,-806 353,-794 353,-794 353,-788 359,-782 365,-782 365,-782 544,-782 544,-782 550,-782 556,-788 556,-794 556,-794 556,-806 556,-806 556,-812 550,-818 544,-818"/>
<text text-anchor="middle" x="454.5" y="-797.8" font-family="Vera Sans, DejaVu Sans, Liberation Sans, Arial, Helvetica, sans" font-size="9.00" fill="#000000">ccmod.ConvCnstrMODBase.xstep_check</text>
</a>
</g>
</g>
<!-- ccmod.ConvCnstrMODBase.obfn_fvarf -->
<g id="node2" class="node">
<title>ccmod.ConvCnstrMODBase.obfn_fvarf</title>
<g id="a_node2"><a xlink:href="../../sporco.admm.ccmod.html#sporco.admm.ccmod.ConvCnstrMODBase.obfn_fvarf" xlink:title="ccmod.ConvCnstrMODBase.obfn_fvarf" target="_top">
<path fill="#d88cc3" stroke="#000000" stroke-width=".25" d="M994,-818C994,-818 827,-818 827,-818 821,-818 815,-812 815,-806 815,-806 815,-794 815,-794 815,-788 821,-782 827,-782 827,-782 994,-782 994,-782 1000,-782 1006,-788 1006,-794 1006,-794 1006,-806 1006,-806 1006,-812 1000,-818 994,-818"/>
<text text-anchor="middle" x="910.5" y="-797.8" font-family="Vera Sans, DejaVu Sans, Liberation Sans, Arial, Helvetica, sans" font-size="9.00" fill="#000000">ccmod.ConvCnstrMODBase.obfn_fvarf</text>
</a>
</g>
</g>
<!-- ccmod.ConvCnstrMODBase.ystep -->
<g id="node3" class="node">
<title>ccmod.ConvCnstrMODBase.ystep</title>
<g id="a_node3"><a xlink:href="../../sporco.admm.ccmod.html#sporco.admm.ccmod.ConvCnstrMODBase.ystep" xlink:title="ccmod.ConvCnstrMODBase.ystep" target="_top">
<path fill="#d88cc3" stroke="#000000" stroke-width=".25" d="M305,-764C305,-764 159,-764 159,-764 153,-764 147,-758 147,-752 147,-752 147,-740 147,-740 147,-734 153,-728 159,-728 159,-728 305,-728 305,-728 311,-728 317,-734 317,-740 317,-740 317,-752 317,-752 317,-758 311,-764 305,-764"/>
<text text-anchor="middle" x="232" y="-743.8" font-family="Vera Sans, DejaVu Sans, Liberation Sans, Arial, Helvetica, sans" font-size="9.00" fill="#000000">ccmod.ConvCnstrMODBase.ystep</text>
</a>
</g>
</g>
<!-- ccmod.ConvCnstrMODBase.obfn_dfd -->
<g id="node4" class="node">
<title>ccmod.ConvCnstrMODBase.obfn_dfd</title>
<g id="a_node4"><a xlink:href="../../sporco.admm.ccmod.html#sporco.admm.ccmod.ConvCnstrMODBase.obfn_dfd" xlink:title="ccmod.ConvCnstrMODBase.obfn_dfd" target="_top">
<path fill="#d88cc3" stroke="#000000" stroke-width=".25" d="M766,-818C766,-818 605,-818 605,-818 599,-818 593,-812 593,-806 593,-806 593,-794 593,-794 593,-788 599,-782 605,-782 605,-782 766,-782 766,-782 772,-782 778,-788 778,-794 778,-794 778,-806 778,-806 778,-812 772,-818 766,-818"/>
<text text-anchor="middle" x="685.5" y="-797.8" font-family="Vera Sans, DejaVu Sans, Liberation Sans, Arial, Helvetica, sans" font-size="9.00" fill="#000000">ccmod.ConvCnstrMODBase.obfn_dfd</text>
</a>
</g>
</g>
<!-- ccmod.ConvCnstrMODBase.obfn_dfd&#45;&gt;ccmod.ConvCnstrMODBase.obfn_fvarf -->
<g id="edge1" class="edge">
<title>ccmod.ConvCnstrMODBase.obfn_dfd&#45;&gt;ccmod.ConvCnstrMODBase.obfn_fvarf</title>
<path fill="none" stroke="#d88cc3" stroke-width="2" d="M778.32,-800C787.11,-800 796.07,-800 804.97,-800"/>
<polygon fill="#d88cc3" stroke="#d88cc3" stroke-width="2" points="804.99,-803.5001 814.99,-800 804.99,-796.5001 804.99,-803.5001"/>
</g>
<!-- ccmod.ConvCnstrMODBase.obfn_cns -->
<g id="node5" class="node">
<title>ccmod.ConvCnstrMODBase.obfn_cns</title>
<g id="a_node5"><a xlink:href="../../sporco.admm.ccmod.html#sporco.admm.ccmod.ConvCnstrMODBase.obfn_cns" xlink:title="ccmod.ConvCnstrMODBase.obfn_cns" target="_top">
<path fill="#d88cc3" stroke="#000000" stroke-width=".25" d="M767,-764C767,-764 604,-764 604,-764 598,-764 592,-758 592,-752 592,-752 592,-740 592,-740 592,-734 598,-728 604,-728 604,-728 767,-728 767,-728 773,-728 779,-734 779,-740 779,-740 779,-752 779,-752 779,-758 773,-764 767,-764"/>
<text text-anchor="middle" x="685.5" y="-743.8" font-family="Vera Sans, DejaVu Sans, Liberation Sans, Arial, Helvetica, sans" font-size="9.00" fill="#000000">ccmod.ConvCnstrMODBase.obfn_cns</text>
</a>
</g>
</g>
<!-- admm.ADMMEqual.obfn_gvar -->
<g id="node20" class="node">
<title>admm.ADMMEqual.obfn_gvar</title>
<g id="a_node20"><a xlink:href="../../sporco.admm.admm.html#sporco.admm.admm.ADMMEqual.obfn_gvar" xlink:title="admm.ADMMEqual.obfn_gvar" target="_top">
<path fill="#8ca8d8" stroke="#000000" stroke-width=".25" d="M974,-206C974,-206 847,-206 847,-206 841,-206 835,-200 835,-194 835,-194 835,-182 835,-182 835,-176 841,-170 847,-170 847,-170 974,-170 974,-170 980,-170 986,-176 986,-182 986,-182 986,-194 986,-194 986,-200 980,-206 974,-206"/>
<text text-anchor="middle" x="910.5" y="-185.8" font-family="Vera Sans, DejaVu Sans, Liberation Sans, Arial, Helvetica, sans" font-size="9.00" fill="#000000">admm.ADMMEqual.obfn_gvar</text>
</a>
</g>
</g>
<!-- ccmod.ConvCnstrMODBase.obfn_cns&#45;&gt;admm.ADMMEqual.obfn_gvar -->
<g id="edge23" class="edge">
<title>ccmod.ConvCnstrMODBase.obfn_cns&#45;&gt;admm.ADMMEqual.obfn_gvar</title>
<path fill="none" stroke="#d88cc3" stroke-width="2" d="M774.53,-727.98C776.08,-726.73 777.58,-725.41 779,-724 852.9,-650.8 896.03,-316.24 907.43,-216.28"/>
<polygon fill="#d88cc3" stroke="#d88cc3" stroke-width="2" points="910.9398,-216.3887 908.58,-206.06 903.9837,-215.6059 910.9398,-216.3887"/>
</g>
<!-- ccmod.ConvCnstrMODBase.eval_objfn -->
<g id="node6" class="node">
<title>ccmod.ConvCnstrMODBase.eval_objfn</title>
<g id="a_node6"><a xlink:href="../../sporco.admm.ccmod.html#sporco.admm.ccmod.ConvCnstrMODBase.eval_objfn" xlink:title="ccmod.ConvCnstrMODBase.eval_objfn" target="_top">
<path fill="#d88cc3" stroke="#000000" stroke-width=".25" d="M538,-764C538,-764 371,-764 371,-764 365,-764 359,-758 359,-752 359,-752 359,-740 359,-740 359,-734 365,-728 371,-728 371,-728 538,-728 538,-728 544,-728 550,-734 550,-740 550,-740 550,-752 550,-752 550,-758 544,-764 538,-764"/>
<text text-anchor="middle" x="454.5" y="-743.8" font-family="Vera Sans, DejaVu Sans, Liberation Sans, Arial, Helvetica, sans" font-size="9.00" fill="#000000">ccmod.ConvCnstrMODBase.eval_objfn</text>
</a>
</g>
</g>
<!-- ccmod.ConvCnstrMODBase.eval_objfn&#45;&gt;ccmod.ConvCnstrMODBase.obfn_dfd -->
<g id="edge2" class="edge">
<title>ccmod.ConvCnstrMODBase.eval_objfn&#45;&gt;ccmod.ConvCnstrMODBase.obfn_dfd</title>
<path fill="none" stroke="#d88cc3" stroke-width="2" d="M531.74,-764.06C553.12,-769.05 576.48,-774.51 598.38,-779.63"/>
<polygon fill="#d88cc3" stroke="#d88cc3" stroke-width="2" points="597.7954,-783.0877 608.33,-781.96 599.3914,-776.2721 597.7954,-783.0877"/>
</g>
<!-- ccmod.ConvCnstrMODBase.eval_objfn&#45;&gt;ccmod.ConvCnstrMODBase.obfn_cns -->
<g id="edge3" class="edge">
<title>ccmod.ConvCnstrMODBase.eval_objfn&#45;&gt;ccmod.ConvCnstrMODBase.obfn_cns</title>
<path fill="none" stroke="#d88cc3" stroke-width="2" d="M550.12,-746C560.56,-746 571.23,-746 581.76,-746"/>
<polygon fill="#d88cc3" stroke="#d88cc3" stroke-width="2" points="581.81,-749.5001 591.81,-746 581.81,-742.5001 581.81,-749.5001"/>
</g>
<!-- ccmod.ConvCnstrMOD_CG.itstat_extra -->
<g id="node7" class="node">
<title>ccmod.ConvCnstrMOD_CG.itstat_extra</title>
<g id="a_node7"><a xlink:href="../../sporco.admm.ccmod.html#sporco.admm.ccmod.ConvCnstrMOD_CG.itstat_extra" xlink:title="ccmod.ConvCnstrMOD_CG.itstat_extra" target="_top">
<path fill="#d88c8c" stroke="#000000" stroke-width=".25" d="M538.5,-686C538.5,-686 370.5,-686 370.5,-686 364.5,-686 358.5,-680 358.5,-674 358.5,-674 358.5,-662 358.5,-662 358.5,-656 364.5,-650 370.5,-650 370.5,-650 538.5,-650 538.5,-650 544.5,-650 550.5,-656 550.5,-662 550.5,-662 550.5,-674 550.5,-674 550.5,-680 544.5,-686 538.5,-686"/>
<text text-anchor="middle" x="454.5" y="-665.8" font-family="Vera Sans, DejaVu Sans, Liberation Sans, Arial, Helvetica, sans" font-size="9.00" fill="#000000">ccmod.ConvCnstrMOD_CG.itstat_extra</text>
</a>
</g>
</g>
<!-- ccmod.ConvCnstrMOD_CG.xstep -->
<g id="node8" class="node">
<title>ccmod.ConvCnstrMOD_CG.xstep</title>
<g id="a_node8"><a xlink:href="../../sporco.admm.ccmod.html#sporco.admm.ccmod.ConvCnstrMOD_CG.xstep" xlink:title="ccmod.ConvCnstrMOD_CG.xstep" target="_top">
<path fill="#d88c8c" stroke="#000000" stroke-width=".25" d="M302,-686C302,-686 162,-686 162,-686 156,-686 150,-680 150,-674 150,-674 150,-662 150,-662 150,-656 156,-650 162,-650 162,-650 302,-650 302,-650 308,-650 314,-656 314,-662 314,-662 314,-674 314,-674 314,-680 308,-686 302,-686"/>
<text text-anchor="middle" x="232" y="-665.8" font-family="Vera Sans, DejaVu Sans, Liberation Sans, Arial, Helvetica, sans" font-size="9.00" fill="#000000">ccmod.ConvCnstrMOD_CG.xstep</text>
</a>
</g>
</g>
<!-- ccmod.ConvCnstrMOD_CG.xstep&#45;&gt;ccmod.ConvCnstrMODBase.xstep_check -->
<g id="edge22" class="edge">
<title>ccmod.ConvCnstrMOD_CG.xstep&#45;&gt;ccmod.ConvCnstrMODBase.xstep_check</title>
<path fill="none" stroke="#d88c8c" stroke-width="2" d="M279.37,-686.04C294.79,-693.58 311.1,-703.53 323.5,-716 343.61,-736.23 330.76,-755.14 353,-773 354.55,-774.24 356.14,-775.43 357.79,-776.56"/>
<polygon fill="#d88c8c" stroke="#d88c8c" stroke-width="2" points="355.9792,-779.5552 366.34,-781.77 359.6218,-773.5775 355.9792,-779.5552"/>
</g>
<!-- admm.ADMM.iteration_stats -->
<g id="node9" class="node">
<title>admm.ADMM.iteration_stats</title>
<g id="a_node9"><a xlink:href="../../sporco.admm.admm.html#sporco.admm.admm.ADMM.iteration_stats" xlink:title="admm.ADMM.iteration_stats" target="_top">
<path fill="#8ed88c" stroke="#000000" stroke-width=".25" d="M293.5,-392C293.5,-392 170.5,-392 170.5,-392 164.5,-392 158.5,-386 158.5,-380 158.5,-380 158.5,-368 158.5,-368 158.5,-362 164.5,-356 170.5,-356 170.5,-356 293.5,-356 293.5,-356 299.5,-356 305.5,-362 305.5,-368 305.5,-368 305.5,-380 305.5,-380 305.5,-386 299.5,-392 293.5,-392"/>
<text text-anchor="middle" x="232" y="-371.8" font-family="Vera Sans, DejaVu Sans, Liberation Sans, Arial, Helvetica, sans" font-size="9.00" fill="#000000">admm.ADMM.iteration_stats</text>
</a>
</g>
</g>
<!-- admm.ADMM.iteration_stats&#45;&gt;ccmod.ConvCnstrMODBase.eval_objfn -->
<g id="edge12" class="edge">
<title>admm.ADMM.iteration_stats&#45;&gt;ccmod.ConvCnstrMODBase.eval_objfn</title>
<path fill="none" stroke="#8ed88c" stroke-width="2" d="M305.93,-386.82C312.6,-390.48 318.66,-395.12 323.5,-401 368.18,-455.29 308.33,-661.7 353,-716 354.52,-717.84 356.14,-719.58 357.86,-721.21"/>
<polygon fill="#8ed88c" stroke="#8ed88c" stroke-width="2" points="355.9571,-724.1715 365.94,-727.72 360.3489,-718.7206 355.9571,-724.1715"/>
</g>
<!-- admm.ADMM.iteration_stats&#45;&gt;ccmod.ConvCnstrMOD_CG.itstat_extra -->
<g id="edge11" class="edge">
<title>admm.ADMM.iteration_stats&#45;&gt;ccmod.ConvCnstrMOD_CG.itstat_extra</title>
<path fill="none" stroke="#8ed88c" stroke-width="2" d="M305.77,-389.65C312.15,-392.77 318.18,-396.51 323.5,-401 400.09,-465.61 435.84,-585.7 448.65,-640.02"/>
<polygon fill="#8ed88c" stroke="#8ed88c" stroke-width="2" points="445.2833,-640.999 450.92,-649.97 452.108,-639.442 445.2833,-640.999"/>
</g>
<!-- admm.ADMM.ustep -->
<g id="node10" class="node">
<title>admm.ADMM.ustep</title>
<g id="a_node10"><a xlink:href="../../sporco.admm.admm.html#sporco.admm.admm.ADMM.ustep" xlink:title="admm.ADMM.ustep" target="_top">
<path fill="#8ed88c" stroke="#000000" stroke-width=".25" d="M273,-284C273,-284 191,-284 191,-284 185,-284 179,-278 179,-272 179,-272 179,-260 179,-260 179,-254 185,-248 191,-248 191,-248 273,-248 273,-248 279,-248 285,-254 285,-260 285,-260 285,-272 285,-272 285,-278 279,-284 273,-284"/>
<text text-anchor="middle" x="232" y="-263.8" font-family="Vera Sans, DejaVu Sans, Liberation Sans, Arial, Helvetica, sans" font-size="9.00" fill="#000000">admm.ADMM.ustep</text>
</a>
</g>
</g>
<!-- admm.ADMMEqual.rsdl_r -->
<g id="node18" class="node">
<title>admm.ADMMEqual.rsdl_r</title>
<g id="a_node18"><a xlink:href="../../sporco.admm.admm.html#sporco.admm.admm.ADMMEqual.rsdl_r" xlink:title="admm.ADMMEqual.rsdl_r" target="_top">
<path fill="#8ca8d8" stroke="#000000" stroke-width=".25" d="M508,-44C508,-44 401,-44 401,-44 395,-44 389,-38 389,-32 389,-32 389,-20 389,-20 389,-14 395,-8 401,-8 401,-8 508,-8 508,-8 514,-8 520,-14 520,-20 520,-20 520,-32 520,-32 520,-38 514,-44 508,-44"/>
<text text-anchor="middle" x="454.5" y="-23.8" font-family="Vera Sans, DejaVu Sans, Liberation Sans, Arial, Helvetica, sans" font-size="9.00" fill="#000000">admm.ADMMEqual.rsdl_r</text>
</a>
</g>
</g>
<!-- admm.ADMM.ustep&#45;&gt;admm.ADMMEqual.rsdl_r -->
<g id="edge13" class="edge">
<title>admm.ADMM.ustep&#45;&gt;admm.ADMMEqual.rsdl_r</title>
<path fill="none" stroke="#8ed88c" stroke-width="2" d="M285.2,-258.95C299.52,-254.54 313.73,-247.44 323.5,-236 377.01,-173.36 297.74,-114.1 353,-53 360.14,-45.109 369.29,-39.413 379.18,-35.32"/>
<polygon fill="#8ed88c" stroke="#8ed88c" stroke-width="2" points="380.6004,-38.5293 388.84,-31.869 378.2454,-31.9373 380.6004,-38.5293"/>
</g>
<!-- admm.ADMM.compute_residuals -->
<g id="node11" class="node">
<title>admm.ADMM.compute_residuals</title>
<g id="a_node11"><a xlink:href="../../sporco.admm.admm.html#sporco.admm.admm.ADMM.compute_residuals" xlink:title="admm.ADMM.compute_residuals" target="_top">
<path fill="#8ed88c" stroke="#000000" stroke-width=".25" d="M303.5,-338C303.5,-338 160.5,-338 160.5,-338 154.5,-338 148.5,-332 148.5,-326 148.5,-326 148.5,-314 148.5,-314 148.5,-308 154.5,-302 160.5,-302 160.5,-302 303.5,-302 303.5,-302 309.5,-302 315.5,-308 315.5,-314 315.5,-314 315.5,-326 315.5,-326 315.5,-332 309.5,-338 303.5,-338"/>
<text text-anchor="middle" x="232" y="-317.8" font-family="Vera Sans, DejaVu Sans, Liberation Sans, Arial, Helvetica, sans" font-size="9.00" fill="#000000">admm.ADMM.compute_residuals</text>
</a>
</g>
</g>
<!-- admm.ADMMEqual.rsdl_s -->
<g id="node17" class="node">
<title>admm.ADMMEqual.rsdl_s</title>
<g id="a_node17"><a xlink:href="../../sporco.admm.admm.html#sporco.admm.admm.ADMMEqual.rsdl_s" xlink:title="admm.ADMMEqual.rsdl_s" target="_top">
<path fill="#8ca8d8" stroke="#000000" stroke-width=".25" d="M508.5,-98C508.5,-98 400.5,-98 400.5,-98 394.5,-98 388.5,-92 388.5,-86 388.5,-86 388.5,-74 388.5,-74 388.5,-68 394.5,-62 400.5,-62 400.5,-62 508.5,-62 508.5,-62 514.5,-62 520.5,-68 520.5,-74 520.5,-74 520.5,-86 520.5,-86 520.5,-92 514.5,-98 508.5,-98"/>
<text text-anchor="middle" x="454.5" y="-77.8" font-family="Vera Sans, DejaVu Sans, Liberation Sans, Arial, Helvetica, sans" font-size="9.00" fill="#000000">admm.ADMMEqual.rsdl_s</text>
</a>
</g>
</g>
<!-- admm.ADMM.compute_residuals&#45;&gt;admm.ADMMEqual.rsdl_s -->
<g id="edge14" class="edge">
<title>admm.ADMM.compute_residuals&#45;&gt;admm.ADMMEqual.rsdl_s</title>
<path fill="none" stroke="#8ed88c" stroke-width="2" d="M313.58,-301.9C317.2,-299.31 320.55,-296.36 323.5,-293 378.73,-230.11 296.93,-169.14 353,-107 360.03,-99.2 369.04,-93.55 378.78,-89.465"/>
<polygon fill="#8ed88c" stroke="#8ed88c" stroke-width="2" points="380.0837,-92.7153 388.29,-86.014 377.6959,-86.1351 380.0837,-92.7153"/>
</g>
<!-- admm.ADMM.compute_residuals&#45;&gt;admm.ADMMEqual.rsdl_r -->
<g id="edge15" class="edge">
<title>admm.ADMM.compute_residuals&#45;&gt;admm.ADMMEqual.rsdl_r</title>
<path fill="none" stroke="#8ed88c" stroke-width="2" d="M314.12,-301.73C317.55,-299.18 320.72,-296.29 323.5,-293 392.99,-211.02 282.42,-134.04 353,-53 360.03,-44.925 369.18,-39.133 379.1,-35.003"/>
<polygon fill="#8ed88c" stroke="#8ed88c" stroke-width="2" points="380.5717,-38.1939 388.81,-31.532 378.2154,-31.6024 380.5717,-38.1939"/>
</g>
<!-- admm.ADMMEqual.rsdl_rn -->
<g id="node21" class="node">
<title>admm.ADMMEqual.rsdl_rn</title>
<g id="a_node21"><a xlink:href="../../sporco.admm.admm.html#sporco.admm.admm.ADMMEqual.rsdl_rn" xlink:title="admm.ADMMEqual.rsdl_rn" target="_top">
<path fill="#8ca8d8" stroke="#000000" stroke-width=".25" d="M511,-206C511,-206 398,-206 398,-206 392,-206 386,-200 386,-194 386,-194 386,-182 386,-182 386,-176 392,-170 398,-170 398,-170 511,-170 511,-170 517,-170 523,-176 523,-182 523,-182 523,-194 523,-194 523,-200 517,-206 511,-206"/>
<text text-anchor="middle" x="454.5" y="-185.8" font-family="Vera Sans, DejaVu Sans, Liberation Sans, Arial, Helvetica, sans" font-size="9.00" fill="#000000">admm.ADMMEqual.rsdl_rn</text>
</a>
</g>
</g>
<!-- admm.ADMM.compute_residuals&#45;&gt;admm.ADMMEqual.rsdl_rn -->
<g id="edge16" class="edge">
<title>admm.ADMM.compute_residuals&#45;&gt;admm.ADMMEqual.rsdl_rn</title>
<path fill="none" stroke="#8ed88c" stroke-width="2" d="M303.51,-301.88C310.41,-299.25 317.19,-296.3 323.5,-293 364.24,-271.72 404.49,-236.82 429.4,-213.15"/>
<polygon fill="#8ed88c" stroke="#8ed88c" stroke-width="2" points="431.853,-215.6468 436.63,-206.19 426.9983,-210.6038 431.853,-215.6468"/>
</g>
<!-- admm.ADMMEqual.rsdl_sn -->
<g id="node22" class="node">
<title>admm.ADMMEqual.rsdl_sn</title>
<g id="a_node22"><a xlink:href="../../sporco.admm.admm.html#sporco.admm.admm.ADMMEqual.rsdl_sn" xlink:title="admm.ADMMEqual.rsdl_sn" target="_top">
<path fill="#8ca8d8" stroke="#000000" stroke-width=".25" d="M511.5,-152C511.5,-152 397.5,-152 397.5,-152 391.5,-152 385.5,-146 385.5,-140 385.5,-140 385.5,-128 385.5,-128 385.5,-122 391.5,-116 397.5,-116 397.5,-116 511.5,-116 511.5,-116 517.5,-116 523.5,-122 523.5,-128 523.5,-128 523.5,-140 523.5,-140 523.5,-146 517.5,-152 511.5,-152"/>
<text text-anchor="middle" x="454.5" y="-131.8" font-family="Vera Sans, DejaVu Sans, Liberation Sans, Arial, Helvetica, sans" font-size="9.00" fill="#000000">admm.ADMMEqual.rsdl_sn</text>
</a>
</g>
</g>
<!-- admm.ADMM.compute_residuals&#45;&gt;admm.ADMMEqual.rsdl_sn -->
<g id="edge17" class="edge">
<title>admm.ADMM.compute_residuals&#45;&gt;admm.ADMMEqual.rsdl_sn</title>
<path fill="none" stroke="#8ed88c" stroke-width="2" d="M312.92,-301.96C316.76,-299.36 320.33,-296.39 323.5,-293 364.56,-249.09 311.35,-204.35 353,-161 359.45,-154.29 367.36,-149.18 375.89,-145.3"/>
<polygon fill="#8ed88c" stroke="#8ed88c" stroke-width="2" points="377.3447,-148.4886 385.36,-141.56 374.7734,-141.978 377.3447,-148.4886"/>
</g>
<!-- admm.ADMM.display_status -->
<g id="node12" class="node">
<title>admm.ADMM.display_status</title>
<g id="a_node12"><a xlink:href="../../sporco.admm.admm.html#sporco.admm.admm.ADMM.display_status" xlink:title="admm.ADMM.display_status" target="_top">
<path fill="#8ed88c" stroke="#000000" stroke-width=".25" d="M293,-446C293,-446 171,-446 171,-446 165,-446 159,-440 159,-434 159,-434 159,-422 159,-422 159,-416 165,-410 171,-410 171,-410 293,-410 293,-410 299,-410 305,-416 305,-422 305,-422 305,-434 305,-434 305,-440 299,-446 293,-446"/>
<text text-anchor="middle" x="232" y="-425.8" font-family="Vera Sans, DejaVu Sans, Liberation Sans, Arial, Helvetica, sans" font-size="9.00" fill="#000000">admm.ADMM.display_status</text>
</a>
</g>
</g>
<!-- admm.ADMM.display_start -->
<g id="node13" class="node">
<title>admm.ADMM.display_start</title>
<g id="a_node13"><a xlink:href="../../sporco.admm.admm.html#sporco.admm.admm.ADMM.display_start" xlink:title="admm.ADMM.display_start" target="_top">
<path fill="#8ed88c" stroke="#000000" stroke-width=".25" d="M289,-500C289,-500 175,-500 175,-500 169,-500 163,-494 163,-488 163,-488 163,-476 163,-476 163,-470 169,-464 175,-464 175,-464 289,-464 289,-464 295,-464 301,-470 301,-476 301,-476 301,-488 301,-488 301,-494 295,-500 289,-500"/>
<text text-anchor="middle" x="232" y="-479.8" font-family="Vera Sans, DejaVu Sans, Liberation Sans, Arial, Helvetica, sans" font-size="9.00" fill="#000000">admm.ADMM.display_start</text>
</a>
</g>
</g>
<!-- admm.ADMM.update_rho -->
<g id="node14" class="node">
<title>admm.ADMM.update_rho</title>
<g id="a_node14"><a xlink:href="../../sporco.admm.admm.html#sporco.admm.admm.ADMM.update_rho" xlink:title="admm.ADMM.update_rho" target="_top">
<path fill="#8ed88c" stroke="#000000" stroke-width=".25" d="M286.5,-554C286.5,-554 177.5,-554 177.5,-554 171.5,-554 165.5,-548 165.5,-542 165.5,-542 165.5,-530 165.5,-530 165.5,-524 171.5,-518 177.5,-518 177.5,-518 286.5,-518 286.5,-518 292.5,-518 298.5,-524 298.5,-530 298.5,-530 298.5,-542 298.5,-542 298.5,-548 292.5,-554 286.5,-554"/>
<text text-anchor="middle" x="232" y="-533.8" font-family="Vera Sans, DejaVu Sans, Liberation Sans, Arial, Helvetica, sans" font-size="9.00" fill="#000000">admm.ADMM.update_rho</text>
</a>
</g>
</g>
<!-- admm.ADMM.display_end -->
<g id="node15" class="node">
<title>admm.ADMM.display_end</title>
<g id="a_node15"><a xlink:href="../../sporco.admm.admm.html#sporco.admm.admm.ADMM.display_end" xlink:title="admm.ADMM.display_end" target="_top">
<path fill="#8ed88c" stroke="#000000" stroke-width=".25" d="M287,-608C287,-608 177,-608 177,-608 171,-608 165,-602 165,-596 165,-596 165,-584 165,-584 165,-578 171,-572 177,-572 177,-572 287,-572 287,-572 293,-572 299,-578 299,-584 299,-584 299,-596 299,-596 299,-602 293,-608 287,-608"/>
<text text-anchor="middle" x="232" y="-587.8" font-family="Vera Sans, DejaVu Sans, Liberation Sans, Arial, Helvetica, sans" font-size="9.00" fill="#000000">admm.ADMM.display_end</text>
</a>
</g>
</g>
<!-- admm.ADMM.solve -->
<g id="node16" class="node">
<title>admm.ADMM.solve</title>
<g id="a_node16"><a xlink:href="../../sporco.admm.admm.html#sporco.admm.admm.ADMM.solve" xlink:title="admm.ADMM.solve" target="_top">
<path fill="#8ed88c" stroke="#000000" stroke-width=".25" d="M99,-446C99,-446 20,-446 20,-446 14,-446 8,-440 8,-434 8,-434 8,-422 8,-422 8,-416 14,-410 20,-410 20,-410 99,-410 99,-410 105,-410 111,-416 111,-422 111,-422 111,-434 111,-434 111,-440 105,-446 99,-446"/>
<text text-anchor="middle" x="59.5" y="-425.8" font-family="Vera Sans, DejaVu Sans, Liberation Sans, Arial, Helvetica, sans" font-size="9.00" fill="#000000">admm.ADMM.solve</text>
</a>
</g>
</g>
<!-- admm.ADMM.solve&#45;&gt;ccmod.ConvCnstrMODBase.ystep -->
<g id="edge21" class="edge">
<title>admm.ADMM.solve&#45;&gt;ccmod.ConvCnstrMODBase.ystep</title>
<path fill="none" stroke="#8ed88c" stroke-width="2" d="M62.241,-446.27C71.125,-503.23 100.78,-676.11 139,-716 141.09,-718.18 143.34,-720.21 145.72,-722.08"/>
<polygon fill="#8ed88c" stroke="#8ed88c" stroke-width="2" points="144.0106,-725.1513 154.24,-727.91 147.9637,-719.3743 144.0106,-725.1513"/>
</g>
<!-- admm.ADMM.solve&#45;&gt;ccmod.ConvCnstrMOD_CG.xstep -->
<g id="edge20" class="edge">
<title>admm.ADMM.solve&#45;&gt;ccmod.ConvCnstrMOD_CG.xstep</title>
<path fill="none" stroke="#8ed88c" stroke-width="2" d="M61.139,-446.04C65.764,-486.32 82.512,-584.26 139,-638 141.46,-640.34 144.1,-642.5 146.88,-644.48"/>
<polygon fill="#8ed88c" stroke="#8ed88c" stroke-width="2" points="145.2708,-647.6024 155.6,-649.96 148.9955,-641.6756 145.2708,-647.6024"/>
</g>
<!-- admm.ADMM.solve&#45;&gt;admm.ADMM.iteration_stats -->
<g id="edge4" class="edge">
<title>admm.ADMM.solve&#45;&gt;admm.ADMM.iteration_stats</title>
<path fill="none" stroke="#8ed88c" stroke-width="2" d="M111.13,-410.09C120.39,-406.99 129.96,-403.84 139,-401 145.36,-399 151.98,-396.97 158.62,-394.97"/>
<polygon fill="#8ed88c" stroke="#8ed88c" stroke-width="2" points="159.7663,-398.2806 168.35,-392.07 157.7669,-391.5722 159.7663,-398.2806"/>
</g>
<!-- admm.ADMM.solve&#45;&gt;admm.ADMM.ustep -->
<g id="edge5" class="edge">
<title>admm.ADMM.solve&#45;&gt;admm.ADMM.ustep</title>
<path fill="none" stroke="#8ed88c" stroke-width="2" d="M65.284,-409.73C75.443,-380.63 99.27,-323.87 139,-293 147.74,-286.21 158.14,-281.12 168.76,-277.32"/>
<polygon fill="#8ed88c" stroke="#8ed88c" stroke-width="2" points="170.0946,-280.5673 178.54,-274.17 167.9485,-273.9044 170.0946,-280.5673"/>
</g>
<!-- admm.ADMM.solve&#45;&gt;admm.ADMM.compute_residuals -->
<g id="edge6" class="edge">
<title>admm.ADMM.solve&#45;&gt;admm.ADMM.compute_residuals</title>
<path fill="none" stroke="#8ed88c" stroke-width="2" d="M72.702,-409.88C87.042,-391.46 111.6,-363.37 139,-347 141.81,-345.32 144.74,-343.74 147.74,-342.25"/>
<polygon fill="#8ed88c" stroke="#8ed88c" stroke-width="2" points="149.2971,-345.3869 156.95,-338.06 146.3983,-339.0153 149.2971,-345.3869"/>
</g>
<!-- admm.ADMM.solve&#45;&gt;admm.ADMM.display_status -->
<g id="edge7" class="edge">
<title>admm.ADMM.solve&#45;&gt;admm.ADMM.display_status</title>
<path fill="none" stroke="#8ed88c" stroke-width="2" d="M111.26,-428C123.08,-428 135.94,-428 148.71,-428"/>
<polygon fill="#8ed88c" stroke="#8ed88c" stroke-width="2" points="148.92,-431.5001 158.92,-428 148.92,-424.5001 148.92,-431.5001"/>
</g>
<!-- admm.ADMM.solve&#45;&gt;admm.ADMM.display_start -->
<g id="edge8" class="edge">
<title>admm.ADMM.solve&#45;&gt;admm.ADMM.display_start</title>
<path fill="none" stroke="#8ed88c" stroke-width="2" d="M111.13,-445.91C120.39,-449.01 129.96,-452.16 139,-455 145.36,-457 151.98,-459.03 158.62,-461.03"/>
<polygon fill="#8ed88c" stroke="#8ed88c" stroke-width="2" points="157.7669,-464.4278 168.35,-463.93 159.7663,-457.7194 157.7669,-464.4278"/>
</g>
<!-- admm.ADMM.solve&#45;&gt;admm.ADMM.update_rho -->
<g id="edge9" class="edge">
<title>admm.ADMM.solve&#45;&gt;admm.ADMM.update_rho</title>
<path fill="none" stroke="#8ed88c" stroke-width="2" d="M72.702,-446.12C87.042,-464.54 111.6,-492.63 139,-509 144.3,-512.17 150,-514.99 155.87,-517.48"/>
<polygon fill="#8ed88c" stroke="#8ed88c" stroke-width="2" points="154.6128,-520.7465 165.2,-521.15 157.1753,-514.2323 154.6128,-520.7465"/>
</g>
<!-- admm.ADMM.solve&#45;&gt;admm.ADMM.display_end -->
<g id="edge10" class="edge">
<title>admm.ADMM.solve&#45;&gt;admm.ADMM.display_end</title>
<path fill="none" stroke="#8ed88c" stroke-width="2" d="M65.284,-446.27C75.443,-475.37 99.27,-532.13 139,-563 144.05,-566.93 149.66,-570.28 155.54,-573.15"/>
<polygon fill="#8ed88c" stroke="#8ed88c" stroke-width="2" points="154.4148,-576.4777 164.98,-577.27 157.2149,-570.0621 154.4148,-576.4777"/>
</g>
<!-- admm.ADMMEqual.relax_AX -->
<g id="node19" class="node">
<title>admm.ADMMEqual.relax_AX</title>
<g id="a_node19"><a xlink:href="../../sporco.admm.admm.html#sporco.admm.admm.ADMMEqual.relax_AX" xlink:title="admm.ADMMEqual.relax_AX" target="_top">
<path fill="#8ca8d8" stroke="#000000" stroke-width=".25" d="M291.5,-206C291.5,-206 172.5,-206 172.5,-206 166.5,-206 160.5,-200 160.5,-194 160.5,-194 160.5,-182 160.5,-182 160.5,-176 166.5,-170 172.5,-170 172.5,-170 291.5,-170 291.5,-170 297.5,-170 303.5,-176 303.5,-182 303.5,-182 303.5,-194 303.5,-194 303.5,-200 297.5,-206 291.5,-206"/>
<text text-anchor="middle" x="232" y="-185.8" font-family="Vera Sans, DejaVu Sans, Liberation Sans, Arial, Helvetica, sans" font-size="9.00" fill="#000000">admm.ADMMEqual.relax_AX</text>
</a>
</g>
</g>
<!-- admm.ADMM.solve&#45;&gt;admm.ADMMEqual.relax_AX -->
<g id="edge18" class="edge">
<title>admm.ADMM.solve&#45;&gt;admm.ADMMEqual.relax_AX</title>
<path fill="none" stroke="#8ed88c" stroke-width="2" d="M62.667,-409.88C69.964,-372.95 91.14,-288.05 139,-236 148.3,-225.88 160.23,-217.55 172.41,-210.84"/>
<polygon fill="#8ed88c" stroke="#8ed88c" stroke-width="2" points="174.0338,-213.9406 181.3,-206.23 170.8114,-207.7264 174.0338,-213.9406"/>
</g>
<!-- admm.ADMMEqual.getmin -->
<g id="node23" class="node">
<title>admm.ADMMEqual.getmin</title>
<g id="a_node23"><a xlink:href="../../sporco.admm.admm.html#sporco.admm.admm.ADMMEqual.getmin" xlink:title="admm.ADMMEqual.getmin" target="_top">
<path fill="#8ca8d8" stroke="#000000" stroke-width=".25" d="M288.5,-152C288.5,-152 175.5,-152 175.5,-152 169.5,-152 163.5,-146 163.5,-140 163.5,-140 163.5,-128 163.5,-128 163.5,-122 169.5,-116 175.5,-116 175.5,-116 288.5,-116 288.5,-116 294.5,-116 300.5,-122 300.5,-128 300.5,-128 300.5,-140 300.5,-140 300.5,-146 294.5,-152 288.5,-152"/>
<text text-anchor="middle" x="232" y="-131.8" font-family="Vera Sans, DejaVu Sans, Liberation Sans, Arial, Helvetica, sans" font-size="9.00" fill="#000000">admm.ADMMEqual.getmin</text>
</a>
</g>
</g>
<!-- admm.ADMM.solve&#45;&gt;admm.ADMMEqual.getmin -->
<g id="edge19" class="edge">
<title>admm.ADMM.solve&#45;&gt;admm.ADMMEqual.getmin</title>
<path fill="none" stroke="#8ed88c" stroke-width="2" d="M62.582,-409.87C72.12,-355.77 102.71,-197.04 139,-161 143.36,-156.67 148.36,-153.03 153.74,-149.97"/>
<polygon fill="#8ed88c" stroke="#8ed88c" stroke-width="2" points="155.6885,-152.911 163.1,-145.34 152.5848,-146.6367 155.6885,-152.911"/>
</g>
</g>
</svg>
