<?xml version="1.0" encoding="UTF-8" standalone="no"?>
<!DOCTYPE svg PUBLIC "-//W3C//DTD SVG 1.1//EN"
 "http://www.w3.org/Graphics/SVG/1.1/DTD/svg11.dtd">
<!-- Generated by graphviz version 2.40.1 (20161225.0304)
 -->
<!-- Pages: 1 -->
<svg
 viewBox="0.00 0.00 1444.00 342.00" xmlns="http://www.w3.org/2000/svg" xmlns:xlink="http://www.w3.org/1999/xlink">
<g id="graph0" class="graph" transform="scale(1 1) rotate(0) translate(4 338)">
<polygon fill="transparent" stroke="transparent" points="-4,4 -4,-338 1440,-338 1440,4 -4,4"/>
<g id="clust1" class="cluster">
<title>cluster_admm.ADMMTwoBlockCnstrnt</title>
<polygon fill="transparent" stroke="#8cd8c1" stroke-width="2" stroke-dasharray="1,5" points="761,-186 761,-256 964,-256 964,-186 761,-186"/>
<text text-anchor="middle" x="862.5" y="-244.8" font-family="Vera Sans, DejaVu Sans, Liberation Sans, Arial, Helvetica, sans" font-size="9.00" fill="#000000">admm.ADMMTwoBlockCnstrnt</text>
</g>
<g id="clust6" class="cluster">
<title>cluster_ccmodmd.ConvCnstrMODMaskDcplBase</title>
<polygon fill="transparent" stroke="#d88c8c" stroke-width="2" stroke-dasharray="1,5" points="463,-264 463,-334 1436,-334 1436,-264 463,-264"/>
<text text-anchor="middle" x="949.5" y="-322.8" font-family="Vera Sans, DejaVu Sans, Liberation Sans, Arial, Helvetica, sans" font-size="9.00" fill="#000000">ccmodmd.ConvCnstrMODMaskDcplBase</text>
</g>
<g id="clust2" class="cluster">
<title>cluster_ccmod.ConvRepIndexing</title>
<polygon fill="transparent" stroke="#948cd8" stroke-width="2" stroke-dasharray="1,5" points="772.5,-108 772.5,-178 952.5,-178 952.5,-108 772.5,-108"/>
<text text-anchor="middle" x="862.5" y="-166.8" font-family="Vera Sans, DejaVu Sans, Liberation Sans, Arial, Helvetica, sans" font-size="9.00" fill="#000000">ccmod.ConvRepIndexing</text>
</g>
<g id="clust3" class="cluster">
<title>cluster_ccmod.DictionarySize</title>
<polygon fill="transparent" stroke="#ca8cd8" stroke-width="2" stroke-dasharray="1,5" points="1010,0 1010,-70 1176,-70 1176,0 1010,0"/>
<text text-anchor="middle" x="1093" y="-58.8" font-family="Vera Sans, DejaVu Sans, Liberation Sans, Arial, Helvetica, sans" font-size="9.00" fill="#000000">ccmod.DictionarySize</text>
</g>
<g id="clust4" class="cluster">
<title>cluster_admm._ADMM_Meta</title>
<polygon fill="transparent" stroke="#8cbad8" stroke-width="2" stroke-dasharray="1,5" points="0,-264 0,-334 161,-334 161,-264 0,-264"/>
<text text-anchor="middle" x="80.5" y="-322.8" font-family="Vera Sans, DejaVu Sans, Liberation Sans, Arial, Helvetica, sans" font-size="9.00" fill="#000000">admm._ADMM_Meta</text>
</g>
<g id="clust5" class="cluster">
<title>cluster_ccmod.getPcn</title>
<polygon fill="transparent" stroke="#d88cb1" stroke-width="2" stroke-dasharray="1,5" points="813,-30 813,-100 912,-100 912,-30 813,-30"/>
<text text-anchor="middle" x="862.5" y="-88.8" font-family="Vera Sans, DejaVu Sans, Liberation Sans, Arial, Helvetica, sans" font-size="9.00" fill="#000000">ccmod.getPcn</text>
</g>
<g id="clust7" class="cluster">
<title>cluster_admm.ADMM</title>
<polygon fill="transparent" stroke="#8ed88c" stroke-width="2" stroke-dasharray="1,5" points="1029.5,-78 1029.5,-256 1386.5,-256 1386.5,-78 1029.5,-78"/>
<text text-anchor="middle" x="1208" y="-244.8" font-family="Vera Sans, DejaVu Sans, Liberation Sans, Arial, Helvetica, sans" font-size="9.00" fill="#000000">admm.ADMM</text>
</g>
<g id="clust8" class="cluster">
<title>cluster_ccmodmd.ConvCnstrMODMaskDcpl_IterSM</title>
<polygon fill="transparent" stroke="#d88c8c" stroke-width="2" stroke-dasharray="1,5" points="181,-264 181,-334 443,-334 443,-264 181,-264"/>
<text text-anchor="middle" x="312" y="-322.8" font-family="Vera Sans, DejaVu Sans, Liberation Sans, Arial, Helvetica, sans" font-size="9.00" fill="#000000">ccmodmd.ConvCnstrMODMaskDcpl_IterSM</text>
</g>
<!-- admm.ADMMTwoBlockCnstrnt.__init__ -->
<g id="node1" class="node">
<title>admm.ADMMTwoBlockCnstrnt.__init__</title>
<g id="a_node1"><a xlink:href="../../sporco.admm.admm.html#sporco.admm.admm.ADMMTwoBlockCnstrnt.__init__" xlink:title="admm.ADMMTwoBlockCnstrnt.__init__" target="_top">
<path fill="#8cd8c1" stroke="#000000" stroke-width=".25" d="M944,-230C944,-230 781,-230 781,-230 775,-230 769,-224 769,-218 769,-218 769,-206 769,-206 769,-200 775,-194 781,-194 781,-194 944,-194 944,-194 950,-194 956,-200 956,-206 956,-206 956,-218 956,-218 956,-224 950,-230 944,-230"/>
<text text-anchor="middle" x="862.5" y="-209.8" font-family="Vera Sans, DejaVu Sans, Liberation Sans, Arial, Helvetica, sans" font-size="9.00" fill="#000000">admm.ADMMTwoBlockCnstrnt.__init__</text>
</a>
</g>
</g>
<!-- admm.ADMM.__init__ -->
<g id="node9" class="node">
<title>admm.ADMM.__init__</title>
<g id="a_node9"><a xlink:href="../../sporco.admm.admm.html#sporco.admm.admm.ADMM.__init__" xlink:title="admm.ADMM.__init__" target="_top">
<path fill="#8ed88c" stroke="#000000" stroke-width=".25" d="M1136.5,-230C1136.5,-230 1049.5,-230 1049.5,-230 1043.5,-230 1037.5,-224 1037.5,-218 1037.5,-218 1037.5,-206 1037.5,-206 1037.5,-200 1043.5,-194 1049.5,-194 1049.5,-194 1136.5,-194 1136.5,-194 1142.5,-194 1148.5,-200 1148.5,-206 1148.5,-206 1148.5,-218 1148.5,-218 1148.5,-224 1142.5,-230 1136.5,-230"/>
<text text-anchor="middle" x="1093" y="-209.8" font-family="Vera Sans, DejaVu Sans, Liberation Sans, Arial, Helvetica, sans" font-size="9.00" fill="#000000">admm.ADMM.__init__</text>
</a>
</g>
</g>
<!-- admm.ADMMTwoBlockCnstrnt.__init__&#45;&gt;admm.ADMM.__init__ -->
<g id="edge6" class="edge">
<title>admm.ADMMTwoBlockCnstrnt.__init__&#45;&gt;admm.ADMM.__init__</title>
<path fill="none" stroke="#8cd8c1" stroke-width="2" d="M956.25,-212C980.03,-212 1005.1,-212 1027.1,-212"/>
<polygon fill="#8cd8c1" stroke="#8cd8c1" stroke-width="2" points="1027.4,-215.5001 1037.4,-212 1027.4,-208.5001 1027.4,-215.5001"/>
</g>
<!-- ccmod.ConvRepIndexing.__init__ -->
<g id="node2" class="node">
<title>ccmod.ConvRepIndexing.__init__</title>
<g id="a_node2"><a xlink:href="../../sporco.admm.ccmod.html#sporco.admm.ccmod.ConvRepIndexing.__init__" xlink:title="ccmod.ConvRepIndexing.__init__" target="_top">
<path fill="#948cd8" stroke="#000000" stroke-width=".25" d="M932.5,-152C932.5,-152 792.5,-152 792.5,-152 786.5,-152 780.5,-146 780.5,-140 780.5,-140 780.5,-128 780.5,-128 780.5,-122 786.5,-116 792.5,-116 792.5,-116 932.5,-116 932.5,-116 938.5,-116 944.5,-122 944.5,-128 944.5,-128 944.5,-140 944.5,-140 944.5,-146 938.5,-152 932.5,-152"/>
<text text-anchor="middle" x="862.5" y="-131.8" font-family="Vera Sans, DejaVu Sans, Liberation Sans, Arial, Helvetica, sans" font-size="9.00" fill="#000000">ccmod.ConvRepIndexing.__init__</text>
</a>
</g>
</g>
<!-- ccmod.DictionarySize.__init__ -->
<g id="node3" class="node">
<title>ccmod.DictionarySize.__init__</title>
<g id="a_node3"><a xlink:href="../../sporco.admm.ccmod.html#sporco.admm.ccmod.DictionarySize.__init__" xlink:title="ccmod.DictionarySize.__init__" target="_top">
<path fill="#ca8cd8" stroke="#000000" stroke-width=".25" d="M1156,-44C1156,-44 1030,-44 1030,-44 1024,-44 1018,-38 1018,-32 1018,-32 1018,-20 1018,-20 1018,-14 1024,-8 1030,-8 1030,-8 1156,-8 1156,-8 1162,-8 1168,-14 1168,-20 1168,-20 1168,-32 1168,-32 1168,-38 1162,-44 1156,-44"/>
<text text-anchor="middle" x="1093" y="-23.8" font-family="Vera Sans, DejaVu Sans, Liberation Sans, Arial, Helvetica, sans" font-size="9.00" fill="#000000">ccmod.DictionarySize.__init__</text>
</a>
</g>
</g>
<!-- ccmod.ConvRepIndexing.__init__&#45;&gt;ccmod.DictionarySize.__init__ -->
<g id="edge8" class="edge">
<title>ccmod.ConvRepIndexing.__init__&#45;&gt;ccmod.DictionarySize.__init__</title>
<path fill="none" stroke="#948cd8" stroke-width="2" d="M944.69,-120.03C957.68,-115.97 970.58,-110.74 982,-104 997.7,-94.73 995.7,-85.356 1010,-74 1021.4,-64.91 1034.8,-56.414 1047.4,-49.172"/>
<polygon fill="#948cd8" stroke="#948cd8" stroke-width="2" points="1049.3864,-52.071 1056.4,-44.13 1045.9651,-45.9641 1049.3864,-52.071"/>
</g>
<!-- admm._ADMM_Meta.__call__ -->
<g id="node4" class="node">
<title>admm._ADMM_Meta.__call__</title>
<g id="a_node4"><a xlink:href="../../sporco.admm.admm.html#sporco.admm.admm._ADMM_Meta.__call__" xlink:title="admm._ADMM_Meta.__call__" target="_top">
<path fill="#8cbad8" stroke="#000000" stroke-width=".25" d="M141,-308C141,-308 20,-308 20,-308 14,-308 8,-302 8,-296 8,-296 8,-284 8,-284 8,-278 14,-272 20,-272 20,-272 141,-272 141,-272 147,-272 153,-278 153,-284 153,-284 153,-296 153,-296 153,-302 147,-308 141,-308"/>
<text text-anchor="middle" x="80.5" y="-287.8" font-family="Vera Sans, DejaVu Sans, Liberation Sans, Arial, Helvetica, sans" font-size="9.00" fill="#000000">admm._ADMM_Meta.__call__</text>
</a>
</g>
</g>
<!-- ccmodmd.ConvCnstrMODMaskDcpl_IterSM.__init__ -->
<g id="node13" class="node">
<title>ccmodmd.ConvCnstrMODMaskDcpl_IterSM.__init__</title>
<g id="a_node13"><a xlink:href="../../sporco.admm.ccmodmd.html#sporco.admm.ccmodmd.ConvCnstrMODMaskDcpl_IterSM.__init__" xlink:title="ccmodmd.ConvCnstrMODMaskDcpl_IterSM.__init__" target="_top">
<path fill="#d88c8c" stroke="#000000" stroke-width=".25" d="M423,-308C423,-308 201,-308 201,-308 195,-308 189,-302 189,-296 189,-296 189,-284 189,-284 189,-278 195,-272 201,-272 201,-272 423,-272 423,-272 429,-272 435,-278 435,-284 435,-284 435,-296 435,-296 435,-302 429,-308 423,-308"/>
<text text-anchor="middle" x="312" y="-287.8" font-family="Vera Sans, DejaVu Sans, Liberation Sans, Arial, Helvetica, sans" font-size="9.00" fill="#000000">ccmodmd.ConvCnstrMODMaskDcpl_IterSM.__init__</text>
</a>
</g>
</g>
<!-- admm._ADMM_Meta.__call__&#45;&gt;ccmodmd.ConvCnstrMODMaskDcpl_IterSM.__init__ -->
<g id="edge7" class="edge">
<title>admm._ADMM_Meta.__call__&#45;&gt;ccmodmd.ConvCnstrMODMaskDcpl_IterSM.__init__</title>
<path fill="none" stroke="#8cbad8" stroke-width="2" d="M153.11,-290C161.31,-290 169.84,-290 178.51,-290"/>
<polygon fill="#8cbad8" stroke="#8cbad8" stroke-width="2" points="178.74,-293.5001 188.74,-290 178.74,-286.5001 178.74,-293.5001"/>
</g>
<!-- ccmod.getPcn -->
<g id="node5" class="node">
<title>ccmod.getPcn</title>
<g id="a_node5"><a xlink:href="../../sporco.admm.ccmod.html#sporco.admm.ccmod.getPcn" xlink:title="ccmod.getPcn" target="_top">
<path fill="#d88cb1" stroke="#000000" stroke-width=".25" d="M892,-74C892,-74 833,-74 833,-74 827,-74 821,-68 821,-62 821,-62 821,-50 821,-50 821,-44 827,-38 833,-38 833,-38 892,-38 892,-38 898,-38 904,-44 904,-50 904,-50 904,-62 904,-62 904,-68 898,-74 892,-74"/>
<text text-anchor="middle" x="862.5" y="-53.8" font-family="Vera Sans, DejaVu Sans, Liberation Sans, Arial, Helvetica, sans" font-size="9.00" fill="#000000">ccmod.getPcn</text>
</a>
</g>
</g>
<!-- ccmodmd.ConvCnstrMODMaskDcplBase.setcoef -->
<g id="node6" class="node">
<title>ccmodmd.ConvCnstrMODMaskDcplBase.setcoef</title>
<g id="a_node6"><a xlink:href="../../sporco.admm.ccmodmd.html#sporco.admm.ccmodmd.ConvCnstrMODMaskDcplBase.setcoef" xlink:title="ccmodmd.ConvCnstrMODMaskDcplBase.setcoef" target="_top">
<path fill="#d88c8c" stroke="#000000" stroke-width=".25" d="M970,-308C970,-308 755,-308 755,-308 749,-308 743,-302 743,-296 743,-296 743,-284 743,-284 743,-278 749,-272 755,-272 755,-272 970,-272 970,-272 976,-272 982,-278 982,-284 982,-284 982,-296 982,-296 982,-302 976,-308 970,-308"/>
<text text-anchor="middle" x="862.5" y="-287.8" font-family="Vera Sans, DejaVu Sans, Liberation Sans, Arial, Helvetica, sans" font-size="9.00" fill="#000000">ccmodmd.ConvCnstrMODMaskDcplBase.setcoef</text>
</a>
</g>
</g>
<!-- ccmodmd.ConvCnstrMODMaskDcplBase.uinit -->
<g id="node7" class="node">
<title>ccmodmd.ConvCnstrMODMaskDcplBase.uinit</title>
<g id="a_node7"><a xlink:href="../../sporco.admm.ccmodmd.html#sporco.admm.ccmodmd.ConvCnstrMODMaskDcplBase.uinit" xlink:title="ccmodmd.ConvCnstrMODMaskDcplBase.uinit" target="_top">
<path fill="#d88c8c" stroke="#000000" stroke-width=".25" d="M1416,-308C1416,-308 1216,-308 1216,-308 1210,-308 1204,-302 1204,-296 1204,-296 1204,-284 1204,-284 1204,-278 1210,-272 1216,-272 1216,-272 1416,-272 1416,-272 1422,-272 1428,-278 1428,-284 1428,-284 1428,-296 1428,-296 1428,-302 1422,-308 1416,-308"/>
<text text-anchor="middle" x="1316" y="-287.8" font-family="Vera Sans, DejaVu Sans, Liberation Sans, Arial, Helvetica, sans" font-size="9.00" fill="#000000">ccmodmd.ConvCnstrMODMaskDcplBase.uinit</text>
</a>
</g>
</g>
<!-- ccmodmd.ConvCnstrMODMaskDcplBase.__init__ -->
<g id="node8" class="node">
<title>ccmodmd.ConvCnstrMODMaskDcplBase.__init__</title>
<g id="a_node8"><a xlink:href="../../sporco.admm.ccmodmd.html#sporco.admm.ccmodmd.ConvCnstrMODMaskDcplBase.__init__" xlink:title="ccmodmd.ConvCnstrMODMaskDcplBase.__init__" target="_top">
<path fill="#d88c8c" stroke="#000000" stroke-width=".25" d="M695,-308C695,-308 483,-308 483,-308 477,-308 471,-302 471,-296 471,-296 471,-284 471,-284 471,-278 477,-272 483,-272 483,-272 695,-272 695,-272 701,-272 707,-278 707,-284 707,-284 707,-296 707,-296 707,-302 701,-308 695,-308"/>
<text text-anchor="middle" x="589" y="-287.8" font-family="Vera Sans, DejaVu Sans, Liberation Sans, Arial, Helvetica, sans" font-size="9.00" fill="#000000">ccmodmd.ConvCnstrMODMaskDcplBase.__init__</text>
</a>
</g>
</g>
<!-- ccmodmd.ConvCnstrMODMaskDcplBase.__init__&#45;&gt;admm.ADMMTwoBlockCnstrnt.__init__ -->
<g id="edge9" class="edge">
<title>ccmodmd.ConvCnstrMODMaskDcplBase.__init__&#45;&gt;admm.ADMMTwoBlockCnstrnt.__init__</title>
<path fill="none" stroke="#d88c8c" stroke-width="2" d="M652.43,-271.91C693.28,-260.26 746.51,-245.08 789.17,-232.91"/>
<polygon fill="#d88c8c" stroke="#d88c8c" stroke-width="2" points="790.2797,-236.2333 798.94,-230.13 788.3639,-229.5005 790.2797,-236.2333"/>
</g>
<!-- ccmodmd.ConvCnstrMODMaskDcplBase.__init__&#45;&gt;ccmod.ConvRepIndexing.__init__ -->
<g id="edge10" class="edge">
<title>ccmodmd.ConvCnstrMODMaskDcplBase.__init__&#45;&gt;ccmod.ConvRepIndexing.__init__</title>
<path fill="none" stroke="#d88c8c" stroke-width="2" d="M611.15,-271.99C640.16,-249.01 693.19,-209 743,-182 761.16,-172.16 781.78,-163.16 800.71,-155.69"/>
<polygon fill="#d88c8c" stroke="#d88c8c" stroke-width="2" points="802.0776,-158.9138 810.14,-152.04 799.5508,-152.3857 802.0776,-158.9138"/>
</g>
<!-- ccmodmd.ConvCnstrMODMaskDcplBase.__init__&#45;&gt;ccmod.getPcn -->
<g id="edge11" class="edge">
<title>ccmodmd.ConvCnstrMODMaskDcplBase.__init__&#45;&gt;ccmod.getPcn</title>
<path fill="none" stroke="#d88c8c" stroke-width="2" d="M599.65,-271.84C621.9,-235.32 676.8,-152.33 743,-104 763.37,-89.129 788.99,-78.044 811.28,-70.295"/>
<polygon fill="#d88c8c" stroke="#d88c8c" stroke-width="2" points="812.5532,-73.5599 820.93,-67.073 810.3363,-66.9202 812.5532,-73.5599"/>
</g>
<!-- ccmodmd.ConvCnstrMODMaskDcplBase.__init__&#45;&gt;ccmodmd.ConvCnstrMODMaskDcplBase.setcoef -->
<g id="edge1" class="edge">
<title>ccmodmd.ConvCnstrMODMaskDcplBase.__init__&#45;&gt;ccmodmd.ConvCnstrMODMaskDcplBase.setcoef</title>
<path fill="none" stroke="#d88c8c" stroke-width="2" d="M707.37,-290C715.68,-290 724.09,-290 732.46,-290"/>
<polygon fill="#d88c8c" stroke="#d88c8c" stroke-width="2" points="732.65,-293.5001 742.65,-290 732.65,-286.5001 732.65,-293.5001"/>
</g>
<!-- admm.ADMM.__init__&#45;&gt;ccmodmd.ConvCnstrMODMaskDcplBase.uinit -->
<g id="edge5" class="edge">
<title>admm.ADMM.__init__&#45;&gt;ccmodmd.ConvCnstrMODMaskDcplBase.uinit</title>
<path fill="none" stroke="#8ed88c" stroke-width="2" d="M1131,-230.07C1152.2,-239.73 1179.2,-251.37 1204,-260 1213.2,-263.2 1222.9,-266.26 1232.6,-269.13"/>
<polygon fill="#8ed88c" stroke="#8ed88c" stroke-width="2" points="1231.7221,-272.5193 1242.3,-271.92 1233.6571,-265.7921 1231.7221,-272.5193"/>
</g>
<!-- admm.ADMM.yinit -->
<g id="node10" class="node">
<title>admm.ADMM.yinit</title>
<g id="a_node10"><a xlink:href="../../sporco.admm.admm.html#sporco.admm.admm.ADMM.yinit" xlink:title="admm.ADMM.yinit" target="_top">
<path fill="#8ed88c" stroke="#000000" stroke-width=".25" d="M1353,-122C1353,-122 1279,-122 1279,-122 1273,-122 1267,-116 1267,-110 1267,-110 1267,-98 1267,-98 1267,-92 1273,-86 1279,-86 1279,-86 1353,-86 1353,-86 1359,-86 1365,-92 1365,-98 1365,-98 1365,-110 1365,-110 1365,-116 1359,-122 1353,-122"/>
<text text-anchor="middle" x="1316" y="-101.8" font-family="Vera Sans, DejaVu Sans, Liberation Sans, Arial, Helvetica, sans" font-size="9.00" fill="#000000">admm.ADMM.yinit</text>
</a>
</g>
</g>
<!-- admm.ADMM.__init__&#45;&gt;admm.ADMM.yinit -->
<g id="edge2" class="edge">
<title>admm.ADMM.__init__&#45;&gt;admm.ADMM.yinit</title>
<path fill="none" stroke="#8ed88c" stroke-width="2" d="M1112.7,-193.82C1133.8,-175.36 1168.9,-147.23 1204,-131 1220.5,-123.38 1239.3,-117.77 1256.8,-113.7"/>
<polygon fill="#8ed88c" stroke="#8ed88c" stroke-width="2" points="1257.8845,-117.0452 1266.9,-111.48 1256.3818,-110.2085 1257.8845,-117.0452"/>
</g>
<!-- admm.ADMM.set_attr -->
<g id="node11" class="node">
<title>admm.ADMM.set_attr</title>
<g id="a_node11"><a xlink:href="../../sporco.admm.admm.html#sporco.admm.admm.ADMM.set_attr" xlink:title="admm.ADMM.set_attr" target="_top">
<path fill="#8ed88c" stroke="#000000" stroke-width=".25" d="M1362,-176C1362,-176 1270,-176 1270,-176 1264,-176 1258,-170 1258,-164 1258,-164 1258,-152 1258,-152 1258,-146 1264,-140 1270,-140 1270,-140 1362,-140 1362,-140 1368,-140 1374,-146 1374,-152 1374,-152 1374,-164 1374,-164 1374,-170 1368,-176 1362,-176"/>
<text text-anchor="middle" x="1316" y="-155.8" font-family="Vera Sans, DejaVu Sans, Liberation Sans, Arial, Helvetica, sans" font-size="9.00" fill="#000000">admm.ADMM.set_attr</text>
</a>
</g>
</g>
<!-- admm.ADMM.__init__&#45;&gt;admm.ADMM.set_attr -->
<g id="edge3" class="edge">
<title>admm.ADMM.__init__&#45;&gt;admm.ADMM.set_attr</title>
<path fill="none" stroke="#8ed88c" stroke-width="2" d="M1148.6,-198.45C1166.3,-194.14 1186,-189.36 1204,-185 1218.2,-181.56 1233.4,-177.88 1248,-174.38"/>
<polygon fill="#8ed88c" stroke="#8ed88c" stroke-width="2" points="1249.0006,-177.7391 1257.9,-171.99 1247.3579,-170.9345 1249.0006,-177.7391"/>
</g>
<!-- admm.ADMM.set_dtype -->
<g id="node12" class="node">
<title>admm.ADMM.set_dtype</title>
<g id="a_node12"><a xlink:href="../../sporco.admm.admm.html#sporco.admm.admm.ADMM.set_dtype" xlink:title="admm.ADMM.set_dtype" target="_top">
<path fill="#8ed88c" stroke="#000000" stroke-width=".25" d="M1366.5,-230C1366.5,-230 1265.5,-230 1265.5,-230 1259.5,-230 1253.5,-224 1253.5,-218 1253.5,-218 1253.5,-206 1253.5,-206 1253.5,-200 1259.5,-194 1265.5,-194 1265.5,-194 1366.5,-194 1366.5,-194 1372.5,-194 1378.5,-200 1378.5,-206 1378.5,-206 1378.5,-218 1378.5,-218 1378.5,-224 1372.5,-230 1366.5,-230"/>
<text text-anchor="middle" x="1316" y="-209.8" font-family="Vera Sans, DejaVu Sans, Liberation Sans, Arial, Helvetica, sans" font-size="9.00" fill="#000000">admm.ADMM.set_dtype</text>
</a>
</g>
</g>
<!-- admm.ADMM.__init__&#45;&gt;admm.ADMM.set_dtype -->
<g id="edge4" class="edge">
<title>admm.ADMM.__init__&#45;&gt;admm.ADMM.set_dtype</title>
<path fill="none" stroke="#8ed88c" stroke-width="2" d="M1148.7,-212C1177.2,-212 1212.3,-212 1242.9,-212"/>
<polygon fill="#8ed88c" stroke="#8ed88c" stroke-width="2" points="1243.1,-215.5001 1253.1,-212 1243.1,-208.5001 1243.1,-215.5001"/>
</g>
<!-- ccmodmd.ConvCnstrMODMaskDcpl_IterSM.__init__&#45;&gt;ccmodmd.ConvCnstrMODMaskDcplBase.__init__ -->
<g id="edge12" class="edge">
<title>ccmodmd.ConvCnstrMODMaskDcpl_IterSM.__init__&#45;&gt;ccmodmd.ConvCnstrMODMaskDcplBase.__init__</title>
<path fill="none" stroke="#d88c8c" stroke-width="2" d="M435.11,-290C443.53,-290 452.03,-290 460.48,-290"/>
<polygon fill="#d88c8c" stroke="#d88c8c" stroke-width="2" points="460.76,-293.5001 470.76,-290 460.76,-286.5001 460.76,-293.5001"/>
</g>
</g>
</svg>
