<?xml version="1.0" encoding="UTF-8" standalone="no"?>
<!DOCTYPE svg PUBLIC "-//W3C//DTD SVG 1.1//EN"
 "http://www.w3.org/Graphics/SVG/1.1/DTD/svg11.dtd">
<!-- Generated by graphviz version 2.40.1 (20161225.0304)
 -->
<!-- Pages: 1 -->
<svg
 viewBox="0.00 0.00 1084.00 342.00" xmlns="http://www.w3.org/2000/svg" xmlns:xlink="http://www.w3.org/1999/xlink">
<g id="graph0" class="graph" transform="scale(1 1) rotate(0) translate(4 338)">
<polygon fill="transparent" stroke="transparent" points="-4,4 -4,-338 1080,-338 1080,4 -4,4"/>
<g id="clust1" class="cluster">
<title>cluster_ccmod.ConvCnstrMOD_Consensus</title>
<polygon fill="transparent" stroke="#af8cd8" stroke-width="2" stroke-dasharray="1,5" points="181,-264 181,-334 1076,-334 1076,-264 181,-264"/>
<text text-anchor="middle" x="628.5" y="-322.8" font-family="Vera Sans, DejaVu Sans, Liberation Sans, Arial, Helvetica, sans" font-size="9.00" fill="#000000">ccmod.ConvCnstrMOD_Consensus</text>
</g>
<g id="clust2" class="cluster">
<title>cluster_admm.ADMMConsensus</title>
<polygon fill="transparent" stroke="#8cd8c9" stroke-width="2" stroke-dasharray="1,5" points="452,-186 452,-256 631,-256 631,-186 452,-186"/>
<text text-anchor="middle" x="541.5" y="-244.8" font-family="Vera Sans, DejaVu Sans, Liberation Sans, Arial, Helvetica, sans" font-size="9.00" fill="#000000">admm.ADMMConsensus</text>
</g>
<g id="clust3" class="cluster">
<title>cluster_admm.ADMM</title>
<polygon fill="transparent" stroke="#8ed88c" stroke-width="2" stroke-dasharray="1,5" points="695.5,-78 695.5,-256 1039.5,-256 1039.5,-78 695.5,-78"/>
<text text-anchor="middle" x="867.5" y="-244.8" font-family="Vera Sans, DejaVu Sans, Liberation Sans, Arial, Helvetica, sans" font-size="9.00" fill="#000000">admm.ADMM</text>
</g>
<g id="clust4" class="cluster">
<title>cluster_ccmod.ConvRepIndexing</title>
<polygon fill="transparent" stroke="#d88cc3" stroke-width="2" stroke-dasharray="1,5" points="451.5,-78 451.5,-148 631.5,-148 631.5,-78 451.5,-78"/>
<text text-anchor="middle" x="541.5" y="-136.8" font-family="Vera Sans, DejaVu Sans, Liberation Sans, Arial, Helvetica, sans" font-size="9.00" fill="#000000">ccmod.ConvRepIndexing</text>
</g>
<g id="clust5" class="cluster">
<title>cluster_admm._ADMM_Meta</title>
<polygon fill="transparent" stroke="#8ca8d8" stroke-width="2" stroke-dasharray="1,5" points="0,-264 0,-334 161,-334 161,-264 0,-264"/>
<text text-anchor="middle" x="80.5" y="-322.8" font-family="Vera Sans, DejaVu Sans, Liberation Sans, Arial, Helvetica, sans" font-size="9.00" fill="#000000">admm._ADMM_Meta</text>
</g>
<g id="clust6" class="cluster">
<title>cluster_ccmod.DictionarySize</title>
<polygon fill="transparent" stroke="#d88c8c" stroke-width="2" stroke-dasharray="1,5" points="676,0 676,-70 842,-70 842,0 676,0"/>
<text text-anchor="middle" x="759" y="-58.8" font-family="Vera Sans, DejaVu Sans, Liberation Sans, Arial, Helvetica, sans" font-size="9.00" fill="#000000">ccmod.DictionarySize</text>
</g>
<g id="clust7" class="cluster">
<title>cluster_ccmod.getPcn</title>
<polygon fill="transparent" stroke="#d88c8c" stroke-width="2" stroke-dasharray="1,5" points="492,0 492,-70 591,-70 591,0 492,0"/>
<text text-anchor="middle" x="541.5" y="-58.8" font-family="Vera Sans, DejaVu Sans, Liberation Sans, Arial, Helvetica, sans" font-size="9.00" fill="#000000">ccmod.getPcn</text>
</g>
<!-- ccmod.ConvCnstrMOD_Consensus.__init__ -->
<g id="node1" class="node">
<title>ccmod.ConvCnstrMOD_Consensus.__init__</title>
<g id="a_node1"><a xlink:href="../../sporco.admm.ccmod.html#sporco.admm.ccmod.ConvCnstrMOD_Consensus.__init__" xlink:title="ccmod.ConvCnstrMOD_Consensus.__init__" target="_top">
<path fill="#af8cd8" stroke="#000000" stroke-width=".25" d="M387,-308C387,-308 201,-308 201,-308 195,-308 189,-302 189,-296 189,-296 189,-284 189,-284 189,-278 195,-272 201,-272 201,-272 387,-272 387,-272 393,-272 399,-278 399,-284 399,-284 399,-296 399,-296 399,-302 393,-308 387,-308"/>
<text text-anchor="middle" x="294" y="-287.8" font-family="Vera Sans, DejaVu Sans, Liberation Sans, Arial, Helvetica, sans" font-size="9.00" fill="#000000">ccmod.ConvCnstrMOD_Consensus.__init__</text>
</a>
</g>
</g>
<!-- ccmod.ConvCnstrMOD_Consensus.setcoef -->
<g id="node2" class="node">
<title>ccmod.ConvCnstrMOD_Consensus.setcoef</title>
<g id="a_node2"><a xlink:href="../../sporco.admm.ccmod.html#sporco.admm.ccmod.ConvCnstrMOD_Consensus.setcoef" xlink:title="ccmod.ConvCnstrMOD_Consensus.setcoef" target="_top">
<path fill="#af8cd8" stroke="#000000" stroke-width=".25" d="M636,-308C636,-308 447,-308 447,-308 441,-308 435,-302 435,-296 435,-296 435,-284 435,-284 435,-278 441,-272 447,-272 447,-272 636,-272 636,-272 642,-272 648,-278 648,-284 648,-284 648,-296 648,-296 648,-302 642,-308 636,-308"/>
<text text-anchor="middle" x="541.5" y="-287.8" font-family="Vera Sans, DejaVu Sans, Liberation Sans, Arial, Helvetica, sans" font-size="9.00" fill="#000000">ccmod.ConvCnstrMOD_Consensus.setcoef</text>
</a>
</g>
</g>
<!-- ccmod.ConvCnstrMOD_Consensus.__init__&#45;&gt;ccmod.ConvCnstrMOD_Consensus.setcoef -->
<g id="edge1" class="edge">
<title>ccmod.ConvCnstrMOD_Consensus.__init__&#45;&gt;ccmod.ConvCnstrMOD_Consensus.setcoef</title>
<path fill="none" stroke="#af8cd8" stroke-width="2" d="M399.32,-290C407.65,-290 416.08,-290 424.48,-290"/>
<polygon fill="#af8cd8" stroke="#af8cd8" stroke-width="2" points="424.69,-293.5001 434.69,-290 424.69,-286.5001 424.69,-293.5001"/>
</g>
<!-- admm.ADMMConsensus.__init__ -->
<g id="node4" class="node">
<title>admm.ADMMConsensus.__init__</title>
<g id="a_node4"><a xlink:href="../../sporco.admm.admm.html#sporco.admm.admm.ADMMConsensus.__init__" xlink:title="admm.ADMMConsensus.__init__" target="_top">
<path fill="#8cd8c9" stroke="#000000" stroke-width=".25" d="M611,-230C611,-230 472,-230 472,-230 466,-230 460,-224 460,-218 460,-218 460,-206 460,-206 460,-200 466,-194 472,-194 472,-194 611,-194 611,-194 617,-194 623,-200 623,-206 623,-206 623,-218 623,-218 623,-224 617,-230 611,-230"/>
<text text-anchor="middle" x="541.5" y="-209.8" font-family="Vera Sans, DejaVu Sans, Liberation Sans, Arial, Helvetica, sans" font-size="9.00" fill="#000000">admm.ADMMConsensus.__init__</text>
</a>
</g>
</g>
<!-- ccmod.ConvCnstrMOD_Consensus.__init__&#45;&gt;admm.ADMMConsensus.__init__ -->
<g id="edge7" class="edge">
<title>ccmod.ConvCnstrMOD_Consensus.__init__&#45;&gt;admm.ADMMConsensus.__init__</title>
<path fill="none" stroke="#af8cd8" stroke-width="2" d="M351.4,-271.91C388.13,-260.33 435.93,-245.27 474.41,-233.14"/>
<polygon fill="#af8cd8" stroke="#af8cd8" stroke-width="2" points="475.4909,-236.4692 483.98,-230.13 473.3906,-229.7917 475.4909,-236.4692"/>
</g>
<!-- admm.ADMM.set_attr -->
<g id="node7" class="node">
<title>admm.ADMM.set_attr</title>
<g id="a_node7"><a xlink:href="../../sporco.admm.admm.html#sporco.admm.admm.ADMM.set_attr" xlink:title="admm.ADMM.set_attr" target="_top">
<path fill="#8ed88c" stroke="#000000" stroke-width=".25" d="M1015,-122C1015,-122 923,-122 923,-122 917,-122 911,-116 911,-110 911,-110 911,-98 911,-98 911,-92 917,-86 923,-86 923,-86 1015,-86 1015,-86 1021,-86 1027,-92 1027,-98 1027,-98 1027,-110 1027,-110 1027,-116 1021,-122 1015,-122"/>
<text text-anchor="middle" x="969" y="-101.8" font-family="Vera Sans, DejaVu Sans, Liberation Sans, Arial, Helvetica, sans" font-size="9.00" fill="#000000">admm.ADMM.set_attr</text>
</a>
</g>
</g>
<!-- ccmod.ConvCnstrMOD_Consensus.__init__&#45;&gt;admm.ADMM.set_attr -->
<g id="edge6" class="edge">
<title>ccmod.ConvCnstrMOD_Consensus.__init__&#45;&gt;admm.ADMM.set_attr</title>
<path fill="none" stroke="#af8cd8" stroke-width="2" d="M311.19,-271.94C335.98,-247.14 384.38,-203.21 435,-182 523.17,-145.05 553.39,-165.74 648,-152 735.21,-139.34 835.65,-124.23 900.62,-114.4"/>
<polygon fill="#af8cd8" stroke="#af8cd8" stroke-width="2" points="901.3804,-117.8247 910.74,-112.86 900.3272,-110.9043 901.3804,-117.8247"/>
</g>
<!-- ccmod.ConvRepIndexing.__init__ -->
<g id="node9" class="node">
<title>ccmod.ConvRepIndexing.__init__</title>
<g id="a_node9"><a xlink:href="../../sporco.admm.ccmod.html#sporco.admm.ccmod.ConvRepIndexing.__init__" xlink:title="ccmod.ConvRepIndexing.__init__" target="_top">
<path fill="#d88cc3" stroke="#000000" stroke-width=".25" d="M611.5,-122C611.5,-122 471.5,-122 471.5,-122 465.5,-122 459.5,-116 459.5,-110 459.5,-110 459.5,-98 459.5,-98 459.5,-92 465.5,-86 471.5,-86 471.5,-86 611.5,-86 611.5,-86 617.5,-86 623.5,-92 623.5,-98 623.5,-98 623.5,-110 623.5,-110 623.5,-116 617.5,-122 611.5,-122"/>
<text text-anchor="middle" x="541.5" y="-101.8" font-family="Vera Sans, DejaVu Sans, Liberation Sans, Arial, Helvetica, sans" font-size="9.00" fill="#000000">ccmod.ConvRepIndexing.__init__</text>
</a>
</g>
</g>
<!-- ccmod.ConvCnstrMOD_Consensus.__init__&#45;&gt;ccmod.ConvRepIndexing.__init__ -->
<g id="edge8" class="edge">
<title>ccmod.ConvCnstrMOD_Consensus.__init__&#45;&gt;ccmod.ConvRepIndexing.__init__</title>
<path fill="none" stroke="#af8cd8" stroke-width="2" d="M308.83,-271.83C332.88,-243.28 382.95,-187.54 435,-152 449.56,-142.06 466.52,-133.33 482.56,-126.15"/>
<polygon fill="#af8cd8" stroke="#af8cd8" stroke-width="2" points="484.1028,-129.2956 491.87,-122.09 481.3046,-122.8792 484.1028,-129.2956"/>
</g>
<!-- ccmod.getPcn -->
<g id="node12" class="node">
<title>ccmod.getPcn</title>
<g id="a_node12"><a xlink:href="../../sporco.admm.ccmod.html#sporco.admm.ccmod.getPcn" xlink:title="ccmod.getPcn" target="_top">
<path fill="#d88c8c" stroke="#000000" stroke-width=".25" d="M571,-44C571,-44 512,-44 512,-44 506,-44 500,-38 500,-32 500,-32 500,-20 500,-20 500,-14 506,-8 512,-8 512,-8 571,-8 571,-8 577,-8 583,-14 583,-20 583,-20 583,-32 583,-32 583,-38 577,-44 571,-44"/>
<text text-anchor="middle" x="541.5" y="-23.8" font-family="Vera Sans, DejaVu Sans, Liberation Sans, Arial, Helvetica, sans" font-size="9.00" fill="#000000">ccmod.getPcn</text>
</a>
</g>
</g>
<!-- ccmod.ConvCnstrMOD_Consensus.__init__&#45;&gt;ccmod.getPcn -->
<g id="edge9" class="edge">
<title>ccmod.ConvCnstrMOD_Consensus.__init__&#45;&gt;ccmod.getPcn</title>
<path fill="none" stroke="#af8cd8" stroke-width="2" d="M301.52,-271.88C319.17,-231.32 366.96,-132.24 435,-74 451.08,-60.236 471.75,-49.717 490.59,-42.084"/>
<polygon fill="#af8cd8" stroke="#af8cd8" stroke-width="2" points="491.8952,-45.3319 499.96,-38.461 489.3707,-38.803 491.8952,-45.3319"/>
</g>
<!-- ccmod.ConvCnstrMOD_Consensus.uinit -->
<g id="node3" class="node">
<title>ccmod.ConvCnstrMOD_Consensus.uinit</title>
<g id="a_node3"><a xlink:href="../../sporco.admm.ccmod.html#sporco.admm.ccmod.ConvCnstrMOD_Consensus.uinit" xlink:title="ccmod.ConvCnstrMOD_Consensus.uinit" target="_top">
<path fill="#af8cd8" stroke="#000000" stroke-width=".25" d="M1056,-308C1056,-308 882,-308 882,-308 876,-308 870,-302 870,-296 870,-296 870,-284 870,-284 870,-278 876,-272 882,-272 882,-272 1056,-272 1056,-272 1062,-272 1068,-278 1068,-284 1068,-284 1068,-296 1068,-296 1068,-302 1062,-308 1056,-308"/>
<text text-anchor="middle" x="969" y="-287.8" font-family="Vera Sans, DejaVu Sans, Liberation Sans, Arial, Helvetica, sans" font-size="9.00" fill="#000000">ccmod.ConvCnstrMOD_Consensus.uinit</text>
</a>
</g>
</g>
<!-- admm.ADMM.__init__ -->
<g id="node5" class="node">
<title>admm.ADMM.__init__</title>
<g id="a_node5"><a xlink:href="../../sporco.admm.admm.html#sporco.admm.admm.ADMM.__init__" xlink:title="admm.ADMM.__init__" target="_top">
<path fill="#8ed88c" stroke="#000000" stroke-width=".25" d="M802.5,-230C802.5,-230 715.5,-230 715.5,-230 709.5,-230 703.5,-224 703.5,-218 703.5,-218 703.5,-206 703.5,-206 703.5,-200 709.5,-194 715.5,-194 715.5,-194 802.5,-194 802.5,-194 808.5,-194 814.5,-200 814.5,-206 814.5,-206 814.5,-218 814.5,-218 814.5,-224 808.5,-230 802.5,-230"/>
<text text-anchor="middle" x="759" y="-209.8" font-family="Vera Sans, DejaVu Sans, Liberation Sans, Arial, Helvetica, sans" font-size="9.00" fill="#000000">admm.ADMM.__init__</text>
</a>
</g>
</g>
<!-- admm.ADMMConsensus.__init__&#45;&gt;admm.ADMM.__init__ -->
<g id="edge10" class="edge">
<title>admm.ADMMConsensus.__init__&#45;&gt;admm.ADMM.__init__</title>
<path fill="none" stroke="#8cd8c9" stroke-width="2" d="M623.11,-212C646.21,-212 671.06,-212 693.11,-212"/>
<polygon fill="#8cd8c9" stroke="#8cd8c9" stroke-width="2" points="693.35,-215.5001 703.35,-212 693.35,-208.5001 693.35,-215.5001"/>
</g>
<!-- admm.ADMM.__init__&#45;&gt;ccmod.ConvCnstrMOD_Consensus.uinit -->
<g id="edge5" class="edge">
<title>admm.ADMM.__init__&#45;&gt;ccmod.ConvCnstrMOD_Consensus.uinit</title>
<path fill="none" stroke="#8ed88c" stroke-width="2" d="M797.86,-230.1C818.96,-239.6 845.65,-251.08 870,-260 878.27,-263.03 887.01,-266 895.72,-268.82"/>
<polygon fill="#8ed88c" stroke="#8ed88c" stroke-width="2" points="894.9395,-272.2445 905.53,-271.94 897.0612,-265.5737 894.9395,-272.2445"/>
</g>
<!-- admm.ADMM.yinit -->
<g id="node6" class="node">
<title>admm.ADMM.yinit</title>
<g id="a_node6"><a xlink:href="../../sporco.admm.admm.html#sporco.admm.admm.ADMM.yinit" xlink:title="admm.ADMM.yinit" target="_top">
<path fill="#8ed88c" stroke="#000000" stroke-width=".25" d="M1006,-230C1006,-230 932,-230 932,-230 926,-230 920,-224 920,-218 920,-218 920,-206 920,-206 920,-200 926,-194 932,-194 932,-194 1006,-194 1006,-194 1012,-194 1018,-200 1018,-206 1018,-206 1018,-218 1018,-218 1018,-224 1012,-230 1006,-230"/>
<text text-anchor="middle" x="969" y="-209.8" font-family="Vera Sans, DejaVu Sans, Liberation Sans, Arial, Helvetica, sans" font-size="9.00" fill="#000000">admm.ADMM.yinit</text>
</a>
</g>
</g>
<!-- admm.ADMM.__init__&#45;&gt;admm.ADMM.yinit -->
<g id="edge2" class="edge">
<title>admm.ADMM.__init__&#45;&gt;admm.ADMM.yinit</title>
<path fill="none" stroke="#8ed88c" stroke-width="2" d="M814.72,-212C843.96,-212 879.8,-212 909.57,-212"/>
<polygon fill="#8ed88c" stroke="#8ed88c" stroke-width="2" points="909.82,-215.5001 919.82,-212 909.82,-208.5001 909.82,-215.5001"/>
</g>
<!-- admm.ADMM.__init__&#45;&gt;admm.ADMM.set_attr -->
<g id="edge3" class="edge">
<title>admm.ADMM.__init__&#45;&gt;admm.ADMM.set_attr</title>
<path fill="none" stroke="#8ed88c" stroke-width="2" d="M814.66,-196.65C824.44,-192.31 834.03,-186.84 842,-180 861.02,-163.65 850.17,-146.36 870,-131 879.1,-123.96 889.9,-118.75 900.98,-114.9"/>
<polygon fill="#8ed88c" stroke="#8ed88c" stroke-width="2" points="902.2473,-118.171 910.75,-111.85 900.1613,-111.4891 902.2473,-118.171"/>
</g>
<!-- admm.ADMM.set_dtype -->
<g id="node8" class="node">
<title>admm.ADMM.set_dtype</title>
<g id="a_node8"><a xlink:href="../../sporco.admm.admm.html#sporco.admm.admm.ADMM.set_dtype" xlink:title="admm.ADMM.set_dtype" target="_top">
<path fill="#8ed88c" stroke="#000000" stroke-width=".25" d="M1019.5,-176C1019.5,-176 918.5,-176 918.5,-176 912.5,-176 906.5,-170 906.5,-164 906.5,-164 906.5,-152 906.5,-152 906.5,-146 912.5,-140 918.5,-140 918.5,-140 1019.5,-140 1019.5,-140 1025.5,-140 1031.5,-146 1031.5,-152 1031.5,-152 1031.5,-164 1031.5,-164 1031.5,-170 1025.5,-176 1019.5,-176"/>
<text text-anchor="middle" x="969" y="-155.8" font-family="Vera Sans, DejaVu Sans, Liberation Sans, Arial, Helvetica, sans" font-size="9.00" fill="#000000">admm.ADMM.set_dtype</text>
</a>
</g>
</g>
<!-- admm.ADMM.__init__&#45;&gt;admm.ADMM.set_dtype -->
<g id="edge4" class="edge">
<title>admm.ADMM.__init__&#45;&gt;admm.ADMM.set_dtype</title>
<path fill="none" stroke="#8ed88c" stroke-width="2" d="M814.72,-197.67C839.83,-191.21 869.8,-183.51 896.62,-176.61"/>
<polygon fill="#8ed88c" stroke="#8ed88c" stroke-width="2" points="897.5271,-179.9907 906.34,-174.11 895.7833,-173.2113 897.5271,-179.9907"/>
</g>
<!-- ccmod.DictionarySize.__init__ -->
<g id="node11" class="node">
<title>ccmod.DictionarySize.__init__</title>
<g id="a_node11"><a xlink:href="../../sporco.admm.ccmod.html#sporco.admm.ccmod.DictionarySize.__init__" xlink:title="ccmod.DictionarySize.__init__" target="_top">
<path fill="#d88c8c" stroke="#000000" stroke-width=".25" d="M822,-44C822,-44 696,-44 696,-44 690,-44 684,-38 684,-32 684,-32 684,-20 684,-20 684,-14 690,-8 696,-8 696,-8 822,-8 822,-8 828,-8 834,-14 834,-20 834,-20 834,-32 834,-32 834,-38 828,-44 822,-44"/>
<text text-anchor="middle" x="759" y="-23.8" font-family="Vera Sans, DejaVu Sans, Liberation Sans, Arial, Helvetica, sans" font-size="9.00" fill="#000000">ccmod.DictionarySize.__init__</text>
</a>
</g>
</g>
<!-- ccmod.ConvRepIndexing.__init__&#45;&gt;ccmod.DictionarySize.__init__ -->
<g id="edge12" class="edge">
<title>ccmod.ConvRepIndexing.__init__&#45;&gt;ccmod.DictionarySize.__init__</title>
<path fill="none" stroke="#d88cc3" stroke-width="2" d="M610.67,-85.968C623.19,-82.294 636.05,-78.244 648,-74 669.17,-66.48 692.03,-56.861 711.47,-48.212"/>
<polygon fill="#d88cc3" stroke="#d88cc3" stroke-width="2" points="713.0322,-51.3472 720.72,-44.057 710.1639,-44.9619 713.0322,-51.3472"/>
</g>
<!-- admm._ADMM_Meta.__call__ -->
<g id="node10" class="node">
<title>admm._ADMM_Meta.__call__</title>
<g id="a_node10"><a xlink:href="../../sporco.admm.admm.html#sporco.admm.admm._ADMM_Meta.__call__" xlink:title="admm._ADMM_Meta.__call__" target="_top">
<path fill="#8ca8d8" stroke="#000000" stroke-width=".25" d="M141,-308C141,-308 20,-308 20,-308 14,-308 8,-302 8,-296 8,-296 8,-284 8,-284 8,-278 14,-272 20,-272 20,-272 141,-272 141,-272 147,-272 153,-278 153,-284 153,-284 153,-296 153,-296 153,-302 147,-308 141,-308"/>
<text text-anchor="middle" x="80.5" y="-287.8" font-family="Vera Sans, DejaVu Sans, Liberation Sans, Arial, Helvetica, sans" font-size="9.00" fill="#000000">admm._ADMM_Meta.__call__</text>
</a>
</g>
</g>
<!-- admm._ADMM_Meta.__call__&#45;&gt;ccmod.ConvCnstrMOD_Consensus.__init__ -->
<g id="edge11" class="edge">
<title>admm._ADMM_Meta.__call__&#45;&gt;ccmod.ConvCnstrMOD_Consensus.__init__</title>
<path fill="none" stroke="#8ca8d8" stroke-width="2" d="M153.08,-290C161.33,-290 169.89,-290 178.53,-290"/>
<polygon fill="#8ca8d8" stroke="#8ca8d8" stroke-width="2" points="178.69,-293.5001 188.69,-290 178.69,-286.5001 178.69,-293.5001"/>
</g>
</g>
</svg>
