<?xml version="1.0" encoding="UTF-8" standalone="no"?>
<!DOCTYPE svg PUBLIC "-//W3C//DTD SVG 1.1//EN"
 "http://www.w3.org/Graphics/SVG/1.1/DTD/svg11.dtd">
<!-- Generated by graphviz version 2.40.1 (20161225.0304)
 -->
<!-- Pages: 1 -->
<svg
 viewBox="0.00 0.00 1428.00 342.00" xmlns="http://www.w3.org/2000/svg" xmlns:xlink="http://www.w3.org/1999/xlink">
<g id="graph0" class="graph" transform="scale(1 1) rotate(0) translate(4 338)">
<polygon fill="transparent" stroke="transparent" points="-4,4 -4,-338 1424,-338 1424,4 -4,4"/>
<g id="clust1" class="cluster">
<title>cluster_ccmodmd.ConvCnstrMODMaskDcplBase</title>
<polygon fill="transparent" stroke="#d88c8c" stroke-width="2" stroke-dasharray="1,5" points="447,-264 447,-334 1420,-334 1420,-264 447,-264"/>
<text text-anchor="middle" x="933.5" y="-322.8" font-family="Vera Sans, DejaVu Sans, Liberation Sans, Arial, Helvetica, sans" font-size="9.00" fill="#000000">ccmodmd.ConvCnstrMODMaskDcplBase</text>
</g>
<g id="clust2" class="cluster">
<title>cluster_admm.ADMMTwoBlockCnstrnt</title>
<polygon fill="transparent" stroke="#8cd8c1" stroke-width="2" stroke-dasharray="1,5" points="745,-186 745,-256 948,-256 948,-186 745,-186"/>
<text text-anchor="middle" x="846.5" y="-244.8" font-family="Vera Sans, DejaVu Sans, Liberation Sans, Arial, Helvetica, sans" font-size="9.00" fill="#000000">admm.ADMMTwoBlockCnstrnt</text>
</g>
<g id="clust3" class="cluster">
<title>cluster_admm._ADMM_Meta</title>
<polygon fill="transparent" stroke="#8cbad8" stroke-width="2" stroke-dasharray="1,5" points="0,-264 0,-334 161,-334 161,-264 0,-264"/>
<text text-anchor="middle" x="80.5" y="-322.8" font-family="Vera Sans, DejaVu Sans, Liberation Sans, Arial, Helvetica, sans" font-size="9.00" fill="#000000">admm._ADMM_Meta</text>
</g>
<g id="clust4" class="cluster">
<title>cluster_ccmod.getPcn</title>
<polygon fill="transparent" stroke="#d88cb1" stroke-width="2" stroke-dasharray="1,5" points="797,-30 797,-100 896,-100 896,-30 797,-30"/>
<text text-anchor="middle" x="846.5" y="-88.8" font-family="Vera Sans, DejaVu Sans, Liberation Sans, Arial, Helvetica, sans" font-size="9.00" fill="#000000">ccmod.getPcn</text>
</g>
<g id="clust5" class="cluster">
<title>cluster_admm.ADMM</title>
<polygon fill="transparent" stroke="#8ed88c" stroke-width="2" stroke-dasharray="1,5" points="1013.5,-78 1013.5,-256 1370.5,-256 1370.5,-78 1013.5,-78"/>
<text text-anchor="middle" x="1192" y="-244.8" font-family="Vera Sans, DejaVu Sans, Liberation Sans, Arial, Helvetica, sans" font-size="9.00" fill="#000000">admm.ADMM</text>
</g>
<g id="clust6" class="cluster">
<title>cluster_ccmod.ConvRepIndexing</title>
<polygon fill="transparent" stroke="#948cd8" stroke-width="2" stroke-dasharray="1,5" points="756.5,-108 756.5,-178 936.5,-178 936.5,-108 756.5,-108"/>
<text text-anchor="middle" x="846.5" y="-166.8" font-family="Vera Sans, DejaVu Sans, Liberation Sans, Arial, Helvetica, sans" font-size="9.00" fill="#000000">ccmod.ConvRepIndexing</text>
</g>
<g id="clust7" class="cluster">
<title>cluster_ccmod.DictionarySize</title>
<polygon fill="transparent" stroke="#ca8cd8" stroke-width="2" stroke-dasharray="1,5" points="994,0 994,-70 1160,-70 1160,0 994,0"/>
<text text-anchor="middle" x="1077" y="-58.8" font-family="Vera Sans, DejaVu Sans, Liberation Sans, Arial, Helvetica, sans" font-size="9.00" fill="#000000">ccmod.DictionarySize</text>
</g>
<g id="clust8" class="cluster">
<title>cluster_ccmodmd.ConvCnstrMODMaskDcpl_CG</title>
<polygon fill="transparent" stroke="#d88c8c" stroke-width="2" stroke-dasharray="1,5" points="181,-264 181,-334 427,-334 427,-264 181,-264"/>
<text text-anchor="middle" x="304" y="-322.8" font-family="Vera Sans, DejaVu Sans, Liberation Sans, Arial, Helvetica, sans" font-size="9.00" fill="#000000">ccmodmd.ConvCnstrMODMaskDcpl_CG</text>
</g>
<!-- ccmodmd.ConvCnstrMODMaskDcplBase.setcoef -->
<g id="node1" class="node">
<title>ccmodmd.ConvCnstrMODMaskDcplBase.setcoef</title>
<g id="a_node1"><a xlink:href="../../sporco.admm.ccmodmd.html#sporco.admm.ccmodmd.ConvCnstrMODMaskDcplBase.setcoef" xlink:title="ccmodmd.ConvCnstrMODMaskDcplBase.setcoef" target="_top">
<path fill="#d88c8c" stroke="#000000" stroke-width=".25" d="M954,-308C954,-308 739,-308 739,-308 733,-308 727,-302 727,-296 727,-296 727,-284 727,-284 727,-278 733,-272 739,-272 739,-272 954,-272 954,-272 960,-272 966,-278 966,-284 966,-284 966,-296 966,-296 966,-302 960,-308 954,-308"/>
<text text-anchor="middle" x="846.5" y="-287.8" font-family="Vera Sans, DejaVu Sans, Liberation Sans, Arial, Helvetica, sans" font-size="9.00" fill="#000000">ccmodmd.ConvCnstrMODMaskDcplBase.setcoef</text>
</a>
</g>
</g>
<!-- ccmodmd.ConvCnstrMODMaskDcplBase.uinit -->
<g id="node2" class="node">
<title>ccmodmd.ConvCnstrMODMaskDcplBase.uinit</title>
<g id="a_node2"><a xlink:href="../../sporco.admm.ccmodmd.html#sporco.admm.ccmodmd.ConvCnstrMODMaskDcplBase.uinit" xlink:title="ccmodmd.ConvCnstrMODMaskDcplBase.uinit" target="_top">
<path fill="#d88c8c" stroke="#000000" stroke-width=".25" d="M1400,-308C1400,-308 1200,-308 1200,-308 1194,-308 1188,-302 1188,-296 1188,-296 1188,-284 1188,-284 1188,-278 1194,-272 1200,-272 1200,-272 1400,-272 1400,-272 1406,-272 1412,-278 1412,-284 1412,-284 1412,-296 1412,-296 1412,-302 1406,-308 1400,-308"/>
<text text-anchor="middle" x="1300" y="-287.8" font-family="Vera Sans, DejaVu Sans, Liberation Sans, Arial, Helvetica, sans" font-size="9.00" fill="#000000">ccmodmd.ConvCnstrMODMaskDcplBase.uinit</text>
</a>
</g>
</g>
<!-- ccmodmd.ConvCnstrMODMaskDcplBase.__init__ -->
<g id="node3" class="node">
<title>ccmodmd.ConvCnstrMODMaskDcplBase.__init__</title>
<g id="a_node3"><a xlink:href="../../sporco.admm.ccmodmd.html#sporco.admm.ccmodmd.ConvCnstrMODMaskDcplBase.__init__" xlink:title="ccmodmd.ConvCnstrMODMaskDcplBase.__init__" target="_top">
<path fill="#d88c8c" stroke="#000000" stroke-width=".25" d="M679,-308C679,-308 467,-308 467,-308 461,-308 455,-302 455,-296 455,-296 455,-284 455,-284 455,-278 461,-272 467,-272 467,-272 679,-272 679,-272 685,-272 691,-278 691,-284 691,-284 691,-296 691,-296 691,-302 685,-308 679,-308"/>
<text text-anchor="middle" x="573" y="-287.8" font-family="Vera Sans, DejaVu Sans, Liberation Sans, Arial, Helvetica, sans" font-size="9.00" fill="#000000">ccmodmd.ConvCnstrMODMaskDcplBase.__init__</text>
</a>
</g>
</g>
<!-- ccmodmd.ConvCnstrMODMaskDcplBase.__init__&#45;&gt;ccmodmd.ConvCnstrMODMaskDcplBase.setcoef -->
<g id="edge1" class="edge">
<title>ccmodmd.ConvCnstrMODMaskDcplBase.__init__&#45;&gt;ccmodmd.ConvCnstrMODMaskDcplBase.setcoef</title>
<path fill="none" stroke="#d88c8c" stroke-width="2" d="M691.37,-290C699.68,-290 708.09,-290 716.46,-290"/>
<polygon fill="#d88c8c" stroke="#d88c8c" stroke-width="2" points="716.65,-293.5001 726.65,-290 716.65,-286.5001 716.65,-293.5001"/>
</g>
<!-- admm.ADMMTwoBlockCnstrnt.__init__ -->
<g id="node4" class="node">
<title>admm.ADMMTwoBlockCnstrnt.__init__</title>
<g id="a_node4"><a xlink:href="../../sporco.admm.admm.html#sporco.admm.admm.ADMMTwoBlockCnstrnt.__init__" xlink:title="admm.ADMMTwoBlockCnstrnt.__init__" target="_top">
<path fill="#8cd8c1" stroke="#000000" stroke-width=".25" d="M928,-230C928,-230 765,-230 765,-230 759,-230 753,-224 753,-218 753,-218 753,-206 753,-206 753,-200 759,-194 765,-194 765,-194 928,-194 928,-194 934,-194 940,-200 940,-206 940,-206 940,-218 940,-218 940,-224 934,-230 928,-230"/>
<text text-anchor="middle" x="846.5" y="-209.8" font-family="Vera Sans, DejaVu Sans, Liberation Sans, Arial, Helvetica, sans" font-size="9.00" fill="#000000">admm.ADMMTwoBlockCnstrnt.__init__</text>
</a>
</g>
</g>
<!-- ccmodmd.ConvCnstrMODMaskDcplBase.__init__&#45;&gt;admm.ADMMTwoBlockCnstrnt.__init__ -->
<g id="edge5" class="edge">
<title>ccmodmd.ConvCnstrMODMaskDcplBase.__init__&#45;&gt;admm.ADMMTwoBlockCnstrnt.__init__</title>
<path fill="none" stroke="#d88c8c" stroke-width="2" d="M636.43,-271.91C677.28,-260.26 730.51,-245.08 773.17,-232.91"/>
<polygon fill="#d88c8c" stroke="#d88c8c" stroke-width="2" points="774.2797,-236.2333 782.94,-230.13 772.3639,-229.5005 774.2797,-236.2333"/>
</g>
<!-- ccmod.getPcn -->
<g id="node6" class="node">
<title>ccmod.getPcn</title>
<g id="a_node6"><a xlink:href="../../sporco.admm.ccmod.html#sporco.admm.ccmod.getPcn" xlink:title="ccmod.getPcn" target="_top">
<path fill="#d88cb1" stroke="#000000" stroke-width=".25" d="M876,-74C876,-74 817,-74 817,-74 811,-74 805,-68 805,-62 805,-62 805,-50 805,-50 805,-44 811,-38 817,-38 817,-38 876,-38 876,-38 882,-38 888,-44 888,-50 888,-50 888,-62 888,-62 888,-68 882,-74 876,-74"/>
<text text-anchor="middle" x="846.5" y="-53.8" font-family="Vera Sans, DejaVu Sans, Liberation Sans, Arial, Helvetica, sans" font-size="9.00" fill="#000000">ccmod.getPcn</text>
</a>
</g>
</g>
<!-- ccmodmd.ConvCnstrMODMaskDcplBase.__init__&#45;&gt;ccmod.getPcn -->
<g id="edge7" class="edge">
<title>ccmodmd.ConvCnstrMODMaskDcplBase.__init__&#45;&gt;ccmod.getPcn</title>
<path fill="none" stroke="#d88c8c" stroke-width="2" d="M583.65,-271.84C605.9,-235.32 660.8,-152.33 727,-104 747.37,-89.129 772.99,-78.044 795.28,-70.295"/>
<polygon fill="#d88c8c" stroke="#d88c8c" stroke-width="2" points="796.5532,-73.5599 804.93,-67.073 794.3363,-66.9202 796.5532,-73.5599"/>
</g>
<!-- ccmod.ConvRepIndexing.__init__ -->
<g id="node11" class="node">
<title>ccmod.ConvRepIndexing.__init__</title>
<g id="a_node11"><a xlink:href="../../sporco.admm.ccmod.html#sporco.admm.ccmod.ConvRepIndexing.__init__" xlink:title="ccmod.ConvRepIndexing.__init__" target="_top">
<path fill="#948cd8" stroke="#000000" stroke-width=".25" d="M916.5,-152C916.5,-152 776.5,-152 776.5,-152 770.5,-152 764.5,-146 764.5,-140 764.5,-140 764.5,-128 764.5,-128 764.5,-122 770.5,-116 776.5,-116 776.5,-116 916.5,-116 916.5,-116 922.5,-116 928.5,-122 928.5,-128 928.5,-128 928.5,-140 928.5,-140 928.5,-146 922.5,-152 916.5,-152"/>
<text text-anchor="middle" x="846.5" y="-131.8" font-family="Vera Sans, DejaVu Sans, Liberation Sans, Arial, Helvetica, sans" font-size="9.00" fill="#000000">ccmod.ConvRepIndexing.__init__</text>
</a>
</g>
</g>
<!-- ccmodmd.ConvCnstrMODMaskDcplBase.__init__&#45;&gt;ccmod.ConvRepIndexing.__init__ -->
<g id="edge6" class="edge">
<title>ccmodmd.ConvCnstrMODMaskDcplBase.__init__&#45;&gt;ccmod.ConvRepIndexing.__init__</title>
<path fill="none" stroke="#d88c8c" stroke-width="2" d="M595.15,-271.99C624.16,-249.01 677.19,-209 727,-182 745.16,-172.16 765.78,-163.16 784.71,-155.69"/>
<polygon fill="#d88c8c" stroke="#d88c8c" stroke-width="2" points="786.0776,-158.9138 794.14,-152.04 783.5508,-152.3857 786.0776,-158.9138"/>
</g>
<!-- admm.ADMM.__init__ -->
<g id="node7" class="node">
<title>admm.ADMM.__init__</title>
<g id="a_node7"><a xlink:href="../../sporco.admm.admm.html#sporco.admm.admm.ADMM.__init__" xlink:title="admm.ADMM.__init__" target="_top">
<path fill="#8ed88c" stroke="#000000" stroke-width=".25" d="M1120.5,-230C1120.5,-230 1033.5,-230 1033.5,-230 1027.5,-230 1021.5,-224 1021.5,-218 1021.5,-218 1021.5,-206 1021.5,-206 1021.5,-200 1027.5,-194 1033.5,-194 1033.5,-194 1120.5,-194 1120.5,-194 1126.5,-194 1132.5,-200 1132.5,-206 1132.5,-206 1132.5,-218 1132.5,-218 1132.5,-224 1126.5,-230 1120.5,-230"/>
<text text-anchor="middle" x="1077" y="-209.8" font-family="Vera Sans, DejaVu Sans, Liberation Sans, Arial, Helvetica, sans" font-size="9.00" fill="#000000">admm.ADMM.__init__</text>
</a>
</g>
</g>
<!-- admm.ADMMTwoBlockCnstrnt.__init__&#45;&gt;admm.ADMM.__init__ -->
<g id="edge8" class="edge">
<title>admm.ADMMTwoBlockCnstrnt.__init__&#45;&gt;admm.ADMM.__init__</title>
<path fill="none" stroke="#8cd8c1" stroke-width="2" d="M940.25,-212C964.03,-212 989.08,-212 1011.1,-212"/>
<polygon fill="#8cd8c1" stroke="#8cd8c1" stroke-width="2" points="1011.4,-215.5001 1021.4,-212 1011.4,-208.5001 1011.4,-215.5001"/>
</g>
<!-- admm._ADMM_Meta.__call__ -->
<g id="node5" class="node">
<title>admm._ADMM_Meta.__call__</title>
<g id="a_node5"><a xlink:href="../../sporco.admm.admm.html#sporco.admm.admm._ADMM_Meta.__call__" xlink:title="admm._ADMM_Meta.__call__" target="_top">
<path fill="#8cbad8" stroke="#000000" stroke-width=".25" d="M141,-308C141,-308 20,-308 20,-308 14,-308 8,-302 8,-296 8,-296 8,-284 8,-284 8,-278 14,-272 20,-272 20,-272 141,-272 141,-272 147,-272 153,-278 153,-284 153,-284 153,-296 153,-296 153,-302 147,-308 141,-308"/>
<text text-anchor="middle" x="80.5" y="-287.8" font-family="Vera Sans, DejaVu Sans, Liberation Sans, Arial, Helvetica, sans" font-size="9.00" fill="#000000">admm._ADMM_Meta.__call__</text>
</a>
</g>
</g>
<!-- ccmodmd.ConvCnstrMODMaskDcpl_CG.__init__ -->
<g id="node13" class="node">
<title>ccmodmd.ConvCnstrMODMaskDcpl_CG.__init__</title>
<g id="a_node13"><a xlink:href="../../sporco.admm.ccmodmd.html#sporco.admm.ccmodmd.ConvCnstrMODMaskDcpl_CG.__init__" xlink:title="ccmodmd.ConvCnstrMODMaskDcpl_CG.__init__" target="_top">
<path fill="#d88c8c" stroke="#000000" stroke-width=".25" d="M407,-308C407,-308 201,-308 201,-308 195,-308 189,-302 189,-296 189,-296 189,-284 189,-284 189,-278 195,-272 201,-272 201,-272 407,-272 407,-272 413,-272 419,-278 419,-284 419,-284 419,-296 419,-296 419,-302 413,-308 407,-308"/>
<text text-anchor="middle" x="304" y="-287.8" font-family="Vera Sans, DejaVu Sans, Liberation Sans, Arial, Helvetica, sans" font-size="9.00" fill="#000000">ccmodmd.ConvCnstrMODMaskDcpl_CG.__init__</text>
</a>
</g>
</g>
<!-- admm._ADMM_Meta.__call__&#45;&gt;ccmodmd.ConvCnstrMODMaskDcpl_CG.__init__ -->
<g id="edge10" class="edge">
<title>admm._ADMM_Meta.__call__&#45;&gt;ccmodmd.ConvCnstrMODMaskDcpl_CG.__init__</title>
<path fill="none" stroke="#8cbad8" stroke-width="2" d="M153.06,-290C161.31,-290 169.88,-290 178.56,-290"/>
<polygon fill="#8cbad8" stroke="#8cbad8" stroke-width="2" points="178.79,-293.5001 188.79,-290 178.79,-286.5001 178.79,-293.5001"/>
</g>
<!-- admm.ADMM.__init__&#45;&gt;ccmodmd.ConvCnstrMODMaskDcplBase.uinit -->
<g id="edge9" class="edge">
<title>admm.ADMM.__init__&#45;&gt;ccmodmd.ConvCnstrMODMaskDcplBase.uinit</title>
<path fill="none" stroke="#8ed88c" stroke-width="2" d="M1115,-230.07C1136.2,-239.73 1163.2,-251.37 1188,-260 1197.2,-263.2 1206.9,-266.26 1216.6,-269.13"/>
<polygon fill="#8ed88c" stroke="#8ed88c" stroke-width="2" points="1215.7221,-272.5193 1226.3,-271.92 1217.6571,-265.7921 1215.7221,-272.5193"/>
</g>
<!-- admm.ADMM.yinit -->
<g id="node8" class="node">
<title>admm.ADMM.yinit</title>
<g id="a_node8"><a xlink:href="../../sporco.admm.admm.html#sporco.admm.admm.ADMM.yinit" xlink:title="admm.ADMM.yinit" target="_top">
<path fill="#8ed88c" stroke="#000000" stroke-width=".25" d="M1337,-122C1337,-122 1263,-122 1263,-122 1257,-122 1251,-116 1251,-110 1251,-110 1251,-98 1251,-98 1251,-92 1257,-86 1263,-86 1263,-86 1337,-86 1337,-86 1343,-86 1349,-92 1349,-98 1349,-98 1349,-110 1349,-110 1349,-116 1343,-122 1337,-122"/>
<text text-anchor="middle" x="1300" y="-101.8" font-family="Vera Sans, DejaVu Sans, Liberation Sans, Arial, Helvetica, sans" font-size="9.00" fill="#000000">admm.ADMM.yinit</text>
</a>
</g>
</g>
<!-- admm.ADMM.__init__&#45;&gt;admm.ADMM.yinit -->
<g id="edge2" class="edge">
<title>admm.ADMM.__init__&#45;&gt;admm.ADMM.yinit</title>
<path fill="none" stroke="#8ed88c" stroke-width="2" d="M1096.7,-193.82C1117.8,-175.36 1152.9,-147.23 1188,-131 1204.5,-123.38 1223.3,-117.77 1240.8,-113.7"/>
<polygon fill="#8ed88c" stroke="#8ed88c" stroke-width="2" points="1241.8845,-117.0452 1250.9,-111.48 1240.3818,-110.2085 1241.8845,-117.0452"/>
</g>
<!-- admm.ADMM.set_attr -->
<g id="node9" class="node">
<title>admm.ADMM.set_attr</title>
<g id="a_node9"><a xlink:href="../../sporco.admm.admm.html#sporco.admm.admm.ADMM.set_attr" xlink:title="admm.ADMM.set_attr" target="_top">
<path fill="#8ed88c" stroke="#000000" stroke-width=".25" d="M1346,-176C1346,-176 1254,-176 1254,-176 1248,-176 1242,-170 1242,-164 1242,-164 1242,-152 1242,-152 1242,-146 1248,-140 1254,-140 1254,-140 1346,-140 1346,-140 1352,-140 1358,-146 1358,-152 1358,-152 1358,-164 1358,-164 1358,-170 1352,-176 1346,-176"/>
<text text-anchor="middle" x="1300" y="-155.8" font-family="Vera Sans, DejaVu Sans, Liberation Sans, Arial, Helvetica, sans" font-size="9.00" fill="#000000">admm.ADMM.set_attr</text>
</a>
</g>
</g>
<!-- admm.ADMM.__init__&#45;&gt;admm.ADMM.set_attr -->
<g id="edge3" class="edge">
<title>admm.ADMM.__init__&#45;&gt;admm.ADMM.set_attr</title>
<path fill="none" stroke="#8ed88c" stroke-width="2" d="M1132.6,-198.45C1150.3,-194.14 1170,-189.36 1188,-185 1202.2,-181.56 1217.4,-177.88 1232,-174.38"/>
<polygon fill="#8ed88c" stroke="#8ed88c" stroke-width="2" points="1233.0006,-177.7391 1241.9,-171.99 1231.3579,-170.9345 1233.0006,-177.7391"/>
</g>
<!-- admm.ADMM.set_dtype -->
<g id="node10" class="node">
<title>admm.ADMM.set_dtype</title>
<g id="a_node10"><a xlink:href="../../sporco.admm.admm.html#sporco.admm.admm.ADMM.set_dtype" xlink:title="admm.ADMM.set_dtype" target="_top">
<path fill="#8ed88c" stroke="#000000" stroke-width=".25" d="M1350.5,-230C1350.5,-230 1249.5,-230 1249.5,-230 1243.5,-230 1237.5,-224 1237.5,-218 1237.5,-218 1237.5,-206 1237.5,-206 1237.5,-200 1243.5,-194 1249.5,-194 1249.5,-194 1350.5,-194 1350.5,-194 1356.5,-194 1362.5,-200 1362.5,-206 1362.5,-206 1362.5,-218 1362.5,-218 1362.5,-224 1356.5,-230 1350.5,-230"/>
<text text-anchor="middle" x="1300" y="-209.8" font-family="Vera Sans, DejaVu Sans, Liberation Sans, Arial, Helvetica, sans" font-size="9.00" fill="#000000">admm.ADMM.set_dtype</text>
</a>
</g>
</g>
<!-- admm.ADMM.__init__&#45;&gt;admm.ADMM.set_dtype -->
<g id="edge4" class="edge">
<title>admm.ADMM.__init__&#45;&gt;admm.ADMM.set_dtype</title>
<path fill="none" stroke="#8ed88c" stroke-width="2" d="M1132.7,-212C1161.2,-212 1196.3,-212 1226.9,-212"/>
<polygon fill="#8ed88c" stroke="#8ed88c" stroke-width="2" points="1227.1,-215.5001 1237.1,-212 1227.1,-208.5001 1227.1,-215.5001"/>
</g>
<!-- ccmod.DictionarySize.__init__ -->
<g id="node12" class="node">
<title>ccmod.DictionarySize.__init__</title>
<g id="a_node12"><a xlink:href="../../sporco.admm.ccmod.html#sporco.admm.ccmod.DictionarySize.__init__" xlink:title="ccmod.DictionarySize.__init__" target="_top">
<path fill="#ca8cd8" stroke="#000000" stroke-width=".25" d="M1140,-44C1140,-44 1014,-44 1014,-44 1008,-44 1002,-38 1002,-32 1002,-32 1002,-20 1002,-20 1002,-14 1008,-8 1014,-8 1014,-8 1140,-8 1140,-8 1146,-8 1152,-14 1152,-20 1152,-20 1152,-32 1152,-32 1152,-38 1146,-44 1140,-44"/>
<text text-anchor="middle" x="1077" y="-23.8" font-family="Vera Sans, DejaVu Sans, Liberation Sans, Arial, Helvetica, sans" font-size="9.00" fill="#000000">ccmod.DictionarySize.__init__</text>
</a>
</g>
</g>
<!-- ccmod.ConvRepIndexing.__init__&#45;&gt;ccmod.DictionarySize.__init__ -->
<g id="edge11" class="edge">
<title>ccmod.ConvRepIndexing.__init__&#45;&gt;ccmod.DictionarySize.__init__</title>
<path fill="none" stroke="#948cd8" stroke-width="2" d="M928.69,-120.03C941.68,-115.97 954.58,-110.74 966,-104 981.71,-94.73 979.73,-85.356 994,-74 1005.4,-64.91 1018.8,-56.414 1031.4,-49.172"/>
<polygon fill="#948cd8" stroke="#948cd8" stroke-width="2" points="1033.3864,-52.071 1040.4,-44.13 1029.9651,-45.9641 1033.3864,-52.071"/>
</g>
<!-- ccmodmd.ConvCnstrMODMaskDcpl_CG.__init__&#45;&gt;ccmodmd.ConvCnstrMODMaskDcplBase.__init__ -->
<g id="edge12" class="edge">
<title>ccmodmd.ConvCnstrMODMaskDcpl_CG.__init__&#45;&gt;ccmodmd.ConvCnstrMODMaskDcplBase.__init__</title>
<path fill="none" stroke="#d88c8c" stroke-width="2" d="M419.25,-290C427.76,-290 436.37,-290 444.95,-290"/>
<polygon fill="#d88c8c" stroke="#d88c8c" stroke-width="2" points="444.99,-293.5001 454.99,-290 444.99,-286.5001 444.99,-293.5001"/>
</g>
</g>
</svg>
