<?xml version="1.0" encoding="UTF-8" standalone="no"?>
<!DOCTYPE svg PUBLIC "-//W3C//DTD SVG 1.1//EN"
 "http://www.w3.org/Graphics/SVG/1.1/DTD/svg11.dtd">
<!-- Generated by graphviz version 2.40.1 (20161225.0304)
 -->
<!-- Pages: 1 -->
<svg
 viewBox="0.00 0.00 1149.00 828.00" xmlns="http://www.w3.org/2000/svg" xmlns:xlink="http://www.w3.org/1999/xlink">
<g id="graph0" class="graph" transform="scale(1 1) rotate(0) translate(4 824)">
<polygon fill="transparent" stroke="transparent" points="-4,4 -4,-824 1145,-824 1145,4 -4,4"/>
<g id="clust1" class="cluster">
<title>cluster_ccmod.ConvCnstrMOD_Consensus</title>
<polygon fill="transparent" stroke="#d88c8c" stroke-width="2" stroke-dasharray="1,5" points="139,-642 139,-820 1141,-820 1141,-642 139,-642"/>
<text text-anchor="middle" x="640" y="-808.8" font-family="Vera Sans, DejaVu Sans, Liberation Sans, Arial, Helvetica, sans" font-size="9.00" fill="#000000">ccmod.ConvCnstrMOD_Consensus</text>
</g>
<g id="clust2" class="cluster">
<title>cluster_admm.ADMMConsensus</title>
<polygon fill="transparent" stroke="#af8cd8" stroke-width="2" stroke-dasharray="1,5" points="156,0 156,-232 1117,-232 1117,0 156,0"/>
<text text-anchor="middle" x="636.5" y="-220.8" font-family="Vera Sans, DejaVu Sans, Liberation Sans, Arial, Helvetica, sans" font-size="9.00" fill="#000000">admm.ADMMConsensus</text>
</g>
<g id="clust3" class="cluster">
<title>cluster_admm.ADMM</title>
<polygon fill="transparent" stroke="#8ed88c" stroke-width="2" stroke-dasharray="1,5" points="0,-240 0,-634 340,-634 340,-240 0,-240"/>
<text text-anchor="middle" x="170" y="-622.8" font-family="Vera Sans, DejaVu Sans, Liberation Sans, Arial, Helvetica, sans" font-size="9.00" fill="#000000">admm.ADMM</text>
</g>
<!-- ccmod.ConvCnstrMOD_Consensus.prox_g -->
<g id="node1" class="node">
<title>ccmod.ConvCnstrMOD_Consensus.prox_g</title>
<g id="a_node1"><a xlink:href="../../sporco.admm.ccmod.html#sporco.admm.ccmod.ConvCnstrMOD_Consensus.prox_g" xlink:title="ccmod.ConvCnstrMOD_Consensus.prox_g" target="_top">
<path fill="#d88c8c" stroke="#000000" stroke-width=".25" d="M594,-686C594,-686 409,-686 409,-686 403,-686 397,-680 397,-674 397,-674 397,-662 397,-662 397,-656 403,-650 409,-650 409,-650 594,-650 594,-650 600,-650 606,-656 606,-662 606,-662 606,-674 606,-674 606,-680 600,-686 594,-686"/>
<text text-anchor="middle" x="501.5" y="-665.8" font-family="Vera Sans, DejaVu Sans, Liberation Sans, Arial, Helvetica, sans" font-size="9.00" fill="#000000">ccmod.ConvCnstrMOD_Consensus.prox_g</text>
</a>
</g>
</g>
<!-- ccmod.ConvCnstrMOD_Consensus.xstep -->
<g id="node2" class="node">
<title>ccmod.ConvCnstrMOD_Consensus.xstep</title>
<g id="a_node2"><a xlink:href="../../sporco.admm.ccmod.html#sporco.admm.ccmod.ConvCnstrMOD_Consensus.xstep" xlink:title="ccmod.ConvCnstrMOD_Consensus.xstep" target="_top">
<path fill="#d88c8c" stroke="#000000" stroke-width=".25" d="M338,-686C338,-686 159,-686 159,-686 153,-686 147,-680 147,-674 147,-674 147,-662 147,-662 147,-656 153,-650 159,-650 159,-650 338,-650 338,-650 344,-650 350,-656 350,-662 350,-662 350,-674 350,-674 350,-680 344,-686 338,-686"/>
<text text-anchor="middle" x="248.5" y="-665.8" font-family="Vera Sans, DejaVu Sans, Liberation Sans, Arial, Helvetica, sans" font-size="9.00" fill="#000000">ccmod.ConvCnstrMOD_Consensus.xstep</text>
</a>
</g>
</g>
<!-- ccmod.ConvCnstrMOD_Consensus.obfn_cns -->
<g id="node3" class="node">
<title>ccmod.ConvCnstrMOD_Consensus.obfn_cns</title>
<g id="a_node3"><a xlink:href="../../sporco.admm.ccmod.html#sporco.admm.ccmod.ConvCnstrMOD_Consensus.obfn_cns" xlink:title="ccmod.ConvCnstrMOD_Consensus.obfn_cns" target="_top">
<path fill="#d88c8c" stroke="#000000" stroke-width=".25" d="M861,-686C861,-686 665,-686 665,-686 659,-686 653,-680 653,-674 653,-674 653,-662 653,-662 653,-656 659,-650 665,-650 665,-650 861,-650 861,-650 867,-650 873,-656 873,-662 873,-662 873,-674 873,-674 873,-680 867,-686 861,-686"/>
<text text-anchor="middle" x="763" y="-665.8" font-family="Vera Sans, DejaVu Sans, Liberation Sans, Arial, Helvetica, sans" font-size="9.00" fill="#000000">ccmod.ConvCnstrMOD_Consensus.obfn_cns</text>
</a>
</g>
</g>
<!-- admm.ADMMConsensus.obfn_gvar -->
<g id="node15" class="node">
<title>admm.ADMMConsensus.obfn_gvar</title>
<g id="a_node15"><a xlink:href="../../sporco.admm.admm.html#sporco.admm.admm.ADMMConsensus.obfn_gvar" xlink:title="admm.ADMMConsensus.obfn_gvar" target="_top">
<path fill="#af8cd8" stroke="#000000" stroke-width=".25" d="M1097,-206C1097,-206 945,-206 945,-206 939,-206 933,-200 933,-194 933,-194 933,-182 933,-182 933,-176 939,-170 945,-170 945,-170 1097,-170 1097,-170 1103,-170 1109,-176 1109,-182 1109,-182 1109,-194 1109,-194 1109,-200 1103,-206 1097,-206"/>
<text text-anchor="middle" x="1021" y="-185.8" font-family="Vera Sans, DejaVu Sans, Liberation Sans, Arial, Helvetica, sans" font-size="9.00" fill="#000000">admm.ADMMConsensus.obfn_gvar</text>
</a>
</g>
</g>
<!-- ccmod.ConvCnstrMOD_Consensus.obfn_cns&#45;&gt;admm.ADMMConsensus.obfn_gvar -->
<g id="edge11" class="edge">
<title>ccmod.ConvCnstrMOD_Consensus.obfn_cns&#45;&gt;admm.ADMMConsensus.obfn_gvar</title>
<path fill="none" stroke="#d88c8c" stroke-width="2" d="M868.48,-649.69C870.04,-648.52 871.55,-647.3 873,-646 939.77,-586.51 998.4,-306.31 1015.8,-216.07"/>
<polygon fill="#d88c8c" stroke="#d88c8c" stroke-width="2" points="1019.2775,-216.5167 1017.7,-206.04 1012.3999,-215.2138 1019.2775,-216.5167"/>
</g>
<!-- ccmod.ConvCnstrMOD_Consensus.obfn_dfd -->
<g id="node4" class="node">
<title>ccmod.ConvCnstrMOD_Consensus.obfn_dfd</title>
<g id="a_node4"><a xlink:href="../../sporco.admm.ccmod.html#sporco.admm.ccmod.ConvCnstrMOD_Consensus.obfn_dfd" xlink:title="ccmod.ConvCnstrMOD_Consensus.obfn_dfd" target="_top">
<path fill="#d88c8c" stroke="#000000" stroke-width=".25" d="M860,-740C860,-740 666,-740 666,-740 660,-740 654,-734 654,-728 654,-728 654,-716 654,-716 654,-710 660,-704 666,-704 666,-704 860,-704 860,-704 866,-704 872,-710 872,-716 872,-716 872,-728 872,-728 872,-734 866,-740 860,-740"/>
<text text-anchor="middle" x="763" y="-719.8" font-family="Vera Sans, DejaVu Sans, Liberation Sans, Arial, Helvetica, sans" font-size="9.00" fill="#000000">ccmod.ConvCnstrMOD_Consensus.obfn_dfd</text>
</a>
</g>
</g>
<!-- ccmod.ConvCnstrMOD_Consensus.obfn_fvarf -->
<g id="node5" class="node">
<title>ccmod.ConvCnstrMOD_Consensus.obfn_fvarf</title>
<g id="a_node5"><a xlink:href="../../sporco.admm.ccmod.html#sporco.admm.ccmod.ConvCnstrMOD_Consensus.obfn_fvarf" xlink:title="ccmod.ConvCnstrMOD_Consensus.obfn_fvarf" target="_top">
<path fill="#d88c8c" stroke="#000000" stroke-width=".25" d="M1121,-740C1121,-740 921,-740 921,-740 915,-740 909,-734 909,-728 909,-728 909,-716 909,-716 909,-710 915,-704 921,-704 921,-704 1121,-704 1121,-704 1127,-704 1133,-710 1133,-716 1133,-716 1133,-728 1133,-728 1133,-734 1127,-740 1121,-740"/>
<text text-anchor="middle" x="1021" y="-719.8" font-family="Vera Sans, DejaVu Sans, Liberation Sans, Arial, Helvetica, sans" font-size="9.00" fill="#000000">ccmod.ConvCnstrMOD_Consensus.obfn_fvarf</text>
</a>
</g>
</g>
<!-- ccmod.ConvCnstrMOD_Consensus.obfn_dfd&#45;&gt;ccmod.ConvCnstrMOD_Consensus.obfn_fvarf -->
<g id="edge1" class="edge">
<title>ccmod.ConvCnstrMOD_Consensus.obfn_dfd&#45;&gt;ccmod.ConvCnstrMOD_Consensus.obfn_fvarf</title>
<path fill="none" stroke="#d88c8c" stroke-width="2" d="M872.04,-722C880.74,-722 889.56,-722 898.35,-722"/>
<polygon fill="#d88c8c" stroke="#d88c8c" stroke-width="2" points="898.63,-725.5001 908.63,-722 898.63,-718.5001 898.63,-725.5001"/>
</g>
<!-- ccmod.ConvCnstrMOD_Consensus.eval_objfn -->
<g id="node6" class="node">
<title>ccmod.ConvCnstrMOD_Consensus.eval_objfn</title>
<g id="a_node6"><a xlink:href="../../sporco.admm.ccmod.html#sporco.admm.ccmod.ConvCnstrMOD_Consensus.eval_objfn" xlink:title="ccmod.ConvCnstrMOD_Consensus.eval_objfn" target="_top">
<path fill="#d88c8c" stroke="#000000" stroke-width=".25" d="M601.5,-740C601.5,-740 401.5,-740 401.5,-740 395.5,-740 389.5,-734 389.5,-728 389.5,-728 389.5,-716 389.5,-716 389.5,-710 395.5,-704 401.5,-704 401.5,-704 601.5,-704 601.5,-704 607.5,-704 613.5,-710 613.5,-716 613.5,-716 613.5,-728 613.5,-728 613.5,-734 607.5,-740 601.5,-740"/>
<text text-anchor="middle" x="501.5" y="-719.8" font-family="Vera Sans, DejaVu Sans, Liberation Sans, Arial, Helvetica, sans" font-size="9.00" fill="#000000">ccmod.ConvCnstrMOD_Consensus.eval_objfn</text>
</a>
</g>
</g>
<!-- ccmod.ConvCnstrMOD_Consensus.eval_objfn&#45;&gt;ccmod.ConvCnstrMOD_Consensus.obfn_cns -->
<g id="edge2" class="edge">
<title>ccmod.ConvCnstrMOD_Consensus.eval_objfn&#45;&gt;ccmod.ConvCnstrMOD_Consensus.obfn_cns</title>
<path fill="none" stroke="#d88c8c" stroke-width="2" d="M588.94,-703.94C613.58,-698.86 640.54,-693.29 665.72,-688.09"/>
<polygon fill="#d88c8c" stroke="#d88c8c" stroke-width="2" points="666.5553,-691.4914 675.64,-686.04 665.1386,-684.6363 666.5553,-691.4914"/>
</g>
<!-- ccmod.ConvCnstrMOD_Consensus.eval_objfn&#45;&gt;ccmod.ConvCnstrMOD_Consensus.obfn_dfd -->
<g id="edge3" class="edge">
<title>ccmod.ConvCnstrMOD_Consensus.eval_objfn&#45;&gt;ccmod.ConvCnstrMOD_Consensus.obfn_dfd</title>
<path fill="none" stroke="#d88c8c" stroke-width="2" d="M613.54,-722C623.41,-722 633.44,-722 643.37,-722"/>
<polygon fill="#d88c8c" stroke="#d88c8c" stroke-width="2" points="643.69,-725.5001 653.69,-722 643.69,-718.5001 643.69,-725.5001"/>
</g>
<!-- ccmod.ConvCnstrMOD_Consensus.itstat_extra -->
<g id="node7" class="node">
<title>ccmod.ConvCnstrMOD_Consensus.itstat_extra</title>
<g id="a_node7"><a xlink:href="../../sporco.admm.ccmod.html#sporco.admm.ccmod.ConvCnstrMOD_Consensus.itstat_extra" xlink:title="ccmod.ConvCnstrMOD_Consensus.itstat_extra" target="_top">
<path fill="#d88c8c" stroke="#000000" stroke-width=".25" d="M605,-794C605,-794 398,-794 398,-794 392,-794 386,-788 386,-782 386,-782 386,-770 386,-770 386,-764 392,-758 398,-758 398,-758 605,-758 605,-758 611,-758 617,-764 617,-770 617,-770 617,-782 617,-782 617,-788 611,-794 605,-794"/>
<text text-anchor="middle" x="501.5" y="-773.8" font-family="Vera Sans, DejaVu Sans, Liberation Sans, Arial, Helvetica, sans" font-size="9.00" fill="#000000">ccmod.ConvCnstrMOD_Consensus.itstat_extra</text>
</a>
</g>
</g>
<!-- admm.ADMMConsensus.rsdl_s -->
<g id="node8" class="node">
<title>admm.ADMMConsensus.rsdl_s</title>
<g id="a_node8"><a xlink:href="../../sporco.admm.admm.html#sporco.admm.admm.ADMMConsensus.rsdl_s" xlink:title="admm.ADMMConsensus.rsdl_s" target="_top">
<path fill="#af8cd8" stroke="#000000" stroke-width=".25" d="M568.5,-152C568.5,-152 434.5,-152 434.5,-152 428.5,-152 422.5,-146 422.5,-140 422.5,-140 422.5,-128 422.5,-128 422.5,-122 428.5,-116 434.5,-116 434.5,-116 568.5,-116 568.5,-116 574.5,-116 580.5,-122 580.5,-128 580.5,-128 580.5,-140 580.5,-140 580.5,-146 574.5,-152 568.5,-152"/>
<text text-anchor="middle" x="501.5" y="-131.8" font-family="Vera Sans, DejaVu Sans, Liberation Sans, Arial, Helvetica, sans" font-size="9.00" fill="#000000">admm.ADMMConsensus.rsdl_s</text>
</a>
</g>
</g>
<!-- admm.ADMMConsensus.getmin -->
<g id="node9" class="node">
<title>admm.ADMMConsensus.getmin</title>
<g id="a_node9"><a xlink:href="../../sporco.admm.admm.html#sporco.admm.admm.ADMMConsensus.getmin" xlink:title="admm.ADMMConsensus.getmin" target="_top">
<path fill="#af8cd8" stroke="#000000" stroke-width=".25" d="M318,-206C318,-206 179,-206 179,-206 173,-206 167,-200 167,-194 167,-194 167,-182 167,-182 167,-176 173,-170 179,-170 179,-170 318,-170 318,-170 324,-170 330,-176 330,-182 330,-182 330,-194 330,-194 330,-200 324,-206 318,-206"/>
<text text-anchor="middle" x="248.5" y="-185.8" font-family="Vera Sans, DejaVu Sans, Liberation Sans, Arial, Helvetica, sans" font-size="9.00" fill="#000000">admm.ADMMConsensus.getmin</text>
</a>
</g>
</g>
<!-- admm.ADMMConsensus.ystep -->
<g id="node10" class="node">
<title>admm.ADMMConsensus.ystep</title>
<g id="a_node10"><a xlink:href="../../sporco.admm.admm.html#sporco.admm.admm.ADMMConsensus.ystep" xlink:title="admm.ADMMConsensus.ystep" target="_top">
<path fill="#af8cd8" stroke="#000000" stroke-width=".25" d="M314.5,-152C314.5,-152 182.5,-152 182.5,-152 176.5,-152 170.5,-146 170.5,-140 170.5,-140 170.5,-128 170.5,-128 170.5,-122 176.5,-116 182.5,-116 182.5,-116 314.5,-116 314.5,-116 320.5,-116 326.5,-122 326.5,-128 326.5,-128 326.5,-140 326.5,-140 326.5,-146 320.5,-152 314.5,-152"/>
<text text-anchor="middle" x="248.5" y="-131.8" font-family="Vera Sans, DejaVu Sans, Liberation Sans, Arial, Helvetica, sans" font-size="9.00" fill="#000000">admm.ADMMConsensus.ystep</text>
</a>
</g>
</g>
<!-- admm.ADMMConsensus.ystep&#45;&gt;ccmod.ConvCnstrMOD_Consensus.prox_g -->
<g id="edge12" class="edge">
<title>admm.ADMMConsensus.ystep&#45;&gt;ccmod.ConvCnstrMOD_Consensus.prox_g</title>
<path fill="none" stroke="#af8cd8" stroke-width="2" d="M326.68,-145.76C335.28,-149.56 343.33,-154.52 350,-161 385.94,-195.87 470.56,-539.11 494.86,-640.15"/>
<polygon fill="#af8cd8" stroke="#af8cd8" stroke-width="2" points="491.4746,-641.0418 497.21,-649.95 498.2816,-639.4095 491.4746,-641.0418"/>
</g>
<!-- admm.ADMMConsensus.rsdl_r -->
<g id="node11" class="node">
<title>admm.ADMMConsensus.rsdl_r</title>
<g id="a_node11"><a xlink:href="../../sporco.admm.admm.html#sporco.admm.admm.ADMMConsensus.rsdl_r" xlink:title="admm.ADMMConsensus.rsdl_r" target="_top">
<path fill="#af8cd8" stroke="#000000" stroke-width=".25" d="M567.5,-206C567.5,-206 435.5,-206 435.5,-206 429.5,-206 423.5,-200 423.5,-194 423.5,-194 423.5,-182 423.5,-182 423.5,-176 429.5,-170 435.5,-170 435.5,-170 567.5,-170 567.5,-170 573.5,-170 579.5,-176 579.5,-182 579.5,-182 579.5,-194 579.5,-194 579.5,-200 573.5,-206 567.5,-206"/>
<text text-anchor="middle" x="501.5" y="-185.8" font-family="Vera Sans, DejaVu Sans, Liberation Sans, Arial, Helvetica, sans" font-size="9.00" fill="#000000">admm.ADMMConsensus.rsdl_r</text>
</a>
</g>
</g>
<!-- admm.ADMMConsensus.relax_AX -->
<g id="node12" class="node">
<title>admm.ADMMConsensus.relax_AX</title>
<g id="a_node12"><a xlink:href="../../sporco.admm.admm.html#sporco.admm.admm.ADMMConsensus.relax_AX" xlink:title="admm.ADMMConsensus.relax_AX" target="_top">
<path fill="#af8cd8" stroke="#000000" stroke-width=".25" d="M321,-98C321,-98 176,-98 176,-98 170,-98 164,-92 164,-86 164,-86 164,-74 164,-74 164,-68 170,-62 176,-62 176,-62 321,-62 321,-62 327,-62 333,-68 333,-74 333,-74 333,-86 333,-86 333,-92 327,-98 321,-98"/>
<text text-anchor="middle" x="248.5" y="-77.8" font-family="Vera Sans, DejaVu Sans, Liberation Sans, Arial, Helvetica, sans" font-size="9.00" fill="#000000">admm.ADMMConsensus.relax_AX</text>
</a>
</g>
</g>
<!-- admm.ADMMConsensus.rsdl_sn -->
<g id="node13" class="node">
<title>admm.ADMMConsensus.rsdl_sn</title>
<g id="a_node13"><a xlink:href="../../sporco.admm.admm.html#sporco.admm.admm.ADMMConsensus.rsdl_sn" xlink:title="admm.ADMMConsensus.rsdl_sn" target="_top">
<path fill="#af8cd8" stroke="#000000" stroke-width=".25" d="M571.5,-98C571.5,-98 431.5,-98 431.5,-98 425.5,-98 419.5,-92 419.5,-86 419.5,-86 419.5,-74 419.5,-74 419.5,-68 425.5,-62 431.5,-62 431.5,-62 571.5,-62 571.5,-62 577.5,-62 583.5,-68 583.5,-74 583.5,-74 583.5,-86 583.5,-86 583.5,-92 577.5,-98 571.5,-98"/>
<text text-anchor="middle" x="501.5" y="-77.8" font-family="Vera Sans, DejaVu Sans, Liberation Sans, Arial, Helvetica, sans" font-size="9.00" fill="#000000">admm.ADMMConsensus.rsdl_sn</text>
</a>
</g>
</g>
<!-- admm.ADMMConsensus.rsdl_rn -->
<g id="node14" class="node">
<title>admm.ADMMConsensus.rsdl_rn</title>
<g id="a_node14"><a xlink:href="../../sporco.admm.admm.html#sporco.admm.admm.ADMMConsensus.rsdl_rn" xlink:title="admm.ADMMConsensus.rsdl_rn" target="_top">
<path fill="#af8cd8" stroke="#000000" stroke-width=".25" d="M570.5,-44C570.5,-44 432.5,-44 432.5,-44 426.5,-44 420.5,-38 420.5,-32 420.5,-32 420.5,-20 420.5,-20 420.5,-14 426.5,-8 432.5,-8 432.5,-8 570.5,-8 570.5,-8 576.5,-8 582.5,-14 582.5,-20 582.5,-20 582.5,-32 582.5,-32 582.5,-38 576.5,-44 570.5,-44"/>
<text text-anchor="middle" x="501.5" y="-23.8" font-family="Vera Sans, DejaVu Sans, Liberation Sans, Arial, Helvetica, sans" font-size="9.00" fill="#000000">admm.ADMMConsensus.rsdl_rn</text>
</a>
</g>
</g>
<!-- admm.ADMM.compute_residuals -->
<g id="node16" class="node">
<title>admm.ADMM.compute_residuals</title>
<g id="a_node16"><a xlink:href="../../sporco.admm.admm.html#sporco.admm.admm.ADMM.compute_residuals" xlink:title="admm.ADMM.compute_residuals" target="_top">
<path fill="#8ed88c" stroke="#000000" stroke-width=".25" d="M320,-284C320,-284 177,-284 177,-284 171,-284 165,-278 165,-272 165,-272 165,-260 165,-260 165,-254 171,-248 177,-248 177,-248 320,-248 320,-248 326,-248 332,-254 332,-260 332,-260 332,-272 332,-272 332,-278 326,-284 320,-284"/>
<text text-anchor="middle" x="248.5" y="-263.8" font-family="Vera Sans, DejaVu Sans, Liberation Sans, Arial, Helvetica, sans" font-size="9.00" fill="#000000">admm.ADMM.compute_residuals</text>
</a>
</g>
</g>
<!-- admm.ADMM.compute_residuals&#45;&gt;admm.ADMMConsensus.rsdl_s -->
<g id="edge13" class="edge">
<title>admm.ADMM.compute_residuals&#45;&gt;admm.ADMMConsensus.rsdl_s</title>
<path fill="none" stroke="#8ed88c" stroke-width="2" d="M331.89,-247.89C338.39,-244.57 344.54,-240.65 350,-236 378.15,-212.03 357.17,-184.15 386,-161 393.89,-154.67 403,-149.77 412.58,-145.99"/>
<polygon fill="#8ed88c" stroke="#8ed88c" stroke-width="2" points="414.0207,-149.1934 422.29,-142.57 411.6952,-142.5909 414.0207,-149.1934"/>
</g>
<!-- admm.ADMM.compute_residuals&#45;&gt;admm.ADMMConsensus.rsdl_r -->
<g id="edge14" class="edge">
<title>admm.ADMM.compute_residuals&#45;&gt;admm.ADMMConsensus.rsdl_r</title>
<path fill="none" stroke="#8ed88c" stroke-width="2" d="M310.28,-247.95C323.41,-244.05 337.17,-239.93 350,-236 378.2,-227.37 409.25,-217.58 435.87,-209.1"/>
<polygon fill="#8ed88c" stroke="#8ed88c" stroke-width="2" points="436.9972,-212.4143 445.46,-206.04 434.8693,-205.7455 436.9972,-212.4143"/>
</g>
<!-- admm.ADMM.compute_residuals&#45;&gt;admm.ADMMConsensus.rsdl_sn -->
<g id="edge15" class="edge">
<title>admm.ADMM.compute_residuals&#45;&gt;admm.ADMMConsensus.rsdl_sn</title>
<path fill="none" stroke="#8ed88c" stroke-width="2" d="M332.33,-249.15C338.82,-245.57 344.84,-241.24 350,-236 391.77,-193.59 343.03,-148.19 386,-107 392.9,-100.39 401.09,-95.29 409.87,-91.368"/>
<polygon fill="#8ed88c" stroke="#8ed88c" stroke-width="2" points="411.1928,-94.6088 419.22,-87.694 408.6327,-88.0937 411.1928,-94.6088"/>
</g>
<!-- admm.ADMM.compute_residuals&#45;&gt;admm.ADMMConsensus.rsdl_rn -->
<g id="edge16" class="edge">
<title>admm.ADMM.compute_residuals&#45;&gt;admm.ADMMConsensus.rsdl_rn</title>
<path fill="none" stroke="#8ed88c" stroke-width="2" d="M332.29,-249.85C338.87,-246.12 344.93,-241.57 350,-236 405.82,-174.72 328.43,-112.64 386,-53 393.03,-45.721 401.61,-40.242 410.89,-36.139"/>
<polygon fill="#8ed88c" stroke="#8ed88c" stroke-width="2" points="412.3087,-39.3432 420.38,-32.48 409.7904,-32.8119 412.3087,-39.3432"/>
</g>
<!-- admm.ADMM.ustep -->
<g id="node17" class="node">
<title>admm.ADMM.ustep</title>
<g id="a_node17"><a xlink:href="../../sporco.admm.admm.html#sporco.admm.admm.ADMM.ustep" xlink:title="admm.ADMM.ustep" target="_top">
<path fill="#8ed88c" stroke="#000000" stroke-width=".25" d="M289.5,-338C289.5,-338 207.5,-338 207.5,-338 201.5,-338 195.5,-332 195.5,-326 195.5,-326 195.5,-314 195.5,-314 195.5,-308 201.5,-302 207.5,-302 207.5,-302 289.5,-302 289.5,-302 295.5,-302 301.5,-308 301.5,-314 301.5,-314 301.5,-326 301.5,-326 301.5,-332 295.5,-338 289.5,-338"/>
<text text-anchor="middle" x="248.5" y="-317.8" font-family="Vera Sans, DejaVu Sans, Liberation Sans, Arial, Helvetica, sans" font-size="9.00" fill="#000000">admm.ADMM.ustep</text>
</a>
</g>
</g>
<!-- admm.ADMM.ustep&#45;&gt;admm.ADMMConsensus.rsdl_r -->
<g id="edge17" class="edge">
<title>admm.ADMM.ustep&#45;&gt;admm.ADMMConsensus.rsdl_r</title>
<path fill="none" stroke="#8ed88c" stroke-width="2" d="M301.61,-309.55C317.57,-305.45 334.86,-300 350,-293 396.2,-271.64 443.47,-236.29 472.65,-212.58"/>
<polygon fill="#8ed88c" stroke="#8ed88c" stroke-width="2" points="474.8746,-215.2821 480.38,-206.23 470.4312,-209.8732 474.8746,-215.2821"/>
</g>
<!-- admm.ADMM.display_status -->
<g id="node18" class="node">
<title>admm.ADMM.display_status</title>
<g id="a_node18"><a xlink:href="../../sporco.admm.admm.html#sporco.admm.admm.ADMM.display_status" xlink:title="admm.ADMM.display_status" target="_top">
<path fill="#8ed88c" stroke="#000000" stroke-width=".25" d="M309.5,-392C309.5,-392 187.5,-392 187.5,-392 181.5,-392 175.5,-386 175.5,-380 175.5,-380 175.5,-368 175.5,-368 175.5,-362 181.5,-356 187.5,-356 187.5,-356 309.5,-356 309.5,-356 315.5,-356 321.5,-362 321.5,-368 321.5,-368 321.5,-380 321.5,-380 321.5,-386 315.5,-392 309.5,-392"/>
<text text-anchor="middle" x="248.5" y="-371.8" font-family="Vera Sans, DejaVu Sans, Liberation Sans, Arial, Helvetica, sans" font-size="9.00" fill="#000000">admm.ADMM.display_status</text>
</a>
</g>
</g>
<!-- admm.ADMM.display_start -->
<g id="node19" class="node">
<title>admm.ADMM.display_start</title>
<g id="a_node19"><a xlink:href="../../sporco.admm.admm.html#sporco.admm.admm.ADMM.display_start" xlink:title="admm.ADMM.display_start" target="_top">
<path fill="#8ed88c" stroke="#000000" stroke-width=".25" d="M305.5,-446C305.5,-446 191.5,-446 191.5,-446 185.5,-446 179.5,-440 179.5,-434 179.5,-434 179.5,-422 179.5,-422 179.5,-416 185.5,-410 191.5,-410 191.5,-410 305.5,-410 305.5,-410 311.5,-410 317.5,-416 317.5,-422 317.5,-422 317.5,-434 317.5,-434 317.5,-440 311.5,-446 305.5,-446"/>
<text text-anchor="middle" x="248.5" y="-425.8" font-family="Vera Sans, DejaVu Sans, Liberation Sans, Arial, Helvetica, sans" font-size="9.00" fill="#000000">admm.ADMM.display_start</text>
</a>
</g>
</g>
<!-- admm.ADMM.update_rho -->
<g id="node20" class="node">
<title>admm.ADMM.update_rho</title>
<g id="a_node20"><a xlink:href="../../sporco.admm.admm.html#sporco.admm.admm.ADMM.update_rho" xlink:title="admm.ADMM.update_rho" target="_top">
<path fill="#8ed88c" stroke="#000000" stroke-width=".25" d="M303,-500C303,-500 194,-500 194,-500 188,-500 182,-494 182,-488 182,-488 182,-476 182,-476 182,-470 188,-464 194,-464 194,-464 303,-464 303,-464 309,-464 315,-470 315,-476 315,-476 315,-488 315,-488 315,-494 309,-500 303,-500"/>
<text text-anchor="middle" x="248.5" y="-479.8" font-family="Vera Sans, DejaVu Sans, Liberation Sans, Arial, Helvetica, sans" font-size="9.00" fill="#000000">admm.ADMM.update_rho</text>
</a>
</g>
</g>
<!-- admm.ADMM.iteration_stats -->
<g id="node21" class="node">
<title>admm.ADMM.iteration_stats</title>
<g id="a_node21"><a xlink:href="../../sporco.admm.admm.html#sporco.admm.admm.ADMM.iteration_stats" xlink:title="admm.ADMM.iteration_stats" target="_top">
<path fill="#8ed88c" stroke="#000000" stroke-width=".25" d="M310,-554C310,-554 187,-554 187,-554 181,-554 175,-548 175,-542 175,-542 175,-530 175,-530 175,-524 181,-518 187,-518 187,-518 310,-518 310,-518 316,-518 322,-524 322,-530 322,-530 322,-542 322,-542 322,-548 316,-554 310,-554"/>
<text text-anchor="middle" x="248.5" y="-533.8" font-family="Vera Sans, DejaVu Sans, Liberation Sans, Arial, Helvetica, sans" font-size="9.00" fill="#000000">admm.ADMM.iteration_stats</text>
</a>
</g>
</g>
<!-- admm.ADMM.iteration_stats&#45;&gt;ccmod.ConvCnstrMOD_Consensus.eval_objfn -->
<g id="edge18" class="edge">
<title>admm.ADMM.iteration_stats&#45;&gt;ccmod.ConvCnstrMOD_Consensus.eval_objfn</title>
<path fill="none" stroke="#8ed88c" stroke-width="2" d="M322.24,-545.68C332.54,-549.71 342.24,-555.29 350,-563 393.13,-605.86 342.22,-652.8 386,-695 386.98,-695.94 387.99,-696.86 389.02,-697.74"/>
<polygon fill="#8ed88c" stroke="#8ed88c" stroke-width="2" points="387.2489,-700.785 397.36,-703.95 391.4296,-695.1704 387.2489,-700.785"/>
</g>
<!-- admm.ADMM.iteration_stats&#45;&gt;ccmod.ConvCnstrMOD_Consensus.itstat_extra -->
<g id="edge19" class="edge">
<title>admm.ADMM.iteration_stats&#45;&gt;ccmod.ConvCnstrMOD_Consensus.itstat_extra</title>
<path fill="none" stroke="#8ed88c" stroke-width="2" d="M322.25,-544.98C332.67,-549.08 342.41,-554.87 350,-563 407.46,-624.55 327.62,-688.33 386,-749 386.8,-749.83 387.63,-750.65 388.47,-751.43"/>
<polygon fill="#8ed88c" stroke="#8ed88c" stroke-width="2" points="386.5539,-754.3804 396.54,-757.92 390.9408,-748.9256 386.5539,-754.3804"/>
</g>
<!-- admm.ADMM.display_end -->
<g id="node22" class="node">
<title>admm.ADMM.display_end</title>
<g id="a_node22"><a xlink:href="../../sporco.admm.admm.html#sporco.admm.admm.ADMM.display_end" xlink:title="admm.ADMM.display_end" target="_top">
<path fill="#8ed88c" stroke="#000000" stroke-width=".25" d="M303.5,-608C303.5,-608 193.5,-608 193.5,-608 187.5,-608 181.5,-602 181.5,-596 181.5,-596 181.5,-584 181.5,-584 181.5,-578 187.5,-572 193.5,-572 193.5,-572 303.5,-572 303.5,-572 309.5,-572 315.5,-578 315.5,-584 315.5,-584 315.5,-596 315.5,-596 315.5,-602 309.5,-608 303.5,-608"/>
<text text-anchor="middle" x="248.5" y="-587.8" font-family="Vera Sans, DejaVu Sans, Liberation Sans, Arial, Helvetica, sans" font-size="9.00" fill="#000000">admm.ADMM.display_end</text>
</a>
</g>
</g>
<!-- admm.ADMM.solve -->
<g id="node23" class="node">
<title>admm.ADMM.solve</title>
<g id="a_node23"><a xlink:href="../../sporco.admm.admm.html#sporco.admm.admm.ADMM.solve" xlink:title="admm.ADMM.solve" target="_top">
<path fill="#8ed88c" stroke="#000000" stroke-width=".25" d="M99,-392C99,-392 20,-392 20,-392 14,-392 8,-386 8,-380 8,-380 8,-368 8,-368 8,-362 14,-356 20,-356 20,-356 99,-356 99,-356 105,-356 111,-362 111,-368 111,-368 111,-380 111,-380 111,-386 105,-392 99,-392"/>
<text text-anchor="middle" x="59.5" y="-371.8" font-family="Vera Sans, DejaVu Sans, Liberation Sans, Arial, Helvetica, sans" font-size="9.00" fill="#000000">admm.ADMM.solve</text>
</a>
</g>
</g>
<!-- admm.ADMM.solve&#45;&gt;ccmod.ConvCnstrMOD_Consensus.xstep -->
<g id="edge20" class="edge">
<title>admm.ADMM.solve&#45;&gt;ccmod.ConvCnstrMOD_Consensus.xstep</title>
<path fill="none" stroke="#8ed88c" stroke-width="2" d="M62.655,-392.34C72.283,-446.26 102.85,-602.74 139,-638 141.22,-640.16 143.57,-642.17 146.04,-644.04"/>
<polygon fill="#8ed88c" stroke="#8ed88c" stroke-width="2" points="144.575,-647.2664 154.85,-649.85 148.4288,-641.4227 144.575,-647.2664"/>
</g>
<!-- admm.ADMM.solve&#45;&gt;admm.ADMMConsensus.getmin -->
<g id="edge21" class="edge">
<title>admm.ADMM.solve&#45;&gt;admm.ADMMConsensus.getmin</title>
<path fill="none" stroke="#8ed88c" stroke-width="2" d="M65.663,-355.92C76.352,-327 100.9,-270.14 139,-236 150.73,-225.49 165.13,-216.99 179.58,-210.24"/>
<polygon fill="#8ed88c" stroke="#8ed88c" stroke-width="2" points="181.3285,-213.2939 189.06,-206.05 178.4986,-206.8914 181.3285,-213.2939"/>
</g>
<!-- admm.ADMM.solve&#45;&gt;admm.ADMMConsensus.ystep -->
<g id="edge22" class="edge">
<title>admm.ADMM.solve&#45;&gt;admm.ADMMConsensus.ystep</title>
<path fill="none" stroke="#8ed88c" stroke-width="2" d="M60.757,-355.73C64.611,-314.48 79.904,-213.64 139,-161 145.53,-155.18 153.12,-150.57 161.2,-146.92"/>
<polygon fill="#8ed88c" stroke="#8ed88c" stroke-width="2" points="162.5077,-150.1666 170.49,-143.2 159.9055,-143.6682 162.5077,-150.1666"/>
</g>
<!-- admm.ADMM.solve&#45;&gt;admm.ADMMConsensus.relax_AX -->
<g id="edge23" class="edge">
<title>admm.ADMM.solve&#45;&gt;admm.ADMMConsensus.relax_AX</title>
<path fill="none" stroke="#8ed88c" stroke-width="2" d="M62.516,-355.8C71.867,-301.51 101.98,-142.29 139,-107 143.7,-102.52 149.01,-98.75 154.71,-95.58"/>
<polygon fill="#8ed88c" stroke="#8ed88c" stroke-width="2" points="156.4905,-98.6056 163.94,-91.072 153.4184,-92.3157 156.4905,-98.6056"/>
</g>
<!-- admm.ADMM.solve&#45;&gt;admm.ADMM.compute_residuals -->
<g id="edge4" class="edge">
<title>admm.ADMM.solve&#45;&gt;admm.ADMM.compute_residuals</title>
<path fill="none" stroke="#8ed88c" stroke-width="2" d="M72.306,-356C86.499,-337.4 111.1,-308.91 139,-293 144.18,-290.05 149.67,-287.42 155.33,-285.07"/>
<polygon fill="#8ed88c" stroke="#8ed88c" stroke-width="2" points="156.8911,-288.2207 164.99,-281.39 154.3991,-281.6793 156.8911,-288.2207"/>
</g>
<!-- admm.ADMM.solve&#45;&gt;admm.ADMM.ustep -->
<g id="edge5" class="edge">
<title>admm.ADMM.solve&#45;&gt;admm.ADMM.ustep</title>
<path fill="none" stroke="#8ed88c" stroke-width="2" d="M110.61,-355.92C120.01,-352.8 129.77,-349.7 139,-347 153.95,-342.63 170.19,-338.36 185.47,-334.56"/>
<polygon fill="#8ed88c" stroke="#8ed88c" stroke-width="2" points="186.4612,-337.9207 195.34,-332.14 184.7942,-331.1221 186.4612,-337.9207"/>
</g>
<!-- admm.ADMM.solve&#45;&gt;admm.ADMM.display_status -->
<g id="edge6" class="edge">
<title>admm.ADMM.solve&#45;&gt;admm.ADMM.display_status</title>
<path fill="none" stroke="#8ed88c" stroke-width="2" d="M111.15,-374C127.84,-374 146.79,-374 165.17,-374"/>
<polygon fill="#8ed88c" stroke="#8ed88c" stroke-width="2" points="165.31,-377.5001 175.31,-374 165.31,-370.5001 165.31,-377.5001"/>
</g>
<!-- admm.ADMM.solve&#45;&gt;admm.ADMM.display_start -->
<g id="edge7" class="edge">
<title>admm.ADMM.solve&#45;&gt;admm.ADMM.display_start</title>
<path fill="none" stroke="#8ed88c" stroke-width="2" d="M110.61,-392.08C120.01,-395.2 129.77,-398.3 139,-401 148.83,-403.87 159.21,-406.7 169.51,-409.38"/>
<polygon fill="#8ed88c" stroke="#8ed88c" stroke-width="2" points="168.7738,-412.8044 179.33,-411.9 170.5138,-406.0241 168.7738,-412.8044"/>
</g>
<!-- admm.ADMM.solve&#45;&gt;admm.ADMM.update_rho -->
<g id="edge8" class="edge">
<title>admm.ADMM.solve&#45;&gt;admm.ADMM.update_rho</title>
<path fill="none" stroke="#8ed88c" stroke-width="2" d="M72.306,-392C86.499,-410.6 111.1,-439.09 139,-455 149.23,-460.83 160.7,-465.42 172.26,-469.02"/>
<polygon fill="#8ed88c" stroke="#8ed88c" stroke-width="2" points="171.3923,-472.4122 181.97,-471.81 173.3255,-465.6844 171.3923,-472.4122"/>
</g>
<!-- admm.ADMM.solve&#45;&gt;admm.ADMM.iteration_stats -->
<g id="edge9" class="edge">
<title>admm.ADMM.solve&#45;&gt;admm.ADMM.iteration_stats</title>
<path fill="none" stroke="#8ed88c" stroke-width="2" d="M65.141,-392.46C75.098,-421.83 98.64,-478.94 139,-509 146.89,-514.88 155.9,-519.49 165.29,-523.1"/>
<polygon fill="#8ed88c" stroke="#8ed88c" stroke-width="2" points="164.1852,-526.4213 174.78,-526.39 166.4781,-519.8075 164.1852,-526.4213"/>
</g>
<!-- admm.ADMM.solve&#45;&gt;admm.ADMM.display_end -->
<g id="edge10" class="edge">
<title>admm.ADMM.solve&#45;&gt;admm.ADMM.display_end</title>
<path fill="none" stroke="#8ed88c" stroke-width="2" d="M61.727,-392.23C67.35,-430.08 85.691,-517.44 139,-563 148.4,-571.03 159.82,-576.74 171.69,-580.79"/>
<polygon fill="#8ed88c" stroke="#8ed88c" stroke-width="2" points="170.695,-584.1456 181.28,-583.69 172.7212,-577.4452 170.695,-584.1456"/>
</g>
</g>
</svg>
