<?xml version="1.0" encoding="UTF-8" standalone="no"?>
<!DOCTYPE svg PUBLIC "-//W3C//DTD SVG 1.1//EN"
 "http://www.w3.org/Graphics/SVG/1.1/DTD/svg11.dtd">
<!-- Generated by graphviz version 2.40.1 (20161225.0304)
 -->
<!-- Pages: 1 -->
<svg
 viewBox="0.00 0.00 1209.00 342.00" xmlns="http://www.w3.org/2000/svg" xmlns:xlink="http://www.w3.org/1999/xlink">
<g id="graph0" class="graph" transform="scale(1 1) rotate(0) translate(4 338)">
<polygon fill="transparent" stroke="transparent" points="-4,4 -4,-338 1205,-338 1205,4 -4,4"/>
<g id="clust1" class="cluster">
<title>cluster_ccmod.DictionarySize</title>
<polygon fill="transparent" stroke="#d88c8c" stroke-width="2" stroke-dasharray="1,5" points="834,0 834,-70 1000,-70 1000,0 834,0"/>
<text text-anchor="middle" x="917" y="-58.8" font-family="Vera Sans, DejaVu Sans, Liberation Sans, Arial, Helvetica, sans" font-size="9.00" fill="#000000">ccmod.DictionarySize</text>
</g>
<g id="clust4" class="cluster">
<title>cluster_ccmod.ConvCnstrMOD_IterSM</title>
<polygon fill="transparent" stroke="#ca8cd8" stroke-width="2" stroke-dasharray="1,5" points="181,-264 181,-334 385,-334 385,-264 181,-264"/>
<text text-anchor="middle" x="283" y="-322.8" font-family="Vera Sans, DejaVu Sans, Liberation Sans, Arial, Helvetica, sans" font-size="9.00" fill="#000000">ccmod.ConvCnstrMOD_IterSM</text>
</g>
<g id="clust2" class="cluster">
<title>cluster_ccmod.getPcn</title>
<polygon fill="transparent" stroke="#d88c8c" stroke-width="2" stroke-dasharray="1,5" points="666.5,0 666.5,-70 765.5,-70 765.5,0 666.5,0"/>
<text text-anchor="middle" x="716" y="-58.8" font-family="Vera Sans, DejaVu Sans, Liberation Sans, Arial, Helvetica, sans" font-size="9.00" fill="#000000">ccmod.getPcn</text>
</g>
<g id="clust3" class="cluster">
<title>cluster_ccmod.ConvRepIndexing</title>
<polygon fill="transparent" stroke="#d88cb1" stroke-width="2" stroke-dasharray="1,5" points="626,-78 626,-148 806,-148 806,-78 626,-78"/>
<text text-anchor="middle" x="716" y="-136.8" font-family="Vera Sans, DejaVu Sans, Liberation Sans, Arial, Helvetica, sans" font-size="9.00" fill="#000000">ccmod.ConvRepIndexing</text>
</g>
<g id="clust5" class="cluster">
<title>cluster_admm.ADMM</title>
<polygon fill="transparent" stroke="#8ed88c" stroke-width="2" stroke-dasharray="1,5" points="853.5,-78 853.5,-256 1181,-256 1181,-78 853.5,-78"/>
<text text-anchor="middle" x="1017.2" y="-244.8" font-family="Vera Sans, DejaVu Sans, Liberation Sans, Arial, Helvetica, sans" font-size="9.00" fill="#000000">admm.ADMM</text>
</g>
<g id="clust6" class="cluster">
<title>cluster_ccmod.ConvCnstrMODBase</title>
<polygon fill="transparent" stroke="#948cd8" stroke-width="2" stroke-dasharray="1,5" points="405,-264 405,-334 1201,-334 1201,-264 405,-264"/>
<text text-anchor="middle" x="803" y="-322.8" font-family="Vera Sans, DejaVu Sans, Liberation Sans, Arial, Helvetica, sans" font-size="9.00" fill="#000000">ccmod.ConvCnstrMODBase</text>
</g>
<g id="clust7" class="cluster">
<title>cluster_admm.ADMMEqual</title>
<polygon fill="transparent" stroke="#8cd8c1" stroke-width="2" stroke-dasharray="1,5" points="639.5,-186 639.5,-256 792.5,-256 792.5,-186 639.5,-186"/>
<text text-anchor="middle" x="716" y="-244.8" font-family="Vera Sans, DejaVu Sans, Liberation Sans, Arial, Helvetica, sans" font-size="9.00" fill="#000000">admm.ADMMEqual</text>
</g>
<g id="clust8" class="cluster">
<title>cluster_admm._ADMM_Meta</title>
<polygon fill="transparent" stroke="#8cbad8" stroke-width="2" stroke-dasharray="1,5" points="0,-264 0,-334 161,-334 161,-264 0,-264"/>
<text text-anchor="middle" x="80.5" y="-322.8" font-family="Vera Sans, DejaVu Sans, Liberation Sans, Arial, Helvetica, sans" font-size="9.00" fill="#000000">admm._ADMM_Meta</text>
</g>
<!-- ccmod.DictionarySize.__init__ -->
<g id="node1" class="node">
<title>ccmod.DictionarySize.__init__</title>
<g id="a_node1"><a xlink:href="../../sporco.admm.ccmod.html#sporco.admm.ccmod.DictionarySize.__init__" xlink:title="ccmod.DictionarySize.__init__" target="_top">
<path fill="#d88c8c" stroke="#000000" stroke-width=".25" d="M980,-44C980,-44 854,-44 854,-44 848,-44 842,-38 842,-32 842,-32 842,-20 842,-20 842,-14 848,-8 854,-8 854,-8 980,-8 980,-8 986,-8 992,-14 992,-20 992,-20 992,-32 992,-32 992,-38 986,-44 980,-44"/>
<text text-anchor="middle" x="917" y="-23.8" font-family="Vera Sans, DejaVu Sans, Liberation Sans, Arial, Helvetica, sans" font-size="9.00" fill="#000000">ccmod.DictionarySize.__init__</text>
</a>
</g>
</g>
<!-- ccmod.getPcn -->
<g id="node2" class="node">
<title>ccmod.getPcn</title>
<g id="a_node2"><a xlink:href="../../sporco.admm.ccmod.html#sporco.admm.ccmod.getPcn" xlink:title="ccmod.getPcn" target="_top">
<path fill="#d88c8c" stroke="#000000" stroke-width=".25" d="M745.5,-44C745.5,-44 686.5,-44 686.5,-44 680.5,-44 674.5,-38 674.5,-32 674.5,-32 674.5,-20 674.5,-20 674.5,-14 680.5,-8 686.5,-8 686.5,-8 745.5,-8 745.5,-8 751.5,-8 757.5,-14 757.5,-20 757.5,-20 757.5,-32 757.5,-32 757.5,-38 751.5,-44 745.5,-44"/>
<text text-anchor="middle" x="716" y="-23.8" font-family="Vera Sans, DejaVu Sans, Liberation Sans, Arial, Helvetica, sans" font-size="9.00" fill="#000000">ccmod.getPcn</text>
</a>
</g>
</g>
<!-- ccmod.ConvRepIndexing.__init__ -->
<g id="node3" class="node">
<title>ccmod.ConvRepIndexing.__init__</title>
<g id="a_node3"><a xlink:href="../../sporco.admm.ccmod.html#sporco.admm.ccmod.ConvRepIndexing.__init__" xlink:title="ccmod.ConvRepIndexing.__init__" target="_top">
<path fill="#d88cb1" stroke="#000000" stroke-width=".25" d="M786,-122C786,-122 646,-122 646,-122 640,-122 634,-116 634,-110 634,-110 634,-98 634,-98 634,-92 640,-86 646,-86 646,-86 786,-86 786,-86 792,-86 798,-92 798,-98 798,-98 798,-110 798,-110 798,-116 792,-122 786,-122"/>
<text text-anchor="middle" x="716" y="-101.8" font-family="Vera Sans, DejaVu Sans, Liberation Sans, Arial, Helvetica, sans" font-size="9.00" fill="#000000">ccmod.ConvRepIndexing.__init__</text>
</a>
</g>
</g>
<!-- ccmod.ConvRepIndexing.__init__&#45;&gt;ccmod.DictionarySize.__init__ -->
<g id="edge13" class="edge">
<title>ccmod.ConvRepIndexing.__init__&#45;&gt;ccmod.DictionarySize.__init__</title>
<path fill="none" stroke="#d88cb1" stroke-width="2" d="M772.92,-85.856C783.95,-82.105 795.38,-78.056 806,-74 826.65,-66.112 849.08,-56.594 868.35,-48.121"/>
<polygon fill="#d88cb1" stroke="#d88cb1" stroke-width="2" points="869.8028,-51.3055 877.53,-44.057 866.9691,-44.9047 869.8028,-51.3055"/>
</g>
<!-- ccmod.ConvCnstrMOD_IterSM.__init__ -->
<g id="node4" class="node">
<title>ccmod.ConvCnstrMOD_IterSM.__init__</title>
<g id="a_node4"><a xlink:href="../../sporco.admm.ccmod.html#sporco.admm.ccmod.ConvCnstrMOD_IterSM.__init__" xlink:title="ccmod.ConvCnstrMOD_IterSM.__init__" target="_top">
<path fill="#ca8cd8" stroke="#000000" stroke-width=".25" d="M365,-308C365,-308 201,-308 201,-308 195,-308 189,-302 189,-296 189,-296 189,-284 189,-284 189,-278 195,-272 201,-272 201,-272 365,-272 365,-272 371,-272 377,-278 377,-284 377,-284 377,-296 377,-296 377,-302 371,-308 365,-308"/>
<text text-anchor="middle" x="283" y="-287.8" font-family="Vera Sans, DejaVu Sans, Liberation Sans, Arial, Helvetica, sans" font-size="9.00" fill="#000000">ccmod.ConvCnstrMOD_IterSM.__init__</text>
</a>
</g>
</g>
<!-- ccmod.ConvCnstrMODBase.__init__ -->
<g id="node11" class="node">
<title>ccmod.ConvCnstrMODBase.__init__</title>
<g id="a_node11"><a xlink:href="../../sporco.admm.ccmod.html#sporco.admm.ccmod.ConvCnstrMODBase.__init__" xlink:title="ccmod.ConvCnstrMODBase.__init__" target="_top">
<path fill="#948cd8" stroke="#000000" stroke-width=".25" d="M578,-308C578,-308 425,-308 425,-308 419,-308 413,-302 413,-296 413,-296 413,-284 413,-284 413,-278 419,-272 425,-272 425,-272 578,-272 578,-272 584,-272 590,-278 590,-284 590,-284 590,-296 590,-296 590,-302 584,-308 578,-308"/>
<text text-anchor="middle" x="501.5" y="-287.8" font-family="Vera Sans, DejaVu Sans, Liberation Sans, Arial, Helvetica, sans" font-size="9.00" fill="#000000">ccmod.ConvCnstrMODBase.__init__</text>
</a>
</g>
</g>
<!-- ccmod.ConvCnstrMOD_IterSM.__init__&#45;&gt;ccmod.ConvCnstrMODBase.__init__ -->
<g id="edge12" class="edge">
<title>ccmod.ConvCnstrMOD_IterSM.__init__&#45;&gt;ccmod.ConvCnstrMODBase.__init__</title>
<path fill="none" stroke="#ca8cd8" stroke-width="2" d="M377.25,-290C385.62,-290 394.12,-290 402.53,-290"/>
<polygon fill="#ca8cd8" stroke="#ca8cd8" stroke-width="2" points="402.74,-293.5001 412.74,-290 402.74,-286.5001 402.74,-293.5001"/>
</g>
<!-- admm.ADMM.__init__ -->
<g id="node5" class="node">
<title>admm.ADMM.__init__</title>
<g id="a_node5"><a xlink:href="../../sporco.admm.admm.html#sporco.admm.admm.ADMM.__init__" xlink:title="admm.ADMM.__init__" target="_top">
<path fill="#8ed88c" stroke="#000000" stroke-width=".25" d="M960.5,-230C960.5,-230 873.5,-230 873.5,-230 867.5,-230 861.5,-224 861.5,-218 861.5,-218 861.5,-206 861.5,-206 861.5,-200 867.5,-194 873.5,-194 873.5,-194 960.5,-194 960.5,-194 966.5,-194 972.5,-200 972.5,-206 972.5,-206 972.5,-218 972.5,-218 972.5,-224 966.5,-230 960.5,-230"/>
<text text-anchor="middle" x="917" y="-209.8" font-family="Vera Sans, DejaVu Sans, Liberation Sans, Arial, Helvetica, sans" font-size="9.00" fill="#000000">admm.ADMM.__init__</text>
</a>
</g>
</g>
<!-- admm.ADMM.yinit -->
<g id="node6" class="node">
<title>admm.ADMM.yinit</title>
<g id="a_node6"><a xlink:href="../../sporco.admm.admm.html#sporco.admm.admm.ADMM.yinit" xlink:title="admm.ADMM.yinit" target="_top">
<path fill="#8ed88c" stroke="#000000" stroke-width=".25" d="M1147.5,-230C1147.5,-230 1073.5,-230 1073.5,-230 1067.5,-230 1061.5,-224 1061.5,-218 1061.5,-218 1061.5,-206 1061.5,-206 1061.5,-200 1067.5,-194 1073.5,-194 1073.5,-194 1147.5,-194 1147.5,-194 1153.5,-194 1159.5,-200 1159.5,-206 1159.5,-206 1159.5,-218 1159.5,-218 1159.5,-224 1153.5,-230 1147.5,-230"/>
<text text-anchor="middle" x="1110.5" y="-209.8" font-family="Vera Sans, DejaVu Sans, Liberation Sans, Arial, Helvetica, sans" font-size="9.00" fill="#000000">admm.ADMM.yinit</text>
</a>
</g>
</g>
<!-- admm.ADMM.__init__&#45;&gt;admm.ADMM.yinit -->
<g id="edge1" class="edge">
<title>admm.ADMM.__init__&#45;&gt;admm.ADMM.yinit</title>
<path fill="none" stroke="#8ed88c" stroke-width="2" d="M972.71,-212C997.3,-212 1026.3,-212 1051.3,-212"/>
<polygon fill="#8ed88c" stroke="#8ed88c" stroke-width="2" points="1051.4,-215.5001 1061.4,-212 1051.4,-208.5001 1051.4,-215.5001"/>
</g>
<!-- admm.ADMM.set_attr -->
<g id="node7" class="node">
<title>admm.ADMM.set_attr</title>
<g id="a_node7"><a xlink:href="../../sporco.admm.admm.html#sporco.admm.admm.ADMM.set_attr" xlink:title="admm.ADMM.set_attr" target="_top">
<path fill="#8ed88c" stroke="#000000" stroke-width=".25" d="M1156.5,-122C1156.5,-122 1064.5,-122 1064.5,-122 1058.5,-122 1052.5,-116 1052.5,-110 1052.5,-110 1052.5,-98 1052.5,-98 1052.5,-92 1058.5,-86 1064.5,-86 1064.5,-86 1156.5,-86 1156.5,-86 1162.5,-86 1168.5,-92 1168.5,-98 1168.5,-98 1168.5,-110 1168.5,-110 1168.5,-116 1162.5,-122 1156.5,-122"/>
<text text-anchor="middle" x="1110.5" y="-101.8" font-family="Vera Sans, DejaVu Sans, Liberation Sans, Arial, Helvetica, sans" font-size="9.00" fill="#000000">admm.ADMM.set_attr</text>
</a>
</g>
</g>
<!-- admm.ADMM.__init__&#45;&gt;admm.ADMM.set_attr -->
<g id="edge2" class="edge">
<title>admm.ADMM.__init__&#45;&gt;admm.ADMM.set_attr</title>
<path fill="none" stroke="#8ed88c" stroke-width="2" d="M972.66,-196.65C982.44,-192.31 992,-186.84 1000,-180 1019,-163.65 1008.6,-146.85 1028,-131 1032.6,-127.28 1037.7,-124.06 1043,-121.29"/>
<polygon fill="#8ed88c" stroke="#8ed88c" stroke-width="2" points="1044.6029,-124.4047 1052.2,-117.02 1041.6559,-118.0553 1044.6029,-124.4047"/>
</g>
<!-- admm.ADMM.set_dtype -->
<g id="node8" class="node">
<title>admm.ADMM.set_dtype</title>
<g id="a_node8"><a xlink:href="../../sporco.admm.admm.html#sporco.admm.admm.ADMM.set_dtype" xlink:title="admm.ADMM.set_dtype" target="_top">
<path fill="#8ed88c" stroke="#000000" stroke-width=".25" d="M1161,-176C1161,-176 1060,-176 1060,-176 1054,-176 1048,-170 1048,-164 1048,-164 1048,-152 1048,-152 1048,-146 1054,-140 1060,-140 1060,-140 1161,-140 1161,-140 1167,-140 1173,-146 1173,-152 1173,-152 1173,-164 1173,-164 1173,-170 1167,-176 1161,-176"/>
<text text-anchor="middle" x="1110.5" y="-155.8" font-family="Vera Sans, DejaVu Sans, Liberation Sans, Arial, Helvetica, sans" font-size="9.00" fill="#000000">admm.ADMM.set_dtype</text>
</a>
</g>
</g>
<!-- admm.ADMM.__init__&#45;&gt;admm.ADMM.set_dtype -->
<g id="edge3" class="edge">
<title>admm.ADMM.__init__&#45;&gt;admm.ADMM.set_dtype</title>
<path fill="none" stroke="#8ed88c" stroke-width="2" d="M972.71,-196.45C993,-190.78 1016.3,-184.28 1037.9,-178.25"/>
<polygon fill="#8ed88c" stroke="#8ed88c" stroke-width="2" points="1039.0061,-181.5752 1047.7,-175.52 1037.1275,-174.832 1039.0061,-181.5752"/>
</g>
<!-- ccmod.ConvCnstrMODBase.uinit -->
<g id="node10" class="node">
<title>ccmod.ConvCnstrMODBase.uinit</title>
<g id="a_node10"><a xlink:href="../../sporco.admm.ccmod.html#sporco.admm.ccmod.ConvCnstrMODBase.uinit" xlink:title="ccmod.ConvCnstrMODBase.uinit" target="_top">
<path fill="#948cd8" stroke="#000000" stroke-width=".25" d="M1181,-308C1181,-308 1040,-308 1040,-308 1034,-308 1028,-302 1028,-296 1028,-296 1028,-284 1028,-284 1028,-278 1034,-272 1040,-272 1040,-272 1181,-272 1181,-272 1187,-272 1193,-278 1193,-284 1193,-284 1193,-296 1193,-296 1193,-302 1187,-308 1181,-308"/>
<text text-anchor="middle" x="1110.5" y="-287.8" font-family="Vera Sans, DejaVu Sans, Liberation Sans, Arial, Helvetica, sans" font-size="9.00" fill="#000000">ccmod.ConvCnstrMODBase.uinit</text>
</a>
</g>
</g>
<!-- admm.ADMM.__init__&#45;&gt;ccmod.ConvCnstrMODBase.uinit -->
<g id="edge5" class="edge">
<title>admm.ADMM.__init__&#45;&gt;ccmod.ConvCnstrMODBase.uinit</title>
<path fill="none" stroke="#8ed88c" stroke-width="2" d="M957.09,-230.02C978.09,-239.28 1004.3,-250.57 1028,-260 1034.9,-262.75 1042.2,-265.54 1049.4,-268.26"/>
<polygon fill="#8ed88c" stroke="#8ed88c" stroke-width="2" points="1048.7066,-271.7346 1059.3,-271.91 1051.1281,-265.1668 1048.7066,-271.7346"/>
</g>
<!-- ccmod.ConvCnstrMODBase.setcoef -->
<g id="node9" class="node">
<title>ccmod.ConvCnstrMODBase.setcoef</title>
<g id="a_node9"><a xlink:href="../../sporco.admm.ccmod.html#sporco.admm.ccmod.ConvCnstrMODBase.setcoef" xlink:title="ccmod.ConvCnstrMODBase.setcoef" target="_top">
<path fill="#948cd8" stroke="#000000" stroke-width=".25" d="M794,-308C794,-308 638,-308 638,-308 632,-308 626,-302 626,-296 626,-296 626,-284 626,-284 626,-278 632,-272 638,-272 638,-272 794,-272 794,-272 800,-272 806,-278 806,-284 806,-284 806,-296 806,-296 806,-302 800,-308 794,-308"/>
<text text-anchor="middle" x="716" y="-287.8" font-family="Vera Sans, DejaVu Sans, Liberation Sans, Arial, Helvetica, sans" font-size="9.00" fill="#000000">ccmod.ConvCnstrMODBase.setcoef</text>
</a>
</g>
</g>
<!-- ccmod.ConvCnstrMODBase.__init__&#45;&gt;ccmod.getPcn -->
<g id="edge11" class="edge">
<title>ccmod.ConvCnstrMODBase.__init__&#45;&gt;ccmod.getPcn</title>
<path fill="none" stroke="#948cd8" stroke-width="2" d="M507.95,-271.85C523,-231.68 563.94,-134.05 626,-74 637.27,-63.091 651.52,-53.983 665.34,-46.738"/>
<polygon fill="#948cd8" stroke="#948cd8" stroke-width="2" points="666.943,-49.8497 674.32,-42.245 663.8108,-43.5895 666.943,-49.8497"/>
</g>
<!-- ccmod.ConvCnstrMODBase.__init__&#45;&gt;ccmod.ConvRepIndexing.__init__ -->
<g id="edge10" class="edge">
<title>ccmod.ConvCnstrMODBase.__init__&#45;&gt;ccmod.ConvRepIndexing.__init__</title>
<path fill="none" stroke="#948cd8" stroke-width="2" d="M514.75,-271.61C535.85,-243.26 579.47,-188.36 626,-152 638.02,-142.61 652.13,-134.1 665.58,-126.95"/>
<polygon fill="#948cd8" stroke="#948cd8" stroke-width="2" points="667.4671,-129.9148 674.75,-122.22 664.2581,-123.6937 667.4671,-129.9148"/>
</g>
<!-- ccmod.ConvCnstrMODBase.__init__&#45;&gt;admm.ADMM.set_attr -->
<g id="edge8" class="edge">
<title>ccmod.ConvCnstrMODBase.__init__&#45;&gt;admm.ADMM.set_attr</title>
<path fill="none" stroke="#948cd8" stroke-width="2" d="M516.64,-271.62C538.16,-246.86 580.11,-203.44 626,-182 630.71,-179.8 909.83,-135.62 1042.2,-114.75"/>
<polygon fill="#948cd8" stroke="#948cd8" stroke-width="2" points="1042.9611,-118.1736 1052.3,-113.17 1041.8792,-111.2577 1042.9611,-118.1736"/>
</g>
<!-- ccmod.ConvCnstrMODBase.__init__&#45;&gt;ccmod.ConvCnstrMODBase.setcoef -->
<g id="edge4" class="edge">
<title>ccmod.ConvCnstrMODBase.__init__&#45;&gt;ccmod.ConvCnstrMODBase.setcoef</title>
<path fill="none" stroke="#948cd8" stroke-width="2" d="M590.29,-290C598.65,-290 607.16,-290 615.62,-290"/>
<polygon fill="#948cd8" stroke="#948cd8" stroke-width="2" points="615.89,-293.5001 625.89,-290 615.89,-286.5001 615.89,-293.5001"/>
</g>
<!-- admm.ADMMEqual.__init__ -->
<g id="node12" class="node">
<title>admm.ADMMEqual.__init__</title>
<g id="a_node12"><a xlink:href="../../sporco.admm.admm.html#sporco.admm.admm.ADMMEqual.__init__" xlink:title="admm.ADMMEqual.__init__" target="_top">
<path fill="#8cd8c1" stroke="#000000" stroke-width=".25" d="M772.5,-230C772.5,-230 659.5,-230 659.5,-230 653.5,-230 647.5,-224 647.5,-218 647.5,-218 647.5,-206 647.5,-206 647.5,-200 653.5,-194 659.5,-194 659.5,-194 772.5,-194 772.5,-194 778.5,-194 784.5,-200 784.5,-206 784.5,-206 784.5,-218 784.5,-218 784.5,-224 778.5,-230 772.5,-230"/>
<text text-anchor="middle" x="716" y="-209.8" font-family="Vera Sans, DejaVu Sans, Liberation Sans, Arial, Helvetica, sans" font-size="9.00" fill="#000000">admm.ADMMEqual.__init__</text>
</a>
</g>
</g>
<!-- ccmod.ConvCnstrMODBase.__init__&#45;&gt;admm.ADMMEqual.__init__ -->
<g id="edge9" class="edge">
<title>ccmod.ConvCnstrMODBase.__init__&#45;&gt;admm.ADMMEqual.__init__</title>
<path fill="none" stroke="#948cd8" stroke-width="2" d="M551.25,-271.91C582.68,-260.48 623.46,-245.65 656.58,-233.61"/>
<polygon fill="#948cd8" stroke="#948cd8" stroke-width="2" points="657.9482,-236.8368 666.15,-230.13 655.5559,-230.2582 657.9482,-236.8368"/>
</g>
<!-- admm.ADMMEqual.__init__&#45;&gt;admm.ADMM.__init__ -->
<g id="edge6" class="edge">
<title>admm.ADMMEqual.__init__&#45;&gt;admm.ADMM.__init__</title>
<path fill="none" stroke="#8cd8c1" stroke-width="2" d="M784.61,-212C806.11,-212 829.79,-212 851.1,-212"/>
<polygon fill="#8cd8c1" stroke="#8cd8c1" stroke-width="2" points="851.35,-215.5001 861.35,-212 851.35,-208.5001 851.35,-215.5001"/>
</g>
<!-- admm._ADMM_Meta.__call__ -->
<g id="node13" class="node">
<title>admm._ADMM_Meta.__call__</title>
<g id="a_node13"><a xlink:href="../../sporco.admm.admm.html#sporco.admm.admm._ADMM_Meta.__call__" xlink:title="admm._ADMM_Meta.__call__" target="_top">
<path fill="#8cbad8" stroke="#000000" stroke-width=".25" d="M141,-308C141,-308 20,-308 20,-308 14,-308 8,-302 8,-296 8,-296 8,-284 8,-284 8,-278 14,-272 20,-272 20,-272 141,-272 141,-272 147,-272 153,-278 153,-284 153,-284 153,-296 153,-296 153,-302 147,-308 141,-308"/>
<text text-anchor="middle" x="80.5" y="-287.8" font-family="Vera Sans, DejaVu Sans, Liberation Sans, Arial, Helvetica, sans" font-size="9.00" fill="#000000">admm._ADMM_Meta.__call__</text>
</a>
</g>
</g>
<!-- admm._ADMM_Meta.__call__&#45;&gt;ccmod.ConvCnstrMOD_IterSM.__init__ -->
<g id="edge7" class="edge">
<title>admm._ADMM_Meta.__call__&#45;&gt;ccmod.ConvCnstrMOD_IterSM.__init__</title>
<path fill="none" stroke="#8cbad8" stroke-width="2" d="M153.04,-290C161.36,-290 169.96,-290 178.59,-290"/>
<polygon fill="#8cbad8" stroke="#8cbad8" stroke-width="2" points="178.72,-293.5001 188.72,-290 178.72,-286.5001 178.72,-293.5001"/>
</g>
</g>
</svg>
