<?xml version="1.0" encoding="UTF-8" standalone="no"?>
<!DOCTYPE svg PUBLIC "-//W3C//DTD SVG 1.1//EN"
 "http://www.w3.org/Graphics/SVG/1.1/DTD/svg11.dtd">
<!-- Generated by graphviz version 2.40.1 (20161225.0304)
 -->
<!-- Pages: 1 -->
<svg
 viewBox="0.00 0.00 1033.00 906.00" xmlns="http://www.w3.org/2000/svg" xmlns:xlink="http://www.w3.org/1999/xlink">
<g id="graph0" class="graph" transform="scale(1 1) rotate(0) translate(4 902)">
<polygon fill="transparent" stroke="transparent" points="-4,4 -4,-902 1029,-902 1029,4 -4,4"/>
<g id="clust1" class="cluster">
<title>cluster_admm.ADMMEqual</title>
<polygon fill="transparent" stroke="#8ca8d8" stroke-width="2" stroke-dasharray="1,5" points="158,-666 158,-898 1005,-898 1005,-666 158,-666"/>
<text text-anchor="middle" x="581.5" y="-886.8" font-family="Vera Sans, DejaVu Sans, Liberation Sans, Arial, Helvetica, sans" font-size="9.00" fill="#000000">admm.ADMMEqual</text>
</g>
<g id="clust2" class="cluster">
<title>cluster_ccmod.ConvCnstrMODBase</title>
<polygon fill="transparent" stroke="#d88cc3" stroke-width="2" stroke-dasharray="1,5" points="144.5,-78 144.5,-256 1025,-256 1025,-78 144.5,-78"/>
<text text-anchor="middle" x="584.75" y="-244.8" font-family="Vera Sans, DejaVu Sans, Liberation Sans, Arial, Helvetica, sans" font-size="9.00" fill="#000000">ccmod.ConvCnstrMODBase</text>
</g>
<g id="clust3" class="cluster">
<title>cluster_ccmod.ConvCnstrMOD_IterSM</title>
<polygon fill="transparent" stroke="#d88c8c" stroke-width="2" stroke-dasharray="1,5" points="139,0 139,-70 336,-70 336,0 139,0"/>
<text text-anchor="middle" x="237.5" y="-58.8" font-family="Vera Sans, DejaVu Sans, Liberation Sans, Arial, Helvetica, sans" font-size="9.00" fill="#000000">ccmod.ConvCnstrMOD_IterSM</text>
</g>
<g id="clust4" class="cluster">
<title>cluster_admm.ADMM</title>
<polygon fill="transparent" stroke="#8ed88c" stroke-width="2" stroke-dasharray="1,5" points="0,-264 0,-658 329,-658 329,-264 0,-264"/>
<text text-anchor="middle" x="164.5" y="-646.8" font-family="Vera Sans, DejaVu Sans, Liberation Sans, Arial, Helvetica, sans" font-size="9.00" fill="#000000">admm.ADMM</text>
</g>
<!-- admm.ADMMEqual.rsdl_s -->
<g id="node1" class="node">
<title>admm.ADMMEqual.rsdl_s</title>
<g id="a_node1"><a xlink:href="../../sporco.admm.admm.html#sporco.admm.admm.ADMMEqual.rsdl_s" xlink:title="admm.ADMMEqual.rsdl_s" target="_top">
<path fill="#8ca8d8" stroke="#000000" stroke-width=".25" d="M519.5,-818C519.5,-818 411.5,-818 411.5,-818 405.5,-818 399.5,-812 399.5,-806 399.5,-806 399.5,-794 399.5,-794 399.5,-788 405.5,-782 411.5,-782 411.5,-782 519.5,-782 519.5,-782 525.5,-782 531.5,-788 531.5,-794 531.5,-794 531.5,-806 531.5,-806 531.5,-812 525.5,-818 519.5,-818"/>
<text text-anchor="middle" x="465.5" y="-797.8" font-family="Vera Sans, DejaVu Sans, Liberation Sans, Arial, Helvetica, sans" font-size="9.00" fill="#000000">admm.ADMMEqual.rsdl_s</text>
</a>
</g>
</g>
<!-- admm.ADMMEqual.rsdl_r -->
<g id="node2" class="node">
<title>admm.ADMMEqual.rsdl_r</title>
<g id="a_node2"><a xlink:href="../../sporco.admm.admm.html#sporco.admm.admm.ADMMEqual.rsdl_r" xlink:title="admm.ADMMEqual.rsdl_r" target="_top">
<path fill="#8ca8d8" stroke="#000000" stroke-width=".25" d="M519,-710C519,-710 412,-710 412,-710 406,-710 400,-704 400,-698 400,-698 400,-686 400,-686 400,-680 406,-674 412,-674 412,-674 519,-674 519,-674 525,-674 531,-680 531,-686 531,-686 531,-698 531,-698 531,-704 525,-710 519,-710"/>
<text text-anchor="middle" x="465.5" y="-689.8" font-family="Vera Sans, DejaVu Sans, Liberation Sans, Arial, Helvetica, sans" font-size="9.00" fill="#000000">admm.ADMMEqual.rsdl_r</text>
</a>
</g>
</g>
<!-- admm.ADMMEqual.relax_AX -->
<g id="node3" class="node">
<title>admm.ADMMEqual.relax_AX</title>
<g id="a_node3"><a xlink:href="../../sporco.admm.admm.html#sporco.admm.admm.ADMMEqual.relax_AX" xlink:title="admm.ADMMEqual.relax_AX" target="_top">
<path fill="#8ca8d8" stroke="#000000" stroke-width=".25" d="M297,-764C297,-764 178,-764 178,-764 172,-764 166,-758 166,-752 166,-752 166,-740 166,-740 166,-734 172,-728 178,-728 178,-728 297,-728 297,-728 303,-728 309,-734 309,-740 309,-740 309,-752 309,-752 309,-758 303,-764 297,-764"/>
<text text-anchor="middle" x="237.5" y="-743.8" font-family="Vera Sans, DejaVu Sans, Liberation Sans, Arial, Helvetica, sans" font-size="9.00" fill="#000000">admm.ADMMEqual.relax_AX</text>
</a>
</g>
</g>
<!-- admm.ADMMEqual.obfn_gvar -->
<g id="node4" class="node">
<title>admm.ADMMEqual.obfn_gvar</title>
<g id="a_node4"><a xlink:href="../../sporco.admm.admm.html#sporco.admm.admm.ADMMEqual.obfn_gvar" xlink:title="admm.ADMMEqual.obfn_gvar" target="_top">
<path fill="#8ca8d8" stroke="#000000" stroke-width=".25" d="M985,-710C985,-710 858,-710 858,-710 852,-710 846,-704 846,-698 846,-698 846,-686 846,-686 846,-680 852,-674 858,-674 858,-674 985,-674 985,-674 991,-674 997,-680 997,-686 997,-686 997,-698 997,-698 997,-704 991,-710 985,-710"/>
<text text-anchor="middle" x="921.5" y="-689.8" font-family="Vera Sans, DejaVu Sans, Liberation Sans, Arial, Helvetica, sans" font-size="9.00" fill="#000000">admm.ADMMEqual.obfn_gvar</text>
</a>
</g>
</g>
<!-- admm.ADMMEqual.rsdl_rn -->
<g id="node5" class="node">
<title>admm.ADMMEqual.rsdl_rn</title>
<g id="a_node5"><a xlink:href="../../sporco.admm.admm.html#sporco.admm.admm.ADMMEqual.rsdl_rn" xlink:title="admm.ADMMEqual.rsdl_rn" target="_top">
<path fill="#8ca8d8" stroke="#000000" stroke-width=".25" d="M522,-764C522,-764 409,-764 409,-764 403,-764 397,-758 397,-752 397,-752 397,-740 397,-740 397,-734 403,-728 409,-728 409,-728 522,-728 522,-728 528,-728 534,-734 534,-740 534,-740 534,-752 534,-752 534,-758 528,-764 522,-764"/>
<text text-anchor="middle" x="465.5" y="-743.8" font-family="Vera Sans, DejaVu Sans, Liberation Sans, Arial, Helvetica, sans" font-size="9.00" fill="#000000">admm.ADMMEqual.rsdl_rn</text>
</a>
</g>
</g>
<!-- admm.ADMMEqual.rsdl_sn -->
<g id="node6" class="node">
<title>admm.ADMMEqual.rsdl_sn</title>
<g id="a_node6"><a xlink:href="../../sporco.admm.admm.html#sporco.admm.admm.ADMMEqual.rsdl_sn" xlink:title="admm.ADMMEqual.rsdl_sn" target="_top">
<path fill="#8ca8d8" stroke="#000000" stroke-width=".25" d="M522.5,-872C522.5,-872 408.5,-872 408.5,-872 402.5,-872 396.5,-866 396.5,-860 396.5,-860 396.5,-848 396.5,-848 396.5,-842 402.5,-836 408.5,-836 408.5,-836 522.5,-836 522.5,-836 528.5,-836 534.5,-842 534.5,-848 534.5,-848 534.5,-860 534.5,-860 534.5,-866 528.5,-872 522.5,-872"/>
<text text-anchor="middle" x="465.5" y="-851.8" font-family="Vera Sans, DejaVu Sans, Liberation Sans, Arial, Helvetica, sans" font-size="9.00" fill="#000000">admm.ADMMEqual.rsdl_sn</text>
</a>
</g>
</g>
<!-- admm.ADMMEqual.getmin -->
<g id="node7" class="node">
<title>admm.ADMMEqual.getmin</title>
<g id="a_node7"><a xlink:href="../../sporco.admm.admm.html#sporco.admm.admm.ADMMEqual.getmin" xlink:title="admm.ADMMEqual.getmin" target="_top">
<path fill="#8ca8d8" stroke="#000000" stroke-width=".25" d="M294,-710C294,-710 181,-710 181,-710 175,-710 169,-704 169,-698 169,-698 169,-686 169,-686 169,-680 175,-674 181,-674 181,-674 294,-674 294,-674 300,-674 306,-680 306,-686 306,-686 306,-698 306,-698 306,-704 300,-710 294,-710"/>
<text text-anchor="middle" x="237.5" y="-689.8" font-family="Vera Sans, DejaVu Sans, Liberation Sans, Arial, Helvetica, sans" font-size="9.00" fill="#000000">admm.ADMMEqual.getmin</text>
</a>
</g>
</g>
<!-- ccmod.ConvCnstrMODBase.xstep_check -->
<g id="node8" class="node">
<title>ccmod.ConvCnstrMODBase.xstep_check</title>
<g id="a_node8"><a xlink:href="../../sporco.admm.ccmod.html#sporco.admm.ccmod.ConvCnstrMODBase.xstep_check" xlink:title="ccmod.ConvCnstrMODBase.xstep_check" target="_top">
<path fill="#d88cc3" stroke="#000000" stroke-width=".25" d="M555,-122C555,-122 376,-122 376,-122 370,-122 364,-116 364,-110 364,-110 364,-98 364,-98 364,-92 370,-86 376,-86 376,-86 555,-86 555,-86 561,-86 567,-92 567,-98 567,-98 567,-110 567,-110 567,-116 561,-122 555,-122"/>
<text text-anchor="middle" x="465.5" y="-101.8" font-family="Vera Sans, DejaVu Sans, Liberation Sans, Arial, Helvetica, sans" font-size="9.00" fill="#000000">ccmod.ConvCnstrMODBase.xstep_check</text>
</a>
</g>
</g>
<!-- ccmod.ConvCnstrMODBase.obfn_fvarf -->
<g id="node9" class="node">
<title>ccmod.ConvCnstrMODBase.obfn_fvarf</title>
<g id="a_node9"><a xlink:href="../../sporco.admm.ccmod.html#sporco.admm.ccmod.ConvCnstrMODBase.obfn_fvarf" xlink:title="ccmod.ConvCnstrMODBase.obfn_fvarf" target="_top">
<path fill="#d88cc3" stroke="#000000" stroke-width=".25" d="M1005,-176C1005,-176 838,-176 838,-176 832,-176 826,-170 826,-164 826,-164 826,-152 826,-152 826,-146 832,-140 838,-140 838,-140 1005,-140 1005,-140 1011,-140 1017,-146 1017,-152 1017,-152 1017,-164 1017,-164 1017,-170 1011,-176 1005,-176"/>
<text text-anchor="middle" x="921.5" y="-155.8" font-family="Vera Sans, DejaVu Sans, Liberation Sans, Arial, Helvetica, sans" font-size="9.00" fill="#000000">ccmod.ConvCnstrMODBase.obfn_fvarf</text>
</a>
</g>
</g>
<!-- ccmod.ConvCnstrMODBase.ystep -->
<g id="node10" class="node">
<title>ccmod.ConvCnstrMODBase.ystep</title>
<g id="a_node10"><a xlink:href="../../sporco.admm.ccmod.html#sporco.admm.ccmod.ConvCnstrMODBase.ystep" xlink:title="ccmod.ConvCnstrMODBase.ystep" target="_top">
<path fill="#d88cc3" stroke="#000000" stroke-width=".25" d="M310.5,-230C310.5,-230 164.5,-230 164.5,-230 158.5,-230 152.5,-224 152.5,-218 152.5,-218 152.5,-206 152.5,-206 152.5,-200 158.5,-194 164.5,-194 164.5,-194 310.5,-194 310.5,-194 316.5,-194 322.5,-200 322.5,-206 322.5,-206 322.5,-218 322.5,-218 322.5,-224 316.5,-230 310.5,-230"/>
<text text-anchor="middle" x="237.5" y="-209.8" font-family="Vera Sans, DejaVu Sans, Liberation Sans, Arial, Helvetica, sans" font-size="9.00" fill="#000000">ccmod.ConvCnstrMODBase.ystep</text>
</a>
</g>
</g>
<!-- ccmod.ConvCnstrMODBase.obfn_dfd -->
<g id="node11" class="node">
<title>ccmod.ConvCnstrMODBase.obfn_dfd</title>
<g id="a_node11"><a xlink:href="../../sporco.admm.ccmod.html#sporco.admm.ccmod.ConvCnstrMODBase.obfn_dfd" xlink:title="ccmod.ConvCnstrMODBase.obfn_dfd" target="_top">
<path fill="#d88cc3" stroke="#000000" stroke-width=".25" d="M777,-176C777,-176 616,-176 616,-176 610,-176 604,-170 604,-164 604,-164 604,-152 604,-152 604,-146 610,-140 616,-140 616,-140 777,-140 777,-140 783,-140 789,-146 789,-152 789,-152 789,-164 789,-164 789,-170 783,-176 777,-176"/>
<text text-anchor="middle" x="696.5" y="-155.8" font-family="Vera Sans, DejaVu Sans, Liberation Sans, Arial, Helvetica, sans" font-size="9.00" fill="#000000">ccmod.ConvCnstrMODBase.obfn_dfd</text>
</a>
</g>
</g>
<!-- ccmod.ConvCnstrMODBase.obfn_dfd&#45;&gt;ccmod.ConvCnstrMODBase.obfn_fvarf -->
<g id="edge1" class="edge">
<title>ccmod.ConvCnstrMODBase.obfn_dfd&#45;&gt;ccmod.ConvCnstrMODBase.obfn_fvarf</title>
<path fill="none" stroke="#d88cc3" stroke-width="2" d="M789.32,-158C798.11,-158 807.07,-158 815.97,-158"/>
<polygon fill="#d88cc3" stroke="#d88cc3" stroke-width="2" points="815.99,-161.5001 825.99,-158 815.99,-154.5001 815.99,-161.5001"/>
</g>
<!-- ccmod.ConvCnstrMODBase.obfn_cns -->
<g id="node12" class="node">
<title>ccmod.ConvCnstrMODBase.obfn_cns</title>
<g id="a_node12"><a xlink:href="../../sporco.admm.ccmod.html#sporco.admm.ccmod.ConvCnstrMODBase.obfn_cns" xlink:title="ccmod.ConvCnstrMODBase.obfn_cns" target="_top">
<path fill="#d88cc3" stroke="#000000" stroke-width=".25" d="M778,-230C778,-230 615,-230 615,-230 609,-230 603,-224 603,-218 603,-218 603,-206 603,-206 603,-200 609,-194 615,-194 615,-194 778,-194 778,-194 784,-194 790,-200 790,-206 790,-206 790,-218 790,-218 790,-224 784,-230 778,-230"/>
<text text-anchor="middle" x="696.5" y="-209.8" font-family="Vera Sans, DejaVu Sans, Liberation Sans, Arial, Helvetica, sans" font-size="9.00" fill="#000000">ccmod.ConvCnstrMODBase.obfn_cns</text>
</a>
</g>
</g>
<!-- ccmod.ConvCnstrMODBase.obfn_cns&#45;&gt;admm.ADMMEqual.obfn_gvar -->
<g id="edge22" class="edge">
<title>ccmod.ConvCnstrMODBase.obfn_cns&#45;&gt;admm.ADMMEqual.obfn_gvar</title>
<path fill="none" stroke="#d88cc3" stroke-width="2" d="M705.05,-230.23C739.4,-303.52 867.55,-576.91 908.69,-664.68"/>
<polygon fill="#d88cc3" stroke="#d88cc3" stroke-width="2" points="905.5307,-666.1866 912.95,-673.75 911.8667,-663.2107 905.5307,-666.1866"/>
</g>
<!-- ccmod.ConvCnstrMODBase.eval_objfn -->
<g id="node13" class="node">
<title>ccmod.ConvCnstrMODBase.eval_objfn</title>
<g id="a_node13"><a xlink:href="../../sporco.admm.ccmod.html#sporco.admm.ccmod.ConvCnstrMODBase.eval_objfn" xlink:title="ccmod.ConvCnstrMODBase.eval_objfn" target="_top">
<path fill="#d88cc3" stroke="#000000" stroke-width=".25" d="M549,-176C549,-176 382,-176 382,-176 376,-176 370,-170 370,-164 370,-164 370,-152 370,-152 370,-146 376,-140 382,-140 382,-140 549,-140 549,-140 555,-140 561,-146 561,-152 561,-152 561,-164 561,-164 561,-170 555,-176 549,-176"/>
<text text-anchor="middle" x="465.5" y="-155.8" font-family="Vera Sans, DejaVu Sans, Liberation Sans, Arial, Helvetica, sans" font-size="9.00" fill="#000000">ccmod.ConvCnstrMODBase.eval_objfn</text>
</a>
</g>
</g>
<!-- ccmod.ConvCnstrMODBase.eval_objfn&#45;&gt;ccmod.ConvCnstrMODBase.obfn_dfd -->
<g id="edge2" class="edge">
<title>ccmod.ConvCnstrMODBase.eval_objfn&#45;&gt;ccmod.ConvCnstrMODBase.obfn_dfd</title>
<path fill="none" stroke="#d88cc3" stroke-width="2" d="M561.12,-158C571.85,-158 582.81,-158 593.61,-158"/>
<polygon fill="#d88cc3" stroke="#d88cc3" stroke-width="2" points="593.92,-161.5001 603.92,-158 593.92,-154.5001 593.92,-161.5001"/>
</g>
<!-- ccmod.ConvCnstrMODBase.eval_objfn&#45;&gt;ccmod.ConvCnstrMODBase.obfn_cns -->
<g id="edge3" class="edge">
<title>ccmod.ConvCnstrMODBase.eval_objfn&#45;&gt;ccmod.ConvCnstrMODBase.obfn_cns</title>
<path fill="none" stroke="#d88cc3" stroke-width="2" d="M542.74,-176.06C564.12,-181.05 587.48,-186.51 609.38,-191.63"/>
<polygon fill="#d88cc3" stroke="#d88cc3" stroke-width="2" points="608.7954,-195.0877 619.33,-193.96 610.3914,-188.2721 608.7954,-195.0877"/>
</g>
<!-- ccmod.ConvCnstrMODBase.itstat_extra -->
<g id="node14" class="node">
<title>ccmod.ConvCnstrMODBase.itstat_extra</title>
<g id="a_node14"><a xlink:href="../../sporco.admm.ccmod.html#sporco.admm.ccmod.ConvCnstrMODBase.itstat_extra" xlink:title="ccmod.ConvCnstrMODBase.itstat_extra" target="_top">
<path fill="#d88cc3" stroke="#000000" stroke-width=".25" d="M552.5,-230C552.5,-230 378.5,-230 378.5,-230 372.5,-230 366.5,-224 366.5,-218 366.5,-218 366.5,-206 366.5,-206 366.5,-200 372.5,-194 378.5,-194 378.5,-194 552.5,-194 552.5,-194 558.5,-194 564.5,-200 564.5,-206 564.5,-206 564.5,-218 564.5,-218 564.5,-224 558.5,-230 552.5,-230"/>
<text text-anchor="middle" x="465.5" y="-209.8" font-family="Vera Sans, DejaVu Sans, Liberation Sans, Arial, Helvetica, sans" font-size="9.00" fill="#000000">ccmod.ConvCnstrMODBase.itstat_extra</text>
</a>
</g>
</g>
<!-- ccmod.ConvCnstrMOD_IterSM.xstep -->
<g id="node15" class="node">
<title>ccmod.ConvCnstrMOD_IterSM.xstep</title>
<g id="a_node15"><a xlink:href="../../sporco.admm.ccmod.html#sporco.admm.ccmod.ConvCnstrMOD_IterSM.xstep" xlink:title="ccmod.ConvCnstrMOD_IterSM.xstep" target="_top">
<path fill="#d88c8c" stroke="#000000" stroke-width=".25" d="M316,-44C316,-44 159,-44 159,-44 153,-44 147,-38 147,-32 147,-32 147,-20 147,-20 147,-14 153,-8 159,-8 159,-8 316,-8 316,-8 322,-8 328,-14 328,-20 328,-20 328,-32 328,-32 328,-38 322,-44 316,-44"/>
<text text-anchor="middle" x="237.5" y="-23.8" font-family="Vera Sans, DejaVu Sans, Liberation Sans, Arial, Helvetica, sans" font-size="9.00" fill="#000000">ccmod.ConvCnstrMOD_IterSM.xstep</text>
</a>
</g>
</g>
<!-- ccmod.ConvCnstrMOD_IterSM.xstep&#45;&gt;ccmod.ConvCnstrMODBase.xstep_check -->
<g id="edge23" class="edge">
<title>ccmod.ConvCnstrMOD_IterSM.xstep&#45;&gt;ccmod.ConvCnstrMODBase.xstep_check</title>
<path fill="none" stroke="#d88c8c" stroke-width="2" d="M290.38,-44.091C323.93,-55.568 367.5,-70.475 402.79,-82.548"/>
<polygon fill="#d88c8c" stroke="#d88c8c" stroke-width="2" points="401.9154,-85.9479 412.51,-85.872 404.1805,-79.3245 401.9154,-85.9479"/>
</g>
<!-- admm.ADMM.iteration_stats -->
<g id="node16" class="node">
<title>admm.ADMM.iteration_stats</title>
<g id="a_node16"><a xlink:href="../../sporco.admm.admm.html#sporco.admm.admm.ADMM.iteration_stats" xlink:title="admm.ADMM.iteration_stats" target="_top">
<path fill="#8ed88c" stroke="#000000" stroke-width=".25" d="M299,-308C299,-308 176,-308 176,-308 170,-308 164,-302 164,-296 164,-296 164,-284 164,-284 164,-278 170,-272 176,-272 176,-272 299,-272 299,-272 305,-272 311,-278 311,-284 311,-284 311,-296 311,-296 311,-302 305,-308 299,-308"/>
<text text-anchor="middle" x="237.5" y="-287.8" font-family="Vera Sans, DejaVu Sans, Liberation Sans, Arial, Helvetica, sans" font-size="9.00" fill="#000000">admm.ADMM.iteration_stats</text>
</a>
</g>
</g>
<!-- admm.ADMM.iteration_stats&#45;&gt;ccmod.ConvCnstrMODBase.eval_objfn -->
<g id="edge11" class="edge">
<title>admm.ADMM.iteration_stats&#45;&gt;ccmod.ConvCnstrMODBase.eval_objfn</title>
<path fill="none" stroke="#8ed88c" stroke-width="2" d="M311.07,-276.01C320.2,-271.96 328.84,-266.73 336,-260 361.92,-235.63 337.65,-208.91 364,-185 365.14,-183.97 366.31,-182.97 367.52,-182.01"/>
<polygon fill="#8ed88c" stroke="#8ed88c" stroke-width="2" points="369.6623,-184.784 375.9,-176.22 365.6832,-179.0249 369.6623,-184.784"/>
</g>
<!-- admm.ADMM.iteration_stats&#45;&gt;ccmod.ConvCnstrMODBase.itstat_extra -->
<g id="edge12" class="edge">
<title>admm.ADMM.iteration_stats&#45;&gt;ccmod.ConvCnstrMODBase.itstat_extra</title>
<path fill="none" stroke="#8ed88c" stroke-width="2" d="M298.63,-272C311.04,-268.17 323.97,-264.06 336,-260 360.25,-251.82 386.8,-242.12 409.5,-233.58"/>
<polygon fill="#8ed88c" stroke="#8ed88c" stroke-width="2" points="410.8614,-236.8072 418.98,-230 408.3883,-230.2586 410.8614,-236.8072"/>
</g>
<!-- admm.ADMM.ustep -->
<g id="node17" class="node">
<title>admm.ADMM.ustep</title>
<g id="a_node17"><a xlink:href="../../sporco.admm.admm.html#sporco.admm.admm.ADMM.ustep" xlink:title="admm.ADMM.ustep" target="_top">
<path fill="#8ed88c" stroke="#000000" stroke-width=".25" d="M278.5,-362C278.5,-362 196.5,-362 196.5,-362 190.5,-362 184.5,-356 184.5,-350 184.5,-350 184.5,-338 184.5,-338 184.5,-332 190.5,-326 196.5,-326 196.5,-326 278.5,-326 278.5,-326 284.5,-326 290.5,-332 290.5,-338 290.5,-338 290.5,-350 290.5,-350 290.5,-356 284.5,-362 278.5,-362"/>
<text text-anchor="middle" x="237.5" y="-341.8" font-family="Vera Sans, DejaVu Sans, Liberation Sans, Arial, Helvetica, sans" font-size="9.00" fill="#000000">admm.ADMM.ustep</text>
</a>
</g>
</g>
<!-- admm.ADMM.ustep&#45;&gt;admm.ADMMEqual.rsdl_r -->
<g id="edge13" class="edge">
<title>admm.ADMM.ustep&#45;&gt;admm.ADMMEqual.rsdl_r</title>
<path fill="none" stroke="#8ed88c" stroke-width="2" d="M290.7,-349.38C306.79,-353.26 323.49,-359.86 336,-371 425.55,-450.73 454.18,-601.16 462.45,-663.66"/>
<polygon fill="#8ed88c" stroke="#8ed88c" stroke-width="2" points="459.02,-664.4397 463.73,-673.93 465.9663,-663.5739 459.02,-664.4397"/>
</g>
<!-- admm.ADMM.compute_residuals -->
<g id="node18" class="node">
<title>admm.ADMM.compute_residuals</title>
<g id="a_node18"><a xlink:href="../../sporco.admm.admm.html#sporco.admm.admm.ADMM.compute_residuals" xlink:title="admm.ADMM.compute_residuals" target="_top">
<path fill="#8ed88c" stroke="#000000" stroke-width=".25" d="M309,-416C309,-416 166,-416 166,-416 160,-416 154,-410 154,-404 154,-404 154,-392 154,-392 154,-386 160,-380 166,-380 166,-380 309,-380 309,-380 315,-380 321,-386 321,-392 321,-392 321,-404 321,-404 321,-410 315,-416 309,-416"/>
<text text-anchor="middle" x="237.5" y="-395.8" font-family="Vera Sans, DejaVu Sans, Liberation Sans, Arial, Helvetica, sans" font-size="9.00" fill="#000000">admm.ADMM.compute_residuals</text>
</a>
</g>
</g>
<!-- admm.ADMM.compute_residuals&#45;&gt;admm.ADMMEqual.rsdl_s -->
<g id="edge14" class="edge">
<title>admm.ADMM.compute_residuals&#45;&gt;admm.ADMMEqual.rsdl_s</title>
<path fill="none" stroke="#8ed88c" stroke-width="2" d="M321.23,-412.38C326.78,-415.79 331.81,-419.95 336,-425 385.49,-484.75 314.28,-713.44 364,-773 370.86,-781.22 379.92,-787.09 389.8,-791.26"/>
<polygon fill="#8ed88c" stroke="#8ed88c" stroke-width="2" points="388.8856,-794.6508 399.48,-794.75 391.2598,-788.0657 388.8856,-794.6508"/>
</g>
<!-- admm.ADMM.compute_residuals&#45;&gt;admm.ADMMEqual.rsdl_r -->
<g id="edge15" class="edge">
<title>admm.ADMM.compute_residuals&#45;&gt;admm.ADMMEqual.rsdl_r</title>
<path fill="none" stroke="#8ed88c" stroke-width="2" d="M321.27,-415.26C326.52,-418.04 331.5,-421.26 336,-425 412.89,-488.9 447.62,-609.35 459.93,-663.9"/>
<polygon fill="#8ed88c" stroke="#8ed88c" stroke-width="2" points="456.557,-664.8608 462.1,-673.89 463.3975,-663.3749 456.557,-664.8608"/>
</g>
<!-- admm.ADMM.compute_residuals&#45;&gt;admm.ADMMEqual.rsdl_rn -->
<g id="edge16" class="edge">
<title>admm.ADMM.compute_residuals&#45;&gt;admm.ADMMEqual.rsdl_rn</title>
<path fill="none" stroke="#8ed88c" stroke-width="2" d="M321.15,-412.45C326.72,-415.84 331.78,-419.98 336,-425 378.23,-475.23 321.58,-668.93 364,-719 370.34,-726.49 378.5,-732.02 387.44,-736.09"/>
<polygon fill="#8ed88c" stroke="#8ed88c" stroke-width="2" points="386.392,-739.4382 396.98,-739.82 388.9411,-732.9188 386.392,-739.4382"/>
</g>
<!-- admm.ADMM.compute_residuals&#45;&gt;admm.ADMMEqual.rsdl_sn -->
<g id="edge17" class="edge">
<title>admm.ADMM.compute_residuals&#45;&gt;admm.ADMMEqual.rsdl_sn</title>
<path fill="none" stroke="#8ed88c" stroke-width="2" d="M321.29,-412.33C326.83,-415.75 331.84,-419.93 336,-425 392.75,-494.27 306.99,-757.94 364,-827 370.16,-834.46 378.13,-839.99 386.89,-844.07"/>
<polygon fill="#8ed88c" stroke="#8ed88c" stroke-width="2" points="385.675,-847.3535 396.26,-847.81 388.27,-840.8522 385.675,-847.3535"/>
</g>
<!-- admm.ADMM.display_status -->
<g id="node19" class="node">
<title>admm.ADMM.display_status</title>
<g id="a_node19"><a xlink:href="../../sporco.admm.admm.html#sporco.admm.admm.ADMM.display_status" xlink:title="admm.ADMM.display_status" target="_top">
<path fill="#8ed88c" stroke="#000000" stroke-width=".25" d="M298.5,-470C298.5,-470 176.5,-470 176.5,-470 170.5,-470 164.5,-464 164.5,-458 164.5,-458 164.5,-446 164.5,-446 164.5,-440 170.5,-434 176.5,-434 176.5,-434 298.5,-434 298.5,-434 304.5,-434 310.5,-440 310.5,-446 310.5,-446 310.5,-458 310.5,-458 310.5,-464 304.5,-470 298.5,-470"/>
<text text-anchor="middle" x="237.5" y="-449.8" font-family="Vera Sans, DejaVu Sans, Liberation Sans, Arial, Helvetica, sans" font-size="9.00" fill="#000000">admm.ADMM.display_status</text>
</a>
</g>
</g>
<!-- admm.ADMM.display_start -->
<g id="node20" class="node">
<title>admm.ADMM.display_start</title>
<g id="a_node20"><a xlink:href="../../sporco.admm.admm.html#sporco.admm.admm.ADMM.display_start" xlink:title="admm.ADMM.display_start" target="_top">
<path fill="#8ed88c" stroke="#000000" stroke-width=".25" d="M294.5,-524C294.5,-524 180.5,-524 180.5,-524 174.5,-524 168.5,-518 168.5,-512 168.5,-512 168.5,-500 168.5,-500 168.5,-494 174.5,-488 180.5,-488 180.5,-488 294.5,-488 294.5,-488 300.5,-488 306.5,-494 306.5,-500 306.5,-500 306.5,-512 306.5,-512 306.5,-518 300.5,-524 294.5,-524"/>
<text text-anchor="middle" x="237.5" y="-503.8" font-family="Vera Sans, DejaVu Sans, Liberation Sans, Arial, Helvetica, sans" font-size="9.00" fill="#000000">admm.ADMM.display_start</text>
</a>
</g>
</g>
<!-- admm.ADMM.update_rho -->
<g id="node21" class="node">
<title>admm.ADMM.update_rho</title>
<g id="a_node21"><a xlink:href="../../sporco.admm.admm.html#sporco.admm.admm.ADMM.update_rho" xlink:title="admm.ADMM.update_rho" target="_top">
<path fill="#8ed88c" stroke="#000000" stroke-width=".25" d="M292,-578C292,-578 183,-578 183,-578 177,-578 171,-572 171,-566 171,-566 171,-554 171,-554 171,-548 177,-542 183,-542 183,-542 292,-542 292,-542 298,-542 304,-548 304,-554 304,-554 304,-566 304,-566 304,-572 298,-578 292,-578"/>
<text text-anchor="middle" x="237.5" y="-557.8" font-family="Vera Sans, DejaVu Sans, Liberation Sans, Arial, Helvetica, sans" font-size="9.00" fill="#000000">admm.ADMM.update_rho</text>
</a>
</g>
</g>
<!-- admm.ADMM.display_end -->
<g id="node22" class="node">
<title>admm.ADMM.display_end</title>
<g id="a_node22"><a xlink:href="../../sporco.admm.admm.html#sporco.admm.admm.ADMM.display_end" xlink:title="admm.ADMM.display_end" target="_top">
<path fill="#8ed88c" stroke="#000000" stroke-width=".25" d="M292.5,-632C292.5,-632 182.5,-632 182.5,-632 176.5,-632 170.5,-626 170.5,-620 170.5,-620 170.5,-608 170.5,-608 170.5,-602 176.5,-596 182.5,-596 182.5,-596 292.5,-596 292.5,-596 298.5,-596 304.5,-602 304.5,-608 304.5,-608 304.5,-620 304.5,-620 304.5,-626 298.5,-632 292.5,-632"/>
<text text-anchor="middle" x="237.5" y="-611.8" font-family="Vera Sans, DejaVu Sans, Liberation Sans, Arial, Helvetica, sans" font-size="9.00" fill="#000000">admm.ADMM.display_end</text>
</a>
</g>
</g>
<!-- admm.ADMM.solve -->
<g id="node23" class="node">
<title>admm.ADMM.solve</title>
<g id="a_node23"><a xlink:href="../../sporco.admm.admm.html#sporco.admm.admm.ADMM.solve" xlink:title="admm.ADMM.solve" target="_top">
<path fill="#8ed88c" stroke="#000000" stroke-width=".25" d="M99,-470C99,-470 20,-470 20,-470 14,-470 8,-464 8,-458 8,-458 8,-446 8,-446 8,-440 14,-434 20,-434 20,-434 99,-434 99,-434 105,-434 111,-440 111,-446 111,-446 111,-458 111,-458 111,-464 105,-470 99,-470"/>
<text text-anchor="middle" x="59.5" y="-449.8" font-family="Vera Sans, DejaVu Sans, Liberation Sans, Arial, Helvetica, sans" font-size="9.00" fill="#000000">admm.ADMM.solve</text>
</a>
</g>
</g>
<!-- admm.ADMM.solve&#45;&gt;admm.ADMMEqual.relax_AX -->
<g id="edge18" class="edge">
<title>admm.ADMM.solve&#45;&gt;admm.ADMMEqual.relax_AX</title>
<path fill="none" stroke="#8ed88c" stroke-width="2" d="M62.557,-470.16C72.027,-524.32 102.44,-683.23 139,-719 144.02,-723.92 149.85,-727.96 156.12,-731.28"/>
<polygon fill="#8ed88c" stroke="#8ed88c" stroke-width="2" points="155.0235,-734.6286 165.57,-735.64 157.9561,-728.2725 155.0235,-734.6286"/>
</g>
<!-- admm.ADMM.solve&#45;&gt;admm.ADMMEqual.getmin -->
<g id="edge19" class="edge">
<title>admm.ADMM.solve&#45;&gt;admm.ADMMEqual.getmin</title>
<path fill="none" stroke="#8ed88c" stroke-width="2" d="M61.076,-470.1C65.572,-510.52 82.073,-608.73 139,-662 144.97,-667.58 151.94,-672.13 159.37,-675.83"/>
<polygon fill="#8ed88c" stroke="#8ed88c" stroke-width="2" points="158.4285,-679.2404 168.99,-680.08 161.2573,-672.8374 158.4285,-679.2404"/>
</g>
<!-- admm.ADMM.solve&#45;&gt;ccmod.ConvCnstrMODBase.ystep -->
<g id="edge20" class="edge">
<title>admm.ADMM.solve&#45;&gt;ccmod.ConvCnstrMODBase.ystep</title>
<path fill="none" stroke="#8ed88c" stroke-width="2" d="M62.569,-433.79C69.685,-396.69 90.544,-311.5 139,-260 148.7,-249.69 161.09,-241.31 173.78,-234.62"/>
<polygon fill="#8ed88c" stroke="#8ed88c" stroke-width="2" points="175.6216,-237.6142 183.04,-230.05 172.5236,-231.3371 175.6216,-237.6142"/>
</g>
<!-- admm.ADMM.solve&#45;&gt;ccmod.ConvCnstrMOD_IterSM.xstep -->
<g id="edge21" class="edge">
<title>admm.ADMM.solve&#45;&gt;ccmod.ConvCnstrMOD_IterSM.xstep</title>
<path fill="none" stroke="#8ed88c" stroke-width="2" d="M61.218,-433.76C67.886,-366.29 93.95,-131.77 139,-74 147.11,-63.6 158.05,-55.313 169.7,-48.757"/>
<polygon fill="#8ed88c" stroke="#8ed88c" stroke-width="2" points="171.4446,-51.7947 178.7,-44.074 168.2135,-45.5851 171.4446,-51.7947"/>
</g>
<!-- admm.ADMM.solve&#45;&gt;admm.ADMM.iteration_stats -->
<g id="edge4" class="edge">
<title>admm.ADMM.solve&#45;&gt;admm.ADMM.iteration_stats</title>
<path fill="none" stroke="#8ed88c" stroke-width="2" d="M65.231,-433.66C75.315,-404.46 99.04,-347.58 139,-317 143.78,-313.34 149.03,-310.18 154.53,-307.44"/>
<polygon fill="#8ed88c" stroke="#8ed88c" stroke-width="2" points="156.2777,-310.4937 164,-303.24 153.4397,-304.0948 156.2777,-310.4937"/>
</g>
<!-- admm.ADMM.solve&#45;&gt;admm.ADMM.ustep -->
<g id="edge5" class="edge">
<title>admm.ADMM.solve&#45;&gt;admm.ADMM.ustep</title>
<path fill="none" stroke="#8ed88c" stroke-width="2" d="M72.652,-433.8C86.952,-415.31 111.48,-387.17 139,-371 149.86,-364.62 162.27,-359.7 174.54,-355.93"/>
<polygon fill="#8ed88c" stroke="#8ed88c" stroke-width="2" points="175.6638,-359.2491 184.32,-353.14 173.7435,-352.5177 175.6638,-359.2491"/>
</g>
<!-- admm.ADMM.solve&#45;&gt;admm.ADMM.compute_residuals -->
<g id="edge6" class="edge">
<title>admm.ADMM.solve&#45;&gt;admm.ADMM.compute_residuals</title>
<path fill="none" stroke="#8ed88c" stroke-width="2" d="M111.1,-433.98C120.36,-430.88 129.94,-427.78 139,-425 145.76,-422.93 152.8,-420.85 159.88,-418.81"/>
<polygon fill="#8ed88c" stroke="#8ed88c" stroke-width="2" points="160.8638,-422.1691 169.52,-416.06 158.9435,-415.4376 160.8638,-422.1691"/>
</g>
<!-- admm.ADMM.solve&#45;&gt;admm.ADMM.display_status -->
<g id="edge7" class="edge">
<title>admm.ADMM.solve&#45;&gt;admm.ADMM.display_status</title>
<path fill="none" stroke="#8ed88c" stroke-width="2" d="M111.46,-452C124.89,-452 139.68,-452 154.26,-452"/>
<polygon fill="#8ed88c" stroke="#8ed88c" stroke-width="2" points="154.31,-455.5001 164.31,-452 154.31,-448.5001 154.31,-455.5001"/>
</g>
<!-- admm.ADMM.solve&#45;&gt;admm.ADMM.display_start -->
<g id="edge8" class="edge">
<title>admm.ADMM.solve&#45;&gt;admm.ADMM.display_start</title>
<path fill="none" stroke="#8ed88c" stroke-width="2" d="M111.1,-470.02C120.36,-473.12 129.94,-476.22 139,-479 145.76,-481.07 152.8,-483.15 159.88,-485.19"/>
<polygon fill="#8ed88c" stroke="#8ed88c" stroke-width="2" points="158.9435,-488.5624 169.52,-487.94 160.8638,-481.8309 158.9435,-488.5624"/>
</g>
<!-- admm.ADMM.solve&#45;&gt;admm.ADMM.update_rho -->
<g id="edge9" class="edge">
<title>admm.ADMM.solve&#45;&gt;admm.ADMM.update_rho</title>
<path fill="none" stroke="#8ed88c" stroke-width="2" d="M72.652,-470.2C86.952,-488.69 111.48,-516.83 139,-533 145.96,-537.09 153.55,-540.57 161.34,-543.54"/>
<polygon fill="#8ed88c" stroke="#8ed88c" stroke-width="2" points="160.3052,-546.8864 170.9,-546.92 162.6386,-540.2867 160.3052,-546.8864"/>
</g>
<!-- admm.ADMM.solve&#45;&gt;admm.ADMM.display_end -->
<g id="edge10" class="edge">
<title>admm.ADMM.solve&#45;&gt;admm.ADMM.display_end</title>
<path fill="none" stroke="#8ed88c" stroke-width="2" d="M65.231,-470.34C75.315,-499.54 99.04,-556.42 139,-587 145.63,-592.07 153.15,-596.19 161.02,-599.54"/>
<polygon fill="#8ed88c" stroke="#8ed88c" stroke-width="2" points="159.7796,-602.8128 170.37,-603.12 162.2827,-596.2756 159.7796,-602.8128"/>
</g>
</g>
</svg>
