<?xml version="1.0" encoding="UTF-8" standalone="no"?>
<!DOCTYPE svg PUBLIC "-//W3C//DTD SVG 1.1//EN"
 "http://www.w3.org/Graphics/SVG/1.1/DTD/svg11.dtd">
<!-- Generated by graphviz version 2.40.1 (20161225.0304)
 -->
<!-- Pages: 1 -->
<svg
 viewBox="0.00 0.00 1238.00 400.00" xmlns="http://www.w3.org/2000/svg" xmlns:xlink="http://www.w3.org/1999/xlink">
<g id="graph0" class="graph" transform="scale(1 1) rotate(0) translate(4 396)">
<polygon fill="transparent" stroke="transparent" points="-4,4 -4,-396 1234,-396 1234,4 -4,4"/>
<g id="clust1" class="cluster">
<title>cluster_admm.ADMMEqual</title>
<polygon fill="transparent" stroke="#8cd8c9" stroke-width="2" stroke-dasharray="1,5" points="756,-244 756,-314 909,-314 909,-244 756,-244"/>
<text text-anchor="middle" x="832.5" y="-302.8" font-family="Vera Sans, DejaVu Sans, Liberation Sans, Arial, Helvetica, sans" font-size="9.00" fill="#000000">admm.ADMMEqual</text>
</g>
<g id="clust2" class="cluster">
<title>cluster_cbpdn.ConvBPDN</title>
<polygon fill="transparent" stroke="#af8cd8" stroke-width="2" stroke-dasharray="1,5" points="371,-322 371,-392 1227.5,-392 1227.5,-322 371,-322"/>
<text text-anchor="middle" x="799.25" y="-380.8" font-family="Vera Sans, DejaVu Sans, Liberation Sans, Arial, Helvetica, sans" font-size="9.00" fill="#000000">cbpdn.ConvBPDN</text>
</g>
<g id="clust3" class="cluster">
<title>cluster_admm._ADMM_Meta</title>
<polygon fill="transparent" stroke="#8ca8d8" stroke-width="2" stroke-dasharray="1,5" points="0,-20 0,-90 161,-90 161,-20 0,-20"/>
<text text-anchor="middle" x="80.5" y="-78.8" font-family="Vera Sans, DejaVu Sans, Liberation Sans, Arial, Helvetica, sans" font-size="9.00" fill="#000000">admm._ADMM_Meta</text>
</g>
<g id="clust4" class="cluster">
<title>cluster_cbpdn.ConvRepIndexing</title>
<polygon fill="transparent" stroke="#d88c8c" stroke-width="2" stroke-dasharray="1,5" points="743,-166 743,-236 922,-236 922,-166 743,-166"/>
<text text-anchor="middle" x="832.5" y="-224.8" font-family="Vera Sans, DejaVu Sans, Liberation Sans, Arial, Helvetica, sans" font-size="9.00" fill="#000000">cbpdn.ConvRepIndexing</text>
</g>
<g id="clust5" class="cluster">
<title>cluster_admm.ADMM</title>
<polygon fill="transparent" stroke="#8ed88c" stroke-width="2" stroke-dasharray="1,5" points="942,-82 942,-260 1230,-260 1230,-82 942,-82"/>
<text text-anchor="middle" x="1086" y="-248.8" font-family="Vera Sans, DejaVu Sans, Liberation Sans, Arial, Helvetica, sans" font-size="9.00" fill="#000000">admm.ADMM</text>
</g>
<g id="clust6" class="cluster">
<title>cluster_cbpdn.ConvElasticNet</title>
<polygon fill="transparent" stroke="#d88cc3" stroke-width="2" stroke-dasharray="1,5" points="181,-20 181,-90 917.5,-90 917.5,-20 181,-20"/>
<text text-anchor="middle" x="549.25" y="-78.8" font-family="Vera Sans, DejaVu Sans, Liberation Sans, Arial, Helvetica, sans" font-size="9.00" fill="#000000">cbpdn.ConvElasticNet</text>
</g>
<g id="clust7" class="cluster">
<title>cluster_cbpdn.GenericConvBPDN</title>
<polygon fill="transparent" stroke="#d88c8c" stroke-width="2" stroke-dasharray="1,5" points="539,-205 539,-275 723,-275 723,-205 539,-205"/>
<text text-anchor="middle" x="631" y="-263.8" font-family="Vera Sans, DejaVu Sans, Liberation Sans, Arial, Helvetica, sans" font-size="9.00" fill="#000000">cbpdn.GenericConvBPDN</text>
</g>
<!-- admm.ADMMEqual.__init__ -->
<g id="node1" class="node">
<title>admm.ADMMEqual.__init__</title>
<g id="a_node1"><a xlink:href="../../sporco.admm.admm.html#sporco.admm.admm.ADMMEqual.__init__" xlink:title="admm.ADMMEqual.__init__" target="_top">
<path fill="#8cd8c9" stroke="#000000" stroke-width=".25" d="M889,-288C889,-288 776,-288 776,-288 770,-288 764,-282 764,-276 764,-276 764,-264 764,-264 764,-258 770,-252 776,-252 776,-252 889,-252 889,-252 895,-252 901,-258 901,-264 901,-264 901,-276 901,-276 901,-282 895,-288 889,-288"/>
<text text-anchor="middle" x="832.5" y="-267.8" font-family="Vera Sans, DejaVu Sans, Liberation Sans, Arial, Helvetica, sans" font-size="9.00" fill="#000000">admm.ADMMEqual.__init__</text>
</a>
</g>
</g>
<!-- admm.ADMM.__init__ -->
<g id="node6" class="node">
<title>admm.ADMM.__init__</title>
<g id="a_node6"><a xlink:href="../../sporco.admm.admm.html#sporco.admm.admm.ADMM.__init__" xlink:title="admm.ADMM.__init__" target="_top">
<path fill="#8ed88c" stroke="#000000" stroke-width=".25" d="M1049,-234C1049,-234 962,-234 962,-234 956,-234 950,-228 950,-222 950,-222 950,-210 950,-210 950,-204 956,-198 962,-198 962,-198 1049,-198 1049,-198 1055,-198 1061,-204 1061,-210 1061,-210 1061,-222 1061,-222 1061,-228 1055,-234 1049,-234"/>
<text text-anchor="middle" x="1005.5" y="-213.8" font-family="Vera Sans, DejaVu Sans, Liberation Sans, Arial, Helvetica, sans" font-size="9.00" fill="#000000">admm.ADMM.__init__</text>
</a>
</g>
</g>
<!-- admm.ADMMEqual.__init__&#45;&gt;admm.ADMM.__init__ -->
<g id="edge10" class="edge">
<title>admm.ADMMEqual.__init__&#45;&gt;admm.ADMM.__init__</title>
<path fill="none" stroke="#8cd8c9" stroke-width="2" d="M890.59,-251.87C906.44,-246.92 923.72,-241.53 939.96,-236.46"/>
<polygon fill="#8cd8c9" stroke="#8cd8c9" stroke-width="2" points="941.4095,-239.674 949.91,-233.35 939.3212,-232.9927 941.4095,-239.674"/>
</g>
<!-- cbpdn.ConvBPDN.__init__ -->
<g id="node2" class="node">
<title>cbpdn.ConvBPDN.__init__</title>
<g id="a_node2"><a xlink:href="../../sporco.admm.cbpdn.html#sporco.admm.cbpdn.ConvBPDN.__init__" xlink:title="cbpdn.ConvBPDN.__init__" target="_top">
<path fill="#af8cd8" stroke="#000000" stroke-width=".25" d="M499,-366C499,-366 391,-366 391,-366 385,-366 379,-360 379,-354 379,-354 379,-342 379,-342 379,-336 385,-330 391,-330 391,-330 499,-330 499,-330 505,-330 511,-336 511,-342 511,-342 511,-354 511,-354 511,-360 505,-366 499,-366"/>
<text text-anchor="middle" x="445" y="-345.8" font-family="Vera Sans, DejaVu Sans, Liberation Sans, Arial, Helvetica, sans" font-size="9.00" fill="#000000">cbpdn.ConvBPDN.__init__</text>
</a>
</g>
</g>
<!-- admm.ADMM.set_attr -->
<g id="node8" class="node">
<title>admm.ADMM.set_attr</title>
<g id="a_node8"><a xlink:href="../../sporco.admm.admm.html#sporco.admm.admm.ADMM.set_attr" xlink:title="admm.ADMM.set_attr" target="_top">
<path fill="#8ed88c" stroke="#000000" stroke-width=".25" d="M1205.5,-180C1205.5,-180 1113.5,-180 1113.5,-180 1107.5,-180 1101.5,-174 1101.5,-168 1101.5,-168 1101.5,-156 1101.5,-156 1101.5,-150 1107.5,-144 1113.5,-144 1113.5,-144 1205.5,-144 1205.5,-144 1211.5,-144 1217.5,-150 1217.5,-156 1217.5,-156 1217.5,-168 1217.5,-168 1217.5,-174 1211.5,-180 1205.5,-180"/>
<text text-anchor="middle" x="1159.5" y="-159.8" font-family="Vera Sans, DejaVu Sans, Liberation Sans, Arial, Helvetica, sans" font-size="9.00" fill="#000000">admm.ADMM.set_attr</text>
</a>
</g>
</g>
<!-- cbpdn.ConvBPDN.__init__&#45;&gt;admm.ADMM.set_attr -->
<g id="edge4" class="edge">
<title>cbpdn.ConvBPDN.__init__&#45;&gt;admm.ADMM.set_attr</title>
<path fill="none" stroke="#af8cd8" stroke-width="2" d="M502.65,-329.92C505.51,-328.67 508.31,-327.36 511,-326 623.66,-268.98 622.66,-200.24 743,-162 860.87,-124.54 1007.2,-137.14 1091.3,-149.63"/>
<polygon fill="#af8cd8" stroke="#af8cd8" stroke-width="2" points="1090.7866,-153.0921 1101.2,-151.14 1091.8421,-146.1721 1090.7866,-153.0921"/>
</g>
<!-- admm.ADMM.set_dtype -->
<g id="node9" class="node">
<title>admm.ADMM.set_dtype</title>
<g id="a_node9"><a xlink:href="../../sporco.admm.admm.html#sporco.admm.admm.ADMM.set_dtype" xlink:title="admm.ADMM.set_dtype" target="_top">
<path fill="#8ed88c" stroke="#000000" stroke-width=".25" d="M1210,-126C1210,-126 1109,-126 1109,-126 1103,-126 1097,-120 1097,-114 1097,-114 1097,-102 1097,-102 1097,-96 1103,-90 1109,-90 1109,-90 1210,-90 1210,-90 1216,-90 1222,-96 1222,-102 1222,-102 1222,-114 1222,-114 1222,-120 1216,-126 1210,-126"/>
<text text-anchor="middle" x="1159.5" y="-105.8" font-family="Vera Sans, DejaVu Sans, Liberation Sans, Arial, Helvetica, sans" font-size="9.00" fill="#000000">admm.ADMM.set_dtype</text>
</a>
</g>
</g>
<!-- cbpdn.ConvBPDN.__init__&#45;&gt;admm.ADMM.set_dtype -->
<g id="edge5" class="edge">
<title>cbpdn.ConvBPDN.__init__&#45;&gt;admm.ADMM.set_dtype</title>
<path fill="none" stroke="#af8cd8" stroke-width="2" d="M507.12,-329.79C508.49,-328.61 509.79,-327.34 511,-326 549.17,-283.75 500.83,-243.25 539,-201 610.8,-121.52 938.45,-109.27 1086.5,-107.86"/>
<polygon fill="#af8cd8" stroke="#af8cd8" stroke-width="2" points="1086.8275,-111.3577 1096.8,-107.78 1086.7731,-104.3579 1086.8275,-111.3577"/>
</g>
<!-- cbpdn.GenericConvBPDN.__init__ -->
<g id="node12" class="node">
<title>cbpdn.GenericConvBPDN.__init__</title>
<g id="a_node12"><a xlink:href="../../sporco.admm.cbpdn.html#sporco.admm.cbpdn.GenericConvBPDN.__init__" xlink:title="cbpdn.GenericConvBPDN.__init__" target="_top">
<path fill="#d88c8c" stroke="#000000" stroke-width=".25" d="M703,-249C703,-249 559,-249 559,-249 553,-249 547,-243 547,-237 547,-237 547,-225 547,-225 547,-219 553,-213 559,-213 559,-213 703,-213 703,-213 709,-213 715,-219 715,-225 715,-225 715,-237 715,-237 715,-243 709,-249 703,-249"/>
<text text-anchor="middle" x="631" y="-228.8" font-family="Vera Sans, DejaVu Sans, Liberation Sans, Arial, Helvetica, sans" font-size="9.00" fill="#000000">cbpdn.GenericConvBPDN.__init__</text>
</a>
</g>
</g>
<!-- cbpdn.ConvBPDN.__init__&#45;&gt;cbpdn.GenericConvBPDN.__init__ -->
<g id="edge6" class="edge">
<title>cbpdn.ConvBPDN.__init__&#45;&gt;cbpdn.GenericConvBPDN.__init__</title>
<path fill="none" stroke="#af8cd8" stroke-width="2" d="M503.09,-329.94C505.8,-328.69 508.45,-327.38 511,-326 546.49,-306.81 582.09,-276.96 605.19,-255.85"/>
<polygon fill="#af8cd8" stroke="#af8cd8" stroke-width="2" points="607.566,-258.42 612.53,-249.06 602.8125,-253.2815 607.566,-258.42"/>
</g>
<!-- cbpdn.ConvBPDN.uinit -->
<g id="node3" class="node">
<title>cbpdn.ConvBPDN.uinit</title>
<g id="a_node3"><a xlink:href="../../sporco.admm.cbpdn.html#sporco.admm.cbpdn.ConvBPDN.uinit" xlink:title="cbpdn.ConvBPDN.uinit" target="_top">
<path fill="#af8cd8" stroke="#000000" stroke-width=".25" d="M1207.5,-366C1207.5,-366 1111.5,-366 1111.5,-366 1105.5,-366 1099.5,-360 1099.5,-354 1099.5,-354 1099.5,-342 1099.5,-342 1099.5,-336 1105.5,-330 1111.5,-330 1111.5,-330 1207.5,-330 1207.5,-330 1213.5,-330 1219.5,-336 1219.5,-342 1219.5,-342 1219.5,-354 1219.5,-354 1219.5,-360 1213.5,-366 1207.5,-366"/>
<text text-anchor="middle" x="1159.5" y="-345.8" font-family="Vera Sans, DejaVu Sans, Liberation Sans, Arial, Helvetica, sans" font-size="9.00" fill="#000000">cbpdn.ConvBPDN.uinit</text>
</a>
</g>
</g>
<!-- admm._ADMM_Meta.__call__ -->
<g id="node4" class="node">
<title>admm._ADMM_Meta.__call__</title>
<g id="a_node4"><a xlink:href="../../sporco.admm.admm.html#sporco.admm.admm._ADMM_Meta.__call__" xlink:title="admm._ADMM_Meta.__call__" target="_top">
<path fill="#8ca8d8" stroke="#000000" stroke-width=".25" d="M141,-64C141,-64 20,-64 20,-64 14,-64 8,-58 8,-52 8,-52 8,-40 8,-40 8,-34 14,-28 20,-28 20,-28 141,-28 141,-28 147,-28 153,-34 153,-40 153,-40 153,-52 153,-52 153,-58 147,-64 141,-64"/>
<text text-anchor="middle" x="80.5" y="-43.8" font-family="Vera Sans, DejaVu Sans, Liberation Sans, Arial, Helvetica, sans" font-size="9.00" fill="#000000">admm._ADMM_Meta.__call__</text>
</a>
</g>
</g>
<!-- cbpdn.ConvElasticNet.__init__ -->
<g id="node11" class="node">
<title>cbpdn.ConvElasticNet.__init__</title>
<g id="a_node11"><a xlink:href="../../sporco.admm.cbpdn.html#sporco.admm.cbpdn.ConvElasticNet.__init__" xlink:title="cbpdn.ConvElasticNet.__init__" target="_top">
<path fill="#d88cc3" stroke="#000000" stroke-width=".25" d="M331,-64C331,-64 201,-64 201,-64 195,-64 189,-58 189,-52 189,-52 189,-40 189,-40 189,-34 195,-28 201,-28 201,-28 331,-28 331,-28 337,-28 343,-34 343,-40 343,-40 343,-52 343,-52 343,-58 337,-64 331,-64"/>
<text text-anchor="middle" x="266" y="-43.8" font-family="Vera Sans, DejaVu Sans, Liberation Sans, Arial, Helvetica, sans" font-size="9.00" fill="#000000">cbpdn.ConvElasticNet.__init__</text>
</a>
</g>
</g>
<!-- admm._ADMM_Meta.__call__&#45;&gt;cbpdn.ConvElasticNet.__init__ -->
<g id="edge11" class="edge">
<title>admm._ADMM_Meta.__call__&#45;&gt;cbpdn.ConvElasticNet.__init__</title>
<path fill="none" stroke="#8ca8d8" stroke-width="2" d="M153.02,-46C161.49,-46 170.2,-46 178.84,-46"/>
<polygon fill="#8ca8d8" stroke="#8ca8d8" stroke-width="2" points="178.94,-49.5001 188.94,-46 178.94,-42.5001 178.94,-49.5001"/>
</g>
<!-- cbpdn.ConvRepIndexing.__init__ -->
<g id="node5" class="node">
<title>cbpdn.ConvRepIndexing.__init__</title>
<g id="a_node5"><a xlink:href="../../sporco.admm.cbpdn.html#sporco.admm.cbpdn.ConvRepIndexing.__init__" xlink:title="cbpdn.ConvRepIndexing.__init__" target="_top">
<path fill="#d88c8c" stroke="#000000" stroke-width=".25" d="M902,-210C902,-210 763,-210 763,-210 757,-210 751,-204 751,-198 751,-198 751,-186 751,-186 751,-180 757,-174 763,-174 763,-174 902,-174 902,-174 908,-174 914,-180 914,-186 914,-186 914,-198 914,-198 914,-204 908,-210 902,-210"/>
<text text-anchor="middle" x="832.5" y="-189.8" font-family="Vera Sans, DejaVu Sans, Liberation Sans, Arial, Helvetica, sans" font-size="9.00" fill="#000000">cbpdn.ConvRepIndexing.__init__</text>
</a>
</g>
</g>
<!-- admm.ADMM.__init__&#45;&gt;cbpdn.ConvBPDN.uinit -->
<g id="edge9" class="edge">
<title>admm.ADMM.__init__&#45;&gt;cbpdn.ConvBPDN.uinit</title>
<path fill="none" stroke="#8ed88c" stroke-width="2" d="M1026.6,-234.08C1053.5,-257.15 1100.2,-297.18 1130.5,-323.12"/>
<polygon fill="#8ed88c" stroke="#8ed88c" stroke-width="2" points="1128.3296,-325.8695 1138.2,-329.72 1132.8852,-320.5546 1128.3296,-325.8695"/>
</g>
<!-- admm.ADMM.yinit -->
<g id="node7" class="node">
<title>admm.ADMM.yinit</title>
<g id="a_node7"><a xlink:href="../../sporco.admm.admm.html#sporco.admm.admm.ADMM.yinit" xlink:title="admm.ADMM.yinit" target="_top">
<path fill="#8ed88c" stroke="#000000" stroke-width=".25" d="M1196.5,-234C1196.5,-234 1122.5,-234 1122.5,-234 1116.5,-234 1110.5,-228 1110.5,-222 1110.5,-222 1110.5,-210 1110.5,-210 1110.5,-204 1116.5,-198 1122.5,-198 1122.5,-198 1196.5,-198 1196.5,-198 1202.5,-198 1208.5,-204 1208.5,-210 1208.5,-210 1208.5,-222 1208.5,-222 1208.5,-228 1202.5,-234 1196.5,-234"/>
<text text-anchor="middle" x="1159.5" y="-213.8" font-family="Vera Sans, DejaVu Sans, Liberation Sans, Arial, Helvetica, sans" font-size="9.00" fill="#000000">admm.ADMM.yinit</text>
</a>
</g>
</g>
<!-- admm.ADMM.__init__&#45;&gt;admm.ADMM.yinit -->
<g id="edge1" class="edge">
<title>admm.ADMM.__init__&#45;&gt;admm.ADMM.yinit</title>
<path fill="none" stroke="#8ed88c" stroke-width="2" d="M1061.1,-216C1073.8,-216 1087.4,-216 1100.2,-216"/>
<polygon fill="#8ed88c" stroke="#8ed88c" stroke-width="2" points="1100.4,-219.5001 1110.4,-216 1100.4,-212.5001 1100.4,-219.5001"/>
</g>
<!-- admm.ADMM.__init__&#45;&gt;admm.ADMM.set_attr -->
<g id="edge2" class="edge">
<title>admm.ADMM.__init__&#45;&gt;admm.ADMM.set_attr</title>
<path fill="none" stroke="#8ed88c" stroke-width="2" d="M1057.2,-197.87C1070.4,-193.26 1084.6,-188.26 1098.2,-183.5"/>
<polygon fill="#8ed88c" stroke="#8ed88c" stroke-width="2" points="1099.6328,-186.7061 1107.9,-180.08 1097.3052,-180.1044 1099.6328,-186.7061"/>
</g>
<!-- admm.ADMM.__init__&#45;&gt;admm.ADMM.set_dtype -->
<g id="edge3" class="edge">
<title>admm.ADMM.__init__&#45;&gt;admm.ADMM.set_dtype</title>
<path fill="none" stroke="#8ed88c" stroke-width="2" d="M1022.7,-197.72C1040.1,-179.96 1068.5,-153.1 1097,-135 1099.2,-133.61 1101.4,-132.27 1103.8,-130.96"/>
<polygon fill="#8ed88c" stroke="#8ed88c" stroke-width="2" points="1105.6946,-133.9175 1112.9,-126.15 1102.4234,-127.7288 1105.6946,-133.9175"/>
</g>
<!-- cbpdn.ConvElasticNet.setdict -->
<g id="node10" class="node">
<title>cbpdn.ConvElasticNet.setdict</title>
<g id="a_node10"><a xlink:href="../../sporco.admm.cbpdn.html#sporco.admm.cbpdn.ConvElasticNet.setdict" xlink:title="cbpdn.ConvElasticNet.setdict" target="_top">
<path fill="#d88cc3" stroke="#000000" stroke-width=".25" d="M897.5,-64C897.5,-64 767.5,-64 767.5,-64 761.5,-64 755.5,-58 755.5,-52 755.5,-52 755.5,-40 755.5,-40 755.5,-34 761.5,-28 767.5,-28 767.5,-28 897.5,-28 897.5,-28 903.5,-28 909.5,-34 909.5,-40 909.5,-40 909.5,-52 909.5,-52 909.5,-58 903.5,-64 897.5,-64"/>
<text text-anchor="middle" x="832.5" y="-43.8" font-family="Vera Sans, DejaVu Sans, Liberation Sans, Arial, Helvetica, sans" font-size="9.00" fill="#000000">cbpdn.ConvElasticNet.setdict</text>
</a>
</g>
</g>
<!-- cbpdn.ConvElasticNet.__init__&#45;&gt;cbpdn.ConvBPDN.__init__ -->
<g id="edge7" class="edge">
<title>cbpdn.ConvElasticNet.__init__&#45;&gt;cbpdn.ConvBPDN.__init__</title>
<path fill="none" stroke="#d88cc3" stroke-width="2" d="M267.36,-64.072C272.07,-113.54 292.02,-252.35 371,-326 371.15,-326.14 371.31,-326.28 371.46,-326.43"/>
<polygon fill="#d88cc3" stroke="#d88cc3" stroke-width="2" points="368.8995,-328.8782 378.97,-332.17 373.1503,-323.3166 368.8995,-328.8782"/>
</g>
<!-- cbpdn.ConvElasticNet.__init__&#45;&gt;admm.ADMM.set_dtype -->
<g id="edge8" class="edge">
<title>cbpdn.ConvElasticNet.__init__&#45;&gt;admm.ADMM.set_dtype</title>
<path fill="none" stroke="#d88cc3" stroke-width="2" d="M343.26,-30.555C416.89,-17.191 531.04,0 631,0 631,0 631,0 832.5,0 940.26,0 1058.4,-53.54 1118.9,-85.226"/>
<polygon fill="#d88cc3" stroke="#d88cc3" stroke-width="2" points="1117.2299,-88.3019 1127.7,-89.923 1120.5261,-82.1265 1117.2299,-88.3019"/>
</g>
<!-- cbpdn.GenericConvBPDN.__init__&#45;&gt;admm.ADMMEqual.__init__ -->
<g id="edge14" class="edge">
<title>cbpdn.GenericConvBPDN.__init__&#45;&gt;admm.ADMMEqual.__init__</title>
<path fill="none" stroke="#d88c8c" stroke-width="2" d="M715.29,-247.31C728.05,-249.78 741.18,-252.32 753.82,-254.77"/>
<polygon fill="#d88c8c" stroke="#d88c8c" stroke-width="2" points="753.3467,-258.2433 763.83,-256.71 754.6786,-251.3712 753.3467,-258.2433"/>
</g>
<!-- cbpdn.GenericConvBPDN.__init__&#45;&gt;cbpdn.ConvRepIndexing.__init__ -->
<g id="edge13" class="edge">
<title>cbpdn.GenericConvBPDN.__init__&#45;&gt;cbpdn.ConvRepIndexing.__init__</title>
<path fill="none" stroke="#d88c8c" stroke-width="2" d="M715.29,-214.69C723.74,-213.05 732.34,-211.39 740.86,-209.74"/>
<polygon fill="#d88c8c" stroke="#d88c8c" stroke-width="2" points="741.6595,-213.1502 750.81,-207.81 740.3265,-206.2783 741.6595,-213.1502"/>
</g>
<!-- cbpdn.GenericConvBPDN.__init__&#45;&gt;cbpdn.ConvElasticNet.setdict -->
<g id="edge12" class="edge">
<title>cbpdn.GenericConvBPDN.__init__&#45;&gt;cbpdn.ConvElasticNet.setdict</title>
<path fill="none" stroke="#d88c8c" stroke-width="2" d="M715.01,-214.79C717.81,-213.04 720.49,-211.12 723,-209 740.34,-194.35 731.53,-181.59 743,-162 762.35,-128.96 789.88,-94.674 809.29,-72.026"/>
<polygon fill="#d88c8c" stroke="#d88c8c" stroke-width="2" points="812.1384,-74.0833 816.04,-64.233 806.8473,-69.5003 812.1384,-74.0833"/>
</g>
</g>
</svg>
