<?xml version="1.0" encoding="UTF-8" standalone="no"?>
<!DOCTYPE svg PUBLIC "-//W3C//DTD SVG 1.1//EN"
 "http://www.w3.org/Graphics/SVG/1.1/DTD/svg11.dtd">
<!-- Generated by graphviz version 2.40.1 (20161225.0304)
 -->
<!-- Pages: 1 -->
<svg
 viewBox="0.00 0.00 985.00 798.00" xmlns="http://www.w3.org/2000/svg" xmlns:xlink="http://www.w3.org/1999/xlink">
<g id="graph0" class="graph" transform="scale(1 1) rotate(0) translate(4 794)">
<polygon fill="transparent" stroke="transparent" points="-4,4 -4,-794 981,-794 981,4 -4,4"/>
<g id="clust1" class="cluster">
<title>cluster_admm.ADMMEqual</title>
<polygon fill="transparent" stroke="#8cc8d8" stroke-width="2" stroke-dasharray="1,5" points="151,0 151,-232 961.5,-232 961.5,0 151,0"/>
<text text-anchor="middle" x="556.25" y="-220.8" font-family="Vera Sans, DejaVu Sans, Liberation Sans, Arial, Helvetica, sans" font-size="9.00" fill="#000000">admm.ADMMEqual</text>
</g>
<g id="clust2" class="cluster">
<title>cluster_cbpdn.GenericConvBPDN</title>
<polygon fill="transparent" stroke="#d88c8c" stroke-width="2" stroke-dasharray="1,5" points="342,-522 342,-700 977,-700 977,-522 342,-522"/>
<text text-anchor="middle" x="659.5" y="-688.8" font-family="Vera Sans, DejaVu Sans, Liberation Sans, Arial, Helvetica, sans" font-size="9.00" fill="#000000">cbpdn.GenericConvBPDN</text>
</g>
<g id="clust3" class="cluster">
<title>cluster_admm.ADMM</title>
<polygon fill="transparent" stroke="#8ed88c" stroke-width="2" stroke-dasharray="1,5" points="0,-240 0,-634 322,-634 322,-240 0,-240"/>
<text text-anchor="middle" x="161" y="-622.8" font-family="Vera Sans, DejaVu Sans, Liberation Sans, Arial, Helvetica, sans" font-size="9.00" fill="#000000">admm.ADMM</text>
</g>
<g id="clust4" class="cluster">
<title>cluster_cbpdn.ConvElasticNet</title>
<polygon fill="transparent" stroke="#d88ca4" stroke-width="2" stroke-dasharray="1,5" points="149,-720 149,-790 752.5,-790 752.5,-720 149,-720"/>
<text text-anchor="middle" x="450.75" y="-778.8" font-family="Vera Sans, DejaVu Sans, Liberation Sans, Arial, Helvetica, sans" font-size="9.00" fill="#000000">cbpdn.ConvElasticNet</text>
</g>
<g id="clust5" class="cluster">
<title>cluster_cbpdn.ConvBPDN</title>
<polygon fill="transparent" stroke="#af8cd8" stroke-width="2" stroke-dasharray="1,5" points="160,-642 160,-712 301,-712 301,-642 160,-642"/>
<text text-anchor="middle" x="230.5" y="-700.8" font-family="Vera Sans, DejaVu Sans, Liberation Sans, Arial, Helvetica, sans" font-size="9.00" fill="#000000">cbpdn.ConvBPDN</text>
</g>
<!-- admm.ADMMEqual.rsdl_s -->
<g id="node1" class="node">
<title>admm.ADMMEqual.rsdl_s</title>
<g id="a_node1"><a xlink:href="../../sporco.admm.admm.html#sporco.admm.admm.ADMMEqual.rsdl_s" xlink:title="admm.ADMMEqual.rsdl_s" target="_top">
<path fill="#8cc8d8" stroke="#000000" stroke-width=".25" d="M498.5,-98C498.5,-98 390.5,-98 390.5,-98 384.5,-98 378.5,-92 378.5,-86 378.5,-86 378.5,-74 378.5,-74 378.5,-68 384.5,-62 390.5,-62 390.5,-62 498.5,-62 498.5,-62 504.5,-62 510.5,-68 510.5,-74 510.5,-74 510.5,-86 510.5,-86 510.5,-92 504.5,-98 498.5,-98"/>
<text text-anchor="middle" x="444.5" y="-77.8" font-family="Vera Sans, DejaVu Sans, Liberation Sans, Arial, Helvetica, sans" font-size="9.00" fill="#000000">admm.ADMMEqual.rsdl_s</text>
</a>
</g>
</g>
<!-- admm.ADMMEqual.rsdl_r -->
<g id="node2" class="node">
<title>admm.ADMMEqual.rsdl_r</title>
<g id="a_node2"><a xlink:href="../../sporco.admm.admm.html#sporco.admm.admm.ADMMEqual.rsdl_r" xlink:title="admm.ADMMEqual.rsdl_r" target="_top">
<path fill="#8cc8d8" stroke="#000000" stroke-width=".25" d="M498,-44C498,-44 391,-44 391,-44 385,-44 379,-38 379,-32 379,-32 379,-20 379,-20 379,-14 385,-8 391,-8 391,-8 498,-8 498,-8 504,-8 510,-14 510,-20 510,-20 510,-32 510,-32 510,-38 504,-44 498,-44"/>
<text text-anchor="middle" x="444.5" y="-23.8" font-family="Vera Sans, DejaVu Sans, Liberation Sans, Arial, Helvetica, sans" font-size="9.00" fill="#000000">admm.ADMMEqual.rsdl_r</text>
</a>
</g>
</g>
<!-- admm.ADMMEqual.getmin -->
<g id="node3" class="node">
<title>admm.ADMMEqual.getmin</title>
<g id="a_node3"><a xlink:href="../../sporco.admm.admm.html#sporco.admm.admm.ADMMEqual.getmin" xlink:title="admm.ADMMEqual.getmin" target="_top">
<path fill="#8cc8d8" stroke="#000000" stroke-width=".25" d="M287,-152C287,-152 174,-152 174,-152 168,-152 162,-146 162,-140 162,-140 162,-128 162,-128 162,-122 168,-116 174,-116 174,-116 287,-116 287,-116 293,-116 299,-122 299,-128 299,-128 299,-140 299,-140 299,-146 293,-152 287,-152"/>
<text text-anchor="middle" x="230.5" y="-131.8" font-family="Vera Sans, DejaVu Sans, Liberation Sans, Arial, Helvetica, sans" font-size="9.00" fill="#000000">admm.ADMMEqual.getmin</text>
</a>
</g>
</g>
<!-- admm.ADMMEqual.obfn_gvar -->
<g id="node4" class="node">
<title>admm.ADMMEqual.obfn_gvar</title>
<g id="a_node4"><a xlink:href="../../sporco.admm.admm.html#sporco.admm.admm.ADMMEqual.obfn_gvar" xlink:title="admm.ADMMEqual.obfn_gvar" target="_top">
<path fill="#8cc8d8" stroke="#000000" stroke-width=".25" d="M941.5,-206C941.5,-206 814.5,-206 814.5,-206 808.5,-206 802.5,-200 802.5,-194 802.5,-194 802.5,-182 802.5,-182 802.5,-176 808.5,-170 814.5,-170 814.5,-170 941.5,-170 941.5,-170 947.5,-170 953.5,-176 953.5,-182 953.5,-182 953.5,-194 953.5,-194 953.5,-200 947.5,-206 941.5,-206"/>
<text text-anchor="middle" x="878" y="-185.8" font-family="Vera Sans, DejaVu Sans, Liberation Sans, Arial, Helvetica, sans" font-size="9.00" fill="#000000">admm.ADMMEqual.obfn_gvar</text>
</a>
</g>
</g>
<!-- admm.ADMMEqual.rsdl_rn -->
<g id="node5" class="node">
<title>admm.ADMMEqual.rsdl_rn</title>
<g id="a_node5"><a xlink:href="../../sporco.admm.admm.html#sporco.admm.admm.ADMMEqual.rsdl_rn" xlink:title="admm.ADMMEqual.rsdl_rn" target="_top">
<path fill="#8cc8d8" stroke="#000000" stroke-width=".25" d="M501,-206C501,-206 388,-206 388,-206 382,-206 376,-200 376,-194 376,-194 376,-182 376,-182 376,-176 382,-170 388,-170 388,-170 501,-170 501,-170 507,-170 513,-176 513,-182 513,-182 513,-194 513,-194 513,-200 507,-206 501,-206"/>
<text text-anchor="middle" x="444.5" y="-185.8" font-family="Vera Sans, DejaVu Sans, Liberation Sans, Arial, Helvetica, sans" font-size="9.00" fill="#000000">admm.ADMMEqual.rsdl_rn</text>
</a>
</g>
</g>
<!-- admm.ADMMEqual.rsdl_sn -->
<g id="node6" class="node">
<title>admm.ADMMEqual.rsdl_sn</title>
<g id="a_node6"><a xlink:href="../../sporco.admm.admm.html#sporco.admm.admm.ADMMEqual.rsdl_sn" xlink:title="admm.ADMMEqual.rsdl_sn" target="_top">
<path fill="#8cc8d8" stroke="#000000" stroke-width=".25" d="M501.5,-152C501.5,-152 387.5,-152 387.5,-152 381.5,-152 375.5,-146 375.5,-140 375.5,-140 375.5,-128 375.5,-128 375.5,-122 381.5,-116 387.5,-116 387.5,-116 501.5,-116 501.5,-116 507.5,-116 513.5,-122 513.5,-128 513.5,-128 513.5,-140 513.5,-140 513.5,-146 507.5,-152 501.5,-152"/>
<text text-anchor="middle" x="444.5" y="-131.8" font-family="Vera Sans, DejaVu Sans, Liberation Sans, Arial, Helvetica, sans" font-size="9.00" fill="#000000">admm.ADMMEqual.rsdl_sn</text>
</a>
</g>
</g>
<!-- admm.ADMMEqual.relax_AX -->
<g id="node7" class="node">
<title>admm.ADMMEqual.relax_AX</title>
<g id="a_node7"><a xlink:href="../../sporco.admm.admm.html#sporco.admm.admm.ADMMEqual.relax_AX" xlink:title="admm.ADMMEqual.relax_AX" target="_top">
<path fill="#8cc8d8" stroke="#000000" stroke-width=".25" d="M290,-206C290,-206 171,-206 171,-206 165,-206 159,-200 159,-194 159,-194 159,-182 159,-182 159,-176 165,-170 171,-170 171,-170 290,-170 290,-170 296,-170 302,-176 302,-182 302,-182 302,-194 302,-194 302,-200 296,-206 290,-206"/>
<text text-anchor="middle" x="230.5" y="-185.8" font-family="Vera Sans, DejaVu Sans, Liberation Sans, Arial, Helvetica, sans" font-size="9.00" fill="#000000">admm.ADMMEqual.relax_AX</text>
</a>
</g>
</g>
<!-- cbpdn.GenericConvBPDN.eval_objfn -->
<g id="node8" class="node">
<title>cbpdn.GenericConvBPDN.eval_objfn</title>
<g id="a_node8"><a xlink:href="../../sporco.admm.cbpdn.html#sporco.admm.cbpdn.GenericConvBPDN.eval_objfn" xlink:title="cbpdn.GenericConvBPDN.eval_objfn" target="_top">
<path fill="#d88c8c" stroke="#000000" stroke-width=".25" d="M523.5,-620C523.5,-620 365.5,-620 365.5,-620 359.5,-620 353.5,-614 353.5,-608 353.5,-608 353.5,-596 353.5,-596 353.5,-590 359.5,-584 365.5,-584 365.5,-584 523.5,-584 523.5,-584 529.5,-584 535.5,-590 535.5,-596 535.5,-596 535.5,-608 535.5,-608 535.5,-614 529.5,-620 523.5,-620"/>
<text text-anchor="middle" x="444.5" y="-599.8" font-family="Vera Sans, DejaVu Sans, Liberation Sans, Arial, Helvetica, sans" font-size="9.00" fill="#000000">cbpdn.GenericConvBPDN.eval_objfn</text>
</a>
</g>
</g>
<!-- cbpdn.GenericConvBPDN.obfn_dfd -->
<g id="node9" class="node">
<title>cbpdn.GenericConvBPDN.obfn_dfd</title>
<g id="a_node9"><a xlink:href="../../sporco.admm.cbpdn.html#sporco.admm.cbpdn.GenericConvBPDN.obfn_dfd" xlink:title="cbpdn.GenericConvBPDN.obfn_dfd" target="_top">
<path fill="#d88c8c" stroke="#000000" stroke-width=".25" d="M739,-620C739,-620 587,-620 587,-620 581,-620 575,-614 575,-608 575,-608 575,-596 575,-596 575,-590 581,-584 587,-584 587,-584 739,-584 739,-584 745,-584 751,-590 751,-596 751,-596 751,-608 751,-608 751,-614 745,-620 739,-620"/>
<text text-anchor="middle" x="663" y="-599.8" font-family="Vera Sans, DejaVu Sans, Liberation Sans, Arial, Helvetica, sans" font-size="9.00" fill="#000000">cbpdn.GenericConvBPDN.obfn_dfd</text>
</a>
</g>
</g>
<!-- cbpdn.GenericConvBPDN.eval_objfn&#45;&gt;cbpdn.GenericConvBPDN.obfn_dfd -->
<g id="edge1" class="edge">
<title>cbpdn.GenericConvBPDN.eval_objfn&#45;&gt;cbpdn.GenericConvBPDN.obfn_dfd</title>
<path fill="none" stroke="#d88c8c" stroke-width="2" d="M535.58,-602C545.23,-602 555.07,-602 564.79,-602"/>
<polygon fill="#d88c8c" stroke="#d88c8c" stroke-width="2" points="564.87,-605.5001 574.87,-602 564.87,-598.5001 564.87,-605.5001"/>
</g>
<!-- cbpdn.ConvElasticNet.obfn_reg -->
<g id="node21" class="node">
<title>cbpdn.ConvElasticNet.obfn_reg</title>
<g id="a_node21"><a xlink:href="../../sporco.admm.cbpdn.html#sporco.admm.cbpdn.ConvElasticNet.obfn_reg" xlink:title="cbpdn.ConvElasticNet.obfn_reg" target="_top">
<path fill="#d88ca4" stroke="#000000" stroke-width=".25" d="M732.5,-764C732.5,-764 593.5,-764 593.5,-764 587.5,-764 581.5,-758 581.5,-752 581.5,-752 581.5,-740 581.5,-740 581.5,-734 587.5,-728 593.5,-728 593.5,-728 732.5,-728 732.5,-728 738.5,-728 744.5,-734 744.5,-740 744.5,-740 744.5,-752 744.5,-752 744.5,-758 738.5,-764 732.5,-764"/>
<text text-anchor="middle" x="663" y="-743.8" font-family="Vera Sans, DejaVu Sans, Liberation Sans, Arial, Helvetica, sans" font-size="9.00" fill="#000000">cbpdn.ConvElasticNet.obfn_reg</text>
</a>
</g>
</g>
<!-- cbpdn.GenericConvBPDN.eval_objfn&#45;&gt;cbpdn.ConvElasticNet.obfn_reg -->
<g id="edge11" class="edge">
<title>cbpdn.GenericConvBPDN.eval_objfn&#45;&gt;cbpdn.ConvElasticNet.obfn_reg</title>
<path fill="none" stroke="#d88c8c" stroke-width="2" d="M527.04,-620.14C531.33,-622.71 535.36,-625.65 539,-629 569.9,-657.41 545.3,-689.17 573.9,-721.57"/>
<polygon fill="#d88c8c" stroke="#d88c8c" stroke-width="2" points="571.7693,-724.3855 581.34,-728.93 576.6923,-719.409 571.7693,-724.3855"/>
</g>
<!-- cbpdn.GenericConvBPDN.obfn_fvarf -->
<g id="node10" class="node">
<title>cbpdn.GenericConvBPDN.obfn_fvarf</title>
<g id="a_node10"><a xlink:href="../../sporco.admm.cbpdn.html#sporco.admm.cbpdn.GenericConvBPDN.obfn_fvarf" xlink:title="cbpdn.GenericConvBPDN.obfn_fvarf" target="_top">
<path fill="#d88c8c" stroke="#000000" stroke-width=".25" d="M957,-620C957,-620 799,-620 799,-620 793,-620 787,-614 787,-608 787,-608 787,-596 787,-596 787,-590 793,-584 799,-584 799,-584 957,-584 957,-584 963,-584 969,-590 969,-596 969,-596 969,-608 969,-608 969,-614 963,-620 957,-620"/>
<text text-anchor="middle" x="878" y="-599.8" font-family="Vera Sans, DejaVu Sans, Liberation Sans, Arial, Helvetica, sans" font-size="9.00" fill="#000000">cbpdn.GenericConvBPDN.obfn_fvarf</text>
</a>
</g>
</g>
<!-- cbpdn.GenericConvBPDN.obfn_dfd&#45;&gt;cbpdn.GenericConvBPDN.obfn_fvarf -->
<g id="edge2" class="edge">
<title>cbpdn.GenericConvBPDN.obfn_dfd&#45;&gt;cbpdn.GenericConvBPDN.obfn_fvarf</title>
<path fill="none" stroke="#d88c8c" stroke-width="2" d="M751.07,-602C759.57,-602 768.24,-602 776.86,-602"/>
<polygon fill="#d88c8c" stroke="#d88c8c" stroke-width="2" points="776.93,-605.5001 786.93,-602 776.93,-598.5001 776.93,-605.5001"/>
</g>
<!-- cbpdn.GenericConvBPDN.ystep -->
<g id="node11" class="node">
<title>cbpdn.GenericConvBPDN.ystep</title>
<g id="a_node11"><a xlink:href="../../sporco.admm.cbpdn.html#sporco.admm.cbpdn.GenericConvBPDN.ystep" xlink:title="cbpdn.GenericConvBPDN.ystep" target="_top">
<path fill="#d88c8c" stroke="#000000" stroke-width=".25" d="M513,-674C513,-674 376,-674 376,-674 370,-674 364,-668 364,-662 364,-662 364,-650 364,-650 364,-644 370,-638 376,-638 376,-638 513,-638 513,-638 519,-638 525,-644 525,-650 525,-650 525,-662 525,-662 525,-668 519,-674 513,-674"/>
<text text-anchor="middle" x="444.5" y="-653.8" font-family="Vera Sans, DejaVu Sans, Liberation Sans, Arial, Helvetica, sans" font-size="9.00" fill="#000000">cbpdn.GenericConvBPDN.ystep</text>
</a>
</g>
</g>
<!-- cbpdn.GenericConvBPDN.itstat_extra -->
<g id="node12" class="node">
<title>cbpdn.GenericConvBPDN.itstat_extra</title>
<g id="a_node12"><a xlink:href="../../sporco.admm.cbpdn.html#sporco.admm.cbpdn.GenericConvBPDN.itstat_extra" xlink:title="cbpdn.GenericConvBPDN.itstat_extra" target="_top">
<path fill="#d88c8c" stroke="#000000" stroke-width=".25" d="M527,-566C527,-566 362,-566 362,-566 356,-566 350,-560 350,-554 350,-554 350,-542 350,-542 350,-536 356,-530 362,-530 362,-530 527,-530 527,-530 533,-530 539,-536 539,-542 539,-542 539,-554 539,-554 539,-560 533,-566 527,-566"/>
<text text-anchor="middle" x="444.5" y="-545.8" font-family="Vera Sans, DejaVu Sans, Liberation Sans, Arial, Helvetica, sans" font-size="9.00" fill="#000000">cbpdn.GenericConvBPDN.itstat_extra</text>
</a>
</g>
</g>
<!-- admm.ADMM.solve -->
<g id="node13" class="node">
<title>admm.ADMM.solve</title>
<g id="a_node13"><a xlink:href="../../sporco.admm.admm.html#sporco.admm.admm.ADMM.solve" xlink:title="admm.ADMM.solve" target="_top">
<path fill="#8ed88c" stroke="#000000" stroke-width=".25" d="M99,-446C99,-446 20,-446 20,-446 14,-446 8,-440 8,-434 8,-434 8,-422 8,-422 8,-416 14,-410 20,-410 20,-410 99,-410 99,-410 105,-410 111,-416 111,-422 111,-422 111,-434 111,-434 111,-440 105,-446 99,-446"/>
<text text-anchor="middle" x="59.5" y="-425.8" font-family="Vera Sans, DejaVu Sans, Liberation Sans, Arial, Helvetica, sans" font-size="9.00" fill="#000000">admm.ADMM.solve</text>
</a>
</g>
</g>
<!-- admm.ADMM.solve&#45;&gt;admm.ADMMEqual.getmin -->
<g id="edge14" class="edge">
<title>admm.ADMM.solve&#45;&gt;admm.ADMMEqual.getmin</title>
<path fill="none" stroke="#8ed88c" stroke-width="2" d="M63.2,-409.9C74.57,-355.9 110.45,-197.4 147,-161 148.89,-159.12 150.91,-157.37 153.04,-155.74"/>
<polygon fill="#8ed88c" stroke="#8ed88c" stroke-width="2" points="155.2713,-158.4615 161.7,-150.04 151.4227,-152.6144 155.2713,-158.4615"/>
</g>
<!-- admm.ADMM.solve&#45;&gt;admm.ADMMEqual.relax_AX -->
<g id="edge15" class="edge">
<title>admm.ADMM.solve&#45;&gt;admm.ADMMEqual.relax_AX</title>
<path fill="none" stroke="#8ed88c" stroke-width="2" d="M63.775,-409.77C73.188,-373.01 98.8,-288.97 147,-236 155.88,-226.24 167.21,-217.94 178.65,-211.13"/>
<polygon fill="#8ed88c" stroke="#8ed88c" stroke-width="2" points="180.3936,-214.165 187.38,-206.2 176.9514,-208.0697 180.3936,-214.165"/>
</g>
<!-- admm.ADMM.iteration_stats -->
<g id="node14" class="node">
<title>admm.ADMM.iteration_stats</title>
<g id="a_node14"><a xlink:href="../../sporco.admm.admm.html#sporco.admm.admm.ADMM.iteration_stats" xlink:title="admm.ADMM.iteration_stats" target="_top">
<path fill="#8ed88c" stroke="#000000" stroke-width=".25" d="M292,-554C292,-554 169,-554 169,-554 163,-554 157,-548 157,-542 157,-542 157,-530 157,-530 157,-524 163,-518 169,-518 169,-518 292,-518 292,-518 298,-518 304,-524 304,-530 304,-530 304,-542 304,-542 304,-548 298,-554 292,-554"/>
<text text-anchor="middle" x="230.5" y="-533.8" font-family="Vera Sans, DejaVu Sans, Liberation Sans, Arial, Helvetica, sans" font-size="9.00" fill="#000000">admm.ADMM.iteration_stats</text>
</a>
</g>
</g>
<!-- admm.ADMM.solve&#45;&gt;admm.ADMM.iteration_stats -->
<g id="edge3" class="edge">
<title>admm.ADMM.solve&#45;&gt;admm.ADMM.iteration_stats</title>
<path fill="none" stroke="#8ed88c" stroke-width="2" d="M74.825,-446.23C91.047,-464.46 118.24,-492.16 147,-509 149.83,-510.66 152.77,-512.22 155.78,-513.71"/>
<polygon fill="#8ed88c" stroke="#8ed88c" stroke-width="2" points="154.468,-516.9582 165.02,-517.91 157.3647,-510.5856 154.468,-516.9582"/>
</g>
<!-- admm.ADMM.ustep -->
<g id="node15" class="node">
<title>admm.ADMM.ustep</title>
<g id="a_node15"><a xlink:href="../../sporco.admm.admm.html#sporco.admm.admm.ADMM.ustep" xlink:title="admm.ADMM.ustep" target="_top">
<path fill="#8ed88c" stroke="#000000" stroke-width=".25" d="M271.5,-446C271.5,-446 189.5,-446 189.5,-446 183.5,-446 177.5,-440 177.5,-434 177.5,-434 177.5,-422 177.5,-422 177.5,-416 183.5,-410 189.5,-410 189.5,-410 271.5,-410 271.5,-410 277.5,-410 283.5,-416 283.5,-422 283.5,-422 283.5,-434 283.5,-434 283.5,-440 277.5,-446 271.5,-446"/>
<text text-anchor="middle" x="230.5" y="-425.8" font-family="Vera Sans, DejaVu Sans, Liberation Sans, Arial, Helvetica, sans" font-size="9.00" fill="#000000">admm.ADMM.ustep</text>
</a>
</g>
</g>
<!-- admm.ADMM.solve&#45;&gt;admm.ADMM.ustep -->
<g id="edge4" class="edge">
<title>admm.ADMM.solve&#45;&gt;admm.ADMM.ustep</title>
<path fill="none" stroke="#8ed88c" stroke-width="2" d="M111.27,-428C128.94,-428 148.89,-428 167.35,-428"/>
<polygon fill="#8ed88c" stroke="#8ed88c" stroke-width="2" points="167.43,-431.5001 177.43,-428 167.43,-424.5001 167.43,-431.5001"/>
</g>
<!-- admm.ADMM.compute_residuals -->
<g id="node16" class="node">
<title>admm.ADMM.compute_residuals</title>
<g id="a_node16"><a xlink:href="../../sporco.admm.admm.html#sporco.admm.admm.ADMM.compute_residuals" xlink:title="admm.ADMM.compute_residuals" target="_top">
<path fill="#8ed88c" stroke="#000000" stroke-width=".25" d="M302,-500C302,-500 159,-500 159,-500 153,-500 147,-494 147,-488 147,-488 147,-476 147,-476 147,-470 153,-464 159,-464 159,-464 302,-464 302,-464 308,-464 314,-470 314,-476 314,-476 314,-488 314,-488 314,-494 308,-500 302,-500"/>
<text text-anchor="middle" x="230.5" y="-479.8" font-family="Vera Sans, DejaVu Sans, Liberation Sans, Arial, Helvetica, sans" font-size="9.00" fill="#000000">admm.ADMM.compute_residuals</text>
</a>
</g>
</g>
<!-- admm.ADMM.solve&#45;&gt;admm.ADMM.compute_residuals -->
<g id="edge5" class="edge">
<title>admm.ADMM.solve&#45;&gt;admm.ADMM.compute_residuals</title>
<path fill="none" stroke="#8ed88c" stroke-width="2" d="M111.27,-444.35C127.77,-449.56 146.28,-455.4 163.69,-460.9"/>
<polygon fill="#8ed88c" stroke="#8ed88c" stroke-width="2" points="162.6501,-464.2419 173.24,-463.92 164.7607,-457.5677 162.6501,-464.2419"/>
</g>
<!-- admm.ADMM.display_status -->
<g id="node17" class="node">
<title>admm.ADMM.display_status</title>
<g id="a_node17"><a xlink:href="../../sporco.admm.admm.html#sporco.admm.admm.ADMM.display_status" xlink:title="admm.ADMM.display_status" target="_top">
<path fill="#8ed88c" stroke="#000000" stroke-width=".25" d="M291.5,-608C291.5,-608 169.5,-608 169.5,-608 163.5,-608 157.5,-602 157.5,-596 157.5,-596 157.5,-584 157.5,-584 157.5,-578 163.5,-572 169.5,-572 169.5,-572 291.5,-572 291.5,-572 297.5,-572 303.5,-578 303.5,-584 303.5,-584 303.5,-596 303.5,-596 303.5,-602 297.5,-608 291.5,-608"/>
<text text-anchor="middle" x="230.5" y="-587.8" font-family="Vera Sans, DejaVu Sans, Liberation Sans, Arial, Helvetica, sans" font-size="9.00" fill="#000000">admm.ADMM.display_status</text>
</a>
</g>
</g>
<!-- admm.ADMM.solve&#45;&gt;admm.ADMM.display_status -->
<g id="edge6" class="edge">
<title>admm.ADMM.solve&#45;&gt;admm.ADMM.display_status</title>
<path fill="none" stroke="#8ed88c" stroke-width="2" d="M66.497,-446.14C78.562,-475.06 106,-531.56 147,-563 148.63,-564.25 150.32,-565.45 152.07,-566.59"/>
<polygon fill="#8ed88c" stroke="#8ed88c" stroke-width="2" points="150.7245,-569.8559 161.13,-571.85 154.2392,-563.8022 150.7245,-569.8559"/>
</g>
<!-- admm.ADMM.display_start -->
<g id="node18" class="node">
<title>admm.ADMM.display_start</title>
<g id="a_node18"><a xlink:href="../../sporco.admm.admm.html#sporco.admm.admm.ADMM.display_start" xlink:title="admm.ADMM.display_start" target="_top">
<path fill="#8ed88c" stroke="#000000" stroke-width=".25" d="M287.5,-284C287.5,-284 173.5,-284 173.5,-284 167.5,-284 161.5,-278 161.5,-272 161.5,-272 161.5,-260 161.5,-260 161.5,-254 167.5,-248 173.5,-248 173.5,-248 287.5,-248 287.5,-248 293.5,-248 299.5,-254 299.5,-260 299.5,-260 299.5,-272 299.5,-272 299.5,-278 293.5,-284 287.5,-284"/>
<text text-anchor="middle" x="230.5" y="-263.8" font-family="Vera Sans, DejaVu Sans, Liberation Sans, Arial, Helvetica, sans" font-size="9.00" fill="#000000">admm.ADMM.display_start</text>
</a>
</g>
</g>
<!-- admm.ADMM.solve&#45;&gt;admm.ADMM.display_start -->
<g id="edge7" class="edge">
<title>admm.ADMM.solve&#45;&gt;admm.ADMM.display_start</title>
<path fill="none" stroke="#8ed88c" stroke-width="2" d="M66.497,-409.86C78.562,-380.94 106,-324.44 147,-293 148.63,-291.75 150.32,-290.55 152.07,-289.41"/>
<polygon fill="#8ed88c" stroke="#8ed88c" stroke-width="2" points="154.2392,-292.1978 161.13,-284.15 150.7245,-286.1441 154.2392,-292.1978"/>
</g>
<!-- admm.ADMM.update_rho -->
<g id="node19" class="node">
<title>admm.ADMM.update_rho</title>
<g id="a_node19"><a xlink:href="../../sporco.admm.admm.html#sporco.admm.admm.ADMM.update_rho" xlink:title="admm.ADMM.update_rho" target="_top">
<path fill="#8ed88c" stroke="#000000" stroke-width=".25" d="M285,-338C285,-338 176,-338 176,-338 170,-338 164,-332 164,-326 164,-326 164,-314 164,-314 164,-308 170,-302 176,-302 176,-302 285,-302 285,-302 291,-302 297,-308 297,-314 297,-314 297,-326 297,-326 297,-332 291,-338 285,-338"/>
<text text-anchor="middle" x="230.5" y="-317.8" font-family="Vera Sans, DejaVu Sans, Liberation Sans, Arial, Helvetica, sans" font-size="9.00" fill="#000000">admm.ADMM.update_rho</text>
</a>
</g>
</g>
<!-- admm.ADMM.solve&#45;&gt;admm.ADMM.update_rho -->
<g id="edge8" class="edge">
<title>admm.ADMM.solve&#45;&gt;admm.ADMM.update_rho</title>
<path fill="none" stroke="#8ed88c" stroke-width="2" d="M74.825,-409.77C91.047,-391.54 118.24,-363.84 147,-347 149.83,-345.34 152.77,-343.78 155.78,-342.29"/>
<polygon fill="#8ed88c" stroke="#8ed88c" stroke-width="2" points="157.3647,-345.4144 165.02,-338.09 154.468,-339.0418 157.3647,-345.4144"/>
</g>
<!-- admm.ADMM.display_end -->
<g id="node20" class="node">
<title>admm.ADMM.display_end</title>
<g id="a_node20"><a xlink:href="../../sporco.admm.admm.html#sporco.admm.admm.ADMM.display_end" xlink:title="admm.ADMM.display_end" target="_top">
<path fill="#8ed88c" stroke="#000000" stroke-width=".25" d="M285.5,-392C285.5,-392 175.5,-392 175.5,-392 169.5,-392 163.5,-386 163.5,-380 163.5,-380 163.5,-368 163.5,-368 163.5,-362 169.5,-356 175.5,-356 175.5,-356 285.5,-356 285.5,-356 291.5,-356 297.5,-362 297.5,-368 297.5,-368 297.5,-380 297.5,-380 297.5,-386 291.5,-392 285.5,-392"/>
<text text-anchor="middle" x="230.5" y="-371.8" font-family="Vera Sans, DejaVu Sans, Liberation Sans, Arial, Helvetica, sans" font-size="9.00" fill="#000000">admm.ADMM.display_end</text>
</a>
</g>
</g>
<!-- admm.ADMM.solve&#45;&gt;admm.ADMM.display_end -->
<g id="edge9" class="edge">
<title>admm.ADMM.solve&#45;&gt;admm.ADMM.display_end</title>
<path fill="none" stroke="#8ed88c" stroke-width="2" d="M111.27,-411.65C127.77,-406.44 146.28,-400.6 163.69,-395.1"/>
<polygon fill="#8ed88c" stroke="#8ed88c" stroke-width="2" points="164.7607,-398.4323 173.24,-392.08 162.6501,-391.7581 164.7607,-398.4323"/>
</g>
<!-- cbpdn.ConvElasticNet.xstep -->
<g id="node22" class="node">
<title>cbpdn.ConvElasticNet.xstep</title>
<g id="a_node22"><a xlink:href="../../sporco.admm.cbpdn.html#sporco.admm.cbpdn.ConvElasticNet.xstep" xlink:title="cbpdn.ConvElasticNet.xstep" target="_top">
<path fill="#d88ca4" stroke="#000000" stroke-width=".25" d="M292,-764C292,-764 169,-764 169,-764 163,-764 157,-758 157,-752 157,-752 157,-740 157,-740 157,-734 163,-728 169,-728 169,-728 292,-728 292,-728 298,-728 304,-734 304,-740 304,-740 304,-752 304,-752 304,-758 298,-764 292,-764"/>
<text text-anchor="middle" x="230.5" y="-743.8" font-family="Vera Sans, DejaVu Sans, Liberation Sans, Arial, Helvetica, sans" font-size="9.00" fill="#000000">cbpdn.ConvElasticNet.xstep</text>
</a>
</g>
</g>
<!-- admm.ADMM.solve&#45;&gt;cbpdn.ConvElasticNet.xstep -->
<g id="edge13" class="edge">
<title>admm.ADMM.solve&#45;&gt;cbpdn.ConvElasticNet.xstep</title>
<path fill="none" stroke="#8ed88c" stroke-width="2" d="M62.83,-446.23C73.54,-503.08 108.64,-675.68 147,-716 149.09,-718.2 151.35,-720.23 153.75,-722.12"/>
<polygon fill="#8ed88c" stroke="#8ed88c" stroke-width="2" points="152.1152,-725.2413 162.35,-727.98 156.0569,-719.4566 152.1152,-725.2413"/>
</g>
<!-- cbpdn.ConvBPDN.ystep -->
<g id="node23" class="node">
<title>cbpdn.ConvBPDN.ystep</title>
<g id="a_node23"><a xlink:href="../../sporco.admm.cbpdn.html#sporco.admm.cbpdn.ConvBPDN.ystep" xlink:title="cbpdn.ConvBPDN.ystep" target="_top">
<path fill="#af8cd8" stroke="#000000" stroke-width=".25" d="M281,-686C281,-686 180,-686 180,-686 174,-686 168,-680 168,-674 168,-674 168,-662 168,-662 168,-656 174,-650 180,-650 180,-650 281,-650 281,-650 287,-650 293,-656 293,-662 293,-662 293,-674 293,-674 293,-680 287,-686 281,-686"/>
<text text-anchor="middle" x="230.5" y="-665.8" font-family="Vera Sans, DejaVu Sans, Liberation Sans, Arial, Helvetica, sans" font-size="9.00" fill="#000000">cbpdn.ConvBPDN.ystep</text>
</a>
</g>
</g>
<!-- admm.ADMM.solve&#45;&gt;cbpdn.ConvBPDN.ystep -->
<g id="edge12" class="edge">
<title>admm.ADMM.solve&#45;&gt;cbpdn.ConvBPDN.ystep</title>
<path fill="none" stroke="#8ed88c" stroke-width="2" d="M62.063,-446.24C68.662,-486.49 89.911,-583.69 147,-638 150.58,-641.4 154.57,-644.43 158.82,-647.11"/>
<polygon fill="#8ed88c" stroke="#8ed88c" stroke-width="2" points="157.4031,-650.3276 167.84,-652.15 160.8176,-644.2168 157.4031,-650.3276"/>
</g>
<!-- admm.ADMM.iteration_stats&#45;&gt;cbpdn.GenericConvBPDN.eval_objfn -->
<g id="edge16" class="edge">
<title>admm.ADMM.iteration_stats&#45;&gt;cbpdn.GenericConvBPDN.eval_objfn</title>
<path fill="none" stroke="#8ed88c" stroke-width="2" d="M298.65,-554.01C306.63,-556.74 314.57,-559.74 322,-563 331.49,-567.17 332.45,-570.97 342,-575 346.75,-577 351.69,-578.89 356.73,-580.67"/>
<polygon fill="#8ed88c" stroke="#8ed88c" stroke-width="2" points="355.8961,-584.0818 366.49,-583.94 358.12,-577.4444 355.8961,-584.0818"/>
</g>
<!-- admm.ADMM.iteration_stats&#45;&gt;cbpdn.GenericConvBPDN.itstat_extra -->
<g id="edge17" class="edge">
<title>admm.ADMM.iteration_stats&#45;&gt;cbpdn.GenericConvBPDN.itstat_extra</title>
<path fill="none" stroke="#8ed88c" stroke-width="2" d="M304.15,-540.13C315.67,-540.78 327.77,-541.45 339.83,-542.13"/>
<polygon fill="#8ed88c" stroke="#8ed88c" stroke-width="2" points="339.7486,-545.6309 349.93,-542.7 340.1431,-538.642 339.7486,-545.6309"/>
</g>
<!-- admm.ADMM.ustep&#45;&gt;admm.ADMMEqual.rsdl_r -->
<g id="edge18" class="edge">
<title>admm.ADMM.ustep&#45;&gt;admm.ADMMEqual.rsdl_r</title>
<path fill="none" stroke="#8ed88c" stroke-width="2" d="M283.86,-423.53C298.36,-419.63 312.63,-412.81 322,-401 370.14,-340.31 292.97,-112.97 342,-53 349.21,-44.185 358.92,-38.053 369.5,-33.823"/>
<polygon fill="#8ed88c" stroke="#8ed88c" stroke-width="2" points="370.6615,-37.1249 378.99,-30.576 368.3954,-30.5018 370.6615,-37.1249"/>
</g>
<!-- admm.ADMM.compute_residuals&#45;&gt;admm.ADMMEqual.rsdl_s -->
<g id="edge19" class="edge">
<title>admm.ADMM.compute_residuals&#45;&gt;admm.ADMMEqual.rsdl_s</title>
<path fill="none" stroke="#8ed88c" stroke-width="2" d="M312.88,-463.95C316.25,-461.34 319.32,-458.37 322,-455 370.14,-394.31 292.97,-166.97 342,-107 349.04,-98.38 358.48,-92.33 368.79,-88.111"/>
<polygon fill="#8ed88c" stroke="#8ed88c" stroke-width="2" points="370.1664,-91.3375 378.45,-84.732 367.8552,-84.7301 370.1664,-91.3375"/>
</g>
<!-- admm.ADMM.compute_residuals&#45;&gt;admm.ADMMEqual.rsdl_r -->
<g id="edge20" class="edge">
<title>admm.ADMM.compute_residuals&#45;&gt;admm.ADMMEqual.rsdl_r</title>
<path fill="none" stroke="#8ed88c" stroke-width="2" d="M312.91,-463.97C316.27,-461.36 319.34,-458.38 322,-455 377.32,-384.71 285.66,-122.47 342,-53 349.17,-44.157 358.87,-38.011 369.44,-33.776"/>
<polygon fill="#8ed88c" stroke="#8ed88c" stroke-width="2" points="370.5961,-37.0797 378.92,-30.525 368.3254,-30.4582 370.5961,-37.0797"/>
</g>
<!-- admm.ADMM.compute_residuals&#45;&gt;admm.ADMMEqual.rsdl_rn -->
<g id="edge21" class="edge">
<title>admm.ADMM.compute_residuals&#45;&gt;admm.ADMMEqual.rsdl_rn</title>
<path fill="none" stroke="#8ed88c" stroke-width="2" d="M309.31,-463.88C313.84,-461.3 318.12,-458.36 322,-455 396.81,-390.2 428.59,-270.21 439.6,-215.95"/>
<polygon fill="#8ed88c" stroke="#8ed88c" stroke-width="2" points="443.0618,-216.482 441.52,-206 436.1886,-215.1557 443.0618,-216.482"/>
</g>
<!-- admm.ADMM.compute_residuals&#45;&gt;admm.ADMMEqual.rsdl_sn -->
<g id="edge22" class="edge">
<title>admm.ADMM.compute_residuals&#45;&gt;admm.ADMMEqual.rsdl_sn</title>
<path fill="none" stroke="#8ed88c" stroke-width="2" d="M312.84,-463.91C316.22,-461.32 319.31,-458.36 322,-455 362.97,-403.91 300.29,-211.48 342,-161 348.42,-153.23 356.78,-147.55 365.96,-143.42"/>
<polygon fill="#8ed88c" stroke="#8ed88c" stroke-width="2" points="367.2998,-146.6546 375.37,-139.79 364.7804,-140.1237 367.2998,-146.6546"/>
</g>
<!-- cbpdn.ConvElasticNet.obfn_reg&#45;&gt;admm.ADMMEqual.obfn_gvar -->
<g id="edge23" class="edge">
<title>cbpdn.ConvElasticNet.obfn_reg&#45;&gt;admm.ADMMEqual.obfn_gvar</title>
<path fill="none" stroke="#d88ca4" stroke-width="2" d="M744.63,-730.93C747.46,-728.88 750.11,-726.58 752.5,-724 815.63,-655.94 766.97,-608.64 787,-518 812.05,-404.64 851.86,-272.14 869.31,-215.71"/>
<polygon fill="#d88ca4" stroke="#d88ca4" stroke-width="2" points="872.6773,-216.6681 872.3,-206.08 865.9921,-214.5924 872.6773,-216.6681"/>
</g>
<!-- cbpdn.ConvBPDN.ystep&#45;&gt;cbpdn.GenericConvBPDN.ystep -->
<g id="edge10" class="edge">
<title>cbpdn.ConvBPDN.ystep&#45;&gt;cbpdn.GenericConvBPDN.ystep</title>
<path fill="none" stroke="#af8cd8" stroke-width="2" d="M293.26,-664.48C312.15,-663.42 333.26,-662.24 353.59,-661.1"/>
<polygon fill="#af8cd8" stroke="#af8cd8" stroke-width="2" points="354.0244,-664.5811 363.81,-660.52 353.6277,-657.5923 354.0244,-664.5811"/>
</g>
</g>
</svg>
