<?xml version="1.0" encoding="UTF-8" standalone="no"?>
<!DOCTYPE svg PUBLIC "-//W3C//DTD SVG 1.1//EN"
 "http://www.w3.org/Graphics/SVG/1.1/DTD/svg11.dtd">
<!-- Generated by graphviz version 2.40.1 (20161225.0304)
 -->
<!-- Pages: 1 -->
<svg
 viewBox="0.00 0.00 865.00 828.00" xmlns="http://www.w3.org/2000/svg" xmlns:xlink="http://www.w3.org/1999/xlink">
<g id="graph0" class="graph" transform="scale(1 1) rotate(0) translate(4 824)">
<polygon fill="transparent" stroke="transparent" points="-4,4 -4,-824 861,-824 861,4 -4,4"/>
<g id="clust1" class="cluster">
<title>cluster_cmod.normalise</title>
<polygon fill="transparent" stroke="#d88c8c" stroke-width="2" stroke-dasharray="1,5" points="720,-27 720,-97 827,-97 827,-27 720,-27"/>
<text text-anchor="middle" x="773.5" y="-85.8" font-family="Vera Sans, DejaVu Sans, Liberation Sans, Arial, Helvetica, sans" font-size="9.00" fill="#000000">cmod.normalise</text>
</g>
<g id="clust2" class="cluster">
<title>cluster_cmod.CnstrMOD</title>
<polygon fill="transparent" stroke="#d88cc3" stroke-width="2" stroke-dasharray="1,5" points="163,0 163,-178 670,-178 670,0 163,0"/>
<text text-anchor="middle" x="416.5" y="-166.8" font-family="Vera Sans, DejaVu Sans, Liberation Sans, Arial, Helvetica, sans" font-size="9.00" fill="#000000">cmod.CnstrMOD</text>
</g>
<g id="clust3" class="cluster">
<title>cluster_admm.ADMM</title>
<polygon fill="transparent" stroke="#8ed88c" stroke-width="2" stroke-dasharray="1,5" points="0,-426 0,-820 494,-820 494,-426 0,-426"/>
<text text-anchor="middle" x="247" y="-808.8" font-family="Vera Sans, DejaVu Sans, Liberation Sans, Arial, Helvetica, sans" font-size="9.00" fill="#000000">admm.ADMM</text>
</g>
<g id="clust4" class="cluster">
<title>cluster_admm.ADMMEqual</title>
<polygon fill="transparent" stroke="#8ca8d8" stroke-width="2" stroke-dasharray="1,5" points="151,-186 151,-418 857,-418 857,-186 151,-186"/>
<text text-anchor="middle" x="504" y="-406.8" font-family="Vera Sans, DejaVu Sans, Liberation Sans, Arial, Helvetica, sans" font-size="9.00" fill="#000000">admm.ADMMEqual</text>
</g>
<!-- cmod.normalise -->
<g id="node1" class="node">
<title>cmod.normalise</title>
<g id="a_node1"><a xlink:href="../../sporco.admm.cmod.html#sporco.admm.cmod.normalise" xlink:title="cmod.normalise" target="_top">
<path fill="#d88c8c" stroke="#000000" stroke-width=".25" d="M807,-71C807,-71 740,-71 740,-71 734,-71 728,-65 728,-59 728,-59 728,-47 728,-47 728,-41 734,-35 740,-35 740,-35 807,-35 807,-35 813,-35 819,-41 819,-47 819,-47 819,-59 819,-59 819,-65 813,-71 807,-71"/>
<text text-anchor="middle" x="773.5" y="-50.8" font-family="Vera Sans, DejaVu Sans, Liberation Sans, Arial, Helvetica, sans" font-size="9.00" fill="#000000">cmod.normalise</text>
</a>
</g>
</g>
<!-- cmod.CnstrMOD.obfn_cns -->
<g id="node2" class="node">
<title>cmod.CnstrMOD.obfn_cns</title>
<g id="a_node2"><a xlink:href="../../sporco.admm.cmod.html#sporco.admm.cmod.CnstrMOD.obfn_cns" xlink:title="cmod.CnstrMOD.obfn_cns" target="_top">
<path fill="#d88cc3" stroke="#000000" stroke-width=".25" d="M650,-98C650,-98 538,-98 538,-98 532,-98 526,-92 526,-86 526,-86 526,-74 526,-74 526,-68 532,-62 538,-62 538,-62 650,-62 650,-62 656,-62 662,-68 662,-74 662,-74 662,-86 662,-86 662,-92 656,-98 650,-98"/>
<text text-anchor="middle" x="594" y="-77.8" font-family="Vera Sans, DejaVu Sans, Liberation Sans, Arial, Helvetica, sans" font-size="9.00" fill="#000000">cmod.CnstrMOD.obfn_cns</text>
</a>
</g>
</g>
<!-- cmod.CnstrMOD.obfn_cns&#45;&gt;cmod.normalise -->
<g id="edge22" class="edge">
<title>cmod.CnstrMOD.obfn_cns&#45;&gt;cmod.normalise</title>
<path fill="none" stroke="#d88cc3" stroke-width="2" d="M662.12,-69.754C680.52,-66.985 700.22,-64.023 717.85,-61.371"/>
<polygon fill="#d88cc3" stroke="#d88cc3" stroke-width="2" points="718.6018,-64.7974 727.97,-59.849 717.5607,-57.8752 718.6018,-64.7974"/>
</g>
<!-- admm.ADMMEqual.obfn_gvar -->
<g id="node20" class="node">
<title>admm.ADMMEqual.obfn_gvar</title>
<g id="a_node20"><a xlink:href="../../sporco.admm.admm.html#sporco.admm.admm.ADMMEqual.obfn_gvar" xlink:title="admm.ADMMEqual.obfn_gvar" target="_top">
<path fill="#8ca8d8" stroke="#000000" stroke-width=".25" d="M837,-230C837,-230 710,-230 710,-230 704,-230 698,-224 698,-218 698,-218 698,-206 698,-206 698,-200 704,-194 710,-194 710,-194 837,-194 837,-194 843,-194 849,-200 849,-206 849,-206 849,-218 849,-218 849,-224 843,-230 837,-230"/>
<text text-anchor="middle" x="773.5" y="-209.8" font-family="Vera Sans, DejaVu Sans, Liberation Sans, Arial, Helvetica, sans" font-size="9.00" fill="#000000">admm.ADMMEqual.obfn_gvar</text>
</a>
</g>
</g>
<!-- cmod.CnstrMOD.obfn_cns&#45;&gt;admm.ADMMEqual.obfn_gvar -->
<g id="edge21" class="edge">
<title>cmod.CnstrMOD.obfn_cns&#45;&gt;admm.ADMMEqual.obfn_gvar</title>
<path fill="none" stroke="#d88cc3" stroke-width="2" d="M653.34,-98.07C659.15,-100.72 664.8,-103.69 670,-107 703.61,-128.4 734.61,-162.59 753.75,-186.11"/>
<polygon fill="#d88cc3" stroke="#d88cc3" stroke-width="2" points="751.0352,-188.3194 760.01,-193.95 756.5054,-183.9516 751.0352,-188.3194"/>
</g>
<!-- cmod.CnstrMOD.obfn_dfd -->
<g id="node3" class="node">
<title>cmod.CnstrMOD.obfn_dfd</title>
<g id="a_node3"><a xlink:href="../../sporco.admm.cmod.html#sporco.admm.cmod.CnstrMOD.obfn_dfd" xlink:title="cmod.CnstrMOD.obfn_dfd" target="_top">
<path fill="#d88cc3" stroke="#000000" stroke-width=".25" d="M649,-152C649,-152 539,-152 539,-152 533,-152 527,-146 527,-140 527,-140 527,-128 527,-128 527,-122 533,-116 539,-116 539,-116 649,-116 649,-116 655,-116 661,-122 661,-128 661,-128 661,-140 661,-140 661,-146 655,-152 649,-152"/>
<text text-anchor="middle" x="594" y="-131.8" font-family="Vera Sans, DejaVu Sans, Liberation Sans, Arial, Helvetica, sans" font-size="9.00" fill="#000000">cmod.CnstrMOD.obfn_dfd</text>
</a>
</g>
</g>
<!-- admm.ADMMEqual.obfn_fvar -->
<g id="node16" class="node">
<title>admm.ADMMEqual.obfn_fvar</title>
<g id="a_node16"><a xlink:href="../../sporco.admm.admm.html#sporco.admm.admm.ADMMEqual.obfn_fvar" xlink:title="admm.ADMMEqual.obfn_fvar" target="_top">
<path fill="#8ca8d8" stroke="#000000" stroke-width=".25" d="M835.5,-284C835.5,-284 711.5,-284 711.5,-284 705.5,-284 699.5,-278 699.5,-272 699.5,-272 699.5,-260 699.5,-260 699.5,-254 705.5,-248 711.5,-248 711.5,-248 835.5,-248 835.5,-248 841.5,-248 847.5,-254 847.5,-260 847.5,-260 847.5,-272 847.5,-272 847.5,-278 841.5,-284 835.5,-284"/>
<text text-anchor="middle" x="773.5" y="-263.8" font-family="Vera Sans, DejaVu Sans, Liberation Sans, Arial, Helvetica, sans" font-size="9.00" fill="#000000">admm.ADMMEqual.obfn_fvar</text>
</a>
</g>
</g>
<!-- cmod.CnstrMOD.obfn_dfd&#45;&gt;admm.ADMMEqual.obfn_fvar -->
<g id="edge23" class="edge">
<title>cmod.CnstrMOD.obfn_dfd&#45;&gt;admm.ADMMEqual.obfn_fvar</title>
<path fill="none" stroke="#d88cc3" stroke-width="2" d="M607.58,-152.04C625.83,-175.14 660.34,-215.03 698,-239 700.42,-240.54 702.94,-242.01 705.53,-243.41"/>
<polygon fill="#d88cc3" stroke="#d88cc3" stroke-width="2" points="704.0452,-246.5803 714.56,-247.88 707.1507,-240.3068 704.0452,-246.5803"/>
</g>
<!-- cmod.CnstrMOD.eval_objfn -->
<g id="node4" class="node">
<title>cmod.CnstrMOD.eval_objfn</title>
<g id="a_node4"><a xlink:href="../../sporco.admm.cmod.html#sporco.admm.cmod.CnstrMOD.eval_objfn" xlink:title="cmod.CnstrMOD.eval_objfn" target="_top">
<path fill="#d88cc3" stroke="#000000" stroke-width=".25" d="M478,-152C478,-152 362,-152 362,-152 356,-152 350,-146 350,-140 350,-140 350,-128 350,-128 350,-122 356,-116 362,-116 362,-116 478,-116 478,-116 484,-116 490,-122 490,-128 490,-128 490,-140 490,-140 490,-146 484,-152 478,-152"/>
<text text-anchor="middle" x="420" y="-131.8" font-family="Vera Sans, DejaVu Sans, Liberation Sans, Arial, Helvetica, sans" font-size="9.00" fill="#000000">cmod.CnstrMOD.eval_objfn</text>
</a>
</g>
</g>
<!-- cmod.CnstrMOD.eval_objfn&#45;&gt;cmod.CnstrMOD.obfn_cns -->
<g id="edge1" class="edge">
<title>cmod.CnstrMOD.eval_objfn&#45;&gt;cmod.CnstrMOD.obfn_cns</title>
<path fill="none" stroke="#d88cc3" stroke-width="2" d="M478.42,-115.87C493.71,-111.12 510.33,-105.97 526.06,-101.08"/>
<polygon fill="#d88cc3" stroke="#d88cc3" stroke-width="2" points="527.2162,-104.386 535.73,-98.08 525.142,-97.7003 527.2162,-104.386"/>
</g>
<!-- cmod.CnstrMOD.eval_objfn&#45;&gt;cmod.CnstrMOD.obfn_dfd -->
<g id="edge2" class="edge">
<title>cmod.CnstrMOD.eval_objfn&#45;&gt;cmod.CnstrMOD.obfn_dfd</title>
<path fill="none" stroke="#d88cc3" stroke-width="2" d="M490.02,-134C498.87,-134 507.97,-134 516.92,-134"/>
<polygon fill="#d88cc3" stroke="#d88cc3" stroke-width="2" points="516.95,-137.5001 526.95,-134 516.95,-130.5001 516.95,-137.5001"/>
</g>
<!-- cmod.CnstrMOD.ystep -->
<g id="node5" class="node">
<title>cmod.CnstrMOD.ystep</title>
<g id="a_node5"><a xlink:href="../../sporco.admm.cmod.html#sporco.admm.cmod.CnstrMOD.ystep" xlink:title="cmod.CnstrMOD.ystep" target="_top">
<path fill="#d88cc3" stroke="#000000" stroke-width=".25" d="M641.5,-44C641.5,-44 546.5,-44 546.5,-44 540.5,-44 534.5,-38 534.5,-32 534.5,-32 534.5,-20 534.5,-20 534.5,-14 540.5,-8 546.5,-8 546.5,-8 641.5,-8 641.5,-8 647.5,-8 653.5,-14 653.5,-20 653.5,-20 653.5,-32 653.5,-32 653.5,-38 647.5,-44 641.5,-44"/>
<text text-anchor="middle" x="594" y="-23.8" font-family="Vera Sans, DejaVu Sans, Liberation Sans, Arial, Helvetica, sans" font-size="9.00" fill="#000000">cmod.CnstrMOD.ystep</text>
</a>
</g>
</g>
<!-- cmod.CnstrMOD.ystep&#45;&gt;cmod.normalise -->
<g id="edge24" class="edge">
<title>cmod.CnstrMOD.ystep&#45;&gt;cmod.normalise</title>
<path fill="none" stroke="#d88cc3" stroke-width="2" d="M653.77,-34.991C674.45,-38.101 697.52,-41.572 717.86,-44.63"/>
<polygon fill="#d88cc3" stroke="#d88cc3" stroke-width="2" points="717.4905,-48.1137 727.9,-46.141 718.5323,-41.1917 717.4905,-48.1137"/>
</g>
<!-- cmod.CnstrMOD.xstep -->
<g id="node6" class="node">
<title>cmod.CnstrMOD.xstep</title>
<g id="a_node6"><a xlink:href="../../sporco.admm.cmod.html#sporco.admm.cmod.CnstrMOD.xstep" xlink:title="cmod.CnstrMOD.xstep" target="_top">
<path fill="#d88cc3" stroke="#000000" stroke-width=".25" d="M278,-152C278,-152 183,-152 183,-152 177,-152 171,-146 171,-140 171,-140 171,-128 171,-128 171,-122 177,-116 183,-116 183,-116 278,-116 278,-116 284,-116 290,-122 290,-128 290,-128 290,-140 290,-140 290,-146 284,-152 278,-152"/>
<text text-anchor="middle" x="230.5" y="-131.8" font-family="Vera Sans, DejaVu Sans, Liberation Sans, Arial, Helvetica, sans" font-size="9.00" fill="#000000">cmod.CnstrMOD.xstep</text>
</a>
</g>
</g>
<!-- admm.ADMM.iteration_stats -->
<g id="node7" class="node">
<title>admm.ADMM.iteration_stats</title>
<g id="a_node7"><a xlink:href="../../sporco.admm.admm.html#sporco.admm.admm.ADMM.iteration_stats" xlink:title="admm.ADMM.iteration_stats" target="_top">
<path fill="#8ed88c" stroke="#000000" stroke-width=".25" d="M292,-794C292,-794 169,-794 169,-794 163,-794 157,-788 157,-782 157,-782 157,-770 157,-770 157,-764 163,-758 169,-758 169,-758 292,-758 292,-758 298,-758 304,-764 304,-770 304,-770 304,-782 304,-782 304,-788 298,-794 292,-794"/>
<text text-anchor="middle" x="230.5" y="-773.8" font-family="Vera Sans, DejaVu Sans, Liberation Sans, Arial, Helvetica, sans" font-size="9.00" fill="#000000">admm.ADMM.iteration_stats</text>
</a>
</g>
</g>
<!-- admm.ADMM.iteration_stats&#45;&gt;cmod.CnstrMOD.eval_objfn -->
<g id="edge11" class="edge">
<title>admm.ADMM.iteration_stats&#45;&gt;cmod.CnstrMOD.eval_objfn</title>
<path fill="none" stroke="#8ed88c" stroke-width="2" d="M304.27,-758.46C307.9,-755.74 311.2,-752.61 314,-749 391.48,-649.32 287.64,-291.78 350,-182 355.4,-172.48 363.56,-164.45 372.43,-157.84"/>
<polygon fill="#8ed88c" stroke="#8ed88c" stroke-width="2" points="374.4315,-160.7114 380.7,-152.17 370.4731,-154.938 374.4315,-160.7114"/>
</g>
<!-- admm.ADMM.itstat_extra -->
<g id="node8" class="node">
<title>admm.ADMM.itstat_extra</title>
<g id="a_node8"><a xlink:href="../../sporco.admm.admm.html#sporco.admm.admm.ADMM.itstat_extra" xlink:title="admm.ADMM.itstat_extra" target="_top">
<path fill="#8ed88c" stroke="#000000" stroke-width=".25" d="M474,-794C474,-794 366,-794 366,-794 360,-794 354,-788 354,-782 354,-782 354,-770 354,-770 354,-764 360,-758 366,-758 366,-758 474,-758 474,-758 480,-758 486,-764 486,-770 486,-770 486,-782 486,-782 486,-788 480,-794 474,-794"/>
<text text-anchor="middle" x="420" y="-773.8" font-family="Vera Sans, DejaVu Sans, Liberation Sans, Arial, Helvetica, sans" font-size="9.00" fill="#000000">admm.ADMM.itstat_extra</text>
</a>
</g>
</g>
<!-- admm.ADMM.iteration_stats&#45;&gt;admm.ADMM.itstat_extra -->
<g id="edge3" class="edge">
<title>admm.ADMM.iteration_stats&#45;&gt;admm.ADMM.itstat_extra</title>
<path fill="none" stroke="#8ed88c" stroke-width="2" d="M304.04,-776C317.01,-776 330.54,-776 343.58,-776"/>
<polygon fill="#8ed88c" stroke="#8ed88c" stroke-width="2" points="343.92,-779.5001 353.92,-776 343.92,-772.5001 343.92,-779.5001"/>
</g>
<!-- admm.ADMM.ustep -->
<g id="node9" class="node">
<title>admm.ADMM.ustep</title>
<g id="a_node9"><a xlink:href="../../sporco.admm.admm.html#sporco.admm.admm.ADMM.ustep" xlink:title="admm.ADMM.ustep" target="_top">
<path fill="#8ed88c" stroke="#000000" stroke-width=".25" d="M271.5,-470C271.5,-470 189.5,-470 189.5,-470 183.5,-470 177.5,-464 177.5,-458 177.5,-458 177.5,-446 177.5,-446 177.5,-440 183.5,-434 189.5,-434 189.5,-434 271.5,-434 271.5,-434 277.5,-434 283.5,-440 283.5,-446 283.5,-446 283.5,-458 283.5,-458 283.5,-464 277.5,-470 271.5,-470"/>
<text text-anchor="middle" x="230.5" y="-449.8" font-family="Vera Sans, DejaVu Sans, Liberation Sans, Arial, Helvetica, sans" font-size="9.00" fill="#000000">admm.ADMM.ustep</text>
</a>
</g>
</g>
<!-- admm.ADMMEqual.rsdl_r -->
<g id="node18" class="node">
<title>admm.ADMMEqual.rsdl_r</title>
<g id="a_node18"><a xlink:href="../../sporco.admm.admm.html#sporco.admm.admm.ADMMEqual.rsdl_r" xlink:title="admm.ADMMEqual.rsdl_r" target="_top">
<path fill="#8ca8d8" stroke="#000000" stroke-width=".25" d="M473.5,-230C473.5,-230 366.5,-230 366.5,-230 360.5,-230 354.5,-224 354.5,-218 354.5,-218 354.5,-206 354.5,-206 354.5,-200 360.5,-194 366.5,-194 366.5,-194 473.5,-194 473.5,-194 479.5,-194 485.5,-200 485.5,-206 485.5,-206 485.5,-218 485.5,-218 485.5,-224 479.5,-230 473.5,-230"/>
<text text-anchor="middle" x="420" y="-209.8" font-family="Vera Sans, DejaVu Sans, Liberation Sans, Arial, Helvetica, sans" font-size="9.00" fill="#000000">admm.ADMMEqual.rsdl_r</text>
</a>
</g>
</g>
<!-- admm.ADMM.ustep&#45;&gt;admm.ADMMEqual.rsdl_r -->
<g id="edge12" class="edge">
<title>admm.ADMM.ustep&#45;&gt;admm.ADMMEqual.rsdl_r</title>
<path fill="none" stroke="#8ed88c" stroke-width="2" d="M283.68,-442.04C295.08,-437.62 306.07,-431.23 314,-422 368.04,-359.14 296.7,-302.48 350,-239 350.62,-238.26 351.27,-237.54 351.94,-236.83"/>
<polygon fill="#8ed88c" stroke="#8ed88c" stroke-width="2" points="354.5139,-239.232 359.8,-230.05 349.9417,-233.9315 354.5139,-239.232"/>
</g>
<!-- admm.ADMM.compute_residuals -->
<g id="node10" class="node">
<title>admm.ADMM.compute_residuals</title>
<g id="a_node10"><a xlink:href="../../sporco.admm.admm.html#sporco.admm.admm.ADMM.compute_residuals" xlink:title="admm.ADMM.compute_residuals" target="_top">
<path fill="#8ed88c" stroke="#000000" stroke-width=".25" d="M302,-524C302,-524 159,-524 159,-524 153,-524 147,-518 147,-512 147,-512 147,-500 147,-500 147,-494 153,-488 159,-488 159,-488 302,-488 302,-488 308,-488 314,-494 314,-500 314,-500 314,-512 314,-512 314,-518 308,-524 302,-524"/>
<text text-anchor="middle" x="230.5" y="-503.8" font-family="Vera Sans, DejaVu Sans, Liberation Sans, Arial, Helvetica, sans" font-size="9.00" fill="#000000">admm.ADMM.compute_residuals</text>
</a>
</g>
</g>
<!-- admm.ADMMEqual.rsdl_s -->
<g id="node17" class="node">
<title>admm.ADMMEqual.rsdl_s</title>
<g id="a_node17"><a xlink:href="../../sporco.admm.admm.html#sporco.admm.admm.ADMMEqual.rsdl_s" xlink:title="admm.ADMMEqual.rsdl_s" target="_top">
<path fill="#8ca8d8" stroke="#000000" stroke-width=".25" d="M474,-284C474,-284 366,-284 366,-284 360,-284 354,-278 354,-272 354,-272 354,-260 354,-260 354,-254 360,-248 366,-248 366,-248 474,-248 474,-248 480,-248 486,-254 486,-260 486,-260 486,-272 486,-272 486,-278 480,-284 474,-284"/>
<text text-anchor="middle" x="420" y="-263.8" font-family="Vera Sans, DejaVu Sans, Liberation Sans, Arial, Helvetica, sans" font-size="9.00" fill="#000000">admm.ADMMEqual.rsdl_s</text>
</a>
</g>
</g>
<!-- admm.ADMM.compute_residuals&#45;&gt;admm.ADMMEqual.rsdl_s -->
<g id="edge13" class="edge">
<title>admm.ADMM.compute_residuals&#45;&gt;admm.ADMMEqual.rsdl_s</title>
<path fill="none" stroke="#8ed88c" stroke-width="2" d="M304.12,-487.76C307.73,-485.21 311.07,-482.31 314,-479 369.81,-415.95 295.95,-357.57 350,-293 350.62,-292.26 351.27,-291.53 351.93,-290.83"/>
<polygon fill="#8ed88c" stroke="#8ed88c" stroke-width="2" points="354.5106,-293.2258 359.79,-284.04 349.9346,-287.9286 354.5106,-293.2258"/>
</g>
<!-- admm.ADMM.compute_residuals&#45;&gt;admm.ADMMEqual.rsdl_r -->
<g id="edge14" class="edge">
<title>admm.ADMM.compute_residuals&#45;&gt;admm.ADMMEqual.rsdl_r</title>
<path fill="none" stroke="#8ed88c" stroke-width="2" d="M304.29,-487.91C307.86,-485.32 311.14,-482.37 314,-479 383.77,-396.75 282.53,-323.15 350,-239 350.59,-238.27 351.2,-237.55 351.83,-236.86"/>
<polygon fill="#8ed88c" stroke="#8ed88c" stroke-width="2" points="354.2102,-239.4267 359.31,-230.14 349.532,-234.2195 354.2102,-239.4267"/>
</g>
<!-- admm.ADMMEqual.rsdl_rn -->
<g id="node21" class="node">
<title>admm.ADMMEqual.rsdl_rn</title>
<g id="a_node21"><a xlink:href="../../sporco.admm.admm.html#sporco.admm.admm.ADMMEqual.rsdl_rn" xlink:title="admm.ADMMEqual.rsdl_rn" target="_top">
<path fill="#8ca8d8" stroke="#000000" stroke-width=".25" d="M476.5,-392C476.5,-392 363.5,-392 363.5,-392 357.5,-392 351.5,-386 351.5,-380 351.5,-380 351.5,-368 351.5,-368 351.5,-362 357.5,-356 363.5,-356 363.5,-356 476.5,-356 476.5,-356 482.5,-356 488.5,-362 488.5,-368 488.5,-368 488.5,-380 488.5,-380 488.5,-386 482.5,-392 476.5,-392"/>
<text text-anchor="middle" x="420" y="-371.8" font-family="Vera Sans, DejaVu Sans, Liberation Sans, Arial, Helvetica, sans" font-size="9.00" fill="#000000">admm.ADMMEqual.rsdl_rn</text>
</a>
</g>
</g>
<!-- admm.ADMM.compute_residuals&#45;&gt;admm.ADMMEqual.rsdl_rn -->
<g id="edge15" class="edge">
<title>admm.ADMM.compute_residuals&#45;&gt;admm.ADMMEqual.rsdl_rn</title>
<path fill="none" stroke="#8ed88c" stroke-width="2" d="M299.91,-487.9C304.9,-485.31 309.67,-482.36 314,-479 337.67,-460.63 329.22,-443.58 350,-422 358.62,-413.04 369.17,-404.78 379.43,-397.72"/>
<polygon fill="#8ed88c" stroke="#8ed88c" stroke-width="2" points="381.5326,-400.5253 387.93,-392.08 377.6623,-394.6925 381.5326,-400.5253"/>
</g>
<!-- admm.ADMMEqual.rsdl_sn -->
<g id="node22" class="node">
<title>admm.ADMMEqual.rsdl_sn</title>
<g id="a_node22"><a xlink:href="../../sporco.admm.admm.html#sporco.admm.admm.ADMMEqual.rsdl_sn" xlink:title="admm.ADMMEqual.rsdl_sn" target="_top">
<path fill="#8ca8d8" stroke="#000000" stroke-width=".25" d="M477,-338C477,-338 363,-338 363,-338 357,-338 351,-332 351,-326 351,-326 351,-314 351,-314 351,-308 357,-302 363,-302 363,-302 477,-302 477,-302 483,-302 489,-308 489,-314 489,-314 489,-326 489,-326 489,-332 483,-338 477,-338"/>
<text text-anchor="middle" x="420" y="-317.8" font-family="Vera Sans, DejaVu Sans, Liberation Sans, Arial, Helvetica, sans" font-size="9.00" fill="#000000">admm.ADMMEqual.rsdl_sn</text>
</a>
</g>
</g>
<!-- admm.ADMM.compute_residuals&#45;&gt;admm.ADMMEqual.rsdl_sn -->
<g id="edge16" class="edge">
<title>admm.ADMM.compute_residuals&#45;&gt;admm.ADMMEqual.rsdl_sn</title>
<path fill="none" stroke="#8ed88c" stroke-width="2" d="M303.45,-487.76C307.28,-485.21 310.84,-482.31 314,-479 355.99,-435.01 309.25,-392.13 350,-347 350.76,-346.15 351.56,-345.33 352.38,-344.54"/>
<polygon fill="#8ed88c" stroke="#8ed88c" stroke-width="2" points="354.8213,-347.0672 360.4,-338.06 350.422,-341.6223 354.8213,-347.0672"/>
</g>
<!-- admm.ADMM.display_status -->
<g id="node11" class="node">
<title>admm.ADMM.display_status</title>
<g id="a_node11"><a xlink:href="../../sporco.admm.admm.html#sporco.admm.admm.ADMM.display_status" xlink:title="admm.ADMM.display_status" target="_top">
<path fill="#8ed88c" stroke="#000000" stroke-width=".25" d="M291.5,-578C291.5,-578 169.5,-578 169.5,-578 163.5,-578 157.5,-572 157.5,-566 157.5,-566 157.5,-554 157.5,-554 157.5,-548 163.5,-542 169.5,-542 169.5,-542 291.5,-542 291.5,-542 297.5,-542 303.5,-548 303.5,-554 303.5,-554 303.5,-566 303.5,-566 303.5,-572 297.5,-578 291.5,-578"/>
<text text-anchor="middle" x="230.5" y="-557.8" font-family="Vera Sans, DejaVu Sans, Liberation Sans, Arial, Helvetica, sans" font-size="9.00" fill="#000000">admm.ADMM.display_status</text>
</a>
</g>
</g>
<!-- admm.ADMM.display_start -->
<g id="node12" class="node">
<title>admm.ADMM.display_start</title>
<g id="a_node12"><a xlink:href="../../sporco.admm.admm.html#sporco.admm.admm.ADMM.display_start" xlink:title="admm.ADMM.display_start" target="_top">
<path fill="#8ed88c" stroke="#000000" stroke-width=".25" d="M287.5,-632C287.5,-632 173.5,-632 173.5,-632 167.5,-632 161.5,-626 161.5,-620 161.5,-620 161.5,-608 161.5,-608 161.5,-602 167.5,-596 173.5,-596 173.5,-596 287.5,-596 287.5,-596 293.5,-596 299.5,-602 299.5,-608 299.5,-608 299.5,-620 299.5,-620 299.5,-626 293.5,-632 287.5,-632"/>
<text text-anchor="middle" x="230.5" y="-611.8" font-family="Vera Sans, DejaVu Sans, Liberation Sans, Arial, Helvetica, sans" font-size="9.00" fill="#000000">admm.ADMM.display_start</text>
</a>
</g>
</g>
<!-- admm.ADMM.update_rho -->
<g id="node13" class="node">
<title>admm.ADMM.update_rho</title>
<g id="a_node13"><a xlink:href="../../sporco.admm.admm.html#sporco.admm.admm.ADMM.update_rho" xlink:title="admm.ADMM.update_rho" target="_top">
<path fill="#8ed88c" stroke="#000000" stroke-width=".25" d="M285,-686C285,-686 176,-686 176,-686 170,-686 164,-680 164,-674 164,-674 164,-662 164,-662 164,-656 170,-650 176,-650 176,-650 285,-650 285,-650 291,-650 297,-656 297,-662 297,-662 297,-674 297,-674 297,-680 291,-686 285,-686"/>
<text text-anchor="middle" x="230.5" y="-665.8" font-family="Vera Sans, DejaVu Sans, Liberation Sans, Arial, Helvetica, sans" font-size="9.00" fill="#000000">admm.ADMM.update_rho</text>
</a>
</g>
</g>
<!-- admm.ADMM.display_end -->
<g id="node14" class="node">
<title>admm.ADMM.display_end</title>
<g id="a_node14"><a xlink:href="../../sporco.admm.admm.html#sporco.admm.admm.ADMM.display_end" xlink:title="admm.ADMM.display_end" target="_top">
<path fill="#8ed88c" stroke="#000000" stroke-width=".25" d="M285.5,-740C285.5,-740 175.5,-740 175.5,-740 169.5,-740 163.5,-734 163.5,-728 163.5,-728 163.5,-716 163.5,-716 163.5,-710 169.5,-704 175.5,-704 175.5,-704 285.5,-704 285.5,-704 291.5,-704 297.5,-710 297.5,-716 297.5,-716 297.5,-728 297.5,-728 297.5,-734 291.5,-740 285.5,-740"/>
<text text-anchor="middle" x="230.5" y="-719.8" font-family="Vera Sans, DejaVu Sans, Liberation Sans, Arial, Helvetica, sans" font-size="9.00" fill="#000000">admm.ADMM.display_end</text>
</a>
</g>
</g>
<!-- admm.ADMM.solve -->
<g id="node15" class="node">
<title>admm.ADMM.solve</title>
<g id="a_node15"><a xlink:href="../../sporco.admm.admm.html#sporco.admm.admm.ADMM.solve" xlink:title="admm.ADMM.solve" target="_top">
<path fill="#8ed88c" stroke="#000000" stroke-width=".25" d="M99,-524C99,-524 20,-524 20,-524 14,-524 8,-518 8,-512 8,-512 8,-500 8,-500 8,-494 14,-488 20,-488 20,-488 99,-488 99,-488 105,-488 111,-494 111,-500 111,-500 111,-512 111,-512 111,-518 105,-524 99,-524"/>
<text text-anchor="middle" x="59.5" y="-503.8" font-family="Vera Sans, DejaVu Sans, Liberation Sans, Arial, Helvetica, sans" font-size="9.00" fill="#000000">admm.ADMM.solve</text>
</a>
</g>
</g>
<!-- admm.ADMM.solve&#45;&gt;cmod.CnstrMOD.ystep -->
<g id="edge19" class="edge">
<title>admm.ADMM.solve&#45;&gt;cmod.CnstrMOD.ystep</title>
<path fill="none" stroke="#8ed88c" stroke-width="2" d="M60.873,-487.76C66.584,-416.9 90.839,-161.14 147,-107 248.45,-9.196 426.04,-8.459 524.06,-16.937"/>
<polygon fill="#8ed88c" stroke="#8ed88c" stroke-width="2" points="523.8809,-20.4352 534.16,-17.868 524.5235,-13.4648 523.8809,-20.4352"/>
</g>
<!-- admm.ADMM.solve&#45;&gt;cmod.CnstrMOD.xstep -->
<g id="edge20" class="edge">
<title>admm.ADMM.solve&#45;&gt;cmod.CnstrMOD.xstep</title>
<path fill="none" stroke="#8ed88c" stroke-width="2" d="M62.5,-487.97C72.873,-427.33 108.69,-231.73 147,-182 154.65,-172.07 164.98,-163.84 175.76,-157.17"/>
<polygon fill="#8ed88c" stroke="#8ed88c" stroke-width="2" points="177.5606,-160.1719 184.47,-152.14 174.0599,-154.1101 177.5606,-160.1719"/>
</g>
<!-- admm.ADMM.solve&#45;&gt;admm.ADMM.iteration_stats -->
<g id="edge4" class="edge">
<title>admm.ADMM.solve&#45;&gt;admm.ADMM.iteration_stats</title>
<path fill="none" stroke="#8ed88c" stroke-width="2" d="M60.727,-524.13C64.732,-568.85 81.265,-685.39 147,-749 148.09,-750.06 149.23,-751.08 150.41,-752.06"/>
<polygon fill="#8ed88c" stroke="#8ed88c" stroke-width="2" points="148.471,-754.9763 158.64,-757.95 152.545,-749.2839 148.471,-754.9763"/>
</g>
<!-- admm.ADMM.solve&#45;&gt;admm.ADMM.ustep -->
<g id="edge5" class="edge">
<title>admm.ADMM.solve&#45;&gt;admm.ADMM.ustep</title>
<path fill="none" stroke="#8ed88c" stroke-width="2" d="M111.27,-489.65C129.1,-484.02 149.26,-477.65 167.86,-471.78"/>
<polygon fill="#8ed88c" stroke="#8ed88c" stroke-width="2" points="168.9469,-475.1072 177.43,-468.76 166.8403,-468.4317 168.9469,-475.1072"/>
</g>
<!-- admm.ADMM.solve&#45;&gt;admm.ADMM.compute_residuals -->
<g id="edge6" class="edge">
<title>admm.ADMM.solve&#45;&gt;admm.ADMM.compute_residuals</title>
<path fill="none" stroke="#8ed88c" stroke-width="2" d="M111.27,-506C119.32,-506 127.85,-506 136.5,-506"/>
<polygon fill="#8ed88c" stroke="#8ed88c" stroke-width="2" points="136.68,-509.5001 146.68,-506 136.68,-502.5001 136.68,-509.5001"/>
</g>
<!-- admm.ADMM.solve&#45;&gt;admm.ADMM.display_status -->
<g id="edge7" class="edge">
<title>admm.ADMM.solve&#45;&gt;admm.ADMM.display_status</title>
<path fill="none" stroke="#8ed88c" stroke-width="2" d="M111.27,-522.35C127.77,-527.56 146.28,-533.4 163.69,-538.9"/>
<polygon fill="#8ed88c" stroke="#8ed88c" stroke-width="2" points="162.6501,-542.2419 173.24,-541.92 164.7607,-535.5677 162.6501,-542.2419"/>
</g>
<!-- admm.ADMM.solve&#45;&gt;admm.ADMM.display_start -->
<g id="edge8" class="edge">
<title>admm.ADMM.solve&#45;&gt;admm.ADMM.display_start</title>
<path fill="none" stroke="#8ed88c" stroke-width="2" d="M74.825,-524.23C91.047,-542.46 118.24,-570.16 147,-587 149.83,-588.66 152.77,-590.22 155.78,-591.71"/>
<polygon fill="#8ed88c" stroke="#8ed88c" stroke-width="2" points="154.468,-594.9582 165.02,-595.91 157.3647,-588.5856 154.468,-594.9582"/>
</g>
<!-- admm.ADMM.solve&#45;&gt;admm.ADMM.update_rho -->
<g id="edge9" class="edge">
<title>admm.ADMM.solve&#45;&gt;admm.ADMM.update_rho</title>
<path fill="none" stroke="#8ed88c" stroke-width="2" d="M66.497,-524.14C78.562,-553.06 106,-609.56 147,-641 149.46,-642.89 152.06,-644.64 154.75,-646.28"/>
<polygon fill="#8ed88c" stroke="#8ed88c" stroke-width="2" points="153.1914,-649.4163 163.65,-651.11 156.5303,-643.2639 153.1914,-649.4163"/>
</g>
<!-- admm.ADMM.solve&#45;&gt;admm.ADMM.display_end -->
<g id="edge10" class="edge">
<title>admm.ADMM.solve&#45;&gt;admm.ADMM.display_end</title>
<path fill="none" stroke="#8ed88c" stroke-width="2" d="M62.864,-524.25C70.725,-561.74 93.82,-647.88 147,-695 149.38,-697.1 151.92,-699.04 154.58,-700.83"/>
<polygon fill="#8ed88c" stroke="#8ed88c" stroke-width="2" points="153.0655,-703.9996 163.46,-706.05 156.6128,-697.965 153.0655,-703.9996"/>
</g>
<!-- admm.ADMMEqual.relax_AX -->
<g id="node19" class="node">
<title>admm.ADMMEqual.relax_AX</title>
<g id="a_node19"><a xlink:href="../../sporco.admm.admm.html#sporco.admm.admm.ADMMEqual.relax_AX" xlink:title="admm.ADMMEqual.relax_AX" target="_top">
<path fill="#8ca8d8" stroke="#000000" stroke-width=".25" d="M290,-392C290,-392 171,-392 171,-392 165,-392 159,-386 159,-380 159,-380 159,-368 159,-368 159,-362 165,-356 171,-356 171,-356 290,-356 290,-356 296,-356 302,-362 302,-368 302,-368 302,-380 302,-380 302,-386 296,-392 290,-392"/>
<text text-anchor="middle" x="230.5" y="-371.8" font-family="Vera Sans, DejaVu Sans, Liberation Sans, Arial, Helvetica, sans" font-size="9.00" fill="#000000">admm.ADMMEqual.relax_AX</text>
</a>
</g>
</g>
<!-- admm.ADMM.solve&#45;&gt;admm.ADMMEqual.relax_AX -->
<g id="edge17" class="edge">
<title>admm.ADMM.solve&#45;&gt;admm.ADMMEqual.relax_AX</title>
<path fill="none" stroke="#8ed88c" stroke-width="2" d="M75.813,-487.95C92.6,-469.97 120.04,-442.21 147,-422 159.07,-412.95 172.99,-404.32 185.97,-396.94"/>
<polygon fill="#8ed88c" stroke="#8ed88c" stroke-width="2" points="187.7358,-399.9628 194.77,-392.04 184.3304,-393.847 187.7358,-399.9628"/>
</g>
<!-- admm.ADMMEqual.getmin -->
<g id="node23" class="node">
<title>admm.ADMMEqual.getmin</title>
<g id="a_node23"><a xlink:href="../../sporco.admm.admm.html#sporco.admm.admm.ADMMEqual.getmin" xlink:title="admm.ADMMEqual.getmin" target="_top">
<path fill="#8ca8d8" stroke="#000000" stroke-width=".25" d="M287,-338C287,-338 174,-338 174,-338 168,-338 162,-332 162,-326 162,-326 162,-314 162,-314 162,-308 168,-302 174,-302 174,-302 287,-302 287,-302 293,-302 299,-308 299,-314 299,-314 299,-326 299,-326 299,-332 293,-338 287,-338"/>
<text text-anchor="middle" x="230.5" y="-317.8" font-family="Vera Sans, DejaVu Sans, Liberation Sans, Arial, Helvetica, sans" font-size="9.00" fill="#000000">admm.ADMMEqual.getmin</text>
</a>
</g>
</g>
<!-- admm.ADMM.solve&#45;&gt;admm.ADMMEqual.getmin -->
<g id="edge18" class="edge">
<title>admm.ADMM.solve&#45;&gt;admm.ADMMEqual.getmin</title>
<path fill="none" stroke="#8ed88c" stroke-width="2" d="M64.583,-487.86C74.727,-454.97 100.59,-385.32 147,-347 148.81,-345.5 150.71,-344.09 152.68,-342.75"/>
<polygon fill="#8ed88c" stroke="#8ed88c" stroke-width="2" points="154.8985,-345.5018 161.69,-337.37 151.3098,-339.4917 154.8985,-345.5018"/>
</g>
</g>
</svg>
