<?xml version="1.0" encoding="UTF-8" standalone="no"?>
<!DOCTYPE svg PUBLIC "-//W3C//DTD SVG 1.1//EN"
 "http://www.w3.org/Graphics/SVG/1.1/DTD/svg11.dtd">
<!-- Generated by graphviz version 2.40.1 (20161225.0304)
 -->
<!-- Pages: 1 -->
<svg
 viewBox="0.00 0.00 812.00 301.53" xmlns="http://www.w3.org/2000/svg" xmlns:xlink="http://www.w3.org/1999/xlink">
<g id="graph0" class="graph" transform="scale(1 1) rotate(0) translate(4 297.534)">
<polygon fill="transparent" stroke="transparent" points="-4,4 -4,-297.534 808,-297.534 808,4 -4,4"/>
<g id="clust1" class="cluster">
<title>cluster_cmod.getPcn</title>
<polygon fill="transparent" stroke="#d88c8c" stroke-width="2" stroke-dasharray="1,5" points="372.5,-145.534 372.5,-215.534 466.5,-215.534 466.5,-145.534 372.5,-145.534"/>
<text text-anchor="middle" x="419.5" y="-204.334" font-family="Vera Sans, DejaVu Sans, Liberation Sans, Arial, Helvetica, sans" font-size="9.00" fill="#000000">cmod.getPcn</text>
</g>
<g id="clust2" class="cluster">
<title>cluster_admm.ADMM</title>
<polygon fill="transparent" stroke="#8ed88c" stroke-width="2" stroke-dasharray="1,5" points="516,-21.534 516,-199.534 804,-199.534 804,-21.534 516,-21.534"/>
<text text-anchor="middle" x="660" y="-188.334" font-family="Vera Sans, DejaVu Sans, Liberation Sans, Arial, Helvetica, sans" font-size="9.00" fill="#000000">admm.ADMM</text>
</g>
<g id="clust3" class="cluster">
<title>cluster_admm.ADMMEqual</title>
<polygon fill="transparent" stroke="#8cc8d8" stroke-width="2" stroke-dasharray="1,5" points="343,-67.534 343,-137.534 496,-137.534 496,-67.534 343,-67.534"/>
<text text-anchor="middle" x="419.5" y="-126.334" font-family="Vera Sans, DejaVu Sans, Liberation Sans, Arial, Helvetica, sans" font-size="9.00" fill="#000000">admm.ADMMEqual</text>
</g>
<g id="clust4" class="cluster">
<title>cluster_cmod.CnstrMOD</title>
<polygon fill="transparent" stroke="#d88ca4" stroke-width="2" stroke-dasharray="1,5" points="181,-223.534 181,-293.534 798.5,-293.534 798.5,-223.534 181,-223.534"/>
<text text-anchor="middle" x="489.75" y="-282.334" font-family="Vera Sans, DejaVu Sans, Liberation Sans, Arial, Helvetica, sans" font-size="9.00" fill="#000000">cmod.CnstrMOD</text>
</g>
<g id="clust5" class="cluster">
<title>cluster_admm._ADMM_Meta</title>
<polygon fill="transparent" stroke="#af8cd8" stroke-width="2" stroke-dasharray="1,5" points="0,-223.534 0,-293.534 161,-293.534 161,-223.534 0,-223.534"/>
<text text-anchor="middle" x="80.5" y="-282.334" font-family="Vera Sans, DejaVu Sans, Liberation Sans, Arial, Helvetica, sans" font-size="9.00" fill="#000000">admm._ADMM_Meta</text>
</g>
<!-- cmod.getPcn -->
<g id="node1" class="node">
<title>cmod.getPcn</title>
<g id="a_node1"><a xlink:href="../../sporco.admm.cmod.html#sporco.admm.cmod.getPcn" xlink:title="cmod.getPcn" target="_top">
<path fill="#d88c8c" stroke="#000000" stroke-width=".25" d="M446.5,-189.534C446.5,-189.534 392.5,-189.534 392.5,-189.534 386.5,-189.534 380.5,-183.534 380.5,-177.534 380.5,-177.534 380.5,-165.534 380.5,-165.534 380.5,-159.534 386.5,-153.534 392.5,-153.534 392.5,-153.534 446.5,-153.534 446.5,-153.534 452.5,-153.534 458.5,-159.534 458.5,-165.534 458.5,-165.534 458.5,-177.534 458.5,-177.534 458.5,-183.534 452.5,-189.534 446.5,-189.534"/>
<text text-anchor="middle" x="419.5" y="-169.334" font-family="Vera Sans, DejaVu Sans, Liberation Sans, Arial, Helvetica, sans" font-size="9.00" fill="#000000">cmod.getPcn</text>
</a>
</g>
</g>
<!-- admm.ADMM.__init__ -->
<g id="node2" class="node">
<title>admm.ADMM.__init__</title>
<g id="a_node2"><a xlink:href="../../sporco.admm.admm.html#sporco.admm.admm.ADMM.__init__" xlink:title="admm.ADMM.__init__" target="_top">
<path fill="#8ed88c" stroke="#000000" stroke-width=".25" d="M623,-119.534C623,-119.534 536,-119.534 536,-119.534 530,-119.534 524,-113.534 524,-107.534 524,-107.534 524,-95.534 524,-95.534 524,-89.534 530,-83.534 536,-83.534 536,-83.534 623,-83.534 623,-83.534 629,-83.534 635,-89.534 635,-95.534 635,-95.534 635,-107.534 635,-107.534 635,-113.534 629,-119.534 623,-119.534"/>
<text text-anchor="middle" x="579.5" y="-99.334" font-family="Vera Sans, DejaVu Sans, Liberation Sans, Arial, Helvetica, sans" font-size="9.00" fill="#000000">admm.ADMM.__init__</text>
</a>
</g>
</g>
<!-- admm.ADMM.set_attr -->
<g id="node3" class="node">
<title>admm.ADMM.set_attr</title>
<g id="a_node3"><a xlink:href="../../sporco.admm.admm.html#sporco.admm.admm.ADMM.set_attr" xlink:title="admm.ADMM.set_attr" target="_top">
<path fill="#8ed88c" stroke="#000000" stroke-width=".25" d="M779.5,-65.534C779.5,-65.534 687.5,-65.534 687.5,-65.534 681.5,-65.534 675.5,-59.534 675.5,-53.534 675.5,-53.534 675.5,-41.534 675.5,-41.534 675.5,-35.534 681.5,-29.534 687.5,-29.534 687.5,-29.534 779.5,-29.534 779.5,-29.534 785.5,-29.534 791.5,-35.534 791.5,-41.534 791.5,-41.534 791.5,-53.534 791.5,-53.534 791.5,-59.534 785.5,-65.534 779.5,-65.534"/>
<text text-anchor="middle" x="733.5" y="-45.334" font-family="Vera Sans, DejaVu Sans, Liberation Sans, Arial, Helvetica, sans" font-size="9.00" fill="#000000">admm.ADMM.set_attr</text>
</a>
</g>
</g>
<!-- admm.ADMM.__init__&#45;&gt;admm.ADMM.set_attr -->
<g id="edge1" class="edge">
<title>admm.ADMM.__init__&#45;&gt;admm.ADMM.set_attr</title>
<path fill="none" stroke="#8ed88c" stroke-width="2" d="M631.21,-83.403C644.36,-78.792 658.61,-73.793 672.19,-69.033"/>
<polygon fill="#8ed88c" stroke="#8ed88c" stroke-width="2" points="673.6513,-72.2296 681.93,-65.618 671.3352,-65.6239 673.6513,-72.2296"/>
</g>
<!-- admm.ADMM.set_dtype -->
<g id="node4" class="node">
<title>admm.ADMM.set_dtype</title>
<g id="a_node4"><a xlink:href="../../sporco.admm.admm.html#sporco.admm.admm.ADMM.set_dtype" xlink:title="admm.ADMM.set_dtype" target="_top">
<path fill="#8ed88c" stroke="#000000" stroke-width=".25" d="M784,-119.534C784,-119.534 683,-119.534 683,-119.534 677,-119.534 671,-113.534 671,-107.534 671,-107.534 671,-95.534 671,-95.534 671,-89.534 677,-83.534 683,-83.534 683,-83.534 784,-83.534 784,-83.534 790,-83.534 796,-89.534 796,-95.534 796,-95.534 796,-107.534 796,-107.534 796,-113.534 790,-119.534 784,-119.534"/>
<text text-anchor="middle" x="733.5" y="-99.334" font-family="Vera Sans, DejaVu Sans, Liberation Sans, Arial, Helvetica, sans" font-size="9.00" fill="#000000">admm.ADMM.set_dtype</text>
</a>
</g>
</g>
<!-- admm.ADMM.__init__&#45;&gt;admm.ADMM.set_dtype -->
<g id="edge2" class="edge">
<title>admm.ADMM.__init__&#45;&gt;admm.ADMM.set_dtype</title>
<path fill="none" stroke="#8ed88c" stroke-width="2" d="M635.1,-101.534C643.46,-101.534 652.18,-101.534 660.83,-101.534"/>
<polygon fill="#8ed88c" stroke="#8ed88c" stroke-width="2" points="660.93,-105.0341 670.93,-101.534 660.93,-98.0341 660.93,-105.0341"/>
</g>
<!-- admm.ADMM.yinit -->
<g id="node5" class="node">
<title>admm.ADMM.yinit</title>
<g id="a_node5"><a xlink:href="../../sporco.admm.admm.html#sporco.admm.admm.ADMM.yinit" xlink:title="admm.ADMM.yinit" target="_top">
<path fill="#8ed88c" stroke="#000000" stroke-width=".25" d="M770.5,-173.534C770.5,-173.534 696.5,-173.534 696.5,-173.534 690.5,-173.534 684.5,-167.534 684.5,-161.534 684.5,-161.534 684.5,-149.534 684.5,-149.534 684.5,-143.534 690.5,-137.534 696.5,-137.534 696.5,-137.534 770.5,-137.534 770.5,-137.534 776.5,-137.534 782.5,-143.534 782.5,-149.534 782.5,-149.534 782.5,-161.534 782.5,-161.534 782.5,-167.534 776.5,-173.534 770.5,-173.534"/>
<text text-anchor="middle" x="733.5" y="-153.334" font-family="Vera Sans, DejaVu Sans, Liberation Sans, Arial, Helvetica, sans" font-size="9.00" fill="#000000">admm.ADMM.yinit</text>
</a>
</g>
</g>
<!-- admm.ADMM.__init__&#45;&gt;admm.ADMM.yinit -->
<g id="edge3" class="edge">
<title>admm.ADMM.__init__&#45;&gt;admm.ADMM.yinit</title>
<path fill="none" stroke="#8ed88c" stroke-width="2" d="M631.21,-119.664C645.12,-124.544 660.28,-129.854 674.56,-134.864"/>
<polygon fill="#8ed88c" stroke="#8ed88c" stroke-width="2" points="673.6752,-138.2628 684.27,-138.274 675.9946,-131.6582 673.6752,-138.2628"/>
</g>
<!-- cmod.CnstrMOD.uinit -->
<g id="node9" class="node">
<title>cmod.CnstrMOD.uinit</title>
<g id="a_node9"><a xlink:href="../../sporco.admm.cmod.html#sporco.admm.cmod.CnstrMOD.uinit" xlink:title="cmod.CnstrMOD.uinit" target="_top">
<path fill="#d88ca4" stroke="#000000" stroke-width=".25" d="M778.5,-267.534C778.5,-267.534 688.5,-267.534 688.5,-267.534 682.5,-267.534 676.5,-261.534 676.5,-255.534 676.5,-255.534 676.5,-243.534 676.5,-243.534 676.5,-237.534 682.5,-231.534 688.5,-231.534 688.5,-231.534 778.5,-231.534 778.5,-231.534 784.5,-231.534 790.5,-237.534 790.5,-243.534 790.5,-243.534 790.5,-255.534 790.5,-255.534 790.5,-261.534 784.5,-267.534 778.5,-267.534"/>
<text text-anchor="middle" x="733.5" y="-247.334" font-family="Vera Sans, DejaVu Sans, Liberation Sans, Arial, Helvetica, sans" font-size="9.00" fill="#000000">cmod.CnstrMOD.uinit</text>
</a>
</g>
</g>
<!-- admm.ADMM.__init__&#45;&gt;cmod.CnstrMOD.uinit -->
<g id="edge5" class="edge">
<title>admm.ADMM.__init__&#45;&gt;cmod.CnstrMOD.uinit</title>
<path fill="none" stroke="#8ed88c" stroke-width="2" d="M594.01,-119.884C611.25,-141.144 641.41,-176.674 671,-203.534 679.4,-211.164 689.04,-218.744 698.19,-225.494"/>
<polygon fill="#8ed88c" stroke="#8ed88c" stroke-width="2" points="696.2548,-228.4137 706.41,-231.434 700.3547,-222.7401 696.2548,-228.4137"/>
</g>
<!-- admm.ADMMEqual.__init__ -->
<g id="node6" class="node">
<title>admm.ADMMEqual.__init__</title>
<g id="a_node6"><a xlink:href="../../sporco.admm.admm.html#sporco.admm.admm.ADMMEqual.__init__" xlink:title="admm.ADMMEqual.__init__" target="_top">
<path fill="#8cc8d8" stroke="#000000" stroke-width=".25" d="M476,-111.534C476,-111.534 363,-111.534 363,-111.534 357,-111.534 351,-105.534 351,-99.534 351,-99.534 351,-87.534 351,-87.534 351,-81.534 357,-75.534 363,-75.534 363,-75.534 476,-75.534 476,-75.534 482,-75.534 488,-81.534 488,-87.534 488,-87.534 488,-99.534 488,-99.534 488,-105.534 482,-111.534 476,-111.534"/>
<text text-anchor="middle" x="419.5" y="-91.334" font-family="Vera Sans, DejaVu Sans, Liberation Sans, Arial, Helvetica, sans" font-size="9.00" fill="#000000">admm.ADMMEqual.__init__</text>
</a>
</g>
</g>
<!-- admm.ADMMEqual.__init__&#45;&gt;admm.ADMM.__init__ -->
<g id="edge6" class="edge">
<title>admm.ADMMEqual.__init__&#45;&gt;admm.ADMM.__init__</title>
<path fill="none" stroke="#8cc8d8" stroke-width="2" d="M488.28,-96.973C496.71,-97.395 505.31,-97.825 513.7,-98.244"/>
<polygon fill="#8cc8d8" stroke="#8cc8d8" stroke-width="2" points="513.6275,-101.7447 523.79,-98.749 513.9775,-94.7534 513.6275,-101.7447"/>
</g>
<!-- cmod.CnstrMOD.__init__ -->
<g id="node7" class="node">
<title>cmod.CnstrMOD.__init__</title>
<g id="a_node7"><a xlink:href="../../sporco.admm.cmod.html#sporco.admm.cmod.CnstrMOD.__init__" xlink:title="cmod.CnstrMOD.__init__" target="_top">
<path fill="#d88ca4" stroke="#000000" stroke-width=".25" d="M303,-267.534C303,-267.534 201,-267.534 201,-267.534 195,-267.534 189,-261.534 189,-255.534 189,-255.534 189,-243.534 189,-243.534 189,-237.534 195,-231.534 201,-231.534 201,-231.534 303,-231.534 303,-231.534 309,-231.534 315,-237.534 315,-243.534 315,-243.534 315,-255.534 315,-255.534 315,-261.534 309,-267.534 303,-267.534"/>
<text text-anchor="middle" x="252" y="-247.334" font-family="Vera Sans, DejaVu Sans, Liberation Sans, Arial, Helvetica, sans" font-size="9.00" fill="#000000">cmod.CnstrMOD.__init__</text>
</a>
</g>
</g>
<!-- cmod.CnstrMOD.__init__&#45;&gt;cmod.getPcn -->
<g id="edge8" class="edge">
<title>cmod.CnstrMOD.__init__&#45;&gt;cmod.getPcn</title>
<path fill="none" stroke="#d88ca4" stroke-width="2" d="M290.85,-231.444C314.86,-220.264 345.87,-205.824 371.43,-193.924"/>
<polygon fill="#d88ca4" stroke="#d88ca4" stroke-width="2" points="372.9847,-197.0609 380.57,-189.664 370.0275,-190.7162 372.9847,-197.0609"/>
</g>
<!-- cmod.CnstrMOD.__init__&#45;&gt;admm.ADMM.set_attr -->
<g id="edge9" class="edge">
<title>cmod.CnstrMOD.__init__&#45;&gt;admm.ADMM.set_attr</title>
<path fill="none" stroke="#d88ca4" stroke-width="2" d="M254.67,-231.504C261.45,-192.884 283.25,-102.543 343,-63.534 440.32,0 582.23,-14.3233 665.49,-30.759"/>
<polygon fill="#d88ca4" stroke="#d88ca4" stroke-width="2" points="664.8421,-34.1988 675.34,-32.769 666.2417,-27.3402 664.8421,-34.1988"/>
</g>
<!-- cmod.CnstrMOD.__init__&#45;&gt;admm.ADMMEqual.__init__ -->
<g id="edge10" class="edge">
<title>cmod.CnstrMOD.__init__&#45;&gt;admm.ADMMEqual.__init__</title>
<path fill="none" stroke="#d88ca4" stroke-width="2" d="M264.68,-231.214C281.03,-208.444 311.17,-169.194 343,-141.534 353.28,-132.604 365.39,-124.204 376.91,-117.004"/>
<polygon fill="#d88ca4" stroke="#d88ca4" stroke-width="2" points="378.8308,-119.9324 385.56,-111.749 375.1963,-113.9499 378.8308,-119.9324"/>
</g>
<!-- cmod.CnstrMOD.setcoef -->
<g id="node8" class="node">
<title>cmod.CnstrMOD.setcoef</title>
<g id="a_node8"><a xlink:href="../../sporco.admm.cmod.html#sporco.admm.cmod.CnstrMOD.setcoef" xlink:title="cmod.CnstrMOD.setcoef" target="_top">
<path fill="#d88ca4" stroke="#000000" stroke-width=".25" d="M472,-267.534C472,-267.534 367,-267.534 367,-267.534 361,-267.534 355,-261.534 355,-255.534 355,-255.534 355,-243.534 355,-243.534 355,-237.534 361,-231.534 367,-231.534 367,-231.534 472,-231.534 472,-231.534 478,-231.534 484,-237.534 484,-243.534 484,-243.534 484,-255.534 484,-255.534 484,-261.534 478,-267.534 472,-267.534"/>
<text text-anchor="middle" x="419.5" y="-247.334" font-family="Vera Sans, DejaVu Sans, Liberation Sans, Arial, Helvetica, sans" font-size="9.00" fill="#000000">cmod.CnstrMOD.setcoef</text>
</a>
</g>
</g>
<!-- cmod.CnstrMOD.__init__&#45;&gt;cmod.CnstrMOD.setcoef -->
<g id="edge4" class="edge">
<title>cmod.CnstrMOD.__init__&#45;&gt;cmod.CnstrMOD.setcoef</title>
<path fill="none" stroke="#d88ca4" stroke-width="2" d="M315.32,-249.534C324.95,-249.534 334.96,-249.534 344.8,-249.534"/>
<polygon fill="#d88ca4" stroke="#d88ca4" stroke-width="2" points="344.97,-253.0341 354.97,-249.534 344.97,-246.0341 344.97,-253.0341"/>
</g>
<!-- admm._ADMM_Meta.__call__ -->
<g id="node10" class="node">
<title>admm._ADMM_Meta.__call__</title>
<g id="a_node10"><a xlink:href="../../sporco.admm.admm.html#sporco.admm.admm._ADMM_Meta.__call__" xlink:title="admm._ADMM_Meta.__call__" target="_top">
<path fill="#af8cd8" stroke="#000000" stroke-width=".25" d="M141,-267.534C141,-267.534 20,-267.534 20,-267.534 14,-267.534 8,-261.534 8,-255.534 8,-255.534 8,-243.534 8,-243.534 8,-237.534 14,-231.534 20,-231.534 20,-231.534 141,-231.534 141,-231.534 147,-231.534 153,-237.534 153,-243.534 153,-243.534 153,-255.534 153,-255.534 153,-261.534 147,-267.534 141,-267.534"/>
<text text-anchor="middle" x="80.5" y="-247.334" font-family="Vera Sans, DejaVu Sans, Liberation Sans, Arial, Helvetica, sans" font-size="9.00" fill="#000000">admm._ADMM_Meta.__call__</text>
</a>
</g>
</g>
<!-- admm._ADMM_Meta.__call__&#45;&gt;cmod.CnstrMOD.__init__ -->
<g id="edge7" class="edge">
<title>admm._ADMM_Meta.__call__&#45;&gt;cmod.CnstrMOD.__init__</title>
<path fill="none" stroke="#af8cd8" stroke-width="2" d="M153.23,-249.534C161.67,-249.534 170.28,-249.534 178.72,-249.534"/>
<polygon fill="#af8cd8" stroke="#af8cd8" stroke-width="2" points="178.92,-253.0341 188.92,-249.534 178.92,-246.0341 178.92,-253.0341"/>
</g>
</g>
</svg>
