<?xml version="1.0" encoding="UTF-8" standalone="no"?>
<!DOCTYPE svg PUBLIC "-//W3C//DTD SVG 1.1//EN"
 "http://www.w3.org/Graphics/SVG/1.1/DTD/svg11.dtd">
<!-- Generated by graphviz version 2.40.1 (20161225.0304)
 -->
<!-- Pages: 1 -->
<svg
 viewBox="0.00 0.00 893.00 852.00" xmlns="http://www.w3.org/2000/svg" xmlns:xlink="http://www.w3.org/1999/xlink">
<g id="graph0" class="graph" transform="scale(1 1) rotate(0) translate(4 848)">
<polygon fill="transparent" stroke="transparent" points="-4,4 -4,-848 889,-848 889,4 -4,4"/>
<g id="clust1" class="cluster">
<title>cluster_bpdn.BPDN</title>
<polygon fill="transparent" stroke="#af8cd8" stroke-width="2" stroke-dasharray="1,5" points="173.5,-105 173.5,-175 287.5,-175 287.5,-105 173.5,-105"/>
<text text-anchor="middle" x="230.5" y="-163.8" font-family="Vera Sans, DejaVu Sans, Liberation Sans, Arial, Helvetica, sans" font-size="9.00" fill="#000000">bpdn.BPDN</text>
</g>
<g id="clust2" class="cluster">
<title>cluster_admm.ADMMEqual</title>
<polygon fill="transparent" stroke="#8cc8d8" stroke-width="2" stroke-dasharray="1,5" points="151,-210 151,-442 885,-442 885,-210 151,-210"/>
<text text-anchor="middle" x="518" y="-430.8" font-family="Vera Sans, DejaVu Sans, Liberation Sans, Arial, Helvetica, sans" font-size="9.00" fill="#000000">admm.ADMMEqual</text>
</g>
<g id="clust3" class="cluster">
<title>cluster_bpdn.GenericBPDN</title>
<polygon fill="transparent" stroke="#d88c8c" stroke-width="2" stroke-dasharray="1,5" points="342,-78 342,-202 698,-202 698,-78 342,-78"/>
<text text-anchor="middle" x="520" y="-190.8" font-family="Vera Sans, DejaVu Sans, Liberation Sans, Arial, Helvetica, sans" font-size="9.00" fill="#000000">bpdn.GenericBPDN</text>
</g>
<g id="clust4" class="cluster">
<title>cluster_bpdn.ElasticNet</title>
<polygon fill="transparent" stroke="#d88ca4" stroke-width="2" stroke-dasharray="1,5" points="163,0 163,-70 691,-70 691,0 163,0"/>
<text text-anchor="middle" x="427" y="-58.8" font-family="Vera Sans, DejaVu Sans, Liberation Sans, Arial, Helvetica, sans" font-size="9.00" fill="#000000">bpdn.ElasticNet</text>
</g>
<g id="clust5" class="cluster">
<title>cluster_admm.ADMM</title>
<polygon fill="transparent" stroke="#8ed88c" stroke-width="2" stroke-dasharray="1,5" points="0,-450 0,-844 501.5,-844 501.5,-450 0,-450"/>
<text text-anchor="middle" x="250.75" y="-832.8" font-family="Vera Sans, DejaVu Sans, Liberation Sans, Arial, Helvetica, sans" font-size="9.00" fill="#000000">admm.ADMM</text>
</g>
<!-- bpdn.BPDN.ystep -->
<g id="node1" class="node">
<title>bpdn.BPDN.ystep</title>
<g id="a_node1"><a xlink:href="../../sporco.admm.bpdn.html#sporco.admm.bpdn.BPDN.ystep" xlink:title="bpdn.BPDN.ystep" target="_top">
<path fill="#af8cd8" stroke="#000000" stroke-width=".25" d="M267.5,-149C267.5,-149 193.5,-149 193.5,-149 187.5,-149 181.5,-143 181.5,-137 181.5,-137 181.5,-125 181.5,-125 181.5,-119 187.5,-113 193.5,-113 193.5,-113 267.5,-113 267.5,-113 273.5,-113 279.5,-119 279.5,-125 279.5,-125 279.5,-137 279.5,-137 279.5,-143 273.5,-149 267.5,-149"/>
<text text-anchor="middle" x="230.5" y="-128.8" font-family="Vera Sans, DejaVu Sans, Liberation Sans, Arial, Helvetica, sans" font-size="9.00" fill="#000000">bpdn.BPDN.ystep</text>
</a>
</g>
</g>
<!-- bpdn.GenericBPDN.ystep -->
<g id="node10" class="node">
<title>bpdn.GenericBPDN.ystep</title>
<g id="a_node10"><a xlink:href="../../sporco.admm.bpdn.html#sporco.admm.bpdn.GenericBPDN.ystep" xlink:title="bpdn.GenericBPDN.ystep" target="_top">
<path fill="#d88c8c" stroke="#000000" stroke-width=".25" d="M482.5,-122C482.5,-122 372.5,-122 372.5,-122 366.5,-122 360.5,-116 360.5,-110 360.5,-110 360.5,-98 360.5,-98 360.5,-92 366.5,-86 372.5,-86 372.5,-86 482.5,-86 482.5,-86 488.5,-86 494.5,-92 494.5,-98 494.5,-98 494.5,-110 494.5,-110 494.5,-116 488.5,-122 482.5,-122"/>
<text text-anchor="middle" x="427.5" y="-101.8" font-family="Vera Sans, DejaVu Sans, Liberation Sans, Arial, Helvetica, sans" font-size="9.00" fill="#000000">bpdn.GenericBPDN.ystep</text>
</a>
</g>
</g>
<!-- bpdn.BPDN.ystep&#45;&gt;bpdn.GenericBPDN.ystep -->
<g id="edge20" class="edge">
<title>bpdn.BPDN.ystep&#45;&gt;bpdn.GenericBPDN.ystep</title>
<path fill="none" stroke="#af8cd8" stroke-width="2" d="M279.7,-124.26C301.04,-121.33 326.54,-117.84 350.3,-114.58"/>
<polygon fill="#af8cd8" stroke="#af8cd8" stroke-width="2" points="350.9285,-118.0267 360.36,-113.2 349.9771,-111.0916 350.9285,-118.0267"/>
</g>
<!-- admm.ADMMEqual.obfn_fvar -->
<g id="node2" class="node">
<title>admm.ADMMEqual.obfn_fvar</title>
<g id="a_node2"><a xlink:href="../../sporco.admm.admm.html#sporco.admm.admm.ADMMEqual.obfn_fvar" xlink:title="admm.ADMMEqual.obfn_fvar" target="_top">
<path fill="#8cc8d8" stroke="#000000" stroke-width=".25" d="M863.5,-308C863.5,-308 739.5,-308 739.5,-308 733.5,-308 727.5,-302 727.5,-296 727.5,-296 727.5,-284 727.5,-284 727.5,-278 733.5,-272 739.5,-272 739.5,-272 863.5,-272 863.5,-272 869.5,-272 875.5,-278 875.5,-284 875.5,-284 875.5,-296 875.5,-296 875.5,-302 869.5,-308 863.5,-308"/>
<text text-anchor="middle" x="801.5" y="-287.8" font-family="Vera Sans, DejaVu Sans, Liberation Sans, Arial, Helvetica, sans" font-size="9.00" fill="#000000">admm.ADMMEqual.obfn_fvar</text>
</a>
</g>
</g>
<!-- admm.ADMMEqual.rsdl_s -->
<g id="node3" class="node">
<title>admm.ADMMEqual.rsdl_s</title>
<g id="a_node3"><a xlink:href="../../sporco.admm.admm.html#sporco.admm.admm.ADMMEqual.rsdl_s" xlink:title="admm.ADMMEqual.rsdl_s" target="_top">
<path fill="#8cc8d8" stroke="#000000" stroke-width=".25" d="M481.5,-362C481.5,-362 373.5,-362 373.5,-362 367.5,-362 361.5,-356 361.5,-350 361.5,-350 361.5,-338 361.5,-338 361.5,-332 367.5,-326 373.5,-326 373.5,-326 481.5,-326 481.5,-326 487.5,-326 493.5,-332 493.5,-338 493.5,-338 493.5,-350 493.5,-350 493.5,-356 487.5,-362 481.5,-362"/>
<text text-anchor="middle" x="427.5" y="-341.8" font-family="Vera Sans, DejaVu Sans, Liberation Sans, Arial, Helvetica, sans" font-size="9.00" fill="#000000">admm.ADMMEqual.rsdl_s</text>
</a>
</g>
</g>
<!-- admm.ADMMEqual.rsdl_r -->
<g id="node4" class="node">
<title>admm.ADMMEqual.rsdl_r</title>
<g id="a_node4"><a xlink:href="../../sporco.admm.admm.html#sporco.admm.admm.ADMMEqual.rsdl_r" xlink:title="admm.ADMMEqual.rsdl_r" target="_top">
<path fill="#8cc8d8" stroke="#000000" stroke-width=".25" d="M481,-254C481,-254 374,-254 374,-254 368,-254 362,-248 362,-242 362,-242 362,-230 362,-230 362,-224 368,-218 374,-218 374,-218 481,-218 481,-218 487,-218 493,-224 493,-230 493,-230 493,-242 493,-242 493,-248 487,-254 481,-254"/>
<text text-anchor="middle" x="427.5" y="-233.8" font-family="Vera Sans, DejaVu Sans, Liberation Sans, Arial, Helvetica, sans" font-size="9.00" fill="#000000">admm.ADMMEqual.rsdl_r</text>
</a>
</g>
</g>
<!-- admm.ADMMEqual.getmin -->
<g id="node5" class="node">
<title>admm.ADMMEqual.getmin</title>
<g id="a_node5"><a xlink:href="../../sporco.admm.admm.html#sporco.admm.admm.ADMMEqual.getmin" xlink:title="admm.ADMMEqual.getmin" target="_top">
<path fill="#8cc8d8" stroke="#000000" stroke-width=".25" d="M287,-416C287,-416 174,-416 174,-416 168,-416 162,-410 162,-404 162,-404 162,-392 162,-392 162,-386 168,-380 174,-380 174,-380 287,-380 287,-380 293,-380 299,-386 299,-392 299,-392 299,-404 299,-404 299,-410 293,-416 287,-416"/>
<text text-anchor="middle" x="230.5" y="-395.8" font-family="Vera Sans, DejaVu Sans, Liberation Sans, Arial, Helvetica, sans" font-size="9.00" fill="#000000">admm.ADMMEqual.getmin</text>
</a>
</g>
</g>
<!-- admm.ADMMEqual.relax_AX -->
<g id="node6" class="node">
<title>admm.ADMMEqual.relax_AX</title>
<g id="a_node6"><a xlink:href="../../sporco.admm.admm.html#sporco.admm.admm.ADMMEqual.relax_AX" xlink:title="admm.ADMMEqual.relax_AX" target="_top">
<path fill="#8cc8d8" stroke="#000000" stroke-width=".25" d="M290,-362C290,-362 171,-362 171,-362 165,-362 159,-356 159,-350 159,-350 159,-338 159,-338 159,-332 165,-326 171,-326 171,-326 290,-326 290,-326 296,-326 302,-332 302,-338 302,-338 302,-350 302,-350 302,-356 296,-362 290,-362"/>
<text text-anchor="middle" x="230.5" y="-341.8" font-family="Vera Sans, DejaVu Sans, Liberation Sans, Arial, Helvetica, sans" font-size="9.00" fill="#000000">admm.ADMMEqual.relax_AX</text>
</a>
</g>
</g>
<!-- admm.ADMMEqual.obfn_gvar -->
<g id="node7" class="node">
<title>admm.ADMMEqual.obfn_gvar</title>
<g id="a_node7"><a xlink:href="../../sporco.admm.admm.html#sporco.admm.admm.ADMMEqual.obfn_gvar" xlink:title="admm.ADMMEqual.obfn_gvar" target="_top">
<path fill="#8cc8d8" stroke="#000000" stroke-width=".25" d="M865,-254C865,-254 738,-254 738,-254 732,-254 726,-248 726,-242 726,-242 726,-230 726,-230 726,-224 732,-218 738,-218 738,-218 865,-218 865,-218 871,-218 877,-224 877,-230 877,-230 877,-242 877,-242 877,-248 871,-254 865,-254"/>
<text text-anchor="middle" x="801.5" y="-233.8" font-family="Vera Sans, DejaVu Sans, Liberation Sans, Arial, Helvetica, sans" font-size="9.00" fill="#000000">admm.ADMMEqual.obfn_gvar</text>
</a>
</g>
</g>
<!-- admm.ADMMEqual.rsdl_rn -->
<g id="node8" class="node">
<title>admm.ADMMEqual.rsdl_rn</title>
<g id="a_node8"><a xlink:href="../../sporco.admm.admm.html#sporco.admm.admm.ADMMEqual.rsdl_rn" xlink:title="admm.ADMMEqual.rsdl_rn" target="_top">
<path fill="#8cc8d8" stroke="#000000" stroke-width=".25" d="M484,-308C484,-308 371,-308 371,-308 365,-308 359,-302 359,-296 359,-296 359,-284 359,-284 359,-278 365,-272 371,-272 371,-272 484,-272 484,-272 490,-272 496,-278 496,-284 496,-284 496,-296 496,-296 496,-302 490,-308 484,-308"/>
<text text-anchor="middle" x="427.5" y="-287.8" font-family="Vera Sans, DejaVu Sans, Liberation Sans, Arial, Helvetica, sans" font-size="9.00" fill="#000000">admm.ADMMEqual.rsdl_rn</text>
</a>
</g>
</g>
<!-- admm.ADMMEqual.rsdl_sn -->
<g id="node9" class="node">
<title>admm.ADMMEqual.rsdl_sn</title>
<g id="a_node9"><a xlink:href="../../sporco.admm.admm.html#sporco.admm.admm.ADMMEqual.rsdl_sn" xlink:title="admm.ADMMEqual.rsdl_sn" target="_top">
<path fill="#8cc8d8" stroke="#000000" stroke-width=".25" d="M484.5,-416C484.5,-416 370.5,-416 370.5,-416 364.5,-416 358.5,-410 358.5,-404 358.5,-404 358.5,-392 358.5,-392 358.5,-386 364.5,-380 370.5,-380 370.5,-380 484.5,-380 484.5,-380 490.5,-380 496.5,-386 496.5,-392 496.5,-392 496.5,-404 496.5,-404 496.5,-410 490.5,-416 484.5,-416"/>
<text text-anchor="middle" x="427.5" y="-395.8" font-family="Vera Sans, DejaVu Sans, Liberation Sans, Arial, Helvetica, sans" font-size="9.00" fill="#000000">admm.ADMMEqual.rsdl_sn</text>
</a>
</g>
</g>
<!-- bpdn.GenericBPDN.obfn_dfd -->
<g id="node11" class="node">
<title>bpdn.GenericBPDN.obfn_dfd</title>
<g id="a_node11"><a xlink:href="../../sporco.admm.bpdn.html#sporco.admm.bpdn.GenericBPDN.obfn_dfd" xlink:title="bpdn.GenericBPDN.obfn_dfd" target="_top">
<path fill="#d88c8c" stroke="#000000" stroke-width=".25" d="M678,-176C678,-176 553,-176 553,-176 547,-176 541,-170 541,-164 541,-164 541,-152 541,-152 541,-146 547,-140 553,-140 553,-140 678,-140 678,-140 684,-140 690,-146 690,-152 690,-152 690,-164 690,-164 690,-170 684,-176 678,-176"/>
<text text-anchor="middle" x="615.5" y="-155.8" font-family="Vera Sans, DejaVu Sans, Liberation Sans, Arial, Helvetica, sans" font-size="9.00" fill="#000000">bpdn.GenericBPDN.obfn_dfd</text>
</a>
</g>
</g>
<!-- bpdn.GenericBPDN.obfn_dfd&#45;&gt;admm.ADMMEqual.obfn_fvar -->
<g id="edge22" class="edge">
<title>bpdn.GenericBPDN.obfn_dfd&#45;&gt;admm.ADMMEqual.obfn_fvar</title>
<path fill="none" stroke="#d88c8c" stroke-width="2" d="M630.52,-176.39C650.25,-199.49 687.01,-239.01 726,-263 728.58,-264.59 731.28,-266.11 734.04,-267.55"/>
<polygon fill="#d88c8c" stroke="#d88c8c" stroke-width="2" points="732.5229,-270.7041 743.05,-271.9 735.5663,-264.4003 732.5229,-270.7041"/>
</g>
<!-- bpdn.GenericBPDN.eval_objfn -->
<g id="node12" class="node">
<title>bpdn.GenericBPDN.eval_objfn</title>
<g id="a_node12"><a xlink:href="../../sporco.admm.bpdn.html#sporco.admm.bpdn.GenericBPDN.eval_objfn" xlink:title="bpdn.GenericBPDN.eval_objfn" target="_top">
<path fill="#d88c8c" stroke="#000000" stroke-width=".25" d="M493,-176C493,-176 362,-176 362,-176 356,-176 350,-170 350,-164 350,-164 350,-152 350,-152 350,-146 356,-140 362,-140 362,-140 493,-140 493,-140 499,-140 505,-146 505,-152 505,-152 505,-164 505,-164 505,-170 499,-176 493,-176"/>
<text text-anchor="middle" x="427.5" y="-155.8" font-family="Vera Sans, DejaVu Sans, Liberation Sans, Arial, Helvetica, sans" font-size="9.00" fill="#000000">bpdn.GenericBPDN.eval_objfn</text>
</a>
</g>
</g>
<!-- bpdn.GenericBPDN.eval_objfn&#45;&gt;bpdn.GenericBPDN.obfn_dfd -->
<g id="edge1" class="edge">
<title>bpdn.GenericBPDN.eval_objfn&#45;&gt;bpdn.GenericBPDN.obfn_dfd</title>
<path fill="none" stroke="#d88c8c" stroke-width="2" d="M505.05,-158C513.56,-158 522.25,-158 530.84,-158"/>
<polygon fill="#d88c8c" stroke="#d88c8c" stroke-width="2" points="530.85,-161.5001 540.85,-158 530.85,-154.5001 530.85,-161.5001"/>
</g>
<!-- bpdn.ElasticNet.obfn_reg -->
<g id="node13" class="node">
<title>bpdn.ElasticNet.obfn_reg</title>
<g id="a_node13"><a xlink:href="../../sporco.admm.bpdn.html#sporco.admm.bpdn.ElasticNet.obfn_reg" xlink:title="bpdn.ElasticNet.obfn_reg" target="_top">
<path fill="#d88ca4" stroke="#000000" stroke-width=".25" d="M671,-44C671,-44 560,-44 560,-44 554,-44 548,-38 548,-32 548,-32 548,-20 548,-20 548,-14 554,-8 560,-8 560,-8 671,-8 671,-8 677,-8 683,-14 683,-20 683,-20 683,-32 683,-32 683,-38 677,-44 671,-44"/>
<text text-anchor="middle" x="615.5" y="-23.8" font-family="Vera Sans, DejaVu Sans, Liberation Sans, Arial, Helvetica, sans" font-size="9.00" fill="#000000">bpdn.ElasticNet.obfn_reg</text>
</a>
</g>
</g>
<!-- bpdn.GenericBPDN.eval_objfn&#45;&gt;bpdn.ElasticNet.obfn_reg -->
<g id="edge23" class="edge">
<title>bpdn.GenericBPDN.eval_objfn&#45;&gt;bpdn.ElasticNet.obfn_reg</title>
<path fill="none" stroke="#d88c8c" stroke-width="2" d="M499.47,-139.87C501.38,-138.66 503.23,-137.37 505,-136 530.16,-116.45 519,-97.05 541,-74 549.8,-64.78 560.71,-56.5 571.44,-49.518"/>
<polygon fill="#d88c8c" stroke="#d88c8c" stroke-width="2" points="573.328,-52.4654 579.96,-44.203 569.623,-46.5263 573.328,-52.4654"/>
</g>
<!-- bpdn.ElasticNet.obfn_reg&#45;&gt;admm.ADMMEqual.obfn_gvar -->
<g id="edge21" class="edge">
<title>bpdn.ElasticNet.obfn_reg&#45;&gt;admm.ADMMEqual.obfn_gvar</title>
<path fill="none" stroke="#d88ca4" stroke-width="2" d="M655.06,-44.053C669.62,-51.911 685.56,-62.07 698,-74 739.72,-114.02 772.37,-174.05 789.12,-208.69"/>
<polygon fill="#d88ca4" stroke="#d88ca4" stroke-width="2" points="785.9703,-210.2166 793.42,-217.75 792.2942,-207.2151 785.9703,-210.2166"/>
</g>
<!-- bpdn.ElasticNet.xstep -->
<g id="node14" class="node">
<title>bpdn.ElasticNet.xstep</title>
<g id="a_node14"><a xlink:href="../../sporco.admm.bpdn.html#sporco.admm.bpdn.ElasticNet.xstep" xlink:title="bpdn.ElasticNet.xstep" target="_top">
<path fill="#d88ca4" stroke="#000000" stroke-width=".25" d="M278,-44C278,-44 183,-44 183,-44 177,-44 171,-38 171,-32 171,-32 171,-20 171,-20 171,-14 177,-8 183,-8 183,-8 278,-8 278,-8 284,-8 290,-14 290,-20 290,-20 290,-32 290,-32 290,-38 284,-44 278,-44"/>
<text text-anchor="middle" x="230.5" y="-23.8" font-family="Vera Sans, DejaVu Sans, Liberation Sans, Arial, Helvetica, sans" font-size="9.00" fill="#000000">bpdn.ElasticNet.xstep</text>
</a>
</g>
</g>
<!-- admm.ADMM.iteration_stats -->
<g id="node15" class="node">
<title>admm.ADMM.iteration_stats</title>
<g id="a_node15"><a xlink:href="../../sporco.admm.admm.html#sporco.admm.admm.ADMM.iteration_stats" xlink:title="admm.ADMM.iteration_stats" target="_top">
<path fill="#8ed88c" stroke="#000000" stroke-width=".25" d="M292,-818C292,-818 169,-818 169,-818 163,-818 157,-812 157,-806 157,-806 157,-794 157,-794 157,-788 163,-782 169,-782 169,-782 292,-782 292,-782 298,-782 304,-788 304,-794 304,-794 304,-806 304,-806 304,-812 298,-818 292,-818"/>
<text text-anchor="middle" x="230.5" y="-797.8" font-family="Vera Sans, DejaVu Sans, Liberation Sans, Arial, Helvetica, sans" font-size="9.00" fill="#000000">admm.ADMM.iteration_stats</text>
</a>
</g>
</g>
<!-- admm.ADMM.iteration_stats&#45;&gt;bpdn.GenericBPDN.eval_objfn -->
<g id="edge10" class="edge">
<title>admm.ADMM.iteration_stats&#45;&gt;bpdn.GenericBPDN.eval_objfn</title>
<path fill="none" stroke="#8ed88c" stroke-width="2" d="M304.33,-782.51C307.95,-779.78 311.22,-776.63 314,-773 390.72,-672.85 275.6,-313.27 342,-206 348.17,-196.04 357.2,-187.96 367.11,-181.48"/>
<polygon fill="#8ed88c" stroke="#8ed88c" stroke-width="2" points="369.2029,-184.3071 376,-176.18 365.6183,-178.2945 369.2029,-184.3071"/>
</g>
<!-- admm.ADMM.itstat_extra -->
<g id="node16" class="node">
<title>admm.ADMM.itstat_extra</title>
<g id="a_node16"><a xlink:href="../../sporco.admm.admm.html#sporco.admm.admm.ADMM.itstat_extra" xlink:title="admm.ADMM.itstat_extra" target="_top">
<path fill="#8ed88c" stroke="#000000" stroke-width=".25" d="M481.5,-818C481.5,-818 373.5,-818 373.5,-818 367.5,-818 361.5,-812 361.5,-806 361.5,-806 361.5,-794 361.5,-794 361.5,-788 367.5,-782 373.5,-782 373.5,-782 481.5,-782 481.5,-782 487.5,-782 493.5,-788 493.5,-794 493.5,-794 493.5,-806 493.5,-806 493.5,-812 487.5,-818 481.5,-818"/>
<text text-anchor="middle" x="427.5" y="-797.8" font-family="Vera Sans, DejaVu Sans, Liberation Sans, Arial, Helvetica, sans" font-size="9.00" fill="#000000">admm.ADMM.itstat_extra</text>
</a>
</g>
</g>
<!-- admm.ADMM.iteration_stats&#45;&gt;admm.ADMM.itstat_extra -->
<g id="edge2" class="edge">
<title>admm.ADMM.iteration_stats&#45;&gt;admm.ADMM.itstat_extra</title>
<path fill="none" stroke="#8ed88c" stroke-width="2" d="M304.14,-800C319.56,-800 335.84,-800 351.35,-800"/>
<polygon fill="#8ed88c" stroke="#8ed88c" stroke-width="2" points="351.42,-803.5001 361.42,-800 351.42,-796.5001 351.42,-803.5001"/>
</g>
<!-- admm.ADMM.ustep -->
<g id="node17" class="node">
<title>admm.ADMM.ustep</title>
<g id="a_node17"><a xlink:href="../../sporco.admm.admm.html#sporco.admm.admm.ADMM.ustep" xlink:title="admm.ADMM.ustep" target="_top">
<path fill="#8ed88c" stroke="#000000" stroke-width=".25" d="M271.5,-494C271.5,-494 189.5,-494 189.5,-494 183.5,-494 177.5,-488 177.5,-482 177.5,-482 177.5,-470 177.5,-470 177.5,-464 183.5,-458 189.5,-458 189.5,-458 271.5,-458 271.5,-458 277.5,-458 283.5,-464 283.5,-470 283.5,-470 283.5,-482 283.5,-482 283.5,-488 277.5,-494 271.5,-494"/>
<text text-anchor="middle" x="230.5" y="-473.8" font-family="Vera Sans, DejaVu Sans, Liberation Sans, Arial, Helvetica, sans" font-size="9.00" fill="#000000">admm.ADMM.ustep</text>
</a>
</g>
</g>
<!-- admm.ADMM.ustep&#45;&gt;admm.ADMMEqual.rsdl_r -->
<g id="edge11" class="edge">
<title>admm.ADMM.ustep&#45;&gt;admm.ADMMEqual.rsdl_r</title>
<path fill="none" stroke="#8ed88c" stroke-width="2" d="M283.55,-465.93C294.95,-461.51 305.98,-455.15 314,-446 352.68,-401.89 313.2,-368.11 342,-317 354.53,-294.75 375.18,-274.94 393.05,-260.47"/>
<polygon fill="#8ed88c" stroke="#8ed88c" stroke-width="2" points="395.3108,-263.145 401.02,-254.22 390.9912,-257.6367 395.3108,-263.145"/>
</g>
<!-- admm.ADMM.compute_residuals -->
<g id="node18" class="node">
<title>admm.ADMM.compute_residuals</title>
<g id="a_node18"><a xlink:href="../../sporco.admm.admm.html#sporco.admm.admm.ADMM.compute_residuals" xlink:title="admm.ADMM.compute_residuals" target="_top">
<path fill="#8ed88c" stroke="#000000" stroke-width=".25" d="M302,-548C302,-548 159,-548 159,-548 153,-548 147,-542 147,-536 147,-536 147,-524 147,-524 147,-518 153,-512 159,-512 159,-512 302,-512 302,-512 308,-512 314,-518 314,-524 314,-524 314,-536 314,-536 314,-542 308,-548 302,-548"/>
<text text-anchor="middle" x="230.5" y="-527.8" font-family="Vera Sans, DejaVu Sans, Liberation Sans, Arial, Helvetica, sans" font-size="9.00" fill="#000000">admm.ADMM.compute_residuals</text>
</a>
</g>
</g>
<!-- admm.ADMM.compute_residuals&#45;&gt;admm.ADMMEqual.rsdl_s -->
<g id="edge12" class="edge">
<title>admm.ADMM.compute_residuals&#45;&gt;admm.ADMMEqual.rsdl_s</title>
<path fill="none" stroke="#8ed88c" stroke-width="2" d="M301.14,-511.95C305.73,-509.36 310.08,-506.39 314,-503 335.34,-484.53 326.6,-469.65 342,-446 360.14,-418.13 384.9,-389.37 403.11,-369.52"/>
<polygon fill="#8ed88c" stroke="#8ed88c" stroke-width="2" points="405.7478,-371.8228 409.98,-362.11 400.6145,-367.0636 405.7478,-371.8228"/>
</g>
<!-- admm.ADMM.compute_residuals&#45;&gt;admm.ADMMEqual.rsdl_r -->
<g id="edge13" class="edge">
<title>admm.ADMM.compute_residuals&#45;&gt;admm.ADMMEqual.rsdl_r</title>
<path fill="none" stroke="#8ed88c" stroke-width="2" d="M304.28,-511.91C307.86,-509.32 311.14,-506.37 314,-503 368.09,-439.26 303.33,-391.12 342,-317 353.73,-294.52 374.16,-274.81 392.11,-260.47"/>
<polygon fill="#8ed88c" stroke="#8ed88c" stroke-width="2" points="394.3707,-263.1463 400.14,-254.26 390.0884,-257.6089 394.3707,-263.1463"/>
</g>
<!-- admm.ADMM.compute_residuals&#45;&gt;admm.ADMMEqual.rsdl_rn -->
<g id="edge14" class="edge">
<title>admm.ADMM.compute_residuals&#45;&gt;admm.ADMMEqual.rsdl_rn</title>
<path fill="none" stroke="#8ed88c" stroke-width="2" d="M303.67,-511.96C307.45,-509.37 310.94,-506.4 314,-503 354.15,-458.45 312.69,-423.32 342,-371 354.48,-348.72 375.13,-328.91 393.01,-314.45"/>
<polygon fill="#8ed88c" stroke="#8ed88c" stroke-width="2" points="395.2753,-317.1215 400.99,-308.2 390.9591,-311.6106 395.2753,-317.1215"/>
</g>
<!-- admm.ADMM.compute_residuals&#45;&gt;admm.ADMMEqual.rsdl_sn -->
<g id="edge15" class="edge">
<title>admm.ADMM.compute_residuals&#45;&gt;admm.ADMMEqual.rsdl_sn</title>
<path fill="none" stroke="#8ed88c" stroke-width="2" d="M295.98,-511.9C302.24,-509.27 308.35,-506.31 314,-503 350.21,-481.8 384.52,-447.34 405.75,-423.71"/>
<polygon fill="#8ed88c" stroke="#8ed88c" stroke-width="2" points="408.4313,-425.9613 412.43,-416.15 403.1857,-421.3263 408.4313,-425.9613"/>
</g>
<!-- admm.ADMM.display_status -->
<g id="node19" class="node">
<title>admm.ADMM.display_status</title>
<g id="a_node19"><a xlink:href="../../sporco.admm.admm.html#sporco.admm.admm.ADMM.display_status" xlink:title="admm.ADMM.display_status" target="_top">
<path fill="#8ed88c" stroke="#000000" stroke-width=".25" d="M291.5,-602C291.5,-602 169.5,-602 169.5,-602 163.5,-602 157.5,-596 157.5,-590 157.5,-590 157.5,-578 157.5,-578 157.5,-572 163.5,-566 169.5,-566 169.5,-566 291.5,-566 291.5,-566 297.5,-566 303.5,-572 303.5,-578 303.5,-578 303.5,-590 303.5,-590 303.5,-596 297.5,-602 291.5,-602"/>
<text text-anchor="middle" x="230.5" y="-581.8" font-family="Vera Sans, DejaVu Sans, Liberation Sans, Arial, Helvetica, sans" font-size="9.00" fill="#000000">admm.ADMM.display_status</text>
</a>
</g>
</g>
<!-- admm.ADMM.display_start -->
<g id="node20" class="node">
<title>admm.ADMM.display_start</title>
<g id="a_node20"><a xlink:href="../../sporco.admm.admm.html#sporco.admm.admm.ADMM.display_start" xlink:title="admm.ADMM.display_start" target="_top">
<path fill="#8ed88c" stroke="#000000" stroke-width=".25" d="M287.5,-656C287.5,-656 173.5,-656 173.5,-656 167.5,-656 161.5,-650 161.5,-644 161.5,-644 161.5,-632 161.5,-632 161.5,-626 167.5,-620 173.5,-620 173.5,-620 287.5,-620 287.5,-620 293.5,-620 299.5,-626 299.5,-632 299.5,-632 299.5,-644 299.5,-644 299.5,-650 293.5,-656 287.5,-656"/>
<text text-anchor="middle" x="230.5" y="-635.8" font-family="Vera Sans, DejaVu Sans, Liberation Sans, Arial, Helvetica, sans" font-size="9.00" fill="#000000">admm.ADMM.display_start</text>
</a>
</g>
</g>
<!-- admm.ADMM.update_rho -->
<g id="node21" class="node">
<title>admm.ADMM.update_rho</title>
<g id="a_node21"><a xlink:href="../../sporco.admm.admm.html#sporco.admm.admm.ADMM.update_rho" xlink:title="admm.ADMM.update_rho" target="_top">
<path fill="#8ed88c" stroke="#000000" stroke-width=".25" d="M285,-710C285,-710 176,-710 176,-710 170,-710 164,-704 164,-698 164,-698 164,-686 164,-686 164,-680 170,-674 176,-674 176,-674 285,-674 285,-674 291,-674 297,-680 297,-686 297,-686 297,-698 297,-698 297,-704 291,-710 285,-710"/>
<text text-anchor="middle" x="230.5" y="-689.8" font-family="Vera Sans, DejaVu Sans, Liberation Sans, Arial, Helvetica, sans" font-size="9.00" fill="#000000">admm.ADMM.update_rho</text>
</a>
</g>
</g>
<!-- admm.ADMM.display_end -->
<g id="node22" class="node">
<title>admm.ADMM.display_end</title>
<g id="a_node22"><a xlink:href="../../sporco.admm.admm.html#sporco.admm.admm.ADMM.display_end" xlink:title="admm.ADMM.display_end" target="_top">
<path fill="#8ed88c" stroke="#000000" stroke-width=".25" d="M285.5,-764C285.5,-764 175.5,-764 175.5,-764 169.5,-764 163.5,-758 163.5,-752 163.5,-752 163.5,-740 163.5,-740 163.5,-734 169.5,-728 175.5,-728 175.5,-728 285.5,-728 285.5,-728 291.5,-728 297.5,-734 297.5,-740 297.5,-740 297.5,-752 297.5,-752 297.5,-758 291.5,-764 285.5,-764"/>
<text text-anchor="middle" x="230.5" y="-743.8" font-family="Vera Sans, DejaVu Sans, Liberation Sans, Arial, Helvetica, sans" font-size="9.00" fill="#000000">admm.ADMM.display_end</text>
</a>
</g>
</g>
<!-- admm.ADMM.solve -->
<g id="node23" class="node">
<title>admm.ADMM.solve</title>
<g id="a_node23"><a xlink:href="../../sporco.admm.admm.html#sporco.admm.admm.ADMM.solve" xlink:title="admm.ADMM.solve" target="_top">
<path fill="#8ed88c" stroke="#000000" stroke-width=".25" d="M99,-548C99,-548 20,-548 20,-548 14,-548 8,-542 8,-536 8,-536 8,-524 8,-524 8,-518 14,-512 20,-512 20,-512 99,-512 99,-512 105,-512 111,-518 111,-524 111,-524 111,-536 111,-536 111,-542 105,-548 99,-548"/>
<text text-anchor="middle" x="59.5" y="-527.8" font-family="Vera Sans, DejaVu Sans, Liberation Sans, Arial, Helvetica, sans" font-size="9.00" fill="#000000">admm.ADMM.solve</text>
</a>
</g>
</g>
<!-- admm.ADMM.solve&#45;&gt;bpdn.BPDN.ystep -->
<g id="edge18" class="edge">
<title>admm.ADMM.solve&#45;&gt;bpdn.BPDN.ystep</title>
<path fill="none" stroke="#8ed88c" stroke-width="2" d="M60.814,-511.74C65.256,-460.04 83.208,-309.73 147,-206 159.19,-186.17 178.19,-168.52 194.98,-155.33"/>
<polygon fill="#8ed88c" stroke="#8ed88c" stroke-width="2" points="197.1712,-158.0608 203.01,-149.22 192.9324,-152.49 197.1712,-158.0608"/>
</g>
<!-- admm.ADMM.solve&#45;&gt;admm.ADMMEqual.getmin -->
<g id="edge16" class="edge">
<title>admm.ADMM.solve&#45;&gt;admm.ADMMEqual.getmin</title>
<path fill="none" stroke="#8ed88c" stroke-width="2" d="M75.813,-511.95C92.6,-493.97 120.04,-466.21 147,-446 159.07,-436.95 172.99,-428.32 185.97,-420.94"/>
<polygon fill="#8ed88c" stroke="#8ed88c" stroke-width="2" points="187.7358,-423.9628 194.77,-416.04 184.3304,-417.847 187.7358,-423.9628"/>
</g>
<!-- admm.ADMM.solve&#45;&gt;admm.ADMMEqual.relax_AX -->
<g id="edge17" class="edge">
<title>admm.ADMM.solve&#45;&gt;admm.ADMMEqual.relax_AX</title>
<path fill="none" stroke="#8ed88c" stroke-width="2" d="M64.583,-511.86C74.727,-478.97 100.59,-409.32 147,-371 148.54,-369.73 150.15,-368.51 151.8,-367.36"/>
<polygon fill="#8ed88c" stroke="#8ed88c" stroke-width="2" points="153.7725,-370.2557 160.45,-362.03 150.1004,-364.2962 153.7725,-370.2557"/>
</g>
<!-- admm.ADMM.solve&#45;&gt;bpdn.ElasticNet.xstep -->
<g id="edge19" class="edge">
<title>admm.ADMM.solve&#45;&gt;bpdn.ElasticNet.xstep</title>
<path fill="none" stroke="#8ed88c" stroke-width="2" d="M61.679,-511.73C70.534,-439.44 105.35,-173.72 147,-101 158.48,-80.947 177.25,-63.378 194.08,-50.295"/>
<polygon fill="#8ed88c" stroke="#8ed88c" stroke-width="2" points="196.251,-53.0417 202.15,-44.241 192.0503,-47.4422 196.251,-53.0417"/>
</g>
<!-- admm.ADMM.solve&#45;&gt;admm.ADMM.iteration_stats -->
<g id="edge3" class="edge">
<title>admm.ADMM.solve&#45;&gt;admm.ADMM.iteration_stats</title>
<path fill="none" stroke="#8ed88c" stroke-width="2" d="M60.727,-548.13C64.732,-592.85 81.265,-709.39 147,-773 148.09,-774.06 149.23,-775.08 150.41,-776.06"/>
<polygon fill="#8ed88c" stroke="#8ed88c" stroke-width="2" points="148.471,-778.9763 158.64,-781.95 152.545,-773.2839 148.471,-778.9763"/>
</g>
<!-- admm.ADMM.solve&#45;&gt;admm.ADMM.ustep -->
<g id="edge4" class="edge">
<title>admm.ADMM.solve&#45;&gt;admm.ADMM.ustep</title>
<path fill="none" stroke="#8ed88c" stroke-width="2" d="M111.27,-513.65C129.1,-508.02 149.26,-501.65 167.86,-495.78"/>
<polygon fill="#8ed88c" stroke="#8ed88c" stroke-width="2" points="168.9469,-499.1072 177.43,-492.76 166.8403,-492.4317 168.9469,-499.1072"/>
</g>
<!-- admm.ADMM.solve&#45;&gt;admm.ADMM.compute_residuals -->
<g id="edge5" class="edge">
<title>admm.ADMM.solve&#45;&gt;admm.ADMM.compute_residuals</title>
<path fill="none" stroke="#8ed88c" stroke-width="2" d="M111.27,-530C119.32,-530 127.85,-530 136.5,-530"/>
<polygon fill="#8ed88c" stroke="#8ed88c" stroke-width="2" points="136.68,-533.5001 146.68,-530 136.68,-526.5001 136.68,-533.5001"/>
</g>
<!-- admm.ADMM.solve&#45;&gt;admm.ADMM.display_status -->
<g id="edge6" class="edge">
<title>admm.ADMM.solve&#45;&gt;admm.ADMM.display_status</title>
<path fill="none" stroke="#8ed88c" stroke-width="2" d="M111.27,-546.35C127.77,-551.56 146.28,-557.4 163.69,-562.9"/>
<polygon fill="#8ed88c" stroke="#8ed88c" stroke-width="2" points="162.6501,-566.2419 173.24,-565.92 164.7607,-559.5677 162.6501,-566.2419"/>
</g>
<!-- admm.ADMM.solve&#45;&gt;admm.ADMM.display_start -->
<g id="edge7" class="edge">
<title>admm.ADMM.solve&#45;&gt;admm.ADMM.display_start</title>
<path fill="none" stroke="#8ed88c" stroke-width="2" d="M74.825,-548.23C91.047,-566.46 118.24,-594.16 147,-611 149.83,-612.66 152.77,-614.22 155.78,-615.71"/>
<polygon fill="#8ed88c" stroke="#8ed88c" stroke-width="2" points="154.468,-618.9582 165.02,-619.91 157.3647,-612.5856 154.468,-618.9582"/>
</g>
<!-- admm.ADMM.solve&#45;&gt;admm.ADMM.update_rho -->
<g id="edge8" class="edge">
<title>admm.ADMM.solve&#45;&gt;admm.ADMM.update_rho</title>
<path fill="none" stroke="#8ed88c" stroke-width="2" d="M66.497,-548.14C78.562,-577.06 106,-633.56 147,-665 149.46,-666.89 152.06,-668.64 154.75,-670.28"/>
<polygon fill="#8ed88c" stroke="#8ed88c" stroke-width="2" points="153.1914,-673.4163 163.65,-675.11 156.5303,-667.2639 153.1914,-673.4163"/>
</g>
<!-- admm.ADMM.solve&#45;&gt;admm.ADMM.display_end -->
<g id="edge9" class="edge">
<title>admm.ADMM.solve&#45;&gt;admm.ADMM.display_end</title>
<path fill="none" stroke="#8ed88c" stroke-width="2" d="M62.864,-548.25C70.725,-585.74 93.82,-671.88 147,-719 149.38,-721.1 151.92,-723.04 154.58,-724.83"/>
<polygon fill="#8ed88c" stroke="#8ed88c" stroke-width="2" points="153.0655,-727.9996 163.46,-730.05 156.6128,-721.965 153.0655,-727.9996"/>
</g>
</g>
</svg>
