<?xml version="1.0" encoding="UTF-8" standalone="no"?>
<!DOCTYPE svg PUBLIC "-//W3C//DTD SVG 1.1//EN"
 "http://www.w3.org/Graphics/SVG/1.1/DTD/svg11.dtd">
<!-- Generated by graphviz version 2.40.1 (20161225.0304)
 -->
<!-- Pages: 1 -->
<svg
 viewBox="0.00 0.00 1128.00 400.00" xmlns="http://www.w3.org/2000/svg" xmlns:xlink="http://www.w3.org/1999/xlink">
<g id="graph0" class="graph" transform="scale(1 1) rotate(0) translate(4 396)">
<polygon fill="transparent" stroke="transparent" points="-4,4 -4,-396 1124,-396 1124,4 -4,4"/>
<g id="clust1" class="cluster">
<title>cluster_admm.ADMM</title>
<polygon fill="transparent" stroke="#8ed88c" stroke-width="2" stroke-dasharray="1,5" points="832,-136 832,-314 1120,-314 1120,-136 832,-136"/>
<text text-anchor="middle" x="976" y="-302.8" font-family="Vera Sans, DejaVu Sans, Liberation Sans, Arial, Helvetica, sans" font-size="9.00" fill="#000000">admm.ADMM</text>
</g>
<g id="clust2" class="cluster">
<title>cluster_bpdn.GenericBPDN</title>
<polygon fill="transparent" stroke="#d88c8c" stroke-width="2" stroke-dasharray="1,5" points="483,-98 483,-168 639,-168 639,-98 483,-98"/>
<text text-anchor="middle" x="561" y="-156.8" font-family="Vera Sans, DejaVu Sans, Liberation Sans, Arial, Helvetica, sans" font-size="9.00" fill="#000000">bpdn.GenericBPDN</text>
</g>
<g id="clust3" class="cluster">
<title>cluster_bpdn.ElasticNet</title>
<polygon fill="transparent" stroke="#d88c91" stroke-width="2" stroke-dasharray="1,5" points="181,-20 181,-90 806.5,-90 806.5,-20 181,-20"/>
<text text-anchor="middle" x="493.75" y="-78.8" font-family="Vera Sans, DejaVu Sans, Liberation Sans, Arial, Helvetica, sans" font-size="9.00" fill="#000000">bpdn.ElasticNet</text>
</g>
<g id="clust4" class="cluster">
<title>cluster_admm.ADMMEqual</title>
<polygon fill="transparent" stroke="#8cd8d6" stroke-width="2" stroke-dasharray="1,5" points="659,-244 659,-314 812,-314 812,-244 659,-244"/>
<text text-anchor="middle" x="735.5" y="-302.8" font-family="Vera Sans, DejaVu Sans, Liberation Sans, Arial, Helvetica, sans" font-size="9.00" fill="#000000">admm.ADMMEqual</text>
</g>
<g id="clust5" class="cluster">
<title>cluster_bpdn.BPDN</title>
<polygon fill="transparent" stroke="#d48cd8" stroke-width="2" stroke-dasharray="1,5" points="343,-322 343,-392 1103.5,-392 1103.5,-322 343,-322"/>
<text text-anchor="middle" x="723.25" y="-380.8" font-family="Vera Sans, DejaVu Sans, Liberation Sans, Arial, Helvetica, sans" font-size="9.00" fill="#000000">bpdn.BPDN</text>
</g>
<g id="clust6" class="cluster">
<title>cluster_admm._ADMM_Meta</title>
<polygon fill="transparent" stroke="#8c8fd8" stroke-width="2" stroke-dasharray="1,5" points="0,-20 0,-90 161,-90 161,-20 0,-20"/>
<text text-anchor="middle" x="80.5" y="-78.8" font-family="Vera Sans, DejaVu Sans, Liberation Sans, Arial, Helvetica, sans" font-size="9.00" fill="#000000">admm._ADMM_Meta</text>
</g>
<!-- admm.ADMM.__init__ -->
<g id="node1" class="node">
<title>admm.ADMM.__init__</title>
<g id="a_node1"><a xlink:href="../../sporco.admm.admm.html#sporco.admm.admm.ADMM.__init__" xlink:title="admm.ADMM.__init__" target="_top">
<path fill="#8ed88c" stroke="#000000" stroke-width=".25" d="M939,-288C939,-288 852,-288 852,-288 846,-288 840,-282 840,-276 840,-276 840,-264 840,-264 840,-258 846,-252 852,-252 852,-252 939,-252 939,-252 945,-252 951,-258 951,-264 951,-264 951,-276 951,-276 951,-282 945,-288 939,-288"/>
<text text-anchor="middle" x="895.5" y="-267.8" font-family="Vera Sans, DejaVu Sans, Liberation Sans, Arial, Helvetica, sans" font-size="9.00" fill="#000000">admm.ADMM.__init__</text>
</a>
</g>
</g>
<!-- admm.ADMM.set_attr -->
<g id="node2" class="node">
<title>admm.ADMM.set_attr</title>
<g id="a_node2"><a xlink:href="../../sporco.admm.admm.html#sporco.admm.admm.ADMM.set_attr" xlink:title="admm.ADMM.set_attr" target="_top">
<path fill="#8ed88c" stroke="#000000" stroke-width=".25" d="M1095.5,-234C1095.5,-234 1003.5,-234 1003.5,-234 997.5,-234 991.5,-228 991.5,-222 991.5,-222 991.5,-210 991.5,-210 991.5,-204 997.5,-198 1003.5,-198 1003.5,-198 1095.5,-198 1095.5,-198 1101.5,-198 1107.5,-204 1107.5,-210 1107.5,-210 1107.5,-222 1107.5,-222 1107.5,-228 1101.5,-234 1095.5,-234"/>
<text text-anchor="middle" x="1049.5" y="-213.8" font-family="Vera Sans, DejaVu Sans, Liberation Sans, Arial, Helvetica, sans" font-size="9.00" fill="#000000">admm.ADMM.set_attr</text>
</a>
</g>
</g>
<!-- admm.ADMM.__init__&#45;&gt;admm.ADMM.set_attr -->
<g id="edge1" class="edge">
<title>admm.ADMM.__init__&#45;&gt;admm.ADMM.set_attr</title>
<path fill="none" stroke="#8ed88c" stroke-width="2" d="M947.21,-251.87C960.36,-247.26 974.61,-242.26 988.19,-237.5"/>
<polygon fill="#8ed88c" stroke="#8ed88c" stroke-width="2" points="989.6307,-240.7034 997.9,-234.08 987.3052,-234.1009 989.6307,-240.7034"/>
</g>
<!-- admm.ADMM.set_dtype -->
<g id="node3" class="node">
<title>admm.ADMM.set_dtype</title>
<g id="a_node3"><a xlink:href="../../sporco.admm.admm.html#sporco.admm.admm.ADMM.set_dtype" xlink:title="admm.ADMM.set_dtype" target="_top">
<path fill="#8ed88c" stroke="#000000" stroke-width=".25" d="M1100,-180C1100,-180 999,-180 999,-180 993,-180 987,-174 987,-168 987,-168 987,-156 987,-156 987,-150 993,-144 999,-144 999,-144 1100,-144 1100,-144 1106,-144 1112,-150 1112,-156 1112,-156 1112,-168 1112,-168 1112,-174 1106,-180 1100,-180"/>
<text text-anchor="middle" x="1049.5" y="-159.8" font-family="Vera Sans, DejaVu Sans, Liberation Sans, Arial, Helvetica, sans" font-size="9.00" fill="#000000">admm.ADMM.set_dtype</text>
</a>
</g>
</g>
<!-- admm.ADMM.__init__&#45;&gt;admm.ADMM.set_dtype -->
<g id="edge2" class="edge">
<title>admm.ADMM.__init__&#45;&gt;admm.ADMM.set_dtype</title>
<path fill="none" stroke="#8ed88c" stroke-width="2" d="M912.69,-251.72C930.13,-233.96 958.53,-207.1 987,-189 989.18,-187.61 991.45,-186.27 993.8,-184.96"/>
<polygon fill="#8ed88c" stroke="#8ed88c" stroke-width="2" points="995.6946,-187.9175 1002.9,-180.15 992.4234,-181.7288 995.6946,-187.9175"/>
</g>
<!-- admm.ADMM.yinit -->
<g id="node4" class="node">
<title>admm.ADMM.yinit</title>
<g id="a_node4"><a xlink:href="../../sporco.admm.admm.html#sporco.admm.admm.ADMM.yinit" xlink:title="admm.ADMM.yinit" target="_top">
<path fill="#8ed88c" stroke="#000000" stroke-width=".25" d="M1086.5,-288C1086.5,-288 1012.5,-288 1012.5,-288 1006.5,-288 1000.5,-282 1000.5,-276 1000.5,-276 1000.5,-264 1000.5,-264 1000.5,-258 1006.5,-252 1012.5,-252 1012.5,-252 1086.5,-252 1086.5,-252 1092.5,-252 1098.5,-258 1098.5,-264 1098.5,-264 1098.5,-276 1098.5,-276 1098.5,-282 1092.5,-288 1086.5,-288"/>
<text text-anchor="middle" x="1049.5" y="-267.8" font-family="Vera Sans, DejaVu Sans, Liberation Sans, Arial, Helvetica, sans" font-size="9.00" fill="#000000">admm.ADMM.yinit</text>
</a>
</g>
</g>
<!-- admm.ADMM.__init__&#45;&gt;admm.ADMM.yinit -->
<g id="edge3" class="edge">
<title>admm.ADMM.__init__&#45;&gt;admm.ADMM.yinit</title>
<path fill="none" stroke="#8ed88c" stroke-width="2" d="M951.1,-270C963.81,-270 977.37,-270 990.23,-270"/>
<polygon fill="#8ed88c" stroke="#8ed88c" stroke-width="2" points="990.4,-273.5001 1000.4,-270 990.4,-266.5001 990.4,-273.5001"/>
</g>
<!-- bpdn.BPDN.uinit -->
<g id="node10" class="node">
<title>bpdn.BPDN.uinit</title>
<g id="a_node10"><a xlink:href="../../sporco.admm.bpdn.html#sporco.admm.bpdn.BPDN.uinit" xlink:title="bpdn.BPDN.uinit" target="_top">
<path fill="#d48cd8" stroke="#000000" stroke-width=".25" d="M1083.5,-366C1083.5,-366 1015.5,-366 1015.5,-366 1009.5,-366 1003.5,-360 1003.5,-354 1003.5,-354 1003.5,-342 1003.5,-342 1003.5,-336 1009.5,-330 1015.5,-330 1015.5,-330 1083.5,-330 1083.5,-330 1089.5,-330 1095.5,-336 1095.5,-342 1095.5,-342 1095.5,-354 1095.5,-354 1095.5,-360 1089.5,-366 1083.5,-366"/>
<text text-anchor="middle" x="1049.5" y="-345.8" font-family="Vera Sans, DejaVu Sans, Liberation Sans, Arial, Helvetica, sans" font-size="9.00" fill="#000000">bpdn.BPDN.uinit</text>
</a>
</g>
</g>
<!-- admm.ADMM.__init__&#45;&gt;bpdn.BPDN.uinit -->
<g id="edge4" class="edge">
<title>admm.ADMM.__init__&#45;&gt;bpdn.BPDN.uinit</title>
<path fill="none" stroke="#8ed88c" stroke-width="2" d="M929.25,-288.07C946.46,-297.19 967.76,-308.34 987,-318 991.91,-320.46 997.1,-323 1002.2,-325.51"/>
<polygon fill="#8ed88c" stroke="#8ed88c" stroke-width="2" points="1000.8748,-328.7571 1011.4,-329.97 1003.9284,-322.4583 1000.8748,-328.7571"/>
</g>
<!-- bpdn.GenericBPDN.__init__ -->
<g id="node5" class="node">
<title>bpdn.GenericBPDN.__init__</title>
<g id="a_node5"><a xlink:href="../../sporco.admm.bpdn.html#sporco.admm.bpdn.GenericBPDN.__init__" xlink:title="bpdn.GenericBPDN.__init__" target="_top">
<path fill="#d88c8c" stroke="#000000" stroke-width=".25" d="M619,-142C619,-142 503,-142 503,-142 497,-142 491,-136 491,-130 491,-130 491,-118 491,-118 491,-112 497,-106 503,-106 503,-106 619,-106 619,-106 625,-106 631,-112 631,-118 631,-118 631,-130 631,-130 631,-136 625,-142 619,-142"/>
<text text-anchor="middle" x="561" y="-121.8" font-family="Vera Sans, DejaVu Sans, Liberation Sans, Arial, Helvetica, sans" font-size="9.00" fill="#000000">bpdn.GenericBPDN.__init__</text>
</a>
</g>
</g>
<!-- bpdn.ElasticNet.setdict -->
<g id="node7" class="node">
<title>bpdn.ElasticNet.setdict</title>
<g id="a_node7"><a xlink:href="../../sporco.admm.bpdn.html#sporco.admm.bpdn.ElasticNet.setdict" xlink:title="bpdn.ElasticNet.setdict" target="_top">
<path fill="#d88c91" stroke="#000000" stroke-width=".25" d="M786.5,-64C786.5,-64 684.5,-64 684.5,-64 678.5,-64 672.5,-58 672.5,-52 672.5,-52 672.5,-40 672.5,-40 672.5,-34 678.5,-28 684.5,-28 684.5,-28 786.5,-28 786.5,-28 792.5,-28 798.5,-34 798.5,-40 798.5,-40 798.5,-52 798.5,-52 798.5,-58 792.5,-64 786.5,-64"/>
<text text-anchor="middle" x="735.5" y="-43.8" font-family="Vera Sans, DejaVu Sans, Liberation Sans, Arial, Helvetica, sans" font-size="9.00" fill="#000000">bpdn.ElasticNet.setdict</text>
</a>
</g>
</g>
<!-- bpdn.GenericBPDN.__init__&#45;&gt;bpdn.ElasticNet.setdict -->
<g id="edge13" class="edge">
<title>bpdn.GenericBPDN.__init__&#45;&gt;bpdn.ElasticNet.setdict</title>
<path fill="none" stroke="#d88c8c" stroke-width="2" d="M629,-105.94C632.41,-104.68 635.76,-103.37 639,-102 659.96,-93.128 682.01,-80.601 699.74,-69.644"/>
<polygon fill="#d88c8c" stroke="#d88c8c" stroke-width="2" points="701.9779,-72.3713 708.58,-64.085 698.2515,-66.4456 701.9779,-72.3713"/>
</g>
<!-- admm.ADMMEqual.__init__ -->
<g id="node8" class="node">
<title>admm.ADMMEqual.__init__</title>
<g id="a_node8"><a xlink:href="../../sporco.admm.admm.html#sporco.admm.admm.ADMMEqual.__init__" xlink:title="admm.ADMMEqual.__init__" target="_top">
<path fill="#8cd8d6" stroke="#000000" stroke-width=".25" d="M792,-288C792,-288 679,-288 679,-288 673,-288 667,-282 667,-276 667,-276 667,-264 667,-264 667,-258 673,-252 679,-252 679,-252 792,-252 792,-252 798,-252 804,-258 804,-264 804,-264 804,-276 804,-276 804,-282 798,-288 792,-288"/>
<text text-anchor="middle" x="735.5" y="-267.8" font-family="Vera Sans, DejaVu Sans, Liberation Sans, Arial, Helvetica, sans" font-size="9.00" fill="#000000">admm.ADMMEqual.__init__</text>
</a>
</g>
</g>
<!-- bpdn.GenericBPDN.__init__&#45;&gt;admm.ADMMEqual.__init__ -->
<g id="edge12" class="edge">
<title>bpdn.GenericBPDN.__init__&#45;&gt;admm.ADMMEqual.__init__</title>
<path fill="none" stroke="#d88c8c" stroke-width="2" d="M582.75,-142.2C613.79,-168.17 670.9,-215.95 705.81,-245.16"/>
<polygon fill="#d88c8c" stroke="#d88c8c" stroke-width="2" points="703.8336,-248.0697 713.75,-251.8 708.3242,-242.6999 703.8336,-248.0697"/>
</g>
<!-- bpdn.ElasticNet.__init__ -->
<g id="node6" class="node">
<title>bpdn.ElasticNet.__init__</title>
<g id="a_node6"><a xlink:href="../../sporco.admm.bpdn.html#sporco.admm.bpdn.ElasticNet.__init__" xlink:title="bpdn.ElasticNet.__init__" target="_top">
<path fill="#d88c91" stroke="#000000" stroke-width=".25" d="M303,-64C303,-64 201,-64 201,-64 195,-64 189,-58 189,-52 189,-52 189,-40 189,-40 189,-34 195,-28 201,-28 201,-28 303,-28 303,-28 309,-28 315,-34 315,-40 315,-40 315,-52 315,-52 315,-58 309,-64 303,-64"/>
<text text-anchor="middle" x="252" y="-43.8" font-family="Vera Sans, DejaVu Sans, Liberation Sans, Arial, Helvetica, sans" font-size="9.00" fill="#000000">bpdn.ElasticNet.__init__</text>
</a>
</g>
</g>
<!-- bpdn.ElasticNet.__init__&#45;&gt;admm.ADMM.set_dtype -->
<g id="edge10" class="edge">
<title>bpdn.ElasticNet.__init__&#45;&gt;admm.ADMM.set_dtype</title>
<path fill="none" stroke="#d88c91" stroke-width="2" d="M315.21,-31.002C377.38,-17.578 475.17,0 561,0 561,0 561,0 735.5,0 853.41,0 971.28,-91.331 1022.7,-136.84"/>
<polygon fill="#d88c91" stroke="#d88c91" stroke-width="2" points="1020.6139,-139.67 1030.4,-143.73 1025.2817,-134.4535 1020.6139,-139.67"/>
</g>
<!-- bpdn.BPDN.__init__ -->
<g id="node9" class="node">
<title>bpdn.BPDN.__init__</title>
<g id="a_node9"><a xlink:href="../../sporco.admm.bpdn.html#sporco.admm.bpdn.BPDN.__init__" xlink:title="bpdn.BPDN.__init__" target="_top">
<path fill="#d48cd8" stroke="#000000" stroke-width=".25" d="M443,-366C443,-366 363,-366 363,-366 357,-366 351,-360 351,-354 351,-354 351,-342 351,-342 351,-336 357,-330 363,-330 363,-330 443,-330 443,-330 449,-330 455,-336 455,-342 455,-342 455,-354 455,-354 455,-360 449,-366 443,-366"/>
<text text-anchor="middle" x="403" y="-345.8" font-family="Vera Sans, DejaVu Sans, Liberation Sans, Arial, Helvetica, sans" font-size="9.00" fill="#000000">bpdn.BPDN.__init__</text>
</a>
</g>
</g>
<!-- bpdn.ElasticNet.__init__&#45;&gt;bpdn.BPDN.__init__ -->
<g id="edge11" class="edge">
<title>bpdn.ElasticNet.__init__&#45;&gt;bpdn.BPDN.__init__</title>
<path fill="none" stroke="#d88c91" stroke-width="2" d="M252.64,-64.117C255.33,-113.1 269.41,-249.62 343,-326 343.15,-326.15 343.3,-326.31 343.45,-326.46"/>
<polygon fill="#d88c91" stroke="#d88c91" stroke-width="2" points="341.0114,-328.9863 350.96,-332.63 345.4551,-323.5775 341.0114,-328.9863"/>
</g>
<!-- admm.ADMMEqual.__init__&#45;&gt;admm.ADMM.__init__ -->
<g id="edge5" class="edge">
<title>admm.ADMMEqual.__init__&#45;&gt;admm.ADMM.__init__</title>
<path fill="none" stroke="#8cd8d6" stroke-width="2" d="M804.28,-270C812.71,-270 821.31,-270 829.7,-270"/>
<polygon fill="#8cd8d6" stroke="#8cd8d6" stroke-width="2" points="829.79,-273.5001 839.79,-270 829.79,-266.5001 829.79,-273.5001"/>
</g>
<!-- bpdn.BPDN.__init__&#45;&gt;admm.ADMM.set_attr -->
<g id="edge7" class="edge">
<title>bpdn.BPDN.__init__&#45;&gt;admm.ADMM.set_attr</title>
<path fill="none" stroke="#d48cd8" stroke-width="2" d="M445.57,-329.99C518,-299.35 657.61,-240.33 659,-240 769.6,-214.07 902.35,-211.78 981.11,-213.3"/>
<polygon fill="#d48cd8" stroke="#d48cd8" stroke-width="2" points="981.3041,-216.8051 991.38,-213.53 981.4609,-209.8069 981.3041,-216.8051"/>
</g>
<!-- bpdn.BPDN.__init__&#45;&gt;admm.ADMM.set_dtype -->
<g id="edge8" class="edge">
<title>bpdn.BPDN.__init__&#45;&gt;admm.ADMM.set_dtype</title>
<path fill="none" stroke="#d48cd8" stroke-width="2" d="M446.56,-329.96C449.43,-328.65 452.27,-327.32 455,-326 548.08,-280.9 560.73,-246.26 659,-214 765.81,-178.93 896.45,-167.46 976.28,-163.74"/>
<polygon fill="#d48cd8" stroke="#d48cd8" stroke-width="2" points="976.8838,-167.2169 986.72,-163.28 976.5756,-160.2237 976.8838,-167.2169"/>
</g>
<!-- bpdn.BPDN.__init__&#45;&gt;bpdn.GenericBPDN.__init__ -->
<g id="edge9" class="edge">
<title>bpdn.BPDN.__init__&#45;&gt;bpdn.GenericBPDN.__init__</title>
<path fill="none" stroke="#d48cd8" stroke-width="2" d="M451.3,-329.8C452.62,-328.61 453.86,-327.35 455,-326 489.32,-285.56 458.19,-256.88 483,-210 495.26,-186.83 515.2,-165 531.85,-149.13"/>
<polygon fill="#d48cd8" stroke="#d48cd8" stroke-width="2" points="534.2817,-151.6483 539.23,-142.28 529.5196,-146.5177 534.2817,-151.6483"/>
</g>
<!-- admm._ADMM_Meta.__call__ -->
<g id="node11" class="node">
<title>admm._ADMM_Meta.__call__</title>
<g id="a_node11"><a xlink:href="../../sporco.admm.admm.html#sporco.admm.admm._ADMM_Meta.__call__" xlink:title="admm._ADMM_Meta.__call__" target="_top">
<path fill="#8c8fd8" stroke="#000000" stroke-width=".25" d="M141,-64C141,-64 20,-64 20,-64 14,-64 8,-58 8,-52 8,-52 8,-40 8,-40 8,-34 14,-28 20,-28 20,-28 141,-28 141,-28 147,-28 153,-34 153,-40 153,-40 153,-52 153,-52 153,-58 147,-64 141,-64"/>
<text text-anchor="middle" x="80.5" y="-43.8" font-family="Vera Sans, DejaVu Sans, Liberation Sans, Arial, Helvetica, sans" font-size="9.00" fill="#000000">admm._ADMM_Meta.__call__</text>
</a>
</g>
</g>
<!-- admm._ADMM_Meta.__call__&#45;&gt;bpdn.ElasticNet.__init__ -->
<g id="edge6" class="edge">
<title>admm._ADMM_Meta.__call__&#45;&gt;bpdn.ElasticNet.__init__</title>
<path fill="none" stroke="#8c8fd8" stroke-width="2" d="M153.23,-46C161.67,-46 170.28,-46 178.72,-46"/>
<polygon fill="#8c8fd8" stroke="#8c8fd8" stroke-width="2" points="178.92,-49.5001 188.92,-46 178.92,-42.5001 178.92,-49.5001"/>
</g>
</g>
</svg>
